<?xml version="1.0" encoding="utf-8"?>
<!-- Generator: Adobe Illustrator 23.0.1, SVG Export Plug-In . SVG Version: 6.00 Build 0)  -->
<svg version="1.1" id="Calque_1" xmlns="http://www.w3.org/2000/svg" xmlns:xlink="http://www.w3.org/1999/xlink" x="0px" y="0px"
	 viewBox="0 0 290.8 362" style="enable-background:new 0 0 290.8 362;" xml:space="preserve">
<style type="text/css">
	.st0{fill:#C10F1D;}
	.st1{fill:#FFFFFF;}
	.st2{fill:none;stroke:#000000;stroke-width:0.3;}
</style>
<path class="st0" d="M65.5,39.3h159.8c12.3,0,22.1,9.9,22.1,22.1v239.2c0,12.3-9.9,22.1-22.1,22.1H65.5c-12.3,0-22.1-9.9-22.1-22.1
	V61.4C43.4,49.1,53.3,39.3,65.5,39.3z"/>
<g>
	<path class="st1" d="M192.3,131.3c-12.4-12.1-32.3-11.8-44.4,0.6c-9.1,9.4-11.5,23.4-6,35.2c0.1,0.3,0.5,1-0.3,1.7
		c-11.3,11.3-45.1,45.1-45.1,45.1c-4.1,4.1-4.2,10.8-0.2,14.8c0,0,0.1,0.1,0.1,0.1l0,0c0.1,0.1,0.1,0.1,0.2,0.2l0.1,0.1
		c2.2,2.1,5.2,3,8.2,2.5c1-0.1,2-0.4,3-0.9c0.4-0.2,1.3-0.5,2,0.3l4.2,4.1c1.9,1.8,4.4,2.8,7,2.6c2.6,0,5-1,6.9-2.8
		c3.7-3.7,3.7-9.8,0-13.6l-4-4c0,0-0.9-0.8-0.1-1.6c0.5-0.5,1.8-1.8,1.8-1.8c1-1,1.7-0.2,1.9,0c0.1,0.1,0.2,0.2,0.4,0.3l8.2,8.2
		c3.7,3.7,9.8,3.7,13.6,0c3.7-3.7,3.7-9.8,0-13.6l-8.2-8.2c0,0-1.3-1.2,0.3-2.8c3.5-3.5,14.2-14.2,14.2-14.2
		c1.2-1.2,1.6-1.2,2.4-0.9c5.7,2.4,12,2.9,18.1,1.7c6.2-1.2,11.9-4.3,16.3-8.9c5.8-5.9,9-13.8,8.9-22.1
		C201.7,145.1,198.3,137.2,192.3,131.3z M185.8,166.9l-19,6.8l-15.4-13.1l3.6-19.9l19-6.8l15.4,13.1L185.8,166.9z"/>
</g>
<g>
	<line class="st2" x1="54" y1="0" x2="54" y2="36"/>
	<line class="st2" x1="0" y1="54" x2="36" y2="54"/>
	<line class="st2" x1="0" y1="308" x2="36" y2="308"/>
	<line class="st2" x1="54" y1="362" x2="54" y2="326"/>
	<line class="st2" x1="236.8" y1="0" x2="236.8" y2="36"/>
	<line class="st2" x1="290.8" y1="54" x2="254.8" y2="54"/>
	<line class="st2" x1="290.8" y1="308" x2="254.8" y2="308"/>
	<line class="st2" x1="236.8" y1="362" x2="236.8" y2="326"/>
</g>
</svg>
