<svg xmlns="http://www.w3.org/2000/svg" viewBox="0 0 1700.79 1700.79"><defs><style>.cls-1{fill:#cdcccc;}.cls-2{font-size:12px;font-family:MyriadPro-Regular, Myriad Pro;}.cls-13,.cls-19,.cls-2,.cls-20,.cls-23{fill:#fff;}.cls-3{letter-spacing:-0.01em;}.cls-4{letter-spacing:0.01em;}.cls-5{letter-spacing:0em;}.cls-6{letter-spacing:-0.01em;}.cls-7{letter-spacing:-0.01em;}.cls-8{letter-spacing:0em;}.cls-9{letter-spacing:-0.01em;}.cls-10{letter-spacing:-0.02em;}.cls-11{letter-spacing:-0.01em;}.cls-12{opacity:0.5;}.cls-14{letter-spacing:-0.01em;}.cls-15{letter-spacing:-0.03em;}.cls-16{letter-spacing:0.01em;}.cls-17{letter-spacing:-0.04em;}.cls-18{letter-spacing:0em;}.cls-19,.cls-20,.cls-22,.cls-29,.cls-30{stroke:#fff;stroke-miterlimit:10;}.cls-19{stroke-width:2px;}.cls-20{font-size:94.91px;}.cls-20,.cls-23{font-family:TwCenMT-CondensedExtraBold, Tw Cen MT Condensed Extra Bold;font-weight:800;}.cls-21{font-size:120px;}.cls-22,.cls-29,.cls-30{fill:none;}.cls-23{font-size:36px;}.cls-24{letter-spacing:-0.02em;}.cls-25{fill:#312783;}.cls-26{fill:#f9b233;}.cls-27{fill:#009640;}.cls-28{fill:#e30613;}.cls-29{stroke-width:8px;}.cls-30{stroke-width:5px;}</style></defs><title>Jeu_OA_plateau</title><g id="Fond"><rect class="cls-1" width="1700.79" height="1700.79"/></g><g id="Motif"><text class="cls-2" transform="translate(50.29 1673.75)">Jeu <tspan class="cls-3" x="19.61" y="0">r</tspan><tspan x="23.41" y="0">éalisé par la Bibliothèque de </tspan><tspan class="cls-4" x="166.65" y="0">l</tspan><tspan class="cls-5" x="169.56" y="0">’Uni</tspan><tspan class="cls-6" x="189.27" y="0">v</tspan><tspan class="cls-5" x="194.92" y="0">ersi</tspan><tspan class="cls-7" x="212.42" y="0">t</tspan><tspan x="216.32" y="0">é de </tspan><tspan class="cls-8" x="240.2" y="0">G</tspan><tspan class="cls-5" x="248.01" y="0">enè</tspan><tspan class="cls-6" x="266.7" y="0">v</tspan><tspan x="272.35" y="0">e sous li</tspan><tspan class="cls-9" x="311.79" y="0">c</tspan><tspan class="cls-5" x="317.09" y="0">en</tspan><tspan class="cls-7" x="329.77" y="0">c</tspan><tspan x="335.07" y="0">e </tspan><tspan class="cls-10" x="343.63" y="0">C</tspan><tspan x="350.33" y="0">C </tspan><tspan class="cls-11" x="359.84" y="0">B</tspan><tspan x="366.16" y="0">Y 4.0</tspan></text><g class="cls-12"><path class="cls-13" d="M1448.67,308.05l-1.83,3.31a67.86,67.86,0,0,0-78.72-28.44l-2.48-8.65-6.37,1.83L1356,264.67l3.19-.91-4.09-14-23.66,6.75,4.14,14.07,3.17-.9,3.25,11.42-6.35,1.82,12.79,44.61-6.38,1.83,4,14.06,42.75-12.25-4-14.06-6.37,1.82L1373.31,301a49.53,49.53,0,0,1,26.78-1.51,9.35,9.35,0,0,0,17,7.4,50.81,50.81,0,0,1,4.65,3.62,16.31,16.31,0,0,0-3.83,4.62l-17,30.74a11.74,11.74,0,0,0,4.57,15.94l2,1.13,14.86-26.81a16.65,16.65,0,0,0,2,1.3l6.15,3.41-15.91,28.7a11.73,11.73,0,0,0,4.57,15.93l6.14,3.41,45.46-82-6.14-3.41A11.73,11.73,0,0,0,1448.67,308.05Zm-111.4-48.38,14.63-4.17,1.47,5.05-14.61,4.19Zm6,8.66,8.24-2.36,3.27,11.42-8.26,2.37ZM1383,327.91l-33.73,9.66-1.45-5.05,33.73-9.67Zm-9.12-7.74-21,6-11.5-40.1,21-6ZM1372,296.5l-2.59-9.07A63.22,63.22,0,0,1,1438.76,308a16.35,16.35,0,0,0-12.8,0,54.38,54.38,0,0,0-7.57-5.85,9.3,9.3,0,0,0-15.67-6.81A54.1,54.1,0,0,0,1372,296.5Zm34.77,9.77a4.69,4.69,0,1,1,6.38-1.83A4.68,4.68,0,0,1,1406.78,306.27Zm-.9,50a7.06,7.06,0,0,1-.88-8.07l11.49-20.73a16.5,16.5,0,0,0,2.48,5.2Zm58.5-47.51-40.91,73.8-2-1.14a7,7,0,0,1-2.74-9.56l20.46-36.9-4.1-2.27-2.28,4.1-6.15-3.41a11.72,11.72,0,0,1,11.37-20.5l6.15,3.41-6.82,12.3,4.1,2.27,11.36-20.49a7,7,0,0,1,9.56-2.74Z"/></g><g class="cls-12"><path class="cls-13" d="M371.29,1355l-8.51-28.81a5.88,5.88,0,0,0-3.95-11.05l-25.06,7.4a5.88,5.88,0,0,0,2.69,11.43l8.51,28.81a38,38,0,0,0-11.57,14.87,2,2,0,0,0,3.59,1.57,33.9,33.9,0,0,1,11.39-14.09,2,2,0,0,0,.74-2.15l-8.89-30.09,10.65-3.14a2,2,0,1,0-1.11-3.76L336,1330a2,2,0,1,1-1.11-3.76l25.06-7.4a2,2,0,0,1,1.11,3.76l-3.76,1.11a2,2,0,0,0,1.11,3.76l.63-.19,8.89,30.09a2,2,0,0,0,1.78,1.4,34,34,0,1,1-4.89,67.76,2,2,0,1,0-.39,3.9,37.9,37.9,0,1,0,6.87-75.49Z"/><path class="cls-13" d="M383.54,1393.31a2,2,0,0,1,2.44,1.33,2,2,0,1,1-2.44-1.33Z"/><path class="cls-13" d="M378.25,1403.05a2,2,0,1,1-1.33,2.44A2,2,0,0,1,378.25,1403.05Z"/><path class="cls-13" d="M364.23,1418.57a2,2,0,0,0-.59,3.87,30.05,30.05,0,0,0,25.2-51.5,1.94,1.94,0,0,0-2.15-.37l-.66.3-.24.13a15.06,15.06,0,0,0-4.71,4.68,6.65,6.65,0,0,1-4.33,3.26c-2.22.65-3.47.09-5.21-.69a10.31,10.31,0,0,0-14.12,4.17c-1,1.6-1.78,2.76-4,3.41a6.66,6.66,0,0,1-5.41-.38,15,15,0,0,0-6.49-1.37l-.28,0-.71.11a2,2,0,0,0-1.61,1.47.36.36,0,0,0,0,.1,2,2,0,0,0,2.76,2.22h0a11.11,11.11,0,0,1,4.84,1.08,10.94,10.94,0,0,0,14.18-4.54c1-1.6,1.78-2.75,4-3.41s3.48-.09,5.22.69a10.93,10.93,0,0,0,14.37-3.9,11.52,11.52,0,0,1,2.87-3.12,26.15,26.15,0,0,1-11.63,43,25.94,25.94,0,0,1-11.31.79Z"/><path class="cls-13" d="M322.34,1370.5l-11-37.32a5.88,5.88,0,0,0-3.95-11.06l-25.06,7.4A5.88,5.88,0,0,0,285,1341l8.9,30.12a2,2,0,0,0,3.76-1.11l-8.89-30.09,10.65-3.14a2,2,0,1,0-1.11-3.76L284.52,1337a2,2,0,0,1-1.11-3.76l25.06-7.4a2,2,0,1,1,1.11,3.76l-3.76,1.11a2,2,0,0,0,1.11,3.76l.63-.19,11.11,37.6a2.13,2.13,0,0,0,.28.59l33.88,47.42c2,2.86,2.67,5.9,1.76,8.54s-3.27,4.65-6.65,5.64l-38.84,11.48c-3.38,1-6.45.6-8.65-1.13s-3.32-4.61-3.16-8.12l2.66-58.22a2,2,0,0,0-3.91-.18l-2.67,58.22c-.22,4.82,1.44,8.86,4.66,11.39s7.55,3.16,12.18,1.8l38.84-11.48c4.63-1.36,7.91-4.25,9.24-8.12s.53-8.17-2.28-12.1l-33.67-47.15Z"/><path class="cls-13" d="M304.65,1418a2,2,0,0,0-1.79.18,2,2,0,0,0-.89,1.56l-.77,16.82c-.1,2.21.49,3.94,1.67,4.86s3,1.08,5.12.45l38.84-11.48c2.13-.62,3.56-1.75,4.05-3.16s0-3.18-1.24-5l-9.79-13.7a2,2,0,0,0-3.19,0,6.31,6.31,0,0,1-3.92,2.69c-2.22.65-3.48.09-5.22-.69a10.31,10.31,0,0,0-14.12,4.17c-1,1.6-1.78,2.75-4,3.41a6.29,6.29,0,0,1-4.75-.12Zm12-1.17c1-1.6,1.79-2.75,4-3.41s3.47-.09,5.21.69a10.29,10.29,0,0,0,7.94.87,11.2,11.2,0,0,0,4.23-2.17l8.37,11.72a1.11,1.11,0,1,1-.73,2.1l-38.85,11.48a4,4,0,0,1-1.56.2,3.74,3.74,0,0,1-.19-1.57l.66-14.38a11.13,11.13,0,0,0,4.73-.48,10.27,10.27,0,0,0,6.18-5Z"/></g><g class="cls-12"><path class="cls-13" d="M450.41,764.29l-1.26-3.8-2.53.83.84,2.54-2.54.83-3.35-10.13,2.54-.84,1.67,5.07,2.54-.84-2.1-6.33a1.34,1.34,0,1,1,2.54-.84l4.18,12.67a1.34,1.34,0,0,1-.85,1.69A1.33,1.33,0,0,1,450.41,764.29Zm-11.33-25.77-2.53.83-3.35-10.13,2.53-.84,1.68,5.07,2.53-.84-2.09-6.33a1.33,1.33,0,1,1,2.53-.84l4.19,12.67A1.34,1.34,0,0,1,442,739l-1.25-3.8-2.54.83Zm-4.53-39.23v0a4,4,0,0,0-7.79,1.17l-2.76.91-2.1-6.33-7.6,2.51,2.09,6.33-24.07,8-2.09-6.34L382.61,708l2.1,6.33-3.8,1.26a8,8,0,1,0,5,15.2l3.8-1.25,3.35,10.13-3.8,1.26a8,8,0,1,0,5,15.2l3.8-1.25L401.46,765l-3.81,1.26a8,8,0,1,0,5,15.2l3.8-1.25,2.09,6.33,7.61-2.51-2.1-6.33,24.08-8,2.09,6.34,7.6-2.52-2.09-6.33,2.77-.92a4,4,0,0,0,4.4,1.36,5.57,5.57,0,0,0,3-3.79l-5.13-15.51a5.69,5.69,0,0,0-4.54-1,4,4,0,0,0-2.73,3.71l-2.77.91-3.34-10.13,2.76-.92a4,4,0,0,0,4.41,1.36,3.87,3.87,0,0,0,1.41-.83l1.8-2.11-.67-2.12-.43-1.3-3.33-10.07-.42-1.3a4,4,0,0,0-7.79,1.17l-2.77.91L429,716.55l2.77-.92a4,4,0,0,0,4.4,1.36c1.36-.45,2.65-2.5,3-3.79l-1.26-3.8-1.67-5.07M432,700.1l4.19,12.67a1.33,1.33,0,0,1-.85,1.68,1.34,1.34,0,0,1-1.69-.84l-1.26-3.81-2.53.84.84,2.53-2.54.84-3.35-10.13,2.54-.84,1.67,5.07,2.54-.84-2.1-6.34a1.34,1.34,0,0,1,2.54-.83Zm-46.92,28.15a5.34,5.34,0,0,1-3.35-10.14l3.8-1.25L388.89,727Zm8.38,25.34a5.34,5.34,0,1,1-3.35-10.14l3.8-1.25,3.35,10.13Zm8.37,25.34a5.34,5.34,0,0,1-3.35-10.14l3.8-1.25,3.35,10.13Zm11,3.41-2.53.83L386,709.68l2.53-.83Zm-11.64-65a6.68,6.68,0,0,0,4.53-7.12l6.46-2.14,3.35,10.14-19,6.28-3.35-10.14.13,0A6.69,6.69,0,0,0,401.16,717.32Zm-5.25-3.89,7.14-2.36a4,4,0,0,1-7.14,2.36Zm18.78-6.2,2.53-.84,3.35,10.13-2.53.84ZM397.33,727l24.08-8,3.35,10.14-24.08,7.95Zm20.21,18.62-2.66.88a6.68,6.68,0,0,0-7.88-3,6.58,6.58,0,0,0-3.37,2.55l-2.11-6.37,12.67-4.18Zm-.81-11,8.87-2.93L429,741.87l-8.87,2.93Zm-4.49,12.73-7.13,2.35a4,4,0,0,1,7.13-2.35Zm-6.53,5,24.07-8,3.35,10.14-24.07,8Zm16,14.38a6.68,6.68,0,0,0,4.53-7.12l1.39-.46L431,769.3l-12.79,4.23a6.71,6.71,0,0,0-6.58-3.31L409.9,765l3.92-1.3A6.69,6.69,0,0,0,421.71,766.74Zm-5.25-3.88,7.14-2.36a4,4,0,0,1-7.14,2.36Zm13.71-4.53,3.8-1.26,3.35,10.14-3.8,1.25ZM415.55,774.4l-2.31.76-.76-2.3A4,4,0,0,1,415.55,774.4Zm2.11-75.18,2.54-.84,24.28,73.49-2.53.84Z"/></g><g class="cls-12"><path class="cls-13" d="M836.34,1190.37a.61.61,0,0,0-.68-1,5.94,5.94,0,0,1-1.66.51.61.61,0,0,0-.25,1.2,5.35,5.35,0,0,0,2.4-.58A.7.7,0,0,0,836.34,1190.37Z"/><path class="cls-13" d="M837.91,1196.53a2.12,2.12,0,1,0-3,0A2.14,2.14,0,0,0,837.91,1196.53Zm-2.13-2.13a.89.89,0,0,1,1.26,0,.89.89,0,1,1-1.26,1.26A.89.89,0,0,1,835.78,1194.4Z"/><path class="cls-13" d="M826.11,1188.13a.62.62,0,0,0-.67-1,3,3,0,0,1-1.78-.18.62.62,0,0,0-.87.08.63.63,0,0,0,.08.87,3.91,3.91,0,0,0,3,.37A.69.69,0,0,0,826.11,1188.13Z"/><path class="cls-13" d="M838.77,1207.44l1.56-.6a6.37,6.37,0,0,0,2.16-1.41,6.1,6.1,0,0,0,1.73-3.41,6.18,6.18,0,0,0-2.17-5.8l-.73-.61a2.58,2.58,0,0,1-.93-1.77l-.42-4.6a3.85,3.85,0,0,0-6.12-2.75l-.2.15a2.58,2.58,0,0,1-2.2.43.61.61,0,0,0-.75.44.61.61,0,0,0,.44.75,3.85,3.85,0,0,0,3.25-.63l.2-.14a2.55,2.55,0,0,1,2.62-.28,2.58,2.58,0,0,1,1.53,2.14l.42,4.6a3.83,3.83,0,0,0,1.37,2.61l.74.61a5,5,0,0,1-1.39,8.52l-1.56.61a10.76,10.76,0,0,0-4.25,3l-2.5,2.88a6.17,6.17,0,0,1-10-.93l-1.83-3.11a3.85,3.85,0,0,0-3.45-1.9l-1.06,0a2.61,2.61,0,0,1-2.27-4l2.78-4.24a3.83,3.83,0,0,0,.45-3.29l-.76-2.36a2.62,2.62,0,0,1,2.65-3.41,3.84,3.84,0,0,0,3.9-2.71l.27-.9a2.62,2.62,0,0,1,4.44-1l1.86,2.05a.62.62,0,1,0,.92-.83l-1.87-2a3.84,3.84,0,0,0-6.53,1.45l-.27.9a2.62,2.62,0,0,1-2.65,1.84,3.85,3.85,0,0,0-3.89,5l.76,2.36a2.59,2.59,0,0,1-.31,2.23l-2.79,4.24a3.85,3.85,0,0,0,3.35,6l1.07,0a2.59,2.59,0,0,1,2.34,1.29l1.82,3.11a7.41,7.41,0,0,0,12,1.11l2.51-2.89A9.62,9.62,0,0,1,838.77,1207.44Z"/><path class="cls-13" d="M828.05,1192.19a.63.63,0,0,0,0,.88l.62.62a.62.62,0,1,0,.87-.87l-.62-.63A.62.62,0,0,0,828.05,1192.19Z"/><path class="cls-13" d="M836.83,1204a2.12,2.12,0,1,0,0-3A2.14,2.14,0,0,0,836.83,1204Zm.87-2.13a.89.89,0,1,1,0,1.25A.88.88,0,0,1,837.7,1201.85Z"/><path class="cls-13" d="M849.24,1194.59a2.93,2.93,0,0,1-1.88,0,6.67,6.67,0,0,0-3-.07c-.17-.17-.35-.33-.54-.49l-.67-.55-.41-4.51a6.67,6.67,0,0,0-10.6-4.76l0,0-.54-.59a7.68,7.68,0,0,0,.66-6.61,1.82,1.82,0,0,0-1-1,1.85,1.85,0,0,0-2.49,2.34,3.37,3.37,0,0,1,0,2.42,6.54,6.54,0,0,0-3.87-1.38,7.17,7.17,0,0,0-2.21.32,2.26,2.26,0,0,1,.15-.39,1.85,1.85,0,1,0-3.26-1.75,5.91,5.91,0,0,0-.52,4.05c0,.22.1.44.16.67a6.72,6.72,0,0,0-.87,1.81l-.23.75a6.67,6.67,0,0,0-6.57,8.7l0,.16a13.76,13.76,0,0,0-1.63.21,14.74,14.74,0,0,0-4,1.28,1.85,1.85,0,1,0,1.87,3.19,11.44,11.44,0,0,1,2.51-.77c.33-.07.61-.12.86-.15L809.6,1200a6.67,6.67,0,0,0,5,10.3,8.31,8.31,0,0,0-.39,3.5,1.86,1.86,0,0,0,2,1.69,1.87,1.87,0,0,0,1.69-2,5.33,5.33,0,0,1,0-.56l.21.36a10.16,10.16,0,0,0,7.51,5,10.92,10.92,0,0,0,1.13.08,4.84,4.84,0,0,0,.24,3.75,1.85,1.85,0,0,0,2.48.82,1.85,1.85,0,0,0,.81-2.49c-.24-.49,0-1.14.62-2.4l.3-.6a10.62,10.62,0,0,0,2.11-1.32.61.61,0,0,0,.1-.86.62.62,0,0,0-.87-.1,9.1,9.1,0,0,1-2,1.23l-.07,0a9.11,9.11,0,0,1-2.82.69h0a9,9,0,0,1-1.8-.06,8.87,8.87,0,0,1-6.6-4.36l-1.83-3.11a1,1,0,0,0-.92-.51l-1.07,0a5.43,5.43,0,0,1-4.72-8.42l2.79-4.24a1,1,0,0,0,.12-.88l-.76-2.36a5.44,5.44,0,0,1,5.49-7.08,1,1,0,0,0,.79-.3,1,1,0,0,0,.25-.43l.28-.89a5.19,5.19,0,0,1,.86-1.69h0a6.3,6.3,0,0,1,.48-.55,5.45,5.45,0,0,1,1.42-1h0a5.43,5.43,0,0,1,6.45,1.21l2.53,2.8a1,1,0,0,0,1.37.14l.2-.15a5.44,5.44,0,0,1,8.64,3.88l.42,4.59a1,1,0,0,0,.36.7l.74.61a7.73,7.73,0,0,1,2.81,5.64,7.91,7.91,0,0,1-2.27,5.92l-.61.55h0a7.79,7.79,0,0,1-2.1,1.2l-1.56.61a7.91,7.91,0,0,0-2.75,1.8c-.14.13-.26.27-.39.41l-1.74,2a.62.62,0,0,0,.07.87.61.61,0,0,0,.87-.06l1.73-2a6.72,6.72,0,0,1,2.66-1.87l.72-.28a7.66,7.66,0,0,0,5.1.85,1.88,1.88,0,0,0,.88-.49,1.82,1.82,0,0,0,.49-1.73,1.8,1.8,0,0,0-.83-1.15,1.83,1.83,0,0,0-1.29-.25,9.08,9.08,0,0,0,2.25-6.43,8.63,8.63,0,0,0-.41-2.34,6.38,6.38,0,0,0,4-.26,1.94,1.94,0,0,0,.58-.4,1.85,1.85,0,0,0-2-3Zm-19.43-12.89a4.77,4.77,0,0,0,.13-3.77.62.62,0,1,1,1.16-.43,6.18,6.18,0,0,1-.39,5.19Zm-1.74,36.58a8.83,8.83,0,0,0,1.45-.27,3.32,3.32,0,0,0-.34,3,.61.61,0,0,1-.12.71.48.48,0,0,1-.16.12.63.63,0,0,1-.83-.27A3.86,3.86,0,0,1,828.07,1218.28Zm-11.73-8,.56,1a6.45,6.45,0,0,0-.22,2.35.6.6,0,0,1-.18.49.64.64,0,0,1-.38.18.62.62,0,0,1-.67-.57,6.56,6.56,0,0,1,.5-3.39Zm-4-14.46-.23.35a11.42,11.42,0,0,0-2,.25,12.2,12.2,0,0,0-2.88.92.63.63,0,0,1-.85-.22.62.62,0,0,1,.22-.84,13.69,13.69,0,0,1,3.62-1.14,12,12,0,0,1,1.8-.2Zm9.12-15.52a6.42,6.42,0,0,0-1.17.84,4.67,4.67,0,0,1,.45-3,.62.62,0,0,1,1.09.59A3.17,3.17,0,0,0,821.45,1180.31Zm24.33,28.39a.62.62,0,0,1-.16.58.55.55,0,0,1-.3.16,6,6,0,0,1-3.24-.3,8.54,8.54,0,0,0,1.45-.89,4,4,0,0,0,1.51,0,.6.6,0,0,1,.47.08A.56.56,0,0,1,845.78,1208.7Zm4.76-12.66a.61.61,0,0,1-.13.68.59.59,0,0,1-.19.13,5.21,5.21,0,0,1-3.34.18c-.26,0-.5-.1-.73-.13a9.17,9.17,0,0,0-.79-1.26,6.57,6.57,0,0,1,1.76.18,4.06,4.06,0,0,0,2.61-.1A.62.62,0,0,1,850.54,1196Z"/><path class="cls-13" d="M828.3,1211.79a2.06,2.06,0,0,0,.66-.44,2.5,2.5,0,0,0,.61-1.52,1.6,1.6,0,0,1,.34-.95h0a.62.62,0,1,0-.87-.88v0a2.71,2.71,0,0,0-.69,1.64c-.08.59-.13.83-.54,1a.62.62,0,0,0,.49,1.14Z"/><path class="cls-13" d="M821.52,1199.59a.62.62,0,0,0-.87,0,.63.63,0,0,0,0,.88l.62.62a.62.62,0,0,0,.87-.87Z"/><path class="cls-13" d="M817.46,1201.34a.64.64,0,0,0,0-.88.62.62,0,0,0-.87,0,3.19,3.19,0,0,0-.86,1.46,2.54,2.54,0,0,1-.83,1.3.61.61,0,1,0,.79.94,3.08,3.08,0,0,0,.26-.24,3.73,3.73,0,0,0,.94-1.59A2.09,2.09,0,0,1,817.46,1201.34Z"/><path class="cls-13" d="M821,1191.07a1.9,1.9,0,1,0,0,2.69A1.9,1.9,0,0,0,821,1191.07Zm-1.81,1.82a.68.68,0,0,1,0-1,.66.66,0,0,1,.94,0,.68.68,0,0,1,0,1A.66.66,0,0,1,819.16,1192.89Z"/><path class="cls-13" d="M827.63,1199.18a2.48,2.48,0,1,0-3.35-.14A2.38,2.38,0,0,0,827.63,1199.18Zm-2.62-2.62a1.26,1.26,0,1,1,.14,1.61A1.14,1.14,0,0,1,825,1196.56Z"/><path class="cls-13" d="M826.09,1210.87a1.9,1.9,0,1,0-2.69,0A1.9,1.9,0,0,0,826.09,1210.87Zm-1.82-1.81a.66.66,0,1,1,0,.94A.66.66,0,0,1,824.27,1209.06Z"/><path class="cls-13" d="M831.91,1203.32a.64.64,0,0,0,.28-.16.6.6,0,0,0,.16-.59,3.26,3.26,0,0,0-.11-.4c-.21-.7-.29-1,.3-1.48a.63.63,0,0,0,0-.88.62.62,0,0,0-.87,0,2.27,2.27,0,0,0-.65,2.75c0,.12.07.24.1.36A.62.62,0,0,0,831.91,1203.32Z"/><path class="cls-13" d="M874,1143.5l2.1-5.24-1.69-.68-2.18,5.44a11.86,11.86,0,0,0-4.56.07l-1.19-4.75-1.76.45,1.2,4.81a11.81,11.81,0,0,0-4.18,2.68l-.19.2-2.15-7.52-1.75.5,2.39,8.36a9.11,9.11,0,0,1-5.11,1.76v-3.3h-1.82v3.17a9,9,0,0,1-4.88-2.52l-.1-.09,2.77-3.89-1.48-1.06-2.7,3.79a10.69,10.69,0,0,0-3.06-1.48l2.22-6.64-1.73-.57-2.28,6.84a10.53,10.53,0,0,0-2.51,0l-.52-4.7-1.81.21.54,4.83a10.63,10.63,0,0,0-2.49,1l-2.18-3.27-1.51,1,2.19,3.28c-.27.23-.54.46-.79.72a10.86,10.86,0,0,0-1.68,2.18l-4.76-4.76-1.28,1.29,5.21,5.22a10.55,10.55,0,0,0-.45,1.55l-6.61-.6-.17,1.82,6.57.59a11.25,11.25,0,0,0,.12,2.17l-2.92.58.36,1.79,3-.6a11,11,0,0,0,1.44,2.81l-4.62,4.62,1.28,1.28,4.51-4.5.64.64q.71.71,1.44,1.35l-2.2,3.3,1.52,1,2.09-3.14a30.65,30.65,0,0,0,3.1,2.15l-2.88,5.19,1.59.88,2.87-5.16c.71.38,1.44.73,2.17,1.05l-2.19,6.6,1.72.57,2.17-6.49a29.17,29.17,0,0,0,3,1l-1.14,5.72,1.78.36,1.13-5.66a31.16,31.16,0,0,0,3.45.5l-.57,2.87,1.78.36.62-3.12c.94,0,1.87,0,2.8,0l.57,6.26,1.82-.17-.57-6.25c.94-.1,1.88-.25,2.81-.44l1.75,7.62,1.78-.4-1.76-7.63a30.44,30.44,0,0,0,3.43-1.11l2.42,4.84,1.62-.81-2.36-4.73a32.73,32.73,0,0,0,3.35-1.79l2,2.93,1.51-1-1.94-2.91c.82-.57,1.61-1.17,2.38-1.82l4.59,4.59,1.29-1.29-4.52-4.52c.22-.21.45-.41.66-.63a11.7,11.7,0,0,0,2-2.66l4.8,1.6.58-1.73-4.63-1.54a11.49,11.49,0,0,0,.59-2.36l3.62.52.26-1.8-3.76-.54a12.41,12.41,0,0,0-.24-2.27l6-1.19-.36-1.79-6.14,1.23a11.53,11.53,0,0,0-1.51-2.8l4.61-4.61-1.28-1.29-4.51,4.51A11.56,11.56,0,0,0,874,1143.5Zm3.18,18.23a30.07,30.07,0,0,1-42.46,0l-.65-.65a9.1,9.1,0,0,1,12.87-12.87,10.94,10.94,0,0,0,15.45,0l.64-.64a10,10,0,0,1,14.15,14.16Z"/><path class="cls-13" d="M844.35,1157.22a5.46,5.46,0,1,0-7.72,0A5.46,5.46,0,0,0,844.35,1157.22Zm-6.43-6.43a3.64,3.64,0,1,1,0,5.15A3.63,3.63,0,0,1,837.92,1150.79Z"/><path class="cls-13" d="M846.28,1161.73a2.73,2.73,0,1,0,3.86,0A2.74,2.74,0,0,0,846.28,1161.73Zm2.57,2.57a.89.89,0,0,1-1.28,0,.91.91,0,1,1,1.28,0Z"/><path class="cls-13" d="M859.15,1161.73a3.64,3.64,0,1,0,5.15,0A3.63,3.63,0,0,0,859.15,1161.73Zm3.86,3.86a1.82,1.82,0,1,1,0-2.58A1.82,1.82,0,0,1,863,1165.59Z"/><path class="cls-13" d="M857.86,1152.72a2.73,2.73,0,1,0,3.86,0A2.74,2.74,0,0,0,857.86,1152.72Zm2.58,2.57a.91.91,0,0,1-1.29,0,.89.89,0,0,1,0-1.28.91.91,0,0,1,1.29,1.28Z"/><path class="cls-13" d="M868.8,1150.79a3.64,3.64,0,1,0,5.15,0A3.65,3.65,0,0,0,868.8,1150.79Zm3.86,3.86a1.82,1.82,0,1,1,0-2.57A1.82,1.82,0,0,1,872.66,1154.65Z"/><path class="cls-13" d="M862.37,1123.76l-.16-.15a8.45,8.45,0,0,0-1.45-1.17l.54-1.6-1.73-.58-.45,1.35a9.32,9.32,0,0,0-2.8-.58l.51-3.57-1.8-.26-.56,3.94a8.69,8.69,0,0,0-1.73.47l-.45-1.35-1.73.57.54,1.61a8.85,8.85,0,0,0-1.45,1.17l-.15.15-1.29-1.28-1.29,1.28,1.36,1.36a4.4,4.4,0,0,0-.6,1.37l-1.11-.37-.58,1.73,1.61.53a4.52,4.52,0,0,0,.57,1.56l-2.36,1.41.94,1.56,2.67-1.6a4.43,4.43,0,0,0,1.39.66l-.84,1.68,1.63.82,1.18-2.37a4.56,4.56,0,0,0,1.24-.38l.38,1.87,1.78-.35-.52-2.61a.88.88,0,0,1,.91.21,4.49,4.49,0,0,0,1.46,1l-.42,2.07,1.79.36.41-2.07a4.63,4.63,0,0,0,1.64-.31l2.85,2.84,1.28-1.28-2.57-2.58a4.47,4.47,0,0,0,1-1.66h2.82v-1.82h-2.56a4.43,4.43,0,0,0-.72-2.24l1.35-1.36-1.29-1.28Zm-.65,1.94a2.73,2.73,0,1,1-3.86,3.86,2.72,2.72,0,0,0-3.86,0,2.73,2.73,0,1,1-3.86-3.87l.8-.79a7.06,7.06,0,0,1,10,0Z"/><path class="cls-13" d="M805.9,1163l-.15.15a9.22,9.22,0,0,0-1.11,1.5l-1.63-.47-.5,1.75,1.37.4a8.73,8.73,0,0,0-.46,2.82l-3.59-.36-.19,1.81,4,.4a9.33,9.33,0,0,0,.54,1.7l-1.33.51.65,1.7,1.58-.6a9,9,0,0,0,1.23,1.4l.16.14-1.23,1.34,1.34,1.23,1.29-1.4a4.59,4.59,0,0,0,1.4.53l-.32,1.13,1.74.51.47-1.63a4.37,4.37,0,0,0,1.53-.64l1.51,2.3,1.52-1-1.71-2.6a4.56,4.56,0,0,0,.61-1.42l1.71.77.75-1.66-2.41-1.08a4.88,4.88,0,0,0-.44-1.23l1.86-.45-.43-1.77-2.59.63a.9.9,0,0,1,.18-.92,4.64,4.64,0,0,0,.91-1.49l2.08.32.28-1.79-2.08-.33a4.32,4.32,0,0,0-.38-1.62l2.72-3-1.33-1.23-2.47,2.68a4.46,4.46,0,0,0-1.71-1l-.11-2.81-1.82.08.11,2.55a4.49,4.49,0,0,0-2.21.82l-1.41-1.3-1.23,1.34Zm2,.56a2.73,2.73,0,0,1,4,3.7,2.72,2.72,0,0,0,.16,3.85,2.73,2.73,0,1,1-3.7,4l-.83-.76a7.07,7.07,0,0,1-.41-10Z"/><path class="cls-13" d="M862.76,1190.26l-4.5-3.4-1.1,1.45,4.67,3.53a11.94,11.94,0,0,0-1.14,4.42l-4.89-.11,0,1.82,5,.11a11.67,11.67,0,0,0,1.49,4.74l.14.24-7.83.09,0,1.82,8.7-.1a9.07,9.07,0,0,1,.35,5.39l-3.18-.87-.48,1.76,3.05.83a9,9,0,0,1-3.72,4l-.11.07-3-3.7-1.42,1.15,2.94,3.6a10.81,10.81,0,0,0-2.23,2.56l-5.82-3.89-1,1.52,6,4a11.44,11.44,0,0,0-.7,2.41l-4.66-.73-.28,1.8,4.8.76a11.06,11.06,0,0,0,.35,2.67l-3.72,1.24.57,1.73,3.75-1.25a9.4,9.4,0,0,0,.48,1,10.35,10.35,0,0,0,1.66,2.19l-5.84,3.34.9,1.58,6.4-3.65a11.67,11.67,0,0,0,1.39.84l-2.33,6.22,1.71.64,2.31-6.17a10.24,10.24,0,0,0,2.12.44l-.21,3,1.82.13.21-3.06a10.78,10.78,0,0,0,3.09-.64l3.24,5.67,1.58-.9-3.16-5.53.79-.45c.58-.33,1.13-.68,1.68-1l2.6,3,1.37-1.19-2.47-2.85A30.72,30.72,0,0,0,877,1230l4.23,4.15,1.28-1.3-4.22-4.13c.55-.59,1.08-1.2,1.58-1.82l5.79,3.86,1-1.51-5.69-3.8a30,30,0,0,0,1.71-2.66l5.21,2.61.82-1.63-5.16-2.58a34.66,34.66,0,0,0,1.4-3.19l2.61,1.31.82-1.63-2.84-1.42c.27-.89.51-1.8.71-2.71l6.19,1.1.32-1.79-6.18-1.1c.15-.94.26-1.88.32-2.82l7.81.31.08-1.82-7.82-.31a31,31,0,0,0-.17-3.6l5.31-1.06-.35-1.78-5.19,1a29.94,29.94,0,0,0-.84-3.7l3.34-1.11-.57-1.73-3.32,1.11c-.33-.94-.71-1.87-1.13-2.78l5.64-3.22-.9-1.58-5.56,3.17c-.14-.27-.28-.54-.43-.8a11.57,11.57,0,0,0-2-2.63l2.81-4.2-1.52-1-2.7,4.06a11.71,11.71,0,0,0-2.13-1.19l1.46-3.36-1.67-.72-1.51,3.48a12.13,12.13,0,0,0-2.25-.36l.43-6.09-1.82-.12-.43,6.24a11.63,11.63,0,0,0-3.1.72l-3.24-5.67-1.58.9,3.16,5.54A11.77,11.77,0,0,0,862.76,1190.26Zm18.42,1.75A30.07,30.07,0,0,1,870,1233l-.79.45a9.1,9.1,0,0,1-9-15.81,10.94,10.94,0,0,0,4.07-14.9l-.45-.79a10,10,0,0,1,17.39-9.91Z"/><path class="cls-13" d="M868.17,1222.47a5.46,5.46,0,1,0-2,7.45A5.46,5.46,0,0,0,868.17,1222.47Zm-7.9,4.5a3.64,3.64,0,1,1,5,1.36A3.64,3.64,0,0,1,860.27,1227Z"/><path class="cls-13" d="M873,1221.8a2.73,2.73,0,1,0,1-3.73A2.73,2.73,0,0,0,873,1221.8Zm3.16-1.81a.91.91,0,1,1-1.24-.34A.92.92,0,0,1,876.19,1220Z"/><path class="cls-13" d="M876.43,1209.38a3.64,3.64,0,1,0,1.35-5A3.63,3.63,0,0,0,876.43,1209.38Zm4.74-2.7a1.82,1.82,0,1,1-2.48-.68A1.82,1.82,0,0,1,881.17,1206.68Z"/><path class="cls-13" d="M867.4,1208.25a2.73,2.73,0,1,0,1-3.73A2.74,2.74,0,0,0,867.4,1208.25Zm3.16-1.81a.91.91,0,0,1-1.58.91.91.91,0,1,1,1.58-.91Z"/><path class="cls-13" d="M868.42,1197.19a3.64,3.64,0,1,0,1.36-5A3.66,3.66,0,0,0,868.42,1197.19Zm4.75-2.71a1.83,1.83,0,1,1-2.49-.68A1.83,1.83,0,0,1,873.17,1194.48Z"/><path class="cls-13" d="M892.47,1168.48l-.15.16a8.74,8.74,0,0,0-1.1,1.5l-1.63-.47-.5,1.75,1.36.39a9.4,9.4,0,0,0-.46,2.82l-3.59-.36-.18,1.81,4,.4a8.7,8.7,0,0,0,.54,1.71l-1.33.5.64,1.7,1.59-.6a8.51,8.51,0,0,0,1.23,1.4l.16.15-1.24,1.34,1.34,1.23,1.3-1.41a4.52,4.52,0,0,0,1.4.54l-.33,1.13,1.75.5.47-1.62a4.66,4.66,0,0,0,1.53-.64l1.51,2.3,1.52-1-1.72-2.6a4.51,4.51,0,0,0,.61-1.41l1.72.76.74-1.66-2.41-1.08a4.26,4.26,0,0,0-.44-1.22l1.86-.45-.43-1.77-2.58.63a.91.91,0,0,1,.17-.93,4.43,4.43,0,0,0,.91-1.49l2.09.33.28-1.8-2.08-.32a4.63,4.63,0,0,0-.39-1.63l2.73-3-1.34-1.23-2.46,2.67a4.51,4.51,0,0,0-1.71-1l-.12-2.81-1.82.07.11,2.56a4.43,4.43,0,0,0-2.21.82l-1.41-1.3-1.23,1.34Zm2,.56a2.73,2.73,0,1,1,4,3.7,2.74,2.74,0,0,0,.16,3.86,2.73,2.73,0,0,1-3.69,4l-.83-.77a7.07,7.07,0,0,1-.42-10Z"/></g><g class="cls-12"><path class="cls-13" d="M287.81,357.87a.62.62,0,0,0,.23-1.19,6.05,6.05,0,0,1-1.54-.81.62.62,0,0,0-.85-.18.63.63,0,0,0-.18.86,5.49,5.49,0,0,0,2.12,1.28A.85.85,0,0,0,287.81,357.87Z"/><path class="cls-13" d="M284.56,363.33a2.12,2.12,0,1,0-2.12-2.12A2.12,2.12,0,0,0,284.56,363.33Zm0-3a.89.89,0,1,1-.89.89A.89.89,0,0,1,284.56,360.32Z"/><path class="cls-13" d="M282.16,349.05a.62.62,0,0,0,.57-.38.63.63,0,0,0-.33-.81,2.93,2.93,0,0,1-1.13-1.39.62.62,0,0,0-1.23.12,3.87,3.87,0,0,0,1.88,2.41A.69.69,0,0,0,282.16,349.05Z"/><path class="cls-13" d="M277.45,371.66l1.53.67a6.29,6.29,0,0,0,2.53.54,6.27,6.27,0,0,0,6.2-6.82l-.09-.95a2.62,2.62,0,0,1,.6-1.92l2.95-3.54a3.85,3.85,0,0,0-2.38-6.27l-.25,0a2.59,2.59,0,0,1-1.86-1.25.61.61,0,0,0-.84-.22.63.63,0,0,0-.22.85,3.81,3.81,0,0,0,2.74,1.84l.25,0a2.61,2.61,0,0,1,1.61,4.26l-3,3.54a3.79,3.79,0,0,0-.87,2.82l.08,1a5,5,0,0,1-7,5l-1.53-.67a11,11,0,0,0-5.12-.89l-3.81.27a6.17,6.17,0,0,1-6.4-7.71l.91-3.48a3.86,3.86,0,0,0-1.09-3.79l-.78-.72a2.63,2.63,0,0,1,1.25-4.48l5-1a3.78,3.78,0,0,0,2.64-2l1.14-2.2a2.62,2.62,0,0,1,4.28-.55,3.82,3.82,0,0,0,4.67.84l.83-.44a2.61,2.61,0,0,1,2.63.11,2.56,2.56,0,0,1,1.21,2.33l-.14,2.77a.62.62,0,0,0,.59.65.6.6,0,0,0,.64-.58l.14-2.77a3.86,3.86,0,0,0-5.65-3.6l-.83.44a2.58,2.58,0,0,1-3.17-.57,3.86,3.86,0,0,0-6.3.8l-1.13,2.2a2.62,2.62,0,0,1-1.8,1.37l-5,1a3.85,3.85,0,0,0-1.84,6.58l.78.73a2.6,2.6,0,0,1,.74,2.56l-.91,3.49a7.4,7.4,0,0,0,7.68,9.25l3.81-.27A9.67,9.67,0,0,1,277.45,371.66Z"/><path class="cls-13" d="M280.65,353.3a.61.61,0,0,0-.61.61v.89a.62.62,0,0,0,1.23,0v-.89A.61.61,0,0,0,280.65,353.3Z"/><path class="cls-13" d="M278.53,367.83a2.13,2.13,0,1,0,2.12-2.12A2.12,2.12,0,0,0,278.53,367.83Zm2.12-.88a.89.89,0,1,1-.88.88A.88.88,0,0,1,280.65,367Z"/><path class="cls-13" d="M294,370a2.91,2.91,0,0,1-1.35-1.32,6.6,6.6,0,0,0-2-2.13c0-.24,0-.49,0-.73l-.08-.87,2.9-3.48a6.67,6.67,0,0,0-4.13-10.86h-.06l0-.79a7.72,7.72,0,0,0,5.14-4.21,1.84,1.84,0,0,0,0-1.42,1.79,1.79,0,0,0-1-1A1.84,1.84,0,0,0,291,344a3.46,3.46,0,0,1-1.68,1.75,6.59,6.59,0,0,0-1.77-3.71,6.66,6.66,0,0,0-1.79-1.34,1.92,1.92,0,0,1,.39-.17A1.85,1.85,0,0,0,285,337a5.86,5.86,0,0,0-3.23,2.49,4.87,4.87,0,0,0-.36.59,6.87,6.87,0,0,0-1.91.66l-.69.37a6.67,6.67,0,0,0-10.79,1.5l-.08.15a16.12,16.12,0,0,0-1.3-1,14.48,14.48,0,0,0-3.75-1.94,1.85,1.85,0,1,0-.93,3.58,11.9,11.9,0,0,1,2.32,1.23c.28.18.51.35.71.5l-2.94.61a6.67,6.67,0,0,0-3.74,10.83,8.27,8.27,0,0,0-2.75,2.2,1.85,1.85,0,0,0,.22,2.6,1.89,1.89,0,0,0,1.2.44,1.84,1.84,0,0,0,1.41-.66c.12-.14.25-.28.38-.41l-.11.41a10.18,10.18,0,0,0,1.8,8.82c.24.3.48.59.74.86a4.87,4.87,0,0,0-2.49,2.82,1.85,1.85,0,1,0,3.52,1.15c.17-.52.8-.81,2.13-1.26l.64-.22a10.29,10.29,0,0,0,2.42.57.62.62,0,0,0,.68-.55.61.61,0,0,0-.54-.68,8.35,8.35,0,0,1-2.29-.56l-.08,0a8.78,8.78,0,0,1-2.48-1.51l0,0a9,9,0,0,1-2.81-9.07l.91-3.49a1,1,0,0,0-.3-1l-.78-.73a5.43,5.43,0,0,1,2.61-9.28l5-1a1,1,0,0,0,.71-.54l1.13-2.21a5.44,5.44,0,0,1,8.89-1.12,1,1,0,0,0,.77.34,1,1,0,0,0,.48-.12l.83-.44a5.56,5.56,0,0,1,1.81-.58h0a4.62,4.62,0,0,1,.74-.06,5.35,5.35,0,0,1,1.72.29h0a5.53,5.53,0,0,1,2.21,1.42,5.33,5.33,0,0,1,1.48,4l-.18,3.77a1,1,0,0,0,.87,1.07l.25,0a5.44,5.44,0,0,1,3.36,8.85l-2.95,3.55a1,1,0,0,0-.24.75l.09.95a7.74,7.74,0,0,1-2,6,7.84,7.84,0,0,1-5.79,2.57,7.5,7.5,0,0,1-.82,0h0a7.82,7.82,0,0,1-2.34-.63l-1.53-.67a7.92,7.92,0,0,0-3.22-.68l-.56,0-2.65.19a.62.62,0,1,0,.09,1.23l2.64-.19a6.91,6.91,0,0,1,3.21.56l.71.31a7.6,7.6,0,0,0,3,4.21,1.86,1.86,0,0,0,2.54-.6,1.85,1.85,0,0,0-.51-2.49,9.17,9.17,0,0,0,7.5-4.9,6.35,6.35,0,0,0,3,2.64,1.79,1.79,0,0,0,.68.13A1.85,1.85,0,0,0,294,370Zm-4.63-22.86a4.71,4.71,0,0,0,2.76-2.56.62.62,0,0,1,.82-.31.61.61,0,0,1,.32.35.59.59,0,0,1,0,.47,6.16,6.16,0,0,1-3.95,3.4Zm-27.1,24.65a11,11,0,0,0,1.22.84,3.3,3.3,0,0,0-2.34,1.85.62.62,0,0,1-.59.42.62.62,0,0,1-.59-.81A3.89,3.89,0,0,1,262.22,371.76Zm-2.64-13.95-.28,1.07a6.45,6.45,0,0,0-1.81,1.51.62.62,0,0,1-.47.22.61.61,0,0,1-.4-.15.62.62,0,0,1-.07-.87,6.69,6.69,0,0,1,2.74-2ZM267,344.76l-.41.08a10.36,10.36,0,0,0-1.57-1.21,11.8,11.8,0,0,0-2.68-1.39.61.61,0,1,1,.31-1.19A13.45,13.45,0,0,1,266,342.8a11.55,11.55,0,0,1,1.41,1.13Zm17.43-4.54A6.87,6.87,0,0,0,283,340a4.62,4.62,0,0,1,2.42-1.79.62.62,0,1,1,.36,1.18A3.2,3.2,0,0,0,284.4,340.22Zm-2.88,37.29a.61.61,0,0,1-.52.29.63.63,0,0,1-.33-.09,6.11,6.11,0,0,1-2.08-2.51,8.91,8.91,0,0,0,1.66.4,4.15,4.15,0,0,0,1.07,1.06.63.63,0,0,1,.28.38A.6.6,0,0,1,281.52,377.51Zm12.32-5.59a.62.62,0,0,1-.58.39.85.85,0,0,1-.22,0,5.15,5.15,0,0,1-2.48-2.24c-.15-.22-.29-.42-.44-.61a7.84,7.84,0,0,0,.34-1.45,6.88,6.88,0,0,1,1.12,1.37,4,4,0,0,0,1.91,1.78A.62.62,0,0,1,293.84,371.92Z"/><path class="cls-13" d="M267,367.33a2.09,2.09,0,0,0,.77.15,2.52,2.52,0,0,0,1.51-.63,1.56,1.56,0,0,1,.91-.44h0a.62.62,0,0,0,.62-.61.61.61,0,0,0-.61-.62h0a2.66,2.66,0,0,0-1.65.68c-.47.35-.67.48-1.09.32a.61.61,0,0,0-.8.35A.62.62,0,0,0,267,367.33Z"/><path class="cls-13" d="M270.81,353.91a.62.62,0,0,0-1.24,0v.89a.62.62,0,0,0,1.24,0Z"/><path class="cls-13" d="M266.7,352.27a.62.62,0,1,0,0-1.23,3.27,3.27,0,0,0-1.64.42,2.51,2.51,0,0,1-1.51.33.63.63,0,0,0-.66.57.61.61,0,0,0,.56.66l.36,0a3.81,3.81,0,0,0,1.79-.47A2.1,2.1,0,0,1,266.7,352.27Z"/><path class="cls-13" d="M276.45,347.5a1.91,1.91,0,1,0-1.9,1.9A1.91,1.91,0,0,0,276.45,347.5Zm-2.57,0a.67.67,0,1,1,.67.67A.67.67,0,0,1,273.88,347.5Z"/><path class="cls-13" d="M275.42,357.94a2.48,2.48,0,1,0-2.27-2.47A2.38,2.38,0,0,0,275.42,357.94Zm0-3.71a1.26,1.26,0,1,1-1,1.24A1.15,1.15,0,0,1,275.42,354.23Z"/><path class="cls-13" d="M266.06,365.12a1.9,1.9,0,1,0-1.9-1.9A1.9,1.9,0,0,0,266.06,365.12Zm0-2.57a.67.67,0,0,1,.67.67.67.67,0,0,1-1.34,0A.67.67,0,0,1,266.06,362.55Z"/><path class="cls-13" d="M275.52,363.9a.71.71,0,0,0,.31.08.65.65,0,0,0,.54-.3l.2-.37c.34-.64.47-.88,1.25-.84a.62.62,0,1,0,.06-1.23,2.27,2.27,0,0,0-2.4,1.49l-.18.32A.63.63,0,0,0,275.52,363.9Z"/><path class="cls-13" d="M347.57,351.34l5.19-2.22-.72-1.67-5.39,2.31a11.82,11.82,0,0,0-3.27-3.19l2.52-4.19-1.56-.93-2.56,4.25a11.73,11.73,0,0,0-4.85-1.06h-.28l3.8-6.83-1.59-.89-4.22,7.61a9.15,9.15,0,0,1-4.86-2.38l2.33-2.32-1.28-1.29-2.24,2.24a9,9,0,0,1-1.67-5.24s0-.09,0-.13l4.71-.79-.3-1.79-4.59.76a10.57,10.57,0,0,0-1.11-3.2l6.26-3.13-.82-1.63-6.45,3.23a10.65,10.65,0,0,0-1.75-1.8l2.95-3.69-1.42-1.13-3,3.79a10.91,10.91,0,0,0-2.5-1l.77-3.86-1.78-.35-.78,3.87c-.35,0-.7-.05-1.06-.05a10.7,10.7,0,0,0-2.73.36v-6.73h-1.82v7.37a12.19,12.19,0,0,0-1.42.78l-4.25-5.1-1.4,1.17,4.22,5.06a10.56,10.56,0,0,0-1.44,1.62l-2.48-1.65-1,1.51,2.55,1.7a10.65,10.65,0,0,0-1,3h-6.54v1.82h6.37v.91c0,.67,0,1.32.07,2l-3.89.77.36,1.79,3.7-.74A32.31,32.31,0,0,0,306,344l-5.7,1.63.5,1.75,5.68-1.62c.24.77.51,1.53.8,2.28L301,351.11l.81,1.63,6.12-3.06c.44,1,.93,1.9,1.46,2.81l-4.85,3.23,1,1.51,4.8-3.2a33.26,33.26,0,0,0,2.08,2.8L310,358.45l1,1.51,2.64-1.76c.64.68,1.3,1.34,2,2l-4,4.83,1.4,1.17,4-4.83c.74.6,1.5,1.16,2.29,1.68l-4.14,6.63,1.54,1,4.15-6.64a33.39,33.39,0,0,0,3.21,1.64l-1.71,5.14,1.72.57,1.68-5a31.15,31.15,0,0,0,3.63,1.11l-.69,3.45,1.78.35.69-3.43c1,.18,2,.31,3,.4v6.49H336v-6.39l.91,0a11.89,11.89,0,0,0,3.29-.47l2.26,4.52,1.63-.81-2.18-4.36a12,12,0,0,0,2.09-1.26l2.19,2.93,1.46-1.09-2.28-3a11.66,11.66,0,0,0,1.43-1.77l5.07,3.38,1-1.51-5.2-3.48a11.56,11.56,0,0,0,.9-3h6.53v-1.82h-6.37A11.79,11.79,0,0,0,347.57,351.34Zm-10.64,15.14a30.06,30.06,0,0,1-30-30v-.91a9.1,9.1,0,0,1,18.2,0A10.93,10.93,0,0,0,336,346.46h.91a10,10,0,0,1,0,20Z"/><path class="cls-13" d="M316.91,340.09a5.46,5.46,0,1,0-5.46-5.46A5.46,5.46,0,0,0,316.91,340.09Zm0-9.09a3.64,3.64,0,1,1-3.64,3.63A3.64,3.64,0,0,1,316.91,331Z"/><path class="cls-13" d="M315.09,344.64a2.73,2.73,0,1,0,2.73,2.73A2.74,2.74,0,0,0,315.09,344.64Zm0,3.64a.91.91,0,1,1,.91-.91A.91.91,0,0,1,315.09,348.28Z"/><path class="cls-13" d="M324.19,353.74a3.64,3.64,0,1,0,3.64,3.64A3.65,3.65,0,0,0,324.19,353.74Zm0,5.46a1.82,1.82,0,1,1,1.82-1.82A1.82,1.82,0,0,1,324.19,359.2Z"/><path class="cls-13" d="M329.65,346.46a2.73,2.73,0,1,0,2.73,2.73A2.73,2.73,0,0,0,329.65,346.46Zm0,3.64a.91.91,0,1,1,.91-.91A.91.91,0,0,1,329.65,350.1Z"/><path class="cls-13" d="M338.75,352.83a3.64,3.64,0,1,0,3.64,3.64A3.65,3.65,0,0,0,338.75,352.83Zm0,5.46a1.82,1.82,0,1,1,1.82-1.82A1.81,1.81,0,0,1,338.75,358.29Z"/><path class="cls-13" d="M353.31,329.18V329a8.6,8.6,0,0,0-.2-1.85l1.51-.76-.81-1.63-1.27.64A9,9,0,0,0,351,323l2.89-2.17-1.09-1.45-3.18,2.39a8.87,8.87,0,0,0-1.55-.89l.63-1.28-1.63-.81-.75,1.51a9.46,9.46,0,0,0-1.86-.19h-.21v-1.82h-1.82v1.91a4.54,4.54,0,0,0-1.39.55l-.53-1.05-1.63.81.76,1.51a4.51,4.51,0,0,0-.69,1.51l-2.67-.67-.44,1.77,3,.75a4.53,4.53,0,0,0,.51,1.46l-1.78.59.58,1.73,2.5-.84a4.53,4.53,0,0,0,1.15.61l-1.06,1.59,1.52,1,1.47-2.21a.9.9,0,0,1,.5.8,4.46,4.46,0,0,0,.34,1.71L342.79,333l1,1.51,1.76-1.17a4.56,4.56,0,0,0,1.38.94v4h1.82v-3.64a4.53,4.53,0,0,0,1.91-.43l2,2L354,334.9l-1.81-1.81a4.4,4.4,0,0,0,1.07-2.09h1.92v-1.82Zm-1.82.91a2.73,2.73,0,0,1-5.46,0,2.73,2.73,0,0,0-2.73-2.73,2.73,2.73,0,0,1,0-5.46h1.12a7.07,7.07,0,0,1,7.07,7.06Z"/><path class="cls-13" d="M285.67,317h-.21a9.38,9.38,0,0,0-1.85.27l-.82-1.48-1.59.88.69,1.25a9.14,9.14,0,0,0-2.32,1.67l-2.29-2.8-1.4,1.16,2.51,3.08a9.47,9.47,0,0,0-.82,1.58l-1.3-.58-.74,1.66,1.54.69a8.91,8.91,0,0,0-.12,1.87v.21l-1.82.08.08,1.81,1.91-.07a4.51,4.51,0,0,0,.61,1.36l-1,.57.88,1.59,1.48-.82a4.4,4.4,0,0,0,1.53.64l-.55,2.69,1.78.36.63-3.05a4.25,4.25,0,0,0,1.43-.57l.67,1.76,1.7-.65-.94-2.47a4.48,4.48,0,0,0,.55-1.17l1.64,1,.95-1.55-2.28-1.39A.93.93,0,0,1,287,326a4.38,4.38,0,0,0,1.7-.41l1.24,1.71,1.47-1.07-1.24-1.71a4.71,4.71,0,0,0,.88-1.42l4-.16-.08-1.82-3.63.15a4.52,4.52,0,0,0-.52-1.9l1.91-2.07-1.34-1.23L289.64,318a4.51,4.51,0,0,0-2.15-1l-.08-1.91-1.81.07Zm1,1.78a2.73,2.73,0,1,1,.22,5.46,2.73,2.73,0,0,0-2.61,2.84,2.73,2.73,0,1,1-5.45.22l-.05-1.12a7.07,7.07,0,0,1,6.76-7.35Z"/><path class="cls-13" d="M306.56,376.47l-.77-5.58-1.8.25.8,5.8a12.09,12.09,0,0,0-3.93,2.31l-3.38-3.53L296.17,377l3.42,3.59a11.73,11.73,0,0,0-2.3,4.4l-.07.26-5.59-5.47-1.27,1.31,6.22,6.08A9.09,9.09,0,0,1,293,391.2l-1.63-2.86-1.58.9,1.56,2.75a9,9,0,0,1-5.48.23l-.14,0,.49-4.74-1.81-.19-.48,4.62a10.9,10.9,0,0,0-3.38.23l-1.37-6.86-1.78.36,1.41,7.07a10.74,10.74,0,0,0-2.2,1.22l-2.78-3.82-1.47,1.07,2.86,3.93a11.05,11.05,0,0,0-1.64,2.14l-3.51-1.76-.82,1.63,3.53,1.77c-.12.33-.23.66-.33,1a10.74,10.74,0,0,0-.37,2.73l-6.49-1.78-.48,1.76,7.11,1.94a10.4,10.4,0,0,0,.38,1.58l-6,2.75.75,1.66,6-2.73a11.33,11.33,0,0,0,1.18,1.82l-2.25,1.95,1.2,1.38,2.31-2a10.79,10.79,0,0,0,2.64,1.74l-1.73,6.3,1.76.48,1.68-6.15.88.25q1,.25,1.92.45l-.28,3.95,1.82.13.26-3.76a31.83,31.83,0,0,0,3.76.34l.06,5.92h1.82l-.06-5.91c.81,0,1.61-.08,2.41-.17l1.36,6.83,1.78-.36-1.33-6.71a29.84,29.84,0,0,0,3.09-.67l1.83,5.54,1.73-.58-1.82-5.47a33.66,33.66,0,0,0,3.25-1.27l.92,2.77,1.73-.57-1-3a27.75,27.75,0,0,0,2.42-1.41l3.6,5.16,1.49-1-3.59-5.15q1.16-.84,2.22-1.77l5.31,5.75,1.33-1.23-5.3-5.76a32.34,32.34,0,0,0,2.43-2.66l4.5,3,1-1.51-4.4-2.94a34.11,34.11,0,0,0,2-3.21l3.14,1.57.82-1.62-3.13-1.57q.64-1.35,1.17-2.76l6.26,1.71.48-1.75-6.17-1.69c.09-.29.18-.58.26-.87a11.47,11.47,0,0,0,.41-3.31l5-1-.35-1.79-4.78.95a11.79,11.79,0,0,0-.66-2.34l3.4-1.34-.67-1.69-3.52,1.39a12.81,12.81,0,0,0-1.34-1.85l4.6-4L321,374.89l-4.72,4.1a12.08,12.08,0,0,0-2.71-1.68l1.73-6.29-1.76-.48-1.68,6.14A11.94,11.94,0,0,0,306.56,376.47Zm11.8,14.27a30.07,30.07,0,0,1-36.89,21l-.88-.24A9.1,9.1,0,0,1,285.4,394a10.94,10.94,0,0,0,13.41-7.65l.24-.88a10,10,0,1,1,19.31,5.29Z"/><path class="cls-13" d="M287.62,403.08a5.46,5.46,0,1,0-6.71,3.82A5.46,5.46,0,0,0,287.62,403.08Zm-8.78-2.41a3.65,3.65,0,1,1,2.55,4.48A3.66,3.66,0,0,1,278.84,400.67Z"/><path class="cls-13" d="M291.53,406a2.73,2.73,0,1,0,3.35-1.91A2.74,2.74,0,0,0,291.53,406Zm3.51,1a.91.91,0,1,1-.64-1.11A.91.91,0,0,1,295,407Z"/><path class="cls-13" d="M302.71,399.66a3.64,3.64,0,1,0,4.47-2.55A3.64,3.64,0,0,0,302.71,399.66ZM308,401.1a1.82,1.82,0,1,1-1.27-2.24A1.82,1.82,0,0,1,308,401.1Z"/><path class="cls-13" d="M297.13,392.47a2.73,2.73,0,1,0,3.35-1.91A2.72,2.72,0,0,0,297.13,392.47Zm3.51,1a.91.91,0,1,1-1.76-.48.91.91,0,0,1,1.76.48Z"/><path class="cls-13" d="M305.67,385.38a3.64,3.64,0,1,0,4.48-2.55A3.65,3.65,0,0,0,305.67,385.38Zm5.27,1.44a1.82,1.82,0,1,1-1.27-2.24A1.82,1.82,0,0,1,310.94,386.82Z"/><path class="cls-13" d="M343,382.08h-.22a8.61,8.61,0,0,0-1.84.28l-.82-1.49-1.59.89.68,1.24a9.14,9.14,0,0,0-2.32,1.67l-2.28-2.8L333.18,383l2.52,3.08a8.58,8.58,0,0,0-.83,1.59l-1.3-.59-.74,1.66,1.54.7a9.49,9.49,0,0,0-.12,1.86v.21l-1.82.08.08,1.82,1.91-.08a4.4,4.4,0,0,0,.61,1.36l-1,.57.88,1.59,1.48-.81a4.55,4.55,0,0,0,1.54.63l-.56,2.69,1.78.37.63-3.06a4.17,4.17,0,0,0,1.43-.57l.67,1.76,1.7-.65-.94-2.47a4.51,4.51,0,0,0,.56-1.17l1.63,1,.95-1.55-2.27-1.38a.88.88,0,0,1,.77-.53,4.57,4.57,0,0,0,1.7-.42l1.24,1.71,1.47-1.07-1.24-1.7a4.56,4.56,0,0,0,.88-1.42l4-.17-.07-1.82-3.64.15a4.48,4.48,0,0,0-.52-1.89l1.91-2.08-1.34-1.23-1.73,1.88a4.52,4.52,0,0,0-2.14-1l-.08-1.91-1.82.07Zm1,1.78a2.73,2.73,0,0,1,.23,5.46,2.74,2.74,0,0,0-2.62,2.84,2.73,2.73,0,0,1-5.45.23l-.05-1.13a7.07,7.07,0,0,1,6.77-7.35Z"/></g><g class="cls-12"><path class="cls-13" d="M91.84,1551.11a.62.62,0,0,0,.23-1.19,5.74,5.74,0,0,1-1.54-.81.61.61,0,0,0-1,.68,5.38,5.38,0,0,0,2.11,1.28A.57.57,0,0,0,91.84,1551.11Z"/><path class="cls-13" d="M88.59,1556.57a2.12,2.12,0,1,0-2.12-2.12A2.13,2.13,0,0,0,88.59,1556.57Zm0-3a.89.89,0,1,1-.89.89A.89.89,0,0,1,88.59,1553.56Z"/><path class="cls-13" d="M86.19,1542.29a.61.61,0,0,0,.24-1.18,3,3,0,0,1-1.13-1.39.62.62,0,0,0-1.23.11,3.9,3.9,0,0,0,1.89,2.42A.59.59,0,0,0,86.19,1542.29Z"/><path class="cls-13" d="M81.48,1564.9l1.53.68a6.45,6.45,0,0,0,2.53.53,6.25,6.25,0,0,0,6.2-6.82l-.08-1a2.54,2.54,0,0,1,.59-1.91l3-3.55a3.85,3.85,0,0,0-2.38-6.27l-.24,0a2.61,2.61,0,0,1-1.86-1.26.62.62,0,0,0-1.07.63,3.88,3.88,0,0,0,2.74,1.85l.25,0a2.61,2.61,0,0,1,2,1.66,2.58,2.58,0,0,1-.43,2.6l-3,3.55a3.82,3.82,0,0,0-.87,2.81l.09,1a5,5,0,0,1-7,5l-1.53-.68a10.82,10.82,0,0,0-5.12-.88l-3.81.26a6.16,6.16,0,0,1-6.39-7.7l.9-3.49a3.83,3.83,0,0,0-1.09-3.78l-.78-.73A2.61,2.61,0,0,1,67,1543l5-1a3.86,3.86,0,0,0,2.64-2l1.13-2.2a2.61,2.61,0,0,1,4.28-.54,3.84,3.84,0,0,0,4.67.84l.83-.44a2.61,2.61,0,0,1,3.84,2.44l-.14,2.77a.62.62,0,0,0,.59.64.6.6,0,0,0,.64-.58l.14-2.77a3.84,3.84,0,0,0-5.64-3.59l-.83.44a2.62,2.62,0,0,1-3.18-.57,3.84,3.84,0,0,0-6.29.79l-1.14,2.21a2.61,2.61,0,0,1-1.79,1.36l-5,1a3.85,3.85,0,0,0-1.85,6.58l.78.73a2.61,2.61,0,0,1,.74,2.57l-.91,3.49a7.4,7.4,0,0,0,7.68,9.24l3.81-.26A9.66,9.66,0,0,1,81.48,1564.9Z"/><path class="cls-13" d="M84.69,1546.54a.62.62,0,0,0-.62.62v.88a.62.62,0,0,0,.62.62.61.61,0,0,0,.61-.62v-.88A.61.61,0,0,0,84.69,1546.54Z"/><path class="cls-13" d="M82.56,1561.08a2.13,2.13,0,1,0,2.13-2.12A2.13,2.13,0,0,0,82.56,1561.08Zm2.13-.89a.89.89,0,1,1-.89.89A.89.89,0,0,1,84.69,1560.19Z"/><path class="cls-13" d="M98,1563.22a3,3,0,0,1-1.35-1.32,6.41,6.41,0,0,0-2-2.13c0-.25,0-.49,0-.74l-.08-.86,2.9-3.49a6.66,6.66,0,0,0-4.13-10.85h-.06l0-.8a7.72,7.72,0,0,0,5.14-4.21,1.85,1.85,0,1,0-3.37-1.52,3.4,3.4,0,0,1-1.68,1.74,6.59,6.59,0,0,0-1.77-3.71,6.66,6.66,0,0,0-1.79-1.34,2.2,2.2,0,0,1,.39-.17,1.85,1.85,0,1,0-1.07-3.54,5.89,5.89,0,0,0-3.23,2.49,5.8,5.8,0,0,0-.36.59,6.53,6.53,0,0,0-1.9.67l-.69.36a6.68,6.68,0,0,0-10.8,1.5L72,1536a13.21,13.21,0,0,0-1.3-1A14.4,14.4,0,0,0,67,1533.1a1.85,1.85,0,1,0-.93,3.58,10.83,10.83,0,0,1,2.32,1.22l.71.5-2.94.61a6.67,6.67,0,0,0-3.74,10.83,8.24,8.24,0,0,0-2.74,2.2,1.85,1.85,0,0,0,.21,2.61,1.88,1.88,0,0,0,1.2.43,1.83,1.83,0,0,0,1.41-.65,3.76,3.76,0,0,1,.38-.41l-.11.4a10.17,10.17,0,0,0,1.81,8.83c.23.3.48.58.73.85a4.93,4.93,0,0,0-2.49,2.82,1.85,1.85,0,0,0,1.76,2.43,1.84,1.84,0,0,0,1.76-1.28c.17-.52.8-.81,2.13-1.26.19-.06.41-.13.64-.22a9.89,9.89,0,0,0,2.43.57.62.62,0,0,0,.68-.55.63.63,0,0,0-.55-.68,8.71,8.71,0,0,1-2.29-.55.13.13,0,0,0-.08,0,8.81,8.81,0,0,1-2.48-1.52l0,0a9,9,0,0,1-1.23-1.31,8.92,8.92,0,0,1-1.58-7.76l.91-3.48a1,1,0,0,0-.3-1l-.78-.73a5.44,5.44,0,0,1,2.61-9.29l5-1a1,1,0,0,0,.71-.54l1.14-2.2a5.42,5.42,0,0,1,8.88-1.13,1,1,0,0,0,.77.35,1,1,0,0,0,.48-.12l.83-.44a5.58,5.58,0,0,1,1.81-.59h0a6.13,6.13,0,0,1,.74,0,5.58,5.58,0,0,1,1.72.28h0a5.51,5.51,0,0,1,2.22,1.41,5.39,5.39,0,0,1,1.48,4l-.19,3.76a1,1,0,0,0,.87,1.07l.25,0a5.44,5.44,0,0,1,3.36,8.85l-3,3.54a1,1,0,0,0-.23.75l.08,1a7.65,7.65,0,0,1-2,6,7.85,7.85,0,0,1-5.79,2.58,7.52,7.52,0,0,1-.82,0h0a7.66,7.66,0,0,1-2.33-.62l-1.53-.68a8.16,8.16,0,0,0-3.23-.67,5.33,5.33,0,0,0-.56,0l-2.64.18a.63.63,0,0,0-.58.66.62.62,0,0,0,.66.57l2.65-.18a6.74,6.74,0,0,1,3.2.55l.71.31a7.6,7.6,0,0,0,3,4.21,1.85,1.85,0,0,0,1,.28,1.83,1.83,0,0,0,1.57-.88,1.85,1.85,0,0,0-.51-2.49,9.11,9.11,0,0,0,7.5-4.9,6.34,6.34,0,0,0,3,2.64,1.81,1.81,0,0,0,.69.14,1.85,1.85,0,0,0,.68-3.57Zm-4.63-22.86a4.76,4.76,0,0,0,2.76-2.57.62.62,0,0,1,.82-.3.63.63,0,0,1,.32.34.64.64,0,0,1,0,.47,6.21,6.21,0,0,1-3.95,3.4ZM66.25,1565a11,11,0,0,0,1.22.84,3.3,3.3,0,0,0-2.34,1.85.62.62,0,0,1-.59.43l-.19,0a.62.62,0,0,1-.39-.78A3.87,3.87,0,0,1,66.25,1565Zm-2.64-14-.28,1.08a6.27,6.27,0,0,0-1.81,1.5.62.62,0,0,1-.47.22.56.56,0,0,1-.4-.15.61.61,0,0,1-.07-.86,6.59,6.59,0,0,1,2.75-2.06ZM71,1538l-.41.08a10.69,10.69,0,0,0-1.56-1.21,12,12,0,0,0-2.69-1.39.61.61,0,0,1,.31-1.19,13.54,13.54,0,0,1,3.36,1.76,11.74,11.74,0,0,1,1.42,1.12Zm17.43-4.53a6.88,6.88,0,0,0-1.43-.23,4.66,4.66,0,0,1,2.43-1.79.62.62,0,1,1,.35,1.18A3.13,3.13,0,0,0,88.43,1533.47Zm-2.88,37.28a.61.61,0,0,1-.52.29.59.59,0,0,1-.32-.09,6,6,0,0,1-2.09-2.5,9.75,9.75,0,0,0,1.66.39,3.86,3.86,0,0,0,1.07,1.06.62.62,0,0,1,.28.39A.58.58,0,0,1,85.55,1570.75Zm12.32-5.59a.61.61,0,0,1-.57.39.59.59,0,0,1-.23,0,5.11,5.11,0,0,1-2.48-2.24c-.15-.22-.29-.42-.43-.6a9.2,9.2,0,0,0,.33-1.45,6.36,6.36,0,0,1,1.12,1.37,4,4,0,0,0,1.91,1.77A.62.62,0,0,1,97.87,1565.16Z"/><path class="cls-13" d="M71,1560.57a2.12,2.12,0,0,0,.77.16,2.53,2.53,0,0,0,1.51-.64,1.56,1.56,0,0,1,.92-.44h0a.62.62,0,0,0,0-1.23h0a2.66,2.66,0,0,0-1.64.68c-.48.35-.68.49-1.1.32a.62.62,0,0,0-.45,1.15Z"/><path class="cls-13" d="M74.84,1547.16a.62.62,0,1,0-1.24,0v.88a.62.62,0,0,0,1.24,0Z"/><path class="cls-13" d="M70.73,1545.51a.62.62,0,1,0,0-1.23,3.31,3.31,0,0,0-1.64.42,2.55,2.55,0,0,1-1.51.34.62.62,0,1,0-.11,1.23h.36a3.81,3.81,0,0,0,1.79-.47A2.16,2.16,0,0,1,70.73,1545.51Z"/><path class="cls-13" d="M80.48,1540.74a1.9,1.9,0,1,0-1.9,1.9A1.91,1.91,0,0,0,80.48,1540.74Zm-2.57,0a.67.67,0,0,1,.67-.66.67.67,0,0,1,0,1.33A.67.67,0,0,1,77.91,1540.74Z"/><path class="cls-13" d="M79.45,1551.19a2.48,2.48,0,1,0-2.27-2.48A2.39,2.39,0,0,0,79.45,1551.19Zm0-3.71a1.25,1.25,0,1,1-1,1.23A1.15,1.15,0,0,1,79.45,1547.48Z"/><path class="cls-13" d="M70.09,1558.36a1.9,1.9,0,1,0-1.9-1.9A1.9,1.9,0,0,0,70.09,1558.36Zm0-2.57a.67.67,0,1,1-.67.67A.67.67,0,0,1,70.09,1555.79Z"/><path class="cls-13" d="M79.55,1557.14a.61.61,0,0,0,.31.09.62.62,0,0,0,.54-.31l.2-.36c.34-.64.47-.88,1.26-.84a.62.62,0,0,0,.64-.59.6.6,0,0,0-.58-.64,2.27,2.27,0,0,0-2.41,1.48c-.06.11-.11.22-.18.33A.62.62,0,0,0,79.55,1557.14Z"/><path class="cls-13" d="M151.6,1544.59l5.19-2.23-.72-1.67-5.39,2.31a11.79,11.79,0,0,0-3.27-3.18l2.52-4.19-1.56-.94-2.55,4.25a11.81,11.81,0,0,0-4.86-1h-.27l3.8-6.84-1.6-.88-4.22,7.6a9,9,0,0,1-4.85-2.37l2.32-2.33-1.28-1.29-2.24,2.24a9,9,0,0,1-1.67-5.23s0-.09,0-.14l4.71-.78-.3-1.8-4.58.76a11.07,11.07,0,0,0-1.12-3.2l6.26-3.13-.82-1.63-6.45,3.23a11,11,0,0,0-1.75-1.8l3-3.68-1.42-1.14-3,3.8a10.94,10.94,0,0,0-2.5-1l.77-3.85-1.78-.36-.77,3.87c-.35,0-.71-.05-1.07-.05a10.76,10.76,0,0,0-2.73.36v-6.73h-1.82v7.37a10.93,10.93,0,0,0-1.42.79l-4.25-5.1-1.4,1.16,4.22,5.06a11.75,11.75,0,0,0-1.44,1.63l-2.48-1.66-1,1.52,2.55,1.7a10.87,10.87,0,0,0-1,3h-6.54v1.82h6.37v.91c0,.66,0,1.32.07,2l-3.89.78.36,1.78,3.7-.74a30.3,30.3,0,0,0,.67,3.71l-5.71,1.63.5,1.75,5.68-1.62c.24.78.51,1.53.8,2.28l-6.22,3.11.81,1.63,6.12-3.06a31.11,31.11,0,0,0,1.46,2.81l-4.85,3.23,1,1.52,4.8-3.21a31.71,31.71,0,0,0,2.08,2.8l-2.43,1.62,1,1.52,2.64-1.77c.64.68,1.3,1.34,2,2l-4,4.83,1.4,1.17,4-4.82c.74.59,1.51,1.15,2.3,1.67l-4.15,6.63,1.54,1,4.15-6.64a30.3,30.3,0,0,0,3.21,1.64l-1.71,5.14,1.72.58,1.68-5a31.75,31.75,0,0,0,3.63,1.11l-.69,3.45,1.78.36.69-3.43c1,.18,2,.31,3,.4v6.49h1.82v-6.4l.91,0a11.89,11.89,0,0,0,3.29-.48l2.27,4.52,1.62-.81-2.18-4.36a12.56,12.56,0,0,0,2.09-1.25l2.19,2.92,1.46-1.09-2.28-3a12.25,12.25,0,0,0,1.43-1.78l5.08,3.38,1-1.51-5.2-3.47a12.09,12.09,0,0,0,.91-3h6.52v-1.82h-6.37A11.76,11.76,0,0,0,151.6,1544.59ZM141,1559.73a30.06,30.06,0,0,1-30-30v-.91a9.1,9.1,0,0,1,18.2,0,10.93,10.93,0,0,0,10.92,10.92H141a10,10,0,1,1,0,20Z"/><path class="cls-13" d="M120.94,1533.34a5.46,5.46,0,1,0-5.46-5.46A5.47,5.47,0,0,0,120.94,1533.34Zm0-9.1a3.64,3.64,0,1,1-3.64,3.64A3.64,3.64,0,0,1,120.94,1524.24Z"/><path class="cls-13" d="M119.12,1537.89a2.73,2.73,0,1,0,2.73,2.73A2.73,2.73,0,0,0,119.12,1537.89Zm0,3.64a.91.91,0,1,1,.91-.91A.91.91,0,0,1,119.12,1541.53Z"/><path class="cls-13" d="M128.22,1547a3.64,3.64,0,1,0,3.64,3.64A3.64,3.64,0,0,0,128.22,1547Zm0,5.46a1.82,1.82,0,1,1,1.82-1.82A1.83,1.83,0,0,1,128.22,1552.45Z"/><path class="cls-13" d="M133.68,1539.71a2.73,2.73,0,1,0,2.73,2.73A2.73,2.73,0,0,0,133.68,1539.71Zm0,3.64a.91.91,0,1,1,.91-.91A.91.91,0,0,1,133.68,1543.35Z"/><path class="cls-13" d="M142.78,1546.08a3.64,3.64,0,1,0,3.64,3.64A3.64,3.64,0,0,0,142.78,1546.08Zm0,5.46a1.82,1.82,0,1,1,1.82-1.82A1.83,1.83,0,0,1,142.78,1551.54Z"/><path class="cls-13" d="M157.34,1522.42v-.22a8.74,8.74,0,0,0-.2-1.85l1.52-.76-.82-1.62-1.27.63a9.07,9.07,0,0,0-1.57-2.39l2.89-2.16-1.1-1.46-3.18,2.39a8.52,8.52,0,0,0-1.55-.89l.63-1.27-1.62-.82-.76,1.52a8.74,8.74,0,0,0-1.85-.2h-.22v-1.82h-1.82v1.91a4.32,4.32,0,0,0-1.39.56l-.53-1.06-1.62.82.75,1.51a4.56,4.56,0,0,0-.69,1.5l-2.67-.66-.44,1.76,3,.76a4.72,4.72,0,0,0,.51,1.45l-1.78.6.58,1.72,2.5-.83a4.72,4.72,0,0,0,1.16.6l-1.07,1.59,1.52,1,1.47-2.21a.91.91,0,0,1,.5.8,4.46,4.46,0,0,0,.34,1.71l-1.76,1.17,1,1.52,1.76-1.17a4.36,4.36,0,0,0,1.38.93v4h1.82v-3.64a4.54,4.54,0,0,0,1.91-.44l2,2,1.28-1.29-1.81-1.8a4.54,4.54,0,0,0,1.08-2.1h1.91v-1.82Zm-1.82.91a2.73,2.73,0,0,1-5.46,0,2.73,2.73,0,0,0-2.73-2.73,2.73,2.73,0,0,1,0-5.46h1.13a7.07,7.07,0,0,1,7.06,7.06Z"/><path class="cls-13" d="M89.7,1510.19h-.21a8.51,8.51,0,0,0-1.84.28l-.82-1.48-1.6.88.69,1.24a9.14,9.14,0,0,0-2.32,1.67L81.32,1510l-1.41,1.15,2.52,3.08a8.58,8.58,0,0,0-.83,1.59l-1.3-.59-.74,1.66,1.54.7a9.49,9.49,0,0,0-.12,1.86v.21l-1.82.08.08,1.82,1.91-.08a4.3,4.3,0,0,0,.61,1.36l-1,.57.88,1.6,1.48-.82a4.58,4.58,0,0,0,1.53.63l-.55,2.69,1.78.37.63-3.05a4.61,4.61,0,0,0,1.43-.57l.67,1.75,1.7-.65-.94-2.46a4.92,4.92,0,0,0,.56-1.18l1.63,1,.95-1.55-2.28-1.38a.9.9,0,0,1,.78-.53,4.77,4.77,0,0,0,1.7-.41l1.24,1.7,1.47-1.07-1.24-1.7a4.75,4.75,0,0,0,.88-1.42l4-.17-.08-1.82-3.63.15a4.48,4.48,0,0,0-.52-1.89l1.91-2.07-1.34-1.24-1.73,1.88a4.62,4.62,0,0,0-2.14-1l-.08-1.91-1.82.08Zm1,1.78a2.73,2.73,0,0,1,.23,5.46,2.74,2.74,0,0,0-2.62,2.84,2.73,2.73,0,0,1-5.45.23l0-1.13a7.07,7.07,0,0,1,6.76-7.35Z"/><path class="cls-13" d="M110.6,1569.72l-.78-5.59-1.8.25.8,5.8a11.94,11.94,0,0,0-3.93,2.32l-3.38-3.53-1.31,1.25,3.43,3.59a11.58,11.58,0,0,0-2.3,4.4l-.08.27L95.66,1573l-1.27,1.3,6.22,6.08a9.12,9.12,0,0,1-3.57,4.06l-1.63-2.86-1.58.9,1.57,2.75a9,9,0,0,1-5.49.22l-.14,0,.49-4.74-1.81-.19-.48,4.63a10.89,10.89,0,0,0-3.38.22l-1.37-6.85-1.78.35,1.41,7.07a11.23,11.23,0,0,0-2.2,1.22l-2.77-3.82-1.48,1.07,2.86,3.94a10.84,10.84,0,0,0-1.64,2.14l-3.51-1.76-.81,1.62,3.53,1.77c-.13.33-.24.67-.34,1a10.74,10.74,0,0,0-.37,2.73l-6.49-1.78-.48,1.76,7.11,2a10.56,10.56,0,0,0,.38,1.57l-6,2.76.75,1.65,6-2.73a10.9,10.9,0,0,0,1.18,1.82l-2.25,2,1.2,1.37,2.31-2a10.76,10.76,0,0,0,2.64,1.73l-1.73,6.3,1.76.48,1.68-6.14.88.24q1,.26,1.92.45l-.28,4,1.82.12.26-3.76a32,32,0,0,0,3.76.34l.06,5.93,1.82,0-.06-5.91c.81,0,1.61-.08,2.41-.16l1.36,6.82,1.78-.36-1.33-6.71q1.56-.26,3.09-.66l1.84,5.53,1.72-.57-1.82-5.48a33.66,33.66,0,0,0,3.25-1.27l.92,2.77,1.73-.57-1-3c.82-.44,1.63-.91,2.41-1.41l3.6,5.15,1.49-1-3.59-5.15c.77-.55,1.51-1.14,2.23-1.77l5.3,5.75,1.34-1.23-5.31-5.75a30.78,30.78,0,0,0,2.43-2.67l4.5,3,1-1.51-4.4-2.94a31.08,31.08,0,0,0,2-3.21l3.14,1.58.82-1.63-3.13-1.57q.64-1.33,1.17-2.76l6.26,1.71.48-1.75-6.17-1.69.27-.87a12.09,12.09,0,0,0,.41-3.3l5-1-.36-1.79-4.78,1a11.6,11.6,0,0,0-.66-2.34l3.4-1.35-.67-1.69-3.52,1.39a12,12,0,0,0-1.34-1.84l4.6-4-1.19-1.37-4.72,4.11a11.4,11.4,0,0,0-2.71-1.68l1.73-6.3-1.76-.48-1.68,6.15A11.61,11.61,0,0,0,110.6,1569.72ZM122.39,1584a30.06,30.06,0,0,1-36.89,21l-.88-.24a9.1,9.1,0,1,1,4.81-17.55,10.93,10.93,0,0,0,13.41-7.65l.24-.88a10,10,0,0,1,19.31,5.29Z"/><path class="cls-13" d="M91.65,1596.32a5.46,5.46,0,1,0-6.7,3.82A5.47,5.47,0,0,0,91.65,1596.32Zm-8.77-2.4a3.64,3.64,0,1,1,2.55,4.47A3.64,3.64,0,0,1,82.88,1593.92Z"/><path class="cls-13" d="M95.56,1599.28a2.73,2.73,0,1,0,3.35-1.92A2.73,2.73,0,0,0,95.56,1599.28Zm3.51,1a.91.91,0,1,1-.64-1.12A.9.9,0,0,1,99.07,1600.24Z"/><path class="cls-13" d="M106.74,1592.9a3.64,3.64,0,1,0,4.47-2.55A3.64,3.64,0,0,0,106.74,1592.9Zm5.27,1.44a1.82,1.82,0,1,1-1.28-2.23A1.83,1.83,0,0,1,112,1594.34Z"/><path class="cls-13" d="M101.16,1585.71a2.73,2.73,0,1,0,3.35-1.91A2.74,2.74,0,0,0,101.16,1585.71Zm3.51,1a.9.9,0,0,1-1.12.63.91.91,0,1,1,1.12-.63Z"/><path class="cls-13" d="M109.71,1578.62a3.64,3.64,0,1,0,4.47-2.55A3.64,3.64,0,0,0,109.71,1578.62Zm5.26,1.44a1.82,1.82,0,1,1-1.27-2.23A1.82,1.82,0,0,1,115,1580.06Z"/><path class="cls-13" d="M147,1575.33h-.22a9.29,9.29,0,0,0-1.84.28l-.82-1.48-1.59.88.69,1.24a8.61,8.61,0,0,0-2.32,1.68l-2.29-2.8-1.41,1.15,2.52,3.08a9.23,9.23,0,0,0-.83,1.59l-1.29-.58-.75,1.66,1.54.69a8.78,8.78,0,0,0-.11,1.86v.22l-1.81.07.07,1.82,1.91-.08a4.45,4.45,0,0,0,.61,1.37l-1,.57.89,1.59,1.47-.82a4.64,4.64,0,0,0,1.54.63l-.56,2.69,1.78.37.63-3a4.61,4.61,0,0,0,1.43-.57l.67,1.75,1.7-.65-.94-2.46a4.57,4.57,0,0,0,.56-1.18l1.64,1,.94-1.56-2.27-1.38a.88.88,0,0,1,.78-.53A4.56,4.56,0,0,0,150,1584l1.24,1.7,1.47-1.07-1.24-1.7a4.34,4.34,0,0,0,.88-1.42l4-.17-.07-1.82-3.64.15a4.48,4.48,0,0,0-.52-1.89l1.91-2.07-1.34-1.23-1.73,1.88a4.54,4.54,0,0,0-2.14-1l-.08-1.91-1.82.08Zm1,1.78a2.73,2.73,0,0,1,.23,5.45,2.73,2.73,0,0,0-2.61,2.84,2.73,2.73,0,0,1-5.46.23l-.05-1.13a7.08,7.08,0,0,1,6.77-7.35Z"/></g><g class="cls-12"><path class="cls-13" d="M1553.77,186.56a.59.59,0,0,1,.57.39.61.61,0,0,1-.35.8,5.51,5.51,0,0,0-1.53.81.61.61,0,0,1-.85.17.62.62,0,0,1-.18-.85,5.45,5.45,0,0,1,2.11-1.28A.66.66,0,0,1,1553.77,186.56Z"/><path class="cls-13" d="M1548.4,183.22a2.12,2.12,0,1,0,2.12-2.13A2.12,2.12,0,0,0,1548.4,183.22Zm1.23,0a.89.89,0,1,1,.89.89A.89.89,0,0,1,1549.63,183.22Z"/><path class="cls-13" d="M1548.12,195.38a.61.61,0,0,1,.24,1.18,3,3,0,0,0-1.13,1.39.62.62,0,0,1-1.23-.12,3.85,3.85,0,0,1,1.88-2.41A.67.67,0,0,1,1548.12,195.38Z"/><path class="cls-13" d="M1543.41,172.76l1.53-.67a6.25,6.25,0,0,1,8.73,6.29l-.09,1a2.6,2.6,0,0,0,.6,1.91l3,3.55a3.84,3.84,0,0,1-2.38,6.26l-.25,0a2.61,2.61,0,0,0-1.86,1.26.62.62,0,0,1-1.06-.63,3.86,3.86,0,0,1,2.74-1.85l.24,0a2.61,2.61,0,0,0,1.62-4.26l-3-3.54a3.83,3.83,0,0,1-.88-2.81l.09-.95a5,5,0,0,0-7-5.05l-1.53.67a10.87,10.87,0,0,1-5.12.89l-3.81-.27a6.17,6.17,0,0,0-6.4,7.71l.91,3.49a3.83,3.83,0,0,1-1.09,3.78l-.78.73a2.61,2.61,0,0,0,1.25,4.47l5,1a3.85,3.85,0,0,1,2.64,2l1.14,2.21a2.55,2.55,0,0,0,2,1.39,2.58,2.58,0,0,0,2.28-.85,3.85,3.85,0,0,1,4.68-.84l.83.44a2.58,2.58,0,0,0,2.63-.1,2.62,2.62,0,0,0,1.21-2.34l-.14-2.77a.62.62,0,0,1,.58-.65.62.62,0,0,1,.65.59l.14,2.77a3.85,3.85,0,0,1-5.65,3.59l-.83-.44a2.61,2.61,0,0,0-3.18.57,3.84,3.84,0,0,1-6.29-.8l-1.13-2.2a2.6,2.6,0,0,0-1.8-1.36l-5-1a3.85,3.85,0,0,1-1.85-6.58l.78-.73a2.63,2.63,0,0,0,.75-2.57l-.91-3.49a7.41,7.41,0,0,1,7.68-9.25l3.8.27A9.56,9.56,0,0,0,1543.41,172.76Z"/><path class="cls-13" d="M1546.61,191.13a.61.61,0,0,1-.61-.62v-.88a.61.61,0,0,1,.61-.62.62.62,0,0,1,.62.62v.88A.62.62,0,0,1,1546.61,191.13Z"/><path class="cls-13" d="M1546.61,178.71a2.12,2.12,0,1,0-2.12-2.12A2.12,2.12,0,0,0,1546.61,178.71Zm-.89-2.12a.89.89,0,1,1,.89.89A.89.89,0,0,1,1545.72,176.59Z"/><path class="cls-13" d="M1560.94,172.05a1.84,1.84,0,0,0-1.72-1.17,2,2,0,0,0-.68.13,6.31,6.31,0,0,0-3,2.65,8.88,8.88,0,0,0-1.36-1.95,9.09,9.09,0,0,0-6.15-3,1.85,1.85,0,0,0-1.06-3.37,1.88,1.88,0,0,0-1,.28,7.68,7.68,0,0,0-3,4.2l-.7.31a6.66,6.66,0,0,1-3.21.56l-2.64-.19a.62.62,0,0,0-.66.58.61.61,0,0,0,.57.65l2.65.19.56,0a8,8,0,0,0,3.22-.68l1.53-.67a8.13,8.13,0,0,1,2.34-.63h0c.27,0,.54,0,.82,0a7.87,7.87,0,0,1,5.79,2.57,7.75,7.75,0,0,1,2,6l-.09.95a1.05,1.05,0,0,0,.24.76l2.95,3.54a5.44,5.44,0,0,1-3.36,8.85l-.25,0a1,1,0,0,0-.88,1.07l.19,3.76a5.35,5.35,0,0,1-1.48,4,5.47,5.47,0,0,1-2.21,1.41h0a5.53,5.53,0,0,1-1.72.28,6,6,0,0,1-.73,0h0a5.52,5.52,0,0,1-1.8-.59l-.83-.44a1,1,0,0,0-.48-.12,1,1,0,0,0-.77.35,5.45,5.45,0,0,1-8.89-1.13L1534,199a1,1,0,0,0-.71-.54l-5-1a5.43,5.43,0,0,1-2.61-9.29l.78-.73a1,1,0,0,0,.29-1l-.91-3.49a9,9,0,0,1,2.82-9.06l0,0a8.64,8.64,0,0,1,2.48-1.51l.07,0a9.36,9.36,0,0,1,2.29-.56.61.61,0,1,0-.13-1.22,10.27,10.27,0,0,0-2.42.56l-.64-.22c-1.34-.44-2-.73-2.13-1.25a1.85,1.85,0,1,0-3.52,1.14,4.84,4.84,0,0,0,2.49,2.82,10.26,10.26,0,0,0-2.54,9.68l.11.41a5,5,0,0,1-.38-.41,1.85,1.85,0,0,0-2.83,2.39,8.4,8.4,0,0,0,2.75,2.2,6.66,6.66,0,0,0,3.74,10.83l2.94.61-.71.5A11.32,11.32,0,0,1,1528,201a1.85,1.85,0,0,0,.94,3.58,14.72,14.72,0,0,0,3.75-1.93,14.1,14.1,0,0,0,1.3-1l.08.15a6.65,6.65,0,0,0,10.79,1.5l.69.37a6.89,6.89,0,0,0,1.91.67c.11.2.23.4.35.59a5.88,5.88,0,0,0,3.24,2.49,1.85,1.85,0,0,0,1.06-3.54,1.46,1.46,0,0,1-.38-.18,6.84,6.84,0,0,0,1.79-1.33,6.62,6.62,0,0,0,1.77-3.71,3.35,3.35,0,0,1,1.67,1.74,1.85,1.85,0,0,0,2.45.92,1.83,1.83,0,0,0,.92-2.44,7.69,7.69,0,0,0-5.13-4.21l0-.8h.06a6.67,6.67,0,0,0,4.12-10.86l-2.89-3.48.08-.87c0-.24,0-.48,0-.73a6.51,6.51,0,0,0,2-2.13,2.91,2.91,0,0,1,1.35-1.32A1.85,1.85,0,0,0,1560.94,172.05ZM1555.21,196a6.17,6.17,0,0,1,4,3.39.61.61,0,0,1,0,.48.64.64,0,0,1-.33.34.61.61,0,0,1-.81-.31,4.77,4.77,0,0,0-2.76-2.56Zm-29.33-25.61a.62.62,0,1,1,1.18-.38,3.32,3.32,0,0,0,2.34,1.85,10.16,10.16,0,0,0-1.22.84A3.91,3.91,0,0,1,1525.88,170.36Zm-.63,16.52a6.54,6.54,0,0,1-2.75-2,.62.62,0,0,1,1-.79,6.27,6.27,0,0,0,1.81,1.5l.28,1.07Zm8.1,13.62a11.56,11.56,0,0,1-1.41,1.12,13.58,13.58,0,0,1-3.37,1.76.61.61,0,0,1-.31-1.19,12,12,0,0,0,2.69-1.39,9.67,9.67,0,0,0,1.57-1.22l.4.09Zm18.36,4.54a.61.61,0,0,1,.41.76.62.62,0,0,1-.77.42,4.64,4.64,0,0,1-2.42-1.79,6.79,6.79,0,0,0,1.42-.23A3.22,3.22,0,0,0,1551.71,205Zm-4.15-37.66a.65.65,0,0,1-.28.39,3.73,3.73,0,0,0-1.07,1.06,8.7,8.7,0,0,0-1.66.39,6,6,0,0,1,2.08-2.5.63.63,0,0,1,.32-.1.6.6,0,0,1,.53.3A.62.62,0,0,1,1547.56,167.38Zm11.89,5.93a4,4,0,0,0-1.91,1.77,7,7,0,0,1-1.12,1.37,9,9,0,0,0-.34-1.45c.14-.18.28-.39.43-.61a5.18,5.18,0,0,1,2.48-2.23.64.64,0,0,1,.23,0,.61.61,0,0,1,.57.39A.62.62,0,0,1,1559.45,173.31Z"/><path class="cls-13" d="M1532.94,177.1a2.08,2.08,0,0,1,.77-.16,2.53,2.53,0,0,1,1.51.64,1.54,1.54,0,0,0,.91.43h0a.62.62,0,0,1,0,1.24h0a2.72,2.72,0,0,1-1.65-.68c-.47-.35-.68-.49-1.09-.33a.61.61,0,1,1-.45-1.14Z"/><path class="cls-13" d="M1536.76,190.51a.61.61,0,0,1-.61.62.62.62,0,0,1-.62-.62v-.88a.62.62,0,0,1,.62-.62.61.61,0,0,1,.61.62Z"/><path class="cls-13" d="M1532.66,192.15a.61.61,0,0,1,.63.6.62.62,0,0,1-.6.64,3.23,3.23,0,0,1-1.64-.43,2.53,2.53,0,0,0-1.51-.33.6.6,0,0,1-.66-.56.62.62,0,0,1,.56-.67h.36a3.82,3.82,0,0,1,1.79.46A2.1,2.1,0,0,0,1532.66,192.15Z"/><path class="cls-13" d="M1540.5,195a1.9,1.9,0,1,0,1.9,1.9A1.91,1.91,0,0,0,1540.5,195Zm0,1.24a.67.67,0,1,1-.67.66A.67.67,0,0,1,1540.5,196.26Z"/><path class="cls-13" d="M1539.1,189a2.29,2.29,0,1,0,2.28-2.47A2.39,2.39,0,0,0,1539.1,189Zm1.24,0a1.06,1.06,0,1,1,1,1.24A1.15,1.15,0,0,1,1540.34,189Z"/><path class="cls-13" d="M1530.11,181.21a1.91,1.91,0,1,0,1.91-1.9A1.91,1.91,0,0,0,1530.11,181.21Zm1.24,0a.67.67,0,1,1,.67.67A.67.67,0,0,1,1531.35,181.21Z"/><path class="cls-13" d="M1541.48,180.53a.59.59,0,0,1,.31-.09.6.6,0,0,1,.53.31c.08.13.14.25.2.36.35.64.47.88,1.26.84a.62.62,0,0,1,.65.59.61.61,0,0,1-.59.64,2.27,2.27,0,0,1-2.4-1.48l-.18-.33A.62.62,0,0,1,1541.48,180.53Z"/><path class="cls-13" d="M1614.72,188h6.36v-1.82h-6.52a11.69,11.69,0,0,0-.91-3l5.21-3.47-1-1.52-5.07,3.39a11.74,11.74,0,0,0-1.43-1.78l2.27-3-1.45-1.09-2.2,2.92a12.08,12.08,0,0,0-2.08-1.25l2.18-4.36-1.63-.82-2.26,4.53a11.58,11.58,0,0,0-3.29-.48l-.91,0v-6.39h-1.82v6.49c-1,.09-2,.22-3,.4l-.68-3.43-1.79.36.69,3.45a31.71,31.71,0,0,0-3.63,1.1l-1.67-5-1.73.58,1.72,5.13a32.26,32.26,0,0,0-3.21,1.64l-4.15-6.63-1.54,1,4.14,6.63c-.79.53-1.55,1.09-2.29,1.68l-4-4.82-1.4,1.16,4,4.83c-.7.63-1.37,1.28-2,2l-2.65-1.77-1,1.52,2.44,1.62a31.56,31.56,0,0,0-2.08,2.79l-4.8-3.2-1,1.52,4.85,3.23c-.53.91-1,1.84-1.46,2.8l-6.12-3.05-.82,1.62,6.22,3.11c-.29.75-.56,1.51-.79,2.29l-5.68-1.63-.5,1.76,5.7,1.62a32.9,32.9,0,0,0-.67,3.72l-3.69-.74-.36,1.78,3.89.78c0,.65-.07,1.31-.07,2v.91h-6.37v1.82h6.53a10.56,10.56,0,0,0,1,3l-2.56,1.7,1,1.52,2.49-1.66a10.06,10.06,0,0,0,1.44,1.62l-4.22,5.07,1.4,1.16L1576,218a9.31,9.31,0,0,0,1.42.78v7.38h1.82v-6.73a10.64,10.64,0,0,0,2.73.36c.36,0,.71,0,1.06-.05l.78,3.87,1.78-.36-.77-3.85a10.94,10.94,0,0,0,2.5-1l3,3.8,1.42-1.14-3-3.69a10.59,10.59,0,0,0,1.75-1.79l6.45,3.22.81-1.62-6.25-3.13a10.72,10.72,0,0,0,1.11-3.21l4.59.77.3-1.8-4.71-.78c0-.05,0-.09,0-.14a9,9,0,0,1,1.67-5.23l2.23,2.23,1.29-1.28-2.33-2.33a9,9,0,0,1,4.86-2.37l4.22,7.6,1.59-.88-3.8-6.84h.28a11.58,11.58,0,0,0,4.85-1.06l2.55,4.26,1.56-.94-2.51-4.19a11.79,11.79,0,0,0,3.27-3.18L1618,197l.71-1.68-5.18-2.22A11.76,11.76,0,0,0,1614.72,188Zm-1.82,0a10,10,0,0,1-10,10H1602a10.93,10.93,0,0,0-10.92,10.92,9.1,9.1,0,1,1-18.2,0V208a30.06,30.06,0,0,1,30-30A10,10,0,0,1,1612.9,188Z"/><path class="cls-13" d="M1577.41,209.79a5.46,5.46,0,1,0,5.46-5.46A5.47,5.47,0,0,0,1577.41,209.79Zm1.82,0a3.64,3.64,0,1,1,3.64,3.64A3.64,3.64,0,0,1,1579.23,209.79Z"/><path class="cls-13" d="M1583.78,197.05a2.73,2.73,0,1,0-2.73,2.73A2.74,2.74,0,0,0,1583.78,197.05Zm-1.82,0a.91.91,0,1,1-.91-.91A.91.91,0,0,1,1582,197.05Z"/><path class="cls-13" d="M1593.79,187a3.64,3.64,0,1,0-3.64,3.64A3.65,3.65,0,0,0,1593.79,187Zm-1.82,0a1.82,1.82,0,1,1-1.82-1.82A1.82,1.82,0,0,1,1592,187Z"/><path class="cls-13" d="M1598.34,195.23a2.73,2.73,0,1,0-2.73,2.73A2.74,2.74,0,0,0,1598.34,195.23Zm-1.82,0a.91.91,0,1,1-.91-.91A.91.91,0,0,1,1596.52,195.23Z"/><path class="cls-13" d="M1608.35,188a3.64,3.64,0,1,0-3.64,3.64A3.65,3.65,0,0,0,1608.35,188Zm-1.82,0a1.82,1.82,0,1,1-1.82-1.82A1.83,1.83,0,0,1,1606.53,188Z"/><path class="cls-13" d="M1621.08,215.25v-1.82h-1.91a4.53,4.53,0,0,0-1.07-2.1l1.81-1.81-1.29-1.28-2,2a4.4,4.4,0,0,0-1.92-.44v-3.64h-1.82v4a4.6,4.6,0,0,0-1.38.93l-1.75-1.17-1,1.52,1.76,1.17a4.42,4.42,0,0,0-.34,1.71.91.91,0,0,1-.5.8l-1.48-2.22-1.51,1,1.06,1.6a4.84,4.84,0,0,0-1.15.6l-2.51-.83-.57,1.72,1.78.59a4.38,4.38,0,0,0-.51,1.46l-3,.76.44,1.76,2.66-.67a4.53,4.53,0,0,0,.7,1.51l-.76,1.51,1.63.82.53-1.06a4.36,4.36,0,0,0,1.39.56v1.91h1.82v-1.82h.21a8.76,8.76,0,0,0,1.86-.2l.75,1.52,1.63-.82-.64-1.27a9.45,9.45,0,0,0,1.55-.89l3.19,2.39,1.09-1.46-2.89-2.17a8.63,8.63,0,0,0,1.57-2.38l1.28.63.81-1.63-1.51-.75a8.74,8.74,0,0,0,.2-1.85v-.22Zm-3.63.22a7.07,7.07,0,0,1-7.07,7.06h-1.12a2.73,2.73,0,0,1,0-5.46,2.74,2.74,0,0,0,2.73-2.73,2.73,2.73,0,1,1,5.46,0Z"/><path class="cls-13" d="M1551.55,229.29l1.82.08.08-1.91a4.49,4.49,0,0,0,2.14-1l1.73,1.88,1.34-1.23-1.9-2.07a4.62,4.62,0,0,0,.51-1.9l3.64.16.08-1.82-4-.17a4.49,4.49,0,0,0-.87-1.42l1.24-1.7-1.47-1.07-1.25,1.7a4.56,4.56,0,0,0-1.69-.41.9.9,0,0,1-.78-.53l2.27-1.38-.94-1.56-1.64,1a4.54,4.54,0,0,0-.55-1.18l.93-2.47-1.7-.64-.66,1.75a4.76,4.76,0,0,0-1.44-.57l-.63-3.05-1.78.37.56,2.69a4.58,4.58,0,0,0-1.53.63l-1.48-.82-.88,1.59,1,.57a4.73,4.73,0,0,0-.62,1.37l-1.91-.08-.07,1.82,1.82.07v.22a8.82,8.82,0,0,0,.12,1.86l-1.55.69.75,1.66,1.3-.58a9.19,9.19,0,0,0,.82,1.59l-2.52,3.08,1.41,1.15,2.29-2.8a8.61,8.61,0,0,0,2.32,1.68l-.69,1.24,1.59.88.82-1.48a9.29,9.29,0,0,0,1.84.28h.22Zm-.06-3.64a7.07,7.07,0,0,1-6.76-7.35l0-1.13a2.73,2.73,0,0,1,5.46.23,2.73,2.73,0,0,0,2.61,2.84,2.73,2.73,0,0,1-.23,5.45Z"/><path class="cls-13" d="M1577.79,167.74l1.68,6.14,1.75-.48-1.72-6.29a11.46,11.46,0,0,0,2.7-1.68l4.73,4.11,1.19-1.38-4.6-4a12,12,0,0,0,1.33-1.84l3.53,1.39.67-1.69-3.4-1.35a11.6,11.6,0,0,0,.66-2.34l4.78.95.35-1.78-5-1a11.71,11.71,0,0,0-.41-3.3c-.08-.29-.17-.58-.26-.87l6.16-1.69-.48-1.76-6.26,1.72c-.35-1-.74-1.87-1.16-2.76l3.12-1.57-.81-1.63-3.15,1.58a31,31,0,0,0-2-3.21l4.4-2.94-1-1.51-4.51,3a33.93,33.93,0,0,0-2.42-2.66l5.3-5.75-1.34-1.23-5.3,5.74q-1.07-.93-2.22-1.77l3.59-5.15-1.49-1-3.6,5.16c-.78-.5-1.59-1-2.42-1.41l1-3-1.72-.58-.93,2.78a30.24,30.24,0,0,0-3.24-1.27l1.82-5.48-1.73-.57-1.84,5.53c-1-.27-2-.49-3.09-.67l1.34-6.71-1.79-.35-1.35,6.82c-.8-.08-1.61-.14-2.42-.17l.07-5.9-1.82,0-.07,5.93a31.83,31.83,0,0,0-3.75.33l-.27-3.76-1.81.13.27,4c-.64.14-1.28.28-1.91.46l-.88.24-1.68-6.14-1.76.48,1.73,6.3a10.76,10.76,0,0,0-2.64,1.73l-2.32-2-1.19,1.37,2.25,2a10.51,10.51,0,0,0-1.18,1.82l-6-2.74-.75,1.66,6,2.75a10.69,10.69,0,0,0-.38,1.58l-7.12,1.95.48,1.75,6.49-1.77a11.15,11.15,0,0,0,.38,2.72c.09.35.21.69.33,1l-3.53,1.77L1536,149l3.51-1.76a10.48,10.48,0,0,0,1.64,2.14l-2.86,3.94,1.47,1.07,2.78-3.82a10.89,10.89,0,0,0,2.19,1.21l-1.41,7.08,1.79.35,1.37-6.86a10.9,10.9,0,0,0,3.38.23l.47,4.63,1.81-.19-.48-4.75a.61.61,0,0,0,.13,0,9.07,9.07,0,0,1,5.49.23l-1.57,2.75,1.58.9,1.63-2.86a9,9,0,0,1,3.57,4.06l-6.21,6.08,1.27,1.3,5.59-5.47.07.27a11.73,11.73,0,0,0,2.3,4.4l-3.43,3.58,1.32,1.26,3.38-3.53a11.84,11.84,0,0,0,3.93,2.32l-.8,5.8,1.8.25.77-5.59A11.65,11.65,0,0,0,1577.79,167.74Zm-.49-1.75a10,10,0,0,1-12.29-7l-.24-.87a10.93,10.93,0,0,0-13.42-7.65,9.1,9.1,0,1,1-4.8-17.56l.88-.23a30.05,30.05,0,0,1,36.89,21A10,10,0,0,1,1577.3,166Z"/><path class="cls-13" d="M1546.87,137.52a5.46,5.46,0,1,0,6.71,3.83A5.47,5.47,0,0,0,1546.87,137.52Zm.48,1.76a3.64,3.64,0,1,1-2.55,4.47A3.64,3.64,0,0,1,1547.35,139.28Z"/><path class="cls-13" d="M1560.84,140.3a2.73,2.73,0,1,0-3.35-1.91A2.72,2.72,0,0,0,1560.84,140.3Zm-.48-1.75a.91.91,0,0,1-1.12-.64.91.91,0,1,1,1.76-.48A.92.92,0,0,1,1560.36,138.55Z"/><path class="cls-13" d="M1573.14,147.32a3.65,3.65,0,1,0-4.47-2.55A3.66,3.66,0,0,0,1573.14,147.32Zm-.48-1.76a1.82,1.82,0,1,1-1-3.51,1.82,1.82,0,0,1,1,3.51Z"/><path class="cls-13" d="M1566.44,153.87a2.73,2.73,0,1,0-3.35-1.92A2.74,2.74,0,0,0,1566.44,153.87Zm-.48-1.76a.91.91,0,1,1,.64-1.12A.91.91,0,0,1,1566,152.11Z"/><path class="cls-13" d="M1576.1,161.6a3.64,3.64,0,1,0-4.47-2.55A3.64,3.64,0,0,0,1576.1,161.6Zm-.48-1.76a1.82,1.82,0,0,1-1-3.51,1.82,1.82,0,1,1,1,3.51Z"/><path class="cls-13" d="M1608.86,164.16l1.82.08.08-1.91a4.54,4.54,0,0,0,2.14-1l1.73,1.88L1616,162l-1.91-2.07a4.48,4.48,0,0,0,.52-1.9l3.63.15.08-1.81-4-.17a4.52,4.52,0,0,0-.88-1.42l1.24-1.7-1.47-1.08-1.24,1.71a4.38,4.38,0,0,0-1.7-.41.91.91,0,0,1-.78-.53l2.28-1.38-1-1.56-1.64,1a4.54,4.54,0,0,0-.55-1.18l.94-2.47-1.7-.64-.67,1.75a4.46,4.46,0,0,0-1.43-.57l-.63-3.05-1.78.36.55,2.7a4.58,4.58,0,0,0-1.53.63l-1.48-.82-.88,1.59,1,.57a4.45,4.45,0,0,0-.61,1.37l-1.91-.08-.08,1.82,1.82.07v.22a9.59,9.59,0,0,0,.12,1.86l-1.54.69.74,1.66,1.3-.58a8.58,8.58,0,0,0,.83,1.59l-2.52,3.08,1.41,1.15,2.28-2.8a8.9,8.9,0,0,0,2.32,1.67l-.69,1.25,1.6.88.81-1.48a8.69,8.69,0,0,0,1.85.27h.21Zm-.07-3.65a7.06,7.06,0,0,1-6.76-7.35l0-1.12a2.73,2.73,0,0,1,5.45.23,2.74,2.74,0,0,0,2.62,2.84,2.73,2.73,0,0,1-.23,5.45Z"/></g><g class="cls-12"><path class="cls-13" d="M1408.27,1328.38a.63.63,0,0,1-.58-.39.62.62,0,0,1,.35-.8,5.36,5.36,0,0,0,1.53-.81.61.61,0,0,1,.85-.17.61.61,0,0,1,.18.85,5.45,5.45,0,0,1-2.11,1.28A.57.57,0,0,1,1408.27,1328.38Z"/><path class="cls-13" d="M1413.64,1331.72a2.13,2.13,0,1,0-2.12,2.13A2.12,2.12,0,0,0,1413.64,1331.72Zm-1.24,0a.89.89,0,1,1-.88-.89A.88.88,0,0,1,1412.4,1331.72Z"/><path class="cls-13" d="M1413.92,1319.56a.61.61,0,0,1-.24-1.18,3,3,0,0,0,1.13-1.39.62.62,0,0,1,.67-.56.63.63,0,0,1,.56.68,3.91,3.91,0,0,1-1.89,2.41A.59.59,0,0,1,1413.92,1319.56Z"/><path class="cls-13" d="M1418.63,1342.17l-1.54.68a6.24,6.24,0,0,1-8.72-6.29l.08-1a2.54,2.54,0,0,0-.59-1.91l-2.95-3.55a3.84,3.84,0,0,1,2.38-6.26l.24,0a2.61,2.61,0,0,0,1.86-1.26.62.62,0,0,1,1.07.63,3.88,3.88,0,0,1-2.74,1.85l-.25,0a2.61,2.61,0,0,0-2,1.66,2.58,2.58,0,0,0,.43,2.6l3,3.55a3.87,3.87,0,0,1,.87,2.81l-.09,1a5,5,0,0,0,7,5l1.53-.67a10.71,10.71,0,0,1,5.12-.89l3.8.26a6.16,6.16,0,0,0,6.4-7.7l-.9-3.49a3.83,3.83,0,0,1,1.09-3.78l.78-.73a2.61,2.61,0,0,0-1.26-4.47l-5-1a3.86,3.86,0,0,1-2.64-2l-1.13-2.2a2.61,2.61,0,0,0-4.28-.54,3.83,3.83,0,0,1-4.67.84l-.83-.44a2.61,2.61,0,0,0-3.84,2.44l.14,2.77a.62.62,0,0,1-1.24.06l-.13-2.77a3.84,3.84,0,0,1,5.64-3.59l.83.44a2.62,2.62,0,0,0,3.18-.57,3.84,3.84,0,0,1,6.29.8l1.14,2.2a2.61,2.61,0,0,0,1.79,1.36l5,1a3.85,3.85,0,0,1,1.85,6.58l-.78.73a2.61,2.61,0,0,0-.74,2.57l.91,3.49a7.4,7.4,0,0,1-7.68,9.24l-3.81-.26A9.64,9.64,0,0,0,1418.63,1342.17Z"/><path class="cls-13" d="M1415.42,1323.81a.62.62,0,0,1,.62.62v.88a.62.62,0,0,1-.62.62.61.61,0,0,1-.61-.62v-.88A.61.61,0,0,1,1415.42,1323.81Z"/><path class="cls-13" d="M1415.42,1336.23a2.12,2.12,0,1,0,2.13,2.12A2.12,2.12,0,0,0,1415.42,1336.23Zm.89,2.12a.89.89,0,1,1-.89-.89A.89.89,0,0,1,1416.31,1338.35Z"/><path class="cls-13" d="M1401.09,1342.89a1.85,1.85,0,0,0,1.72,1.17,2,2,0,0,0,.69-.13,6.28,6.28,0,0,0,3-2.65,9.24,9.24,0,0,0,1.36,2,9.11,9.11,0,0,0,6.15,3,1.84,1.84,0,0,0-.74,1.09,1.86,1.86,0,0,0,1.8,2.28,1.85,1.85,0,0,0,1-.28,7.63,7.63,0,0,0,3-4.2l.71-.32a6.74,6.74,0,0,1,3.2-.55l2.65.18a.6.6,0,0,0,.65-.57.62.62,0,0,0-.57-.66l-2.64-.18-.56,0a8,8,0,0,0-3.23.68l-1.53.67a7.66,7.66,0,0,1-2.33.62h0a7.52,7.52,0,0,1-.82,0,7.87,7.87,0,0,1-5.79-2.57,7.68,7.68,0,0,1-2-6l.08-1a1,1,0,0,0-.23-.75l-3-3.54a5.43,5.43,0,0,1,3.36-8.85l.25,0a1,1,0,0,0,.87-1.07l-.19-3.76a5.39,5.39,0,0,1,1.48-4,5.51,5.51,0,0,1,2.22-1.41h0a5.53,5.53,0,0,1,1.72-.28,5.84,5.84,0,0,1,.73,0h0a5.58,5.58,0,0,1,1.81.59l.83.44a1,1,0,0,0,.48.12,1,1,0,0,0,.77-.35,5.42,5.42,0,0,1,8.88,1.13l1.14,2.2a1,1,0,0,0,.71.54l5,1a5.44,5.44,0,0,1,2.6,9.29l-.77.73a1,1,0,0,0-.3,1l.91,3.49a8.9,8.9,0,0,1-1.58,7.75,9,9,0,0,1-1.23,1.31l0,0a8.81,8.81,0,0,1-2.48,1.52l-.08,0a9.14,9.14,0,0,1-2.29.56.61.61,0,1,0,.13,1.22,9.89,9.89,0,0,0,2.43-.57c.22.09.45.16.64.22,1.33.45,2,.74,2.13,1.26a1.84,1.84,0,0,0,1.76,1.28,1.88,1.88,0,0,0,.57-.09,1.85,1.85,0,0,0,1.18-2.33,4.89,4.89,0,0,0-2.49-2.83,10,10,0,0,0,.74-.85,10.12,10.12,0,0,0,1.8-8.82l-.1-.41a5,5,0,0,1,.38.41,1.83,1.83,0,0,0,1.41.65,1.84,1.84,0,0,0,1.41-3,8.24,8.24,0,0,0-2.74-2.2,6.67,6.67,0,0,0-3.74-10.83l-2.94-.61.71-.5a10.83,10.83,0,0,1,2.32-1.22,1.85,1.85,0,1,0-.93-3.58,14.4,14.4,0,0,0-3.75,1.93,11.82,11.82,0,0,0-1.3,1l-.08-.16a6.68,6.68,0,0,0-10.8-1.5l-.69-.36a6.53,6.53,0,0,0-1.9-.67c-.11-.2-.23-.4-.36-.59a5.89,5.89,0,0,0-3.23-2.49,1.85,1.85,0,1,0-1.07,3.54,2.2,2.2,0,0,1,.39.17,6.88,6.88,0,0,0-1.79,1.34,6.59,6.59,0,0,0-1.77,3.71,3.36,3.36,0,0,1-1.68-1.74,1.86,1.86,0,0,0-2.45-.93,1.9,1.9,0,0,0-1,1,1.86,1.86,0,0,0,0,1.41,7.72,7.72,0,0,0,5.14,4.21l0,.8h-.06a6.67,6.67,0,0,0-4.13,10.86l2.9,3.48-.08.86c0,.25,0,.49,0,.74a6.56,6.56,0,0,0-2,2.13,2.89,2.89,0,0,1-1.34,1.32A1.85,1.85,0,0,0,1401.09,1342.89Zm5.73-23.92a6.21,6.21,0,0,1-4-3.4.64.64,0,0,1,0-.47.62.62,0,0,1,1.14,0,4.77,4.77,0,0,0,2.76,2.56Zm29.33,25.61a.62.62,0,0,1-.39.78l-.19,0a.61.61,0,0,1-.59-.43,3.32,3.32,0,0,0-2.34-1.85,11,11,0,0,0,1.22-.84A3.87,3.87,0,0,1,1436.15,1344.58Zm.63-16.52a6.54,6.54,0,0,1,2.75,2,.62.62,0,0,1-.07.87.61.61,0,0,1-.4.14.62.62,0,0,1-.47-.22,6.27,6.27,0,0,0-1.81-1.5l-.28-1.08Zm-8.1-13.62a11.74,11.74,0,0,1,1.42-1.12,13.54,13.54,0,0,1,3.36-1.76.61.61,0,1,1,.31,1.19,12,12,0,0,0-2.69,1.39,10,10,0,0,0-1.56,1.22l-.41-.09Zm-18.35-4.54a.62.62,0,1,1,.35-1.18,4.66,4.66,0,0,1,2.43,1.79,6.78,6.78,0,0,0-1.43.23A3.13,3.13,0,0,0,1410.33,1309.9Zm4.15,37.66a.64.64,0,0,1,.27-.39,3.77,3.77,0,0,0,1.08-1.06,9.42,9.42,0,0,0,1.65-.39,5.87,5.87,0,0,1-2.08,2.5.6.6,0,0,1-.32.1.62.62,0,0,1-.6-.76Zm-11.89-5.93a4,4,0,0,0,1.91-1.77,6.36,6.36,0,0,1,1.12-1.37,9,9,0,0,0,.33,1.45c-.14.18-.28.39-.43.61a5.14,5.14,0,0,1-2.48,2.23.59.59,0,0,1-.23,0,.61.61,0,0,1-.57-.39A.62.62,0,0,1,1402.59,1341.63Z"/><path class="cls-13" d="M1429.1,1337.84a2.12,2.12,0,0,1-.77.16,2.47,2.47,0,0,1-1.51-.64,1.56,1.56,0,0,0-.92-.43h0a.62.62,0,0,1,0-1.24h0a2.67,2.67,0,0,1,1.65.68c.47.35.68.49,1.1.32a.62.62,0,0,1,.8.35A.62.62,0,0,1,1429.1,1337.84Z"/><path class="cls-13" d="M1425.27,1324.43a.62.62,0,0,1,.62-.62.61.61,0,0,1,.61.62v.88a.61.61,0,0,1-.61.62.62.62,0,0,1-.62-.62Z"/><path class="cls-13" d="M1429.38,1322.79a.63.63,0,0,1-.64-.6.62.62,0,0,1,.6-.64,3.31,3.31,0,0,1,1.64.42,2.55,2.55,0,0,0,1.51.34.62.62,0,0,1,.11,1.23h-.36a3.82,3.82,0,0,1-1.79-.46A2,2,0,0,0,1429.38,1322.79Z"/><path class="cls-13" d="M1421.53,1319.92a1.91,1.91,0,1,0-1.9-1.9A1.91,1.91,0,0,0,1421.53,1319.92Zm0-1.24a.67.67,0,1,1,.67-.66A.67.67,0,0,1,1421.53,1318.68Z"/><path class="cls-13" d="M1422.93,1326a2.28,2.28,0,1,0-2.27,2.47A2.38,2.38,0,0,0,1422.93,1326Zm-1.23,0a1.06,1.06,0,1,1-1-1.24A1.16,1.16,0,0,1,1421.7,1326Z"/><path class="cls-13" d="M1431.92,1333.73a1.9,1.9,0,1,0-1.9,1.9A1.9,1.9,0,0,0,1431.92,1333.73Zm-1.23,0a.67.67,0,1,1-.67-.67A.67.67,0,0,1,1430.69,1333.73Z"/><path class="cls-13" d="M1420.56,1334.41a.61.61,0,0,1-.31.09.62.62,0,0,1-.54-.31l-.2-.36c-.34-.64-.47-.88-1.26-.84a.61.61,0,0,1-.64-.59.6.6,0,0,1,.58-.64,2.29,2.29,0,0,1,2.41,1.48,2.68,2.68,0,0,0,.18.33A.62.62,0,0,1,1420.56,1334.41Z"/><path class="cls-13" d="M1347.32,1327H1341v1.82h6.52a12.09,12.09,0,0,0,.91,3l-5.21,3.47,1,1.52,5.08-3.39a12.25,12.25,0,0,0,1.43,1.78l-2.28,3,1.46,1.09,2.19-2.92a12.89,12.89,0,0,0,2.08,1.25l-2.17,4.36,1.62.81,2.26-4.52a12,12,0,0,0,3.3.48l.91,0v6.4h1.82v-6.49c1-.09,2-.22,3-.4l.69,3.43,1.78-.36-.69-3.45a29.86,29.86,0,0,0,3.63-1.11l1.68,5,1.72-.58-1.71-5.14a30.3,30.3,0,0,0,3.21-1.64l4.15,6.64,1.54-1-4.15-6.64c.79-.52,1.56-1.08,2.3-1.67l4,4.82,1.39-1.16-4-4.84c.69-.62,1.36-1.27,2-2l2.64,1.77,1-1.52-2.43-1.62a33.67,33.67,0,0,0,2.08-2.79l4.8,3.2,1-1.52-4.85-3.23a31.11,31.11,0,0,0,1.46-2.81l6.12,3.06.81-1.62-6.22-3.12c.29-.74.56-1.5.8-2.28l5.68,1.62.49-1.75-5.7-1.63a30.3,30.3,0,0,0,.67-3.71l3.7.74.35-1.78-3.88-.78c0-.65.07-1.31.07-2v-.91h6.37v-1.82h-6.54a10.87,10.87,0,0,0-1-3l2.55-1.7-1-1.52-2.48,1.66a11.75,11.75,0,0,0-1.44-1.63l4.22-5.06-1.4-1.16-4.25,5.1a9.81,9.81,0,0,0-1.42-.78v-7.38h-1.82v6.73a10.76,10.76,0,0,0-2.73-.36c-.36,0-.72,0-1.07,0l-.77-3.87-1.79.36.78,3.85a10.76,10.76,0,0,0-2.5,1l-3-3.8-1.42,1.14,3,3.69a10.65,10.65,0,0,0-1.76,1.79l-6.45-3.22-.81,1.62,6.26,3.13a11,11,0,0,0-1.12,3.21l-4.58-.77-.3,1.8,4.71.78a.66.66,0,0,0,0,.14,9,9,0,0,1-1.67,5.23l-2.24-2.24-1.28,1.29,2.32,2.33a9,9,0,0,1-4.85,2.37l-4.23-7.6-1.59.88,3.8,6.84h-.27a11.81,11.81,0,0,0-4.86,1l-2.55-4.25-1.56.94,2.51,4.19a12.07,12.07,0,0,0-3.27,3.18L1344,1318l-.72,1.67,5.19,2.23A11.62,11.62,0,0,0,1347.32,1327Zm1.82,0a10,10,0,0,1,10-10h.91a10.93,10.93,0,0,0,10.92-10.92,9.1,9.1,0,0,1,18.2,0v.91a30.06,30.06,0,0,1-30,30A10,10,0,0,1,1349.14,1327Z"/><path class="cls-13" d="M1384.63,1305.15a5.46,5.46,0,1,0-5.46,5.46A5.47,5.47,0,0,0,1384.63,1305.15Zm-1.82,0a3.64,3.64,0,1,1-3.64-3.64A3.65,3.65,0,0,1,1382.81,1305.15Z"/><path class="cls-13" d="M1378.26,1317.89a2.73,2.73,0,1,0,2.73-2.73A2.73,2.73,0,0,0,1378.26,1317.89Zm1.82,0a.91.91,0,1,1,.91.91A.91.91,0,0,1,1380.08,1317.89Z"/><path class="cls-13" d="M1368.25,1327.9a3.64,3.64,0,1,0,3.64-3.64A3.65,3.65,0,0,0,1368.25,1327.9Zm1.82,0a1.82,1.82,0,1,1,1.82,1.82A1.81,1.81,0,0,1,1370.07,1327.9Z"/><path class="cls-13" d="M1363.7,1319.71a2.73,2.73,0,1,0,2.73-2.73A2.73,2.73,0,0,0,1363.7,1319.71Zm1.82,0a.91.91,0,1,1,.91.91A.91.91,0,0,1,1365.52,1319.71Z"/><path class="cls-13" d="M1353.69,1327a3.64,3.64,0,1,0,3.64-3.64A3.65,3.65,0,0,0,1353.69,1327Zm1.82,0a1.82,1.82,0,1,1,1.82,1.82A1.81,1.81,0,0,1,1355.51,1327Z"/><path class="cls-13" d="M1341,1299.69v1.82h1.91a4.62,4.62,0,0,0,1.07,2.1l-1.8,1.81,1.28,1.28,2-2a4.43,4.43,0,0,0,1.92.44v3.64h1.82v-4a4.36,4.36,0,0,0,1.38-.93l1.76,1.17,1-1.52-1.75-1.17a4.61,4.61,0,0,0,.34-1.71.89.89,0,0,1,.5-.8l1.47,2.21,1.52-1-1.07-1.6a4.72,4.72,0,0,0,1.16-.6l2.5.83.58-1.72-1.78-.6a4.72,4.72,0,0,0,.51-1.45l3-.76-.44-1.76-2.67.67a4.51,4.51,0,0,0-.69-1.51l.75-1.51-1.62-.82-.53,1.06a4.32,4.32,0,0,0-1.39-.56v-1.91h-1.82v1.82h-.22a8.74,8.74,0,0,0-1.85.2l-.76-1.52-1.62.82.63,1.27a8.2,8.2,0,0,0-1.55.89l-3.18-2.39-1.1,1.46,2.89,2.16a9.07,9.07,0,0,0-1.57,2.39l-1.27-.63-.82,1.62,1.52.76a8.74,8.74,0,0,0-.2,1.85v.22Zm3.64-.22a7.07,7.07,0,0,1,7.06-7.06h1.13a2.73,2.73,0,0,1,0,5.46,2.73,2.73,0,0,0-2.73,2.73,2.73,2.73,0,0,1-5.46,0Z"/><path class="cls-13" d="M1410.48,1285.65l-1.82-.08-.08,1.91a4.54,4.54,0,0,0-2.14,1l-1.73-1.89-1.34,1.24,1.91,2.07a4.48,4.48,0,0,0-.52,1.89l-3.64-.15-.07,1.82,4,.17a4.63,4.63,0,0,0,.88,1.42l-1.24,1.7,1.47,1.07,1.24-1.7a4.77,4.77,0,0,0,1.7.41.87.87,0,0,1,.77.53l-2.27,1.38,1,1.56,1.63-1a4.92,4.92,0,0,0,.56,1.18l-.94,2.46,1.7.65.67-1.75a4.61,4.61,0,0,0,1.43.57l.63,3.05,1.78-.37-.55-2.69a4.58,4.58,0,0,0,1.53-.63l1.48.82.88-1.6-1-.57a4.3,4.3,0,0,0,.61-1.36l1.91.08.08-1.82-1.82-.08v-.21a9.49,9.49,0,0,0-.12-1.86l1.54-.69-.74-1.66-1.3.58a8.58,8.58,0,0,0-.83-1.59l2.52-3.08-1.41-1.15-2.28,2.79a9.14,9.14,0,0,0-2.32-1.67l.69-1.24-1.6-.88-.82,1.48a9.17,9.17,0,0,0-1.84-.28h-.21Zm.07,3.64a7.07,7.07,0,0,1,6.76,7.35l0,1.13a2.73,2.73,0,0,1-5.45-.23,2.74,2.74,0,0,0-2.62-2.84,2.73,2.73,0,1,1,.23-5.45Z"/><path class="cls-13" d="M1384.25,1347.2l-1.68-6.15-1.76.48,1.72,6.3a11.88,11.88,0,0,0-2.7,1.68l-4.72-4.11-1.2,1.38,4.61,4a12,12,0,0,0-1.34,1.84l-3.53-1.39-.66,1.69,3.4,1.35a11.6,11.6,0,0,0-.66,2.34l-4.78-.95-.36,1.78,5,1a12.09,12.09,0,0,0,.41,3.3c.08.29.18.58.27.87l-6.17,1.69.48,1.76,6.26-1.72q.53,1.43,1.17,2.76l-3.13,1.57.82,1.63,3.14-1.58a31.08,31.08,0,0,0,2,3.21l-4.4,2.94,1,1.51,4.5-3a30.78,30.78,0,0,0,2.43,2.67l-5.31,5.75,1.34,1.23,5.3-5.75c.72.63,1.46,1.22,2.23,1.77l-3.6,5.15,1.5,1,3.6-5.16c.78.5,1.59,1,2.41,1.41l-1,3,1.73.58.92-2.78a31.25,31.25,0,0,0,3.25,1.27l-1.82,5.48,1.72.57,1.84-5.53q1.53.4,3.09.66l-1.33,6.71,1.78.36,1.36-6.82c.8.08,1.6.14,2.41.16l-.06,5.91,1.82,0,.06-5.93a32,32,0,0,0,3.76-.34l.26,3.76,1.82-.12-.28-4q1-.2,1.92-.45l.88-.24,1.68,6.14,1.75-.48-1.72-6.3a10.76,10.76,0,0,0,2.64-1.73l2.31,2,1.2-1.37-2.26-2a10.36,10.36,0,0,0,1.19-1.82l6,2.73.76-1.65-6-2.76a12,12,0,0,0,.38-1.57l7.11-2-.48-1.75-6.49,1.77a10.8,10.8,0,0,0-.37-2.73c-.1-.34-.21-.68-.34-1l3.53-1.77L1426,1366l-3.51,1.76a10.89,10.89,0,0,0-1.65-2.14l2.87-3.94-1.48-1.07-2.77,3.82a11.53,11.53,0,0,0-2.2-1.22l1.41-7.07-1.79-.35-1.36,6.86a10.64,10.64,0,0,0-3.39-.23l-.47-4.63-1.81.19.49,4.75-.14,0a9.07,9.07,0,0,1-5.49-.23l1.57-2.75-1.58-.9-1.63,2.86a9.12,9.12,0,0,1-3.57-4.06l6.22-6.08-1.27-1.3-5.59,5.47-.08-.27a11.58,11.58,0,0,0-2.3-4.4l3.43-3.59-1.31-1.25-3.38,3.53a11.89,11.89,0,0,0-3.94-2.32l.81-5.8-1.8-.25-.78,5.59A11.61,11.61,0,0,0,1384.25,1347.2Zm.48,1.75a10,10,0,0,1,12.3,7l.24.88a10.92,10.92,0,0,0,13.41,7.65,9.1,9.1,0,0,1,4.81,17.55l-.88.24a30.05,30.05,0,0,1-36.89-21A10,10,0,0,1,1384.73,1349Z"/><path class="cls-13" d="M1415.16,1377.42a5.46,5.46,0,1,0-6.7-3.83A5.47,5.47,0,0,0,1415.16,1377.42Zm-.48-1.76a3.64,3.64,0,1,1,2.55-4.47A3.64,3.64,0,0,1,1414.68,1375.66Z"/><path class="cls-13" d="M1401.19,1374.64a2.73,2.73,0,1,0,3.36,1.91A2.72,2.72,0,0,0,1401.19,1374.64Zm.49,1.75a.91.91,0,0,1,.48,1.76.92.92,0,0,1-1.12-.64A.9.9,0,0,1,1401.68,1376.39Z"/><path class="cls-13" d="M1388.9,1367.62a3.64,3.64,0,1,0,4.47,2.55A3.65,3.65,0,0,0,1388.9,1367.62Zm.48,1.76a1.82,1.82,0,0,1,1,3.51,1.82,1.82,0,1,1-1-3.51Z"/><path class="cls-13" d="M1395.6,1361.07A2.73,2.73,0,1,0,1399,1363,2.74,2.74,0,0,0,1395.6,1361.07Zm.48,1.76a.91.91,0,1,1-.64,1.12A.9.9,0,0,1,1396.08,1362.83Z"/><path class="cls-13" d="M1385.93,1353.34a3.64,3.64,0,1,0,4.47,2.55A3.65,3.65,0,0,0,1385.93,1353.34Zm.48,1.76a1.82,1.82,0,1,1-1.27,2.23A1.82,1.82,0,0,1,1386.41,1355.1Z"/><path class="cls-13" d="M1353.18,1350.78l-1.82-.08-.08,1.91a4.49,4.49,0,0,0-2.14,1l-1.73-1.88-1.34,1.23,1.9,2.07a4.62,4.62,0,0,0-.51,1.9l-3.64-.16-.07,1.82,4,.17a4.34,4.34,0,0,0,.88,1.42l-1.25,1.7,1.47,1.07,1.25-1.7a4.56,4.56,0,0,0,1.69.41.9.9,0,0,1,.78.53l-2.27,1.38.94,1.56,1.64-1a4.26,4.26,0,0,0,.56,1.18l-.94,2.47,1.7.64.66-1.75a4.76,4.76,0,0,0,1.44.57l.63,3,1.78-.37-.56-2.69a4.64,4.64,0,0,0,1.54-.63l1.47.82.89-1.59-1-.57a4.7,4.7,0,0,0,.61-1.37l1.91.08.07-1.82-1.82-.07v-.22a8.2,8.2,0,0,0-.12-1.86l1.55-.69-.75-1.66-1.3.58a8.54,8.54,0,0,0-.82-1.59l2.52-3.08-1.41-1.15-2.29,2.8a8.37,8.37,0,0,0-2.32-1.67l.69-1.25-1.59-.88-.82,1.48a8.6,8.6,0,0,0-1.84-.27h-.22Zm.06,3.64a7.09,7.09,0,0,1,6.77,7.36l0,1.12a2.73,2.73,0,0,1-5.46-.23,2.73,2.73,0,0,0-2.61-2.84,2.73,2.73,0,1,1,.23-5.45Z"/></g><text class="cls-2" transform="translate(530.97 1673.75)">I<tspan class="cls-9" x="2.87" y="0">c</tspan><tspan x="8.17" y="0">ons made </tspan><tspan class="cls-14" x="59.83" y="0">b</tspan><tspan x="66.58" y="0">y </tspan><tspan class="cls-15" x="74.77" y="0">F</tspan><tspan class="cls-6" x="80.3" y="0">r</tspan><tspan x="84.11" y="0">eepik f</tspan><tspan class="cls-3" x="117.44" y="0">r</tspan><tspan x="121.25" y="0">om </tspan><tspan class="cls-16" x="140.39" y="0">ww</tspan><tspan class="cls-17" x="158.34" y="0">w</tspan><tspan x="166.7" y="0">.fl</tspan><tspan class="cls-18" x="175.46" y="0">a</tspan><tspan x="181.2" y="0">ti</tspan><tspan class="cls-7" x="187.98" y="0">c</tspan><tspan x="193.28" y="0">on.</tspan><tspan class="cls-9" x="209.01" y="0">c</tspan><tspan x="214.32" y="0">om </tspan></text><path class="cls-19" d="M326.31,173.78l-33.24.25a4,4,0,0,0-2.85,1.2,4,4,0,0,0,0,5.72,4,4,0,0,0,2.42,1.14L293.2,251a17.07,17.07,0,1,0,34.14-.26l-.52-68.95a4,4,0,0,0,3.56-4,4,4,0,0,0-4.07-4Zm1.38,4a1.34,1.34,0,0,1-.39.95,1.36,1.36,0,0,1-.95.41h-.6a1.45,1.45,0,0,0-.3,0,1,1,0,0,0-.3,0l-20.36.15a1.35,1.35,0,1,0,0,2.7l19.31-.15.53,68.92a14.38,14.38,0,1,1-28.75.22l-.53-68.94,4.05-.05a1.35,1.35,0,1,0,0-2.69l-5.11.06-.27,0a1.36,1.36,0,0,0-.29,0h-.61a1.38,1.38,0,0,1-1-.39,1.35,1.35,0,0,1,0-1.91,1.39,1.39,0,0,1,.95-.4l33.24-.25a1.36,1.36,0,0,1,1.36,1.34Z"/><path class="cls-19" d="M320.33,214.69a5.32,5.32,0,0,0-3.34,1.16,2.81,2.81,0,0,1-3.63,0,5.53,5.53,0,0,0-6.71.05,2.57,2.57,0,0,1-1.8.67A2.62,2.62,0,0,1,303,216a5.28,5.28,0,0,0-3.36-1.11,1.35,1.35,0,0,0-1.34,1.35l.11,14.71a1.35,1.35,0,0,0,2.69,0l-.09-13,.46.3a5.34,5.34,0,0,0,3.37,1.12,5.29,5.29,0,0,0,3.34-1.17,2.83,2.83,0,0,1,3.63,0,5.51,5.51,0,0,0,6.7-.05c.17-.12.32-.23.47-.32l.25,33.1a9,9,0,0,1-8.92,9,9,9,0,0,1-9-8.91l-.11-14.7a1.35,1.35,0,1,0-2.7,0l.11,14.7a11.69,11.69,0,0,0,11.77,11.59A11.69,11.69,0,0,0,322,250.82l-.26-34.69a1.36,1.36,0,0,0-1.29-1.44Z"/><path class="cls-19" d="M313.65,192.73a1.36,1.36,0,0,0,1.36,1.34,1.35,1.35,0,0,1,1.36,1.33,1.38,1.38,0,0,1-.39,1,1.31,1.31,0,0,1-1,.4,1.35,1.35,0,0,1-1.36-1.34,1.35,1.35,0,0,0-2.69,0,4,4,0,0,0,6.92,2.81,4,4,0,0,0-2.91-6.88,1.34,1.34,0,0,0-1.34,1.36Z"/><path class="cls-19" d="M307.65,209.11a4,4,0,0,0-2.91-6.88,1.35,1.35,0,1,0,0,2.7,1.29,1.29,0,0,1,.95.38,1.34,1.34,0,0,1,0,1.91,1.35,1.35,0,0,1-1.91,0,1.31,1.31,0,0,1-.4-.95,1.35,1.35,0,0,0-2.7,0,4,4,0,0,0,6.93,2.81Z"/><text class="cls-20" transform="translate(144.88 266.01)"><tspan xml:space="preserve">the  </tspan><tspan class="cls-21" x="159.01" y="0"> </tspan><tspan x="188.42" y="0">ab</tspan></text><text class="cls-20" transform="translate(45.11 181.97)">Escape</text><path class="cls-19" d="M1370.58,1526.43l33.24-.25a4,4,0,0,0,4-4.07,4,4,0,0,0-3.62-4l-.52-68.95a17.08,17.08,0,0,0-34.15.26l.53,69a4,4,0,0,0-2.4,1.17,4,4,0,0,0,2.91,6.88Zm-1.38-4a1.3,1.3,0,0,1,.39-1,1.36,1.36,0,0,1,1-.41h.6a1.39,1.39,0,0,0,.3,0,1,1,0,0,0,.3,0l20.36-.15a1.35,1.35,0,0,0,0-2.7l-19.32.15-.52-68.92a14.38,14.38,0,1,1,28.75-.22l.52,68.94-4,0a1.35,1.35,0,1,0,0,2.69l5.11-.06a1.23,1.23,0,0,0,.27,0,1.36,1.36,0,0,0,.29,0h.61a1.38,1.38,0,0,1,1,.39,1.35,1.35,0,0,1,.4,1,1.35,1.35,0,0,1-1.34,1.36l-33.24.25a1.35,1.35,0,0,1-1.36-1.34Z"/><path class="cls-19" d="M1376.56,1485.52a5.35,5.35,0,0,0,3.34-1.16,2.81,2.81,0,0,1,3.63,0,5.51,5.51,0,0,0,6.7,0,2.84,2.84,0,0,1,3.63,0,5.28,5.28,0,0,0,3.36,1.11,1.31,1.31,0,0,0,1-.4,1.36,1.36,0,0,0,.39-1l-.11-14.71a1.35,1.35,0,0,0-2.7,0l.1,13-.47-.3a5.47,5.47,0,0,0-6.7,0,2.71,2.71,0,0,1-1.81.67,2.68,2.68,0,0,1-1.82-.65,5.51,5.51,0,0,0-6.7.05c-.17.12-.32.23-.47.32l-.25-33.1a9,9,0,0,1,8.92-9,9,9,0,0,1,9,8.91l.11,14.7a1.35,1.35,0,1,0,2.7,0l-.11-14.7a11.69,11.69,0,0,0-11.77-11.59,11.69,11.69,0,0,0-11.59,11.77l.26,34.69a1.36,1.36,0,0,0,1.29,1.44Z"/><path class="cls-19" d="M1383.24,1507.48a1.36,1.36,0,0,0-1.36-1.34,1.35,1.35,0,0,1-1.36-1.33,1.38,1.38,0,0,1,.39-1,1.31,1.31,0,0,1,.95-.4,1.35,1.35,0,0,1,1.36,1.34,1.35,1.35,0,0,0,2.69,0A4,4,0,0,0,1379,1502a4,4,0,0,0,2.91,6.88,1.36,1.36,0,0,0,1.34-1.36Z"/><path class="cls-19" d="M1389.24,1491.1a4,4,0,0,0,2.91,6.88,1.35,1.35,0,1,0,0-2.7,1.29,1.29,0,0,1-1-.38,1.34,1.34,0,0,1,0-1.91,1.31,1.31,0,0,1,.95-.4,1.35,1.35,0,0,1,1.36,1.34,1.35,1.35,0,0,0,2.69,0,4,4,0,0,0-6.92-2.81Z"/><text class="cls-20" transform="translate(1552.01 1434.2) rotate(180)"><tspan xml:space="preserve">the  </tspan><tspan class="cls-21" x="159.01" y="0"> </tspan><tspan x="188.42" y="0">ab</tspan></text><text class="cls-20" transform="translate(1651.78 1518.24) rotate(180)">Escape</text><path class="cls-22" d="M1696.94,0"/><path class="cls-22" d="M-30.31,1723.26"/><path class="cls-13" d="M504.42,1651.61a17.47,17.47,0,0,1,17.66,17.62,16.61,16.61,0,0,1-5,12.37,17.42,17.42,0,0,1-12.62,5.25,17.72,17.72,0,0,1-17.59-17.62,17.27,17.27,0,0,1,5.19-12.52A16.87,16.87,0,0,1,504.42,1651.61Zm.06,3.18a13.69,13.69,0,0,0-10.16,4.22,14.17,14.17,0,0,0-4.31,10.22,14.62,14.62,0,0,0,14.47,14.41,14.1,14.1,0,0,0,10.26-4.31,13.41,13.41,0,0,0,4.16-10.1,14.39,14.39,0,0,0-14.42-14.44Zm4.73,10.07v7.2h-2v8.56h-5.47v-8.56h-2v-7.2a1.08,1.08,0,0,1,.33-.8,1.09,1.09,0,0,1,.8-.33h7.24a1.11,1.11,0,0,1,.79.33A1.06,1.06,0,0,1,509.21,1664.86Zm-7.21-4.53a2.46,2.46,0,1,1,2.45,2.45A2.18,2.18,0,0,1,502,1660.33Z"/><path class="cls-13" d="M463.6,1651.61A17.48,17.48,0,0,1,480,1662.45a18.6,18.6,0,0,1,0,13.56,16.18,16.18,0,0,1-3.76,5.59,18.07,18.07,0,0,1-5.85,3.9,17.59,17.59,0,0,1-6.77,1.35,17.09,17.09,0,0,1-6.68-1.33,17.86,17.86,0,0,1-5.73-3.87,17.57,17.57,0,0,1-3.86-5.72,17.59,17.59,0,0,1,0-13.42,17.78,17.78,0,0,1,3.88-5.77A16.66,16.66,0,0,1,463.6,1651.61Zm.06,3.18A13.67,13.67,0,0,0,453.5,1659a15.07,15.07,0,0,0-3.19,4.73,13.94,13.94,0,0,0,0,11,14.91,14.91,0,0,0,7.88,7.84,14.35,14.35,0,0,0,11,0,15.1,15.1,0,0,0,4.79-3.17,13.56,13.56,0,0,0,4.13-10.11,14.49,14.49,0,0,0-1.07-5.53,14.49,14.49,0,0,0-13.35-8.91Zm-.22,11.52-2.36,1.22a2.46,2.46,0,0,0-.92-1.1,2.09,2.09,0,0,0-1-.31c-1.57,0-2.36,1-2.36,3.11a3.86,3.86,0,0,0,.6,2.27,2,2,0,0,0,1.76.85,2.21,2.21,0,0,0,2.17-1.51l2.17,1.1a5.43,5.43,0,0,1-8.43,1.32,5.46,5.46,0,0,1-1.45-4,5.41,5.41,0,0,1,1.47-4,5.48,5.48,0,0,1,8.38,1.07Zm10.17,0-2.33,1.22a2.41,2.41,0,0,0-.93-1.1,2.13,2.13,0,0,0-1.05-.31c-1.58,0-2.36,1-2.36,3.11a3.94,3.94,0,0,0,.59,2.27,2,2,0,0,0,1.77.85,2.22,2.22,0,0,0,2.17-1.51l2.2,1.1a5.36,5.36,0,0,1-1.95,2,5.53,5.53,0,0,1-6.5-.71,6.29,6.29,0,0,1,0-8,5,5,0,0,1,3.7-1.48A4.87,4.87,0,0,1,473.61,1666.31Z"/><text class="cls-23" transform="translate(1174.54 1267.61) rotate(-45)">Uni<tspan class="cls-24" x="46.44" y="0">v</tspan><tspan x="60.73" y="0">ersité</tspan></text><text class="cls-23" transform="translate(1198.02 1292.03) rotate(-45)">de Genè<tspan class="cls-24" x="108.9" y="0">v</tspan><tspan x="123.19" y="0">e</tspan></text><text class="cls-23" transform="translate(448.58 1187.27) rotate(45)">Edition</text><text class="cls-23" transform="translate(1279.02 539.09) rotate(-135)">Open Access</text><text class="cls-23" transform="translate(534.09 427.84) rotate(135)">Généralités</text></g><g id="Cartes"><path class="cls-25" d="M959.69,642.31l101.22,101.22a19.8,19.8,0,0,0,28.06,0L1240.49,592a19.79,19.79,0,0,0,0-28.06L1139.27,462.73a19.8,19.8,0,0,0-28.06,0L959.69,614.25A19.79,19.79,0,0,0,959.69,642.31Zm149.69-164.77a17.82,17.82,0,0,1,25.25,0l91,91.05a17.82,17.82,0,0,1,0,25.25l-136.3,136.29a17.79,17.79,0,0,1-25.24,0l-91.05-91a17.8,17.8,0,0,1,0-25.24Z"/><path class="cls-13" d="M1137.73,593V581.51a9.6,9.6,0,0,0-19.19,0v11.61s0,1.78-2.16,1.78h-20.05c-1.64,0-2-.23-2.33-1.06a31.4,31.4,0,1,0,.56,22.81,1.36,1.36,0,0,1,1.41-1h63.74a10.51,10.51,0,0,0,10.63-10.37,1.09,1.09,0,0,0,0-.18v0c0-.1,0-.21,0-.31v-.1a9.25,9.25,0,0,0-4.07-7.54,10.87,10.87,0,0,0-2.73-1.51,1.72,1.72,0,0,1-1.24-1.63l-.09-5.85a9.22,9.22,0,0,0-3.08-6.77,9.59,9.59,0,0,0-16.43,6.72v5.62s0,1.21-1.07,1.21H1139a1.16,1.16,0,0,1-1.3-1.36ZM1046.82,606a18.22,18.22,0,0,1,36.44-.22V606a18.22,18.22,0,0,1-36.43.22A1.77,1.77,0,0,1,1046.82,606Z"/><path class="cls-26" d="M641.21,743.53,742.44,642.31a19.8,19.8,0,0,0,0-28.06L590.92,462.73a19.79,19.79,0,0,0-28.06,0L461.63,564a19.8,19.8,0,0,0,0,28.06L613.15,743.53A19.8,19.8,0,0,0,641.21,743.53ZM476.45,593.84a17.82,17.82,0,0,1,0-25.25l91.06-91.05a17.81,17.81,0,0,1,25.24,0L729,613.84a17.81,17.81,0,0,1,0,25.24l-91.06,91a17.81,17.81,0,0,1-25.24,0Z"/><path class="cls-13" d="M592,565.49H580.41a9.6,9.6,0,0,0,0,19.19H592s1.78,0,1.78,2.16v20c0,1.64-.23,2-1,2.32a31.41,31.41,0,1,0,22.81-.55,1.35,1.35,0,0,1-1-1.41V543.51a10.52,10.52,0,0,0-10.38-10.63h-.62A9.23,9.23,0,0,0,596,537a10.59,10.59,0,0,0-1.52,2.73,1.7,1.7,0,0,1-1.63,1.24L587,541a9.23,9.23,0,0,0-6.77,3.08A9.59,9.59,0,0,0,587,560.52h5.61s1.21,0,1.21,1.07v2.6a1.15,1.15,0,0,1-1.35,1.3Zm12.91,90.91a18.22,18.22,0,0,1-.22-36.44h.23a18.22,18.22,0,0,1,.22,36.43Z"/><path class="cls-27" d="M743.44,1060.21,642.21,959a19.8,19.8,0,0,0-28.06,0L462.63,1110.51a19.8,19.8,0,0,0,0,28.06l101.22,101.22a19.81,19.81,0,0,0,28.07,0l151.52-151.52A19.8,19.8,0,0,0,743.44,1060.21ZM593.74,1225a17.81,17.81,0,0,1-25.24,0l-91.06-91a17.82,17.82,0,0,1,0-25.25L613.74,972.39a17.81,17.81,0,0,1,25.24,0L730,1063.44a17.81,17.81,0,0,1,0,25.24Z"/><path class="cls-13" d="M564.05,1112.1v11.83a9.84,9.84,0,1,0,19.68,0V1112s0-1.82,2.22-1.82h20.58c1.68,0,2,.23,2.38,1.08a32.22,32.22,0,1,0-.57-23.4,1.39,1.39,0,0,1-1.44,1H541.5a10.79,10.79,0,0,0-10.91,10.64v.22c0,.11,0,.21,0,.32v.1a9.46,9.46,0,0,0,4.18,7.73,10.91,10.91,0,0,0,2.79,1.56,1.75,1.75,0,0,1,1.28,1.67l.09,6a9.48,9.48,0,0,0,3.16,6.95,9.84,9.84,0,0,0,16.86-6.9v-5.76s0-1.24,1.09-1.24h2.67a1.19,1.19,0,0,1,1.34,1.38Zm93.27-13.25a18.7,18.7,0,0,1-37.39.23v-.24a18.7,18.7,0,0,1,37.39-.23Z"/><path class="cls-28" d="M1061.91,959,960.69,1060.21a19.78,19.78,0,0,0,0,28.06l151.52,151.52a19.79,19.79,0,0,0,28.06,0l101.22-101.22a19.8,19.8,0,0,0,0-28.06L1090,959A19.8,19.8,0,0,0,1061.91,959Zm164.77,149.69a17.82,17.82,0,0,1,0,25.25l-91.06,91a17.81,17.81,0,0,1-25.24,0l-136.29-136.3a17.79,17.79,0,0,1,0-25.24l91.05-91.05a17.81,17.81,0,0,1,25.24,0Z"/><path class="cls-13" d="M1111.47,1137.32H1123a9.59,9.59,0,1,0,0-19.18h-11.6s-1.79,0-1.79-2.16v-20.06c0-1.64.23-2,1.06-2.32a31.4,31.4,0,1,0-22.81.56,1.33,1.33,0,0,1,1,1.4v63.74a10.51,10.51,0,0,0,10.37,10.63h.63a9.25,9.25,0,0,0,7.53-4.07,10.84,10.84,0,0,0,1.52-2.72,1.68,1.68,0,0,1,1.62-1.24l5.85-.09a9.3,9.3,0,0,0,6.78-3.09,9.6,9.6,0,0,0-6.73-16.43h-5.61s-1.22,0-1.22-1.06v-2.61a1.16,1.16,0,0,1,1.36-1.29Zm-12.92-90.9a18.22,18.22,0,0,1,.23,36.43h-.23a18.22,18.22,0,0,1-.23-36.44Z"/><path class="cls-27" d="M1379.56,1078.31v143.16a19.79,19.79,0,0,0,19.83,19.84h214.29a19.8,19.8,0,0,0,19.84-19.84V1078.31a19.8,19.8,0,0,0-19.84-19.84H1399.4A19.79,19.79,0,0,0,1379.56,1078.31Zm222.35-10.65a17.81,17.81,0,0,1,17.85,17.84v128.77a17.81,17.81,0,0,1-17.85,17.85H1409.16a17.81,17.81,0,0,1-17.85-17.85V1085.5a17.81,17.81,0,0,1,17.85-17.84Z"/><path class="cls-28" d="M1379.55,882.65V1025.8a19.8,19.8,0,0,0,19.84,19.84h214.29a19.8,19.8,0,0,0,19.84-19.84V882.65a19.8,19.8,0,0,0-19.84-19.84H1399.4A19.8,19.8,0,0,0,1379.55,882.65ZM1601.91,872a17.81,17.81,0,0,1,17.85,17.85v128.77a17.81,17.81,0,0,1-17.85,17.85H1409.16a17.81,17.81,0,0,1-17.85-17.85V889.84A17.81,17.81,0,0,1,1409.16,872Z"/><path class="cls-25" d="M1379.55,687V830.14A19.8,19.8,0,0,0,1399.4,850h214.28a19.8,19.8,0,0,0,19.84-19.84V687a19.79,19.79,0,0,0-19.84-19.84H1399.39A19.79,19.79,0,0,0,1379.55,687Zm222.36-10.66a17.81,17.81,0,0,1,17.85,17.85V823a17.8,17.8,0,0,1-17.85,17.84H1409.16A17.8,17.8,0,0,1,1391.31,823V694.18a17.81,17.81,0,0,1,17.85-17.85Z"/><path class="cls-26" d="M1379.55,491.32V634.47a19.79,19.79,0,0,0,19.84,19.84h214.28a19.79,19.79,0,0,0,19.84-19.84V491.32a19.8,19.8,0,0,0-19.84-19.84H1399.4A19.81,19.81,0,0,0,1379.55,491.32Zm222.36-10.65a17.81,17.81,0,0,1,17.85,17.84V627.28a17.81,17.81,0,0,1-17.85,17.85H1409.16a17.81,17.81,0,0,1-17.85-17.85V498.51a17.81,17.81,0,0,1,17.85-17.84Z"/><path class="cls-13" d="M1471.88,993.29h37.44V978.11h-37.44a22.72,22.72,0,0,1,0-45.44h37.44V917.49h-37.44a37.9,37.9,0,0,0,0,75.8"/><path class="cls-13" d="M1531.17,942.81a12.52,12.52,0,1,1-12.53,12.52,12.53,12.53,0,0,1,12.53-12.52"/><path class="cls-13" d="M1531,985a29.51,29.51,0,1,1,29.51-29.52A29.55,29.55,0,0,1,1531,985m0,15.17a44.69,44.69,0,1,0-44.69-44.69,44.74,44.74,0,0,0,44.69,44.69"/><path class="cls-13" d="M1471.88,794.24h37.44V779.06h-37.44a22.72,22.72,0,1,1,0-45.43h37.44V718.45h-37.44a37.9,37.9,0,1,0,0,75.79"/><path class="cls-13" d="M1531.17,743.76a12.53,12.53,0,1,1-12.53,12.53,12.51,12.51,0,0,1,12.53-12.53"/><path class="cls-13" d="M1531,785.94a29.51,29.51,0,1,1,29.51-29.51A29.55,29.55,0,0,1,1531,785.94m0,15.18a44.69,44.69,0,1,0-44.69-44.69A44.74,44.74,0,0,0,1531,801.12"/><path class="cls-13" d="M1471.88,602.74h37.44V587.56h-37.44a22.72,22.72,0,0,1,0-45.44h37.44V526.94h-37.44a37.9,37.9,0,0,0,0,75.8"/><path class="cls-13" d="M1531.17,552.26a12.52,12.52,0,1,1-12.53,12.52,12.53,12.53,0,0,1,12.53-12.52"/><path class="cls-13" d="M1531,594.44a29.52,29.52,0,1,1,29.51-29.52A29.55,29.55,0,0,1,1531,594.44m0,15.17a44.69,44.69,0,1,0-44.69-44.69A44.74,44.74,0,0,0,1531,609.61"/><path class="cls-13" d="M1471.88,1186.46h37.44v-15.17h-37.44a22.72,22.72,0,1,1,0-45.44h37.44v-15.18h-37.44a37.9,37.9,0,1,0,0,75.79"/><path class="cls-13" d="M1531.17,1136a12.52,12.52,0,1,1-12.53,12.52,12.51,12.51,0,0,1,12.53-12.52"/><path class="cls-13" d="M1531,1178.16a29.51,29.51,0,1,1,29.51-29.51,29.54,29.54,0,0,1-29.51,29.51m0,15.18a44.69,44.69,0,1,0-44.69-44.69,44.74,44.74,0,0,0,44.69,44.69"/><path class="cls-27" d="M321.47,634.47V491.32a19.79,19.79,0,0,0-19.84-19.84H87.35a19.8,19.8,0,0,0-19.84,19.84V634.47a19.79,19.79,0,0,0,19.84,19.84H301.63A19.79,19.79,0,0,0,321.47,634.47ZM99.12,645.13a17.8,17.8,0,0,1-17.85-17.85V498.51a17.8,17.8,0,0,1,17.85-17.84H291.87a17.8,17.8,0,0,1,17.85,17.84V627.28a17.81,17.81,0,0,1-17.85,17.85Z"/><path class="cls-28" d="M321.47,830.14V687a19.79,19.79,0,0,0-19.84-19.84H87.35A19.79,19.79,0,0,0,67.51,687V830.14A19.8,19.8,0,0,0,87.35,850H301.63A19.79,19.79,0,0,0,321.47,830.14ZM99.12,840.79A17.81,17.81,0,0,1,81.27,823V694.18a17.81,17.81,0,0,1,17.85-17.85H291.87a17.81,17.81,0,0,1,17.85,17.85V823a17.8,17.8,0,0,1-17.85,17.84Z"/><path class="cls-25" d="M321.47,1025.8V882.65a19.79,19.79,0,0,0-19.84-19.84H87.35a19.8,19.8,0,0,0-19.84,19.84V1025.8a19.8,19.8,0,0,0,19.84,19.84H301.63A19.79,19.79,0,0,0,321.47,1025.8ZM99.12,1036.46a17.81,17.81,0,0,1-17.85-17.85V889.84A17.81,17.81,0,0,1,99.12,872H291.87a17.81,17.81,0,0,1,17.85,17.85v128.77a17.81,17.81,0,0,1-17.85,17.85Z"/><path class="cls-26" d="M321.47,1221.46V1078.31a19.79,19.79,0,0,0-19.84-19.84H87.35a19.8,19.8,0,0,0-19.84,19.84v143.15a19.79,19.79,0,0,0,19.84,19.84H301.63A19.79,19.79,0,0,0,321.47,1221.46ZM99.12,1232.12a17.81,17.81,0,0,1-17.85-17.85V1085.5a17.81,17.81,0,0,1,17.85-17.84H291.87a17.8,17.8,0,0,1,17.85,17.84v128.77a17.81,17.81,0,0,1-17.85,17.85Z"/><path class="cls-13" d="M229.15,719.5H191.71v15.18h37.44a22.72,22.72,0,0,1,0,45.44H191.71v15.17h37.44a37.9,37.9,0,0,0,0-75.79"/><path class="cls-13" d="M169.86,770a12.52,12.52,0,1,1,12.52-12.52A12.53,12.53,0,0,1,169.86,770"/><path class="cls-13" d="M170,727.8a29.51,29.51,0,1,1-29.52,29.51A29.54,29.54,0,0,1,170,727.8m0-15.18a44.69,44.69,0,1,0,44.68,44.69A44.75,44.75,0,0,0,170,712.62"/><path class="cls-13" d="M229.15,918.55H191.71v15.17h37.44a22.72,22.72,0,1,1,0,45.44H191.71v15.18h37.44a37.9,37.9,0,0,0,0-75.79"/><path class="cls-13" d="M169.86,969a12.52,12.52,0,1,1,12.53-12.52A12.52,12.52,0,0,1,169.86,969"/><path class="cls-13" d="M170,926.85a29.51,29.51,0,1,1-29.52,29.51A29.53,29.53,0,0,1,170,926.85m0-15.18a44.69,44.69,0,1,0,44.68,44.69A44.74,44.74,0,0,0,170,911.67"/><path class="cls-13" d="M229.15,1110.05H191.71v15.18h37.44a22.72,22.72,0,0,1,0,45.44H191.71v15.18h37.44a37.9,37.9,0,0,0,0-75.8"/><path class="cls-13" d="M169.86,1160.53A12.52,12.52,0,1,1,182.39,1148a12.53,12.53,0,0,1-12.53,12.52"/><path class="cls-13" d="M170,1118.35a29.51,29.51,0,1,1-29.52,29.51A29.55,29.55,0,0,1,170,1118.35m0-15.17a44.69,44.69,0,1,0,44.68,44.68A44.74,44.74,0,0,0,170,1103.18"/><path class="cls-13" d="M229.15,526.32H191.71V541.5h37.44a22.72,22.72,0,0,1,0,45.44H191.71v15.18h37.44a37.9,37.9,0,1,0,0-75.8"/><path class="cls-13" d="M169.86,576.8a12.52,12.52,0,1,1,12.53-12.52,12.52,12.52,0,0,1-12.53,12.52"/><path class="cls-13" d="M170,534.62a29.51,29.51,0,1,1-29.52,29.52A29.55,29.55,0,0,1,170,534.62m0-15.17a44.69,44.69,0,1,0,44.69,44.68A44.74,44.74,0,0,0,170,519.45"/><path class="cls-27" d="M1071.31,321.62h143.15a19.79,19.79,0,0,0,19.84-19.84V87.5a19.79,19.79,0,0,0-19.84-19.85H1071.31a19.8,19.8,0,0,0-19.84,19.84V301.77A19.8,19.8,0,0,0,1071.31,321.62ZM1060.66,99.26a17.8,17.8,0,0,1,17.84-17.85h128.77a17.81,17.81,0,0,1,17.85,17.85V292a17.81,17.81,0,0,1-17.84,17.85H1078.5A17.82,17.82,0,0,1,1060.65,292Z"/><path class="cls-28" d="M875.65,321.62H1018.8a19.8,19.8,0,0,0,19.84-19.84V87.5a19.8,19.8,0,0,0-19.84-19.85H875.65A19.8,19.8,0,0,0,855.81,87.5V301.78A19.8,19.8,0,0,0,875.65,321.62ZM865,99.26a17.81,17.81,0,0,1,17.85-17.85h128.77a17.81,17.81,0,0,1,17.85,17.85V292a17.81,17.81,0,0,1-17.85,17.85H882.84A17.81,17.81,0,0,1,865,292Z"/><path class="cls-25" d="M680,321.62H823.14A19.8,19.8,0,0,0,843,301.78V87.5a19.8,19.8,0,0,0-19.84-19.85H680A19.79,19.79,0,0,0,660.15,87.5V301.77A19.79,19.79,0,0,0,680,321.62ZM669.33,99.26a17.81,17.81,0,0,1,17.85-17.85H815.94a17.8,17.8,0,0,1,17.85,17.85V292A17.8,17.8,0,0,1,816,309.86H687.18A17.81,17.81,0,0,1,669.33,292Z"/><path class="cls-26" d="M484.32,321.62H627.48a19.79,19.79,0,0,0,19.83-19.84V87.5a19.79,19.79,0,0,0-19.84-19.85H484.32A19.8,19.8,0,0,0,464.48,87.5V301.78A19.8,19.8,0,0,0,484.32,321.62ZM473.67,99.26a17.81,17.81,0,0,1,17.84-17.85H620.28a17.81,17.81,0,0,1,17.85,17.85V292a17.81,17.81,0,0,1-17.85,17.85H491.51A17.8,17.8,0,0,1,473.67,292Z"/><path class="cls-13" d="M986.29,229.29V191.85H971.11v37.44a22.72,22.72,0,0,1-45.44,0V191.85H910.49v37.44a37.9,37.9,0,1,0,75.8,0"/><path class="cls-13" d="M935.81,170a12.52,12.52,0,1,1,12.52,12.52A12.52,12.52,0,0,1,935.81,170"/><path class="cls-13" d="M978,170.13a29.51,29.51,0,1,1-29.52-29.51A29.54,29.54,0,0,1,978,170.13m15.17,0a44.69,44.69,0,1,0-44.69,44.68,44.74,44.74,0,0,0,44.69-44.68"/><path class="cls-13" d="M787.24,229.29V191.85H772.06v37.44a22.72,22.72,0,1,1-45.43,0V191.85H711.45v37.44a37.9,37.9,0,0,0,75.79,0"/><path class="cls-13" d="M736.76,170a12.53,12.53,0,1,1,12.53,12.53A12.53,12.53,0,0,1,736.76,170"/><path class="cls-13" d="M778.94,170.14a29.51,29.51,0,1,1-29.51-29.51,29.55,29.55,0,0,1,29.51,29.51m15.18,0a44.69,44.69,0,1,0-44.69,44.69,44.74,44.74,0,0,0,44.69-44.69"/><path class="cls-13" d="M595.73,229.29V191.85H580.56v37.44a22.72,22.72,0,1,1-45.44,0V191.85H519.94v37.44a37.9,37.9,0,1,0,75.79,0"/><path class="cls-13" d="M545.26,170a12.52,12.52,0,1,1,12.52,12.52A12.51,12.51,0,0,1,545.26,170"/><path class="cls-13" d="M587.43,170.14a29.51,29.51,0,1,1-29.51-29.51,29.54,29.54,0,0,1,29.51,29.51m15.18,0a44.69,44.69,0,1,0-44.69,44.69,44.74,44.74,0,0,0,44.69-44.69"/><path class="cls-13" d="M1179.46,229.29V191.85h-15.18v37.44a22.72,22.72,0,1,1-45.44,0V191.85h-15.18v37.44a37.9,37.9,0,0,0,75.79,0"/><path class="cls-13" d="M1129,170a12.52,12.52,0,1,1,12.52,12.53A12.52,12.52,0,0,1,1129,170"/><path class="cls-13" d="M1171.17,170.14a29.52,29.52,0,1,1-29.52-29.51,29.55,29.55,0,0,1,29.52,29.51m15.17,0a44.69,44.69,0,1,0-44.69,44.69,44.74,44.74,0,0,0,44.69-44.69"/><path class="cls-27" d="M627.47,1379.58H484.32a19.8,19.8,0,0,0-19.84,19.84V1613.7a19.8,19.8,0,0,0,19.84,19.85H627.47a19.79,19.79,0,0,0,19.84-19.85V1399.42A19.79,19.79,0,0,0,627.47,1379.58Zm10.66,222.36a17.81,17.81,0,0,1-17.85,17.85H491.51a17.8,17.8,0,0,1-17.84-17.85V1409.19a17.8,17.8,0,0,1,17.84-17.85H620.28a17.81,17.81,0,0,1,17.85,17.85Z"/><path class="cls-28" d="M823.14,1379.58H680a19.79,19.79,0,0,0-19.84,19.84V1613.7A19.79,19.79,0,0,0,680,1633.55H823.14A19.8,19.8,0,0,0,843,1613.7V1399.42A19.8,19.8,0,0,0,823.14,1379.58Zm10.65,222.36A17.81,17.81,0,0,1,816,1619.79H687.18a17.81,17.81,0,0,1-17.85-17.85V1409.19a17.81,17.81,0,0,1,17.85-17.85H816a17.81,17.81,0,0,1,17.84,17.85Z"/><path class="cls-25" d="M1018.8,1379.58H875.65a19.8,19.8,0,0,0-19.84,19.84V1613.7a19.8,19.8,0,0,0,19.84,19.85H1018.8a19.8,19.8,0,0,0,19.84-19.85V1399.42A19.8,19.8,0,0,0,1018.8,1379.58Zm10.66,222.36a17.81,17.81,0,0,1-17.85,17.85H882.84A17.81,17.81,0,0,1,865,1601.94V1409.19a17.81,17.81,0,0,1,17.85-17.85h128.77a17.81,17.81,0,0,1,17.85,17.85Z"/><path class="cls-26" d="M1214.46,1379.58H1071.31a19.8,19.8,0,0,0-19.84,19.84V1613.7a19.8,19.8,0,0,0,19.84,19.85h143.15a19.8,19.8,0,0,0,19.85-19.85V1399.42A19.8,19.8,0,0,0,1214.46,1379.58Zm10.66,222.36a17.81,17.81,0,0,1-17.85,17.85H1078.5a17.81,17.81,0,0,1-17.84-17.85V1409.19a17.81,17.81,0,0,1,17.84-17.85h128.77a17.81,17.81,0,0,1,17.85,17.85Z"/><path class="cls-13" d="M712.5,1470.39v37.44h15.18v-37.44a22.72,22.72,0,0,1,45.44,0v37.44h15.17v-37.44a37.9,37.9,0,1,0-75.79,0"/><path class="cls-13" d="M763,1529.68a12.52,12.52,0,1,1-12.52-12.53A12.53,12.53,0,0,1,763,1529.68"/><path class="cls-13" d="M720.8,1529.54a29.51,29.51,0,1,1,29.51,29.51,29.55,29.55,0,0,1-29.51-29.51m-15.18,0a44.69,44.69,0,1,0,44.69-44.68,44.74,44.74,0,0,0-44.69,44.68"/><path class="cls-13" d="M911.54,1470.39v37.44h15.18v-37.44a22.72,22.72,0,1,1,45.44,0v37.44h15.18v-37.44a37.9,37.9,0,1,0-75.8,0"/><path class="cls-13" d="M962,1529.68a12.52,12.52,0,1,1-12.52-12.53A12.52,12.52,0,0,1,962,1529.68"/><path class="cls-13" d="M919.85,1529.54a29.51,29.51,0,1,1,29.51,29.51,29.54,29.54,0,0,1-29.51-29.51m-15.18,0a44.69,44.69,0,1,0,44.69-44.69,44.74,44.74,0,0,0-44.69,44.69"/><path class="cls-13" d="M1103.05,1470.39v37.44h15.18v-37.44a22.72,22.72,0,0,1,45.44,0v37.44h15.18v-37.44a37.9,37.9,0,1,0-75.8,0"/><path class="cls-13" d="M1153.53,1529.68a12.52,12.52,0,1,1-12.52-12.53,12.53,12.53,0,0,1,12.52,12.53"/><path class="cls-13" d="M1111.35,1529.54a29.51,29.51,0,1,1,29.51,29.51,29.55,29.55,0,0,1-29.51-29.51m-15.17,0a44.69,44.69,0,1,0,44.68-44.68,44.74,44.74,0,0,0-44.68,44.68"/><path class="cls-13" d="M519.32,1470.39v37.44H534.5v-37.44a22.72,22.72,0,0,1,45.44,0v37.44h15.18v-37.44a37.9,37.9,0,1,0-75.8,0"/><path class="cls-13" d="M569.8,1529.68a12.52,12.52,0,1,1-12.52-12.53,12.52,12.52,0,0,1,12.52,12.53"/><path class="cls-13" d="M527.62,1529.54a29.51,29.51,0,1,1,29.51,29.51,29.55,29.55,0,0,1-29.51-29.51m-15.17,0a44.69,44.69,0,1,0,44.69-44.69,44.74,44.74,0,0,0-44.69,44.69"/><circle class="cls-29" cx="850.39" cy="850.29" r="127.56"/><circle class="cls-30" cx="1146.67" cy="820.4" r="28.35"/><circle class="cls-30" cx="666.24" cy="814.92" r="28.35"/><circle class="cls-30" cx="805.71" cy="664.31" r="28.35"/><circle class="cls-30" cx="1034.95" cy="881.32" r="28.35"/><circle class="cls-30" cx="894.04" cy="1041.59" r="28.35"/><circle class="cls-30" cx="579.68" cy="888.06" r="28.35"/><circle class="cls-30" cx="766.49" cy="488.93" r="28.35"/><circle class="cls-30" cx="884.51" cy="565.16" r="28.35"/></g></svg>