<svg id="Calque_1" data-name="Calque 1" xmlns="http://www.w3.org/2000/svg" viewBox="0 0 290.83 361.96"><defs><style>.cls-1{fill:#302d7e;}.cls-2{fill:#fff;}.cls-3{fill:none;stroke:#000;stroke-width:0.3px;}</style></defs><title>Carte_bleue_verso</title><path class="cls-1" d="M65.53,39.25H225.31a22.09,22.09,0,0,1,22.14,22.14V300.57a22.1,22.1,0,0,1-22.14,22.14H65.53a22.1,22.1,0,0,1-22.15-22.14V61.39A22.09,22.09,0,0,1,65.53,39.25Z"/><path class="cls-2" d="M128.1,214.33l8.16,8.16a9.59,9.59,0,0,0,13.56-13.57l-8.2-8.21s-1.29-1.23.26-2.78l14.18-14.19c1.16-1.16,1.57-1.23,2.39-.89a31.41,31.41,0,1,0-16.52-15.74,1.36,1.36,0,0,1-.28,1.71L96.58,213.89a10.5,10.5,0,0,0-.18,14.85.8.8,0,0,0,.13.13l0,0,.22.22.07.07a9.23,9.23,0,0,0,8.2,2.46,10.75,10.75,0,0,0,3-.86,1.71,1.71,0,0,1,2,.27l4.2,4.08a9.25,9.25,0,0,0,7,2.6,9.59,9.59,0,0,0,6.86-16.37l-4-4s-.88-.84-.1-1.61l1.84-1.84a1.16,1.16,0,0,1,1.88,0Zm55.15-73.41a18.22,18.22,0,0,1-25.61,25.92l-.16-.16a18.22,18.22,0,0,1,25.6-25.92Z"/><line class="cls-3" x1="54" x2="54" y2="36"/><line class="cls-3" y1="54" x2="36" y2="54"/><line class="cls-3" y1="307.96" x2="36" y2="307.96"/><line class="cls-3" x1="54" y1="361.96" x2="54" y2="325.96"/><line class="cls-3" x1="236.83" x2="236.83" y2="36"/><line class="cls-3" x1="290.83" y1="54" x2="254.83" y2="54"/><line class="cls-3" x1="290.83" y1="307.96" x2="254.83" y2="307.96"/><line class="cls-3" x1="236.83" y1="361.96" x2="236.83" y2="325.96"/></svg>