<svg id="Calque_1" data-name="Calque 1" xmlns="http://www.w3.org/2000/svg" viewBox="0 0 290.83 361.96"><defs><style>.cls-1,.cls-8{fill:#f9b233;}.cls-2,.cls-3,.cls-4{fill:#fff;}.cls-3{font-size:19.62px;font-family:TwCenMT-CondensedExtraBold, Tw Cen MT Condensed Extra Bold;font-weight:800;}.cls-4{stroke:#fff;stroke-miterlimit:10;stroke-width:0.25px;}.cls-5{opacity:0.4;}.cls-6{font-size:10px;fill:#000100;font-family:SegoeUI, Segoe UI;}.cls-7{letter-spacing:-0.03em;}.cls-8{font-size:12px;font-family:SegoeUI-Bold, Segoe UI;font-weight:700;}.cls-9{fill:none;stroke:#000;stroke-width:0.3px;}</style></defs><title>Carte_jaune_8</title><rect class="cls-1" x="43.38" y="39.25" width="204.07" height="283.46" rx="22.14"/><path class="cls-2" d="M77.05,95.37h136a17,17,0,0,1,17,17V279.58a17,17,0,0,1-17,17.05h-136a17,17,0,0,1-17-17.05V112.42A17,17,0,0,1,77.05,95.37Z"/><text class="cls-3" transform="translate(88.57 81.21)"><tspan xml:space="preserve">Escape the   ab</tspan></text><path class="cls-4" d="M178.84,63.59l-6.41,0a.81.81,0,0,0-.55.23.82.82,0,0,0-.22.56.78.78,0,0,0,.23.55.82.82,0,0,0,.47.22l.1,13.28a3.28,3.28,0,0,0,3.31,3.26A3.28,3.28,0,0,0,179,78.43l-.1-13.28a.84.84,0,0,0,.47-.23.82.82,0,0,0,.22-.55.79.79,0,0,0-.78-.78Zm.26.78a.24.24,0,0,1-.07.18.27.27,0,0,1-.19.08h-.23l-3.92,0a.27.27,0,0,0-.26.27.26.26,0,0,0,.26.25l3.72,0,.11,13.28a2.79,2.79,0,0,1-.8,2A2.77,2.77,0,0,1,173,78.48l-.1-13.29h.78a.26.26,0,0,0,.25-.26.26.26,0,0,0-.26-.26l-1,0h-.22a.32.32,0,0,1-.19-.07.26.26,0,0,1-.07-.19.24.24,0,0,1,.07-.18.27.27,0,0,1,.18-.08l6.41,0a.26.26,0,0,1,.26.26Z"/><path class="cls-4" d="M177.68,71.48a1,1,0,0,0-.64.22.5.5,0,0,1-.35.13.55.55,0,0,1-.35-.12,1,1,0,0,0-.65-.22,1,1,0,0,0-.64.23.5.5,0,0,1-.35.12.45.45,0,0,1-.35-.12,1,1,0,0,0-.65-.21.24.24,0,0,0-.18.07.27.27,0,0,0-.08.19l0,2.83a.26.26,0,0,0,.26.26.26.26,0,0,0,.26-.26l0-2.51.09.06a1,1,0,0,0,.64.21,1,1,0,0,0,.65-.22.5.5,0,0,1,.35-.13.59.59,0,0,1,.35.12,1,1,0,0,0,.64.22,1,1,0,0,0,.65-.23l.09-.06,0,6.38a1.74,1.74,0,0,1-1.72,1.75A1.75,1.75,0,0,1,174,78.47l0-2.84a.26.26,0,0,0-.26-.25.26.26,0,0,0-.26.26l0,2.83a2.24,2.24,0,0,0,2.26,2.23,2.22,2.22,0,0,0,1.59-.67,2.26,2.26,0,0,0,.65-1.59L178,71.75a.26.26,0,0,0-.25-.27Z"/><path class="cls-4" d="M176.4,67.24a.25.25,0,0,0,.26.26.26.26,0,0,1,.26.26.25.25,0,0,1-.08.18.23.23,0,0,1-.18.08.26.26,0,0,1-.26-.26.26.26,0,0,0-.52,0,.78.78,0,0,0,.79.77.74.74,0,0,0,.54-.23.78.78,0,0,0,.23-.55.79.79,0,0,0-.79-.78.26.26,0,0,0-.25.26Z"/><path class="cls-4" d="M175.24,70.4a.72.72,0,0,0,.22-.55.76.76,0,0,0-.23-.55.72.72,0,0,0-.55-.22.26.26,0,0,0-.26.26.25.25,0,0,0,.26.25.27.27,0,0,1,.19.08.24.24,0,0,1,.07.18.23.23,0,0,1-.07.19.24.24,0,0,1-.18.07.26.26,0,0,1-.19-.07.24.24,0,0,1-.07-.18.27.27,0,0,0-.27-.26.25.25,0,0,0-.25.26.78.78,0,0,0,1.33.54Z"/><g class="cls-5"><path class="cls-1" d="M119.35,165.65a22.72,22.72,0,0,1,45.44,0v37.44H180V165.65a37.9,37.9,0,0,0-75.79,0"/><path class="cls-1" d="M104.18,165.65"/><path class="cls-1" d="M154.65,224.94a12.52,12.52,0,1,1-12.52-12.52,12.51,12.51,0,0,1,12.52,12.52"/><path class="cls-1" d="M112.48,224.81A29.51,29.51,0,1,1,142,254.32a29.55,29.55,0,0,1-29.51-29.51m-15.18,0A44.69,44.69,0,1,0,142,180.12,44.74,44.74,0,0,0,97.3,224.81"/><line class="cls-1" x1="104.18" y1="165.65" x2="119.35" y2="165.65"/></g><text class="cls-6" transform="translate(69.89 133.84)">Quelle est la durée maximale <tspan x="0" y="12">d&apos;embargo admise par le Fonds </tspan><tspan x="0" y="24">national suisse (FNS) avant la </tspan><tspan x="0" y="36">diffusion d’un article qui n’est pas </tspan><tspan x="0" y="48">en Open Access dans une archive </tspan><tspan x="0" y="60">ouverte (&quot;Green </tspan><tspan class="cls-7" x="72.5" y="60">R</tspan><tspan x="78.19" y="60">oad&quot; ) ?</tspan><tspan x="0" y="75">A) 6 mois</tspan><tspan x="0" y="90">B) 12 mois</tspan><tspan x="0" y="105">C) 24 mois</tspan><tspan class="cls-7" x="0" y="129">R</tspan><tspan x="5.69" y="129">éponse : A</tspan><tspan x="0" y="144">Le délai est de 12 mois pour les </tspan><tspan x="0" y="156">livres et les chapitres de livres.</tspan></text><text class="cls-8" transform="translate(100.87 116.03)">Choix multiple</text><line class="cls-9" x1="54" x2="54" y2="36"/><line class="cls-9" y1="54" x2="36" y2="54"/><line class="cls-9" y1="307.96" x2="36" y2="307.96"/><line class="cls-9" x1="54" y1="361.96" x2="54" y2="325.96"/><line class="cls-9" x1="236.83" x2="236.83" y2="36"/><line class="cls-9" x1="290.83" y1="54" x2="254.83" y2="54"/><line class="cls-9" x1="290.83" y1="307.96" x2="254.83" y2="307.96"/><line class="cls-9" x1="236.83" y1="361.96" x2="236.83" y2="325.96"/></svg>