<svg id="Calque_1" data-name="Calque 1" xmlns="http://www.w3.org/2000/svg" viewBox="0 0 290.83 361.96"><defs><style>.cls-1,.cls-9{fill:#f9b233;}.cls-2,.cls-4,.cls-5{fill:#fff;}.cls-3{opacity:0.4;}.cls-4{font-size:19.62px;font-family:TwCenMT-CondensedExtraBold, Tw Cen MT Condensed Extra Bold;font-weight:800;}.cls-5{stroke:#fff;stroke-miterlimit:10;stroke-width:0.25px;}.cls-6{font-size:10px;fill:#000100;font-family:SegoeUI, Segoe UI;}.cls-7{letter-spacing:-0.01em;}.cls-8{letter-spacing:-0.03em;}.cls-9{font-size:12px;font-family:SegoeUI-Bold, Segoe UI;font-weight:700;}.cls-10{fill:none;stroke:#000;stroke-width:0.3px;}</style></defs><title>Carte_jaune_2</title><path class="cls-1" d="M65.53,39.25H225.31a22.09,22.09,0,0,1,22.14,22.14V300.57a22.1,22.1,0,0,1-22.14,22.14H65.53a22.1,22.1,0,0,1-22.15-22.14V61.39A22.09,22.09,0,0,1,65.53,39.25Z"/><path class="cls-2" d="M77.17,94.37h136a17,17,0,0,1,17,17V278.58a17,17,0,0,1-17,17.05h-136a17,17,0,0,1-17-17.05V111.42A17,17,0,0,1,77.17,94.37Z"/><g class="cls-3"><path class="cls-1" d="M119.35,166a22.72,22.72,0,0,1,45.44,0v37.44H180V166a37.9,37.9,0,0,0-75.79,0"/><path class="cls-1" d="M104.18,166"/><path class="cls-1" d="M154.65,225.27a12.52,12.52,0,1,1-12.52-12.53,12.52,12.52,0,0,1,12.52,12.53"/><path class="cls-1" d="M112.48,225.13A29.51,29.51,0,1,1,142,254.64a29.55,29.55,0,0,1-29.51-29.51m-15.18,0A44.69,44.69,0,1,0,142,180.45,44.74,44.74,0,0,0,97.3,225.13"/><line class="cls-1" x1="104.18" y1="165.98" x2="119.35" y2="165.98"/></g><text class="cls-4" transform="translate(87.57 81.75)"><tspan xml:space="preserve">Escape the   ab</tspan></text><path class="cls-5" d="M177.84,64.13l-6.41.05a.76.76,0,0,0-.55.23.82.82,0,0,0-.22.55.75.75,0,0,0,.23.55.77.77,0,0,0,.47.22l.1,13.29a3.29,3.29,0,0,0,5.63,2.28A3.23,3.23,0,0,0,178,79l-.1-13.29a.76.76,0,0,0,.69-.78.78.78,0,0,0-.78-.77Zm.26.78a.29.29,0,0,1-.07.18.27.27,0,0,1-.19.08h-.23l-3.92,0a.26.26,0,0,0-.26.26.26.26,0,0,0,.26.26l3.72,0L177.52,79a2.79,2.79,0,0,1-.8,2A2.77,2.77,0,0,1,172,79l-.1-13.28h.78a.26.26,0,0,0,0-.52h-1.21a.27.27,0,0,1-.19-.08.27.27,0,0,1,0-.36.27.27,0,0,1,.18-.08l6.41,0a.26.26,0,0,1,.26.26Z"/><path class="cls-5" d="M176.68,72a1,1,0,0,0-.64.23.54.54,0,0,1-.7,0,1.05,1.05,0,0,0-.65-.21,1,1,0,0,0-.64.22.5.5,0,0,1-.35.13.5.5,0,0,1-.35-.12,1,1,0,0,0-.65-.22.25.25,0,0,0-.18.08.27.27,0,0,0-.08.19l0,2.83a.26.26,0,0,0,.26.26.27.27,0,0,0,.26-.27l0-2.5.09.06a1,1,0,0,0,.64.21,1,1,0,0,0,.65-.22.5.5,0,0,1,.35-.13.53.53,0,0,1,.35.12,1,1,0,0,0,.64.22,1,1,0,0,0,.65-.23l.09-.06,0,6.38a1.77,1.77,0,0,1-.5,1.23,1.71,1.71,0,0,1-1.22.51A1.73,1.73,0,0,1,173,79l0-2.83a.26.26,0,0,0-.26-.26.27.27,0,0,0-.26.27l0,2.83a2.24,2.24,0,0,0,2.26,2.23,2.22,2.22,0,0,0,1.59-.67A2.26,2.26,0,0,0,177,79l-.06-6.68a.27.27,0,0,0-.24-.28Z"/><path class="cls-5" d="M175.4,67.78a.25.25,0,0,0,.26.26.26.26,0,0,1,.26.26.25.25,0,0,1-.08.18.23.23,0,0,1-.18.08.26.26,0,0,1-.26-.26.26.26,0,1,0-.52,0,.78.78,0,1,0,.77-.79.26.26,0,0,0-.25.26Z"/><path class="cls-5" d="M174.24,70.94a.73.73,0,0,0,.22-.55.75.75,0,0,0-.23-.55.76.76,0,0,0-.55-.23.26.26,0,0,0-.26.26.26.26,0,0,0,.26.26.27.27,0,0,1,.19.08.24.24,0,0,1,.07.18.21.21,0,0,1-.07.18.25.25,0,0,1-.18.08.24.24,0,0,1-.26-.26.27.27,0,0,0-.27-.25.24.24,0,0,0-.25.26.77.77,0,0,0,.78.77.76.76,0,0,0,.55-.23Z"/><text class="cls-6" transform="translate(70.22 136.25)">O<tspan class="cls-7" x="7.54" y="0">R</tspan><tspan x="13.38" y="0">CID est...</tspan><tspan x="0" y="15">A) Une fleur ?</tspan><tspan x="0" y="30">B) Un titre de revue scientifique ?</tspan><tspan x="0" y="45">C) Un identifiant international de </tspan><tspan x="0" y="57">personne ?</tspan><tspan class="cls-8" x="0" y="93">R</tspan><tspan x="5.69" y="93">éponse : C</tspan><tspan x="0" y="108">O</tspan><tspan class="cls-7" x="7.54" y="108">R</tspan><tspan x="13.38" y="108">CID est l&apos;acronyme de : Open </tspan><tspan class="cls-8" x="0" y="120">R</tspan><tspan x="5.69" y="120">esearcher and Contributor </tspan></text><text class="cls-9" transform="translate(100.87 115.82)">Choix multiple</text><line class="cls-10" x1="54" x2="54" y2="36"/><line class="cls-10" y1="54" x2="36" y2="54"/><line class="cls-10" y1="307.96" x2="36" y2="307.96"/><line class="cls-10" x1="54" y1="361.96" x2="54" y2="325.96"/><line class="cls-10" x1="236.83" x2="236.83" y2="36"/><line class="cls-10" x1="290.83" y1="54" x2="254.83" y2="54"/><line class="cls-10" x1="290.83" y1="307.96" x2="254.83" y2="307.96"/><line class="cls-10" x1="236.83" y1="361.96" x2="236.83" y2="325.96"/></svg>