<svg id="Calque_1" data-name="Calque 1" xmlns="http://www.w3.org/2000/svg" viewBox="0 0 290.83 361.96"><defs><style>.cls-1{fill:#f9b233;}.cls-2{fill:#fff;}.cls-3{fill:none;stroke:#000;stroke-width:0.3px;}</style></defs><title>Carte_jaune_verso</title><path class="cls-1" d="M65.53,39.25H225.31a22.09,22.09,0,0,1,22.14,22.14V300.57a22.1,22.1,0,0,1-22.14,22.14H65.53a22.1,22.1,0,0,1-22.15-22.14V61.39A22.09,22.09,0,0,1,65.53,39.25Z"/><path class="cls-2" d="M128.11,214.33l8.16,8.16a9.59,9.59,0,0,0,13.57-13.56l-8.21-8.21s-1.29-1.23.27-2.79l14.18-14.18c1.16-1.16,1.56-1.24,2.39-.9a31.39,31.39,0,1,0-16.53-15.73,1.33,1.33,0,0,1-.28,1.71L96.59,213.9a10.52,10.52,0,0,0-.18,14.85l.13.12,0,0c.07.07.15.14.22.22l.07.07a9.24,9.24,0,0,0,8.21,2.45,11,11,0,0,0,3-.86,1.7,1.7,0,0,1,2,.28l4.2,4.07a9.22,9.22,0,0,0,7,2.61,9.59,9.59,0,0,0,6.86-16.37l-4-4s-.88-.84-.11-1.61l1.84-1.85a1.17,1.17,0,0,1,1.88,0Zm55.15-73.41a18.22,18.22,0,0,1-25.61,25.93l-.16-.17a18.22,18.22,0,0,1,25.61-25.92Z"/><line class="cls-3" x1="54" x2="54" y2="36"/><line class="cls-3" y1="54" x2="36" y2="54"/><line class="cls-3" y1="307.96" x2="36" y2="307.96"/><line class="cls-3" x1="54" y1="361.96" x2="54" y2="325.96"/><line class="cls-3" x1="236.83" x2="236.83" y2="36"/><line class="cls-3" x1="290.83" y1="54" x2="254.83" y2="54"/><line class="cls-3" x1="290.83" y1="307.96" x2="254.83" y2="307.96"/><line class="cls-3" x1="236.83" y1="361.96" x2="236.83" y2="325.96"/></svg>