<svg id="Calque_1" data-name="Calque 1" xmlns="http://www.w3.org/2000/svg" viewBox="0 0 290.83 361.96"><defs><style>.cls-1,.cls-9{fill:#f9b233;}.cls-2,.cls-3,.cls-4{fill:#fff;}.cls-3{font-size:19.62px;font-family:TwCenMT-CondensedExtraBold, Tw Cen MT Condensed Extra Bold;font-weight:800;}.cls-4{stroke:#fff;stroke-miterlimit:10;stroke-width:0.25px;}.cls-5{opacity:0.4;}.cls-6{font-size:10px;fill:#000100;font-family:SegoeUI, Segoe UI;}.cls-7{letter-spacing:-0.03em;}.cls-8{letter-spacing:-0.04em;}.cls-9{font-size:12px;font-family:SegoeUI-Bold, Segoe UI;font-weight:700;}.cls-10{letter-spacing:-0.04em;}.cls-11{letter-spacing:-0.03em;}.cls-12{fill:none;stroke:#000;stroke-width:0.3px;}</style></defs><title>Carte_jaune_6</title><rect class="cls-1" x="43.38" y="39.25" width="204.07" height="283.46" rx="22.14"/><path class="cls-2" d="M77.4,95.37h136a17,17,0,0,1,17,17V279.58a17,17,0,0,1-17,17.05H77.4a17,17,0,0,1-17-17.05V112.42A17,17,0,0,1,77.4,95.37Z"/><text class="cls-3" transform="translate(88.22 80.93)"><tspan xml:space="preserve">Escape the   ab</tspan></text><path class="cls-4" d="M178.49,63.31l-6.41,0a.76.76,0,0,0-.55.23.8.8,0,0,0-.22.55.75.75,0,0,0,.23.55.77.77,0,0,0,.47.22l.1,13.28a3.29,3.29,0,0,0,6.58,0l-.11-13.29a.78.78,0,0,0-.09-1.55Zm.26.78a.24.24,0,0,1-.07.18.27.27,0,0,1-.19.08h-.23l-3.92,0a.26.26,0,0,0,0,.52l3.72,0,.11,13.28a2.77,2.77,0,1,1-5.54,0l-.1-13.28h.78a.26.26,0,0,0,0-.52h-1.21a.27.27,0,0,1-.19-.08.29.29,0,0,1-.07-.18.26.26,0,0,1,.07-.19.26.26,0,0,1,.18-.07l6.41-.05a.26.26,0,0,1,.26.26Z"/><path class="cls-4" d="M177.33,71.19a1,1,0,0,0-.64.23.55.55,0,0,1-.35.13.5.5,0,0,1-.35-.13,1,1,0,0,0-.65-.21,1,1,0,0,0-.64.22.5.5,0,0,1-.35.13.55.55,0,0,1-.35-.12,1,1,0,0,0-.65-.22.27.27,0,0,0-.26.26l0,2.84a.25.25,0,0,0,.26.25.26.26,0,0,0,.26-.26l0-2.5.09,0a1,1,0,0,0,.64.22,1,1,0,0,0,.65-.22.5.5,0,0,1,.35-.13.48.48,0,0,1,.35.12,1,1,0,0,0,.64.21,1,1,0,0,0,.65-.22l.09-.06,0,6.38a1.74,1.74,0,0,1-.5,1.22,1.73,1.73,0,0,1-3-1.2l0-2.83a.26.26,0,0,0-.26-.26.26.26,0,0,0-.26.26l0,2.84a2.24,2.24,0,0,0,2.26,2.23,2.22,2.22,0,0,0,1.59-.67,2.28,2.28,0,0,0,.65-1.6l-.05-6.68a.28.28,0,0,0-.25-.28Z"/><path class="cls-4" d="M176.05,67a.26.26,0,0,0,.26.26.26.26,0,0,1,.26.26.31.31,0,0,1-.07.18.27.27,0,0,1-.19.08.26.26,0,0,1-.26-.26.26.26,0,1,0-.52,0,.79.79,0,0,0,.79.78.84.84,0,0,0,.55-.24.78.78,0,0,0-.57-1.32.26.26,0,0,0-.25.26Z"/><path class="cls-4" d="M174.89,70.12a.74.74,0,0,0,.22-.56.78.78,0,0,0-.23-.55.8.8,0,0,0-.55-.22.26.26,0,0,0-.26.26.26.26,0,0,0,.26.26.32.32,0,0,1,.19.07.26.26,0,0,1,.07.19.21.21,0,0,1-.07.18.25.25,0,0,1-.18.08.27.27,0,0,1-.19-.08.23.23,0,0,1-.07-.18.27.27,0,0,0-.27-.26.27.27,0,0,0-.25.27.77.77,0,0,0,.78.77.81.81,0,0,0,.55-.23Z"/><g class="cls-5"><path class="cls-1" d="M120.67,167.18a22.72,22.72,0,0,1,45.44,0v37.43h15.17V167.18a37.9,37.9,0,1,0-75.79,0"/><path class="cls-1" d="M105.49,167.18"/><path class="cls-1" d="M156,226.46a12.52,12.52,0,1,1-12.52-12.52A12.52,12.52,0,0,1,156,226.46"/><path class="cls-1" d="M113.79,226.33a29.51,29.51,0,1,1,29.51,29.51,29.55,29.55,0,0,1-29.51-29.51m-15.17,0a44.69,44.69,0,1,0,44.68-44.69,44.74,44.74,0,0,0-44.68,44.69"/><line class="cls-1" x1="105.49" y1="167.18" x2="120.67" y2="167.18"/></g><text class="cls-6" transform="translate(70.22 137.72)">Le FNS finance la publication <tspan x="0" y="12">d&apos;articles, d&apos;ouvrages ou de </tspan><tspan x="0" y="24">chapitres en Open Acces (&quot;Gold </tspan><tspan class="cls-7" x="0" y="36">R</tspan><tspan x="5.69" y="36">oad&quot;).</tspan><tspan class="cls-7" x="0" y="72">R</tspan><tspan x="5.69" y="72">éponse : </tspan><tspan class="cls-8" x="45.43" y="72">V</tspan><tspan x="51.27" y="72">rai</tspan><tspan x="0" y="87">Le FNS a renforcé sa politique </tspan><tspan x="0" y="99">Open Access et entend que toutes </tspan><tspan x="0" y="111">les publications issues des projets </tspan><tspan x="0" y="123">qu&apos;il finance soient en accès libre </tspan><tspan x="0" y="135">d&apos;ici à 2020.</tspan></text><text class="cls-9" transform="translate(116.49 116.96)"><tspan class="cls-10">V</tspan><tspan x="7.58" y="0">rai/</tspan><tspan class="cls-11" x="27.54" y="0">F</tspan><tspan x="33.43" y="0">aux</tspan></text><line class="cls-12" x1="54" x2="54" y2="36"/><line class="cls-12" y1="54" x2="36" y2="54"/><line class="cls-12" y1="307.96" x2="36" y2="307.96"/><line class="cls-12" x1="54" y1="361.96" x2="54" y2="325.96"/><line class="cls-12" x1="236.83" x2="236.83" y2="36"/><line class="cls-12" x1="290.83" y1="54" x2="254.83" y2="54"/><line class="cls-12" x1="290.83" y1="307.96" x2="254.83" y2="307.96"/><line class="cls-12" x1="236.83" y1="361.96" x2="236.83" y2="325.96"/></svg>