<svg id="Calque_1" data-name="Calque 1" xmlns="http://www.w3.org/2000/svg" viewBox="0 0 290.83 361.96"><defs><style>.cls-1,.cls-7{fill:#302d7e;}.cls-2,.cls-4,.cls-5{fill:#fff;}.cls-3{opacity:0.2;}.cls-4{font-size:19.62px;font-family:TwCenMT-CondensedExtraBold, Tw Cen MT Condensed Extra Bold;font-weight:800;}.cls-5{stroke:#fff;stroke-miterlimit:10;stroke-width:0.25px;}.cls-6{fill:#000100;}.cls-7{font-size:12px;font-family:SegoeUI-Bold, Segoe UI;font-weight:700;}.cls-8{fill:none;stroke:#000;stroke-width:0.3px;}</style></defs><title>Carte_bleue_26</title><path class="cls-1" d="M65.53,39.25H225.31a22.09,22.09,0,0,1,22.14,22.14V300.57a22.1,22.1,0,0,1-22.14,22.14H65.53a22.1,22.1,0,0,1-22.15-22.14V61.39A22.09,22.09,0,0,1,65.53,39.25Z"/><path class="cls-2" d="M77.17,94.37h136a17,17,0,0,1,17,17V278.58a17,17,0,0,1-17,17.05h-136a17,17,0,0,1-17-17.05V111.42A17,17,0,0,1,77.17,94.37Z"/><g class="cls-3"><path class="cls-1" d="M119.36,165.77a22.72,22.72,0,1,1,45.44,0V203.2H180V165.77a37.9,37.9,0,1,0-75.79,0"/><path class="cls-1" d="M104.19,165.77"/><path class="cls-1" d="M154.66,225.05a12.52,12.52,0,1,1-12.52-12.52,12.51,12.51,0,0,1,12.52,12.52"/><path class="cls-1" d="M112.49,224.92A29.51,29.51,0,1,1,142,254.43a29.55,29.55,0,0,1-29.51-29.51m-15.18,0A44.69,44.69,0,1,0,142,180.23a44.73,44.73,0,0,0-44.69,44.69"/><line class="cls-1" x1="104.19" y1="165.77" x2="119.36" y2="165.77"/></g><text class="cls-4" transform="translate(87.46 81.35)"><tspan xml:space="preserve">Escape the   ab</tspan></text><path class="cls-5" d="M177.72,63.73l-6.4.05a.76.76,0,0,0-.55.23.78.78,0,0,0-.22.56.74.74,0,0,0,.23.54.71.71,0,0,0,.46.22l.11,13.29a3.28,3.28,0,0,0,3.31,3.26,3.28,3.28,0,0,0,3.26-3.31l-.1-13.29a.77.77,0,0,0,.47-.22.82.82,0,0,0,.22-.55.79.79,0,0,0-.79-.78Zm.27.78a.29.29,0,0,1-.07.18.27.27,0,0,1-.19.08h-.23l-3.92,0a.26.26,0,1,0,0,.52l3.72,0,.1,13.28a2.75,2.75,0,0,1-2.74,2.79,2.77,2.77,0,0,1-2.79-2.75l-.11-13.28h.78a.26.26,0,0,0,.26-.26.26.26,0,0,0-.26-.26l-1,0h-.22a.27.27,0,0,1-.19-.08.23.23,0,0,1-.07-.18.24.24,0,0,1,.07-.18.25.25,0,0,1,.18-.08l6.41,0a.26.26,0,0,1,.26.26Z"/><path class="cls-5" d="M176.57,71.61a1.07,1.07,0,0,0-.64.23.54.54,0,0,1-.7,0,1.05,1.05,0,0,0-.65-.21,1,1,0,0,0-.64.22.52.52,0,0,1-.35.13.5.5,0,0,1-.35-.12,1.07,1.07,0,0,0-.65-.22.3.3,0,0,0-.18.08.27.27,0,0,0-.08.19l0,2.83a.27.27,0,0,0,.27.26.25.25,0,0,0,.25-.27v-2.5l.09.06a1,1,0,0,0,.64.21,1.07,1.07,0,0,0,.65-.22.5.5,0,0,1,.35-.13.53.53,0,0,1,.35.12,1,1,0,0,0,.64.22,1,1,0,0,0,.65-.23l.09-.06.05,6.38a1.77,1.77,0,0,1-.5,1.23,1.71,1.71,0,0,1-1.22.51,1.73,1.73,0,0,1-1.75-1.71l0-2.84a.25.25,0,0,0-.26-.25.26.26,0,0,0-.26.26l0,2.83a2.25,2.25,0,0,0,2.27,2.23,2.24,2.24,0,0,0,2.23-2.26l0-6.69a.27.27,0,0,0-.24-.28Z"/><path class="cls-5" d="M175.29,67.38a.25.25,0,0,0,.26.26.26.26,0,0,1,.26.26.25.25,0,0,1-.08.18.23.23,0,0,1-.18.08.26.26,0,0,1-.26-.26.26.26,0,0,0-.52,0,.78.78,0,0,0,.78.77.75.75,0,0,0,.55-.23.78.78,0,0,0-.56-1.33.25.25,0,0,0-.25.26Z"/><path class="cls-5" d="M174.13,70.54a.8.8,0,0,0,.22-.55.75.75,0,0,0-.23-.55.76.76,0,0,0-.55-.23.27.27,0,0,0-.26.27.26.26,0,0,0,.26.25.27.27,0,0,1,.19.08.24.24,0,0,1,.07.18.26.26,0,0,1-.07.19.29.29,0,0,1-.18.07.26.26,0,0,1-.19-.07.27.27,0,0,1-.08-.18.25.25,0,0,0-.26-.26.26.26,0,0,0-.26.26.78.78,0,0,0,.79.77.76.76,0,0,0,.55-.23Z"/><path class="cls-6" d="M75.91,135.73a4.19,4.19,0,0,1-1.94.41,3.13,3.13,0,0,1-2.39-1,3.54,3.54,0,0,1-.9-2.53,3.72,3.72,0,0,1,1-2.71,3.43,3.43,0,0,1,2.56-1,4.19,4.19,0,0,1,1.66.29v.88a3.4,3.4,0,0,0-1.67-.42,2.53,2.53,0,0,0-1.95.8,3.05,3.05,0,0,0-.75,2.16,2.85,2.85,0,0,0,.7,2,2.38,2.38,0,0,0,1.84.76,3.42,3.42,0,0,0,1.83-.47Z"/><path class="cls-6" d="M79.31,136.14a2.31,2.31,0,0,1-1.77-.7,2.61,2.61,0,0,1-.66-1.86,2.72,2.72,0,0,1,.69-2,2.48,2.48,0,0,1,1.86-.7,2.27,2.27,0,0,1,1.75.68,2.78,2.78,0,0,1,.62,1.91,2.69,2.69,0,0,1-.67,1.92A2.38,2.38,0,0,1,79.31,136.14Zm.06-4.56a1.52,1.52,0,0,0-1.22.52,2.17,2.17,0,0,0-.45,1.45,2,2,0,0,0,.46,1.4,1.5,1.5,0,0,0,1.21.52,1.47,1.47,0,0,0,1.2-.51,2.21,2.21,0,0,0,.41-1.43,2.26,2.26,0,0,0-.41-1.44A1.47,1.47,0,0,0,79.37,131.58Z"/><path class="cls-6" d="M90.18,136h-.8v-2.87a2.19,2.19,0,0,0-.25-1.2,1,1,0,0,0-.87-.37,1.08,1.08,0,0,0-.87.47,1.79,1.79,0,0,0-.36,1.12V136h-.8v-3q0-1.47-1.14-1.47a1,1,0,0,0-.86.44,1.83,1.83,0,0,0-.35,1.15V136h-.8v-5h.8v.79h0a1.72,1.72,0,0,1,1.56-.9,1.42,1.42,0,0,1,1.41,1,1.78,1.78,0,0,1,1.66-1c1.1,0,1.65.67,1.65,2Z"/><path class="cls-6" d="M92.52,135.3h0V136h-.8v-7.4h.8v3.28h0a1.89,1.89,0,0,1,1.72-1,1.82,1.82,0,0,1,1.51.67,2.78,2.78,0,0,1,.55,1.8,3.17,3.17,0,0,1-.61,2,2,2,0,0,1-1.67.75A1.63,1.63,0,0,1,92.52,135.3Zm0-2v.7a1.45,1.45,0,0,0,.4,1.05,1.42,1.42,0,0,0,2.16-.12,2.53,2.53,0,0,0,.42-1.55,2,2,0,0,0-.39-1.31,1.3,1.3,0,0,0-1-.47,1.4,1.4,0,0,0-1.12.49A1.78,1.78,0,0,0,92.5,133.28Z"/><path class="cls-6" d="M98,129.75a.53.53,0,0,1-.37-.14.5.5,0,0,1-.15-.37.52.52,0,0,1,.15-.38.5.5,0,0,1,.37-.15.51.51,0,0,1,.37.15.52.52,0,0,1,.15.38.49.49,0,0,1-.15.36A.51.51,0,0,1,98,129.75Zm.39,6.27h-.81v-5h.81Z"/><path class="cls-6" d="M104,133.72h-3.53a1.87,1.87,0,0,0,.44,1.29,1.54,1.54,0,0,0,1.19.46,2.46,2.46,0,0,0,1.55-.56v.75a2.89,2.89,0,0,1-1.74.48,2.13,2.13,0,0,1-1.67-.68,2.8,2.8,0,0,1-.6-1.92,2.73,2.73,0,0,1,.66-1.9,2.12,2.12,0,0,1,1.64-.73,1.9,1.9,0,0,1,1.52.63,2.63,2.63,0,0,1,.54,1.76Zm-.82-.68a1.63,1.63,0,0,0-.34-1.07,1.12,1.12,0,0,0-.91-.39,1.32,1.32,0,0,0-1,.41,1.91,1.91,0,0,0-.49,1Z"/><path class="cls-6" d="M109.38,136h-.8v-2.85q0-1.59-1.17-1.59a1.25,1.25,0,0,0-1,.45,1.68,1.68,0,0,0-.39,1.14V136h-.8v-5h.8v.83h0a1.79,1.79,0,0,1,1.64-.94,1.51,1.51,0,0,1,1.25.53,2.35,2.35,0,0,1,.44,1.53Z"/><path class="cls-6" d="M117.89,136h-.8v-.85h0a2,2,0,0,1-3.22.3,2.75,2.75,0,0,1-.57-1.83,3,3,0,0,1,.63-2,2,2,0,0,1,1.66-.74,1.6,1.6,0,0,1,1.5.81h0v-3.1h.8Zm-.8-2.26V133a1.42,1.42,0,0,0-.4-1,1.32,1.32,0,0,0-1-.42,1.39,1.39,0,0,0-1.16.54,2.33,2.33,0,0,0-.42,1.48,2.13,2.13,0,0,0,.41,1.37,1.43,1.43,0,0,0,2.16,0A1.79,1.79,0,0,0,117.09,133.76Z"/><path class="cls-6" d="M123.53,133.72H120a1.88,1.88,0,0,0,.45,1.29,1.53,1.53,0,0,0,1.18.46,2.49,2.49,0,0,0,1.56-.56v.75a2.9,2.9,0,0,1-1.75.48,2.12,2.12,0,0,1-1.66-.68,3.19,3.19,0,0,1,0-3.82,2.12,2.12,0,0,1,1.65-.73,1.9,1.9,0,0,1,1.52.63,2.68,2.68,0,0,1,.53,1.76Zm-.82-.68a1.57,1.57,0,0,0-.33-1.07,1.14,1.14,0,0,0-.92-.39,1.28,1.28,0,0,0-1,.41,1.84,1.84,0,0,0-.49,1Z"/><path class="cls-6" d="M130.09,131.83a1,1,0,0,0-.61-.16,1,1,0,0,0-.85.49,2.21,2.21,0,0,0-.35,1.31V136h-.8v-5h.8v1h0a1.77,1.77,0,0,1,.53-.82,1.15,1.15,0,0,1,.78-.29,1.48,1.48,0,0,1,.48.06Z"/><path class="cls-6" d="M135,133.72h-3.53a1.83,1.83,0,0,0,.45,1.29,1.52,1.52,0,0,0,1.18.46,2.46,2.46,0,0,0,1.55-.56v.75a2.89,2.89,0,0,1-1.74.48,2.14,2.14,0,0,1-1.67-.68,2.8,2.8,0,0,1-.6-1.92,2.73,2.73,0,0,1,.66-1.9,2.12,2.12,0,0,1,1.64-.73,1.88,1.88,0,0,1,1.52.63,2.63,2.63,0,0,1,.54,1.76Zm-.82-.68a1.63,1.63,0,0,0-.34-1.07,1.12,1.12,0,0,0-.91-.39,1.28,1.28,0,0,0-1,.41,1.78,1.78,0,0,0-.49,1Z"/><path class="cls-6" d="M140.12,131l-2,5h-.79l-1.89-5h.88l1.26,3.64a2.82,2.82,0,0,1,.18.69h0a3.13,3.13,0,0,1,.16-.67l1.32-3.66Z"/><path class="cls-6" d="M145,136h-.8v-.79h0a1.64,1.64,0,0,1-1.54.91c-1.19,0-1.79-.71-1.79-2.13v-3h.8v2.86c0,1.06.4,1.59,1.21,1.59a1.21,1.21,0,0,0,1-.44,1.64,1.64,0,0,0,.38-1.13V131h.8Z"/><path class="cls-6" d="M150.66,133.72h-3.53a1.87,1.87,0,0,0,.44,1.29,1.55,1.55,0,0,0,1.19.46,2.46,2.46,0,0,0,1.55-.56v.75a2.89,2.89,0,0,1-1.74.48,2.13,2.13,0,0,1-1.67-.68,2.8,2.8,0,0,1-.6-1.92,2.73,2.73,0,0,1,.66-1.9,2.12,2.12,0,0,1,1.64-.73,1.9,1.9,0,0,1,1.52.63,2.63,2.63,0,0,1,.54,1.76Zm-.82-.68a1.63,1.63,0,0,0-.34-1.07,1.12,1.12,0,0,0-.91-.39,1.32,1.32,0,0,0-1,.41,1.83,1.83,0,0,0-.48,1Z"/><path class="cls-6" d="M151.56,135.84V135a2.34,2.34,0,0,0,1.44.49c.71,0,1.06-.24,1.06-.71a.64.64,0,0,0-.09-.34.82.82,0,0,0-.25-.24,2,2,0,0,0-.36-.2l-.44-.17c-.22-.09-.42-.18-.59-.27a2.25,2.25,0,0,1-.42-.3,1.14,1.14,0,0,1-.25-.39,1.28,1.28,0,0,1-.09-.5,1.18,1.18,0,0,1,.17-.62,1.53,1.53,0,0,1,.42-.46,2,2,0,0,1,.62-.27,2.76,2.76,0,0,1,.71-.09,2.86,2.86,0,0,1,1.16.22v.81a2.27,2.27,0,0,0-1.27-.36,1.62,1.62,0,0,0-.4,0,.9.9,0,0,0-.31.15.63.63,0,0,0-.21.22.64.64,0,0,0-.07.28.81.81,0,0,0,.07.33.66.66,0,0,0,.21.23,1.69,1.69,0,0,0,.33.19l.45.18c.22.09.42.17.59.26a2,2,0,0,1,.45.3,1.32,1.32,0,0,1,.29.39,1.22,1.22,0,0,1,.1.53,1.32,1.32,0,0,1-.16.64,1.45,1.45,0,0,1-.44.45,2,2,0,0,1-.63.27,3.08,3.08,0,0,1-.75.09A2.85,2.85,0,0,1,151.56,135.84Z"/><path class="cls-6" d="M158.55,135.84V135a2.3,2.3,0,0,0,1.44.49c.7,0,1-.24,1-.71a.64.64,0,0,0-.09-.34.91.91,0,0,0-.24-.24,2.43,2.43,0,0,0-.36-.2l-.45-.17a5.37,5.37,0,0,1-.58-.27,1.74,1.74,0,0,1-.42-.3,1,1,0,0,1-.26-.39,1.28,1.28,0,0,1-.08-.5,1.17,1.17,0,0,1,.16-.62,1.44,1.44,0,0,1,.43-.46,2,2,0,0,1,.61-.27,2.82,2.82,0,0,1,.71-.09,2.86,2.86,0,0,1,1.16.22v.81a2.27,2.27,0,0,0-1.27-.36,1.62,1.62,0,0,0-.4,0,.9.9,0,0,0-.31.15.6.6,0,0,0-.27.5.67.67,0,0,0,.07.33.51.51,0,0,0,.21.23,1.69,1.69,0,0,0,.33.19l.44.18c.22.09.42.17.6.26a2.52,2.52,0,0,1,.45.3,1.28,1.28,0,0,1,.28.39,1.4,1.4,0,0,1-.06,1.17,1.45,1.45,0,0,1-.44.45,2,2,0,0,1-.63.27,3,3,0,0,1-.75.09A2.78,2.78,0,0,1,158.55,135.84Z"/><path class="cls-6" d="M165.18,136.14a2.31,2.31,0,0,1-1.77-.7,2.61,2.61,0,0,1-.66-1.86,2.72,2.72,0,0,1,.69-2,2.48,2.48,0,0,1,1.86-.7,2.29,2.29,0,0,1,1.75.68,2.78,2.78,0,0,1,.62,1.91,2.69,2.69,0,0,1-.67,1.92A2.38,2.38,0,0,1,165.18,136.14Zm.06-4.56a1.52,1.52,0,0,0-1.22.52,2.17,2.17,0,0,0-.45,1.45A2,2,0,0,0,164,135a1.5,1.5,0,0,0,1.21.52,1.43,1.43,0,0,0,1.19-.51,2.16,2.16,0,0,0,.42-1.43,2.21,2.21,0,0,0-.42-1.44A1.43,1.43,0,0,0,165.24,131.58Z"/><path class="cls-6" d="M173.1,136h-.8v-2.85c0-1.06-.39-1.59-1.16-1.59a1.25,1.25,0,0,0-1,.45,1.64,1.64,0,0,0-.4,1.14V136H169v-5h.8v.83h0a1.81,1.81,0,0,1,1.64-.94,1.52,1.52,0,0,1,1.26.53,2.34,2.34,0,0,1,.43,1.53Z"/><path class="cls-6" d="M176.93,136a1.49,1.49,0,0,1-.75.16c-.87,0-1.31-.49-1.31-1.46v-3H174V131h.86V129.8l.8-.26V131h1.26v.69h-1.26v2.81a1.19,1.19,0,0,0,.17.72.7.7,0,0,0,.57.22.85.85,0,0,0,.52-.17Z"/><path class="cls-6" d="M183.35,131.83a1.05,1.05,0,0,0-.61-.16,1,1,0,0,0-.86.49,2.29,2.29,0,0,0-.34,1.31V136h-.8v-5h.8v1h0a1.76,1.76,0,0,1,.52-.82,1.19,1.19,0,0,1,.79-.29,1.48,1.48,0,0,1,.48.06Z"/><path class="cls-6" d="M188.23,133.72H184.7a1.93,1.93,0,0,0,.45,1.29,1.53,1.53,0,0,0,1.18.46,2.47,2.47,0,0,0,1.56-.56v.75a2.9,2.9,0,0,1-1.75.48,2.12,2.12,0,0,1-1.66-.68,2.8,2.8,0,0,1-.61-1.92,2.69,2.69,0,0,1,.67-1.9,2.1,2.1,0,0,1,1.64-.73,1.9,1.9,0,0,1,1.52.63,2.62,2.62,0,0,1,.53,1.76Zm-.82-.68a1.57,1.57,0,0,0-.33-1.07,1.14,1.14,0,0,0-.92-.39,1.32,1.32,0,0,0-1,.41,1.91,1.91,0,0,0-.49,1Zm-.12-4.57L186,130.08h-.62l1.09-1.61Z"/><path class="cls-6" d="M190.27,135.3h0v3h-.8V131h.8v.88h0a1.89,1.89,0,0,1,1.72-1,1.82,1.82,0,0,1,1.51.67,2.78,2.78,0,0,1,.54,1.8,3.11,3.11,0,0,1-.61,2,2,2,0,0,1-1.67.75A1.67,1.67,0,0,1,190.27,135.3Zm0-2v.7a1.45,1.45,0,0,0,.4,1.05,1.42,1.42,0,0,0,2.16-.12,2.53,2.53,0,0,0,.41-1.55,2,2,0,0,0-.38-1.31,1.3,1.3,0,0,0-1.05-.47,1.4,1.4,0,0,0-1.12.49A1.78,1.78,0,0,0,190.25,133.28Z"/><path class="cls-6" d="M199.34,133.72h-3.53a1.88,1.88,0,0,0,.45,1.29,1.53,1.53,0,0,0,1.18.46,2.49,2.49,0,0,0,1.56-.56v.75a2.9,2.9,0,0,1-1.75.48,2.12,2.12,0,0,1-1.66-.68,3.19,3.19,0,0,1,0-3.82,2.12,2.12,0,0,1,1.65-.73,1.9,1.9,0,0,1,1.52.63,2.68,2.68,0,0,1,.53,1.76Zm-.82-.68a1.57,1.57,0,0,0-.33-1.07,1.14,1.14,0,0,0-.92-.39,1.28,1.28,0,0,0-1,.41,1.84,1.84,0,0,0-.49,1Z"/><path class="cls-6" d="M203.16,131.83a1,1,0,0,0-.6-.16,1,1,0,0,0-.86.49,2.21,2.21,0,0,0-.35,1.31V136h-.8v-5h.8v1h0a1.77,1.77,0,0,1,.53-.82,1.15,1.15,0,0,1,.78-.29,1.48,1.48,0,0,1,.48.06Z"/><path class="cls-6" d="M206.35,136a1.49,1.49,0,0,1-.75.16c-.87,0-1.31-.49-1.31-1.46v-3h-.86V131h.86V129.8l.8-.26V131h1.26v.69h-1.26v2.81a1.19,1.19,0,0,0,.17.72.69.69,0,0,0,.57.22.85.85,0,0,0,.52-.17Z"/><path class="cls-6" d="M209.51,136.14a2.31,2.31,0,0,1-1.77-.7,2.61,2.61,0,0,1-.66-1.86,2.72,2.72,0,0,1,.69-2,2.45,2.45,0,0,1,1.86-.7,2.27,2.27,0,0,1,1.74.68,2.73,2.73,0,0,1,.63,1.91,2.7,2.7,0,0,1-.68,1.92A2.36,2.36,0,0,1,209.51,136.14Zm.06-4.56a1.51,1.51,0,0,0-1.22.52,2.17,2.17,0,0,0-.45,1.45,2,2,0,0,0,.45,1.4,1.52,1.52,0,0,0,1.22.52,1.46,1.46,0,0,0,1.19-.51,2.16,2.16,0,0,0,.42-1.43,2.21,2.21,0,0,0-.42-1.44A1.46,1.46,0,0,0,209.57,131.58Z"/><path class="cls-6" d="M215.84,133.55h-2.67v-.63h2.67Z"/><path class="cls-6" d="M73.64,143.83a1,1,0,0,0-.61-.16,1,1,0,0,0-.85.49,2.21,2.21,0,0,0-.35,1.31V148H71v-5h.8v1h0a1.84,1.84,0,0,1,.52-.82,1.19,1.19,0,0,1,.79-.29,1.48,1.48,0,0,1,.48.06Z"/><path class="cls-6" d="M74.92,141.75a.55.55,0,0,1-.37-.14.5.5,0,0,1-.15-.37.52.52,0,0,1,.15-.38.51.51,0,0,1,.37-.15.5.5,0,0,1,.37.15.53.53,0,0,1,.16.38.53.53,0,0,1-.53.51Zm.39,6.27h-.8v-5h.8Z"/><path class="cls-6" d="M81,145.72H77.42a1.83,1.83,0,0,0,.45,1.29,1.52,1.52,0,0,0,1.18.46,2.46,2.46,0,0,0,1.55-.56v.75a2.89,2.89,0,0,1-1.74.48,2.14,2.14,0,0,1-1.67-.68,2.8,2.8,0,0,1-.6-1.92,2.73,2.73,0,0,1,.66-1.9,2.12,2.12,0,0,1,1.64-.73,1.88,1.88,0,0,1,1.52.63A2.63,2.63,0,0,1,81,145.3Zm-.82-.68a1.58,1.58,0,0,0-.34-1.07,1.12,1.12,0,0,0-.91-.39,1.28,1.28,0,0,0-1,.41,1.78,1.78,0,0,0-.49,1ZM80,140.47l-1.28,1.61H78.1l1.09-1.61Z"/><path class="cls-6" d="M86.18,145.72H82.65A1.83,1.83,0,0,0,83.1,147a1.52,1.52,0,0,0,1.18.46,2.46,2.46,0,0,0,1.55-.56v.75a2.89,2.89,0,0,1-1.74.48,2.14,2.14,0,0,1-1.67-.68,2.8,2.8,0,0,1-.6-1.92,2.73,2.73,0,0,1,.66-1.9,2.12,2.12,0,0,1,1.64-.73,1.88,1.88,0,0,1,1.52.63,2.63,2.63,0,0,1,.54,1.76Zm-.82-.68A1.63,1.63,0,0,0,85,144a1.12,1.12,0,0,0-.91-.39,1.28,1.28,0,0,0-1,.41,1.78,1.78,0,0,0-.49,1Z"/><path class="cls-6" d="M87.09,147.84V147a2.3,2.3,0,0,0,1.44.49c.7,0,1-.24,1-.71a.64.64,0,0,0-.09-.34.91.91,0,0,0-.24-.24,3.07,3.07,0,0,0-.36-.2l-.45-.17a5.37,5.37,0,0,1-.58-.27,1.74,1.74,0,0,1-.42-.3,1,1,0,0,1-.26-.39,1.28,1.28,0,0,1-.08-.5,1.17,1.17,0,0,1,.16-.62,1.44,1.44,0,0,1,.43-.46,2,2,0,0,1,.61-.27,2.82,2.82,0,0,1,.71-.09,2.86,2.86,0,0,1,1.16.22v.81a2.27,2.27,0,0,0-1.27-.36,1.62,1.62,0,0,0-.4,0,.9.9,0,0,0-.31.15.6.6,0,0,0-.27.5.67.67,0,0,0,.07.33.51.51,0,0,0,.21.23,1.69,1.69,0,0,0,.33.19l.44.18c.22.09.42.17.6.26a2.52,2.52,0,0,1,.45.3,1.28,1.28,0,0,1,.28.39,1.4,1.4,0,0,1-.06,1.17,1.45,1.45,0,0,1-.44.45,2,2,0,0,1-.63.27,3.08,3.08,0,0,1-.75.09A2.78,2.78,0,0,1,87.09,147.84Z"/><path class="cls-6" d="M98.64,148h-.8v-.85h0a1.84,1.84,0,0,1-1.72,1,1.87,1.87,0,0,1-1.51-.67,2.8,2.8,0,0,1-.56-1.83,3,3,0,0,1,.63-2,2,2,0,0,1,1.66-.74,1.6,1.6,0,0,1,1.5.81h0v-3.1h.8Zm-.8-2.26V145a1.42,1.42,0,0,0-.4-1,1.36,1.36,0,0,0-1-.42,1.37,1.37,0,0,0-1.15.54,2.33,2.33,0,0,0-.42,1.48,2.13,2.13,0,0,0,.4,1.37,1.33,1.33,0,0,0,1.08.5,1.35,1.35,0,0,0,1.09-.49A1.79,1.79,0,0,0,97.84,145.76Z"/><path class="cls-6" d="M103.84,148H103v-.78h0a1.68,1.68,0,0,1-1.54.9,1.61,1.61,0,0,1-1.17-.4,1.36,1.36,0,0,1-.42-1c0-.94.55-1.48,1.65-1.64l1.5-.21c0-.85-.34-1.27-1-1.27a2.41,2.41,0,0,0-1.63.62v-.83a3.12,3.12,0,0,1,1.7-.46c1.17,0,1.76.62,1.76,1.86Zm-.8-2.53-1.21.17a1.84,1.84,0,0,0-.84.28.78.78,0,0,0-.28.7.76.76,0,0,0,.26.59,1,1,0,0,0,.7.24,1.29,1.29,0,0,0,1-.42A1.49,1.49,0,0,0,103,146Z"/><path class="cls-6" d="M109.5,148h-.8v-2.85c0-1.06-.39-1.59-1.16-1.59a1.27,1.27,0,0,0-1,.45,1.68,1.68,0,0,0-.39,1.14V148h-.8v-5h.8v.83h0a1.8,1.8,0,0,1,1.64-.94,1.5,1.5,0,0,1,1.25.53,2.35,2.35,0,0,1,.44,1.53Z"/><path class="cls-6" d="M110.71,147.84V147a2.3,2.3,0,0,0,1.43.49c.71,0,1.06-.24,1.06-.71a.64.64,0,0,0-.09-.34.91.91,0,0,0-.24-.24,2.56,2.56,0,0,0-.37-.2l-.44-.17c-.22-.09-.42-.18-.59-.27a2.25,2.25,0,0,1-.42-.3,1.14,1.14,0,0,1-.25-.39,1.28,1.28,0,0,1-.08-.5,1.17,1.17,0,0,1,.16-.62,1.53,1.53,0,0,1,.42-.46,2,2,0,0,1,.62-.27,2.82,2.82,0,0,1,.71-.09,2.86,2.86,0,0,1,1.16.22v.81a2.27,2.27,0,0,0-1.27-.36,1.62,1.62,0,0,0-.4,0,.9.9,0,0,0-.31.15.6.6,0,0,0-.27.5.67.67,0,0,0,.07.33.55.55,0,0,0,.2.23,2,2,0,0,0,.33.19l.45.18c.22.09.42.17.6.26a2.52,2.52,0,0,1,.45.3,1.48,1.48,0,0,1,.28.39,1.4,1.4,0,0,1-.06,1.17,1.45,1.45,0,0,1-.44.45,2,2,0,0,1-.63.27,3.08,3.08,0,0,1-.75.09A2.78,2.78,0,0,1,110.71,147.84Z"/><path class="cls-6" d="M118.79,148H118v-7.4h.8Z"/><path class="cls-6" d="M124.43,145.72H120.9a1.83,1.83,0,0,0,.45,1.29,1.53,1.53,0,0,0,1.18.46,2.46,2.46,0,0,0,1.55-.56v.75a2.89,2.89,0,0,1-1.74.48,2.1,2.1,0,0,1-1.66-.68,3.19,3.19,0,0,1,0-3.82,2.12,2.12,0,0,1,1.64-.73,1.88,1.88,0,0,1,1.52.63,2.63,2.63,0,0,1,.54,1.76Zm-.82-.68a1.53,1.53,0,0,0-.34-1.07,1.11,1.11,0,0,0-.91-.39,1.28,1.28,0,0,0-1,.41,1.78,1.78,0,0,0-.49,1Z"/><path class="cls-6" d="M128.49,148v-7h1.93q3.71,0,3.7,3.41a3.44,3.44,0,0,1-1,2.61,3.78,3.78,0,0,1-2.75,1Zm.82-6.26v5.52h1a2.94,2.94,0,0,0,2.15-.74,2.75,2.75,0,0,0,.76-2.09c0-1.79-.95-2.69-2.86-2.69Z"/><path class="cls-6" d="M135.8,141.75a.52.52,0,0,1-.36-.14.51.51,0,0,1-.16-.37.53.53,0,0,1,.16-.38.49.49,0,0,1,.36-.15.54.54,0,0,1,.38.15.52.52,0,0,1,.15.38.49.49,0,0,1-.15.36A.54.54,0,0,1,135.8,141.75Zm.39,6.27h-.8v-5h.8Z"/><path class="cls-6" d="M140.42,143.83a1,1,0,0,0-.6-.16,1,1,0,0,0-.86.49,2.21,2.21,0,0,0-.35,1.31V148h-.8v-5h.8v1h0a1.77,1.77,0,0,1,.53-.82,1.15,1.15,0,0,1,.78-.29,1.48,1.48,0,0,1,.48.06Z"/><path class="cls-6" d="M145.31,145.72h-3.53a1.83,1.83,0,0,0,.45,1.29,1.52,1.52,0,0,0,1.18.46,2.46,2.46,0,0,0,1.55-.56v.75a2.89,2.89,0,0,1-1.74.48,2.14,2.14,0,0,1-1.67-.68,2.8,2.8,0,0,1-.6-1.92,2.73,2.73,0,0,1,.66-1.9,2.12,2.12,0,0,1,1.64-.73,1.88,1.88,0,0,1,1.52.63,2.63,2.63,0,0,1,.54,1.76Zm-.82-.68a1.58,1.58,0,0,0-.34-1.07,1.12,1.12,0,0,0-.91-.39,1.28,1.28,0,0,0-1,.41,1.78,1.78,0,0,0-.49,1Z"/><path class="cls-6" d="M149.93,147.79a2.63,2.63,0,0,1-1.37.35,2.26,2.26,0,0,1-1.73-.7,2.53,2.53,0,0,1-.65-1.8,2.72,2.72,0,0,1,.71-2,2.47,2.47,0,0,1,1.89-.75,2.7,2.7,0,0,1,1.16.24V144a2,2,0,0,0-1.19-.39,1.61,1.61,0,0,0-1.26.55,2.08,2.08,0,0,0-.49,1.44,2,2,0,0,0,.46,1.39,1.59,1.59,0,0,0,1.24.51,2,2,0,0,0,1.23-.44Z"/><path class="cls-6" d="M153.46,148a1.49,1.49,0,0,1-.75.16c-.88,0-1.31-.49-1.31-1.46v-3h-.86V143h.86V141.8l.8-.26V143h1.26v.69H152.2v2.81a1.12,1.12,0,0,0,.17.72.69.69,0,0,0,.57.22.85.85,0,0,0,.52-.17Z"/><path class="cls-6" d="M156.62,148.14a2.31,2.31,0,0,1-1.77-.7,2.61,2.61,0,0,1-.66-1.86,2.71,2.71,0,0,1,.68-2,2.48,2.48,0,0,1,1.86-.7,2.27,2.27,0,0,1,1.75.68,2.73,2.73,0,0,1,.63,1.91,2.7,2.7,0,0,1-.68,1.92A2.36,2.36,0,0,1,156.62,148.14Zm.06-4.56a1.53,1.53,0,0,0-1.23.52,2.22,2.22,0,0,0-.44,1.45,2,2,0,0,0,.45,1.4,1.52,1.52,0,0,0,1.22.52,1.46,1.46,0,0,0,1.19-.51,2.16,2.16,0,0,0,.42-1.43,2.21,2.21,0,0,0-.42-1.44A1.46,1.46,0,0,0,156.68,143.58Z"/><path class="cls-6" d="M163,143.83a1.07,1.07,0,0,0-1.46.33,2.21,2.21,0,0,0-.34,1.31V148h-.8v-5h.8v1h0a1.69,1.69,0,0,1,.52-.82,1.17,1.17,0,0,1,.79-.29,1.45,1.45,0,0,1,.47.06Z"/><path class="cls-6" d="M167.84,143l-2.3,5.8c-.41,1-1,1.56-1.73,1.56a1.6,1.6,0,0,1-.52-.07v-.71a1.72,1.72,0,0,0,.48.08,1,1,0,0,0,.9-.72l.4-1-1.95-5H164l1.35,3.85s0,.18.1.38h0c0-.08,0-.2.1-.37L167,143Z"/><path class="cls-6" d="M173.53,148.14a2.31,2.31,0,0,1-1.77-.7,2.61,2.61,0,0,1-.66-1.86,2.72,2.72,0,0,1,.69-2,2.48,2.48,0,0,1,1.86-.7,2.25,2.25,0,0,1,1.74.68,2.73,2.73,0,0,1,.63,1.91,2.69,2.69,0,0,1-.67,1.92A2.39,2.39,0,0,1,173.53,148.14Zm.06-4.56a1.51,1.51,0,0,0-1.22.52,2.17,2.17,0,0,0-.45,1.45,2,2,0,0,0,.45,1.4,1.54,1.54,0,0,0,1.22.52,1.43,1.43,0,0,0,1.19-.51,2.16,2.16,0,0,0,.42-1.43,2.21,2.21,0,0,0-.42-1.44A1.43,1.43,0,0,0,173.59,143.58Z"/><path class="cls-6" d="M179.77,141.32a1.15,1.15,0,0,0-.53-.13c-.56,0-.84.36-.84,1.06V143h1.17v.69H178.4V148h-.8v-4.31h-.85V143h.85v-.81a1.65,1.65,0,0,1,.46-1.24,1.7,1.7,0,0,1,1.71-.37Z"/><path class="cls-6" d="M186.1,148.14a3.11,3.11,0,0,1-2.39-1,3.68,3.68,0,0,1-.89-2.55,3.85,3.85,0,0,1,.91-2.7,3.2,3.2,0,0,1,2.49-1,3,3,0,0,1,2.33,1,3.65,3.65,0,0,1,.89,2.55,3.83,3.83,0,0,1-.91,2.71A3.11,3.11,0,0,1,186.1,148.14Zm.06-6.49a2.23,2.23,0,0,0-1.79.79,3.54,3.54,0,0,0,0,4.17,2.18,2.18,0,0,0,1.75.79,2.32,2.32,0,0,0,1.82-.75,3.07,3.07,0,0,0,.66-2.1,3.28,3.28,0,0,0-.64-2.15A2.23,2.23,0,0,0,186.16,141.65Z"/><path class="cls-6" d="M191.53,147.3h0v3h-.8V143h.8v.88h0a1.89,1.89,0,0,1,1.73-1,1.83,1.83,0,0,1,1.51.67,2.78,2.78,0,0,1,.54,1.8,3.11,3.11,0,0,1-.61,2,2,2,0,0,1-1.67.75A1.67,1.67,0,0,1,191.53,147.3Zm0-2v.7a1.45,1.45,0,0,0,.4,1.05,1.43,1.43,0,0,0,2.17-.12,2.6,2.6,0,0,0,.41-1.55,2,2,0,0,0-.39-1.31,1.27,1.27,0,0,0-1-.47,1.42,1.42,0,0,0-1.13.49A1.78,1.78,0,0,0,191.51,145.28Z"/><path class="cls-6" d="M200.61,145.72h-3.53a1.83,1.83,0,0,0,.45,1.29,1.52,1.52,0,0,0,1.18.46,2.46,2.46,0,0,0,1.55-.56v.75a2.89,2.89,0,0,1-1.74.48,2.13,2.13,0,0,1-1.67-.68,2.8,2.8,0,0,1-.6-1.92,2.73,2.73,0,0,1,.66-1.9,2.12,2.12,0,0,1,1.64-.73,1.9,1.9,0,0,1,1.52.63,2.63,2.63,0,0,1,.54,1.76Zm-.82-.68a1.63,1.63,0,0,0-.34-1.07,1.12,1.12,0,0,0-.91-.39,1.32,1.32,0,0,0-1,.41,1.83,1.83,0,0,0-.48,1Z"/><path class="cls-6" d="M206,148h-.8v-2.85q0-1.59-1.17-1.59a1.25,1.25,0,0,0-1,.45,1.68,1.68,0,0,0-.39,1.14V148h-.8v-5h.8v.83h0a1.8,1.8,0,0,1,1.64-.94,1.51,1.51,0,0,1,1.25.53A2.35,2.35,0,0,1,206,145Z"/><path class="cls-6" d="M76.56,160h-.91l-.74-2h-3l-.7,2h-.91L73,153h.85Zm-1.92-2.7-1.1-3a4.26,4.26,0,0,1-.11-.47h0a2.53,2.53,0,0,1-.11.47l-1.09,3Z"/><path class="cls-6" d="M80.89,159.79a2.61,2.61,0,0,1-1.37.35,2.24,2.24,0,0,1-1.72-.7,2.5,2.5,0,0,1-.66-1.8,2.76,2.76,0,0,1,.71-2,2.47,2.47,0,0,1,1.89-.75,2.67,2.67,0,0,1,1.16.24V156a2,2,0,0,0-1.19-.39,1.61,1.61,0,0,0-1.26.55,2.08,2.08,0,0,0-.49,1.44,2,2,0,0,0,.46,1.39,1.59,1.59,0,0,0,1.24.51,2,2,0,0,0,1.23-.44Z"/><path class="cls-6" d="M85.51,159.79a2.61,2.61,0,0,1-1.37.35,2.22,2.22,0,0,1-1.72-.7,2.5,2.5,0,0,1-.66-1.8,2.76,2.76,0,0,1,.71-2,2.47,2.47,0,0,1,1.89-.75,2.67,2.67,0,0,1,1.16.24V156a2,2,0,0,0-1.19-.39,1.61,1.61,0,0,0-1.26.55,2.08,2.08,0,0,0-.49,1.44A2,2,0,0,0,83,159a1.59,1.59,0,0,0,1.24.51,2,2,0,0,0,1.23-.44Z"/><path class="cls-6" d="M90.74,157.72H87.21a1.83,1.83,0,0,0,.45,1.29,1.52,1.52,0,0,0,1.18.46,2.46,2.46,0,0,0,1.55-.56v.75a2.89,2.89,0,0,1-1.74.48,2.14,2.14,0,0,1-1.67-.68,2.8,2.8,0,0,1-.6-1.92,2.73,2.73,0,0,1,.66-1.9,2.12,2.12,0,0,1,1.64-.73,1.88,1.88,0,0,1,1.52.63,2.63,2.63,0,0,1,.54,1.76Zm-.82-.68a1.58,1.58,0,0,0-.34-1.07,1.12,1.12,0,0,0-.91-.39,1.28,1.28,0,0,0-1,.41,1.78,1.78,0,0,0-.49,1Z"/><path class="cls-6" d="M91.65,159.84V159a2.3,2.3,0,0,0,1.44.49c.7,0,1-.24,1-.71a.64.64,0,0,0-.09-.34.91.91,0,0,0-.24-.24,2.43,2.43,0,0,0-.36-.2l-.45-.17a5.37,5.37,0,0,1-.58-.27,1.74,1.74,0,0,1-.42-.3,1,1,0,0,1-.26-.39,1.5,1.5,0,0,1-.08-.5,1.17,1.17,0,0,1,.16-.62,1.57,1.57,0,0,1,.43-.46,2,2,0,0,1,.61-.27,2.82,2.82,0,0,1,.71-.09,2.86,2.86,0,0,1,1.16.22v.81a2.25,2.25,0,0,0-1.27-.36,1.62,1.62,0,0,0-.4,0,.9.9,0,0,0-.31.15.6.6,0,0,0-.2.22.53.53,0,0,0-.07.28.67.67,0,0,0,.07.33.58.58,0,0,0,.21.23,1.69,1.69,0,0,0,.33.19l.44.18c.22.09.42.17.6.26a2.52,2.52,0,0,1,.45.3,1.28,1.28,0,0,1,.28.39,1.4,1.4,0,0,1-.06,1.17,1.45,1.45,0,0,1-.44.45,2,2,0,0,1-.63.27,3,3,0,0,1-.74.09A2.79,2.79,0,0,1,91.65,159.84Z"/><path class="cls-6" d="M95.89,159.84V159a2.34,2.34,0,0,0,1.44.49c.7,0,1.06-.24,1.06-.71a.64.64,0,0,0-.09-.34,1,1,0,0,0-.25-.24,2,2,0,0,0-.36-.2l-.45-.17c-.22-.09-.41-.18-.58-.27a1.74,1.74,0,0,1-.42-.3,1,1,0,0,1-.25-.39,1.28,1.28,0,0,1-.09-.5,1.17,1.17,0,0,1,.16-.62,1.57,1.57,0,0,1,.43-.46,2,2,0,0,1,.61-.27,2.82,2.82,0,0,1,.71-.09,2.91,2.91,0,0,1,1.17.22v.81a2.27,2.27,0,0,0-1.27-.36,1.7,1.7,0,0,0-.41,0,1,1,0,0,0-.31.15.7.7,0,0,0-.2.22.53.53,0,0,0-.07.28.67.67,0,0,0,.07.33.66.66,0,0,0,.21.23,1.69,1.69,0,0,0,.33.19l.45.18c.22.09.42.17.59.26a2,2,0,0,1,.45.3,1.52,1.52,0,0,1,.29.39,1.39,1.39,0,0,1,.1.53,1.22,1.22,0,0,1-.17.64,1.42,1.42,0,0,1-.43.45,2.22,2.22,0,0,1-.63.27,3.08,3.08,0,0,1-.75.09A2.82,2.82,0,0,1,95.89,159.84Z"/><path class="cls-6" d="M105.07,157.51a3.15,3.15,0,0,1-.52,1.94,1.68,1.68,0,0,1-1.41.69,1.66,1.66,0,0,1-.68-.12v-.81a1.15,1.15,0,0,0,.69.19c.74,0,1.1-.62,1.1-1.88V153h.82Z"/><path class="cls-6" d="M108.83,160.14a2.34,2.34,0,0,1-1.77-.7,2.61,2.61,0,0,1-.66-1.86,2.72,2.72,0,0,1,.69-2,2.48,2.48,0,0,1,1.86-.7,2.27,2.27,0,0,1,1.75.68,2.73,2.73,0,0,1,.62,1.91,2.69,2.69,0,0,1-.67,1.92A2.38,2.38,0,0,1,108.83,160.14Zm.06-4.56a1.52,1.52,0,0,0-1.22.52,2.17,2.17,0,0,0-.45,1.45,2,2,0,0,0,.46,1.4,1.52,1.52,0,0,0,1.21.52,1.47,1.47,0,0,0,1.2-.51,2.16,2.16,0,0,0,.41-1.43,2.21,2.21,0,0,0-.41-1.44A1.47,1.47,0,0,0,108.89,155.58Z"/><path class="cls-6" d="M116.65,160h-.8v-.79h0a1.65,1.65,0,0,1-1.55.91c-1.19,0-1.78-.71-1.78-2.13v-3h.79v2.86c0,1.06.41,1.59,1.21,1.59a1.24,1.24,0,0,0,1-.44,1.64,1.64,0,0,0,.38-1.13V155h.8Z"/><path class="cls-6" d="M120.87,155.83a1,1,0,0,0-.61-.16,1,1,0,0,0-.85.49,2.21,2.21,0,0,0-.35,1.31V160h-.8v-5h.8v1h0a1.77,1.77,0,0,1,.53-.82,1.15,1.15,0,0,1,.78-.29,1.48,1.48,0,0,1,.48.06Z"/><path class="cls-6" d="M125.89,160h-.8v-2.85c0-1.06-.39-1.59-1.16-1.59a1.29,1.29,0,0,0-1,.45,1.68,1.68,0,0,0-.39,1.14V160h-.8v-5h.8v.83h0a1.8,1.8,0,0,1,1.64-.94,1.52,1.52,0,0,1,1.26.53,2.34,2.34,0,0,1,.43,1.53Z"/><path class="cls-6" d="M131,160h-.8v-.78h0a1.68,1.68,0,0,1-1.54.9,1.61,1.61,0,0,1-1.17-.4,1.36,1.36,0,0,1-.42-1c0-.94.55-1.48,1.65-1.64l1.5-.21c0-.85-.35-1.27-1-1.27a2.39,2.39,0,0,0-1.63.62v-.83a3.09,3.09,0,0,1,1.7-.46c1.17,0,1.76.62,1.76,1.86Zm-.8-2.53-1.21.17a1.84,1.84,0,0,0-.84.28.78.78,0,0,0-.28.7.73.73,0,0,0,.26.59,1,1,0,0,0,.69.24,1.29,1.29,0,0,0,1-.42,1.49,1.49,0,0,0,.39-1.06Z"/><path class="cls-6" d="M133.29,160h-.8v-7.4h.8Z"/><path class="cls-6" d="M139.75,161.61H139a6.27,6.27,0,0,1-1.51-4.26A6.53,6.53,0,0,1,139,153h.73a6.55,6.55,0,0,0-1.54,4.32A6.43,6.43,0,0,0,139.75,161.61Z"/><path class="cls-6" d="M147,155l-1.49,5h-.83l-1-3.58a2.79,2.79,0,0,1-.07-.46h0a2.06,2.06,0,0,1-.11.45L142.29,160h-.8L140,155h.84l1,3.76a3.59,3.59,0,0,1,.07.45h0a2.18,2.18,0,0,1,.09-.46l1.15-3.75h.74l1,3.77a3.4,3.4,0,0,1,.08.45h0a2.37,2.37,0,0,1,.09-.45l1-3.77Z"/><path class="cls-6" d="M154.19,155l-1.5,5h-.83l-1-3.58a2.73,2.73,0,0,1-.08-.46h0a2,2,0,0,1-.1.45L149.51,160h-.8l-1.51-5H148l1,3.76a1.77,1.77,0,0,1,.07.45h0a2.18,2.18,0,0,1,.09-.46l1.15-3.75h.73l1,3.77a3.59,3.59,0,0,1,.07.45h0a2.26,2.26,0,0,1,.08-.45l1-3.77Z"/><path class="cls-6" d="M161.42,155l-1.5,5h-.83l-1-3.58A2,2,0,0,1,158,156h0a2,2,0,0,1-.1.45L156.74,160h-.8l-1.52-5h.84l1,3.76a2.37,2.37,0,0,1,.07.45h0a3,3,0,0,1,.08-.46l1.16-3.75h.73l1,3.77a2.29,2.29,0,0,1,.08.45h0a1.71,1.71,0,0,1,.08-.45l1-3.77Z"/><path class="cls-6" d="M162.62,160.13a.51.51,0,0,1-.38-.16.53.53,0,0,1-.16-.39.49.49,0,0,1,.16-.38.52.52,0,0,1,.38-.17.51.51,0,0,1,.39.17.49.49,0,0,1,.16.38.53.53,0,0,1-.16.39A.5.5,0,0,1,162.62,160.13Z"/><path class="cls-6" d="M168.78,160H168v-.85h0a2,2,0,0,1-3.22.3,2.75,2.75,0,0,1-.57-1.83,3,3,0,0,1,.63-2,2,2,0,0,1,1.66-.74,1.6,1.6,0,0,1,1.5.81h0v-3.1h.8Zm-.8-2.26V157a1.42,1.42,0,0,0-.4-1,1.36,1.36,0,0,0-1-.42,1.37,1.37,0,0,0-1.15.54,2.33,2.33,0,0,0-.42,1.48,2.19,2.19,0,0,0,.4,1.37,1.44,1.44,0,0,0,2.17,0A1.79,1.79,0,0,0,168,157.76Z"/><path class="cls-6" d="M172.49,160.14a2.31,2.31,0,0,1-1.77-.7,2.61,2.61,0,0,1-.66-1.86,2.72,2.72,0,0,1,.69-2,2.48,2.48,0,0,1,1.86-.7,2.25,2.25,0,0,1,1.74.68,2.73,2.73,0,0,1,.63,1.91,2.69,2.69,0,0,1-.67,1.92A2.39,2.39,0,0,1,172.49,160.14Zm.06-4.56a1.51,1.51,0,0,0-1.22.52,2.17,2.17,0,0,0-.45,1.45,2,2,0,0,0,.45,1.4,1.54,1.54,0,0,0,1.22.52,1.43,1.43,0,0,0,1.19-.51,2.16,2.16,0,0,0,.42-1.43,2.21,2.21,0,0,0-.42-1.44A1.43,1.43,0,0,0,172.55,155.58Z"/><path class="cls-6" d="M179.84,160H179v-.78h0a1.68,1.68,0,0,1-1.54.9,1.61,1.61,0,0,1-1.17-.4,1.36,1.36,0,0,1-.42-1c0-.94.55-1.48,1.65-1.64l1.5-.21c0-.85-.34-1.27-1-1.27a2.41,2.41,0,0,0-1.63.62v-.83a3.12,3.12,0,0,1,1.7-.46c1.17,0,1.76.62,1.76,1.86Zm-.8-2.53-1.21.17a1.84,1.84,0,0,0-.84.28.78.78,0,0,0-.28.7.76.76,0,0,0,.26.59,1,1,0,0,0,.7.24,1.29,1.29,0,0,0,1-.42A1.49,1.49,0,0,0,179,158Z"/><path class="cls-6" d="M182.15,159.81a3.14,3.14,0,0,1-.5,1.9,1.67,1.67,0,0,1-1.41.67,1.61,1.61,0,0,1-.67-.16v-.75a1.29,1.29,0,0,0,.68.22c.73,0,1.1-.58,1.1-1.74V155h.8Zm-.39-6.06a.53.53,0,0,1-.37-.14.5.5,0,0,1-.15-.37.52.52,0,0,1,.15-.38.53.53,0,0,1,.74,0,.49.49,0,0,1,.16.38.46.46,0,0,1-.16.36A.5.5,0,0,1,181.76,153.75Z"/><path class="cls-6" d="M184.05,160.13a.53.53,0,0,1-.39-.16.56.56,0,0,1-.15-.39.52.52,0,0,1,.15-.38.53.53,0,0,1,.78,0,.49.49,0,0,1,.16.38.55.55,0,0,1-.55.55Z"/><path class="cls-6" d="M188,160.14a2.31,2.31,0,0,1-1.77-.7,2.61,2.61,0,0,1-.66-1.86,2.76,2.76,0,0,1,.68-2,2.49,2.49,0,0,1,1.87-.7,2.27,2.27,0,0,1,1.74.68,2.73,2.73,0,0,1,.63,1.91,2.7,2.7,0,0,1-.68,1.92A2.36,2.36,0,0,1,188,160.14Zm.06-4.56a1.51,1.51,0,0,0-1.22.52,2.17,2.17,0,0,0-.45,1.45,2,2,0,0,0,.45,1.4,1.52,1.52,0,0,0,1.22.52,1.46,1.46,0,0,0,1.19-.51,2.16,2.16,0,0,0,.42-1.43,2.21,2.21,0,0,0-.42-1.44A1.46,1.46,0,0,0,188.09,155.58Z"/><path class="cls-6" d="M194.41,155.83a1.05,1.05,0,0,0-.61-.16,1,1,0,0,0-.86.49,2.21,2.21,0,0,0-.34,1.31V160h-.8v-5h.8v1h0a1.76,1.76,0,0,1,.52-.82,1.17,1.17,0,0,1,.79-.29,1.56,1.56,0,0,1,.48.06Z"/><path class="cls-6" d="M199.54,159.62c0,1.84-.88,2.76-2.63,2.76a3.66,3.66,0,0,1-1.63-.35v-.81a3.28,3.28,0,0,0,1.62.47c1.23,0,1.84-.65,1.84-2v-.55h0a2,2,0,0,1-3.22.29,2.65,2.65,0,0,1-.57-1.79,3.09,3.09,0,0,1,.62-2,2,2,0,0,1,1.67-.75,1.62,1.62,0,0,1,1.5.81h0V155h.8Zm-.8-1.86V157a1.45,1.45,0,0,0-.4-1,1.34,1.34,0,0,0-1-.42,1.39,1.39,0,0,0-1.16.54,2.4,2.4,0,0,0-.42,1.51,2.08,2.08,0,0,0,.41,1.34,1.29,1.29,0,0,0,1.06.5,1.4,1.4,0,0,0,1.1-.48A1.8,1.8,0,0,0,198.74,157.76Z"/><path class="cls-6" d="M201.18,161.61h-.71a6.42,6.42,0,0,0,1.52-4.27,6.6,6.6,0,0,0-1.53-4.32h.72a6.44,6.44,0,0,1,1.53,4.33A6.19,6.19,0,0,1,201.18,161.61Z"/><path class="cls-6" d="M207.74,158.08a3,3,0,0,1-.07-.33,1.87,1.87,0,0,1,0-.4,1.2,1.2,0,0,1,.13-.57,2.24,2.24,0,0,1,.31-.47c.12-.14.26-.28.4-.42s.28-.27.41-.41a2.45,2.45,0,0,0,.31-.43,1.1,1.1,0,0,0,.12-.51.91.91,0,0,0-.09-.41.89.89,0,0,0-.24-.3,1.18,1.18,0,0,0-.37-.19,1.49,1.49,0,0,0-.43-.06,1.9,1.9,0,0,0-1.43.65v-.86a2.89,2.89,0,0,1,1.55-.47,2.56,2.56,0,0,1,.69.1,1.86,1.86,0,0,1,.58.29,1.53,1.53,0,0,1,.39.48,1.6,1.6,0,0,1,.14.67,1.51,1.51,0,0,1-.13.65,2.14,2.14,0,0,1-.32.52,5.77,5.77,0,0,1-.42.44c-.15.14-.28.27-.41.41a1.8,1.8,0,0,0-.32.42.91.91,0,0,0-.13.48,1.7,1.7,0,0,0,0,.41,2.68,2.68,0,0,0,.11.31Zm.44,2a.52.52,0,0,1-.38-.16.53.53,0,0,1,0-.76.54.54,0,0,1,.77,0,.53.53,0,0,1,0,.76A.54.54,0,0,1,208.18,160.11Z"/><path class="cls-6" d="M76.56,175h-.91l-.74-2h-3l-.7,2h-.91L73,168h.85Zm-1.92-2.7-1.1-3a4.26,4.26,0,0,1-.11-.47h0a2.53,2.53,0,0,1-.11.47l-1.09,3Z"/><path class="cls-6" d="M77.5,176.61h-.71a6.47,6.47,0,0,0,1.52-4.27A6.6,6.6,0,0,0,76.78,168h.72A6.44,6.44,0,0,1,79,172.35,6.19,6.19,0,0,1,77.5,176.61Z"/><path class="cls-6" d="M88.26,171.36a1.77,1.77,0,0,1-.39,1.12,1.27,1.27,0,0,1-1,.39,2.38,2.38,0,0,1-1.29-.53,1.49,1.49,0,0,0-.78-.32c-.45,0-.69.28-.71.85h-.66a1.67,1.67,0,0,1,.39-1.1,1.25,1.25,0,0,1,1-.41,2.06,2.06,0,0,1,1.15.43,2.09,2.09,0,0,0,1,.44.57.57,0,0,0,.48-.24,1.1,1.1,0,0,0,.19-.63Z"/><path class="cls-6" d="M95.78,169.86a1.56,1.56,0,0,0-.1-.56,1.07,1.07,0,0,0-.28-.4,1,1,0,0,0-.4-.24,1.7,1.7,0,0,0-.51-.08,1.43,1.43,0,0,0-.46.07,2.35,2.35,0,0,0-.44.17,3.62,3.62,0,0,0-.41.27,3,3,0,0,0-.37.35v-.86a2.33,2.33,0,0,1,.76-.5,2.59,2.59,0,0,1,1-.18,2.52,2.52,0,0,1,.79.13,1.75,1.75,0,0,1,.64.36,1.67,1.67,0,0,1,.42.59,2.09,2.09,0,0,1,.15.81,2.86,2.86,0,0,1-.09.75,2.47,2.47,0,0,1-.29.64,3.55,3.55,0,0,1-.49.57,7,7,0,0,1-.68.55l-.82.6a3.92,3.92,0,0,0-.5.47,1.38,1.38,0,0,0-.27.43,1.61,1.61,0,0,0-.07.51h3.48V175H92.54v-.34a2.66,2.66,0,0,1,.1-.79,1.88,1.88,0,0,1,.32-.65,3.75,3.75,0,0,1,.59-.62c.24-.2.54-.44.89-.69a5.3,5.3,0,0,0,.64-.53,2.54,2.54,0,0,0,.41-.49,1.87,1.87,0,0,0,.22-.51A1.9,1.9,0,0,0,95.78,169.86Z"/><path class="cls-6" d="M102.38,171.49a6.62,6.62,0,0,1-.16,1.56,3.89,3.89,0,0,1-.46,1.15,2,2,0,0,1-.74.7,2,2,0,0,1-1,.25,1.85,1.85,0,0,1-.94-.24,1.92,1.92,0,0,1-.69-.67,3.27,3.27,0,0,1-.43-1.09,6.7,6.7,0,0,1-.15-1.49A7.84,7.84,0,0,1,98,170a4.15,4.15,0,0,1,.45-1.18,2.09,2.09,0,0,1,.74-.71,2,2,0,0,1,1-.25C101.65,167.9,102.38,169.1,102.38,171.49Zm-.82.08c0-2-.47-3-1.42-3s-1.5,1-1.5,3,.49,2.84,1.47,2.84S101.56,173.5,101.56,171.57Z"/><path class="cls-6" d="M107.77,171.49a6.62,6.62,0,0,1-.16,1.56,3.64,3.64,0,0,1-.46,1.15,2,2,0,0,1-.73.7,2.09,2.09,0,0,1-1,.25,1.85,1.85,0,0,1-.94-.24,1.92,1.92,0,0,1-.69-.67,3.27,3.27,0,0,1-.43-1.09,6.7,6.7,0,0,1-.15-1.49,7.84,7.84,0,0,1,.15-1.62,3.88,3.88,0,0,1,.46-1.18,2,2,0,0,1,.73-.71,2,2,0,0,1,1-.25C107,167.9,107.77,169.1,107.77,171.49Zm-.82.08c0-2-.47-3-1.42-3s-1.5,1-1.5,3,.49,2.84,1.47,2.84S107,173.5,107,171.57Z"/><path class="cls-6" d="M71.14,190v-7h2a2.14,2.14,0,0,1,1.44.45,1.4,1.4,0,0,1,.53,1.15,1.67,1.67,0,0,1-1.21,1.66v0a1.83,1.83,0,0,1,1.14.54,1.65,1.65,0,0,1,.42,1.17,1.83,1.83,0,0,1-.64,1.46,2.42,2.42,0,0,1-1.63.55Zm.82-6.26V186h.84a1.58,1.58,0,0,0,1.06-.32,1.12,1.12,0,0,0,.38-.92c0-.68-.44-1-1.34-1Zm0,3v2.52h1.11a1.65,1.65,0,0,0,1.12-.34,1.16,1.16,0,0,0,.4-.94c0-.83-.56-1.24-1.69-1.24Z"/><path class="cls-6" d="M76.78,191.61h-.71a6.42,6.42,0,0,0,1.52-4.27A6.6,6.6,0,0,0,76.06,183h.72a6.44,6.44,0,0,1,1.53,4.33A6.19,6.19,0,0,1,76.78,191.61Z"/><path class="cls-6" d="M87.54,186.36a1.71,1.71,0,0,1-.39,1.12,1.27,1.27,0,0,1-1,.39,2.38,2.38,0,0,1-1.29-.53,1.49,1.49,0,0,0-.78-.32c-.45,0-.69.28-.71.85h-.66a1.72,1.72,0,0,1,.39-1.1,1.25,1.25,0,0,1,1-.41,2.06,2.06,0,0,1,1.15.43,2.09,2.09,0,0,0,1,.44.57.57,0,0,0,.48-.24,1,1,0,0,0,.19-.63Z"/><path class="cls-6" d="M94.83,190H94V184a2.76,2.76,0,0,1-.28.22,3.55,3.55,0,0,1-.4.23,4.91,4.91,0,0,1-.46.22,3.49,3.49,0,0,1-.49.16V184a3.44,3.44,0,0,0,.56-.2,6.11,6.11,0,0,0,.58-.27c.19-.11.37-.21.54-.33a3.36,3.36,0,0,0,.44-.33h.31Z"/><path class="cls-6" d="M98.19,183v2.18h-.71V183Z"/><path class="cls-6" d="M102.75,184.86a1.34,1.34,0,0,0-.1-.56,1.17,1.17,0,0,0-.27-.4,1.06,1.06,0,0,0-.41-.24,1.7,1.7,0,0,0-.51-.08,1.47,1.47,0,0,0-.46.07,2.26,2.26,0,0,0-.43.17,2.9,2.9,0,0,0-.41.27,2,2,0,0,0-.37.35v-.86a2.19,2.19,0,0,1,.75-.5,2.76,2.76,0,0,1,1.82-.05,1.79,1.79,0,0,1,.63.36,1.67,1.67,0,0,1,.42.59,2.09,2.09,0,0,1,.16.81,2.84,2.84,0,0,1-.1.75,2.18,2.18,0,0,1-.29.64,4,4,0,0,1-.48.57,8.76,8.76,0,0,1-.69.55l-.81.6a3.48,3.48,0,0,0-.51.47,1.38,1.38,0,0,0-.27.43,1.61,1.61,0,0,0-.07.51h3.48V190H99.51v-.34a3,3,0,0,1,.1-.79,2.07,2.07,0,0,1,.32-.65,3.75,3.75,0,0,1,.59-.62c.24-.2.54-.44.89-.69a5.46,5.46,0,0,0,.64-.53,2.54,2.54,0,0,0,.41-.49,1.61,1.61,0,0,0,.22-.51A1.9,1.9,0,0,0,102.75,184.86Z"/><path class="cls-6" d="M109.35,186.49a6.62,6.62,0,0,1-.16,1.56,3.64,3.64,0,0,1-.46,1.15,2,2,0,0,1-.73.7,2.06,2.06,0,0,1-1,.25,1.85,1.85,0,0,1-.94-.24,2,2,0,0,1-.69-.67,3.5,3.5,0,0,1-.43-1.09,6.7,6.7,0,0,1-.15-1.49A7.17,7.17,0,0,1,105,185a3.63,3.63,0,0,1,.45-1.18,2,2,0,0,1,.74-.71,2,2,0,0,1,1-.25C108.62,182.9,109.35,184.1,109.35,186.49Zm-.82.08c0-2-.47-3-1.42-3s-1.5,1-1.5,3,.49,2.84,1.47,2.84S108.53,188.5,108.53,186.57Z"/><path class="cls-6" d="M114.74,186.49a6.62,6.62,0,0,1-.16,1.56,3.89,3.89,0,0,1-.45,1.15,2.14,2.14,0,0,1-.74.7,2,2,0,0,1-1,.25,1.85,1.85,0,0,1-.94-.24,2,2,0,0,1-.69-.67,3.5,3.5,0,0,1-.43-1.09,6.7,6.7,0,0,1-.15-1.49,7.17,7.17,0,0,1,.16-1.62,3.63,3.63,0,0,1,.45-1.18,2,2,0,0,1,.74-.71,2,2,0,0,1,1-.25C114,182.9,114.74,184.1,114.74,186.49Zm-.82.08c0-2-.47-3-1.42-3s-1.5,1-1.5,3,.49,2.84,1.47,2.84S113.92,188.5,113.92,186.57Z"/><path class="cls-6" d="M75.91,204.73a4.19,4.19,0,0,1-1.94.41,3.13,3.13,0,0,1-2.39-1,3.54,3.54,0,0,1-.9-2.53,3.72,3.72,0,0,1,1-2.71,3.43,3.43,0,0,1,2.56-1,4.19,4.19,0,0,1,1.66.29v.88a3.4,3.4,0,0,0-1.67-.42,2.53,2.53,0,0,0-1.95.8,3.05,3.05,0,0,0-.75,2.16,2.85,2.85,0,0,0,.7,2,2.38,2.38,0,0,0,1.84.76,3.42,3.42,0,0,0,1.83-.47Z"/><path class="cls-6" d="M77.24,206.61h-.71a6.42,6.42,0,0,0,1.52-4.27A6.6,6.6,0,0,0,76.52,198h.72a6.44,6.44,0,0,1,1.53,4.33A6.19,6.19,0,0,1,77.24,206.61Z"/><path class="cls-6" d="M88,201.36a1.71,1.71,0,0,1-.39,1.12,1.27,1.27,0,0,1-1,.39,2.38,2.38,0,0,1-1.29-.53,1.49,1.49,0,0,0-.78-.32c-.45,0-.69.28-.71.85h-.66a1.72,1.72,0,0,1,.39-1.1,1.25,1.25,0,0,1,1-.41,2.06,2.06,0,0,1,1.15.43,2.09,2.09,0,0,0,1,.44.57.57,0,0,0,.48-.24,1.1,1.1,0,0,0,.19-.63Z"/><path class="cls-6" d="M95.28,205h-.8V199a1.78,1.78,0,0,1-.27.22c-.12.08-.25.15-.4.23l-.47.22a3,3,0,0,1-.48.16V199a3.44,3.44,0,0,0,.56-.2,6.11,6.11,0,0,0,.58-.27c.19-.11.37-.21.54-.33a3.36,3.36,0,0,0,.44-.33h.3Z"/><path class="cls-6" d="M100.91,199.86a1.34,1.34,0,0,0-.1-.56,1.17,1.17,0,0,0-.27-.4,1.14,1.14,0,0,0-.41-.24,1.7,1.7,0,0,0-.51-.08,1.43,1.43,0,0,0-.46.07,2.65,2.65,0,0,0-.44.17,4.81,4.81,0,0,0-.41.27,2.38,2.38,0,0,0-.36.35v-.86a2.19,2.19,0,0,1,.75-.5,2.59,2.59,0,0,1,1-.18,2.47,2.47,0,0,1,.79.13,1.75,1.75,0,0,1,.64.36,1.67,1.67,0,0,1,.42.59,2.09,2.09,0,0,1,.16.81,2.84,2.84,0,0,1-.1.75,2.18,2.18,0,0,1-.29.64,4,4,0,0,1-.48.57,8.76,8.76,0,0,1-.69.55l-.82.6a3.92,3.92,0,0,0-.5.47,1.38,1.38,0,0,0-.27.43,1.61,1.61,0,0,0-.07.51H102V205H97.67v-.34a3,3,0,0,1,.1-.79,2.07,2.07,0,0,1,.32-.65,3.75,3.75,0,0,1,.59-.62c.24-.2.54-.44.89-.69a5.46,5.46,0,0,0,.64-.53,2.54,2.54,0,0,0,.41-.49,1.61,1.61,0,0,0,.22-.51A1.9,1.9,0,0,0,100.91,199.86Z"/><path class="cls-6" d="M104,198v2.18h-.7V198Z"/><path class="cls-6" d="M109.81,201.49a6.62,6.62,0,0,1-.16,1.56,3.64,3.64,0,0,1-.46,1.15,2,2,0,0,1-.73.7,2.09,2.09,0,0,1-1,.25,1.85,1.85,0,0,1-.94-.24,2,2,0,0,1-.69-.67,3.27,3.27,0,0,1-.43-1.09,6.7,6.7,0,0,1-.15-1.49,7.84,7.84,0,0,1,.15-1.62,3.88,3.88,0,0,1,.46-1.18,1.94,1.94,0,0,1,.74-.71,2,2,0,0,1,1-.25C109.08,197.9,109.81,199.1,109.81,201.49Zm-.82.08c0-2-.47-3-1.42-3s-1.5,1-1.5,3,.49,2.84,1.47,2.84S109,203.5,109,201.57Z"/><path class="cls-6" d="M115.2,201.49a6.62,6.62,0,0,1-.16,1.56,3.64,3.64,0,0,1-.46,1.15,2,2,0,0,1-.73.7,2.09,2.09,0,0,1-1,.25,1.85,1.85,0,0,1-.94-.24,2,2,0,0,1-.69-.67,3.5,3.5,0,0,1-.43-1.09,6.7,6.7,0,0,1-.15-1.49,7.17,7.17,0,0,1,.16-1.62,3.63,3.63,0,0,1,.45-1.18,2,2,0,0,1,.74-.71,2,2,0,0,1,1-.25C114.47,197.9,115.2,199.1,115.2,201.49Zm-.82.08c0-2-.47-3-1.42-3s-1.5,1-1.5,3,.49,2.84,1.47,2.84S114.38,203.5,114.38,201.57Z"/><path class="cls-6" d="M120.59,201.49a6.62,6.62,0,0,1-.16,1.56,3.64,3.64,0,0,1-.46,1.15,2,2,0,0,1-.73.7,2.06,2.06,0,0,1-1,.25,1.85,1.85,0,0,1-.94-.24,2,2,0,0,1-.69-.67,3.5,3.5,0,0,1-.43-1.09,6.7,6.7,0,0,1-.15-1.49,7.17,7.17,0,0,1,.16-1.62,3.63,3.63,0,0,1,.45-1.18,2,2,0,0,1,.74-.71,2,2,0,0,1,1-.25C119.86,197.9,120.59,199.1,120.59,201.49Zm-.82.08c0-2-.47-3-1.42-3s-1.5,1-1.5,3,.49,2.84,1.47,2.84S119.77,203.5,119.77,201.57Z"/><path class="cls-6" d="M76.16,229h-1l-1.17-2a5.49,5.49,0,0,0-.31-.47,2.27,2.27,0,0,0-.31-.31,1.24,1.24,0,0,0-.34-.18,1.37,1.37,0,0,0-.42-.06H72v3h-.82v-7h2.09a2.86,2.86,0,0,1,.85.12,1.72,1.72,0,0,1,.67.35,1.62,1.62,0,0,1,.45.58,2,2,0,0,1,.16.82,2.09,2.09,0,0,1-.11.67,1.81,1.81,0,0,1-.31.54,1.94,1.94,0,0,1-.49.41,2.6,2.6,0,0,1-.64.26v0a1.49,1.49,0,0,1,.3.18,1.41,1.41,0,0,1,.25.24,2.78,2.78,0,0,1,.23.31c.08.11.16.25.26.4ZM72,222.76v2.54h1.11a1.7,1.7,0,0,0,.57-.09,1.13,1.13,0,0,0,.45-.27,1.08,1.08,0,0,0,.3-.42,1.48,1.48,0,0,0,.11-.57,1.1,1.1,0,0,0-.36-.87,1.6,1.6,0,0,0-1.06-.32Z"/><path class="cls-6" d="M80.74,226.72H77.21a1.83,1.83,0,0,0,.45,1.29,1.52,1.52,0,0,0,1.18.46,2.46,2.46,0,0,0,1.55-.56v.75a2.89,2.89,0,0,1-1.74.48,2.14,2.14,0,0,1-1.67-.68,2.81,2.81,0,0,1-.6-1.92,2.73,2.73,0,0,1,.66-1.9,2.12,2.12,0,0,1,1.64-.73,1.88,1.88,0,0,1,1.52.63,2.63,2.63,0,0,1,.54,1.76Zm-.82-.68a1.58,1.58,0,0,0-.34-1.07,1.12,1.12,0,0,0-.91-.39,1.25,1.25,0,0,0-1,.41,1.75,1.75,0,0,0-.49,1Zm-.13-4.57-1.28,1.61h-.62L79,221.47Z"/><path class="cls-6" d="M82.77,228.3h0v3H82V224h.8v.88h0a1.89,1.89,0,0,1,1.73-1,1.83,1.83,0,0,1,1.51.67,2.78,2.78,0,0,1,.54,1.8,3.11,3.11,0,0,1-.61,2,2,2,0,0,1-1.67.75A1.67,1.67,0,0,1,82.77,228.3Zm0-2v.7a1.49,1.49,0,0,0,.4,1.05,1.43,1.43,0,0,0,2.17-.12,2.6,2.6,0,0,0,.41-1.55,2,2,0,0,0-.39-1.31,1.27,1.27,0,0,0-1-.47,1.39,1.39,0,0,0-1.12.49A1.74,1.74,0,0,0,82.75,226.28Z"/><path class="cls-6" d="M89.92,229.14a2.31,2.31,0,0,1-1.77-.7,2.61,2.61,0,0,1-.66-1.86,2.72,2.72,0,0,1,.69-2,2.45,2.45,0,0,1,1.86-.7,2.27,2.27,0,0,1,1.74.68,2.73,2.73,0,0,1,.63,1.91,2.7,2.7,0,0,1-.68,1.92A2.36,2.36,0,0,1,89.92,229.14Zm.06-4.56a1.51,1.51,0,0,0-1.22.52,2.17,2.17,0,0,0-.45,1.45,2,2,0,0,0,.45,1.4,1.52,1.52,0,0,0,1.22.52,1.46,1.46,0,0,0,1.19-.51,2.16,2.16,0,0,0,.42-1.43,2.21,2.21,0,0,0-.42-1.44A1.46,1.46,0,0,0,90,224.58Z"/><path class="cls-6" d="M97.84,229H97v-2.85c0-1.06-.39-1.59-1.16-1.59a1.27,1.27,0,0,0-1,.45,1.68,1.68,0,0,0-.39,1.14V229h-.8v-5h.8v.83h0a1.8,1.8,0,0,1,1.64-.94,1.5,1.5,0,0,1,1.25.53,2.35,2.35,0,0,1,.44,1.53Z"/><path class="cls-6" d="M99,228.84V228a2.35,2.35,0,0,0,1.45.49c.7,0,1.05-.24,1.05-.71a.64.64,0,0,0-.09-.34.91.91,0,0,0-.24-.24,2.56,2.56,0,0,0-.37-.2l-.44-.17c-.22-.09-.42-.18-.59-.27a2.25,2.25,0,0,1-.42-.3,1.24,1.24,0,0,1-.25-.39,1.28,1.28,0,0,1-.09-.5,1.18,1.18,0,0,1,.17-.62,1.44,1.44,0,0,1,.43-.46,1.89,1.89,0,0,1,.61-.27,2.76,2.76,0,0,1,.71-.09,2.86,2.86,0,0,1,1.16.22v.81a2.27,2.27,0,0,0-1.27-.36,1.62,1.62,0,0,0-.4,0,.75.75,0,0,0-.31.15.53.53,0,0,0-.2.22.54.54,0,0,0-.08.28.67.67,0,0,0,.08.33.55.55,0,0,0,.2.23,1.52,1.52,0,0,0,.34.19l.44.18a5.68,5.68,0,0,1,.6.26,2.12,2.12,0,0,1,.44.3,1.32,1.32,0,0,1,.29.39,1.4,1.4,0,0,1-.06,1.17,1.45,1.45,0,0,1-.44.45,2,2,0,0,1-.63.27,3.08,3.08,0,0,1-.75.09A2.85,2.85,0,0,1,99,228.84Z"/><path class="cls-6" d="M107.61,226.72h-3.53a1.83,1.83,0,0,0,.45,1.29,1.52,1.52,0,0,0,1.18.46,2.46,2.46,0,0,0,1.55-.56v.75a2.89,2.89,0,0,1-1.74.48,2.14,2.14,0,0,1-1.67-.68,2.81,2.81,0,0,1-.6-1.92,2.73,2.73,0,0,1,.66-1.9,2.12,2.12,0,0,1,1.64-.73,1.88,1.88,0,0,1,1.52.63,2.63,2.63,0,0,1,.54,1.76Zm-.82-.68a1.58,1.58,0,0,0-.34-1.07,1.12,1.12,0,0,0-.91-.39,1.25,1.25,0,0,0-1,.41,1.75,1.75,0,0,0-.49,1Z"/><path class="cls-6" d="M111.84,225a.53.53,0,0,1-.39-.16.56.56,0,0,1-.15-.39.54.54,0,0,1,.15-.38.58.58,0,0,1,.78,0,.51.51,0,0,1,.16.38.55.55,0,0,1-.55.55Zm0,4.13a.53.53,0,0,1-.39-.16.56.56,0,0,1-.15-.39.52.52,0,0,1,.15-.38.53.53,0,0,1,.78,0,.49.49,0,0,1,.16.38.55.55,0,0,1-.55.55Z"/><path class="cls-6" d="M121.34,228.73a4.14,4.14,0,0,1-1.93.41,3.13,3.13,0,0,1-2.4-1,3.54,3.54,0,0,1-.9-2.53,3.69,3.69,0,0,1,1-2.71,3.41,3.41,0,0,1,2.56-1,4.17,4.17,0,0,1,1.65.29v.88a3.36,3.36,0,0,0-1.66-.42,2.55,2.55,0,0,0-2,.8,3.05,3.05,0,0,0-.75,2.16,2.85,2.85,0,0,0,.71,2,2.34,2.34,0,0,0,1.83.76,3.39,3.39,0,0,0,1.83-.47Z"/><text class="cls-7" transform="translate(99.97 115.82)">Choix multiple</text><line class="cls-8" x1="54" x2="54" y2="36"/><line class="cls-8" y1="54" x2="36" y2="54"/><line class="cls-8" y1="307.96" x2="36" y2="307.96"/><line class="cls-8" x1="54" y1="361.96" x2="54" y2="325.96"/><line class="cls-8" x1="236.83" x2="236.83" y2="36"/><line class="cls-8" x1="290.83" y1="54" x2="254.83" y2="54"/><line class="cls-8" x1="290.83" y1="307.96" x2="254.83" y2="307.96"/><line class="cls-8" x1="236.83" y1="361.96" x2="236.83" y2="325.96"/></svg>