<svg id="Calque_1" data-name="Calque 1" xmlns="http://www.w3.org/2000/svg" viewBox="0 0 290.83 361.96"><defs><style>.cls-1,.cls-7{fill:#e20717;}.cls-2,.cls-3,.cls-4{fill:#fff;}.cls-3{font-size:19.62px;font-family:TwCenMT-CondensedExtraBold, Tw Cen MT Condensed Extra Bold;font-weight:800;}.cls-4{stroke:#fff;stroke-miterlimit:10;stroke-width:0.25px;}.cls-5{opacity:0.2;}.cls-6{fill:#000100;}.cls-7{font-size:12px;font-family:SegoeUI-Bold, Segoe UI;font-weight:700;}.cls-8{fill:none;stroke:#000;stroke-width:0.3px;}</style></defs><title>Carte_rouge_42</title><rect class="cls-1" x="43.38" y="39.25" width="204.07" height="283.46" rx="22.14"/><path class="cls-2" d="M77.4,95.37h136a17,17,0,0,1,17,17V279.58a17,17,0,0,1-17,17.05H77.4a17,17,0,0,1-17-17.05V112.42A17,17,0,0,1,77.4,95.37Z"/><text class="cls-3" transform="translate(88.34 80.93)"><tspan xml:space="preserve">Escape the   ab</tspan></text><path class="cls-4" d="M178.61,63.31l-6.41,0a.76.76,0,0,0-.55.23.8.8,0,0,0-.22.55.75.75,0,0,0,.23.55.77.77,0,0,0,.47.22l.1,13.28a3.29,3.29,0,0,0,6.58,0l-.1-13.29a.78.78,0,0,0-.1-1.55Zm.26.78a.24.24,0,0,1-.07.18.27.27,0,0,1-.18.08h-.24l-3.92,0a.26.26,0,1,0,0,.52l3.73,0,.1,13.28a2.77,2.77,0,1,1-5.54,0l-.1-13.28h.78a.25.25,0,0,0,.25-.26.26.26,0,0,0-.26-.26h-1.21a.27.27,0,0,1-.26-.26A.32.32,0,0,1,172,64a.26.26,0,0,1,.19-.07l6.4-.05a.26.26,0,0,1,.26.26Z"/><path class="cls-4" d="M177.46,71.19a1,1,0,0,0-.65.23.55.55,0,0,1-.35.13.54.54,0,0,1-.35-.13,1,1,0,0,0-.65-.21,1,1,0,0,0-.64.22.5.5,0,0,1-.35.13.57.57,0,0,1-.35-.12,1,1,0,0,0-.65-.22.27.27,0,0,0-.18.08.24.24,0,0,0-.07.18l0,2.84a.26.26,0,0,0,.52,0l0-2.5.09,0a1,1,0,0,0,.65.22,1,1,0,0,0,.64-.22.5.5,0,0,1,.35-.13.45.45,0,0,1,.35.12,1,1,0,0,0,.65.21,1,1,0,0,0,.64-.22l.09-.06.05,6.38a1.74,1.74,0,0,1-1.72,1.74,1.72,1.72,0,0,1-1.74-1.72l0-2.83a.27.27,0,0,0-.27-.26.25.25,0,0,0-.25.26l0,2.84a2.24,2.24,0,0,0,2.26,2.23,2.2,2.2,0,0,0,1.59-.67,2.28,2.28,0,0,0,.65-1.6l-.05-6.68a.27.27,0,0,0-.25-.28Z"/><path class="cls-4" d="M176.17,67a.26.26,0,0,0,.26.26.26.26,0,0,1,.19.44.27.27,0,0,1-.19.08.26.26,0,0,1-.26-.26.26.26,0,1,0-.52,0,.8.8,0,0,0,.79.78A.82.82,0,0,0,177,68a.78.78,0,0,0-.56-1.32.26.26,0,0,0-.26.26Z"/><path class="cls-4" d="M175,70.12a.79.79,0,0,0,.23-.56A.84.84,0,0,0,175,69a.78.78,0,0,0-.55-.22.26.26,0,0,0-.26.26.26.26,0,0,0,.27.26.31.31,0,0,1,.18.07.27.27,0,0,1,.08.19.27.27,0,0,1-.26.26.27.27,0,0,1-.19-.08.27.27,0,0,1-.07-.18.26.26,0,1,0-.52,0,.77.77,0,0,0,.78.77.79.79,0,0,0,.55-.23Z"/><g class="cls-5"><path class="cls-1" d="M120.79,167.18a22.72,22.72,0,0,1,45.44,0v37.43h15.18V167.18a37.9,37.9,0,1,0-75.79,0"/><path class="cls-1" d="M105.62,167.18"/><path class="cls-1" d="M156.09,226.46a12.52,12.52,0,1,1-12.52-12.52,12.51,12.51,0,0,1,12.52,12.52"/><path class="cls-1" d="M113.92,226.33a29.51,29.51,0,1,1,29.5,29.51,29.54,29.54,0,0,1-29.5-29.51m-15.18,0a44.69,44.69,0,1,0,44.68-44.69,44.74,44.74,0,0,0-44.68,44.69"/><line class="cls-1" x1="105.62" y1="167.18" x2="120.79" y2="167.18"/></g><path class="cls-6" d="M73,137.69a3.12,3.12,0,0,1-2.39-1,3.69,3.69,0,0,1-.89-2.56,3.86,3.86,0,0,1,.91-2.69,3.22,3.22,0,0,1,2.49-1,3,3,0,0,1,2.33,1A3.6,3.6,0,0,1,76.3,134a3.85,3.85,0,0,1-.91,2.71,2.22,2.22,0,0,1-.46.41l2,1.41H75.41l-1.32-1A4,4,0,0,1,73,137.69Zm.06-6.5a2.25,2.25,0,0,0-1.79.8,3.54,3.54,0,0,0,0,4.17A2.18,2.18,0,0,0,73,137a2.3,2.3,0,0,0,1.82-.75,3.1,3.1,0,0,0,.66-2.11A3.18,3.18,0,0,0,74.8,132,2.2,2.2,0,0,0,73,131.19Z"/><path class="cls-6" d="M81.61,137.57h-.8v-.79h0a1.65,1.65,0,0,1-1.54.91c-1.19,0-1.79-.71-1.79-2.13v-3h.8v2.86c0,1.06.4,1.58,1.21,1.58a1.24,1.24,0,0,0,1-.43,1.65,1.65,0,0,0,.37-1.13v-2.88h.8Z"/><path class="cls-6" d="M87.25,135.27H83.72a1.83,1.83,0,0,0,.45,1.29,1.54,1.54,0,0,0,1.18.45,2.45,2.45,0,0,0,1.55-.55v.75a2.89,2.89,0,0,1-1.74.48,2.14,2.14,0,0,1-1.67-.68,2.83,2.83,0,0,1-.6-1.92,2.73,2.73,0,0,1,.66-1.9,2.12,2.12,0,0,1,1.64-.74,1.86,1.86,0,0,1,1.52.64,2.63,2.63,0,0,1,.54,1.76Zm-.82-.68a1.62,1.62,0,0,0-.34-1.08,1.12,1.12,0,0,0-.91-.38,1.28,1.28,0,0,0-1,.4,1.78,1.78,0,0,0-.49,1.06Z"/><path class="cls-6" d="M89.26,137.57h-.8v-7.4h.8Z"/><path class="cls-6" d="M91.68,137.57h-.8v-7.4h.8Z"/><path class="cls-6" d="M97.32,135.27H93.79a1.88,1.88,0,0,0,.45,1.29,1.56,1.56,0,0,0,1.18.45,2.48,2.48,0,0,0,1.56-.55v.75a2.9,2.9,0,0,1-1.75.48,2.12,2.12,0,0,1-1.66-.68,2.78,2.78,0,0,1-.61-1.92,2.73,2.73,0,0,1,.66-1.9,2.13,2.13,0,0,1,1.65-.74,1.87,1.87,0,0,1,1.52.64,2.68,2.68,0,0,1,.53,1.76Zm-.82-.68a1.62,1.62,0,0,0-.33-1.08,1.14,1.14,0,0,0-.92-.38,1.28,1.28,0,0,0-1,.4,1.84,1.84,0,0,0-.49,1.06Z"/><path class="cls-6" d="M101.68,131.3a.49.49,0,0,1-.36-.15.48.48,0,0,1-.15-.37.5.5,0,0,1,.15-.37.49.49,0,0,1,.36-.15.54.54,0,0,1,.38.15.53.53,0,0,1,0,.74A.54.54,0,0,1,101.68,131.3Zm.39,6.27h-.8v-5h.8Z"/><path class="cls-6" d="M107.84,137.57H107v-2.85c0-1.06-.38-1.59-1.16-1.59a1.25,1.25,0,0,0-1,.45,1.68,1.68,0,0,0-.39,1.14v2.85h-.81v-5h.81v.83h0a1.82,1.82,0,0,1,1.65-1,1.54,1.54,0,0,1,1.25.53,2.36,2.36,0,0,1,.43,1.53Z"/><path class="cls-6" d="M111.82,130.87a1,1,0,0,0-.53-.13c-.56,0-.84.35-.84,1.06v.77h1.17v.68h-1.17v4.32h-.79v-4.32h-.86v-.68h.86v-.81a1.67,1.67,0,0,1,.45-1.24,1.7,1.7,0,0,1,1.71-.37Z"/><path class="cls-6" d="M115.09,133.38a1,1,0,0,0-.6-.16,1,1,0,0,0-.86.48,2.22,2.22,0,0,0-.35,1.32v2.55h-.8v-5h.8v1h0a1.72,1.72,0,0,1,.53-.82,1.16,1.16,0,0,1,.78-.3,1.22,1.22,0,0,1,.48.07Z"/><path class="cls-6" d="M119.54,137.57h-.8v-.78h0a1.68,1.68,0,0,1-1.54.9,1.66,1.66,0,0,1-1.17-.4,1.36,1.36,0,0,1-.42-1c0-.93.55-1.48,1.65-1.63l1.5-.21c0-.85-.35-1.27-1-1.27a2.45,2.45,0,0,0-1.63.61v-.82a3.1,3.1,0,0,1,1.7-.47c1.17,0,1.76.62,1.76,1.87Zm-.8-2.53-1.21.17a2,2,0,0,0-.84.27.79.79,0,0,0-.28.7.76.76,0,0,0,.26.6,1,1,0,0,0,.7.23,1.31,1.31,0,0,0,1-.41,1.51,1.51,0,0,0,.39-1.06Z"/><path class="cls-6" d="M120.75,137.39v-.86a2.35,2.35,0,0,0,1.44.48c.7,0,1-.23,1-.7a.62.62,0,0,0-.09-.34,1.12,1.12,0,0,0-.24-.25,2.55,2.55,0,0,0-.37-.19l-.44-.18c-.22-.09-.42-.17-.59-.26a1.9,1.9,0,0,1-.42-.31,1.19,1.19,0,0,1-.25-.38,1.28,1.28,0,0,1-.08-.5,1.21,1.21,0,0,1,.16-.63,1.32,1.32,0,0,1,.43-.45,2.14,2.14,0,0,1,.61-.28,2.76,2.76,0,0,1,.71-.09,2.86,2.86,0,0,1,1.16.23v.81a2.27,2.27,0,0,0-1.27-.36,1.25,1.25,0,0,0-.4.05.89.89,0,0,0-.31.14.6.6,0,0,0-.27.51.67.67,0,0,0,.07.33.7.7,0,0,0,.2.23,1.79,1.79,0,0,0,.34.19l.44.18a5.68,5.68,0,0,1,.6.26,2.12,2.12,0,0,1,.44.3,1.11,1.11,0,0,1,.29.39,1.21,1.21,0,0,1,.1.52,1.25,1.25,0,0,1-.16.65,1.45,1.45,0,0,1-.44.45,2,2,0,0,1-.63.27,3.08,3.08,0,0,1-.75.09A2.78,2.78,0,0,1,120.75,137.39Z"/><path class="cls-6" d="M127.61,137.52a1.61,1.61,0,0,1-.75.16c-.87,0-1.31-.49-1.31-1.47v-3h-.86v-.68h.86v-1.22l.8-.26v1.48h1.26v.68h-1.26v2.82a1.21,1.21,0,0,0,.17.72.7.7,0,0,0,.57.21.85.85,0,0,0,.52-.16Z"/><path class="cls-6" d="M131.29,133.38a1,1,0,0,0-.61-.16,1,1,0,0,0-.86.48,2.3,2.3,0,0,0-.34,1.32v2.55h-.8v-5h.8v1h0a1.71,1.71,0,0,1,.52-.82,1.2,1.2,0,0,1,.79-.3,1.22,1.22,0,0,1,.48.07Z"/><path class="cls-6" d="M136.2,137.57h-.8v-.79h0a1.66,1.66,0,0,1-1.54.91c-1.2,0-1.79-.71-1.79-2.13v-3h.79v2.86c0,1.06.41,1.58,1.22,1.58a1.21,1.21,0,0,0,1-.43,1.66,1.66,0,0,0,.38-1.13v-2.88h.8Z"/><path class="cls-6" d="M141.22,137.34a2.6,2.6,0,0,1-1.36.35,2.28,2.28,0,0,1-1.73-.7,2.5,2.5,0,0,1-.66-1.8,2.78,2.78,0,0,1,.71-2,2.47,2.47,0,0,1,1.89-.75,2.51,2.51,0,0,1,1.16.25v.82a2,2,0,0,0-1.19-.39,1.61,1.61,0,0,0-1.26.55,2.09,2.09,0,0,0-.49,1.44,2,2,0,0,0,.47,1.38A1.57,1.57,0,0,0,140,137a2,2,0,0,0,1.23-.43Z"/><path class="cls-6" d="M144.75,137.52a1.53,1.53,0,0,1-.74.16q-1.32,0-1.32-1.47v-3h-.86v-.68h.86v-1.22l.8-.26v1.48h1.26v.68h-1.26v2.82a1.13,1.13,0,0,0,.18.72.68.68,0,0,0,.56.21.83.83,0,0,0,.52-.16Z"/><path class="cls-6" d="M149.87,137.57h-.8v-.79h0a1.67,1.67,0,0,1-1.55.91c-1.19,0-1.78-.71-1.78-2.13v-3h.79v2.86c0,1.06.41,1.58,1.21,1.58a1.24,1.24,0,0,0,1-.43,1.66,1.66,0,0,0,.38-1.13v-2.88h.8Z"/><path class="cls-6" d="M154.09,133.38a1,1,0,0,0-.61-.16,1,1,0,0,0-.85.48,2.22,2.22,0,0,0-.35,1.32v2.55h-.8v-5h.8v1h0a1.72,1.72,0,0,1,.53-.82,1.16,1.16,0,0,1,.78-.3,1.22,1.22,0,0,1,.48.07Z"/><path class="cls-6" d="M159,135.27h-3.53a1.83,1.83,0,0,0,.45,1.29,1.54,1.54,0,0,0,1.18.45,2.45,2.45,0,0,0,1.55-.55v.75a2.89,2.89,0,0,1-1.74.48,2.14,2.14,0,0,1-1.67-.68,2.83,2.83,0,0,1-.6-1.92,2.73,2.73,0,0,1,.66-1.9,2.12,2.12,0,0,1,1.64-.74,1.86,1.86,0,0,1,1.52.64,2.63,2.63,0,0,1,.54,1.76Zm-.82-.68a1.68,1.68,0,0,0-.34-1.08,1.12,1.12,0,0,0-.91-.38,1.28,1.28,0,0,0-1,.4,1.78,1.78,0,0,0-.49,1.06Z"/><path class="cls-6" d="M163.75,136.85h0v3h-.8v-7.3h.8v.88h0a2,2,0,0,1,3.24-.33,2.8,2.8,0,0,1,.54,1.8,3.13,3.13,0,0,1-.61,2,2,2,0,0,1-1.67.76A1.67,1.67,0,0,1,163.75,136.85Zm0-2v.7a1.48,1.48,0,0,0,.4,1.05,1.33,1.33,0,0,0,1,.43,1.36,1.36,0,0,0,1.15-.55,2.62,2.62,0,0,0,.41-1.55,2,2,0,0,0-.39-1.31,1.26,1.26,0,0,0-1-.47,1.44,1.44,0,0,0-1.13.48A1.81,1.81,0,0,0,163.73,134.83Z"/><path class="cls-6" d="M171.41,133.38a1,1,0,0,0-.6-.16,1,1,0,0,0-.86.48,2.23,2.23,0,0,0-.34,1.32v2.55h-.8v-5h.8v1h0a1.71,1.71,0,0,1,.52-.82,1.31,1.31,0,0,1,1.26-.23Z"/><path class="cls-6" d="M174.37,137.69a2.34,2.34,0,0,1-1.77-.7,2.61,2.61,0,0,1-.66-1.86,2.7,2.7,0,0,1,.69-2,2.49,2.49,0,0,1,1.86-.71,2.25,2.25,0,0,1,1.75.69,2.78,2.78,0,0,1,.62,1.91,2.69,2.69,0,0,1-.67,1.92A2.38,2.38,0,0,1,174.37,137.69Zm.06-4.56a1.52,1.52,0,0,0-1.22.52,2.15,2.15,0,0,0-.45,1.45,2,2,0,0,0,.46,1.4,1.53,1.53,0,0,0,1.21.51,1.46,1.46,0,0,0,1.2-.5,2.23,2.23,0,0,0,.41-1.43,2.28,2.28,0,0,0-.41-1.45A1.49,1.49,0,0,0,174.43,133.13Z"/><path class="cls-6" d="M179,136.85h0v3h-.8v-7.3h.8v.88h0a1.89,1.89,0,0,1,1.73-1,1.85,1.85,0,0,1,1.51.67,2.8,2.8,0,0,1,.54,1.8,3.07,3.07,0,0,1-.61,2,2,2,0,0,1-1.67.76A1.67,1.67,0,0,1,179,136.85Zm0-2v.7a1.49,1.49,0,0,0,.41,1.05,1.33,1.33,0,0,0,1,.43,1.35,1.35,0,0,0,1.14-.55,2.62,2.62,0,0,0,.41-1.55,2.06,2.06,0,0,0-.38-1.31,1.27,1.27,0,0,0-1-.47,1.42,1.42,0,0,0-1.12.48A1.82,1.82,0,0,0,178.94,134.83Z"/><path class="cls-6" d="M186.11,137.69a2.34,2.34,0,0,1-1.77-.7,2.61,2.61,0,0,1-.66-1.86,2.7,2.7,0,0,1,.69-2,2.49,2.49,0,0,1,1.86-.71,2.22,2.22,0,0,1,1.74.69,2.73,2.73,0,0,1,.63,1.91,2.69,2.69,0,0,1-.67,1.92A2.39,2.39,0,0,1,186.11,137.69Zm.06-4.56a1.52,1.52,0,0,0-1.22.52,2.15,2.15,0,0,0-.45,1.45,2,2,0,0,0,.45,1.4,1.56,1.56,0,0,0,1.22.51,1.43,1.43,0,0,0,1.19-.5,2.18,2.18,0,0,0,.42-1.43,2.22,2.22,0,0,0-.42-1.45A1.46,1.46,0,0,0,186.17,133.13Z"/><path class="cls-6" d="M189.58,137.39v-.86A2.35,2.35,0,0,0,191,137c.7,0,1-.23,1-.7A.62.62,0,0,0,192,136a1.12,1.12,0,0,0-.24-.25,2,2,0,0,0-.36-.19l-.45-.18a5.47,5.47,0,0,1-.58-.26,1.53,1.53,0,0,1-.42-.31,1.08,1.08,0,0,1-.26-.38,1.5,1.5,0,0,1-.08-.5,1.21,1.21,0,0,1,.16-.63,1.42,1.42,0,0,1,.43-.45,2.28,2.28,0,0,1,.61-.28,2.82,2.82,0,0,1,.71-.09,2.86,2.86,0,0,1,1.16.23v.81a2.25,2.25,0,0,0-1.27-.36,1.29,1.29,0,0,0-.4.05,1,1,0,0,0-.31.14.69.69,0,0,0-.2.22.59.59,0,0,0-.07.29.67.67,0,0,0,.07.33.9.9,0,0,0,.21.23,1.69,1.69,0,0,0,.33.19l.44.18a5.68,5.68,0,0,1,.6.26,2.52,2.52,0,0,1,.45.3,1.08,1.08,0,0,1,.28.39,1.21,1.21,0,0,1,.1.52,1.25,1.25,0,0,1-.16.65,1.35,1.35,0,0,1-.44.45,2,2,0,0,1-.63.27,2.94,2.94,0,0,1-.74.09A2.82,2.82,0,0,1,189.58,137.39Z"/><path class="cls-6" d="M198.14,135.27h-3.53a1.93,1.93,0,0,0,.45,1.29,1.56,1.56,0,0,0,1.18.45,2.48,2.48,0,0,0,1.56-.55v.75a2.9,2.9,0,0,1-1.75.48,2.12,2.12,0,0,1-1.66-.68,2.78,2.78,0,0,1-.61-1.92,2.73,2.73,0,0,1,.66-1.9,2.13,2.13,0,0,1,1.65-.74,1.87,1.87,0,0,1,1.52.64,2.68,2.68,0,0,1,.53,1.76Zm-.82-.68a1.62,1.62,0,0,0-.33-1.08,1.14,1.14,0,0,0-.92-.38,1.28,1.28,0,0,0-1,.4,1.84,1.84,0,0,0-.49,1.06Z"/><path class="cls-6" d="M70.83,149.57H70v-7.4h.8Z"/><path class="cls-6" d="M73.15,142.57v2.18h-.71v-2.18Z"/><path class="cls-6" d="M80,146.74c0,2-.88,2.95-2.66,2.95s-2.55-.95-2.55-2.84v-4.28h.82v4.23c0,1.43.61,2.15,1.82,2.15s1.75-.69,1.75-2.08v-4.3H80Z"/><path class="cls-6" d="M85.77,149.57H85v-2.85c0-1.06-.38-1.59-1.16-1.59a1.25,1.25,0,0,0-1,.45,1.68,1.68,0,0,0-.4,1.14v2.85h-.8v-5h.8v.83h0a1.82,1.82,0,0,1,1.65-1,1.54,1.54,0,0,1,1.25.53,2.36,2.36,0,0,1,.43,1.53Z"/><path class="cls-6" d="M87.69,143.3a.49.49,0,0,1-.36-.15.48.48,0,0,1-.15-.37.5.5,0,0,1,.15-.37.49.49,0,0,1,.36-.15.54.54,0,0,1,.38.15.53.53,0,0,1,0,.74A.54.54,0,0,1,87.69,143.3Zm.39,6.27h-.8v-5h.8Z"/><path class="cls-6" d="M93.64,144.57l-2,5h-.78l-1.9-5h.88l1.27,3.63a3.44,3.44,0,0,1,.18.7h0a3.25,3.25,0,0,1,.15-.68l1.33-3.65Z"/><path class="cls-6" d="M98.51,147.27H95a1.93,1.93,0,0,0,.45,1.29,1.56,1.56,0,0,0,1.18.45,2.46,2.46,0,0,0,1.56-.55v.75a2.9,2.9,0,0,1-1.75.48,2.12,2.12,0,0,1-1.66-.68,2.83,2.83,0,0,1-.61-1.92,2.69,2.69,0,0,1,.67-1.9,2.11,2.11,0,0,1,1.64-.74,1.87,1.87,0,0,1,1.52.64,2.68,2.68,0,0,1,.53,1.76Zm-.82-.68a1.62,1.62,0,0,0-.33-1.08,1.14,1.14,0,0,0-.92-.38,1.31,1.31,0,0,0-1,.4,1.91,1.91,0,0,0-.49,1.06Z"/><path class="cls-6" d="M102.33,145.38a1,1,0,0,0-.6-.16,1,1,0,0,0-.86.48,2.23,2.23,0,0,0-.34,1.32v2.55h-.81v-5h.81v1h0a1.64,1.64,0,0,1,.52-.82,1.16,1.16,0,0,1,.78-.3,1.22,1.22,0,0,1,.48.07Z"/><path class="cls-6" d="M102.9,149.39v-.86a2.38,2.38,0,0,0,1.44.48c.7,0,1-.23,1-.7a.62.62,0,0,0-.09-.34,1.12,1.12,0,0,0-.24-.25,2,2,0,0,0-.36-.19l-.45-.18c-.22-.09-.41-.17-.58-.26a1.53,1.53,0,0,1-.42-.31,1.22,1.22,0,0,1-.26-.38,1.5,1.5,0,0,1-.08-.5,1.21,1.21,0,0,1,.16-.63,1.42,1.42,0,0,1,.43-.45,2.28,2.28,0,0,1,.61-.28,3,3,0,0,1,1.87.14v.81a2.24,2.24,0,0,0-1.26-.36,1.32,1.32,0,0,0-.41.05,1,1,0,0,0-.31.14.69.69,0,0,0-.2.22.59.59,0,0,0-.07.29.67.67,0,0,0,.07.33.9.9,0,0,0,.21.23,1.69,1.69,0,0,0,.33.19l.44.18a5.68,5.68,0,0,1,.6.26,2.52,2.52,0,0,1,.45.3,1.08,1.08,0,0,1,.28.39,1.21,1.21,0,0,1,.1.52,1.25,1.25,0,0,1-.16.65,1.35,1.35,0,0,1-.44.45,2,2,0,0,1-.63.27,2.94,2.94,0,0,1-.74.09A2.82,2.82,0,0,1,102.9,149.39Z"/><path class="cls-6" d="M107.85,143.3a.49.49,0,0,1-.36-.15.48.48,0,0,1-.15-.37.5.5,0,0,1,.15-.37.49.49,0,0,1,.36-.15.52.52,0,0,1,.38.15.53.53,0,0,1,0,.74A.52.52,0,0,1,107.85,143.3Zm.4,6.27h-.81v-5h.81Z"/><path class="cls-6" d="M112.19,149.52a1.61,1.61,0,0,1-.75.16c-.88,0-1.31-.49-1.31-1.47v-3h-.86v-.68h.86v-1.22l.8-.26v1.48h1.26v.68h-1.26v2.82a1.14,1.14,0,0,0,.17.72.68.68,0,0,0,.56.21.86.86,0,0,0,.53-.16Z"/><path class="cls-6" d="M117.27,147.27h-3.53a1.93,1.93,0,0,0,.45,1.29,1.56,1.56,0,0,0,1.18.45,2.46,2.46,0,0,0,1.56-.55v.75a2.9,2.9,0,0,1-1.75.48,2.12,2.12,0,0,1-1.66-.68,2.83,2.83,0,0,1-.61-1.92,2.69,2.69,0,0,1,.67-1.9,2.11,2.11,0,0,1,1.64-.74,1.87,1.87,0,0,1,1.52.64,2.68,2.68,0,0,1,.53,1.76Zm-.82-.68a1.62,1.62,0,0,0-.33-1.08,1.14,1.14,0,0,0-.92-.38,1.31,1.31,0,0,0-1,.4,1.84,1.84,0,0,0-.49,1.06Zm-.12-4.57-1.28,1.6h-.62l1.09-1.6Z"/><path class="cls-6" d="M125.49,149.57h-.8v-.85h0a2,2,0,0,1-3.22.3,2.75,2.75,0,0,1-.57-1.83,3,3,0,0,1,.63-2,2,2,0,0,1,1.66-.75,1.6,1.6,0,0,1,1.5.81h0v-3.09h.8Zm-.8-2.26v-.74a1.41,1.41,0,0,0-.4-1,1.36,1.36,0,0,0-1-.42,1.41,1.41,0,0,0-1.15.53,2.38,2.38,0,0,0-.42,1.49,2.16,2.16,0,0,0,.4,1.36,1.31,1.31,0,0,0,1.09.5,1.36,1.36,0,0,0,1.08-.48A1.79,1.79,0,0,0,124.69,147.31Z"/><path class="cls-6" d="M131.13,147.27H127.6a1.83,1.83,0,0,0,.45,1.29,1.56,1.56,0,0,0,1.18.45,2.43,2.43,0,0,0,1.55-.55v.75a2.89,2.89,0,0,1-1.74.48,2.12,2.12,0,0,1-1.66-.68,2.78,2.78,0,0,1-.61-1.92,2.73,2.73,0,0,1,.66-1.9,2.13,2.13,0,0,1,1.65-.74,1.84,1.84,0,0,1,1.51.64,2.63,2.63,0,0,1,.54,1.76Zm-.82-.68a1.62,1.62,0,0,0-.33-1.08,1.14,1.14,0,0,0-.92-.38,1.28,1.28,0,0,0-1,.4,1.84,1.84,0,0,0-.49,1.06Z"/><path class="cls-6" d="M140.42,149.09a4.63,4.63,0,0,1-2.34.6,3.2,3.2,0,0,1-2.42-1,3.53,3.53,0,0,1-.93-2.56,3.64,3.64,0,0,1,1-2.67,3.5,3.5,0,0,1,2.6-1,4.41,4.41,0,0,1,1.92.37v.91a3.66,3.66,0,0,0-2-.54,2.52,2.52,0,0,0-1.93.81,3.39,3.39,0,0,0-.05,4.19,2.41,2.41,0,0,0,1.89.76,2.89,2.89,0,0,0,1.42-.33v-2h-1.53v-.74h2.35Z"/><path class="cls-6" d="M146,147.27h-3.53a1.83,1.83,0,0,0,.45,1.29,1.56,1.56,0,0,0,1.18.45,2.45,2.45,0,0,0,1.55-.55v.75a2.89,2.89,0,0,1-1.74.48,2.1,2.1,0,0,1-1.66-.68,2.78,2.78,0,0,1-.61-1.92,2.73,2.73,0,0,1,.66-1.9,2.12,2.12,0,0,1,1.64-.74,1.86,1.86,0,0,1,1.52.64,2.63,2.63,0,0,1,.54,1.76Zm-.82-.68a1.57,1.57,0,0,0-.34-1.08,1.1,1.1,0,0,0-.91-.38,1.28,1.28,0,0,0-1,.4,1.78,1.78,0,0,0-.49,1.06Z"/><path class="cls-6" d="M151.32,149.57h-.8v-2.85c0-1.06-.39-1.59-1.16-1.59a1.29,1.29,0,0,0-1,.45,1.68,1.68,0,0,0-.39,1.14v2.85h-.8v-5h.8v.83h0a1.82,1.82,0,0,1,1.64-1,1.55,1.55,0,0,1,1.26.53,2.36,2.36,0,0,1,.43,1.53Z"/><path class="cls-6" d="M156.85,147.27h-3.53a1.83,1.83,0,0,0,.45,1.29A1.54,1.54,0,0,0,155,149a2.45,2.45,0,0,0,1.55-.55v.75a2.89,2.89,0,0,1-1.74.48,2.14,2.14,0,0,1-1.67-.68,2.83,2.83,0,0,1-.6-1.92,2.73,2.73,0,0,1,.66-1.9,2.12,2.12,0,0,1,1.64-.74,1.86,1.86,0,0,1,1.52.64,2.63,2.63,0,0,1,.54,1.76Zm-.82-.68a1.62,1.62,0,0,0-.34-1.08,1.12,1.12,0,0,0-.91-.38,1.28,1.28,0,0,0-1,.4,1.78,1.78,0,0,0-.49,1.06Zm-.47-3h-.62l-1.28-1.6h.82Z"/><path class="cls-6" d="M162,144.57l-2,5h-.79l-1.89-5h.88l1.27,3.63a3.34,3.34,0,0,1,.17.7h0a3.23,3.23,0,0,1,.16-.68l1.33-3.65Z"/><path class="cls-6" d="M166.87,147.27h-3.53a1.83,1.83,0,0,0,.45,1.29A1.54,1.54,0,0,0,165,149a2.45,2.45,0,0,0,1.55-.55v.75a2.89,2.89,0,0,1-1.74.48,2.14,2.14,0,0,1-1.67-.68,2.83,2.83,0,0,1-.6-1.92,2.73,2.73,0,0,1,.66-1.9,2.12,2.12,0,0,1,1.64-.74,1.86,1.86,0,0,1,1.52.64,2.63,2.63,0,0,1,.54,1.76Zm-.82-.68a1.62,1.62,0,0,0-.34-1.08,1.12,1.12,0,0,0-.91-.38,1.28,1.28,0,0,0-1,.4,1.78,1.78,0,0,0-.49,1.06Z"/><path class="cls-6" d="M174.4,149.57h-.8v-.78h0a1.68,1.68,0,0,1-1.54.9,1.66,1.66,0,0,1-1.17-.4,1.36,1.36,0,0,1-.42-1c0-.93.55-1.48,1.65-1.63l1.5-.21c0-.85-.35-1.27-1-1.27a2.43,2.43,0,0,0-1.63.61v-.82a3.09,3.09,0,0,1,1.69-.47c1.18,0,1.77.62,1.77,1.87Zm-.8-2.53-1.21.17a2,2,0,0,0-.84.27.79.79,0,0,0-.28.7.73.73,0,0,0,.26.6,1,1,0,0,0,.69.23,1.32,1.32,0,0,0,1-.41,1.51,1.51,0,0,0,.39-1.06Z"/><path class="cls-6" d="M180,149.57h-.8v-.79h0a1.66,1.66,0,0,1-1.54.91c-1.2,0-1.79-.71-1.79-2.13v-3h.79v2.86c0,1.06.41,1.58,1.22,1.58a1.21,1.21,0,0,0,1-.43,1.66,1.66,0,0,0,.38-1.13v-2.88h.8Z"/><path class="cls-6" d="M185.22,144.57l-1.68,2.53,1.65,2.47h-.93l-1-1.62-.22-.38h0s-.1.15-.23.38l-1,1.62h-.92l1.71-2.45L181,144.57h.93l1,1.71a3.72,3.72,0,0,1,.21.39h0l1.25-2.1Z"/><path class="cls-6" d="M192.3,149.34a2.6,2.6,0,0,1-1.36.35,2.28,2.28,0,0,1-1.73-.7,2.5,2.5,0,0,1-.66-1.8,2.78,2.78,0,0,1,.71-2,2.47,2.47,0,0,1,1.89-.75,2.51,2.51,0,0,1,1.16.25v.82a2,2,0,0,0-1.19-.39,1.61,1.61,0,0,0-1.26.55,2.09,2.09,0,0,0-.49,1.44,2,2,0,0,0,.46,1.38,1.59,1.59,0,0,0,1.24.51,2,2,0,0,0,1.23-.43Z"/><path class="cls-6" d="M197.66,149.57h-.8v-2.88c0-1-.38-1.56-1.16-1.56a1.25,1.25,0,0,0-1,.45,1.68,1.68,0,0,0-.41,1.16v2.83h-.8v-7.4h.8v3.23h0a1.83,1.83,0,0,1,1.64-1c1.13,0,1.69.68,1.69,2Z"/><path class="cls-6" d="M203.19,147.27h-3.53a1.83,1.83,0,0,0,.45,1.29,1.56,1.56,0,0,0,1.18.45,2.43,2.43,0,0,0,1.55-.55v.75a2.87,2.87,0,0,1-1.74.48,2.12,2.12,0,0,1-1.66-.68,2.78,2.78,0,0,1-.61-1.92,2.73,2.73,0,0,1,.66-1.9,2.13,2.13,0,0,1,1.65-.74,1.84,1.84,0,0,1,1.51.64,2.63,2.63,0,0,1,.54,1.76Zm-.82-.68a1.62,1.62,0,0,0-.33-1.08,1.14,1.14,0,0,0-.92-.38,1.28,1.28,0,0,0-1,.4,1.84,1.84,0,0,0-.49,1.06Z"/><path class="cls-6" d="M207,145.38a1,1,0,0,0-.61-.16,1,1,0,0,0-.85.48,2.22,2.22,0,0,0-.35,1.32v2.55h-.8v-5h.8v1h0a1.72,1.72,0,0,1,.53-.82,1.16,1.16,0,0,1,.78-.3,1.22,1.22,0,0,1,.48.07Z"/><path class="cls-6" d="M210.44,147.1h-2.67v-.63h2.67Z"/><path class="cls-6" d="M73.44,161.34a2.61,2.61,0,0,1-1.37.35,2.27,2.27,0,0,1-1.72-.7,2.5,2.5,0,0,1-.66-1.8,2.78,2.78,0,0,1,.71-2,2.47,2.47,0,0,1,1.89-.75,2.54,2.54,0,0,1,1.16.25v.82a2,2,0,0,0-1.19-.39,1.61,1.61,0,0,0-1.26.55,2,2,0,0,0-.49,1.44A2,2,0,0,0,71,160.5a1.59,1.59,0,0,0,1.24.51,2,2,0,0,0,1.23-.43Z"/><path class="cls-6" d="M78.8,161.57H78v-2.88c0-1-.39-1.56-1.16-1.56a1.28,1.28,0,0,0-1,.45,1.72,1.72,0,0,0-.4,1.16v2.83h-.8v-7.4h.8v3.23h0a1.83,1.83,0,0,1,1.64-1c1.13,0,1.69.68,1.69,2Z"/><path class="cls-6" d="M84.33,159.27H80.8a1.83,1.83,0,0,0,.45,1.29,1.54,1.54,0,0,0,1.18.45,2.45,2.45,0,0,0,1.55-.55v.75a2.89,2.89,0,0,1-1.74.48,2.14,2.14,0,0,1-1.67-.68,2.83,2.83,0,0,1-.6-1.92,2.73,2.73,0,0,1,.66-1.9,2.12,2.12,0,0,1,1.64-.74,1.86,1.86,0,0,1,1.52.64,2.63,2.63,0,0,1,.54,1.76Zm-.82-.68a1.62,1.62,0,0,0-.34-1.08,1.12,1.12,0,0,0-.91-.38,1.28,1.28,0,0,0-1,.4,1.78,1.78,0,0,0-.49,1.06Z"/><path class="cls-6" d="M89.58,161.57h-.8v-.79h0a1.65,1.65,0,0,1-1.54.91c-1.19,0-1.79-.71-1.79-2.13v-3h.8v2.86c0,1.06.4,1.58,1.21,1.58a1.21,1.21,0,0,0,1-.43,1.61,1.61,0,0,0,.38-1.13v-2.88h.8Z"/><path class="cls-6" d="M93.81,157.38a1,1,0,0,0-.61-.16,1,1,0,0,0-.86.48A2.23,2.23,0,0,0,92,159v2.55h-.8v-5H92v1h0a1.71,1.71,0,0,1,.52-.82,1.2,1.2,0,0,1,.79-.3,1.22,1.22,0,0,1,.48.07Z"/><path class="cls-6" d="M95,161.68a.55.55,0,0,1-.38-.16.56.56,0,0,1,0-.78.51.51,0,0,1,.38-.16.5.5,0,0,1,.39.16.55.55,0,0,1-.39.94Z"/><path class="cls-6" d="M100.86,159.27H97.33a1.88,1.88,0,0,0,.45,1.29A1.56,1.56,0,0,0,99,161a2.48,2.48,0,0,0,1.56-.55v.75a2.9,2.9,0,0,1-1.75.48,2.12,2.12,0,0,1-1.66-.68,2.78,2.78,0,0,1-.61-1.92,2.73,2.73,0,0,1,.66-1.9,2.13,2.13,0,0,1,1.65-.74,1.87,1.87,0,0,1,1.52.64,2.68,2.68,0,0,1,.53,1.76Zm-.82-.68a1.62,1.62,0,0,0-.33-1.08,1.14,1.14,0,0,0-.92-.38,1.28,1.28,0,0,0-1,.4,1.84,1.84,0,0,0-.49,1.06Z"/><path class="cls-6" d="M106.12,161.57h-.8v-.79h0a1.67,1.67,0,0,1-1.55.91c-1.19,0-1.78-.71-1.78-2.13v-3h.79v2.86c0,1.06.41,1.58,1.21,1.58a1.24,1.24,0,0,0,1-.43,1.66,1.66,0,0,0,.38-1.13v-2.88h.8Z"/><path class="cls-6" d="M107.43,161.39v-.86a2.4,2.4,0,0,0,1.44.48c.7,0,1-.23,1-.7a.62.62,0,0,0-.09-.34,1.12,1.12,0,0,0-.24-.25,2,2,0,0,0-.36-.19l-.45-.18c-.22-.09-.41-.17-.58-.26a1.53,1.53,0,0,1-.42-.31,1,1,0,0,1-.25-.38,1.28,1.28,0,0,1-.09-.5,1.21,1.21,0,0,1,.16-.63,1.42,1.42,0,0,1,.43-.45,2.28,2.28,0,0,1,.61-.28,2.82,2.82,0,0,1,.71-.09,2.91,2.91,0,0,1,1.17.23v.81a2.3,2.3,0,0,0-1.27-.36,1.32,1.32,0,0,0-.41.05,1,1,0,0,0-.31.14.69.69,0,0,0-.2.22.59.59,0,0,0-.07.29.67.67,0,0,0,.07.33.9.9,0,0,0,.21.23,1.69,1.69,0,0,0,.33.19l.44.18a4.9,4.9,0,0,1,.6.26,2,2,0,0,1,.45.3,1.08,1.08,0,0,1,.28.39,1.21,1.21,0,0,1,.11.52,1.26,1.26,0,0,1-.17.65,1.35,1.35,0,0,1-.44.45,2,2,0,0,1-.63.27,2.94,2.94,0,0,1-.74.09A2.82,2.82,0,0,1,107.43,161.39Z"/><path class="cls-6" d="M116,159.27h-3.53a1.93,1.93,0,0,0,.45,1.29,1.56,1.56,0,0,0,1.18.45,2.46,2.46,0,0,0,1.56-.55v.75a2.9,2.9,0,0,1-1.75.48,2.12,2.12,0,0,1-1.66-.68,2.83,2.83,0,0,1-.61-1.92,2.69,2.69,0,0,1,.67-1.9,2.11,2.11,0,0,1,1.64-.74,1.87,1.87,0,0,1,1.52.64,2.62,2.62,0,0,1,.53,1.76Zm-.82-.68a1.62,1.62,0,0,0-.33-1.08,1.14,1.14,0,0,0-.92-.38,1.31,1.31,0,0,0-1,.4,1.91,1.91,0,0,0-.49,1.06Z"/><path class="cls-6" d="M117.48,161.68a.55.55,0,0,1-.38-.16.56.56,0,0,1,0-.78.51.51,0,0,1,.38-.16.5.5,0,0,1,.39.16.55.55,0,0,1-.39.94Z"/><path class="cls-6" d="M119.07,161.39v-.86a2.4,2.4,0,0,0,1.44.48c.7,0,1.06-.23,1.06-.7a.55.55,0,0,0-.1-.34.94.94,0,0,0-.24-.25,2,2,0,0,0-.36-.19l-.45-.18c-.22-.09-.41-.17-.58-.26a1.53,1.53,0,0,1-.42-.31,1,1,0,0,1-.25-.38,1.28,1.28,0,0,1-.09-.5,1.21,1.21,0,0,1,.16-.63,1.42,1.42,0,0,1,.43-.45,2.28,2.28,0,0,1,.61-.28,2.82,2.82,0,0,1,.71-.09,2.91,2.91,0,0,1,1.17.23v.81a2.27,2.27,0,0,0-1.27-.36,1.32,1.32,0,0,0-.41.05,1,1,0,0,0-.31.14.83.83,0,0,0-.2.22.59.59,0,0,0-.07.29.67.67,0,0,0,.07.33.9.9,0,0,0,.21.23,1.69,1.69,0,0,0,.33.19l.45.18a4.72,4.72,0,0,1,.59.26,2,2,0,0,1,.45.3,1.24,1.24,0,0,1,.29.39,1.38,1.38,0,0,1,.1.52,1.26,1.26,0,0,1-.17.65,1.42,1.42,0,0,1-.43.45,2.22,2.22,0,0,1-.63.27,3.08,3.08,0,0,1-.75.09A2.82,2.82,0,0,1,119.07,161.39Z"/><path class="cls-6" d="M127.18,160.85h0v3h-.8v-7.3h.8v.88h0a1.88,1.88,0,0,1,1.72-1,1.85,1.85,0,0,1,1.51.67,2.8,2.8,0,0,1,.55,1.8,3.07,3.07,0,0,1-.62,2,2,2,0,0,1-1.67.76A1.67,1.67,0,0,1,127.18,160.85Zm0-2v.7a1.48,1.48,0,0,0,.4,1.05,1.44,1.44,0,0,0,2.16-.12,2.55,2.55,0,0,0,.41-1.55,2,2,0,0,0-.38-1.31,1.27,1.27,0,0,0-1.05-.47,1.42,1.42,0,0,0-1.12.48A1.81,1.81,0,0,0,127.16,158.83Z"/><path class="cls-6" d="M134.32,161.69a2.37,2.37,0,0,1-1.77-.7,2.61,2.61,0,0,1-.66-1.86,2.7,2.7,0,0,1,.69-2,2.49,2.49,0,0,1,1.86-.71,2.25,2.25,0,0,1,1.75.69,2.73,2.73,0,0,1,.62,1.91,2.69,2.69,0,0,1-.67,1.92A2.38,2.38,0,0,1,134.32,161.69Zm.06-4.56a1.52,1.52,0,0,0-1.22.52,2.15,2.15,0,0,0-.45,1.45,2,2,0,0,0,.46,1.4,1.54,1.54,0,0,0,1.21.51,1.46,1.46,0,0,0,1.2-.5,2.18,2.18,0,0,0,.41-1.43,2.22,2.22,0,0,0-.41-1.45A1.49,1.49,0,0,0,134.38,157.13Z"/><path class="cls-6" d="M142.14,161.57h-.8v-.79h0a1.67,1.67,0,0,1-1.55.91c-1.19,0-1.78-.71-1.78-2.13v-3h.79v2.86c0,1.06.41,1.58,1.21,1.58a1.23,1.23,0,0,0,1-.43,1.66,1.66,0,0,0,.38-1.13v-2.88h.8Z"/><path class="cls-6" d="M146.36,157.38a1,1,0,0,0-.6-.16,1,1,0,0,0-.86.48,2.22,2.22,0,0,0-.35,1.32v2.55h-.8v-5h.8v1h0a1.72,1.72,0,0,1,.53-.82,1.16,1.16,0,0,1,.78-.3,1.22,1.22,0,0,1,.48.07Z"/><path class="cls-6" d="M154.24,161.57h-.8v-.85h0a1.87,1.87,0,0,1-1.72,1,1.9,1.9,0,0,1-1.51-.67,2.74,2.74,0,0,1-.56-1.83,3,3,0,0,1,.62-2,2.06,2.06,0,0,1,1.67-.75,1.62,1.62,0,0,1,1.5.81h0v-3.09h.8Zm-.8-2.26v-.74a1.45,1.45,0,0,0-.4-1,1.36,1.36,0,0,0-1-.42,1.39,1.39,0,0,0-1.15.53,2.38,2.38,0,0,0-.42,1.49,2.1,2.1,0,0,0,.4,1.36,1.3,1.3,0,0,0,1.08.5,1.38,1.38,0,0,0,1.09-.48A1.79,1.79,0,0,0,153.44,159.31Z"/><path class="cls-6" d="M156.27,155.3a.5.5,0,0,1-.37-.15.48.48,0,0,1-.15-.37.51.51,0,0,1,.52-.52.51.51,0,0,1,.37.15.51.51,0,0,1,0,.74A.51.51,0,0,1,156.27,155.3Zm.39,6.27h-.8v-5h.8Z"/><path class="cls-6" d="M160.75,154.87a1,1,0,0,0-.53-.13c-.56,0-.84.35-.84,1.06v.77h1.17v.68h-1.17v4.32h-.8v-4.32h-.85v-.68h.85v-.81a1.64,1.64,0,0,1,.46-1.24,1.51,1.51,0,0,1,1.13-.46,1.53,1.53,0,0,1,.58.09Z"/><path class="cls-6" d="M163.88,154.87a1,1,0,0,0-.53-.13c-.56,0-.84.35-.84,1.06v.77h1.17v.68h-1.17v4.32h-.8v-4.32h-.85v-.68h.85v-.81a1.64,1.64,0,0,1,.46-1.24,1.51,1.51,0,0,1,1.13-.46,1.53,1.53,0,0,1,.58.09Z"/><path class="cls-6" d="M168.58,161.57h-.8v-.79h0a1.65,1.65,0,0,1-1.54.91c-1.19,0-1.79-.71-1.79-2.13v-3h.8v2.86c0,1.06.4,1.58,1.21,1.58a1.21,1.21,0,0,0,1-.43,1.61,1.61,0,0,0,.38-1.13v-2.88h.8Z"/><path class="cls-6" d="M169.9,161.39v-.86a2.35,2.35,0,0,0,1.44.48c.7,0,1-.23,1-.7a.62.62,0,0,0-.09-.34,1.12,1.12,0,0,0-.24-.25,2.55,2.55,0,0,0-.37-.19l-.44-.18a5.47,5.47,0,0,1-.58-.26,1.53,1.53,0,0,1-.42-.31,1.08,1.08,0,0,1-.26-.38,1.28,1.28,0,0,1-.08-.5,1.21,1.21,0,0,1,.16-.63,1.32,1.32,0,0,1,.43-.45,2.14,2.14,0,0,1,.61-.28,2.82,2.82,0,0,1,.71-.09,2.86,2.86,0,0,1,1.16.23v.81a2.27,2.27,0,0,0-1.27-.36,1.25,1.25,0,0,0-.4.05.89.89,0,0,0-.31.14.6.6,0,0,0-.27.51.67.67,0,0,0,.07.33.7.7,0,0,0,.2.23,1.79,1.79,0,0,0,.34.19l.44.18a5.68,5.68,0,0,1,.6.26,2.52,2.52,0,0,1,.45.3,1.18,1.18,0,0,1,.38.91,1.25,1.25,0,0,1-.16.65,1.45,1.45,0,0,1-.44.45,2,2,0,0,1-.63.27,3.08,3.08,0,0,1-.75.09A2.78,2.78,0,0,1,169.9,161.39Z"/><path class="cls-6" d="M178.46,159.27h-3.53a1.83,1.83,0,0,0,.45,1.29,1.56,1.56,0,0,0,1.18.45,2.45,2.45,0,0,0,1.55-.55v.75a2.89,2.89,0,0,1-1.74.48,2.1,2.1,0,0,1-1.66-.68,2.78,2.78,0,0,1-.61-1.92,2.73,2.73,0,0,1,.66-1.9,2.12,2.12,0,0,1,1.64-.74,1.86,1.86,0,0,1,1.52.64,2.63,2.63,0,0,1,.54,1.76Zm-.82-.68a1.57,1.57,0,0,0-.34-1.08,1.1,1.1,0,0,0-.91-.38,1.28,1.28,0,0,0-1,.4,1.78,1.78,0,0,0-.49,1.06Z"/><path class="cls-6" d="M182.28,157.38a1,1,0,0,0-.61-.16,1,1,0,0,0-.85.48,2.22,2.22,0,0,0-.35,1.32v2.55h-.8v-5h.8v1h0a1.79,1.79,0,0,1,.52-.82,1.2,1.2,0,0,1,.79-.3,1.22,1.22,0,0,1,.48.07Z"/><path class="cls-6" d="M186.69,161.57h-.8v-7.4h.8Z"/><path class="cls-6" d="M192.33,159.27H188.8a1.83,1.83,0,0,0,.45,1.29,1.54,1.54,0,0,0,1.18.45,2.45,2.45,0,0,0,1.55-.55v.75a2.89,2.89,0,0,1-1.74.48,2.14,2.14,0,0,1-1.67-.68,2.83,2.83,0,0,1-.6-1.92,2.73,2.73,0,0,1,.66-1.9,2.12,2.12,0,0,1,1.64-.74,1.86,1.86,0,0,1,1.52.64,2.63,2.63,0,0,1,.54,1.76Zm-.82-.68a1.68,1.68,0,0,0-.34-1.08,1.12,1.12,0,0,0-.91-.38,1.28,1.28,0,0,0-1,.4,1.78,1.78,0,0,0-.49,1.06Z"/><path class="cls-6" d="M197.58,161.57h-.8v-.79h0a1.66,1.66,0,0,1-1.54.91c-1.19,0-1.79-.71-1.79-2.13v-3h.8v2.86c0,1.06.4,1.58,1.21,1.58a1.21,1.21,0,0,0,1-.43,1.66,1.66,0,0,0,.38-1.13v-2.88h.8Z"/><path class="cls-6" d="M201.8,157.38a.93.93,0,0,0-.6-.16,1,1,0,0,0-.86.48A2.23,2.23,0,0,0,200,159v2.55h-.8v-5h.8v1h0a1.71,1.71,0,0,1,.52-.82,1.31,1.31,0,0,1,1.26-.23Z"/><path class="cls-6" d="M202.37,161.39v-.86a2.4,2.4,0,0,0,1.44.48c.7,0,1.06-.23,1.06-.7a.62.62,0,0,0-.09-.34,1.18,1.18,0,0,0-.25-.25,2,2,0,0,0-.36-.19l-.45-.18c-.22-.09-.41-.17-.58-.26a1.53,1.53,0,0,1-.42-.31,1,1,0,0,1-.25-.38,1.28,1.28,0,0,1-.09-.5,1.21,1.21,0,0,1,.16-.63,1.42,1.42,0,0,1,.43-.45,2.43,2.43,0,0,1,.61-.28,3,3,0,0,1,1.88.14v.81a2.27,2.27,0,0,0-1.27-.36,1.32,1.32,0,0,0-.41.05,1,1,0,0,0-.31.14.83.83,0,0,0-.2.22.59.59,0,0,0-.07.29.67.67,0,0,0,.07.33.9.9,0,0,0,.21.23,1.69,1.69,0,0,0,.33.19l.45.18a4.72,4.72,0,0,1,.59.26,2,2,0,0,1,.45.3,1.24,1.24,0,0,1,.29.39,1.38,1.38,0,0,1,.1.52,1.26,1.26,0,0,1-.17.65,1.42,1.42,0,0,1-.43.45,2.22,2.22,0,0,1-.63.27,3.08,3.08,0,0,1-.75.09A2.82,2.82,0,0,1,202.37,161.39Z"/><path class="cls-6" d="M70.85,172.85h0v3H70v-7.3h.8v.88h0a1.89,1.89,0,0,1,1.73-1,1.85,1.85,0,0,1,1.51.67,2.8,2.8,0,0,1,.54,1.8,3.07,3.07,0,0,1-.61,2,2,2,0,0,1-1.67.76A1.67,1.67,0,0,1,70.85,172.85Zm0-2v.7a1.49,1.49,0,0,0,.41,1.05,1.32,1.32,0,0,0,1,.43,1.35,1.35,0,0,0,1.14-.55,2.62,2.62,0,0,0,.41-1.55,2.06,2.06,0,0,0-.38-1.31,1.27,1.27,0,0,0-1.05-.47,1.42,1.42,0,0,0-1.12.48A1.77,1.77,0,0,0,70.83,170.83Z"/><path class="cls-6" d="M80,173.57h-.8v-.79h0a1.65,1.65,0,0,1-1.54.91c-1.19,0-1.79-.71-1.79-2.13v-3h.8v2.86c0,1.06.4,1.58,1.21,1.58a1.24,1.24,0,0,0,1-.43,1.65,1.65,0,0,0,.37-1.13v-2.88H80Z"/><path class="cls-6" d="M82.39,172.85h0v.72h-.8v-7.4h.8v3.28h0a2,2,0,0,1,3.24-.33,2.8,2.8,0,0,1,.54,1.8,3.07,3.07,0,0,1-.61,2,2,2,0,0,1-1.67.76A1.65,1.65,0,0,1,82.39,172.85Zm0-2v.7a1.53,1.53,0,0,0,.4,1.05,1.45,1.45,0,0,0,2.17-.12,2.62,2.62,0,0,0,.41-1.55A2,2,0,0,0,85,169.6a1.24,1.24,0,0,0-1-.47,1.41,1.41,0,0,0-1.12.48A1.77,1.77,0,0,0,82.37,170.83Z"/><path class="cls-6" d="M88.25,173.57h-.8v-7.4h.8Z"/><path class="cls-6" d="M90.28,167.3a.49.49,0,0,1-.36-.15.46.46,0,0,1-.16-.37.47.47,0,0,1,.16-.37.49.49,0,0,1,.36-.15.5.5,0,0,1,.37.15.51.51,0,0,1,0,.74A.5.5,0,0,1,90.28,167.3Zm.39,6.27h-.8v-5h.8Z"/><path class="cls-6" d="M95.7,173.34a2.61,2.61,0,0,1-1.37.35,2.27,2.27,0,0,1-1.72-.7,2.5,2.5,0,0,1-.66-1.8,2.78,2.78,0,0,1,.71-2,2.47,2.47,0,0,1,1.89-.75,2.51,2.51,0,0,1,1.16.25v.82a2,2,0,0,0-1.19-.39,1.61,1.61,0,0,0-1.26.55,2.09,2.09,0,0,0-.49,1.44,2,2,0,0,0,.46,1.38,1.59,1.59,0,0,0,1.24.51,2,2,0,0,0,1.23-.43Z"/><path class="cls-6" d="M100.49,173.57h-.8v-.78h0a1.82,1.82,0,0,1-2.71.5,1.36,1.36,0,0,1-.42-1c0-.93.55-1.48,1.65-1.63l1.5-.21c0-.85-.34-1.27-1-1.27a2.45,2.45,0,0,0-1.63.61v-.82a3.12,3.12,0,0,1,1.7-.47c1.17,0,1.76.62,1.76,1.87Zm-.8-2.53-1.21.17a2,2,0,0,0-.84.27.82.82,0,0,0-.28.7.76.76,0,0,0,.26.6,1,1,0,0,0,.7.23,1.3,1.3,0,0,0,1-.41,1.51,1.51,0,0,0,.39-1.06Z"/><path class="cls-6" d="M104.32,173.52a1.61,1.61,0,0,1-.75.16c-.87,0-1.31-.49-1.31-1.47v-3h-.86v-.68h.86v-1.22l.8-.26v1.48h1.26v.68h-1.26v2.82a1.21,1.21,0,0,0,.17.72.68.68,0,0,0,.57.21.85.85,0,0,0,.52-.16Z"/><path class="cls-6" d="M105.8,167.3a.51.51,0,0,1-.37-.15.48.48,0,0,1-.15-.37.5.5,0,0,1,.15-.37.51.51,0,0,1,.37-.15.5.5,0,0,1,.37.15.51.51,0,0,1,0,.74A.5.5,0,0,1,105.8,167.3Zm.39,6.27h-.8v-5h.8Z"/><path class="cls-6" d="M109.9,173.69a2.34,2.34,0,0,1-1.77-.7,2.61,2.61,0,0,1-.66-1.86,2.7,2.7,0,0,1,.69-2,2.49,2.49,0,0,1,1.86-.71,2.24,2.24,0,0,1,1.74.69,2.73,2.73,0,0,1,.63,1.91,2.69,2.69,0,0,1-.67,1.92A2.39,2.39,0,0,1,109.9,173.69Zm.06-4.56a1.52,1.52,0,0,0-1.22.52,2.15,2.15,0,0,0-.45,1.45,2,2,0,0,0,.45,1.4A1.56,1.56,0,0,0,110,173a1.43,1.43,0,0,0,1.19-.5,2.18,2.18,0,0,0,.42-1.43,2.22,2.22,0,0,0-.42-1.45A1.46,1.46,0,0,0,110,169.13Z"/><path class="cls-6" d="M117.82,173.57H117v-2.85c0-1.06-.39-1.59-1.16-1.59a1.29,1.29,0,0,0-1,.45,1.68,1.68,0,0,0-.39,1.14v2.85h-.8v-5h.8v.83h0a1.82,1.82,0,0,1,1.64-1,1.55,1.55,0,0,1,1.26.53,2.36,2.36,0,0,1,.43,1.53Z"/><path class="cls-6" d="M119,173.39v-.86a2.35,2.35,0,0,0,1.44.48c.7,0,1-.23,1-.7a.62.62,0,0,0-.09-.34,1.12,1.12,0,0,0-.24-.25,2.42,2.42,0,0,0-.36-.19l-.45-.18a5.47,5.47,0,0,1-.58-.26,1.53,1.53,0,0,1-.42-.31,1.08,1.08,0,0,1-.26-.38,1.28,1.28,0,0,1-.08-.5,1.21,1.21,0,0,1,.16-.63,1.32,1.32,0,0,1,.43-.45,2.28,2.28,0,0,1,.61-.28,2.82,2.82,0,0,1,.71-.09,2.86,2.86,0,0,1,1.16.23v.81a2.27,2.27,0,0,0-1.27-.36,1.25,1.25,0,0,0-.4.05.89.89,0,0,0-.31.14.6.6,0,0,0-.27.51.67.67,0,0,0,.07.33.7.7,0,0,0,.2.23,2.17,2.17,0,0,0,.34.19l.44.18a5.68,5.68,0,0,1,.6.26,2.52,2.52,0,0,1,.45.3,1.18,1.18,0,0,1,.38.91,1.25,1.25,0,0,1-.16.65,1.45,1.45,0,0,1-.44.45,2,2,0,0,1-.63.27,3,3,0,0,1-.75.09A2.78,2.78,0,0,1,119,173.39Z"/><path class="cls-6" d="M126,173.39v-.86a2.38,2.38,0,0,0,1.44.48c.7,0,1-.23,1-.7a.62.62,0,0,0-.09-.34,1.12,1.12,0,0,0-.24-.25,2,2,0,0,0-.36-.19l-.45-.18c-.22-.09-.41-.17-.58-.26a1.53,1.53,0,0,1-.42-.31,1.22,1.22,0,0,1-.26-.38,1.5,1.5,0,0,1-.08-.5,1.21,1.21,0,0,1,.16-.63,1.42,1.42,0,0,1,.43-.45,2.28,2.28,0,0,1,.61-.28,3,3,0,0,1,1.87.14v.81a2.24,2.24,0,0,0-1.26-.36,1.32,1.32,0,0,0-.41.05,1,1,0,0,0-.31.14.69.69,0,0,0-.2.22.59.59,0,0,0-.07.29.67.67,0,0,0,.07.33.9.9,0,0,0,.21.23,1.69,1.69,0,0,0,.33.19l.44.18a4.9,4.9,0,0,1,.6.26,2.2,2.2,0,0,1,.45.3,1.08,1.08,0,0,1,.28.39,1.21,1.21,0,0,1,.1.52,1.25,1.25,0,0,1-.16.65,1.35,1.35,0,0,1-.44.45,2,2,0,0,1-.63.27,2.94,2.94,0,0,1-.74.09A2.82,2.82,0,0,1,126,173.39Z"/><path class="cls-6" d="M134.6,173.57h-.8v-.79h0a1.66,1.66,0,0,1-1.55.91c-1.19,0-1.78-.71-1.78-2.13v-3h.79v2.86c0,1.06.41,1.58,1.21,1.58a1.23,1.23,0,0,0,1-.43,1.66,1.66,0,0,0,.38-1.13v-2.88h.8Z"/><path class="cls-6" d="M138.82,169.38a1,1,0,0,0-.6-.16,1,1,0,0,0-.86.48A2.22,2.22,0,0,0,137,171v2.55h-.8v-5h.8v1h0a1.72,1.72,0,0,1,.53-.82,1.16,1.16,0,0,1,.78-.3,1.22,1.22,0,0,1,.48.07Z"/><path class="cls-6" d="M143.36,173.57h-.82v-7h.82Z"/><path class="cls-6" d="M149.24,173.57h-.8v-2.85c0-1.06-.39-1.59-1.16-1.59a1.29,1.29,0,0,0-1,.45,1.68,1.68,0,0,0-.39,1.14v2.85h-.8v-5h.8v.83h0a1.82,1.82,0,0,1,1.64-1,1.55,1.55,0,0,1,1.26.53,2.36,2.36,0,0,1,.43,1.53Z"/><path class="cls-6" d="M153.07,173.52a1.61,1.61,0,0,1-.75.16c-.87,0-1.31-.49-1.31-1.47v-3h-.86v-.68H151v-1.22l.8-.26v1.48h1.26v.68h-1.26v2.82a1.21,1.21,0,0,0,.17.72.68.68,0,0,0,.57.21.85.85,0,0,0,.52-.16Z"/><path class="cls-6" d="M158.16,171.27h-3.53a1.83,1.83,0,0,0,.45,1.29,1.54,1.54,0,0,0,1.18.45,2.45,2.45,0,0,0,1.55-.55v.75a2.89,2.89,0,0,1-1.74.48,2.14,2.14,0,0,1-1.67-.68,2.83,2.83,0,0,1-.6-1.92,2.73,2.73,0,0,1,.66-1.9,2.12,2.12,0,0,1,1.64-.74,1.86,1.86,0,0,1,1.52.64,2.63,2.63,0,0,1,.54,1.76Zm-.82-.68a1.68,1.68,0,0,0-.34-1.08,1.12,1.12,0,0,0-.91-.38,1.28,1.28,0,0,0-1,.4,1.78,1.78,0,0,0-.49,1.06Z"/><path class="cls-6" d="M162,169.38a1,1,0,0,0-.61-.16,1,1,0,0,0-.86.48,2.23,2.23,0,0,0-.34,1.32v2.55h-.8v-5h.8v1h0a1.71,1.71,0,0,1,.52-.82,1.2,1.2,0,0,1,.79-.3,1.22,1.22,0,0,1,.48.07Z"/><path class="cls-6" d="M167,173.57h-.81v-2.85c0-1.06-.38-1.59-1.16-1.59a1.25,1.25,0,0,0-1,.45,1.68,1.68,0,0,0-.39,1.14v2.85h-.81v-5h.81v.83h0a1.8,1.8,0,0,1,1.64-1,1.54,1.54,0,0,1,1.25.53,2.36,2.36,0,0,1,.44,1.53Z"/><path class="cls-6" d="M172.52,171.27H169a1.93,1.93,0,0,0,.45,1.29,1.56,1.56,0,0,0,1.18.45,2.48,2.48,0,0,0,1.56-.55v.75a2.9,2.9,0,0,1-1.75.48,2.12,2.12,0,0,1-1.66-.68,2.78,2.78,0,0,1-.61-1.92,2.73,2.73,0,0,1,.66-1.9,2.13,2.13,0,0,1,1.65-.74,1.87,1.87,0,0,1,1.52.64,2.68,2.68,0,0,1,.53,1.76Zm-.82-.68a1.62,1.62,0,0,0-.33-1.08,1.14,1.14,0,0,0-.92-.38,1.28,1.28,0,0,0-1,.4,1.84,1.84,0,0,0-.49,1.06Z"/><path class="cls-6" d="M176.05,173.52a1.56,1.56,0,0,1-.74.16q-1.32,0-1.32-1.47v-3h-.86v-.68H174v-1.22l.8-.26v1.48h1.26v.68h-1.26v2.82a1.21,1.21,0,0,0,.17.72.71.71,0,0,0,.57.21.83.83,0,0,0,.52-.16Z"/><path class="cls-6" d="M180.69,171.63a2,2,0,0,1-.08-.33,2.85,2.85,0,0,1,0-.41,1.32,1.32,0,0,1,.13-.56,1.82,1.82,0,0,1,.31-.47,4,4,0,0,1,.4-.42c.15-.14.29-.28.41-.41a2.52,2.52,0,0,0,.31-.44,1.06,1.06,0,0,0,.12-.5.88.88,0,0,0-.09-.41.92.92,0,0,0-.24-.31,1.22,1.22,0,0,0-.36-.18,1.61,1.61,0,0,0-.44-.06,1.9,1.9,0,0,0-1.43.65v-.86a2.89,2.89,0,0,1,1.55-.47,2.28,2.28,0,0,1,.7.1,1.62,1.62,0,0,1,.57.29A1.38,1.38,0,0,1,183,168a1.47,1.47,0,0,1-.13.64,2,2,0,0,1-.32.52,2.85,2.85,0,0,1-.41.44l-.42.41a2.34,2.34,0,0,0-.32.42.92.92,0,0,0-.13.49,1.35,1.35,0,0,0,.06.41c0,.12.07.22.1.31Zm.44,2a.55.55,0,0,1-.38-.16.51.51,0,0,1,0-.76.49.49,0,0,1,.38-.16.52.52,0,0,1,.38.16.53.53,0,0,1,0,.76A.57.57,0,0,1,181.13,173.66Z"/><path class="cls-6" d="M75.56,188.57h-.91l-.74-2h-3l-.7,2h-.91l2.68-7h.85Zm-1.92-2.7-1.1-3c0-.1-.07-.26-.11-.47h0a2.63,2.63,0,0,1-.12.47l-1.09,3Z"/><path class="cls-6" d="M76.5,190.16h-.71a6.49,6.49,0,0,0,1.52-4.27,6.58,6.58,0,0,0-1.53-4.32h.72A6.42,6.42,0,0,1,78,185.9,6.19,6.19,0,0,1,76.5,190.16Z"/><path class="cls-6" d="M89.49,188.57h-.82v-4.7c0-.37,0-.82.07-1.36h0a4.8,4.8,0,0,1-.21.68l-2.39,5.38h-.4l-2.39-5.34a4.1,4.1,0,0,1-.21-.72h0c0,.28,0,.74,0,1.37v4.69h-.79v-7h1.08l2.15,4.88a5.86,5.86,0,0,1,.32.84h0c.14-.38.25-.67.34-.86l2.19-4.86h1Z"/><path class="cls-6" d="M93.31,188.69a2.34,2.34,0,0,1-1.77-.7,2.61,2.61,0,0,1-.66-1.86,2.7,2.7,0,0,1,.69-2,2.46,2.46,0,0,1,1.86-.71,2.24,2.24,0,0,1,1.74.69,2.73,2.73,0,0,1,.63,1.91,2.7,2.7,0,0,1-.68,1.92A2.36,2.36,0,0,1,93.31,188.69Zm.06-4.56a1.51,1.51,0,0,0-1.22.52,2.15,2.15,0,0,0-.45,1.45,2,2,0,0,0,.45,1.4,1.55,1.55,0,0,0,1.22.51,1.45,1.45,0,0,0,1.19-.5,2.18,2.18,0,0,0,.42-1.43,2.22,2.22,0,0,0-.42-1.45A1.48,1.48,0,0,0,93.37,184.13Z"/><path class="cls-6" d="M99.17,188.69a2.34,2.34,0,0,1-1.77-.7,2.61,2.61,0,0,1-.66-1.86,2.74,2.74,0,0,1,.68-2,2.49,2.49,0,0,1,1.87-.71,2.24,2.24,0,0,1,1.74.69,2.73,2.73,0,0,1,.63,1.91A2.7,2.7,0,0,1,101,188,2.36,2.36,0,0,1,99.17,188.69Zm.06-4.56a1.51,1.51,0,0,0-1.22.52,2.15,2.15,0,0,0-.45,1.45,2,2,0,0,0,.45,1.4,1.55,1.55,0,0,0,1.22.51,1.45,1.45,0,0,0,1.19-.5,2.18,2.18,0,0,0,.42-1.43,2.22,2.22,0,0,0-.42-1.45A1.48,1.48,0,0,0,99.23,184.13Z"/><path class="cls-6" d="M107.21,188.57h-.81v-.85h0a1.85,1.85,0,0,1-1.71,1,1.9,1.9,0,0,1-1.51-.67,2.74,2.74,0,0,1-.56-1.83,3,3,0,0,1,.62-2,2.06,2.06,0,0,1,1.67-.75,1.59,1.59,0,0,1,1.49.81h0v-3.09h.81Zm-.81-2.26v-.74a1.41,1.41,0,0,0-.4-1,1.32,1.32,0,0,0-1-.42,1.39,1.39,0,0,0-1.15.53,2.38,2.38,0,0,0-.42,1.49,2.1,2.1,0,0,0,.4,1.36,1.3,1.3,0,0,0,1.08.5,1.38,1.38,0,0,0,1.09-.48A1.78,1.78,0,0,0,106.4,186.31Z"/><path class="cls-6" d="M109.63,188.57h-.8v-7.4h.8Z"/><path class="cls-6" d="M115.27,186.27h-3.53a1.83,1.83,0,0,0,.45,1.29,1.54,1.54,0,0,0,1.18.45,2.45,2.45,0,0,0,1.55-.55v.75a2.89,2.89,0,0,1-1.74.48,2.14,2.14,0,0,1-1.67-.68,2.83,2.83,0,0,1-.6-1.92,2.73,2.73,0,0,1,.66-1.9,2.12,2.12,0,0,1,1.64-.74,1.86,1.86,0,0,1,1.52.64,2.63,2.63,0,0,1,.54,1.76Zm-.82-.68a1.68,1.68,0,0,0-.34-1.08,1.12,1.12,0,0,0-.91-.38,1.31,1.31,0,0,0-1,.4,1.86,1.86,0,0,0-.48,1.06Z"/><path class="cls-6" d="M70.14,203.57v-7h2a2.19,2.19,0,0,1,1.44.44,1.42,1.42,0,0,1,.53,1.16,1.64,1.64,0,0,1-.32,1,1.66,1.66,0,0,1-.89.63v0a1.77,1.77,0,0,1,1.14.53,1.67,1.67,0,0,1,.42,1.18,1.81,1.81,0,0,1-.64,1.45,2.41,2.41,0,0,1-1.63.56Zm.82-6.26v2.26h.84a1.63,1.63,0,0,0,1.06-.32,1.14,1.14,0,0,0,.39-.92q0-1-1.35-1Zm0,3v2.52h1.11a1.68,1.68,0,0,0,1.12-.34,1.16,1.16,0,0,0,.4-.94c0-.83-.56-1.24-1.69-1.24Z"/><path class="cls-6" d="M75.78,205.16h-.71a6.44,6.44,0,0,0,1.52-4.27,6.58,6.58,0,0,0-1.53-4.32h.72a6.42,6.42,0,0,1,1.53,4.33A6.19,6.19,0,0,1,75.78,205.16Z"/><path class="cls-6" d="M87.05,203.57h-.91l-.74-2h-3l-.7,2h-.91l2.68-7h.85Zm-1.92-2.7-1.1-3c0-.1-.07-.26-.11-.47h0a2.74,2.74,0,0,1-.11.47l-1.09,3Z"/><path class="cls-6" d="M90.58,199.38a1,1,0,0,0-.61-.16,1,1,0,0,0-.85.48,2.22,2.22,0,0,0-.35,1.32v2.55H88v-5h.8v1h0a1.79,1.79,0,0,1,.52-.82,1.2,1.2,0,0,1,.79-.3,1.22,1.22,0,0,1,.48.07Z"/><path class="cls-6" d="M94.86,203.34a2.63,2.63,0,0,1-1.37.35,2.26,2.26,0,0,1-1.73-.7,2.53,2.53,0,0,1-.65-1.8,2.78,2.78,0,0,1,.7-2,2.5,2.5,0,0,1,1.89-.75,2.58,2.58,0,0,1,1.17.25v.82a2,2,0,0,0-1.2-.39,1.57,1.57,0,0,0-1.25.55,2,2,0,0,0-.49,1.44,2,2,0,0,0,.46,1.38,1.59,1.59,0,0,0,1.24.51,2,2,0,0,0,1.23-.43Z"/><path class="cls-6" d="M100.22,203.57h-.8v-2.88c0-1-.39-1.56-1.16-1.56a1.27,1.27,0,0,0-1,.45,1.67,1.67,0,0,0-.4,1.16v2.83h-.8v-7.4h.8v3.23h0a1.82,1.82,0,0,1,1.64-1c1.12,0,1.69.68,1.69,2Z"/><path class="cls-6" d="M102.14,197.3a.5.5,0,0,1-.37-.15.48.48,0,0,1-.15-.37.51.51,0,0,1,.52-.52.51.51,0,0,1,.37.15.53.53,0,0,1,0,.74A.51.51,0,0,1,102.14,197.3Zm.39,6.27h-.8v-5h.8Z"/><path class="cls-6" d="M108.08,198.57l-2,5h-.79l-1.89-5h.88l1.26,3.63a2.89,2.89,0,0,1,.18.7h0a2.71,2.71,0,0,1,.16-.68l1.32-3.65Z"/><path class="cls-6" d="M113,201.27h-3.53a1.83,1.83,0,0,0,.45,1.29,1.54,1.54,0,0,0,1.18.45,2.45,2.45,0,0,0,1.55-.55v.75a2.89,2.89,0,0,1-1.74.48,2.14,2.14,0,0,1-1.67-.68,2.83,2.83,0,0,1-.6-1.92,2.73,2.73,0,0,1,.66-1.9,2.12,2.12,0,0,1,1.64-.74,1.86,1.86,0,0,1,1.52.64,2.63,2.63,0,0,1,.54,1.76Zm-.82-.68a1.68,1.68,0,0,0-.34-1.08,1.12,1.12,0,0,0-.91-.38,1.31,1.31,0,0,0-1,.4,1.86,1.86,0,0,0-.48,1.06Z"/><path class="cls-6" d="M119,203.69a2.34,2.34,0,0,1-1.77-.7,2.61,2.61,0,0,1-.66-1.86,2.74,2.74,0,0,1,.68-2,2.49,2.49,0,0,1,1.86-.71,2.25,2.25,0,0,1,1.75.69,2.73,2.73,0,0,1,.63,1.91,2.7,2.7,0,0,1-.68,1.92A2.36,2.36,0,0,1,119,203.69Zm.06-4.56a1.5,1.5,0,0,0-1.22.52,2.15,2.15,0,0,0-.45,1.45,2,2,0,0,0,.45,1.4,1.55,1.55,0,0,0,1.22.51,1.45,1.45,0,0,0,1.19-.5,2.18,2.18,0,0,0,.42-1.43,2.22,2.22,0,0,0-.42-1.45A1.48,1.48,0,0,0,119.06,199.13Z"/><path class="cls-6" d="M126.81,203.57H126v-.79h0a1.66,1.66,0,0,1-1.54.91c-1.19,0-1.79-.71-1.79-2.13v-3h.8v2.86c0,1.06.4,1.58,1.21,1.58a1.21,1.21,0,0,0,1-.43,1.66,1.66,0,0,0,.38-1.13v-2.88h.8Z"/><path class="cls-6" d="M132.36,198.57l-2,5h-.78l-1.9-5h.88l1.27,3.63a2.89,2.89,0,0,1,.18.7h0a3.25,3.25,0,0,1,.15-.68l1.33-3.65Z"/><path class="cls-6" d="M137.23,201.27H133.7a1.93,1.93,0,0,0,.45,1.29,1.57,1.57,0,0,0,1.19.45,2.45,2.45,0,0,0,1.55-.55v.75a2.9,2.9,0,0,1-1.75.48,2.12,2.12,0,0,1-1.66-.68,2.83,2.83,0,0,1-.61-1.92,2.69,2.69,0,0,1,.67-1.9,2.11,2.11,0,0,1,1.64-.74,1.87,1.87,0,0,1,1.52.64,2.62,2.62,0,0,1,.53,1.76Zm-.82-.68a1.62,1.62,0,0,0-.33-1.08,1.14,1.14,0,0,0-.92-.38,1.31,1.31,0,0,0-1,.4,1.94,1.94,0,0,0-.49,1.06Z"/><path class="cls-6" d="M141.05,199.38a1,1,0,0,0-.6-.16,1,1,0,0,0-.86.48,2.23,2.23,0,0,0-.34,1.32v2.55h-.8v-5h.8v1h0a1.64,1.64,0,0,1,.52-.82,1.16,1.16,0,0,1,.78-.3,1.22,1.22,0,0,1,.48.07Z"/><path class="cls-6" d="M144.24,203.52a1.61,1.61,0,0,1-.75.16c-.87,0-1.31-.49-1.31-1.47v-3h-.86v-.68h.86v-1.22l.8-.26v1.48h1.26v.68H143v2.82a1.19,1.19,0,0,0,.17.72.71.71,0,0,0,.57.21.85.85,0,0,0,.52-.16Z"/><path class="cls-6" d="M149.33,201.27H145.8a1.83,1.83,0,0,0,.45,1.29,1.54,1.54,0,0,0,1.18.45,2.45,2.45,0,0,0,1.55-.55v.75a2.89,2.89,0,0,1-1.74.48,2.14,2.14,0,0,1-1.67-.68,2.83,2.83,0,0,1-.6-1.92,2.73,2.73,0,0,1,.66-1.9,2.12,2.12,0,0,1,1.64-.74,1.86,1.86,0,0,1,1.52.64,2.63,2.63,0,0,1,.54,1.76Zm-.82-.68a1.62,1.62,0,0,0-.34-1.08,1.1,1.1,0,0,0-.91-.38,1.28,1.28,0,0,0-1,.4,1.81,1.81,0,0,0-.49,1.06Z"/><path class="cls-6" d="M158.51,200.74c0,2-.89,2.95-2.66,2.95s-2.55-.95-2.55-2.84v-4.28h.82v4.23c0,1.43.6,2.15,1.82,2.15s1.75-.69,1.75-2.08v-4.3h.82Z"/><path class="cls-6" d="M165.9,203.57h-1L161.29,198a2.58,2.58,0,0,1-.22-.44h0a8.39,8.39,0,0,1,0,1v5.06h-.82v-7h1.06l3.51,5.49c.14.23.24.39.28.47h0a7.82,7.82,0,0,1,0-1v-4.93h.82Z"/><path class="cls-6" d="M168.56,203.57h-.82v-7h.82Z"/><path class="cls-6" d="M175.63,203.09a4.63,4.63,0,0,1-2.34.6,3.2,3.2,0,0,1-2.42-1,3.53,3.53,0,0,1-.93-2.56,3.64,3.64,0,0,1,1-2.67,3.5,3.5,0,0,1,2.6-1,4.41,4.41,0,0,1,1.92.37v.91a3.68,3.68,0,0,0-2-.54,2.52,2.52,0,0,0-1.93.81,3.39,3.39,0,0,0-.05,4.19,2.41,2.41,0,0,0,1.89.76,2.89,2.89,0,0,0,1.42-.33v-2h-1.53v-.74h2.35Z"/><path class="cls-6" d="M181,203.57h-3.71v-7h3.55v.74h-2.73v2.33h2.53v.74h-2.53v2.45H181Z"/><path class="cls-6" d="M74.91,218.28a4.19,4.19,0,0,1-1.94.41,3.1,3.1,0,0,1-2.39-1,3.54,3.54,0,0,1-.9-2.52,3.72,3.72,0,0,1,1-2.71,3.45,3.45,0,0,1,2.57-1,4.17,4.17,0,0,1,1.65.29v.87a3.38,3.38,0,0,0-1.66-.42,2.54,2.54,0,0,0-2,.81,3,3,0,0,0-.75,2.15,2.89,2.89,0,0,0,.7,2,2.38,2.38,0,0,0,1.84.76,3.51,3.51,0,0,0,1.83-.47Z"/><path class="cls-6" d="M76.24,220.16h-.71a6.44,6.44,0,0,0,1.52-4.27,6.58,6.58,0,0,0-1.53-4.32h.72a6.42,6.42,0,0,1,1.53,4.33A6.19,6.19,0,0,1,76.24,220.16Z"/><path class="cls-6" d="M82.09,218.57v-7H84q3.7,0,3.7,3.41a3.47,3.47,0,0,1-1,2.61,3.86,3.86,0,0,1-2.76,1Zm.82-6.26v5.52h1a3,3,0,0,0,2.15-.74,2.77,2.77,0,0,0,.76-2.09c0-1.79-1-2.69-2.86-2.69Z"/><path class="cls-6" d="M91.6,214.38a1,1,0,0,0-.61-.16,1,1,0,0,0-.85.48,2.22,2.22,0,0,0-.35,1.32v2.55H89v-5h.8v1h0a1.72,1.72,0,0,1,.53-.82,1.16,1.16,0,0,1,.78-.3,1.22,1.22,0,0,1,.48.07Z"/><path class="cls-6" d="M94.56,218.69a2.34,2.34,0,0,1-1.77-.7,2.61,2.61,0,0,1-.66-1.86,2.7,2.7,0,0,1,.69-2,2.46,2.46,0,0,1,1.86-.71,2.24,2.24,0,0,1,1.74.69,2.73,2.73,0,0,1,.63,1.91,2.7,2.7,0,0,1-.68,1.92A2.36,2.36,0,0,1,94.56,218.69Zm.06-4.56a1.51,1.51,0,0,0-1.22.52A2.15,2.15,0,0,0,93,216.1a2,2,0,0,0,.45,1.4,1.55,1.55,0,0,0,1.22.51,1.45,1.45,0,0,0,1.19-.5,2.18,2.18,0,0,0,.42-1.43,2.22,2.22,0,0,0-.42-1.45A1.48,1.48,0,0,0,94.62,214.13Z"/><path class="cls-6" d="M99.15,217.85h0v3h-.8v-7.3h.8v.88h0a2,2,0,0,1,3.24-.33,2.8,2.8,0,0,1,.54,1.8,3.13,3.13,0,0,1-.61,2,2,2,0,0,1-1.67.76A1.67,1.67,0,0,1,99.15,217.85Zm0-2v.7a1.48,1.48,0,0,0,.4,1.05,1.33,1.33,0,0,0,1,.43,1.36,1.36,0,0,0,1.15-.55,2.62,2.62,0,0,0,.41-1.55,2,2,0,0,0-.39-1.31,1.26,1.26,0,0,0-1-.47,1.44,1.44,0,0,0-1.13.48A1.81,1.81,0,0,0,99.13,215.83Z"/><path class="cls-6" d="M105,217.85h0v.72h-.8v-7.4h.8v3.28h0a1.88,1.88,0,0,1,1.73-1,1.84,1.84,0,0,1,1.5.67,2.74,2.74,0,0,1,.55,1.8,3.13,3.13,0,0,1-.61,2,2,2,0,0,1-1.67.76A1.65,1.65,0,0,1,105,217.85Zm0-2v.7a1.48,1.48,0,0,0,.4,1.05,1.44,1.44,0,0,0,2.16-.12,2.55,2.55,0,0,0,.42-1.55,2,2,0,0,0-.39-1.31,1.26,1.26,0,0,0-1-.47,1.44,1.44,0,0,0-1.13.48A1.81,1.81,0,0,0,105,215.83Z"/><path class="cls-6" d="M112.18,218.69a2.34,2.34,0,0,1-1.77-.7,2.62,2.62,0,0,1-.67-1.86,2.7,2.7,0,0,1,.69-2,2.49,2.49,0,0,1,1.86-.71,2.25,2.25,0,0,1,1.75.69,2.73,2.73,0,0,1,.63,1.91A2.7,2.7,0,0,1,114,218,2.37,2.37,0,0,1,112.18,218.69Zm0-4.56a1.52,1.52,0,0,0-1.22.52,2.15,2.15,0,0,0-.45,1.45,2.05,2.05,0,0,0,.46,1.4,1.54,1.54,0,0,0,1.21.51,1.46,1.46,0,0,0,1.2-.5,2.18,2.18,0,0,0,.42-1.43,2.22,2.22,0,0,0-.42-1.45A1.49,1.49,0,0,0,112.23,214.13Z"/><path class="cls-6" d="M119.6,213.57l-1.68,2.53,1.65,2.47h-.93l-1-1.62-.22-.38h0s-.1.15-.23.38l-1,1.62h-.92l1.71-2.45-1.63-2.55h.93l1,1.71a3.72,3.72,0,0,1,.21.39h0l1.25-2.1Z"/><path class="cls-6" d="M123.68,212.3a.49.49,0,0,1-.36-.15.48.48,0,0,1-.15-.37.5.5,0,0,1,.15-.37.49.49,0,0,1,.36-.15.52.52,0,0,1,.38.15.53.53,0,0,1,0,.74A.52.52,0,0,1,123.68,212.3Zm.4,6.27h-.81v-5h.81Z"/><path class="cls-6" d="M129.85,218.57h-.8v-2.85q0-1.59-1.17-1.59a1.25,1.25,0,0,0-1,.45,1.68,1.68,0,0,0-.39,1.14v2.85h-.8v-5h.8v.83h0a1.8,1.8,0,0,1,1.64-1,1.54,1.54,0,0,1,1.25.53,2.36,2.36,0,0,1,.44,1.53Z"/><path class="cls-6" d="M131.05,218.39v-.86a2.4,2.4,0,0,0,1.44.48c.71,0,1.06-.23,1.06-.7a.62.62,0,0,0-.09-.34,1,1,0,0,0-.25-.25,2,2,0,0,0-.36-.19l-.44-.18a5.71,5.71,0,0,1-.59-.26,1.53,1.53,0,0,1-.42-.31,1.19,1.19,0,0,1-.25-.38,1.28,1.28,0,0,1-.09-.5,1.24,1.24,0,0,1,.16-.62,1.35,1.35,0,0,1,.43-.46,2.34,2.34,0,0,1,.62-.28,2.76,2.76,0,0,1,.71-.09,2.86,2.86,0,0,1,1.16.23v.81a2.27,2.27,0,0,0-1.27-.36,1.32,1.32,0,0,0-.41.05,1,1,0,0,0-.31.14.83.83,0,0,0-.2.22.73.73,0,0,0-.07.29.81.81,0,0,0,.07.33.9.9,0,0,0,.21.23,1.69,1.69,0,0,0,.33.19l.45.18a4.72,4.72,0,0,1,.59.26,2,2,0,0,1,.45.3,1.11,1.11,0,0,1,.29.39,1.21,1.21,0,0,1,.1.52,1.36,1.36,0,0,1-.16.65,1.45,1.45,0,0,1-.44.45,2,2,0,0,1-.63.27,3.08,3.08,0,0,1-.75.09A2.85,2.85,0,0,1,131.05,218.39Z"/><path class="cls-6" d="M137.92,218.52a1.61,1.61,0,0,1-.75.16c-.87,0-1.31-.49-1.31-1.47v-3H135v-.68h.86v-1.22l.8-.26v1.48h1.26v.68h-1.26v2.82a1.19,1.19,0,0,0,.17.72.68.68,0,0,0,.57.21.85.85,0,0,0,.52-.16Z"/><path class="cls-6" d="M139.4,212.3a.5.5,0,0,1-.37-.15.48.48,0,0,1-.15-.37.51.51,0,0,1,.52-.52.51.51,0,0,1,.37.15.53.53,0,0,1,0,.74A.51.51,0,0,1,139.4,212.3Zm.39,6.27H139v-5h.8Z"/><path class="cls-6" d="M143.73,218.52a1.61,1.61,0,0,1-.75.16c-.87,0-1.31-.49-1.31-1.47v-3h-.86v-.68h.86v-1.22l.8-.26v1.48h1.26v.68h-1.26v2.82a1.19,1.19,0,0,0,.17.72.68.68,0,0,0,.57.21.85.85,0,0,0,.52-.16Z"/><path class="cls-6" d="M148.84,218.57H148v-.79h0a1.66,1.66,0,0,1-1.54.91c-1.19,0-1.79-.71-1.79-2.13v-3h.8v2.86c0,1.06.4,1.58,1.21,1.58a1.21,1.21,0,0,0,1-.43,1.66,1.66,0,0,0,.38-1.13v-2.88h.8Z"/><path class="cls-6" d="M152.78,218.52a1.61,1.61,0,0,1-.75.16c-.88,0-1.31-.49-1.31-1.47v-3h-.86v-.68h.86v-1.22l.8-.26v1.48h1.26v.68h-1.26v2.82a1.12,1.12,0,0,0,.17.72.68.68,0,0,0,.56.21.86.86,0,0,0,.53-.16Z"/><path class="cls-6" d="M154.26,212.3a.5.5,0,0,1-.37-.15.48.48,0,0,1-.15-.37.51.51,0,0,1,.52-.52.51.51,0,0,1,.37.15.53.53,0,0,1,0,.74A.51.51,0,0,1,154.26,212.3Zm.39,6.27h-.8v-5h.8Z"/><path class="cls-6" d="M158.36,218.69a2.34,2.34,0,0,1-1.77-.7,2.61,2.61,0,0,1-.66-1.86,2.74,2.74,0,0,1,.68-2,2.49,2.49,0,0,1,1.86-.71,2.25,2.25,0,0,1,1.75.69,2.73,2.73,0,0,1,.63,1.91,2.7,2.7,0,0,1-.68,1.92A2.36,2.36,0,0,1,158.36,218.69Zm.06-4.56a1.51,1.51,0,0,0-1.22.52,2.15,2.15,0,0,0-.45,1.45,2,2,0,0,0,.45,1.4,1.55,1.55,0,0,0,1.22.51,1.45,1.45,0,0,0,1.19-.5,2.18,2.18,0,0,0,.42-1.43,2.22,2.22,0,0,0-.42-1.45A1.48,1.48,0,0,0,158.42,214.13Z"/><path class="cls-6" d="M166.28,218.57h-.8v-2.85q0-1.59-1.17-1.59a1.25,1.25,0,0,0-1,.45,1.68,1.68,0,0,0-.39,1.14v2.85h-.8v-5h.8v.83h0a1.81,1.81,0,0,1,1.64-1,1.54,1.54,0,0,1,1.25.53,2.36,2.36,0,0,1,.44,1.53Z"/><path class="cls-6" d="M171.94,218.57h-.8v-2.85q0-1.59-1.17-1.59a1.25,1.25,0,0,0-1,.45,1.68,1.68,0,0,0-.39,1.14v2.85h-.8v-5h.8v.83h0a1.8,1.8,0,0,1,1.64-1,1.54,1.54,0,0,1,1.25.53,2.36,2.36,0,0,1,.44,1.53Z"/><path class="cls-6" d="M177.46,216.27h-3.53a1.93,1.93,0,0,0,.45,1.29,1.56,1.56,0,0,0,1.18.45,2.46,2.46,0,0,0,1.56-.55v.75a2.9,2.9,0,0,1-1.75.48,2.12,2.12,0,0,1-1.66-.68,2.83,2.83,0,0,1-.61-1.92,2.69,2.69,0,0,1,.67-1.9,2.11,2.11,0,0,1,1.64-.74,1.87,1.87,0,0,1,1.52.64,2.62,2.62,0,0,1,.53,1.76Zm-.82-.68a1.62,1.62,0,0,0-.33-1.08,1.14,1.14,0,0,0-.92-.38,1.31,1.31,0,0,0-1,.4,1.94,1.94,0,0,0-.49,1.06Z"/><path class="cls-6" d="M179.48,218.57h-.81v-7.4h.81Z"/><path class="cls-6" d="M75.16,254.57h-1l-1.17-2a4.26,4.26,0,0,0-.31-.47,1.81,1.81,0,0,0-.31-.31.86.86,0,0,0-.34-.18,1.37,1.37,0,0,0-.42-.06H71v3h-.82v-7h2.09a3.24,3.24,0,0,1,.85.11,1.86,1.86,0,0,1,.67.35,1.66,1.66,0,0,1,.45.59,2.11,2.11,0,0,1,0,1.48,1.74,1.74,0,0,1-.31.55,2.18,2.18,0,0,1-.49.41,2.6,2.6,0,0,1-.64.26v0a1.49,1.49,0,0,1,.3.18,1.34,1.34,0,0,1,.25.23c.08.09.15.2.23.31l.26.4ZM71,248.31v2.54h1.11a1.7,1.7,0,0,0,.57-.09,1.28,1.28,0,0,0,.75-.69,1.48,1.48,0,0,0,.11-.57,1.12,1.12,0,0,0-.36-.88,1.6,1.6,0,0,0-1.06-.31Z"/><path class="cls-6" d="M79.74,252.27H76.21a1.83,1.83,0,0,0,.45,1.29,1.56,1.56,0,0,0,1.18.45,2.45,2.45,0,0,0,1.55-.55v.75a2.89,2.89,0,0,1-1.74.48A2.14,2.14,0,0,1,76,254a2.83,2.83,0,0,1-.6-1.92,2.73,2.73,0,0,1,.66-1.9,2.12,2.12,0,0,1,1.64-.74,1.86,1.86,0,0,1,1.52.64,2.63,2.63,0,0,1,.54,1.76Zm-.82-.68a1.62,1.62,0,0,0-.34-1.08,1.12,1.12,0,0,0-.91-.38,1.28,1.28,0,0,0-1,.4,1.81,1.81,0,0,0-.49,1.06ZM78.79,247l-1.28,1.6h-.62L78,247Z"/><path class="cls-6" d="M81.77,253.85h0v3H81v-7.3h.8v.88h0a1.88,1.88,0,0,1,1.73-1,1.86,1.86,0,0,1,1.51.67,2.8,2.8,0,0,1,.54,1.8,3.07,3.07,0,0,1-.61,2,2,2,0,0,1-1.67.76A1.67,1.67,0,0,1,81.77,253.85Zm0-2v.7a1.53,1.53,0,0,0,.4,1.05,1.45,1.45,0,0,0,2.17-.12,2.62,2.62,0,0,0,.41-1.55,2,2,0,0,0-.39-1.31,1.24,1.24,0,0,0-1-.47,1.41,1.41,0,0,0-1.12.48A1.77,1.77,0,0,0,81.75,251.83Z"/><path class="cls-6" d="M88.92,254.69a2.34,2.34,0,0,1-1.77-.7,2.61,2.61,0,0,1-.66-1.86,2.7,2.7,0,0,1,.69-2,2.47,2.47,0,0,1,1.86-.71,2.24,2.24,0,0,1,1.74.69,2.73,2.73,0,0,1,.63,1.91,2.7,2.7,0,0,1-.68,1.92A2.36,2.36,0,0,1,88.92,254.69Zm.06-4.56a1.51,1.51,0,0,0-1.22.52,2.15,2.15,0,0,0-.45,1.45,2,2,0,0,0,.45,1.4A1.55,1.55,0,0,0,89,254a1.44,1.44,0,0,0,1.19-.5,2.18,2.18,0,0,0,.42-1.43,2.22,2.22,0,0,0-.42-1.45A1.47,1.47,0,0,0,89,250.13Z"/><path class="cls-6" d="M96.84,254.57H96v-2.85c0-1.06-.39-1.59-1.16-1.59a1.27,1.27,0,0,0-1,.45,1.68,1.68,0,0,0-.39,1.14v2.85h-.8v-5h.8v.83h0a1.81,1.81,0,0,1,1.64-1,1.53,1.53,0,0,1,1.25.53,2.36,2.36,0,0,1,.44,1.53Z"/><path class="cls-6" d="M98.05,254.39v-.86a2.35,2.35,0,0,0,1.44.48c.7,0,1.05-.23,1.05-.7a.62.62,0,0,0-.09-.34,1.12,1.12,0,0,0-.24-.25,2.55,2.55,0,0,0-.37-.19l-.44-.18c-.22-.09-.42-.17-.59-.26a1.9,1.9,0,0,1-.42-.31,1.19,1.19,0,0,1-.25-.38,1.28,1.28,0,0,1-.09-.5,1.15,1.15,0,0,1,.17-.62,1.26,1.26,0,0,1,.43-.46,2.14,2.14,0,0,1,.61-.28,2.76,2.76,0,0,1,.71-.09,2.86,2.86,0,0,1,1.16.23v.81a2.27,2.27,0,0,0-1.27-.36,1.25,1.25,0,0,0-.4.05.89.89,0,0,0-.31.14.6.6,0,0,0-.27.51.67.67,0,0,0,.07.33.7.7,0,0,0,.2.23,1.79,1.79,0,0,0,.34.19l.44.18a5.68,5.68,0,0,1,.6.26,2.12,2.12,0,0,1,.44.3,1.11,1.11,0,0,1,.29.39,1.21,1.21,0,0,1,.1.52,1.25,1.25,0,0,1-.16.65,1.45,1.45,0,0,1-.44.45,2,2,0,0,1-.63.27,3.08,3.08,0,0,1-.75.09A2.78,2.78,0,0,1,98.05,254.39Z"/><path class="cls-6" d="M106.61,252.27h-3.53a1.83,1.83,0,0,0,.45,1.29,1.56,1.56,0,0,0,1.18.45,2.45,2.45,0,0,0,1.55-.55v.75a2.89,2.89,0,0,1-1.74.48,2.14,2.14,0,0,1-1.67-.68,2.83,2.83,0,0,1-.6-1.92,2.73,2.73,0,0,1,.66-1.9,2.12,2.12,0,0,1,1.64-.74,1.86,1.86,0,0,1,1.52.64,2.63,2.63,0,0,1,.54,1.76Zm-.82-.68a1.62,1.62,0,0,0-.34-1.08,1.1,1.1,0,0,0-.91-.38,1.28,1.28,0,0,0-1,.4,1.81,1.81,0,0,0-.49,1.06Z"/><path class="cls-6" d="M110.84,250.55a.54.54,0,0,1-.39-.17.56.56,0,0,1,0-.76.56.56,0,0,1,.78,0,.53.53,0,0,1,0,.76A.54.54,0,0,1,110.84,250.55Zm0,4.13a.57.57,0,0,1-.39-.16.58.58,0,0,1,0-.78.55.55,0,0,1,.78.78A.57.57,0,0,1,110.84,254.68Z"/><path class="cls-6" d="M115.57,254.57v-7h2A2.23,2.23,0,0,1,119,248a1.45,1.45,0,0,1,.53,1.16,1.69,1.69,0,0,1-1.21,1.66v0a1.75,1.75,0,0,1,1.13.53,1.68,1.68,0,0,1,.43,1.18,1.82,1.82,0,0,1-.65,1.45,2.4,2.4,0,0,1-1.62.56Zm.82-6.26v2.26h.84a1.62,1.62,0,0,0,1.06-.32,1.14,1.14,0,0,0,.39-.92c0-.68-.45-1-1.34-1Zm0,3v2.52h1.12a1.72,1.72,0,0,0,1.12-.34,1.19,1.19,0,0,0,.4-.94c0-.83-.57-1.24-1.69-1.24Z"/><text class="cls-7" transform="translate(101.59 117.11)">Choix multiple</text><line class="cls-8" x1="54" x2="54" y2="36"/><line class="cls-8" y1="54" x2="36" y2="54"/><line class="cls-8" y1="307.96" x2="36" y2="307.96"/><line class="cls-8" x1="54" y1="361.96" x2="54" y2="325.96"/><line class="cls-8" x1="236.83" x2="236.83" y2="36"/><line class="cls-8" x1="290.83" y1="54" x2="254.83" y2="54"/><line class="cls-8" x1="290.83" y1="307.96" x2="254.83" y2="307.96"/><line class="cls-8" x1="236.83" y1="361.96" x2="236.83" y2="325.96"/></svg>