<svg id="Calque_1" data-name="Calque 1" xmlns="http://www.w3.org/2000/svg" viewBox="0 0 290.83 361.96"><defs><style>.cls-1,.cls-8{fill:#302d7e;}.cls-2,.cls-3,.cls-4{fill:#fff;}.cls-3{font-size:19.62px;font-family:TwCenMT-CondensedExtraBold, Tw Cen MT Condensed Extra Bold;font-weight:800;}.cls-4{stroke:#fff;stroke-miterlimit:10;stroke-width:0.25px;}.cls-5{opacity:0.2;}.cls-6{font-size:10px;fill:#000100;font-family:SegoeUI, Segoe UI;}.cls-7{letter-spacing:-0.03em;}.cls-8{font-size:12px;font-family:SegoeUI-Bold, Segoe UI;font-weight:700;}.cls-9{fill:none;stroke:#000;stroke-width:0.3px;}</style></defs><title>Carte_bleue_30</title><rect class="cls-1" x="43.38" y="39.25" width="204.07" height="283.46" rx="22.14"/><path class="cls-2" d="M77.4,95.37h136a17,17,0,0,1,17,17V279.58a17,17,0,0,1-17,17.05H77.4a17,17,0,0,1-17-17.05V112.42A17,17,0,0,1,77.4,95.37Z"/><text class="cls-3" transform="translate(88.46 80.71)"><tspan xml:space="preserve">Escape the   ab</tspan></text><path class="cls-4" d="M178.72,63.1l-6.4,0a.82.82,0,0,0-.55.24.75.75,0,0,0-.22.55.76.76,0,0,0,.23.55.83.83,0,0,0,.46.22L172.35,78a3.29,3.29,0,1,0,6.57,0l-.1-13.28a.78.78,0,0,0,.47-.23.8.8,0,0,0,.22-.55.77.77,0,0,0-.79-.77Zm.27.77a.32.32,0,0,1-.07.19.26.26,0,0,1-.19.07h-.23l-3.92,0a.25.25,0,0,0-.26.26.26.26,0,0,0,.26.26l3.72,0,.1,13.28a2.72,2.72,0,0,1-.79,2A2.76,2.76,0,0,1,172.87,78l-.11-13.28h.78a.27.27,0,0,0,.26-.27.26.26,0,0,0-.26-.25h-1s0,0-.05,0h-.17a.26.26,0,0,1-.19-.07.26.26,0,0,1-.07-.18.26.26,0,0,1,.07-.19.25.25,0,0,1,.18-.08l6.41,0a.25.25,0,0,1,.26.25Z"/><path class="cls-4" d="M177.57,71a1,1,0,0,0-.64.22.5.5,0,0,1-.35.13.5.5,0,0,1-.35-.12,1,1,0,0,0-.65-.22,1,1,0,0,0-.64.23.52.52,0,0,1-.35.13.5.5,0,0,1-.35-.13,1.08,1.08,0,0,0-.65-.21.27.27,0,0,0-.26.26l0,2.83a.27.27,0,0,0,.27.26.25.25,0,0,0,.25-.26V71.59l.09.06a1,1,0,0,0,.64.22,1.07,1.07,0,0,0,.65-.23.5.5,0,0,1,.35-.13.54.54,0,0,1,.35.13,1,1,0,0,0,.64.21,1,1,0,0,0,.65-.22.24.24,0,0,1,.09-.06l.05,6.37a1.74,1.74,0,1,1-3.47,0l0-2.83a.26.26,0,0,0-.26-.26.26.26,0,0,0-.26.26l0,2.83a2.26,2.26,0,0,0,2.27,2.24,2.25,2.25,0,0,0,2.24-2.27l-.06-6.68a.26.26,0,0,0-.24-.28Z"/><path class="cls-4" d="M176.29,66.75a.26.26,0,0,0,.26.26.25.25,0,0,1,.26.25.27.27,0,0,1-.08.19.23.23,0,0,1-.18.07.25.25,0,0,1-.26-.25.26.26,0,0,0-.52,0,.77.77,0,0,0,.78.77.75.75,0,0,0,.55-.23.76.76,0,0,0,.23-.55.78.78,0,0,0-.79-.77.24.24,0,0,0-.25.26Z"/><path class="cls-4" d="M175.13,69.9a.78.78,0,0,0,.22-.55.76.76,0,0,0-.23-.55.8.8,0,0,0-.55-.22.26.26,0,0,0-.26.26.26.26,0,0,0,.26.26.24.24,0,0,1,.26.26.26.26,0,0,1-.07.18.25.25,0,0,1-.18.08.27.27,0,0,1-.19-.08.25.25,0,0,1-.08-.18.26.26,0,0,0-.26-.26.26.26,0,0,0-.26.26.8.8,0,0,0,.79.78.82.82,0,0,0,.55-.24Z"/><g class="cls-5"><path class="cls-1" d="M120.91,167a22.72,22.72,0,0,1,45.44,0V204.4h15.17V167a37.9,37.9,0,0,0-75.79,0"/><path class="cls-1" d="M105.73,167"/><path class="cls-1" d="M156.21,226.25a12.52,12.52,0,1,1-12.52-12.52,12.53,12.53,0,0,1,12.52,12.52"/><path class="cls-1" d="M114,226.11a29.51,29.51,0,1,1,29.51,29.51A29.55,29.55,0,0,1,114,226.11m-15.17,0a44.69,44.69,0,1,0,44.68-44.68,44.73,44.73,0,0,0-44.68,44.68"/><line class="cls-1" x1="105.73" y1="166.96" x2="120.91" y2="166.96"/></g><text class="cls-6" transform="translate(69.1 138.7)">Quel terme désigne une revue <tspan x="0" y="12">dont tous les articles sont en </tspan><tspan x="0" y="24">accès libre ?</tspan><tspan x="0" y="39">A) Full Open Access</tspan><tspan x="0" y="54">B) Gold Open Access</tspan><tspan x="0" y="69">C) Green Open Access</tspan><tspan class="cls-7" x="0" y="105">R</tspan><tspan x="5.69" y="105">éponse : B</tspan></text><text class="cls-8" transform="translate(102.26 116.77)">Choix multiple</text><line class="cls-9" x1="54" x2="54" y2="36"/><line class="cls-9" y1="54" x2="36" y2="54"/><line class="cls-9" y1="307.96" x2="36" y2="307.96"/><line class="cls-9" x1="54" y1="361.96" x2="54" y2="325.96"/><line class="cls-9" x1="236.83" x2="236.83" y2="36"/><line class="cls-9" x1="290.83" y1="54" x2="254.83" y2="54"/><line class="cls-9" x1="290.83" y1="307.96" x2="254.83" y2="307.96"/><line class="cls-9" x1="236.83" y1="361.96" x2="236.83" y2="325.96"/></svg>