<svg id="Calque_1" data-name="Calque 1" xmlns="http://www.w3.org/2000/svg" viewBox="0 0 290.83 361.96"><defs><style>.cls-1,.cls-7{fill:#f9b233;}.cls-2,.cls-3,.cls-4{fill:#fff;}.cls-3{stroke:#fff;stroke-miterlimit:10;stroke-width:0.25px;}.cls-4{font-size:19.62px;font-family:TwCenMT-CondensedExtraBold, Tw Cen MT Condensed Extra Bold;font-weight:800;}.cls-5{opacity:0.4;}.cls-6{fill:#000100;}.cls-7{font-size:12px;font-family:SegoeUI-Bold, Segoe UI;font-weight:700;}.cls-8{letter-spacing:-0.04em;}.cls-9{letter-spacing:-0.03em;}.cls-10{fill:none;stroke:#000;stroke-width:0.3px;}</style></defs><title>Carte_jaune_3</title><path class="cls-1" d="M65.52,39.25H225.31a22.09,22.09,0,0,1,22.14,22.14V300.57a22.1,22.1,0,0,1-22.14,22.14H65.52a22.1,22.1,0,0,1-22.14-22.14V61.39A22.09,22.09,0,0,1,65.52,39.25Z"/><path class="cls-2" d="M77.4,94h136a17,17,0,0,1,17,17.05V278.17a17,17,0,0,1-17,17.05H77.4a17,17,0,0,1-17-17.05V111A17,17,0,0,1,77.4,94Z"/><path class="cls-3" d="M178.49,64.13l-6.41.05a.76.76,0,0,0-.55.23.82.82,0,0,0-.22.55.75.75,0,0,0,.23.55.77.77,0,0,0,.47.22l.1,13.29a3.29,3.29,0,0,0,5.63,2.28,3.23,3.23,0,0,0,.94-2.33l-.1-13.29a.76.76,0,0,0,.69-.78.77.77,0,0,0-.78-.77Zm.26.78a.24.24,0,0,1-.07.18.27.27,0,0,1-.19.08h-.23l-3.92,0a.26.26,0,0,0-.26.26.26.26,0,0,0,.26.26l3.72,0L178.17,79a2.79,2.79,0,0,1-.8,2A2.77,2.77,0,0,1,172.63,79l-.1-13.28h.78a.26.26,0,0,0,0-.52h-1.21a.27.27,0,0,1-.19-.08.29.29,0,0,1-.07-.18.24.24,0,0,1,.07-.18.27.27,0,0,1,.18-.08l6.41,0a.26.26,0,0,1,.26.26Z"/><path class="cls-3" d="M177.33,72a1,1,0,0,0-.64.23.54.54,0,0,1-.7,0,1.05,1.05,0,0,0-.65-.21,1,1,0,0,0-.64.22.5.5,0,0,1-.35.13.5.5,0,0,1-.35-.12,1,1,0,0,0-.65-.22.25.25,0,0,0-.18.08.27.27,0,0,0-.08.19l0,2.83a.26.26,0,0,0,.26.26.27.27,0,0,0,.26-.27l0-2.5.09.06a1,1,0,0,0,.64.21,1,1,0,0,0,.65-.22.5.5,0,0,1,.35-.13.53.53,0,0,1,.35.12,1,1,0,0,0,.64.22,1,1,0,0,0,.65-.23l.09-.06,0,6.38a1.77,1.77,0,0,1-.5,1.23,1.71,1.71,0,0,1-1.22.51A1.73,1.73,0,0,1,173.66,79l0-2.83a.26.26,0,0,0-.26-.26.27.27,0,0,0-.26.27l0,2.83a2.24,2.24,0,0,0,2.26,2.23,2.22,2.22,0,0,0,1.59-.67,2.26,2.26,0,0,0,.65-1.6l-.05-6.68a.28.28,0,0,0-.25-.28Z"/><path class="cls-3" d="M176.05,67.78a.25.25,0,0,0,.26.26.26.26,0,0,1,.26.26.29.29,0,0,1-.07.18.27.27,0,0,1-.19.08.26.26,0,0,1-.26-.26.26.26,0,1,0-.52,0,.79.79,0,0,0,.79.77.77.77,0,0,0,.77-.79.78.78,0,0,0-.79-.77.26.26,0,0,0-.25.26Z"/><path class="cls-3" d="M174.89,70.94a.73.73,0,0,0,.22-.55.75.75,0,0,0-.23-.55.76.76,0,0,0-.55-.23.26.26,0,0,0-.26.26.26.26,0,0,0,.26.26.27.27,0,0,1,.19.08.24.24,0,0,1,.07.18.21.21,0,0,1-.07.18.25.25,0,0,1-.18.08.24.24,0,0,1-.26-.26.27.27,0,0,0-.27-.25.24.24,0,0,0-.25.26.77.77,0,0,0,.78.77.76.76,0,0,0,.55-.23Z"/><text class="cls-4" transform="translate(88.22 81.75)"><tspan xml:space="preserve">Escape the   ab</tspan></text><g class="cls-5"><path class="cls-1" d="M120.67,166a22.72,22.72,0,0,1,45.44,0v37.44h15.17V166a37.9,37.9,0,0,0-75.79,0"/><path class="cls-1" d="M105.49,166"/><path class="cls-1" d="M156,225.27a12.52,12.52,0,1,1-12.52-12.53A12.53,12.53,0,0,1,156,225.27"/><path class="cls-1" d="M113.79,225.13a29.51,29.51,0,1,1,29.51,29.51,29.55,29.55,0,0,1-29.51-29.51m-15.17,0a44.69,44.69,0,1,0,44.68-44.68,44.74,44.74,0,0,0-44.68,44.68"/><line class="cls-1" x1="105.49" y1="165.98" x2="120.67" y2="165.98"/></g><path class="cls-6" d="M73.54,136.25H69.91v-7h.82v6.26h2.81Z"/><path class="cls-6" d="M78.53,134H75a1.83,1.83,0,0,0,.45,1.29,1.55,1.55,0,0,0,1.18.46,2.46,2.46,0,0,0,1.55-.56v.75a2.89,2.89,0,0,1-1.74.48,2.14,2.14,0,0,1-1.67-.68,2.81,2.81,0,0,1-.6-1.92,2.73,2.73,0,0,1,.66-1.9,2.12,2.12,0,0,1,1.64-.73,1.88,1.88,0,0,1,1.52.63,2.63,2.63,0,0,1,.54,1.76Zm-.82-.68a1.63,1.63,0,0,0-.34-1.07,1.12,1.12,0,0,0-.91-.39,1.28,1.28,0,0,0-1,.4,1.81,1.81,0,0,0-.49,1.06Z"/><path class="cls-6" d="M83.3,135.53h0v3h-.8v-7.3h.8v.88h0a1.89,1.89,0,0,1,1.73-1,1.84,1.84,0,0,1,1.51.67,2.76,2.76,0,0,1,.54,1.8,3.17,3.17,0,0,1-.61,2,2,2,0,0,1-1.67.75A1.67,1.67,0,0,1,83.3,135.53Zm0-2v.7a1.45,1.45,0,0,0,.4,1,1.42,1.42,0,0,0,2.16-.12,2.53,2.53,0,0,0,.42-1.55,2,2,0,0,0-.39-1.31,1.28,1.28,0,0,0-1-.47,1.42,1.42,0,0,0-1.13.49A1.78,1.78,0,0,0,83.28,133.51Z"/><path class="cls-6" d="M91,132.06a1.07,1.07,0,0,0-1.46.33,2.21,2.21,0,0,0-.34,1.31v2.55h-.8v-5h.8v1h0a1.76,1.76,0,0,1,.52-.82,1.18,1.18,0,0,1,.79-.3,1.41,1.41,0,0,1,.47.07Z"/><path class="cls-6" d="M92.24,130a.52.52,0,0,1-.36-.14.5.5,0,0,1-.15-.37.52.52,0,0,1,.15-.38.49.49,0,0,1,.36-.15.54.54,0,0,1,.38.15.52.52,0,0,1,.15.38.49.49,0,0,1-.15.36A.54.54,0,0,1,92.24,130Zm.39,6.27h-.8v-5h.8Z"/><path class="cls-6" d="M98.41,136.25H97.6V133.4c0-1.06-.38-1.59-1.16-1.59a1.25,1.25,0,0,0-1,.45,1.68,1.68,0,0,0-.39,1.14v2.85h-.8v-5h.8v.83h0a1.79,1.79,0,0,1,1.64-.94,1.51,1.51,0,0,1,1.25.53,2.35,2.35,0,0,1,.44,1.53Z"/><path class="cls-6" d="M103.32,136a2.6,2.6,0,0,1-1.36.35,2.25,2.25,0,0,1-1.73-.7,2.5,2.5,0,0,1-.66-1.8,2.8,2.8,0,0,1,.71-2,2.5,2.5,0,0,1,1.89-.74,2.64,2.64,0,0,1,1.16.24v.82a2,2,0,0,0-1.19-.39,1.61,1.61,0,0,0-1.26.55,2.11,2.11,0,0,0-.49,1.44,2,2,0,0,0,.46,1.39,1.59,1.59,0,0,0,1.24.51,2,2,0,0,0,1.23-.44Z"/><path class="cls-6" d="M104.94,130a.52.52,0,0,1-.36-.14.5.5,0,0,1-.15-.37.52.52,0,0,1,.15-.38.49.49,0,0,1,.36-.15.54.54,0,0,1,.38.15.52.52,0,0,1,.15.38.49.49,0,0,1-.15.36A.54.54,0,0,1,104.94,130Zm.39,6.27h-.8v-5h.8Z"/><path class="cls-6" d="M107.78,135.53h0v3H107v-7.3h.8v.88h0a1.89,1.89,0,0,1,1.72-1,1.82,1.82,0,0,1,1.51.67,2.76,2.76,0,0,1,.55,1.8,3.11,3.11,0,0,1-.62,2,2,2,0,0,1-1.67.75A1.67,1.67,0,0,1,107.78,135.53Zm0-2v.7a1.45,1.45,0,0,0,.4,1,1.42,1.42,0,0,0,2.16-.12,2.53,2.53,0,0,0,.42-1.55,2,2,0,0,0-.39-1.31,1.3,1.3,0,0,0-1-.47,1.4,1.4,0,0,0-1.12.49A1.78,1.78,0,0,0,107.76,133.51Z"/><path class="cls-6" d="M116.41,136.25h-.8v-.78h0a1.67,1.67,0,0,1-1.53.9,1.61,1.61,0,0,1-1.17-.4,1.34,1.34,0,0,1-.43-1.05c0-.93.55-1.47,1.65-1.63l1.5-.21c0-.85-.34-1.27-1-1.27a2.47,2.47,0,0,0-1.63.61v-.82a3.12,3.12,0,0,1,1.7-.46c1.18,0,1.76.62,1.76,1.86Zm-.8-2.53-1.2.17a1.84,1.84,0,0,0-.84.28.79.79,0,0,0-.29.7.74.74,0,0,0,.27.59,1,1,0,0,0,.69.24,1.29,1.29,0,0,0,1-.42,1.53,1.53,0,0,0,.38-1.06Z"/><path class="cls-6" d="M118.72,136.25h-.8v-7.4h.8Z"/><path class="cls-6" d="M125.17,136.37a2.31,2.31,0,0,1-1.77-.7,2.61,2.61,0,0,1-.66-1.86,2.72,2.72,0,0,1,.69-2,2.48,2.48,0,0,1,1.86-.7,2.24,2.24,0,0,1,1.75.68,2.78,2.78,0,0,1,.62,1.91,2.69,2.69,0,0,1-.67,1.92A2.38,2.38,0,0,1,125.17,136.37Zm.06-4.56a1.52,1.52,0,0,0-1.22.52,2.17,2.17,0,0,0-.45,1.45,2,2,0,0,0,.46,1.4,1.5,1.5,0,0,0,1.21.52,1.47,1.47,0,0,0,1.2-.51,2.21,2.21,0,0,0,.41-1.43,2.26,2.26,0,0,0-.41-1.44A1.47,1.47,0,0,0,125.23,131.81Z"/><path class="cls-6" d="M129.76,135.53h0v.72h-.8v-7.4h.8v3.28h0a1.9,1.9,0,0,1,1.73-1,1.83,1.83,0,0,1,1.51.67,2.76,2.76,0,0,1,.54,1.8,3.11,3.11,0,0,1-.61,2,2,2,0,0,1-1.67.75A1.65,1.65,0,0,1,129.76,135.53Zm0-2v.7a1.46,1.46,0,0,0,.41,1,1.34,1.34,0,0,0,1,.44,1.36,1.36,0,0,0,1.14-.56,2.6,2.6,0,0,0,.41-1.55,2.06,2.06,0,0,0-.38-1.31,1.3,1.3,0,0,0-1.05-.47,1.4,1.4,0,0,0-1.12.49A1.79,1.79,0,0,0,129.74,133.51Z"/><path class="cls-6" d="M135.62,136a3.14,3.14,0,0,1-.49,1.9,1.68,1.68,0,0,1-1.42.67,1.61,1.61,0,0,1-.67-.16v-.75a1.32,1.32,0,0,0,.69.22c.73,0,1.09-.58,1.09-1.75v-4.92h.8Zm-.39-6.06a.52.52,0,0,1-.36-.14.51.51,0,0,1-.16-.37.53.53,0,0,1,.16-.38.49.49,0,0,1,.36-.15.54.54,0,0,1,.38.15.52.52,0,0,1,.15.38.49.49,0,0,1-.15.36A.54.54,0,0,1,135.23,130Z"/><path class="cls-6" d="M141.26,134h-3.53a1.88,1.88,0,0,0,.45,1.29,1.57,1.57,0,0,0,1.18.46,2.49,2.49,0,0,0,1.56-.56v.75a2.9,2.9,0,0,1-1.75.48,2.12,2.12,0,0,1-1.66-.68,2.77,2.77,0,0,1-.61-1.92,2.73,2.73,0,0,1,.66-1.9,2.12,2.12,0,0,1,1.65-.73,1.9,1.9,0,0,1,1.52.63,2.68,2.68,0,0,1,.53,1.76Zm-.82-.68a1.57,1.57,0,0,0-.33-1.07,1.14,1.14,0,0,0-.92-.39,1.28,1.28,0,0,0-1,.4,1.87,1.87,0,0,0-.49,1.06Z"/><path class="cls-6" d="M145.88,136a2.61,2.61,0,0,1-1.37.35,2.24,2.24,0,0,1-1.72-.7,2.5,2.5,0,0,1-.66-1.8,2.8,2.8,0,0,1,.71-2,2.5,2.5,0,0,1,1.89-.74,2.64,2.64,0,0,1,1.16.24v.82a2,2,0,0,0-1.19-.39,1.61,1.61,0,0,0-1.26.55,2.11,2.11,0,0,0-.49,1.44,2,2,0,0,0,.46,1.39,1.59,1.59,0,0,0,1.24.51,2,2,0,0,0,1.23-.44Z"/><path class="cls-6" d="M149.41,136.2a1.48,1.48,0,0,1-.74.16c-.88,0-1.32-.49-1.32-1.46v-3h-.86v-.69h.86V130l.8-.26v1.48h1.26v.69h-1.26v2.81a1.19,1.19,0,0,0,.17.72.72.72,0,0,0,.57.22.83.83,0,0,0,.52-.17Z"/><path class="cls-6" d="M150.89,130a.52.52,0,0,1-.36-.14.47.47,0,0,1-.16-.37.53.53,0,0,1,.52-.53.5.5,0,0,1,.37.15.49.49,0,0,1,.16.38.46.46,0,0,1-.16.36A.5.5,0,0,1,150.89,130Zm.39,6.27h-.8v-5h.8Z"/><path class="cls-6" d="M155.37,129.55a1.12,1.12,0,0,0-.53-.13c-.56,0-.84.35-.84,1.06v.77h1.17v.69H154v4.31h-.79v-4.31h-.86v-.69h.86v-.81a1.69,1.69,0,0,1,.45-1.24,1.55,1.55,0,0,1,1.13-.46,1.5,1.5,0,0,1,.58.09Z"/><path class="cls-6" d="M163,136.25h-.8v-.85h0a2,2,0,0,1-3.22.3,2.75,2.75,0,0,1-.57-1.83,3,3,0,0,1,.63-2,2,2,0,0,1,1.66-.74,1.6,1.6,0,0,1,1.5.81h0v-3.1h.8Zm-.8-2.26v-.74a1.41,1.41,0,0,0-.4-1,1.36,1.36,0,0,0-1-.42,1.39,1.39,0,0,0-1.15.54,2.33,2.33,0,0,0-.42,1.48,2.19,2.19,0,0,0,.4,1.37,1.33,1.33,0,0,0,1.09.5,1.38,1.38,0,0,0,1.08-.49A1.79,1.79,0,0,0,162.24,134Z"/><path class="cls-6" d="M168.68,134h-3.53a1.83,1.83,0,0,0,.45,1.29,1.55,1.55,0,0,0,1.18.46,2.46,2.46,0,0,0,1.55-.56v.75a2.89,2.89,0,0,1-1.74.48,2.14,2.14,0,0,1-1.67-.68,2.81,2.81,0,0,1-.6-1.92,2.73,2.73,0,0,1,.66-1.9,2.12,2.12,0,0,1,1.64-.73,1.88,1.88,0,0,1,1.52.63,2.63,2.63,0,0,1,.54,1.76Zm-.82-.68a1.53,1.53,0,0,0-.34-1.07,1.11,1.11,0,0,0-.91-.39,1.28,1.28,0,0,0-1,.4,1.81,1.81,0,0,0-.49,1.06Z"/><path class="cls-6" d="M169.59,136.07v-.86a2.36,2.36,0,0,0,1.44.49c.7,0,1.05-.24,1.05-.71a.64.64,0,0,0-.09-.34.91.91,0,0,0-.24-.24,2,2,0,0,0-.36-.2l-.45-.17a5.37,5.37,0,0,1-.58-.27,1.74,1.74,0,0,1-.42-.3,1.11,1.11,0,0,1-.26-.39,1.5,1.5,0,0,1-.08-.5,1.17,1.17,0,0,1,.16-.62,1.57,1.57,0,0,1,.43-.46,2,2,0,0,1,.61-.27,2.82,2.82,0,0,1,.71-.09,2.86,2.86,0,0,1,1.16.22v.81a2.25,2.25,0,0,0-1.27-.36,1.68,1.68,0,0,0-.4.05,1,1,0,0,0-.31.14.72.72,0,0,0-.2.23.53.53,0,0,0-.07.28.67.67,0,0,0,.07.33.66.66,0,0,0,.21.23,1.69,1.69,0,0,0,.33.19l.44.18a5.68,5.68,0,0,1,.6.26,2.52,2.52,0,0,1,.45.3,1.28,1.28,0,0,1,.28.39,1.21,1.21,0,0,1,.1.52,1.23,1.23,0,0,1-.16.65,1.35,1.35,0,0,1-.44.45,2,2,0,0,1-.63.27,2.94,2.94,0,0,1-.74.09A2.82,2.82,0,0,1,169.59,136.07Z"/><path class="cls-6" d="M177.28,130a.52.52,0,0,1-.36-.14.5.5,0,0,1-.15-.37.52.52,0,0,1,.15-.38.49.49,0,0,1,.36-.15.54.54,0,0,1,.38.15.52.52,0,0,1,.15.38.49.49,0,0,1-.15.36A.54.54,0,0,1,177.28,130Zm.39,6.27h-.8v-5h.8Z"/><path class="cls-6" d="M183.56,136.25h-.8v-.85h0a2,2,0,0,1-3.22.3,2.75,2.75,0,0,1-.57-1.83,3,3,0,0,1,.63-2,2,2,0,0,1,1.66-.74,1.6,1.6,0,0,1,1.5.81h0v-3.1h.8Zm-.8-2.26v-.74a1.41,1.41,0,0,0-.4-1,1.34,1.34,0,0,0-1-.42,1.39,1.39,0,0,0-1.16.54,2.33,2.33,0,0,0-.42,1.48,2.13,2.13,0,0,0,.41,1.37,1.33,1.33,0,0,0,1.08.5,1.36,1.36,0,0,0,1.08-.49A1.79,1.79,0,0,0,182.76,134Z"/><path class="cls-6" d="M189.2,134h-3.53a1.88,1.88,0,0,0,.45,1.29,1.57,1.57,0,0,0,1.18.46,2.49,2.49,0,0,0,1.56-.56v.75a2.9,2.9,0,0,1-1.75.48,2.12,2.12,0,0,1-1.66-.68,2.77,2.77,0,0,1-.61-1.92,2.73,2.73,0,0,1,.66-1.9,2.12,2.12,0,0,1,1.65-.73,1.9,1.9,0,0,1,1.52.63,2.68,2.68,0,0,1,.53,1.76Zm-.82-.68a1.57,1.57,0,0,0-.33-1.07,1.14,1.14,0,0,0-.92-.39,1.28,1.28,0,0,0-1,.4,1.87,1.87,0,0,0-.49,1.06Z"/><path class="cls-6" d="M194.56,136.25h-.8V133.4c0-1.06-.38-1.59-1.16-1.59a1.25,1.25,0,0,0-1,.45,1.64,1.64,0,0,0-.4,1.14v2.85h-.8v-5h.8v.83h0a1.81,1.81,0,0,1,1.64-.94,1.52,1.52,0,0,1,1.26.53,2.34,2.34,0,0,1,.43,1.53Z"/><path class="cls-6" d="M198.39,136.2a1.49,1.49,0,0,1-.75.16c-.87,0-1.31-.49-1.31-1.46v-3h-.86v-.69h.86V130l.8-.26v1.48h1.26v.69h-1.26v2.81a1.19,1.19,0,0,0,.17.72.72.72,0,0,0,.57.22.83.83,0,0,0,.52-.17Z"/><path class="cls-6" d="M199.87,130a.52.52,0,0,1-.36-.14.47.47,0,0,1-.16-.37.53.53,0,0,1,.52-.53.5.5,0,0,1,.37.15.49.49,0,0,1,.16.38.46.46,0,0,1-.16.36A.5.5,0,0,1,199.87,130Zm.39,6.27h-.8v-5h.8Z"/><path class="cls-6" d="M204.44,133.78h-2.66v-.63h2.66Z"/><path class="cls-6" d="M72.27,141.55a1.12,1.12,0,0,0-.53-.13c-.56,0-.84.35-.84,1.06v.77h1.17v.69H70.9v4.31h-.8v-4.31h-.85v-.69h.85v-.81a1.69,1.69,0,0,1,.46-1.24,1.55,1.55,0,0,1,1.13-.46,1.5,1.5,0,0,1,.58.09Z"/><path class="cls-6" d="M73.34,142a.52.52,0,0,1-.36-.14.47.47,0,0,1-.16-.37.53.53,0,0,1,.52-.53.54.54,0,0,1,.38.15.52.52,0,0,1,.15.38.49.49,0,0,1-.15.36A.54.54,0,0,1,73.34,142Zm.39,6.27h-.8v-5h.8Z"/><path class="cls-6" d="M78.93,148.25h-.8v-.78h0a1.68,1.68,0,0,1-1.54.9,1.65,1.65,0,0,1-1.17-.4,1.36,1.36,0,0,1-.42-1.05c0-.93.55-1.47,1.65-1.63l1.5-.21c0-.85-.34-1.27-1-1.27a2.47,2.47,0,0,0-1.63.61v-.82a3.12,3.12,0,0,1,1.7-.46c1.18,0,1.76.62,1.76,1.86Zm-.8-2.53-1.2.17a1.8,1.8,0,0,0-.84.28.79.79,0,0,0-.29.7.76.76,0,0,0,.26.59,1,1,0,0,0,.7.24,1.26,1.26,0,0,0,1-.42,1.49,1.49,0,0,0,.39-1.06Z"/><path class="cls-6" d="M84.59,148.25h-.8V145.4c0-1.06-.39-1.59-1.16-1.59a1.25,1.25,0,0,0-1,.45,1.64,1.64,0,0,0-.4,1.14v2.85h-.8v-5h.8v.83h0a1.81,1.81,0,0,1,1.64-.94,1.52,1.52,0,0,1,1.26.53,2.34,2.34,0,0,1,.43,1.53Z"/><path class="cls-6" d="M88.42,148.2a1.49,1.49,0,0,1-.75.16c-.87,0-1.31-.49-1.31-1.46v-3H85.5v-.69h.86V142l.8-.26v1.48h1.26v.69H87.16v2.81a1.19,1.19,0,0,0,.17.72.7.7,0,0,0,.57.22.85.85,0,0,0,.52-.17Z"/><path class="cls-6" d="M89.19,148.07v-.86a2.36,2.36,0,0,0,1.44.49c.7,0,1.05-.24,1.05-.71a.64.64,0,0,0-.09-.34.91.91,0,0,0-.24-.24,3.07,3.07,0,0,0-.36-.2l-.45-.17a5.37,5.37,0,0,1-.58-.27,1.74,1.74,0,0,1-.42-.3,1.11,1.11,0,0,1-.26-.39,1.28,1.28,0,0,1-.08-.5,1.17,1.17,0,0,1,.16-.62,1.57,1.57,0,0,1,.43-.46,2,2,0,0,1,.61-.27,2.82,2.82,0,0,1,.71-.09,2.86,2.86,0,0,1,1.16.22v.81a2.27,2.27,0,0,0-1.27-.36,1.62,1.62,0,0,0-.4.05.89.89,0,0,0-.31.14.62.62,0,0,0-.2.23.53.53,0,0,0-.07.28.67.67,0,0,0,.07.33.51.51,0,0,0,.21.23,1.69,1.69,0,0,0,.33.19l.44.18a5.68,5.68,0,0,1,.6.26,2.52,2.52,0,0,1,.45.3,1.28,1.28,0,0,1,.28.39,1.21,1.21,0,0,1,.1.52,1.23,1.23,0,0,1-.16.65,1.45,1.45,0,0,1-.44.45,2,2,0,0,1-.63.27,3.08,3.08,0,0,1-.75.09A2.78,2.78,0,0,1,89.19,148.07Z"/><path class="cls-6" d="M99.4,148.37a3.07,3.07,0,0,1-2.38-1,3.65,3.65,0,0,1-.9-2.56,3.85,3.85,0,0,1,.91-2.69,3.2,3.2,0,0,1,2.49-1,3,3,0,0,1,2.34,1,3.64,3.64,0,0,1,.88,2.55,3.83,3.83,0,0,1-.91,2.71A3.1,3.1,0,0,1,99.4,148.37Zm.06-6.49a2.25,2.25,0,0,0-1.79.79,3.54,3.54,0,0,0,0,4.17,2.18,2.18,0,0,0,1.75.79,2.3,2.3,0,0,0,1.82-.75,3.07,3.07,0,0,0,.66-2.1,3.23,3.23,0,0,0-.64-2.15A2.22,2.22,0,0,0,99.46,141.88Z"/><path class="cls-6" d="M109.14,148.25h-1l-1.17-2a5.49,5.49,0,0,0-.31-.47,2.27,2.27,0,0,0-.31-.31,1.24,1.24,0,0,0-.34-.18,1.37,1.37,0,0,0-.42-.06h-.67v3h-.82v-7h2.09a2.91,2.91,0,0,1,.85.12,1.93,1.93,0,0,1,.67.34,1.75,1.75,0,0,1,.45.59,2,2,0,0,1,.16.82,2.09,2.09,0,0,1-.11.67,1.84,1.84,0,0,1-.32.54,1.74,1.74,0,0,1-.48.41,2.52,2.52,0,0,1-.65.26v0a1.33,1.33,0,0,1,.31.18,1.41,1.41,0,0,1,.25.24c.07.09.15.19.23.31l.25.4Zm-4.2-6.26v2.54h1.11a1.7,1.7,0,0,0,.57-.09,1.13,1.13,0,0,0,.45-.27,1.08,1.08,0,0,0,.3-.42,1.48,1.48,0,0,0,.11-.57,1.07,1.07,0,0,0-.37-.87,1.55,1.55,0,0,0-1-.32Z"/><path class="cls-6" d="M114.72,148a4.12,4.12,0,0,1-1.93.41,3.11,3.11,0,0,1-2.39-1,3.56,3.56,0,0,1-.9-2.53,3.72,3.72,0,0,1,1-2.71,3.43,3.43,0,0,1,2.56-1,4.1,4.1,0,0,1,1.65.29v.88a3.33,3.33,0,0,0-1.66-.42,2.53,2.53,0,0,0-2,.8,3,3,0,0,0-.75,2.15,2.86,2.86,0,0,0,.7,2,2.38,2.38,0,0,0,1.84.76,3.36,3.36,0,0,0,1.82-.47Z"/><path class="cls-6" d="M117,148.25h-.82v-7H117Z"/><path class="cls-6" d="M118.81,148.25v-7h1.93q3.7,0,3.71,3.41a3.48,3.48,0,0,1-1,2.61,3.84,3.84,0,0,1-2.75,1Zm.82-6.26v5.52h1.05a3,3,0,0,0,2.14-.74,2.76,2.76,0,0,0,.77-2.09c0-1.79-1-2.69-2.86-2.69Z"/><path class="cls-6" d="M132.47,146h-3.53a1.93,1.93,0,0,0,.45,1.29,1.57,1.57,0,0,0,1.18.46,2.49,2.49,0,0,0,1.56-.56v.75a2.9,2.9,0,0,1-1.75.48,2.12,2.12,0,0,1-1.66-.68,2.82,2.82,0,0,1-.61-1.92,2.69,2.69,0,0,1,.67-1.9,2.1,2.1,0,0,1,1.64-.73,1.9,1.9,0,0,1,1.52.63,2.68,2.68,0,0,1,.53,1.76Zm-.82-.68a1.57,1.57,0,0,0-.33-1.07,1.14,1.14,0,0,0-.92-.39,1.29,1.29,0,0,0-1,.4,1.87,1.87,0,0,0-.49,1.06Z"/><path class="cls-6" d="M133.38,148.07v-.86a2.41,2.41,0,0,0,1.44.49c.71,0,1.06-.24,1.06-.71a.64.64,0,0,0-.09-.34.82.82,0,0,0-.25-.24,2,2,0,0,0-.36-.2l-.45-.17c-.22-.09-.41-.18-.58-.27a1.74,1.74,0,0,1-.42-.3,1.08,1.08,0,0,1-.25-.39,1.34,1.34,0,0,1,.07-1.12,1.57,1.57,0,0,1,.43-.46,2.1,2.1,0,0,1,.61-.27,3.07,3.07,0,0,1,1.88.13v.81a2.27,2.27,0,0,0-1.27-.36,1.7,1.7,0,0,0-.41.05,1,1,0,0,0-.31.14.87.87,0,0,0-.2.23.64.64,0,0,0-.07.28.81.81,0,0,0,.07.33.66.66,0,0,0,.21.23,1.69,1.69,0,0,0,.33.19l.45.18a4.72,4.72,0,0,1,.59.26,2,2,0,0,1,.45.3,1.32,1.32,0,0,1,.29.39,1.38,1.38,0,0,1,.1.52,1.23,1.23,0,0,1-.17.65,1.42,1.42,0,0,1-.43.45,2.22,2.22,0,0,1-.63.27,3.08,3.08,0,0,1-.75.09A2.82,2.82,0,0,1,133.38,148.07Z"/><path class="cls-6" d="M140.25,148.2a1.49,1.49,0,0,1-.75.16c-.88,0-1.31-.49-1.31-1.46v-3h-.86v-.69h.86V142l.8-.26v1.48h1.26v.69H139v2.81a1.12,1.12,0,0,0,.17.72.68.68,0,0,0,.56.22.86.86,0,0,0,.53-.17Z"/><path class="cls-6" d="M148.32,148.25h-.8v-.85h0a2,2,0,0,1-3.22.3,2.75,2.75,0,0,1-.57-1.83,3,3,0,0,1,.63-2,2,2,0,0,1,1.66-.74,1.6,1.6,0,0,1,1.5.81h0v-3.1h.8Zm-.8-2.26v-.74a1.41,1.41,0,0,0-.4-1,1.32,1.32,0,0,0-1-.42,1.39,1.39,0,0,0-1.16.54,2.33,2.33,0,0,0-.42,1.48,2.13,2.13,0,0,0,.41,1.37,1.33,1.33,0,0,0,1.08.5,1.36,1.36,0,0,0,1.08-.49A1.79,1.79,0,0,0,147.52,146Z"/><path class="cls-6" d="M154,146h-3.53a1.93,1.93,0,0,0,.45,1.29,1.57,1.57,0,0,0,1.18.46,2.49,2.49,0,0,0,1.56-.56v.75a2.9,2.9,0,0,1-1.75.48,2.12,2.12,0,0,1-1.66-.68,2.77,2.77,0,0,1-.61-1.92,2.73,2.73,0,0,1,.66-1.9,2.14,2.14,0,0,1,1.65-.73,1.9,1.9,0,0,1,1.52.63,2.68,2.68,0,0,1,.53,1.76Zm-.82-.68a1.57,1.57,0,0,0-.33-1.07,1.14,1.14,0,0,0-.92-.39,1.28,1.28,0,0,0-1,.4,1.87,1.87,0,0,0-.49,1.06Z"/><path class="cls-6" d="M162.18,148.25h-.8v-.85h0a2,2,0,0,1-3.22.3,2.75,2.75,0,0,1-.57-1.83,3,3,0,0,1,.63-2,2,2,0,0,1,1.66-.74,1.6,1.6,0,0,1,1.5.81h0v-3.1h.8Zm-.8-2.26v-.74a1.41,1.41,0,0,0-.4-1,1.36,1.36,0,0,0-1-.42,1.39,1.39,0,0,0-1.15.54,2.33,2.33,0,0,0-.42,1.48,2.19,2.19,0,0,0,.4,1.37,1.33,1.33,0,0,0,1.09.5,1.38,1.38,0,0,0,1.08-.49A1.79,1.79,0,0,0,161.38,146Z"/><path class="cls-6" d="M164.21,142a.52.52,0,0,1-.36-.14.51.51,0,0,1-.16-.37.53.53,0,0,1,.16-.38.49.49,0,0,1,.36-.15.54.54,0,0,1,.38.15.52.52,0,0,1,.15.38.49.49,0,0,1-.15.36A.54.54,0,0,1,164.21,142Zm.39,6.27h-.8v-5h.8Z"/><path class="cls-6" d="M165.92,148.07v-.86a2.41,2.41,0,0,0,1.44.49c.7,0,1.06-.24,1.06-.71a.64.64,0,0,0-.09-.34,1,1,0,0,0-.25-.24,2,2,0,0,0-.36-.2l-.45-.17c-.22-.09-.41-.18-.58-.27a1.74,1.74,0,0,1-.42-.3,1.08,1.08,0,0,1-.25-.39,1.28,1.28,0,0,1-.09-.5,1.17,1.17,0,0,1,.16-.62,1.57,1.57,0,0,1,.43-.46,2.1,2.1,0,0,1,.61-.27,2.82,2.82,0,0,1,.71-.09,2.87,2.87,0,0,1,1.17.22v.81a2.27,2.27,0,0,0-1.27-.36,1.7,1.7,0,0,0-.41.05,1,1,0,0,0-.31.14.87.87,0,0,0-.2.23.53.53,0,0,0-.07.28.67.67,0,0,0,.07.33.66.66,0,0,0,.21.23,1.69,1.69,0,0,0,.33.19l.45.18a4.72,4.72,0,0,1,.59.26,2,2,0,0,1,.45.3,1.52,1.52,0,0,1,.29.39,1.38,1.38,0,0,1,.1.52,1.23,1.23,0,0,1-.17.65,1.42,1.42,0,0,1-.43.45,2.22,2.22,0,0,1-.63.27,3.08,3.08,0,0,1-.75.09A2.82,2.82,0,0,1,165.92,148.07Z"/><path class="cls-6" d="M172.79,148.2a1.49,1.49,0,0,1-.75.16c-.88,0-1.31-.49-1.31-1.46v-3h-.86v-.69h.86V142l.8-.26v1.48h1.26v.69h-1.26v2.81a1.12,1.12,0,0,0,.17.72.68.68,0,0,0,.56.22.86.86,0,0,0,.53-.17Z"/><path class="cls-6" d="M174.27,142a.53.53,0,0,1-.37-.14.5.5,0,0,1-.15-.37.52.52,0,0,1,.15-.38.5.5,0,0,1,.37-.15.51.51,0,0,1,.37.15.52.52,0,0,1,.15.38.49.49,0,0,1-.15.36A.51.51,0,0,1,174.27,142Zm.39,6.27h-.8v-5h.8Z"/><path class="cls-6" d="M180.43,148.25h-.8V145.4c0-1.06-.39-1.59-1.16-1.59a1.26,1.26,0,0,0-1,.45,1.68,1.68,0,0,0-.39,1.14v2.85h-.8v-5h.8v.83h0a1.8,1.8,0,0,1,1.64-.94,1.5,1.5,0,0,1,1.25.53,2.35,2.35,0,0,1,.44,1.53Z"/><path class="cls-6" d="M186.2,147.85c0,1.84-.87,2.76-2.63,2.76a3.46,3.46,0,0,1-1.62-.36v-.8a3.24,3.24,0,0,0,1.61.47c1.23,0,1.84-.65,1.84-2v-.55h0a2,2,0,0,1-3.22.29,2.65,2.65,0,0,1-.57-1.79,3.09,3.09,0,0,1,.62-2,2,2,0,0,1,1.67-.75,1.62,1.62,0,0,1,1.5.81h0v-.7h.8Zm-.8-1.86v-.74a1.44,1.44,0,0,0-.4-1,1.33,1.33,0,0,0-1-.42,1.38,1.38,0,0,0-1.16.54,2.34,2.34,0,0,0-.42,1.51,2.08,2.08,0,0,0,.4,1.34,1.3,1.3,0,0,0,1.06.5,1.4,1.4,0,0,0,1.1-.48A1.8,1.8,0,0,0,185.4,146Z"/><path class="cls-6" d="M191.87,148.25h-.8v-.79h0a1.64,1.64,0,0,1-1.54.91c-1.2,0-1.79-.71-1.79-2.13v-3h.79v2.86c0,1.06.41,1.59,1.21,1.59a1.22,1.22,0,0,0,1-.44,1.64,1.64,0,0,0,.38-1.13v-2.88h.8Z"/><path class="cls-6" d="M197.5,146H194a1.93,1.93,0,0,0,.45,1.29,1.57,1.57,0,0,0,1.18.46,2.49,2.49,0,0,0,1.56-.56v.75a2.9,2.9,0,0,1-1.75.48,2.12,2.12,0,0,1-1.66-.68,2.77,2.77,0,0,1-.61-1.92,2.73,2.73,0,0,1,.66-1.9,2.14,2.14,0,0,1,1.65-.73,1.9,1.9,0,0,1,1.52.63,2.68,2.68,0,0,1,.53,1.76Zm-.82-.68a1.57,1.57,0,0,0-.33-1.07,1.14,1.14,0,0,0-.92-.39,1.28,1.28,0,0,0-1,.4,1.87,1.87,0,0,0-.49,1.06Z"/><path class="cls-6" d="M201.32,144.06a1,1,0,0,0-.6-.16,1,1,0,0,0-.86.49,2.21,2.21,0,0,0-.35,1.31v2.55h-.8v-5h.8v1h0a1.77,1.77,0,0,1,.53-.82,1.16,1.16,0,0,1,.78-.3,1.43,1.43,0,0,1,.48.07Z"/><path class="cls-6" d="M209.2,148.25h-.8v-.85h0a1.85,1.85,0,0,1-1.72,1,1.87,1.87,0,0,1-1.51-.67,2.8,2.8,0,0,1-.56-1.83,3,3,0,0,1,.62-2,2.06,2.06,0,0,1,1.67-.74,1.62,1.62,0,0,1,1.5.81h0v-3.1h.8Zm-.8-2.26v-.74a1.45,1.45,0,0,0-.4-1,1.36,1.36,0,0,0-1-.42,1.37,1.37,0,0,0-1.15.54,2.33,2.33,0,0,0-.42,1.48,2.13,2.13,0,0,0,.4,1.37,1.33,1.33,0,0,0,1.08.5,1.38,1.38,0,0,0,1.09-.49A1.79,1.79,0,0,0,208.4,146Z"/><path class="cls-6" d="M214.84,146h-3.53a1.83,1.83,0,0,0,.45,1.29,1.55,1.55,0,0,0,1.18.46,2.46,2.46,0,0,0,1.55-.56v.75a2.89,2.89,0,0,1-1.74.48,2.14,2.14,0,0,1-1.67-.68,2.81,2.81,0,0,1-.6-1.92,2.73,2.73,0,0,1,.66-1.9,2.12,2.12,0,0,1,1.64-.73,1.88,1.88,0,0,1,1.52.63,2.63,2.63,0,0,1,.54,1.76Zm-.82-.68a1.63,1.63,0,0,0-.34-1.07,1.12,1.12,0,0,0-.91-.39,1.31,1.31,0,0,0-1,.4,1.86,1.86,0,0,0-.48,1.06Z"/><path class="cls-6" d="M215.75,148.07v-.86a2.36,2.36,0,0,0,1.44.49c.7,0,1.05-.24,1.05-.71a.64.64,0,0,0-.09-.34.91.91,0,0,0-.24-.24,2.56,2.56,0,0,0-.37-.2l-.44-.17c-.22-.09-.42-.18-.59-.27a2.25,2.25,0,0,1-.42-.3,1.24,1.24,0,0,1-.25-.39,1.28,1.28,0,0,1-.08-.5,1.17,1.17,0,0,1,.16-.62,1.44,1.44,0,0,1,.43-.46,1.89,1.89,0,0,1,.61-.27,2.76,2.76,0,0,1,.71-.09,2.86,2.86,0,0,1,1.16.22v.81a2.27,2.27,0,0,0-1.27-.36,1.62,1.62,0,0,0-.4.05.89.89,0,0,0-.31.14.62.62,0,0,0-.2.23.53.53,0,0,0-.07.28.67.67,0,0,0,.07.33.55.55,0,0,0,.2.23,1.79,1.79,0,0,0,.34.19l.44.18a5.68,5.68,0,0,1,.6.26,2.12,2.12,0,0,1,.44.3,1.32,1.32,0,0,1,.29.39,1.21,1.21,0,0,1,.1.52,1.23,1.23,0,0,1-.16.65,1.45,1.45,0,0,1-.44.45,2,2,0,0,1-.63.27,3.08,3.08,0,0,1-.75.09A2.78,2.78,0,0,1,215.75,148.07Z"/><path class="cls-6" d="M73.38,160.25h-.8v-.78h0a1.68,1.68,0,0,1-1.54.9,1.61,1.61,0,0,1-1.17-.4,1.36,1.36,0,0,1-.42-1.05c0-.93.55-1.47,1.65-1.63l1.5-.21c0-.85-.34-1.27-1-1.27a2.45,2.45,0,0,0-1.63.61v-.82a3.12,3.12,0,0,1,1.7-.46c1.17,0,1.76.62,1.76,1.86Zm-.8-2.53-1.21.17a1.84,1.84,0,0,0-.84.28.81.81,0,0,0-.28.7.76.76,0,0,0,.26.59,1,1,0,0,0,.7.24,1.27,1.27,0,0,0,1-.42,1.49,1.49,0,0,0,.39-1.06Z"/><path class="cls-6" d="M78.93,160.25h-.8v-.79h0a1.63,1.63,0,0,1-1.54.91c-1.19,0-1.79-.71-1.79-2.13v-3h.8v2.86c0,1.06.4,1.59,1.21,1.59a1.21,1.21,0,0,0,1-.44,1.6,1.6,0,0,0,.38-1.13v-2.88h.8Z"/><path class="cls-6" d="M82.87,160.2a1.49,1.49,0,0,1-.75.16c-.87,0-1.31-.49-1.31-1.46v-3H80v-.69h.86V154l.8-.26v1.48h1.26v.69H81.61v2.81a1.19,1.19,0,0,0,.17.72.69.69,0,0,0,.57.22.85.85,0,0,0,.52-.17Z"/><path class="cls-6" d="M88,158H84.43a1.83,1.83,0,0,0,.45,1.29,1.55,1.55,0,0,0,1.18.46,2.46,2.46,0,0,0,1.55-.56v.75a2.89,2.89,0,0,1-1.74.48,2.14,2.14,0,0,1-1.67-.68,2.81,2.81,0,0,1-.6-1.92,2.73,2.73,0,0,1,.66-1.9,2.12,2.12,0,0,1,1.64-.73,1.9,1.9,0,0,1,1.52.63,2.63,2.63,0,0,1,.54,1.76Zm-.82-.68a1.63,1.63,0,0,0-.34-1.07,1.12,1.12,0,0,0-.91-.39,1.31,1.31,0,0,0-1,.4,1.86,1.86,0,0,0-.48,1.06Z"/><path class="cls-6" d="M93.21,160.25h-.8v-.79h0a1.64,1.64,0,0,1-1.54.91c-1.19,0-1.79-.71-1.79-2.13v-3h.8v2.86c0,1.06.4,1.59,1.21,1.59a1.21,1.21,0,0,0,1-.44,1.64,1.64,0,0,0,.38-1.13v-2.88h.8Z"/><path class="cls-6" d="M97.43,156.06a1.07,1.07,0,0,0-1.46.33,2.21,2.21,0,0,0-.34,1.31v2.55h-.8v-5h.8v1h0a1.69,1.69,0,0,1,.52-.82,1.18,1.18,0,0,1,.79-.3,1.41,1.41,0,0,1,.47.07Z"/><path class="cls-6" d="M98.58,160.36a.49.49,0,0,1-.38-.16.55.55,0,0,1,.38-.94.57.57,0,0,1,.39.16.55.55,0,0,1-.39.94Z"/><path class="cls-6" d="M104.49,158H101a1.83,1.83,0,0,0,.45,1.29,1.57,1.57,0,0,0,1.18.46,2.46,2.46,0,0,0,1.55-.56v.75a2.89,2.89,0,0,1-1.74.48,2.14,2.14,0,0,1-1.67-.68,2.81,2.81,0,0,1-.6-1.92,2.73,2.73,0,0,1,.66-1.9,2.12,2.12,0,0,1,1.64-.73,1.88,1.88,0,0,1,1.52.63,2.63,2.63,0,0,1,.54,1.76Zm-.82-.68a1.58,1.58,0,0,0-.34-1.07,1.12,1.12,0,0,0-.91-.39,1.28,1.28,0,0,0-1,.4,1.81,1.81,0,0,0-.49,1.06Z"/><path class="cls-6" d="M106,160.36a.49.49,0,0,1-.38-.16.55.55,0,0,1,.38-.94.57.57,0,0,1,.39.16.55.55,0,0,1-.39.94Z"/><path class="cls-6" d="M107.57,160.07v-.86a2.36,2.36,0,0,0,1.44.49c.7,0,1-.24,1-.71a.64.64,0,0,0-.09-.34.91.91,0,0,0-.24-.24,2.56,2.56,0,0,0-.37-.2l-.44-.17c-.22-.09-.42-.18-.59-.27a2.25,2.25,0,0,1-.42-.3,1.24,1.24,0,0,1-.25-.39,1.28,1.28,0,0,1-.08-.5,1.17,1.17,0,0,1,.16-.62,1.44,1.44,0,0,1,.43-.46,2,2,0,0,1,.61-.27,2.76,2.76,0,0,1,.71-.09,2.86,2.86,0,0,1,1.16.22v.81a2.27,2.27,0,0,0-1.27-.36,1.62,1.62,0,0,0-.4.05.89.89,0,0,0-.31.14.62.62,0,0,0-.2.23.53.53,0,0,0-.07.28.67.67,0,0,0,.07.33.55.55,0,0,0,.2.23,2.17,2.17,0,0,0,.34.19l.44.18a5.68,5.68,0,0,1,.6.26,2.12,2.12,0,0,1,.44.3,1.32,1.32,0,0,1,.29.39,1.21,1.21,0,0,1,.1.52,1.23,1.23,0,0,1-.16.65,1.45,1.45,0,0,1-.44.45,2,2,0,0,1-.63.27,3.08,3.08,0,0,1-.75.09A2.78,2.78,0,0,1,107.57,160.07Z"/><path class="cls-6" d="M119,160.25h-.8v-2.88c0-1-.39-1.56-1.16-1.56a1.28,1.28,0,0,0-1,.45,1.72,1.72,0,0,0-.4,1.16v2.83h-.8v-7.4h.8v3.23h0a1.82,1.82,0,0,1,1.64-.94c1.13,0,1.69.67,1.69,2Z"/><path class="cls-6" d="M122.6,160.37a2.31,2.31,0,0,1-1.77-.7,2.61,2.61,0,0,1-.66-1.86,2.72,2.72,0,0,1,.69-2,2.48,2.48,0,0,1,1.86-.7,2.23,2.23,0,0,1,1.74.68,2.73,2.73,0,0,1,.63,1.91,2.7,2.7,0,0,1-.68,1.92A2.36,2.36,0,0,1,122.6,160.37Zm.06-4.56a1.51,1.51,0,0,0-1.22.52,2.17,2.17,0,0,0-.45,1.45,2,2,0,0,0,.45,1.4,1.54,1.54,0,0,0,1.22.52,1.45,1.45,0,0,0,1.19-.51,2.16,2.16,0,0,0,.42-1.43,2.21,2.21,0,0,0-.42-1.44A1.45,1.45,0,0,0,122.66,155.81Z"/><path class="cls-6" d="M133.47,160.25h-.8v-2.87a2.18,2.18,0,0,0-.26-1.2,1,1,0,0,0-.86-.37,1.08,1.08,0,0,0-.87.47,1.79,1.79,0,0,0-.36,1.12v2.85h-.8v-3q0-1.47-1.14-1.47a1.07,1.07,0,0,0-.87.44,1.83,1.83,0,0,0-.34,1.15v2.85h-.8v-5h.8V156h0a1.69,1.69,0,0,1,1.55-.9,1.43,1.43,0,0,1,1.42,1,1.77,1.77,0,0,1,1.66-1c1.1,0,1.65.67,1.65,2Z"/><path class="cls-6" d="M137.07,160.37a2.31,2.31,0,0,1-1.77-.7,2.61,2.61,0,0,1-.66-1.86,2.72,2.72,0,0,1,.69-2,2.48,2.48,0,0,1,1.86-.7,2.24,2.24,0,0,1,1.75.68,2.78,2.78,0,0,1,.62,1.91,2.69,2.69,0,0,1-.67,1.92A2.38,2.38,0,0,1,137.07,160.37Zm.06-4.56a1.52,1.52,0,0,0-1.22.52,2.17,2.17,0,0,0-.45,1.45,2,2,0,0,0,.46,1.4,1.5,1.5,0,0,0,1.21.52,1.43,1.43,0,0,0,1.19-.51,2.16,2.16,0,0,0,.42-1.43,2.21,2.21,0,0,0-.42-1.44A1.43,1.43,0,0,0,137.13,155.81Z"/><path class="cls-6" d="M145,160.25h-.8V157.4c0-1.06-.39-1.59-1.16-1.59a1.25,1.25,0,0,0-1,.45,1.64,1.64,0,0,0-.4,1.14v2.85h-.8v-5h.8v.83h0a1.81,1.81,0,0,1,1.64-.94,1.52,1.52,0,0,1,1.26.53,2.34,2.34,0,0,1,.43,1.53Z"/><path class="cls-6" d="M150.48,155.25l-2.3,5.8c-.41,1-1,1.56-1.73,1.56a1.56,1.56,0,0,1-.52-.07v-.72a1.44,1.44,0,0,0,.47.09,1,1,0,0,0,.91-.72l.4-.95-2-5h.89L148,159.1c0,.05.05.18.1.38h0c0-.08.05-.2.1-.37l1.42-3.86Z"/><path class="cls-6" d="M158.44,160.25h-.8v-2.87a2.18,2.18,0,0,0-.26-1.2,1,1,0,0,0-.86-.37,1.08,1.08,0,0,0-.87.47,1.79,1.79,0,0,0-.36,1.12v2.85h-.8v-3q0-1.47-1.14-1.47a1.07,1.07,0,0,0-.87.44,1.89,1.89,0,0,0-.34,1.15v2.85h-.8v-5h.8V156h0a1.7,1.7,0,0,1,1.55-.9,1.46,1.46,0,0,1,.9.28,1.43,1.43,0,0,1,.52.75,1.77,1.77,0,0,1,1.66-1c1.1,0,1.65.67,1.65,2Z"/><path class="cls-6" d="M164,158h-3.53a1.93,1.93,0,0,0,.45,1.29,1.57,1.57,0,0,0,1.18.46,2.49,2.49,0,0,0,1.56-.56v.75a2.9,2.9,0,0,1-1.75.48,2.12,2.12,0,0,1-1.66-.68,2.77,2.77,0,0,1-.61-1.92,2.73,2.73,0,0,1,.66-1.9,2.14,2.14,0,0,1,1.65-.73,1.9,1.9,0,0,1,1.52.63,2.68,2.68,0,0,1,.53,1.76Zm-.82-.68a1.57,1.57,0,0,0-.33-1.07,1.14,1.14,0,0,0-.92-.39,1.28,1.28,0,0,0-1,.4,1.87,1.87,0,0,0-.49,1.06Z"/><path class="cls-6" d="M164.88,160.07v-.86a2.41,2.41,0,0,0,1.44.49c.7,0,1.06-.24,1.06-.71a.64.64,0,0,0-.09-.34,1,1,0,0,0-.25-.24,2,2,0,0,0-.36-.2l-.45-.17c-.22-.09-.41-.18-.58-.27a1.74,1.74,0,0,1-.42-.3,1.08,1.08,0,0,1-.25-.39,1.28,1.28,0,0,1-.09-.5,1.17,1.17,0,0,1,.16-.62,1.57,1.57,0,0,1,.43-.46,2.1,2.1,0,0,1,.61-.27,2.82,2.82,0,0,1,.71-.09,2.87,2.87,0,0,1,1.17.22v.81a2.27,2.27,0,0,0-1.27-.36,1.7,1.7,0,0,0-.41.05,1,1,0,0,0-.31.14.87.87,0,0,0-.2.23.53.53,0,0,0-.07.28.67.67,0,0,0,.07.33.66.66,0,0,0,.21.23,1.69,1.69,0,0,0,.33.19l.45.18a4.72,4.72,0,0,1,.59.26,2,2,0,0,1,.45.3,1.52,1.52,0,0,1,.29.39,1.38,1.38,0,0,1,.1.52,1.23,1.23,0,0,1-.17.65,1.42,1.42,0,0,1-.43.45,2.22,2.22,0,0,1-.63.27,3.08,3.08,0,0,1-.75.09A2.82,2.82,0,0,1,164.88,160.07Z"/><path class="cls-6" d="M169.71,160.36a.53.53,0,0,1-.39-.16.55.55,0,1,1,.78,0A.53.53,0,0,1,169.71,160.36Z"/><path class="cls-6" d="M74.93,196.25H74l-1.17-2a5.49,5.49,0,0,0-.31-.47,2.27,2.27,0,0,0-.31-.31,1.24,1.24,0,0,0-.34-.18,1.37,1.37,0,0,0-.42-.06h-.67v3h-.82v-7H72a3.24,3.24,0,0,1,.85.11,2,2,0,0,1,.67.35,1.75,1.75,0,0,1,.45.59,2,2,0,0,1,.16.82,2.09,2.09,0,0,1-.11.67,1.81,1.81,0,0,1-.31.54,1.94,1.94,0,0,1-.49.41,2.6,2.6,0,0,1-.64.26v0a1.49,1.49,0,0,1,.3.18,1.41,1.41,0,0,1,.25.24c.08.09.15.19.23.3l.26.41ZM70.73,190v2.54h1.11a1.7,1.7,0,0,0,.57-.09,1.13,1.13,0,0,0,.45-.27,1.08,1.08,0,0,0,.3-.42,1.48,1.48,0,0,0,.11-.57,1.07,1.07,0,0,0-.37-.87,1.55,1.55,0,0,0-1.05-.32Z"/><path class="cls-6" d="M79.51,194H76a1.83,1.83,0,0,0,.45,1.29,1.55,1.55,0,0,0,1.18.46,2.46,2.46,0,0,0,1.55-.56v.75a2.89,2.89,0,0,1-1.74.48,2.14,2.14,0,0,1-1.67-.68,2.81,2.81,0,0,1-.6-1.92,2.73,2.73,0,0,1,.66-1.9,2.12,2.12,0,0,1,1.64-.73,1.88,1.88,0,0,1,1.52.63,2.63,2.63,0,0,1,.54,1.76Zm-.82-.68a1.58,1.58,0,0,0-.34-1.07,1.12,1.12,0,0,0-.91-.39,1.28,1.28,0,0,0-1,.4,1.81,1.81,0,0,0-.49,1.06Zm-.13-4.57-1.28,1.61h-.62l1.09-1.61Z"/><path class="cls-6" d="M81.54,195.53h0v3h-.8v-7.3h.8v.88h0a1.89,1.89,0,0,1,1.73-1,1.83,1.83,0,0,1,1.51.67,2.76,2.76,0,0,1,.54,1.8,3.06,3.06,0,0,1-.61,2,2,2,0,0,1-1.67.76A1.67,1.67,0,0,1,81.54,195.53Zm0-2v.7a1.47,1.47,0,0,0,.4,1,1.43,1.43,0,0,0,2.17-.12,2.6,2.6,0,0,0,.41-1.55,2,2,0,0,0-.39-1.31,1.27,1.27,0,0,0-1-.47,1.41,1.41,0,0,0-1.12.48A1.78,1.78,0,0,0,81.52,193.51Z"/><path class="cls-6" d="M88.69,196.37a2.31,2.31,0,0,1-1.77-.7,2.61,2.61,0,0,1-.66-1.86,2.72,2.72,0,0,1,.69-2,2.45,2.45,0,0,1,1.86-.7,2.23,2.23,0,0,1,1.74.68,2.73,2.73,0,0,1,.63,1.91,2.7,2.7,0,0,1-.68,1.92A2.36,2.36,0,0,1,88.69,196.37Zm.06-4.56a1.51,1.51,0,0,0-1.22.52,2.17,2.17,0,0,0-.45,1.45,2,2,0,0,0,.45,1.4,1.52,1.52,0,0,0,1.22.52,1.46,1.46,0,0,0,1.19-.51,2.16,2.16,0,0,0,.42-1.43,2.19,2.19,0,0,0-.42-1.44A1.46,1.46,0,0,0,88.75,191.81Z"/><path class="cls-6" d="M96.61,196.25h-.8V193.4c0-1.06-.39-1.59-1.16-1.59a1.27,1.27,0,0,0-1,.45,1.68,1.68,0,0,0-.39,1.14v2.85h-.8v-5h.8v.83h0a1.8,1.8,0,0,1,1.64-.94,1.52,1.52,0,0,1,1.25.52,2.39,2.39,0,0,1,.44,1.54Z"/><path class="cls-6" d="M97.81,196.07v-.86a2.41,2.41,0,0,0,1.45.49c.7,0,1-.24,1-.71a.64.64,0,0,0-.09-.34.91.91,0,0,0-.24-.24,1.86,1.86,0,0,0-.37-.2l-.44-.17c-.22-.09-.42-.18-.59-.27a2.25,2.25,0,0,1-.42-.3,1.24,1.24,0,0,1-.25-.39,1.28,1.28,0,0,1-.09-.5A1.18,1.18,0,0,1,98,192a1.44,1.44,0,0,1,.43-.46,1.89,1.89,0,0,1,.61-.27,2.76,2.76,0,0,1,.71-.09,2.86,2.86,0,0,1,1.16.22v.81a2.27,2.27,0,0,0-1.27-.36,1.62,1.62,0,0,0-.4.05.89.89,0,0,0-.31.14.62.62,0,0,0-.2.23.54.54,0,0,0-.08.28.67.67,0,0,0,.08.33.55.55,0,0,0,.2.23,1.52,1.52,0,0,0,.34.19l.44.18a5.68,5.68,0,0,1,.6.26,2.12,2.12,0,0,1,.44.3,1.32,1.32,0,0,1,.29.39,1.21,1.21,0,0,1,.1.52,1.23,1.23,0,0,1-.16.65,1.45,1.45,0,0,1-.44.45,2,2,0,0,1-.63.27,3.08,3.08,0,0,1-.75.09A2.85,2.85,0,0,1,97.81,196.07Z"/><path class="cls-6" d="M106.38,194h-3.53a1.83,1.83,0,0,0,.45,1.29,1.55,1.55,0,0,0,1.18.46,2.46,2.46,0,0,0,1.55-.56v.75a2.89,2.89,0,0,1-1.74.48,2.14,2.14,0,0,1-1.67-.68,2.81,2.81,0,0,1-.6-1.92,2.73,2.73,0,0,1,.66-1.9,2.12,2.12,0,0,1,1.64-.73,1.88,1.88,0,0,1,1.52.63,2.63,2.63,0,0,1,.54,1.76Zm-.82-.68a1.58,1.58,0,0,0-.34-1.07,1.12,1.12,0,0,0-.91-.39,1.28,1.28,0,0,0-1,.4,1.81,1.81,0,0,0-.49,1.06Z"/><path class="cls-6" d="M110.61,192.23a.53.53,0,0,1-.39-.16.56.56,0,0,1-.15-.39.52.52,0,0,1,.15-.38.58.58,0,0,1,.78,0,.49.49,0,0,1,.16.38.55.55,0,0,1-.55.55Zm0,4.13a.53.53,0,0,1-.39-.16.58.58,0,0,1,0-.78.56.56,0,0,1,.78,0,.55.55,0,0,1-.39.94Z"/><path class="cls-6" d="M120.55,189.25l-2.59,7h-.91l-2.54-7h.92l1.93,5.55a3.31,3.31,0,0,1,.15.62h0a2.91,2.91,0,0,1,.16-.63l2-5.54Z"/><path class="cls-6" d="M123.68,192.06a1.07,1.07,0,0,0-1.46.33,2.21,2.21,0,0,0-.34,1.31v2.55h-.8v-5h.8v1h0a1.69,1.69,0,0,1,.52-.82,1.16,1.16,0,0,1,.78-.3,1.43,1.43,0,0,1,.48.07Z"/><path class="cls-6" d="M128.13,196.25h-.8v-.78h0a1.68,1.68,0,0,1-1.54.9,1.65,1.65,0,0,1-1.17-.4,1.36,1.36,0,0,1-.42-1.05c0-.93.55-1.47,1.65-1.63l1.5-.21c0-.85-.34-1.27-1-1.27a2.45,2.45,0,0,0-1.63.61v-.82a3.12,3.12,0,0,1,1.7-.46c1.17,0,1.76.62,1.76,1.86Zm-.8-2.53-1.21.17a2,2,0,0,0-.84.27.84.84,0,0,0-.28.71.76.76,0,0,0,.26.59,1,1,0,0,0,.7.24,1.27,1.27,0,0,0,1-.42,1.49,1.49,0,0,0,.39-1.06Z"/><path class="cls-6" d="M130.05,190a.55.55,0,0,1-.37-.14.51.51,0,0,1-.15-.37.52.52,0,0,1,.15-.38.51.51,0,0,1,.37-.15.5.5,0,0,1,.37.15.49.49,0,0,1,.16.38.46.46,0,0,1-.16.36A.5.5,0,0,1,130.05,190Zm.39,6.27h-.8v-5h.8Z"/><path class="cls-6" d="M73.54,211.25H69.91v-7h.82v6.26h2.81Z"/><path class="cls-6" d="M78.53,209H75a1.83,1.83,0,0,0,.45,1.29,1.55,1.55,0,0,0,1.18.46,2.46,2.46,0,0,0,1.55-.56v.75a2.89,2.89,0,0,1-1.74.48,2.14,2.14,0,0,1-1.67-.68,2.81,2.81,0,0,1-.6-1.92,2.73,2.73,0,0,1,.66-1.9,2.12,2.12,0,0,1,1.64-.73,1.88,1.88,0,0,1,1.52.63,2.63,2.63,0,0,1,.54,1.76Zm-.82-.68a1.63,1.63,0,0,0-.34-1.07,1.12,1.12,0,0,0-.91-.39,1.28,1.28,0,0,0-1,.4,1.81,1.81,0,0,0-.49,1.06Z"/><path class="cls-6" d="M86.63,211.25h-.8V208.4c0-1.06-.39-1.59-1.16-1.59a1.26,1.26,0,0,0-1,.45,1.68,1.68,0,0,0-.39,1.14v2.85h-.8v-5h.8v.83h0a1.8,1.8,0,0,1,1.64-.94,1.52,1.52,0,0,1,1.25.52,2.39,2.39,0,0,1,.44,1.54Z"/><path class="cls-6" d="M90.23,211.37a2.31,2.31,0,0,1-1.77-.7,2.61,2.61,0,0,1-.66-1.86,2.71,2.71,0,0,1,.68-2,2.48,2.48,0,0,1,1.86-.7,2.24,2.24,0,0,1,1.75.68,2.73,2.73,0,0,1,.63,1.91,2.7,2.7,0,0,1-.68,1.92A2.36,2.36,0,0,1,90.23,211.37Zm.06-4.56a1.53,1.53,0,0,0-1.23.52,2.22,2.22,0,0,0-.44,1.45,2,2,0,0,0,.45,1.4,1.52,1.52,0,0,0,1.22.52,1.46,1.46,0,0,0,1.19-.51,2.16,2.16,0,0,0,.42-1.43,2.19,2.19,0,0,0-.42-1.44A1.46,1.46,0,0,0,90.29,206.81Z"/><path class="cls-6" d="M101.1,211.25h-.8v-2.87a2.18,2.18,0,0,0-.26-1.2,1,1,0,0,0-.86-.37,1.06,1.06,0,0,0-.87.47A1.77,1.77,0,0,0,98,208.4v2.85h-.8v-3q0-1.47-1.14-1.47a1.07,1.07,0,0,0-.87.44,1.83,1.83,0,0,0-.34,1.15v2.85H94v-5h.8V207h0a1.69,1.69,0,0,1,1.55-.9,1.45,1.45,0,0,1,1.42,1,1.77,1.77,0,0,1,1.66-1c1.1,0,1.65.67,1.65,2Z"/><path class="cls-6" d="M103.43,210.53h0v.72h-.8v-7.4h.8v3.28h0a1.89,1.89,0,0,1,1.73-1,1.81,1.81,0,0,1,1.5.67,2.71,2.71,0,0,1,.55,1.8,3.06,3.06,0,0,1-.61,2,2,2,0,0,1-1.67.76A1.65,1.65,0,0,1,103.43,210.53Zm0-2v.7a1.47,1.47,0,0,0,.4,1,1.43,1.43,0,0,0,2.17-.12,2.6,2.6,0,0,0,.41-1.55,2,2,0,0,0-.39-1.31,1.27,1.27,0,0,0-1-.47,1.41,1.41,0,0,0-1.12.48A1.78,1.78,0,0,0,103.41,208.51Z"/><path class="cls-6" d="M111.1,207.06a1.05,1.05,0,0,0-.61-.16,1,1,0,0,0-.86.49,2.21,2.21,0,0,0-.34,1.31v2.55h-.8v-5h.8v1h0a1.76,1.76,0,0,1,.52-.82,1.2,1.2,0,0,1,.79-.3,1.48,1.48,0,0,1,.48.07Z"/><path class="cls-6" d="M116,209h-3.53a1.93,1.93,0,0,0,.45,1.29,1.57,1.57,0,0,0,1.18.46,2.47,2.47,0,0,0,1.56-.56v.75a2.9,2.9,0,0,1-1.75.48,2.12,2.12,0,0,1-1.66-.68,2.82,2.82,0,0,1-.61-1.92,2.69,2.69,0,0,1,.67-1.9,2.1,2.1,0,0,1,1.64-.73,1.9,1.9,0,0,1,1.52.63,2.62,2.62,0,0,1,.53,1.76Zm-.82-.68a1.57,1.57,0,0,0-.33-1.07,1.14,1.14,0,0,0-.92-.39,1.31,1.31,0,0,0-1,.4,1.94,1.94,0,0,0-.49,1.06Z"/><path class="cls-6" d="M124.2,211.25h-.8v-.85h0a2,2,0,0,1-3.22.3,2.75,2.75,0,0,1-.57-1.83,3,3,0,0,1,.63-2,2,2,0,0,1,1.66-.74,1.58,1.58,0,0,1,1.5.81h0v-3.1h.8Zm-.8-2.26v-.74a1.41,1.41,0,0,0-.4-1,1.34,1.34,0,0,0-1-.42,1.39,1.39,0,0,0-1.16.54,2.33,2.33,0,0,0-.42,1.48,2.13,2.13,0,0,0,.41,1.37,1.32,1.32,0,0,0,1.08.5,1.36,1.36,0,0,0,1.08-.49A1.79,1.79,0,0,0,123.4,209Z"/><path class="cls-6" d="M129.84,209h-3.53a1.83,1.83,0,0,0,.45,1.29,1.57,1.57,0,0,0,1.18.46,2.44,2.44,0,0,0,1.55-.56v.75a2.87,2.87,0,0,1-1.74.48,2.12,2.12,0,0,1-1.66-.68,2.77,2.77,0,0,1-.61-1.92,2.73,2.73,0,0,1,.66-1.9,2.12,2.12,0,0,1,1.65-.73,1.86,1.86,0,0,1,1.51.63,2.63,2.63,0,0,1,.54,1.76Zm-.82-.68a1.57,1.57,0,0,0-.33-1.07,1.14,1.14,0,0,0-.92-.39,1.28,1.28,0,0,0-1,.4,1.87,1.87,0,0,0-.49,1.06Z"/><path class="cls-6" d="M137.2,211a2.61,2.61,0,0,1-1.37.35,2.22,2.22,0,0,1-1.72-.7,2.5,2.5,0,0,1-.66-1.8,2.8,2.8,0,0,1,.71-2,2.5,2.5,0,0,1,1.89-.74,2.67,2.67,0,0,1,1.16.24v.82a2,2,0,0,0-1.19-.39,1.61,1.61,0,0,0-1.26.55,2.06,2.06,0,0,0-.49,1.44,2,2,0,0,0,.46,1.39,1.59,1.59,0,0,0,1.24.51,2,2,0,0,0,1.23-.44Z"/><path class="cls-6" d="M142.56,211.25h-.8v-2.88c0-1-.39-1.56-1.16-1.56a1.28,1.28,0,0,0-1,.45,1.72,1.72,0,0,0-.4,1.16v2.83h-.8v-7.4h.8v3.23h0a1.81,1.81,0,0,1,1.64-.94c1.13,0,1.69.67,1.69,2Z"/><path class="cls-6" d="M148.09,209h-3.53a1.83,1.83,0,0,0,.45,1.29,1.55,1.55,0,0,0,1.18.46,2.46,2.46,0,0,0,1.55-.56v.75a2.89,2.89,0,0,1-1.74.48,2.14,2.14,0,0,1-1.67-.68,2.81,2.81,0,0,1-.6-1.92,2.73,2.73,0,0,1,.66-1.9,2.12,2.12,0,0,1,1.64-.73,1.88,1.88,0,0,1,1.52.63,2.63,2.63,0,0,1,.54,1.76Zm-.82-.68a1.58,1.58,0,0,0-.34-1.07,1.12,1.12,0,0,0-.91-.39,1.28,1.28,0,0,0-1,.4,1.81,1.81,0,0,0-.49,1.06Z"/><path class="cls-6" d="M151.91,207.06a1,1,0,0,0-.61-.16,1,1,0,0,0-.86.49,2.29,2.29,0,0,0-.34,1.31v2.55h-.8v-5h.8v1h0a1.76,1.76,0,0,1,.52-.82,1.2,1.2,0,0,1,.79-.3,1.43,1.43,0,0,1,.48.07Z"/><path class="cls-6" d="M156.18,211a2.6,2.6,0,0,1-1.36.35,2.25,2.25,0,0,1-1.73-.7,2.5,2.5,0,0,1-.66-1.8,2.8,2.8,0,0,1,.71-2,2.5,2.5,0,0,1,1.89-.74,2.64,2.64,0,0,1,1.16.24v.82a2,2,0,0,0-1.19-.39,1.57,1.57,0,0,0-1.25.55,2.06,2.06,0,0,0-.49,1.44,2,2,0,0,0,.46,1.39,1.57,1.57,0,0,0,1.23.51,2,2,0,0,0,1.23-.44Z"/><path class="cls-6" d="M161.55,211.25h-.8v-2.88q0-1.56-1.17-1.56a1.25,1.25,0,0,0-1,.45,1.67,1.67,0,0,0-.4,1.16v2.83h-.8v-7.4h.8v3.23h0a1.81,1.81,0,0,1,1.64-.94c1.12,0,1.69.67,1.69,2Z"/><path class="cls-6" d="M167.07,209h-3.53a1.93,1.93,0,0,0,.45,1.29,1.57,1.57,0,0,0,1.18.46,2.47,2.47,0,0,0,1.56-.56v.75a2.9,2.9,0,0,1-1.75.48,2.12,2.12,0,0,1-1.66-.68,2.82,2.82,0,0,1-.61-1.92,2.69,2.69,0,0,1,.67-1.9,2.1,2.1,0,0,1,1.64-.73,1.9,1.9,0,0,1,1.52.63,2.68,2.68,0,0,1,.53,1.76Zm-.82-.68a1.57,1.57,0,0,0-.33-1.07,1.14,1.14,0,0,0-.92-.39,1.29,1.29,0,0,0-1,.4,1.87,1.87,0,0,0-.49,1.06Z"/><path class="cls-6" d="M172.33,211.25h-.8v-.79h0a1.65,1.65,0,0,1-1.55.91c-1.19,0-1.78-.71-1.78-2.13v-3H169v2.86c0,1.06.41,1.59,1.21,1.59a1.24,1.24,0,0,0,1-.44,1.64,1.64,0,0,0,.38-1.13v-2.88h.8Z"/><path class="cls-6" d="M176.55,207.06a1,1,0,0,0-.6-.16,1,1,0,0,0-.86.49,2.21,2.21,0,0,0-.35,1.31v2.55h-.8v-5h.8v1h0a1.77,1.77,0,0,1,.53-.82,1.16,1.16,0,0,1,.78-.3,1.43,1.43,0,0,1,.48.07Z"/><path class="cls-6" d="M177.7,211.36a.53.53,0,0,1-.39-.16.58.58,0,0,1,0-.78.56.56,0,0,1,.78,0,.55.55,0,0,1-.39.94Z"/><path class="cls-6" d="M183.61,209h-3.53a1.83,1.83,0,0,0,.45,1.29,1.55,1.55,0,0,0,1.18.46,2.46,2.46,0,0,0,1.55-.56v.75a2.89,2.89,0,0,1-1.74.48,2.14,2.14,0,0,1-1.67-.68,2.81,2.81,0,0,1-.6-1.92,2.73,2.73,0,0,1,.66-1.9,2.12,2.12,0,0,1,1.64-.73,1.88,1.88,0,0,1,1.52.63,2.63,2.63,0,0,1,.54,1.76Zm-.82-.68a1.63,1.63,0,0,0-.34-1.07,1.12,1.12,0,0,0-.91-.39,1.31,1.31,0,0,0-1,.4,1.86,1.86,0,0,0-.48,1.06Z"/><path class="cls-6" d="M188.86,211.25h-.8v-.79h0a1.64,1.64,0,0,1-1.54.91c-1.19,0-1.79-.71-1.79-2.13v-3h.8v2.86c0,1.06.4,1.59,1.21,1.59a1.21,1.21,0,0,0,1-.44,1.64,1.64,0,0,0,.38-1.13v-2.88h.8Z"/><path class="cls-6" d="M190.17,211.07v-.86a2.41,2.41,0,0,0,1.44.49c.71,0,1.06-.24,1.06-.71a.64.64,0,0,0-.09-.34.82.82,0,0,0-.25-.24,1.54,1.54,0,0,0-.36-.2l-.44-.17a5.6,5.6,0,0,1-.59-.27,2,2,0,0,1-.42-.3,1.24,1.24,0,0,1-.25-.39,1.34,1.34,0,0,1,.07-1.12,1.71,1.71,0,0,1,.43-.46,2,2,0,0,1,.62-.27,2.76,2.76,0,0,1,.71-.09,2.86,2.86,0,0,1,1.16.22v.81a2.27,2.27,0,0,0-1.27-.36,1.62,1.62,0,0,0-.4.05.89.89,0,0,0-.31.14.76.76,0,0,0-.21.23.64.64,0,0,0-.07.28.81.81,0,0,0,.07.33.66.66,0,0,0,.21.23,1.69,1.69,0,0,0,.33.19l.45.18a4.72,4.72,0,0,1,.59.26,2,2,0,0,1,.45.3,1.32,1.32,0,0,1,.29.39,1.21,1.21,0,0,1,.1.52,1.33,1.33,0,0,1-.16.65,1.45,1.45,0,0,1-.44.45,2,2,0,0,1-.63.27,3.08,3.08,0,0,1-.75.09A2.85,2.85,0,0,1,190.17,211.07Z"/><path class="cls-6" d="M198.74,209h-3.53a1.83,1.83,0,0,0,.45,1.29,1.55,1.55,0,0,0,1.18.46,2.46,2.46,0,0,0,1.55-.56v.75a2.89,2.89,0,0,1-1.74.48,2.14,2.14,0,0,1-1.67-.68,2.81,2.81,0,0,1-.6-1.92,2.73,2.73,0,0,1,.66-1.9,2.12,2.12,0,0,1,1.64-.73,1.88,1.88,0,0,1,1.52.63,2.63,2.63,0,0,1,.54,1.76Zm-.82-.68a1.58,1.58,0,0,0-.34-1.07,1.12,1.12,0,0,0-.91-.39,1.28,1.28,0,0,0-1,.4,1.81,1.81,0,0,0-.49,1.06Z"/><path class="cls-6" d="M200.23,211.36a.53.53,0,0,1-.39-.16.58.58,0,0,1,0-.78.56.56,0,0,1,.78,0,.55.55,0,0,1-.39.94Z"/><path class="cls-6" d="M201.81,211.07v-.86a2.41,2.41,0,0,0,1.45.49c.7,0,1.05-.24,1.05-.71a.64.64,0,0,0-.09-.34.82.82,0,0,0-.25-.24,1.54,1.54,0,0,0-.36-.2l-.44-.17c-.22-.09-.42-.18-.59-.27a2.25,2.25,0,0,1-.42-.3,1.24,1.24,0,0,1-.25-.39,1.28,1.28,0,0,1-.09-.5A1.18,1.18,0,0,1,202,207a1.44,1.44,0,0,1,.43-.46,1.89,1.89,0,0,1,.61-.27,2.76,2.76,0,0,1,.71-.09,2.86,2.86,0,0,1,1.16.22v.81a2.27,2.27,0,0,0-1.27-.36,1.62,1.62,0,0,0-.4.05.89.89,0,0,0-.31.14.62.62,0,0,0-.2.23.54.54,0,0,0-.08.28.67.67,0,0,0,.08.33.55.55,0,0,0,.2.23,1.79,1.79,0,0,0,.34.19l.44.18a5.68,5.68,0,0,1,.6.26,2.12,2.12,0,0,1,.44.3,1.32,1.32,0,0,1,.29.39,1.21,1.21,0,0,1,.1.52,1.23,1.23,0,0,1-.16.65,1.45,1.45,0,0,1-.44.45,2,2,0,0,1-.63.27,3.08,3.08,0,0,1-.75.09A2.85,2.85,0,0,1,201.81,211.07Z"/><path class="cls-6" d="M70.62,222.53h0v3h-.8v-7.3h.8v.88h0a1.9,1.9,0,0,1,1.73-1,1.82,1.82,0,0,1,1.51.67,2.76,2.76,0,0,1,.54,1.8,3.06,3.06,0,0,1-.61,2,2,2,0,0,1-1.67.76A1.67,1.67,0,0,1,70.62,222.53Zm0-2v.7a1.47,1.47,0,0,0,.41,1,1.31,1.31,0,0,0,1,.44,1.36,1.36,0,0,0,1.14-.56,2.6,2.6,0,0,0,.41-1.55,2.06,2.06,0,0,0-.38-1.31,1.3,1.3,0,0,0-1-.47,1.42,1.42,0,0,0-1.12.48A1.78,1.78,0,0,0,70.6,220.51Z"/><path class="cls-6" d="M77.77,223.37a2.31,2.31,0,0,1-1.77-.7,2.61,2.61,0,0,1-.66-1.86,2.72,2.72,0,0,1,.69-2,2.48,2.48,0,0,1,1.86-.7,2.22,2.22,0,0,1,1.74.68,2.73,2.73,0,0,1,.63,1.91,2.65,2.65,0,0,1-.68,1.92A2.36,2.36,0,0,1,77.77,223.37Zm.06-4.56a1.52,1.52,0,0,0-1.22.52,2.17,2.17,0,0,0-.45,1.45,2,2,0,0,0,.45,1.4,1.54,1.54,0,0,0,1.22.52,1.45,1.45,0,0,0,1.19-.51,2.16,2.16,0,0,0,.42-1.43,2.19,2.19,0,0,0-.42-1.44A1.45,1.45,0,0,0,77.83,218.81Z"/><path class="cls-6" d="M84.15,219.06a1,1,0,0,0-.61-.16,1,1,0,0,0-.85.49,2.21,2.21,0,0,0-.35,1.31v2.55h-.8v-5h.8v1h0a1.76,1.76,0,0,1,.52-.82,1.2,1.2,0,0,1,.79-.3,1.43,1.43,0,0,1,.48.07Z"/><path class="cls-6" d="M87.34,223.2a1.49,1.49,0,0,1-.75.16c-.88,0-1.31-.49-1.31-1.46v-3h-.86v-.69h.86V217l.8-.26v1.48h1.26v.69H86.08v2.81a1.12,1.12,0,0,0,.17.72.68.68,0,0,0,.56.22.86.86,0,0,0,.53-.17Z"/><path class="cls-6" d="M92,223.25h-.8v-.78h0a1.66,1.66,0,0,1-1.53.9,1.61,1.61,0,0,1-1.17-.4,1.34,1.34,0,0,1-.43-1.05c0-.93.55-1.47,1.65-1.63l1.5-.21c0-.85-.34-1.27-1-1.27a2.47,2.47,0,0,0-1.63.61v-.82a3.12,3.12,0,0,1,1.7-.46c1.18,0,1.76.62,1.76,1.86Zm-.8-2.53-1.2.17a2,2,0,0,0-.84.27.82.82,0,0,0-.29.71.74.74,0,0,0,.27.59,1,1,0,0,0,.69.24,1.29,1.29,0,0,0,1-.42,1.53,1.53,0,0,0,.38-1.06Z"/><path class="cls-6" d="M97.64,223.25h-.8V220.4c0-1.06-.38-1.59-1.16-1.59a1.25,1.25,0,0,0-1,.45,1.64,1.64,0,0,0-.4,1.14v2.85h-.8v-5h.8v.83h0a1.81,1.81,0,0,1,1.64-.94,1.54,1.54,0,0,1,1.26.52,2.39,2.39,0,0,1,.43,1.54Z"/><path class="cls-6" d="M101.47,223.2a1.49,1.49,0,0,1-.75.16c-.87,0-1.31-.49-1.31-1.46v-3h-.86v-.69h.86V217l.8-.26v1.48h1.26v.69h-1.26v2.81a1.19,1.19,0,0,0,.17.72.72.72,0,0,0,.57.22.83.83,0,0,0,.52-.17Z"/><path class="cls-6" d="M106.08,223.25h-.8v-7.4h.8Z"/><path class="cls-6" d="M111.72,221h-3.53a1.83,1.83,0,0,0,.45,1.29,1.57,1.57,0,0,0,1.18.46,2.44,2.44,0,0,0,1.55-.56v.75a2.89,2.89,0,0,1-1.74.48,2.1,2.1,0,0,1-1.66-.68,2.77,2.77,0,0,1-.61-1.92,2.73,2.73,0,0,1,.66-1.9,2.12,2.12,0,0,1,1.64-.73,1.88,1.88,0,0,1,1.52.63,2.63,2.63,0,0,1,.54,1.76Zm-.82-.68a1.57,1.57,0,0,0-.33-1.07,1.14,1.14,0,0,0-.92-.39,1.28,1.28,0,0,0-1,.4,1.81,1.81,0,0,0-.49,1.06Z"/><path class="cls-6" d="M122.77,223.25H122v-2.87a2.18,2.18,0,0,0-.26-1.2,1,1,0,0,0-.86-.37,1.08,1.08,0,0,0-.87.47,1.77,1.77,0,0,0-.36,1.12v2.85h-.8v-3q0-1.47-1.14-1.47a1.07,1.07,0,0,0-.87.44,1.89,1.89,0,0,0-.34,1.15v2.85h-.8v-5h.8V219h0a1.7,1.7,0,0,1,1.55-.9,1.46,1.46,0,0,1,.9.28,1.43,1.43,0,0,1,.52.75,1.78,1.78,0,0,1,1.66-1c1.1,0,1.65.67,1.65,2Z"/><path class="cls-6" d="M128.3,221h-3.53a1.93,1.93,0,0,0,.45,1.29,1.57,1.57,0,0,0,1.18.46,2.47,2.47,0,0,0,1.56-.56v.75a2.9,2.9,0,0,1-1.75.48,2.12,2.12,0,0,1-1.66-.68,2.82,2.82,0,0,1-.61-1.92,2.69,2.69,0,0,1,.67-1.9,2.1,2.1,0,0,1,1.64-.73,1.9,1.9,0,0,1,1.52.63,2.68,2.68,0,0,1,.53,1.76Zm-.82-.68a1.57,1.57,0,0,0-.33-1.07,1.14,1.14,0,0,0-.92-.39,1.29,1.29,0,0,0-1,.4,1.87,1.87,0,0,0-.49,1.06Zm.1-3H127l-.8-1.13-.81,1.13h-.55l1.05-1.63h.65Z"/><path class="cls-6" d="M136.61,223.25h-.8v-2.87a2.19,2.19,0,0,0-.25-1.2,1,1,0,0,0-.86-.37,1.08,1.08,0,0,0-.88.47,1.77,1.77,0,0,0-.36,1.12v2.85h-.8v-3c0-1-.38-1.47-1.13-1.47a1,1,0,0,0-.87.44,1.83,1.83,0,0,0-.34,1.15v2.85h-.81v-5h.81V219h0a1.72,1.72,0,0,1,1.56-.9,1.42,1.42,0,0,1,1.41,1,1.78,1.78,0,0,1,1.66-1c1.1,0,1.65.67,1.65,2Z"/><path class="cls-6" d="M142.15,221h-3.53a1.83,1.83,0,0,0,.45,1.29,1.55,1.55,0,0,0,1.18.46,2.46,2.46,0,0,0,1.55-.56v.75a2.89,2.89,0,0,1-1.74.48,2.13,2.13,0,0,1-1.67-.68,2.81,2.81,0,0,1-.6-1.92,2.73,2.73,0,0,1,.66-1.9,2.12,2.12,0,0,1,1.64-.73,1.9,1.9,0,0,1,1.52.63,2.63,2.63,0,0,1,.54,1.76Zm-.82-.68a1.63,1.63,0,0,0-.34-1.07,1.12,1.12,0,0,0-.91-.39,1.31,1.31,0,0,0-1,.4,1.86,1.86,0,0,0-.48,1.06Z"/><path class="cls-6" d="M150.25,223.25h-.8V220.4q0-1.59-1.17-1.59a1.25,1.25,0,0,0-1,.45,1.68,1.68,0,0,0-.39,1.14v2.85h-.8v-5h.8v.83h0a1.8,1.8,0,0,1,1.64-.94,1.53,1.53,0,0,1,1.25.52,2.39,2.39,0,0,1,.44,1.54Z"/><path class="cls-6" d="M153.85,223.37a2.31,2.31,0,0,1-1.77-.7,2.57,2.57,0,0,1-.67-1.86,2.72,2.72,0,0,1,.69-2,2.48,2.48,0,0,1,1.86-.7,2.24,2.24,0,0,1,1.75.68,2.73,2.73,0,0,1,.63,1.91,2.7,2.7,0,0,1-.68,1.92A2.37,2.37,0,0,1,153.85,223.37Zm.05-4.56a1.52,1.52,0,0,0-1.22.52,2.17,2.17,0,0,0-.45,1.45,2.05,2.05,0,0,0,.46,1.4,1.52,1.52,0,0,0,1.21.52,1.47,1.47,0,0,0,1.2-.51,2.16,2.16,0,0,0,.42-1.43,2.19,2.19,0,0,0-.42-1.44A1.47,1.47,0,0,0,153.9,218.81Z"/><path class="cls-6" d="M164.72,223.25h-.81v-2.87a2.19,2.19,0,0,0-.25-1.2,1,1,0,0,0-.86-.37,1.08,1.08,0,0,0-.88.47,1.82,1.82,0,0,0-.35,1.12v2.85h-.81v-3c0-1-.37-1.47-1.13-1.47a1.07,1.07,0,0,0-.87.44,1.83,1.83,0,0,0-.34,1.15v2.85h-.8v-5h.8V219h0a1.69,1.69,0,0,1,1.55-.9,1.43,1.43,0,0,1,.89.28,1.37,1.37,0,0,1,.52.75,1.79,1.79,0,0,1,1.66-1c1.11,0,1.66.67,1.66,2Z"/><path class="cls-6" d="M172.55,223.25h-.8v-.78h0a1.68,1.68,0,0,1-1.54.9A1.61,1.61,0,0,1,169,223a1.36,1.36,0,0,1-.42-1.05c0-.93.55-1.47,1.65-1.63l1.5-.21c0-.85-.35-1.27-1-1.27a2.43,2.43,0,0,0-1.63.61v-.82a3.08,3.08,0,0,1,1.69-.46q1.77,0,1.77,1.86Zm-.8-2.53-1.21.17a2,2,0,0,0-.84.27.81.81,0,0,0-.28.71.73.73,0,0,0,.26.59,1,1,0,0,0,.69.24,1.29,1.29,0,0,0,1-.42,1.49,1.49,0,0,0,.39-1.06Z"/><path class="cls-6" d="M178.1,223.25h-.8v-.79h0a1.64,1.64,0,0,1-1.54.91c-1.2,0-1.79-.71-1.79-2.13v-3h.79v2.86c0,1.06.41,1.59,1.22,1.59a1.21,1.21,0,0,0,1-.44,1.64,1.64,0,0,0,.38-1.13v-2.88h.8Z"/><path class="cls-6" d="M184,222.85c0,1.84-.88,2.76-2.63,2.76a3.53,3.53,0,0,1-1.63-.36v-.8a3.3,3.3,0,0,0,1.62.47c1.23,0,1.84-.65,1.84-2v-.55h0a2,2,0,0,1-3.22.29,2.65,2.65,0,0,1-.57-1.79,3.09,3.09,0,0,1,.62-2,2,2,0,0,1,1.67-.75,1.6,1.6,0,0,1,1.5.81h0v-.7h.8Zm-.8-1.86v-.74a1.44,1.44,0,0,0-.4-1,1.33,1.33,0,0,0-1-.42,1.4,1.4,0,0,0-1.17.54,2.4,2.4,0,0,0-.42,1.51,2.08,2.08,0,0,0,.41,1.34,1.3,1.3,0,0,0,1.06.5,1.4,1.4,0,0,0,1.1-.48A1.8,1.8,0,0,0,183.18,221Z"/><path class="cls-6" d="M192.7,223.25h-.8v-2.87a2.19,2.19,0,0,0-.25-1.2,1,1,0,0,0-.87-.37,1.08,1.08,0,0,0-.87.47,1.77,1.77,0,0,0-.36,1.12v2.85h-.8v-3c0-1-.38-1.47-1.13-1.47a1,1,0,0,0-.87.44,1.83,1.83,0,0,0-.35,1.15v2.85h-.8v-5h.8V219h0a1.72,1.72,0,0,1,1.56-.9,1.42,1.42,0,0,1,1.41,1,1.78,1.78,0,0,1,1.66-1c1.1,0,1.65.67,1.65,2Z"/><path class="cls-6" d="M198.24,221h-3.53a1.87,1.87,0,0,0,.44,1.29,1.59,1.59,0,0,0,1.19.46,2.46,2.46,0,0,0,1.55-.56v.75a2.89,2.89,0,0,1-1.74.48,2.13,2.13,0,0,1-1.67-.68,2.81,2.81,0,0,1-.6-1.92,2.73,2.73,0,0,1,.66-1.9,2.12,2.12,0,0,1,1.64-.73,1.9,1.9,0,0,1,1.52.63,2.63,2.63,0,0,1,.54,1.76Zm-.82-.68a1.63,1.63,0,0,0-.34-1.07,1.12,1.12,0,0,0-.91-.39,1.31,1.31,0,0,0-1,.4,1.86,1.86,0,0,0-.48,1.06Z"/><path class="cls-6" d="M203.6,223.25h-.8V220.4q0-1.59-1.17-1.59a1.25,1.25,0,0,0-1,.45,1.68,1.68,0,0,0-.39,1.14v2.85h-.8v-5h.8v.83h0a1.79,1.79,0,0,1,1.64-.94,1.53,1.53,0,0,1,1.25.52,2.39,2.39,0,0,1,.44,1.54Z"/><path class="cls-6" d="M207.42,223.2a1.43,1.43,0,0,1-.74.16c-.88,0-1.32-.49-1.32-1.46v-3h-.85v-.69h.85V217l.81-.26v1.48h1.25v.69h-1.25v2.81a1.12,1.12,0,0,0,.17.72.68.68,0,0,0,.56.22.83.83,0,0,0,.52-.17Z"/><path class="cls-6" d="M212.51,221H209a1.93,1.93,0,0,0,.45,1.29,1.57,1.57,0,0,0,1.18.46,2.49,2.49,0,0,0,1.56-.56v.75a2.9,2.9,0,0,1-1.75.48,2.12,2.12,0,0,1-1.66-.68,2.77,2.77,0,0,1-.61-1.92,2.73,2.73,0,0,1,.66-1.9,2.14,2.14,0,0,1,1.65-.73,1.9,1.9,0,0,1,1.52.63,2.68,2.68,0,0,1,.53,1.76Zm-.82-.68a1.57,1.57,0,0,0-.33-1.07,1.14,1.14,0,0,0-.92-.39,1.28,1.28,0,0,0-1,.4,1.87,1.87,0,0,0-.49,1.06Z"/><path class="cls-6" d="M73.38,235.25h-.8v-.78h0a1.68,1.68,0,0,1-1.54.9,1.61,1.61,0,0,1-1.17-.4,1.36,1.36,0,0,1-.42-1.05c0-.93.55-1.47,1.65-1.63l1.5-.21c0-.85-.34-1.27-1-1.27a2.45,2.45,0,0,0-1.63.61v-.82a3.12,3.12,0,0,1,1.7-.46c1.17,0,1.76.62,1.76,1.86Zm-.8-2.53-1.21.17a2,2,0,0,0-.84.27.84.84,0,0,0-.28.71.76.76,0,0,0,.26.59,1,1,0,0,0,.7.24,1.27,1.27,0,0,0,1-.42,1.49,1.49,0,0,0,.39-1.06Z"/><path class="cls-6" d="M78.82,230.25l-2,5H76l-1.89-5H75l1.27,3.64a3.13,3.13,0,0,1,.17.69h0a3.39,3.39,0,0,1,.16-.68L78,230.25Z"/><path class="cls-6" d="M83.7,233H80.17a1.83,1.83,0,0,0,.45,1.29,1.55,1.55,0,0,0,1.18.46,2.46,2.46,0,0,0,1.55-.56v.75a2.89,2.89,0,0,1-1.74.48,2.14,2.14,0,0,1-1.67-.68,2.81,2.81,0,0,1-.6-1.92,2.73,2.73,0,0,1,.66-1.9,2.12,2.12,0,0,1,1.64-.73,1.88,1.88,0,0,1,1.52.63,2.63,2.63,0,0,1,.54,1.76Zm-.82-.68a1.63,1.63,0,0,0-.34-1.07,1.12,1.12,0,0,0-.91-.39,1.28,1.28,0,0,0-1,.4,1.81,1.81,0,0,0-.49,1.06Z"/><path class="cls-6" d="M88.32,235a2.63,2.63,0,0,1-1.37.35,2.26,2.26,0,0,1-1.73-.7,2.53,2.53,0,0,1-.65-1.8,2.76,2.76,0,0,1,.71-2,2.5,2.5,0,0,1,1.89-.74,2.7,2.7,0,0,1,1.16.24v.82a2,2,0,0,0-1.19-.39,1.6,1.6,0,0,0-1.26.55,2.06,2.06,0,0,0-.49,1.44,2,2,0,0,0,.46,1.39,1.59,1.59,0,0,0,1.24.51,2,2,0,0,0,1.23-.44Z"/><path class="cls-6" d="M93.07,235.25h-.8v-7.4h.8Z"/><path class="cls-6" d="M95.38,228.25v2.18h-.71v-2.18Z"/><path class="cls-6" d="M101,233H97.48a1.83,1.83,0,0,0,.45,1.29,1.55,1.55,0,0,0,1.18.46,2.46,2.46,0,0,0,1.55-.56v.75a2.89,2.89,0,0,1-1.74.48,2.14,2.14,0,0,1-1.67-.68,2.81,2.81,0,0,1-.6-1.92,2.73,2.73,0,0,1,.66-1.9,2.12,2.12,0,0,1,1.64-.73,1.88,1.88,0,0,1,1.52.63,2.63,2.63,0,0,1,.54,1.76Zm-.82-.68a1.63,1.63,0,0,0-.34-1.07,1.12,1.12,0,0,0-.91-.39,1.28,1.28,0,0,0-1,.4,1.81,1.81,0,0,0-.49,1.06Z"/><path class="cls-6" d="M101.92,235.07v-.86a2.36,2.36,0,0,0,1.44.49c.7,0,1-.24,1-.71a.64.64,0,0,0-.09-.34.91.91,0,0,0-.24-.24,2.08,2.08,0,0,0-.36-.2l-.45-.17a5.37,5.37,0,0,1-.58-.27,1.74,1.74,0,0,1-.42-.3,1.11,1.11,0,0,1-.26-.39,1.28,1.28,0,0,1-.08-.5,1.17,1.17,0,0,1,.16-.62,1.44,1.44,0,0,1,.43-.46,2,2,0,0,1,.61-.27,2.82,2.82,0,0,1,.71-.09,2.86,2.86,0,0,1,1.16.22v.81a2.27,2.27,0,0,0-1.27-.36,1.62,1.62,0,0,0-.4.05.89.89,0,0,0-.31.14.62.62,0,0,0-.2.23.53.53,0,0,0-.07.28.67.67,0,0,0,.07.33.55.55,0,0,0,.2.23,2.17,2.17,0,0,0,.34.19l.44.18a5.68,5.68,0,0,1,.6.26,2.52,2.52,0,0,1,.45.3,1.48,1.48,0,0,1,.28.39,1.21,1.21,0,0,1,.1.52,1.23,1.23,0,0,1-.16.65,1.45,1.45,0,0,1-.44.45,2,2,0,0,1-.63.27,3.08,3.08,0,0,1-.75.09A2.78,2.78,0,0,1,101.92,235.07Z"/><path class="cls-6" d="M106.16,235.07v-.86a2.41,2.41,0,0,0,1.44.49c.7,0,1.05-.24,1.05-.71a.64.64,0,0,0-.09-.34.91.91,0,0,0-.24-.24,1.54,1.54,0,0,0-.36-.2l-.45-.17c-.22-.09-.41-.18-.58-.27a1.74,1.74,0,0,1-.42-.3,1.27,1.27,0,0,1-.26-.39,1.5,1.5,0,0,1-.08-.5,1.17,1.17,0,0,1,.16-.62,1.57,1.57,0,0,1,.43-.46,2,2,0,0,1,.61-.27,3,3,0,0,1,1.87.13v.81a2.24,2.24,0,0,0-1.26-.36,1.7,1.7,0,0,0-.41.05,1,1,0,0,0-.31.14.72.72,0,0,0-.2.23.53.53,0,0,0-.07.28.67.67,0,0,0,.07.33.66.66,0,0,0,.21.23,1.69,1.69,0,0,0,.33.19l.44.18a4.9,4.9,0,0,1,.6.26,2,2,0,0,1,.45.3,1.28,1.28,0,0,1,.28.39,1.21,1.21,0,0,1,.11.52,1.23,1.23,0,0,1-.17.65,1.35,1.35,0,0,1-.44.45,2,2,0,0,1-.63.27,2.94,2.94,0,0,1-.74.09A2.82,2.82,0,0,1,106.16,235.07Z"/><path class="cls-6" d="M112.8,235.37a2.31,2.31,0,0,1-1.77-.7,2.57,2.57,0,0,1-.67-1.86,2.72,2.72,0,0,1,.69-2,2.48,2.48,0,0,1,1.86-.7,2.24,2.24,0,0,1,1.75.68,2.73,2.73,0,0,1,.63,1.91,2.7,2.7,0,0,1-.68,1.92A2.37,2.37,0,0,1,112.8,235.37Zm0-4.56a1.52,1.52,0,0,0-1.22.52,2.17,2.17,0,0,0-.45,1.45,2.05,2.05,0,0,0,.46,1.4,1.52,1.52,0,0,0,1.21.52,1.47,1.47,0,0,0,1.2-.51,2.16,2.16,0,0,0,.42-1.43,2.19,2.19,0,0,0-.42-1.44A1.47,1.47,0,0,0,112.85,230.81Z"/><path class="cls-6" d="M119.17,231.06a1.07,1.07,0,0,0-1.46.33,2.21,2.21,0,0,0-.34,1.31v2.55h-.8v-5h.8v1h0a1.69,1.69,0,0,1,.52-.82,1.16,1.16,0,0,1,.78-.3,1.43,1.43,0,0,1,.48.07Z"/><path class="cls-6" d="M127.05,235.25h-.8v-.85h0a1.85,1.85,0,0,1-1.72,1,1.87,1.87,0,0,1-1.51-.67,2.8,2.8,0,0,1-.56-1.83,3,3,0,0,1,.62-2,2.07,2.07,0,0,1,1.67-.74,1.58,1.58,0,0,1,1.5.81h0v-3.1h.8Zm-.8-2.26v-.74a1.45,1.45,0,0,0-.4-1,1.36,1.36,0,0,0-1-.42,1.37,1.37,0,0,0-1.15.54,2.33,2.33,0,0,0-.42,1.48,2.13,2.13,0,0,0,.4,1.37,1.33,1.33,0,0,0,1.08.5,1.38,1.38,0,0,0,1.09-.49A1.79,1.79,0,0,0,126.25,233Z"/><path class="cls-6" d="M132.69,233h-3.53a1.83,1.83,0,0,0,.45,1.29,1.55,1.55,0,0,0,1.18.46,2.46,2.46,0,0,0,1.55-.56v.75a2.89,2.89,0,0,1-1.74.48,2.14,2.14,0,0,1-1.67-.68,2.81,2.81,0,0,1-.6-1.92,2.73,2.73,0,0,1,.66-1.9,2.12,2.12,0,0,1,1.64-.73,1.88,1.88,0,0,1,1.52.63,2.63,2.63,0,0,1,.54,1.76Zm-.82-.68a1.63,1.63,0,0,0-.34-1.07,1.12,1.12,0,0,0-.91-.39,1.28,1.28,0,0,0-1,.4,1.81,1.81,0,0,0-.49,1.06Z"/><path class="cls-6" d="M133.6,235.07v-.86a2.36,2.36,0,0,0,1.44.49c.7,0,1.05-.24,1.05-.71a.64.64,0,0,0-.09-.34.91.91,0,0,0-.24-.24,2.08,2.08,0,0,0-.36-.2L135,233a5.37,5.37,0,0,1-.58-.27,1.74,1.74,0,0,1-.42-.3,1.11,1.11,0,0,1-.26-.39,1.28,1.28,0,0,1-.08-.5,1.17,1.17,0,0,1,.16-.62,1.44,1.44,0,0,1,.43-.46,2,2,0,0,1,.61-.27,2.82,2.82,0,0,1,.71-.09,2.86,2.86,0,0,1,1.16.22v.81a2.27,2.27,0,0,0-1.27-.36,1.62,1.62,0,0,0-.4.05.89.89,0,0,0-.31.14.62.62,0,0,0-.2.23.53.53,0,0,0-.07.28.67.67,0,0,0,.07.33.55.55,0,0,0,.2.23,2.17,2.17,0,0,0,.34.19l.44.18a5.68,5.68,0,0,1,.6.26,2.52,2.52,0,0,1,.45.3,1.48,1.48,0,0,1,.28.39,1.21,1.21,0,0,1,.1.52,1.23,1.23,0,0,1-.16.65,1.45,1.45,0,0,1-.44.45,2,2,0,0,1-.63.27,3,3,0,0,1-.75.09A2.78,2.78,0,0,1,133.6,235.07Z"/><path class="cls-6" d="M140.58,235.07v-.86a2.39,2.39,0,0,0,1.44.49c.7,0,1-.24,1-.71a.64.64,0,0,0-.09-.34.91.91,0,0,0-.24-.24,1.54,1.54,0,0,0-.36-.2l-.45-.17c-.22-.09-.41-.18-.58-.27a1.74,1.74,0,0,1-.42-.3,1.27,1.27,0,0,1-.26-.39,1.5,1.5,0,0,1-.08-.5,1.17,1.17,0,0,1,.16-.62,1.57,1.57,0,0,1,.43-.46,2,2,0,0,1,.61-.27,3,3,0,0,1,1.87.13v.81a2.24,2.24,0,0,0-1.26-.36,1.7,1.7,0,0,0-.41.05,1,1,0,0,0-.31.14.72.72,0,0,0-.2.23.53.53,0,0,0-.07.28.67.67,0,0,0,.07.33.66.66,0,0,0,.21.23,1.69,1.69,0,0,0,.33.19l.44.18a4.9,4.9,0,0,1,.6.26,2.2,2.2,0,0,1,.45.3,1.28,1.28,0,0,1,.28.39,1.21,1.21,0,0,1,.1.52,1.23,1.23,0,0,1-.16.65,1.35,1.35,0,0,1-.44.45,2,2,0,0,1-.63.27,2.94,2.94,0,0,1-.74.09A2.82,2.82,0,0,1,140.58,235.07Z"/><path class="cls-6" d="M148.53,235a2.6,2.6,0,0,1-1.36.35,2.25,2.25,0,0,1-1.73-.7,2.5,2.5,0,0,1-.66-1.8,2.8,2.8,0,0,1,.71-2,2.5,2.5,0,0,1,1.89-.74,2.64,2.64,0,0,1,1.16.24v.82a2,2,0,0,0-1.19-.39,1.61,1.61,0,0,0-1.26.55,2.11,2.11,0,0,0-.49,1.44,2,2,0,0,0,.46,1.39,1.59,1.59,0,0,0,1.24.51,2,2,0,0,0,1.23-.44Z"/><path class="cls-6" d="M150.15,229a.52.52,0,0,1-.36-.14.51.51,0,0,1-.15-.37.52.52,0,0,1,.15-.38.49.49,0,0,1,.36-.15.51.51,0,0,1,.53.53.49.49,0,0,1-.15.36A.52.52,0,0,1,150.15,229Zm.4,6.27h-.81v-5h.81Z"/><path class="cls-6" d="M156.18,233h-3.53a1.93,1.93,0,0,0,.45,1.29,1.57,1.57,0,0,0,1.19.46,2.46,2.46,0,0,0,1.55-.56v.75a2.9,2.9,0,0,1-1.75.48,2.12,2.12,0,0,1-1.66-.68,2.82,2.82,0,0,1-.61-1.92,2.74,2.74,0,0,1,.67-1.9,2.1,2.1,0,0,1,1.64-.73,1.9,1.9,0,0,1,1.52.63,2.62,2.62,0,0,1,.53,1.76Zm-.82-.68a1.57,1.57,0,0,0-.33-1.07,1.13,1.13,0,0,0-.92-.39,1.31,1.31,0,0,0-1,.4,1.94,1.94,0,0,0-.49,1.06Z"/><path class="cls-6" d="M161.55,235.25h-.8V232.4q0-1.59-1.17-1.59a1.25,1.25,0,0,0-1,.45,1.68,1.68,0,0,0-.39,1.14v2.85h-.8v-5h.8v.83h0a1.79,1.79,0,0,1,1.64-.94,1.53,1.53,0,0,1,1.25.52,2.39,2.39,0,0,1,.44,1.54Z"/><path class="cls-6" d="M166.46,235a2.6,2.6,0,0,1-1.36.35,2.25,2.25,0,0,1-1.73-.7,2.5,2.5,0,0,1-.66-1.8,2.8,2.8,0,0,1,.71-2,2.5,2.5,0,0,1,1.89-.74,2.64,2.64,0,0,1,1.16.24v.82a2,2,0,0,0-1.19-.39,1.61,1.61,0,0,0-1.26.55,2.11,2.11,0,0,0-.49,1.44,2,2,0,0,0,.46,1.39,1.61,1.61,0,0,0,1.24.51,2,2,0,0,0,1.23-.44Z"/><path class="cls-6" d="M171.69,233h-3.53a1.88,1.88,0,0,0,.45,1.29,1.57,1.57,0,0,0,1.18.46,2.49,2.49,0,0,0,1.56-.56v.75a2.9,2.9,0,0,1-1.75.48,2.12,2.12,0,0,1-1.66-.68,2.77,2.77,0,0,1-.61-1.92,2.73,2.73,0,0,1,.66-1.9,2.12,2.12,0,0,1,1.65-.73,1.9,1.9,0,0,1,1.52.63,2.68,2.68,0,0,1,.53,1.76Zm-.82-.68a1.57,1.57,0,0,0-.33-1.07,1.14,1.14,0,0,0-.92-.39,1.28,1.28,0,0,0-1,.4,1.87,1.87,0,0,0-.49,1.06Z"/><path class="cls-6" d="M172.6,235.07v-.86a2.41,2.41,0,0,0,1.44.49c.7,0,1.06-.24,1.06-.71a.64.64,0,0,0-.09-.34,1,1,0,0,0-.25-.24,1.54,1.54,0,0,0-.36-.2L174,233c-.22-.09-.41-.18-.58-.27a1.74,1.74,0,0,1-.42-.3,1.08,1.08,0,0,1-.25-.39,1.28,1.28,0,0,1-.09-.5,1.17,1.17,0,0,1,.16-.62,1.57,1.57,0,0,1,.43-.46,2.1,2.1,0,0,1,.61-.27,2.82,2.82,0,0,1,.71-.09,2.91,2.91,0,0,1,1.17.22v.81a2.27,2.27,0,0,0-1.27-.36,1.7,1.7,0,0,0-.41.05,1,1,0,0,0-.31.14.87.87,0,0,0-.2.23.53.53,0,0,0-.07.28.67.67,0,0,0,.07.33.66.66,0,0,0,.21.23,1.69,1.69,0,0,0,.33.19l.45.18a4.72,4.72,0,0,1,.59.26,2,2,0,0,1,.45.3,1.52,1.52,0,0,1,.29.39,1.38,1.38,0,0,1,.1.52,1.23,1.23,0,0,1-.17.65,1.42,1.42,0,0,1-.43.45,2.22,2.22,0,0,1-.63.27,3.08,3.08,0,0,1-.75.09A2.82,2.82,0,0,1,172.6,235.07Z"/><path class="cls-6" d="M183.9,233h-3.53a1.93,1.93,0,0,0,.45,1.29,1.57,1.57,0,0,0,1.19.46,2.46,2.46,0,0,0,1.55-.56v.75a2.9,2.9,0,0,1-1.75.48,2.12,2.12,0,0,1-1.66-.68,2.82,2.82,0,0,1-.61-1.92,2.69,2.69,0,0,1,.67-1.9,2.1,2.1,0,0,1,1.64-.73,1.9,1.9,0,0,1,1.52.63,2.62,2.62,0,0,1,.53,1.76Zm-.82-.68a1.57,1.57,0,0,0-.33-1.07,1.14,1.14,0,0,0-.92-.39,1.31,1.31,0,0,0-1,.4,1.94,1.94,0,0,0-.49,1.06Z"/><path class="cls-6" d="M189.27,235.25h-.8V232.4q0-1.59-1.17-1.59a1.25,1.25,0,0,0-1,.45,1.68,1.68,0,0,0-.39,1.14v2.85h-.8v-5h.8v.83h0a1.79,1.79,0,0,1,1.64-.94,1.53,1.53,0,0,1,1.25.52,2.39,2.39,0,0,1,.44,1.54Z"/><path class="cls-6" d="M199,235.25h-.91l-.74-2h-3l-.7,2h-.91l2.69-7h.85Zm-1.92-2.7-1.1-3a3,3,0,0,1-.1-.47h0a2.63,2.63,0,0,1-.12.47l-1.08,3Z"/><path class="cls-6" d="M199.66,235.07v-.86a2.41,2.41,0,0,0,1.44.49c.7,0,1.06-.24,1.06-.71a.64.64,0,0,0-.09-.34,1,1,0,0,0-.25-.24,1.54,1.54,0,0,0-.36-.2L201,233c-.22-.09-.41-.18-.58-.27a1.74,1.74,0,0,1-.42-.3,1.08,1.08,0,0,1-.25-.39,1.28,1.28,0,0,1-.09-.5,1.17,1.17,0,0,1,.16-.62,1.57,1.57,0,0,1,.43-.46,2.1,2.1,0,0,1,.61-.27,3.07,3.07,0,0,1,1.88.13v.81a2.27,2.27,0,0,0-1.27-.36,1.7,1.7,0,0,0-.41.05,1,1,0,0,0-.31.14.87.87,0,0,0-.2.23.53.53,0,0,0-.07.28.67.67,0,0,0,.07.33.66.66,0,0,0,.21.23,1.69,1.69,0,0,0,.33.19l.45.18a4.72,4.72,0,0,1,.59.26,2,2,0,0,1,.45.3,1.32,1.32,0,0,1,.29.39,1.38,1.38,0,0,1,.1.52,1.23,1.23,0,0,1-.17.65,1.42,1.42,0,0,1-.43.45,2.22,2.22,0,0,1-.63.27,3.08,3.08,0,0,1-.75.09A2.82,2.82,0,0,1,199.66,235.07Z"/><path class="cls-6" d="M204.62,229a.53.53,0,0,1-.37-.14.51.51,0,0,1-.15-.37.52.52,0,0,1,.15-.38.5.5,0,0,1,.37-.15.51.51,0,0,1,.37.15.52.52,0,0,1,.15.38.49.49,0,0,1-.15.36A.51.51,0,0,1,204.62,229Zm.39,6.27h-.8v-5h.8Z"/><path class="cls-6" d="M210.65,233h-3.53a1.83,1.83,0,0,0,.45,1.29,1.55,1.55,0,0,0,1.18.46,2.46,2.46,0,0,0,1.55-.56v.75a2.89,2.89,0,0,1-1.74.48,2.14,2.14,0,0,1-1.67-.68,2.81,2.81,0,0,1-.6-1.92,2.73,2.73,0,0,1,.66-1.9,2.12,2.12,0,0,1,1.64-.73,1.88,1.88,0,0,1,1.52.63,2.63,2.63,0,0,1,.54,1.76Zm-.82-.68a1.63,1.63,0,0,0-.34-1.07,1.12,1.12,0,0,0-.91-.39,1.28,1.28,0,0,0-1,.4,1.81,1.81,0,0,0-.49,1.06Z"/><path class="cls-6" d="M212.14,235.36a.53.53,0,0,1-.39-.16.55.55,0,1,1,.78,0A.53.53,0,0,1,212.14,235.36Z"/><path class="cls-6" d="M75,244.42c0,2-.89,3-2.66,3s-2.55-1-2.55-2.84v-4.28h.82v4.23c0,1.43.61,2.15,1.82,2.15s1.75-.69,1.75-2.08v-4.3H75Z"/><path class="cls-6" d="M80.82,247.25H80V244.4c0-1.06-.39-1.59-1.16-1.59a1.25,1.25,0,0,0-1,.45,1.64,1.64,0,0,0-.4,1.14v2.85h-.8v-5h.8v.83h0a1.81,1.81,0,0,1,1.64-.94,1.54,1.54,0,0,1,1.26.52,2.39,2.39,0,0,1,.43,1.54Z"/><path class="cls-6" d="M85.48,241a.57.57,0,0,1-.37-.14.51.51,0,0,1-.15-.37.52.52,0,0,1,.15-.38.53.53,0,0,1,.37-.15.5.5,0,0,1,.37.15.49.49,0,0,1,.16.38.46.46,0,0,1-.16.36A.5.5,0,0,1,85.48,241Zm.39,6.27h-.8v-5h.8Z"/><path class="cls-6" d="M91.76,247.25H91v-.85h0a1.84,1.84,0,0,1-1.72,1,1.87,1.87,0,0,1-1.51-.67,2.8,2.8,0,0,1-.56-1.83,3,3,0,0,1,.63-2,2,2,0,0,1,1.66-.74,1.58,1.58,0,0,1,1.5.81h0v-3.1h.8ZM91,245v-.74a1.41,1.41,0,0,0-.4-1,1.36,1.36,0,0,0-1-.42,1.37,1.37,0,0,0-1.15.54,2.33,2.33,0,0,0-.42,1.48,2.19,2.19,0,0,0,.4,1.37,1.33,1.33,0,0,0,1.09.5,1.38,1.38,0,0,0,1.08-.49A1.79,1.79,0,0,0,91,245Z"/><path class="cls-6" d="M97.4,245H93.87a1.83,1.83,0,0,0,.45,1.29,1.57,1.57,0,0,0,1.18.46,2.46,2.46,0,0,0,1.55-.56v.75a2.89,2.89,0,0,1-1.74.48,2.14,2.14,0,0,1-1.67-.68,2.81,2.81,0,0,1-.6-1.92,2.73,2.73,0,0,1,.66-1.9,2.12,2.12,0,0,1,1.64-.73,1.88,1.88,0,0,1,1.52.63,2.63,2.63,0,0,1,.54,1.76Zm-.82-.68a1.58,1.58,0,0,0-.34-1.07,1.11,1.11,0,0,0-.91-.39,1.28,1.28,0,0,0-1,.4,1.81,1.81,0,0,0-.49,1.06Z"/><path class="cls-6" d="M102.76,247.25H102V244.4c0-1.06-.39-1.59-1.16-1.59a1.29,1.29,0,0,0-1,.45,1.68,1.68,0,0,0-.39,1.14v2.85h-.8v-5h.8v.83h0a1.81,1.81,0,0,1,1.64-.94,1.54,1.54,0,0,1,1.26.52,2.39,2.39,0,0,1,.43,1.54Z"/><path class="cls-6" d="M106.59,247.2a1.49,1.49,0,0,1-.75.16c-.87,0-1.31-.49-1.31-1.46v-3h-.86v-.69h.86V241l.8-.26v1.48h1.26v.69h-1.26v2.81a1.19,1.19,0,0,0,.17.72.69.69,0,0,0,.57.22.85.85,0,0,0,.52-.17Z"/><path class="cls-6" d="M108.07,241a.55.55,0,0,1-.37-.14.51.51,0,0,1-.15-.37.52.52,0,0,1,.15-.38.51.51,0,0,1,.37-.15.5.5,0,0,1,.37.15.53.53,0,0,1,.16.38.53.53,0,0,1-.53.51Zm.39,6.27h-.8v-5h.8Z"/><path class="cls-6" d="M112.55,240.55a1.12,1.12,0,0,0-.53-.13c-.56,0-.84.35-.84,1.06v.77h1.17v.69h-1.17v4.31h-.8v-4.31h-.85v-.69h.85v-.81a1.65,1.65,0,0,1,.46-1.24,1.7,1.7,0,0,1,1.71-.37Z"/><path class="cls-6" d="M113.62,241a.57.57,0,0,1-.37-.14.51.51,0,0,1-.15-.37.52.52,0,0,1,.15-.38.53.53,0,0,1,.37-.15.5.5,0,0,1,.37.15.49.49,0,0,1,.16.38.46.46,0,0,1-.16.36A.5.5,0,0,1,113.62,241Zm.39,6.27h-.8v-5h.8Z"/><path class="cls-6" d="M119.21,247.25h-.8v-.78h0a1.68,1.68,0,0,1-1.54.9,1.65,1.65,0,0,1-1.17-.4,1.36,1.36,0,0,1-.42-1.05c0-.93.55-1.47,1.65-1.63l1.5-.21c0-.85-.34-1.27-1-1.27a2.47,2.47,0,0,0-1.63.61v-.82a3.12,3.12,0,0,1,1.7-.46c1.17,0,1.76.62,1.76,1.86Zm-.8-2.53-1.21.17a2,2,0,0,0-.84.27.84.84,0,0,0-.28.71.76.76,0,0,0,.26.59,1,1,0,0,0,.7.24,1.27,1.27,0,0,0,1-.42,1.49,1.49,0,0,0,.39-1.06Z"/><path class="cls-6" d="M124.87,247.25h-.8V244.4c0-1.06-.39-1.59-1.16-1.59a1.29,1.29,0,0,0-1,.45,1.68,1.68,0,0,0-.39,1.14v2.85h-.8v-5h.8v.83h0a1.81,1.81,0,0,1,1.64-.94,1.54,1.54,0,0,1,1.26.52,2.39,2.39,0,0,1,.43,1.54Z"/><path class="cls-6" d="M128.7,247.2a1.49,1.49,0,0,1-.75.16c-.87,0-1.31-.49-1.31-1.46v-3h-.86v-.69h.86V241l.8-.26v1.48h1.26v.69h-1.26v2.81a1.19,1.19,0,0,0,.17.72.69.69,0,0,0,.57.22.85.85,0,0,0,.52-.17Z"/><path class="cls-6" d="M136.66,247.25h-.8V244.4c0-1.06-.39-1.59-1.16-1.59a1.26,1.26,0,0,0-1,.45,1.68,1.68,0,0,0-.39,1.14v2.85h-.8v-5h.8v.83h0a1.8,1.8,0,0,1,1.64-.94,1.52,1.52,0,0,1,1.25.52,2.39,2.39,0,0,1,.44,1.54Z"/><path class="cls-6" d="M142.21,247.25h-.8v-.79h0a1.64,1.64,0,0,1-1.54.91c-1.2,0-1.79-.71-1.79-2.13v-3h.8v2.86c0,1.06.4,1.59,1.21,1.59a1.21,1.21,0,0,0,1-.44,1.64,1.64,0,0,0,.38-1.13v-2.88h.8Z"/><path class="cls-6" d="M150.93,247.25h-.8v-2.87a2.18,2.18,0,0,0-.26-1.2,1,1,0,0,0-.86-.37,1.11,1.11,0,0,0-.88.47,1.82,1.82,0,0,0-.35,1.12v2.85H147v-3q0-1.47-1.14-1.47a1.07,1.07,0,0,0-.87.44,1.83,1.83,0,0,0-.34,1.15v2.85h-.8v-5h.8V243h0a1.69,1.69,0,0,1,1.55-.9,1.45,1.45,0,0,1,1.42,1,1.77,1.77,0,0,1,1.66-1c1.1,0,1.65.67,1.65,2Z"/><path class="cls-6" d="M156.46,245h-3.53a1.83,1.83,0,0,0,.45,1.29,1.55,1.55,0,0,0,1.18.46,2.46,2.46,0,0,0,1.55-.56v.75a2.89,2.89,0,0,1-1.74.48,2.14,2.14,0,0,1-1.67-.68,2.81,2.81,0,0,1-.6-1.92,2.73,2.73,0,0,1,.66-1.9,2.12,2.12,0,0,1,1.64-.73,1.88,1.88,0,0,1,1.52.63,2.63,2.63,0,0,1,.54,1.76Zm-.82-.68a1.63,1.63,0,0,0-.34-1.07,1.12,1.12,0,0,0-.91-.39,1.28,1.28,0,0,0-1,.4,1.81,1.81,0,0,0-.49,1.06Zm-.13-4.57-1.28,1.61h-.62l1.09-1.61Z"/><path class="cls-6" d="M160.28,243.06a1.05,1.05,0,0,0-.61-.16,1,1,0,0,0-.86.49,2.29,2.29,0,0,0-.34,1.31v2.55h-.8v-5h.8v1h0a1.76,1.76,0,0,1,.52-.82,1.2,1.2,0,0,1,.79-.3,1.43,1.43,0,0,1,.48.07Z"/><path class="cls-6" d="M161.56,241a.53.53,0,0,1-.37-.14.51.51,0,0,1-.15-.37.52.52,0,0,1,.15-.38.5.5,0,0,1,.37-.15.51.51,0,0,1,.37.15.52.52,0,0,1,.15.38.49.49,0,0,1-.15.36A.51.51,0,0,1,161.56,241Zm.39,6.27h-.8v-5h.8Z"/><path class="cls-6" d="M167.84,249.55H167v-3.16h0a1.78,1.78,0,0,1-1.7,1,1.89,1.89,0,0,1-1.52-.67,2.8,2.8,0,0,1-.56-1.83,3,3,0,0,1,.62-2,2.08,2.08,0,0,1,1.68-.74A1.55,1.55,0,0,1,167,243h0v-.7h.81ZM167,245v-.73a1.46,1.46,0,0,0-.4-1,1.36,1.36,0,0,0-1-.42,1.39,1.39,0,0,0-1.14.53,2.4,2.4,0,0,0-.42,1.51,2,2,0,0,0,.4,1.35,1.3,1.3,0,0,0,1.05.5,1.39,1.39,0,0,0,1.12-.49A1.76,1.76,0,0,0,167,245Z"/><path class="cls-6" d="M173.5,247.25h-.8v-.79h0a1.64,1.64,0,0,1-1.54.91c-1.2,0-1.79-.71-1.79-2.13v-3h.79v2.86c0,1.06.41,1.59,1.22,1.59a1.21,1.21,0,0,0,1-.44,1.64,1.64,0,0,0,.38-1.13v-2.88h.8Z"/><path class="cls-6" d="M179.13,245H175.6a1.93,1.93,0,0,0,.45,1.29,1.57,1.57,0,0,0,1.18.46,2.47,2.47,0,0,0,1.56-.56v.75a2.9,2.9,0,0,1-1.75.48,2.12,2.12,0,0,1-1.66-.68,2.82,2.82,0,0,1-.61-1.92,2.69,2.69,0,0,1,.67-1.9,2.1,2.1,0,0,1,1.64-.73,1.9,1.9,0,0,1,1.52.63,2.62,2.62,0,0,1,.53,1.76Zm-.82-.68a1.57,1.57,0,0,0-.33-1.07,1.14,1.14,0,0,0-.92-.39,1.31,1.31,0,0,0-1,.4,1.87,1.87,0,0,0-.49,1.06Z"/><path class="cls-6" d="M183.49,241a.52.52,0,0,1-.36-.14.51.51,0,0,1-.15-.37.52.52,0,0,1,.15-.38.49.49,0,0,1,.36-.15.51.51,0,0,1,.53.53.49.49,0,0,1-.15.36A.52.52,0,0,1,183.49,241Zm.39,6.27h-.8v-5h.8Z"/><path class="cls-6" d="M189.66,247.25h-.8V244.4q0-1.59-1.17-1.59a1.25,1.25,0,0,0-1,.45,1.68,1.68,0,0,0-.39,1.14v2.85h-.8v-5h.8v.83h0a1.79,1.79,0,0,1,1.64-.94,1.53,1.53,0,0,1,1.25.52,2.39,2.39,0,0,1,.44,1.54Z"/><path class="cls-6" d="M193.48,247.2a1.43,1.43,0,0,1-.74.16c-.88,0-1.32-.49-1.32-1.46v-3h-.86v-.69h.86V241l.8-.26v1.48h1.26v.69h-1.26v2.81a1.11,1.11,0,0,0,.18.72.68.68,0,0,0,.56.22.83.83,0,0,0,.52-.17Z"/><path class="cls-6" d="M198.57,245H195a1.88,1.88,0,0,0,.45,1.29,1.57,1.57,0,0,0,1.18.46,2.49,2.49,0,0,0,1.56-.56v.75a2.9,2.9,0,0,1-1.75.48,2.12,2.12,0,0,1-1.66-.68,2.77,2.77,0,0,1-.61-1.92,2.73,2.73,0,0,1,.66-1.9,2.12,2.12,0,0,1,1.65-.73,1.9,1.9,0,0,1,1.52.63,2.68,2.68,0,0,1,.53,1.76Zm-.82-.68a1.57,1.57,0,0,0-.33-1.07,1.14,1.14,0,0,0-.92-.39,1.28,1.28,0,0,0-1,.4,1.87,1.87,0,0,0-.49,1.06Z"/><path class="cls-6" d="M202.39,243.06a1,1,0,0,0-.6-.16,1,1,0,0,0-.86.49,2.21,2.21,0,0,0-.35,1.31v2.55h-.8v-5h.8v1h0a1.77,1.77,0,0,1,.53-.82,1.16,1.16,0,0,1,.78-.3,1.43,1.43,0,0,1,.48.07Z"/><path class="cls-6" d="M207.41,247.25h-.8V244.4c0-1.06-.39-1.59-1.16-1.59a1.29,1.29,0,0,0-1,.45,1.68,1.68,0,0,0-.39,1.14v2.85h-.8v-5h.8v.83h0a1.81,1.81,0,0,1,1.64-.94,1.54,1.54,0,0,1,1.26.52,2.39,2.39,0,0,1,.43,1.54Z"/><path class="cls-6" d="M212.5,247.25h-.8v-.78h0a1.68,1.68,0,0,1-1.54.9A1.61,1.61,0,0,1,209,247a1.36,1.36,0,0,1-.42-1.05c0-.93.55-1.47,1.65-1.63l1.5-.21c0-.85-.35-1.27-1-1.27a2.43,2.43,0,0,0-1.63.61v-.82a3.09,3.09,0,0,1,1.7-.46c1.17,0,1.76.62,1.76,1.86Zm-.8-2.53-1.21.17a2,2,0,0,0-.84.27.81.81,0,0,0-.28.71.76.76,0,0,0,.26.59,1,1,0,0,0,.7.24,1.29,1.29,0,0,0,1-.42,1.49,1.49,0,0,0,.39-1.06Z"/><path class="cls-6" d="M216.57,244.78H213.9v-.63h2.67Z"/><path class="cls-6" d="M72.12,259.2a1.49,1.49,0,0,1-.75.16c-.87,0-1.31-.49-1.31-1.46v-3H69.2v-.69h.86V253l.8-.26v1.48h1.26v.69H70.86v2.81a1.19,1.19,0,0,0,.17.72.72.72,0,0,0,.57.22.85.85,0,0,0,.52-.17Z"/><path class="cls-6" d="M73.6,253a.57.57,0,0,1-.37-.14.51.51,0,0,1-.15-.37.52.52,0,0,1,.15-.38.53.53,0,0,1,.37-.15.5.5,0,0,1,.37.15.49.49,0,0,1,.16.38.46.46,0,0,1-.16.36A.5.5,0,0,1,73.6,253Zm.39,6.27h-.8v-5H74Z"/><path class="cls-6" d="M77.7,259.37a2.31,2.31,0,0,1-1.77-.7,2.61,2.61,0,0,1-.66-1.86,2.72,2.72,0,0,1,.69-2,2.48,2.48,0,0,1,1.86-.7,2.24,2.24,0,0,1,1.75.68,2.78,2.78,0,0,1,.62,1.91,2.69,2.69,0,0,1-.67,1.92A2.38,2.38,0,0,1,77.7,259.37Zm.06-4.56a1.52,1.52,0,0,0-1.22.52,2.17,2.17,0,0,0-.45,1.45,2,2,0,0,0,.46,1.4,1.5,1.5,0,0,0,1.21.52,1.43,1.43,0,0,0,1.19-.51,2.16,2.16,0,0,0,.42-1.43,2.19,2.19,0,0,0-.42-1.44A1.43,1.43,0,0,0,77.76,254.81Z"/><path class="cls-6" d="M85.62,259.25h-.8V256.4c0-1.06-.39-1.59-1.16-1.59a1.25,1.25,0,0,0-1,.45,1.64,1.64,0,0,0-.4,1.14v2.85h-.8v-5h.8v.83h0a1.81,1.81,0,0,1,1.64-.94,1.54,1.54,0,0,1,1.26.52,2.39,2.39,0,0,1,.43,1.54Z"/><path class="cls-6" d="M90.71,259.25h-.8v-.78h0a1.68,1.68,0,0,1-1.54.9,1.61,1.61,0,0,1-1.17-.4,1.36,1.36,0,0,1-.42-1.05c0-.93.55-1.47,1.65-1.63l1.5-.21c0-.85-.34-1.27-1-1.27a2.45,2.45,0,0,0-1.63.61v-.82a3.12,3.12,0,0,1,1.7-.46c1.17,0,1.76.62,1.76,1.86Zm-.8-2.53-1.21.17a2,2,0,0,0-.84.27.81.81,0,0,0-.28.71.76.76,0,0,0,.26.59,1,1,0,0,0,.7.24,1.29,1.29,0,0,0,1-.42,1.49,1.49,0,0,0,.39-1.06Z"/><path class="cls-6" d="M93,259.25h-.8v-7.4H93Z"/><path class="cls-6" d="M98.2,258.53h0v3h-.8v-7.3h.8v.88h0a1.89,1.89,0,0,1,1.73-1,1.83,1.83,0,0,1,1.51.67,2.76,2.76,0,0,1,.54,1.8,3.06,3.06,0,0,1-.61,2,2,2,0,0,1-1.67.76A1.67,1.67,0,0,1,98.2,258.53Zm0-2v.7a1.51,1.51,0,0,0,.4,1.05,1.43,1.43,0,0,0,2.17-.12,2.6,2.6,0,0,0,.41-1.55,2,2,0,0,0-.39-1.31,1.27,1.27,0,0,0-1-.47,1.41,1.41,0,0,0-1.12.48A1.78,1.78,0,0,0,98.18,256.51Z"/><path class="cls-6" d="M107.28,257h-3.53a1.83,1.83,0,0,0,.45,1.29,1.55,1.55,0,0,0,1.18.46,2.46,2.46,0,0,0,1.55-.56v.75a2.89,2.89,0,0,1-1.74.48,2.14,2.14,0,0,1-1.67-.68,2.81,2.81,0,0,1-.6-1.92,2.73,2.73,0,0,1,.66-1.9,2.12,2.12,0,0,1,1.64-.73,1.88,1.88,0,0,1,1.52.63,2.63,2.63,0,0,1,.54,1.76Zm-.82-.68a1.63,1.63,0,0,0-.34-1.07,1.12,1.12,0,0,0-.91-.39,1.28,1.28,0,0,0-1,.4,1.81,1.81,0,0,0-.49,1.06Z"/><path class="cls-6" d="M111.1,255.06a1.05,1.05,0,0,0-.61-.16,1,1,0,0,0-.86.49,2.21,2.21,0,0,0-.34,1.31v2.55h-.8v-5h.8v1h0a1.76,1.76,0,0,1,.52-.82,1.2,1.2,0,0,1,.79-.3,1.48,1.48,0,0,1,.48.07Z"/><path class="cls-6" d="M119.07,259.25h-.81v-2.87a2.19,2.19,0,0,0-.25-1.2,1,1,0,0,0-.86-.37,1.08,1.08,0,0,0-.88.47,1.82,1.82,0,0,0-.35,1.12v2.85h-.81v-3c0-1-.37-1.47-1.13-1.47a1.07,1.07,0,0,0-.87.44,1.83,1.83,0,0,0-.34,1.15v2.85H112v-5h.8V255h0a1.69,1.69,0,0,1,1.55-.9,1.43,1.43,0,0,1,.89.28,1.37,1.37,0,0,1,.52.75,1.79,1.79,0,0,1,1.66-1c1.11,0,1.66.67,1.66,2Z"/><path class="cls-6" d="M124.6,257h-3.53a1.83,1.83,0,0,0,.45,1.29,1.55,1.55,0,0,0,1.18.46,2.46,2.46,0,0,0,1.55-.56v.75a2.89,2.89,0,0,1-1.74.48,2.14,2.14,0,0,1-1.67-.68,2.81,2.81,0,0,1-.6-1.92,2.73,2.73,0,0,1,.66-1.9,2.12,2.12,0,0,1,1.64-.73,1.88,1.88,0,0,1,1.52.63,2.63,2.63,0,0,1,.54,1.76Zm-.82-.68a1.63,1.63,0,0,0-.34-1.07,1.12,1.12,0,0,0-.91-.39,1.28,1.28,0,0,0-1,.4,1.81,1.81,0,0,0-.49,1.06Z"/><path class="cls-6" d="M128.13,259.2a1.49,1.49,0,0,1-.75.16c-.88,0-1.31-.49-1.31-1.46v-3h-.86v-.69h.86V253l.8-.26v1.48h1.26v.69h-1.26v2.81a1.12,1.12,0,0,0,.17.72.69.69,0,0,0,.57.22.85.85,0,0,0,.52-.17Z"/><path class="cls-6" d="M135.52,259.25h-.81v-.78h0a1.69,1.69,0,0,1-1.54.9A1.61,1.61,0,0,1,132,259a1.36,1.36,0,0,1-.42-1.05c0-.93.54-1.47,1.65-1.63l1.49-.21c0-.85-.34-1.27-1-1.27a2.47,2.47,0,0,0-1.63.61v-.82a3.12,3.12,0,0,1,1.7-.46q1.77,0,1.77,1.86Zm-.81-2.53-1.2.17a2,2,0,0,0-.84.27.81.81,0,0,0-.28.71.73.73,0,0,0,.26.59,1,1,0,0,0,.69.24,1.29,1.29,0,0,0,1-.42,1.53,1.53,0,0,0,.38-1.06Zm-.29-3.41h-.62l-1.28-1.61h.82Z"/><path class="cls-6" d="M143.17,259a2.61,2.61,0,0,1-1.37.35,2.24,2.24,0,0,1-1.72-.7,2.5,2.5,0,0,1-.66-1.8,2.8,2.8,0,0,1,.71-2,2.5,2.5,0,0,1,1.89-.74,2.64,2.64,0,0,1,1.16.24v.82a2,2,0,0,0-1.19-.39,1.61,1.61,0,0,0-1.26.55,2.11,2.11,0,0,0-.49,1.44,2,2,0,0,0,.46,1.39,1.59,1.59,0,0,0,1.24.51,2,2,0,0,0,1.23-.44Z"/><path class="cls-6" d="M148.53,259.25h-.8v-2.88c0-1-.39-1.56-1.16-1.56a1.28,1.28,0,0,0-1,.45,1.72,1.72,0,0,0-.4,1.16v2.83h-.8v-7.4h.8v3.23h0a1.82,1.82,0,0,1,1.64-.94c1.13,0,1.69.67,1.69,2Z"/><path class="cls-6" d="M153.62,259.25h-.8v-.78h0a1.68,1.68,0,0,1-1.54.9,1.63,1.63,0,0,1-1.17-.4,1.36,1.36,0,0,1-.42-1.05c0-.93.55-1.47,1.65-1.63l1.5-.21c0-.85-.34-1.27-1-1.27a2.45,2.45,0,0,0-1.63.61v-.82a3.12,3.12,0,0,1,1.7-.46c1.17,0,1.76.62,1.76,1.86Zm-.8-2.53-1.21.17a2,2,0,0,0-.84.27.84.84,0,0,0-.28.71.76.76,0,0,0,.26.59,1,1,0,0,0,.7.24,1.27,1.27,0,0,0,1-.42,1.49,1.49,0,0,0,.39-1.06Z"/><path class="cls-6" d="M158.54,259a2.63,2.63,0,0,1-1.37.35,2.26,2.26,0,0,1-1.73-.7,2.53,2.53,0,0,1-.65-1.8,2.76,2.76,0,0,1,.71-2,2.5,2.5,0,0,1,1.89-.74,2.67,2.67,0,0,1,1.16.24v.82a2,2,0,0,0-1.19-.39,1.61,1.61,0,0,0-1.26.55,2.06,2.06,0,0,0-.49,1.44,2,2,0,0,0,.46,1.39,1.59,1.59,0,0,0,1.24.51,2,2,0,0,0,1.23-.44Z"/><path class="cls-6" d="M163.79,259.25H163v-.79h0a1.63,1.63,0,0,1-1.54.91c-1.19,0-1.79-.71-1.79-2.13v-3h.8v2.86c0,1.06.4,1.59,1.21,1.59a1.21,1.21,0,0,0,1-.44,1.6,1.6,0,0,0,.38-1.13v-2.88h.8Z"/><path class="cls-6" d="M169.56,259.25h-.8V256.4c0-1.06-.39-1.59-1.16-1.59a1.27,1.27,0,0,0-1,.45,1.68,1.68,0,0,0-.39,1.14v2.85h-.8v-5h.8v.83h0a1.8,1.8,0,0,1,1.64-.94,1.52,1.52,0,0,1,1.25.52,2.39,2.39,0,0,1,.44,1.54Z"/><path class="cls-6" d="M171.35,259.36a.53.53,0,0,1-.39-.16.55.55,0,1,1,.78,0A.53.53,0,0,1,171.35,259.36Z"/><path class="cls-6" d="M177.25,257h-3.53a1.93,1.93,0,0,0,.45,1.29,1.57,1.57,0,0,0,1.18.46,2.47,2.47,0,0,0,1.56-.56v.75a2.9,2.9,0,0,1-1.75.48,2.12,2.12,0,0,1-1.66-.68,2.82,2.82,0,0,1-.61-1.92,2.69,2.69,0,0,1,.67-1.9,2.1,2.1,0,0,1,1.64-.73,1.9,1.9,0,0,1,1.52.63,2.62,2.62,0,0,1,.53,1.76Zm-.82-.68a1.57,1.57,0,0,0-.33-1.07,1.14,1.14,0,0,0-.92-.39,1.31,1.31,0,0,0-1,.4,1.94,1.94,0,0,0-.49,1.06Z"/><path class="cls-6" d="M185.47,259.25h-.8v-.85h0a2,2,0,0,1-3.22.3,2.75,2.75,0,0,1-.57-1.83,3,3,0,0,1,.63-2,2,2,0,0,1,1.66-.74,1.58,1.58,0,0,1,1.5.81h0v-3.1h.8Zm-.8-2.26v-.74a1.41,1.41,0,0,0-.4-1,1.34,1.34,0,0,0-1-.42,1.39,1.39,0,0,0-1.16.54,2.33,2.33,0,0,0-.42,1.48,2.13,2.13,0,0,0,.41,1.37,1.32,1.32,0,0,0,1.08.5,1.36,1.36,0,0,0,1.08-.49A1.79,1.79,0,0,0,184.67,257Z"/><path class="cls-6" d="M187.79,252.25v2.18h-.71v-2.18Z"/><path class="cls-6" d="M193.41,257h-3.53a1.83,1.83,0,0,0,.45,1.29,1.57,1.57,0,0,0,1.18.46,2.44,2.44,0,0,0,1.55-.56v.75a2.87,2.87,0,0,1-1.74.48,2.12,2.12,0,0,1-1.66-.68,2.77,2.77,0,0,1-.61-1.92,2.73,2.73,0,0,1,.66-1.9,2.12,2.12,0,0,1,1.65-.73,1.86,1.86,0,0,1,1.51.63,2.63,2.63,0,0,1,.54,1.76Zm-.82-.68a1.57,1.57,0,0,0-.33-1.07,1.14,1.14,0,0,0-.92-.39,1.28,1.28,0,0,0-1,.4,1.87,1.87,0,0,0-.49,1.06Zm.09-3h-.59l-.8-1.13-.81,1.13h-.55l1-1.63h.65Z"/><path class="cls-6" d="M196.94,259.2a1.49,1.49,0,0,1-.75.16c-.87,0-1.31-.49-1.31-1.46v-3H194v-.69h.86V253l.8-.26v1.48h1.26v.69h-1.26v2.81a1.19,1.19,0,0,0,.17.72.72.72,0,0,0,.57.22.83.83,0,0,0,.52-.17Z"/><path class="cls-6" d="M200.62,255.06a1,1,0,0,0-.61-.16,1,1,0,0,0-.85.49,2.21,2.21,0,0,0-.35,1.31v2.55H198v-5h.8v1h0a1.84,1.84,0,0,1,.52-.82,1.2,1.2,0,0,1,.79-.3,1.43,1.43,0,0,1,.48.07Z"/><path class="cls-6" d="M205.51,257H202a1.87,1.87,0,0,0,.44,1.29,1.59,1.59,0,0,0,1.19.46,2.46,2.46,0,0,0,1.55-.56v.75a2.89,2.89,0,0,1-1.74.48,2.13,2.13,0,0,1-1.67-.68,2.81,2.81,0,0,1-.6-1.92,2.73,2.73,0,0,1,.66-1.9,2.12,2.12,0,0,1,1.64-.73,1.9,1.9,0,0,1,1.52.63,2.63,2.63,0,0,1,.54,1.76Zm-.82-.68a1.63,1.63,0,0,0-.34-1.07,1.12,1.12,0,0,0-.91-.39,1.31,1.31,0,0,0-1,.4,1.86,1.86,0,0,0-.48,1.06Z"/><path class="cls-6" d="M73.38,271.25h-.8v-.78h0a1.68,1.68,0,0,1-1.54.9,1.61,1.61,0,0,1-1.17-.4,1.36,1.36,0,0,1-.42-1.05c0-.93.55-1.47,1.65-1.63l1.5-.21c0-.85-.34-1.27-1-1.27a2.45,2.45,0,0,0-1.63.61v-.82a3.12,3.12,0,0,1,1.7-.46c1.17,0,1.76.62,1.76,1.86Zm-.8-2.53-1.21.17a2,2,0,0,0-.84.27.84.84,0,0,0-.28.71.76.76,0,0,0,.26.59,1,1,0,0,0,.7.24,1.27,1.27,0,0,0,1-.42,1.49,1.49,0,0,0,.39-1.06Z"/><path class="cls-6" d="M74.59,271.07v-.86a2.36,2.36,0,0,0,1.44.49c.7,0,1-.24,1-.71a.64.64,0,0,0-.09-.34.91.91,0,0,0-.24-.24,1.77,1.77,0,0,0-.36-.2l-.45-.17a5.37,5.37,0,0,1-.58-.27,1.74,1.74,0,0,1-.42-.3,1.11,1.11,0,0,1-.26-.39,1.5,1.5,0,0,1-.08-.5,1.17,1.17,0,0,1,.16-.62,1.57,1.57,0,0,1,.43-.46,2,2,0,0,1,.61-.27,2.82,2.82,0,0,1,.71-.09,2.86,2.86,0,0,1,1.16.22v.81a2.25,2.25,0,0,0-1.27-.36,1.62,1.62,0,0,0-.4.05.89.89,0,0,0-.31.14.72.72,0,0,0-.2.23.53.53,0,0,0-.07.28.67.67,0,0,0,.07.33.58.58,0,0,0,.21.23,1.69,1.69,0,0,0,.33.19l.44.18a5.68,5.68,0,0,1,.6.26,2.52,2.52,0,0,1,.45.3,1.28,1.28,0,0,1,.28.39,1.21,1.21,0,0,1,.1.52,1.23,1.23,0,0,1-.16.65,1.45,1.45,0,0,1-.44.45,2,2,0,0,1-.63.27,3,3,0,0,1-.75.09A2.78,2.78,0,0,1,74.59,271.07Z"/><path class="cls-6" d="M78.83,271.07v-.86a2.41,2.41,0,0,0,1.44.49c.7,0,1.06-.24,1.06-.71a.64.64,0,0,0-.09-.34,1.14,1.14,0,0,0-.25-.24,1.54,1.54,0,0,0-.36-.2l-.45-.17c-.22-.09-.41-.18-.58-.27a1.74,1.74,0,0,1-.42-.3,1.08,1.08,0,0,1-.25-.39,1.28,1.28,0,0,1-.09-.5A1.17,1.17,0,0,1,79,267a1.57,1.57,0,0,1,.43-.46,2,2,0,0,1,.61-.27,2.82,2.82,0,0,1,.71-.09,2.91,2.91,0,0,1,1.17.22v.81a2.27,2.27,0,0,0-1.27-.36,1.7,1.7,0,0,0-.41.05,1,1,0,0,0-.31.14.72.72,0,0,0-.2.23.53.53,0,0,0-.07.28.67.67,0,0,0,.07.33.66.66,0,0,0,.21.23,1.69,1.69,0,0,0,.33.19l.45.18a5.48,5.48,0,0,1,.59.26,2,2,0,0,1,.45.3,1.52,1.52,0,0,1,.29.39,1.38,1.38,0,0,1,.1.52,1.23,1.23,0,0,1-.17.65,1.42,1.42,0,0,1-.43.45,2.22,2.22,0,0,1-.63.27,3.08,3.08,0,0,1-.75.09A2.82,2.82,0,0,1,78.83,271.07Z"/><path class="cls-6" d="M85.47,271.37a2.31,2.31,0,0,1-1.77-.7,2.62,2.62,0,0,1-.67-1.86,2.72,2.72,0,0,1,.69-2,2.48,2.48,0,0,1,1.86-.7,2.24,2.24,0,0,1,1.75.68,2.73,2.73,0,0,1,.63,1.91,2.7,2.7,0,0,1-.68,1.92A2.37,2.37,0,0,1,85.47,271.37Zm0-4.56a1.52,1.52,0,0,0-1.22.52,2.17,2.17,0,0,0-.45,1.45,2.05,2.05,0,0,0,.46,1.4,1.52,1.52,0,0,0,1.21.52,1.47,1.47,0,0,0,1.2-.51,2.16,2.16,0,0,0,.42-1.43,2.19,2.19,0,0,0-.42-1.44A1.47,1.47,0,0,0,85.52,266.81Z"/><path class="cls-6" d="M92.64,271a2.6,2.6,0,0,1-1.36.35,2.25,2.25,0,0,1-1.73-.7,2.5,2.5,0,0,1-.66-1.8,2.8,2.8,0,0,1,.71-2,2.5,2.5,0,0,1,1.89-.74,2.64,2.64,0,0,1,1.16.24v.82a2,2,0,0,0-1.19-.39,1.61,1.61,0,0,0-1.26.55,2.11,2.11,0,0,0-.49,1.44,2,2,0,0,0,.47,1.39,1.57,1.57,0,0,0,1.23.51,2,2,0,0,0,1.23-.44Z"/><path class="cls-6" d="M94.26,265a.52.52,0,0,1-.36-.14.51.51,0,0,1-.15-.37.52.52,0,0,1,.15-.38.49.49,0,0,1,.36-.15.51.51,0,0,1,.53.53.49.49,0,0,1-.15.36A.52.52,0,0,1,94.26,265Zm.4,6.27h-.81v-5h.81Z"/><path class="cls-6" d="M100.3,269H96.76a1.93,1.93,0,0,0,.45,1.29,1.57,1.57,0,0,0,1.19.46,2.46,2.46,0,0,0,1.55-.56v.75a2.89,2.89,0,0,1-1.74.48,2.13,2.13,0,0,1-1.67-.68,2.82,2.82,0,0,1-.61-1.92,2.74,2.74,0,0,1,.67-1.9,2.12,2.12,0,0,1,1.64-.73,1.9,1.9,0,0,1,1.52.63,2.63,2.63,0,0,1,.54,1.76Zm-.83-.68a1.57,1.57,0,0,0-.33-1.07,1.13,1.13,0,0,0-.92-.39,1.31,1.31,0,0,0-1,.4,1.94,1.94,0,0,0-.49,1.06Zm-.12-4.57-1.28,1.61h-.62l1.09-1.61Z"/><path class="cls-6" d="M101.78,271.36a.51.51,0,0,1-.38-.16.56.56,0,0,1,0-.78.55.55,0,0,1,.38-.16.54.54,0,0,1,.39.94A.5.5,0,0,1,101.78,271.36Z"/><path class="cls-6" d="M107.69,269h-3.53a1.88,1.88,0,0,0,.45,1.29,1.57,1.57,0,0,0,1.18.46,2.49,2.49,0,0,0,1.56-.56v.75a2.9,2.9,0,0,1-1.75.48,2.12,2.12,0,0,1-1.66-.68,2.77,2.77,0,0,1-.61-1.92,2.73,2.73,0,0,1,.66-1.9,2.12,2.12,0,0,1,1.65-.73,1.9,1.9,0,0,1,1.52.63,2.68,2.68,0,0,1,.53,1.76Zm-.82-.68a1.57,1.57,0,0,0-.33-1.07,1.14,1.14,0,0,0-.92-.39,1.28,1.28,0,0,0-1,.4,1.87,1.87,0,0,0-.49,1.06Z"/><path class="cls-6" d="M115.91,271.25h-.8v-.85h0a2,2,0,0,1-3.22.3,2.75,2.75,0,0,1-.57-1.83,3,3,0,0,1,.63-2,2,2,0,0,1,1.66-.74,1.58,1.58,0,0,1,1.5.81h0v-3.1h.8Zm-.8-2.26v-.74a1.41,1.41,0,0,0-.4-1,1.36,1.36,0,0,0-1-.42,1.39,1.39,0,0,0-1.15.54,2.33,2.33,0,0,0-.42,1.48,2.19,2.19,0,0,0,.4,1.37,1.33,1.33,0,0,0,1.09.5,1.38,1.38,0,0,0,1.08-.49A1.79,1.79,0,0,0,115.11,269Z"/><path class="cls-6" d="M121.55,269H118a1.83,1.83,0,0,0,.45,1.29,1.57,1.57,0,0,0,1.18.46,2.46,2.46,0,0,0,1.55-.56v.75a2.89,2.89,0,0,1-1.74.48,2.1,2.1,0,0,1-1.66-.68,2.77,2.77,0,0,1-.61-1.92,2.73,2.73,0,0,1,.66-1.9,2.12,2.12,0,0,1,1.64-.73,1.88,1.88,0,0,1,1.52.63,2.63,2.63,0,0,1,.54,1.76Zm-.82-.68a1.57,1.57,0,0,0-.33-1.07,1.14,1.14,0,0,0-.92-.39,1.28,1.28,0,0,0-1,.4,1.81,1.81,0,0,0-.49,1.06Z"/><path class="cls-6" d="M132.6,271.25h-.8v-2.87a2.18,2.18,0,0,0-.26-1.2,1,1,0,0,0-.86-.37,1.08,1.08,0,0,0-.87.47,1.77,1.77,0,0,0-.36,1.12v2.85h-.8v-3q0-1.47-1.14-1.47a1.07,1.07,0,0,0-.87.44,1.89,1.89,0,0,0-.34,1.15v2.85h-.8v-5h.8V267h0a1.7,1.7,0,0,1,1.55-.9,1.46,1.46,0,0,1,.9.28,1.43,1.43,0,0,1,.52.75,1.77,1.77,0,0,1,1.66-1c1.1,0,1.65.67,1.65,2Z"/><path class="cls-6" d="M137.69,271.25h-.8v-.78h0a1.68,1.68,0,0,1-1.54.9,1.65,1.65,0,0,1-1.17-.4,1.36,1.36,0,0,1-.42-1.05c0-.93.55-1.47,1.65-1.63l1.5-.21c0-.85-.34-1.27-1-1.27a2.47,2.47,0,0,0-1.63.61v-.82a3.12,3.12,0,0,1,1.7-.46c1.18,0,1.76.62,1.76,1.86Zm-.8-2.53-1.2.17a1.92,1.92,0,0,0-.84.27.82.82,0,0,0-.29.71.76.76,0,0,0,.26.59,1,1,0,0,0,.7.24,1.27,1.27,0,0,0,1-.42,1.49,1.49,0,0,0,.39-1.06Z"/><path class="cls-6" d="M143.35,271.25h-.8V268.4c0-1.06-.39-1.59-1.16-1.59a1.25,1.25,0,0,0-1,.45,1.64,1.64,0,0,0-.4,1.14v2.85h-.8v-5h.8v.83h0a1.81,1.81,0,0,1,1.64-.94,1.54,1.54,0,0,1,1.26.52,2.39,2.39,0,0,1,.43,1.54Z"/><path class="cls-6" d="M145.27,265a.57.57,0,0,1-.37-.14.51.51,0,0,1-.15-.37.52.52,0,0,1,.15-.38.53.53,0,0,1,.37-.15.5.5,0,0,1,.37.15.49.49,0,0,1,.16.38.46.46,0,0,1-.16.36A.5.5,0,0,1,145.27,265Zm.39,6.27h-.8v-5h.8Z"/><path class="cls-6" d="M151.3,269h-3.53a1.83,1.83,0,0,0,.45,1.29,1.57,1.57,0,0,0,1.18.46,2.49,2.49,0,0,0,1.56-.56v.75a2.92,2.92,0,0,1-1.75.48,2.12,2.12,0,0,1-1.66-.68,2.77,2.77,0,0,1-.61-1.92,2.73,2.73,0,0,1,.66-1.9,2.12,2.12,0,0,1,1.65-.73,1.86,1.86,0,0,1,1.51.63,2.63,2.63,0,0,1,.54,1.76Zm-.82-.68a1.57,1.57,0,0,0-.33-1.07,1.14,1.14,0,0,0-.92-.39,1.28,1.28,0,0,0-1,.4,1.87,1.87,0,0,0-.49,1.06Zm-.47-3h-.62l-1.28-1.61h.82Z"/><path class="cls-6" d="M155.12,267.06a1,1,0,0,0-.61-.16,1,1,0,0,0-.85.49,2.21,2.21,0,0,0-.35,1.31v2.55h-.8v-5h.8v1h0a1.77,1.77,0,0,1,.53-.82,1.16,1.16,0,0,1,.78-.3,1.43,1.43,0,0,1,.48.07Z"/><path class="cls-6" d="M160,269h-3.53a1.83,1.83,0,0,0,.45,1.29,1.55,1.55,0,0,0,1.18.46,2.46,2.46,0,0,0,1.55-.56v.75a2.89,2.89,0,0,1-1.74.48,2.14,2.14,0,0,1-1.67-.68,2.81,2.81,0,0,1-.6-1.92,2.73,2.73,0,0,1,.66-1.9,2.12,2.12,0,0,1,1.64-.73,1.88,1.88,0,0,1,1.52.63,2.63,2.63,0,0,1,.54,1.76Zm-.82-.68a1.63,1.63,0,0,0-.34-1.07,1.12,1.12,0,0,0-.91-.39,1.28,1.28,0,0,0-1,.4,1.81,1.81,0,0,0-.49,1.06Z"/><path class="cls-6" d="M167.37,271a2.63,2.63,0,0,1-1.37.35,2.26,2.26,0,0,1-1.73-.7,2.53,2.53,0,0,1-.65-1.8,2.8,2.8,0,0,1,.7-2,2.53,2.53,0,0,1,1.89-.74,2.72,2.72,0,0,1,1.17.24v.82a2,2,0,0,0-1.2-.39,1.59,1.59,0,0,0-1.25.55,2.06,2.06,0,0,0-.49,1.44,2,2,0,0,0,.46,1.39,1.59,1.59,0,0,0,1.24.51,2,2,0,0,0,1.23-.44Z"/><path class="cls-6" d="M170.67,271.37a2.31,2.31,0,0,1-1.77-.7,2.61,2.61,0,0,1-.66-1.86,2.76,2.76,0,0,1,.68-2,2.48,2.48,0,0,1,1.86-.7,2.24,2.24,0,0,1,1.75.68,2.73,2.73,0,0,1,.63,1.91,2.7,2.7,0,0,1-.68,1.92A2.36,2.36,0,0,1,170.67,271.37Zm.06-4.56a1.5,1.5,0,0,0-1.22.52,2.17,2.17,0,0,0-.45,1.45,2,2,0,0,0,.45,1.4,1.52,1.52,0,0,0,1.22.52,1.46,1.46,0,0,0,1.19-.51,2.16,2.16,0,0,0,.42-1.43,2.19,2.19,0,0,0-.42-1.44A1.46,1.46,0,0,0,170.73,266.81Z"/><path class="cls-6" d="M177,267.06a1.07,1.07,0,0,0-1.46.33,2.21,2.21,0,0,0-.34,1.31v2.55h-.8v-5h.8v1h0a1.76,1.76,0,0,1,.52-.82,1.18,1.18,0,0,1,.79-.3,1.41,1.41,0,0,1,.47.07Z"/><path class="cls-6" d="M180.52,267.06a1,1,0,0,0-.6-.16,1,1,0,0,0-.86.49,2.21,2.21,0,0,0-.35,1.31v2.55h-.8v-5h.8v1h0a1.77,1.77,0,0,1,.53-.82,1.16,1.16,0,0,1,.78-.3,1.43,1.43,0,0,1,.48.07Z"/><path class="cls-6" d="M185.41,269h-3.53a1.83,1.83,0,0,0,.45,1.29,1.55,1.55,0,0,0,1.18.46,2.46,2.46,0,0,0,1.55-.56v.75a2.89,2.89,0,0,1-1.74.48,2.14,2.14,0,0,1-1.67-.68,2.81,2.81,0,0,1-.6-1.92,2.73,2.73,0,0,1,.66-1.9,2.12,2.12,0,0,1,1.64-.73,1.88,1.88,0,0,1,1.52.63,2.63,2.63,0,0,1,.54,1.76Zm-.82-.68a1.58,1.58,0,0,0-.34-1.07,1.12,1.12,0,0,0-.91-.39,1.28,1.28,0,0,0-1,.4,1.81,1.81,0,0,0-.49,1.06Z"/><path class="cls-6" d="M190,271a2.63,2.63,0,0,1-1.37.35,2.26,2.26,0,0,1-1.73-.7,2.53,2.53,0,0,1-.65-1.8,2.76,2.76,0,0,1,.71-2,2.5,2.5,0,0,1,1.89-.74,2.7,2.7,0,0,1,1.16.24v.82a2,2,0,0,0-1.19-.39,1.61,1.61,0,0,0-1.26.55,2.06,2.06,0,0,0-.49,1.44,2,2,0,0,0,.46,1.39,1.59,1.59,0,0,0,1.24.51,2,2,0,0,0,1.23-.44Z"/><path class="cls-6" d="M193.56,271.2a1.49,1.49,0,0,1-.75.16c-.88,0-1.31-.49-1.31-1.46v-3h-.86v-.69h.86V265l.8-.26v1.48h1.26v.69H192.3v2.81a1.12,1.12,0,0,0,.17.72.69.69,0,0,0,.57.22.85.85,0,0,0,.52-.17Z"/><path class="cls-6" d="M198.65,269h-3.53a1.87,1.87,0,0,0,.44,1.29,1.59,1.59,0,0,0,1.19.46,2.46,2.46,0,0,0,1.55-.56v.75a2.89,2.89,0,0,1-1.74.48,2.13,2.13,0,0,1-1.67-.68,2.81,2.81,0,0,1-.6-1.92,2.73,2.73,0,0,1,.66-1.9,2.12,2.12,0,0,1,1.64-.73,1.9,1.9,0,0,1,1.52.63,2.63,2.63,0,0,1,.54,1.76Zm-.82-.68a1.63,1.63,0,0,0-.34-1.07,1.12,1.12,0,0,0-.91-.39,1.31,1.31,0,0,0-1,.4,1.86,1.86,0,0,0-.48,1.06Z"/><path class="cls-6" d="M206.17,271.25h-.8v-.78h0a1.66,1.66,0,0,1-1.53.9,1.61,1.61,0,0,1-1.17-.4,1.37,1.37,0,0,1-.43-1.05c0-.93.55-1.47,1.66-1.63l1.49-.21c0-.85-.34-1.27-1-1.27a2.47,2.47,0,0,0-1.63.61v-.82a3.12,3.12,0,0,1,1.7-.46c1.18,0,1.76.62,1.76,1.86Zm-.8-2.53-1.2.17a2,2,0,0,0-.84.27.81.81,0,0,0-.28.71.73.73,0,0,0,.26.59,1,1,0,0,0,.69.24,1.29,1.29,0,0,0,1-.42,1.53,1.53,0,0,0,.38-1.06Zm-.29-3.41h-.62l-1.28-1.61H204Z"/><path class="cls-6" d="M69.5,283.07v-.86a2.41,2.41,0,0,0,1.44.49c.7,0,1-.24,1-.71a.64.64,0,0,0-.09-.34.91.91,0,0,0-.24-.24,1.54,1.54,0,0,0-.36-.2l-.45-.17c-.22-.09-.41-.18-.58-.27a1.74,1.74,0,0,1-.42-.3,1.27,1.27,0,0,1-.26-.39,1.5,1.5,0,0,1-.08-.5,1.17,1.17,0,0,1,.16-.62,1.57,1.57,0,0,1,.43-.46,2,2,0,0,1,.61-.27,2.82,2.82,0,0,1,.71-.09,2.91,2.91,0,0,1,1.17.22v.81a2.3,2.3,0,0,0-1.27-.36,1.7,1.7,0,0,0-.41.05,1,1,0,0,0-.31.14.72.72,0,0,0-.2.23.53.53,0,0,0-.07.28.67.67,0,0,0,.07.33.66.66,0,0,0,.21.23,1.69,1.69,0,0,0,.33.19l.44.18a4.9,4.9,0,0,1,.6.26,2,2,0,0,1,.45.3,1.28,1.28,0,0,1,.28.39,1.21,1.21,0,0,1,.1.52,1.23,1.23,0,0,1-.16.65,1.35,1.35,0,0,1-.44.45,2,2,0,0,1-.63.27,2.94,2.94,0,0,1-.74.09A2.82,2.82,0,0,1,69.5,283.07Z"/><path class="cls-6" d="M78.06,281H74.53a1.93,1.93,0,0,0,.45,1.29,1.57,1.57,0,0,0,1.18.46,2.49,2.49,0,0,0,1.56-.56v.75a2.9,2.9,0,0,1-1.75.48,2.12,2.12,0,0,1-1.66-.68,2.77,2.77,0,0,1-.61-1.92,2.73,2.73,0,0,1,.66-1.9,2.14,2.14,0,0,1,1.65-.73,1.9,1.9,0,0,1,1.52.63,2.68,2.68,0,0,1,.53,1.76Zm-.82-.68a1.57,1.57,0,0,0-.33-1.07,1.14,1.14,0,0,0-.92-.39,1.31,1.31,0,0,0-1,.4,1.94,1.94,0,0,0-.49,1.06Z"/><path class="cls-6" d="M79,283.07v-.86a2.41,2.41,0,0,0,1.44.49c.71,0,1.06-.24,1.06-.71a.64.64,0,0,0-.09-.34.82.82,0,0,0-.25-.24,1.54,1.54,0,0,0-.36-.2l-.45-.17c-.22-.09-.41-.18-.58-.27a1.74,1.74,0,0,1-.42-.3,1.08,1.08,0,0,1-.25-.39,1.34,1.34,0,0,1,.07-1.12,1.57,1.57,0,0,1,.43-.46,2,2,0,0,1,.62-.27,2.71,2.71,0,0,1,.71-.09,2.86,2.86,0,0,1,1.16.22v.81a2.27,2.27,0,0,0-1.27-.36,1.7,1.7,0,0,0-.41.05,1,1,0,0,0-.31.14.87.87,0,0,0-.2.23.64.64,0,0,0-.07.28.81.81,0,0,0,.07.33.66.66,0,0,0,.21.23,1.69,1.69,0,0,0,.33.19l.45.18a4.72,4.72,0,0,1,.59.26,2,2,0,0,1,.45.3,1.32,1.32,0,0,1,.29.39,1.38,1.38,0,0,1,.1.52,1.23,1.23,0,0,1-.17.65,1.42,1.42,0,0,1-.43.45,2.22,2.22,0,0,1-.63.27,3.08,3.08,0,0,1-.75.09A2.85,2.85,0,0,1,79,283.07Z"/><path class="cls-6" d="M87.08,282.53h0v3h-.8v-7.3h.8v.88h0a1.89,1.89,0,0,1,1.73-1,1.81,1.81,0,0,1,1.5.67,2.71,2.71,0,0,1,.55,1.8,3.12,3.12,0,0,1-.61,2,2,2,0,0,1-1.67.76A1.67,1.67,0,0,1,87.08,282.53Zm0-2v.7a1.47,1.47,0,0,0,.4,1.05,1.42,1.42,0,0,0,2.16-.12,2.53,2.53,0,0,0,.42-1.55,2,2,0,0,0-.39-1.31,1.28,1.28,0,0,0-1-.47,1.44,1.44,0,0,0-1.13.48A1.83,1.83,0,0,0,87.06,280.51Z"/><path class="cls-6" d="M96.18,283.25h-.8v-.79h0a1.64,1.64,0,0,1-1.54.91c-1.2,0-1.79-.71-1.79-2.13v-3h.79v2.86c0,1.06.41,1.59,1.22,1.59a1.21,1.21,0,0,0,1-.44,1.64,1.64,0,0,0,.38-1.13v-2.88h.8Z"/><path class="cls-6" d="M98.62,282.53h0v.72h-.8v-7.4h.8v3.28h0a1.89,1.89,0,0,1,1.72-1,1.82,1.82,0,0,1,1.51.67,2.76,2.76,0,0,1,.54,1.8,3.06,3.06,0,0,1-.61,2,2,2,0,0,1-1.67.76A1.62,1.62,0,0,1,98.62,282.53Zm0-2v.7a1.47,1.47,0,0,0,.4,1.05,1.42,1.42,0,0,0,2.16-.12,2.53,2.53,0,0,0,.41-1.55,2,2,0,0,0-.38-1.31,1.3,1.3,0,0,0-1-.47,1.42,1.42,0,0,0-1.12.48A1.83,1.83,0,0,0,98.6,280.51Z"/><path class="cls-6" d="M104.47,283.25h-.8v-7.4h.8Z"/><path class="cls-6" d="M106.51,277a.53.53,0,0,1-.37-.14.51.51,0,0,1-.15-.37.52.52,0,0,1,.15-.38.5.5,0,0,1,.37-.15.51.51,0,0,1,.37.15.52.52,0,0,1,.15.38.49.49,0,0,1-.15.36A.51.51,0,0,1,106.51,277Zm.39,6.27h-.8v-5h.8Z"/><path class="cls-6" d="M111.93,283a2.63,2.63,0,0,1-1.37.35,2.26,2.26,0,0,1-1.73-.7,2.49,2.49,0,0,1-.65-1.8,2.8,2.8,0,0,1,.7-2,2.53,2.53,0,0,1,1.89-.74,2.72,2.72,0,0,1,1.17.24v.82a2,2,0,0,0-1.2-.39,1.59,1.59,0,0,0-1.25.55,2.06,2.06,0,0,0-.49,1.44,2,2,0,0,0,.46,1.39,1.59,1.59,0,0,0,1.24.51,2,2,0,0,0,1.23-.44Z"/><path class="cls-6" d="M116.72,283.25h-.8v-.78h0a1.69,1.69,0,0,1-1.54.9,1.61,1.61,0,0,1-1.17-.4,1.36,1.36,0,0,1-.42-1.05c0-.93.55-1.47,1.65-1.63l1.5-.21c0-.85-.35-1.27-1-1.27a2.47,2.47,0,0,0-1.64.61v-.82a3.14,3.14,0,0,1,1.7-.46q1.77,0,1.77,1.86Zm-.8-2.53-1.21.17a2,2,0,0,0-.84.27.81.81,0,0,0-.28.71.73.73,0,0,0,.26.59,1,1,0,0,0,.69.24,1.29,1.29,0,0,0,1-.42,1.49,1.49,0,0,0,.39-1.06Z"/><path class="cls-6" d="M120.54,283.2a1.43,1.43,0,0,1-.74.16c-.88,0-1.32-.49-1.32-1.46v-3h-.86v-.69h.86V277l.8-.26v1.48h1.26v.69h-1.26v2.81a1.11,1.11,0,0,0,.18.72.68.68,0,0,0,.56.22.83.83,0,0,0,.52-.17Z"/><path class="cls-6" d="M122,277a.52.52,0,0,1-.36-.14.51.51,0,0,1-.15-.37.52.52,0,0,1,.15-.38.49.49,0,0,1,.36-.15.51.51,0,0,1,.53.53.49.49,0,0,1-.15.36A.52.52,0,0,1,122,277Zm.39,6.27h-.8v-5h.8Z"/><path class="cls-6" d="M126.13,283.37a2.31,2.31,0,0,1-1.77-.7,2.57,2.57,0,0,1-.67-1.86,2.72,2.72,0,0,1,.69-2,2.48,2.48,0,0,1,1.86-.7,2.24,2.24,0,0,1,1.75.68,2.73,2.73,0,0,1,.63,1.91,2.7,2.7,0,0,1-.68,1.92A2.37,2.37,0,0,1,126.13,283.37Zm.05-4.56a1.52,1.52,0,0,0-1.22.52,2.17,2.17,0,0,0-.45,1.45,2.05,2.05,0,0,0,.46,1.4,1.52,1.52,0,0,0,1.21.52,1.47,1.47,0,0,0,1.2-.51,2.16,2.16,0,0,0,.42-1.43,2.19,2.19,0,0,0-.42-1.44A1.47,1.47,0,0,0,126.18,278.81Z"/><path class="cls-6" d="M134.05,283.25h-.81V280.4c0-1.06-.38-1.59-1.16-1.59a1.25,1.25,0,0,0-1,.45,1.68,1.68,0,0,0-.39,1.14v2.85h-.8v-5h.8v.83h0a1.79,1.79,0,0,1,1.64-.94,1.53,1.53,0,0,1,1.25.52,2.39,2.39,0,0,1,.44,1.54Z"/><path class="cls-6" d="M135.25,283.07v-.86a2.41,2.41,0,0,0,1.44.49c.71,0,1.06-.24,1.06-.71a.64.64,0,0,0-.09-.34.82.82,0,0,0-.25-.24,1.54,1.54,0,0,0-.36-.2l-.45-.17c-.22-.09-.41-.18-.58-.27a1.74,1.74,0,0,1-.42-.3,1.08,1.08,0,0,1-.25-.39,1.34,1.34,0,0,1,.07-1.12,1.57,1.57,0,0,1,.43-.46,2.1,2.1,0,0,1,.61-.27,2.9,2.9,0,0,1,.72-.09,2.86,2.86,0,0,1,1.16.22v.81a2.27,2.27,0,0,0-1.27-.36,1.7,1.7,0,0,0-.41.05,1,1,0,0,0-.31.14.87.87,0,0,0-.2.23.64.64,0,0,0-.07.28.81.81,0,0,0,.07.33.66.66,0,0,0,.21.23,1.69,1.69,0,0,0,.33.19l.45.18a4.72,4.72,0,0,1,.59.26,2,2,0,0,1,.45.3,1.32,1.32,0,0,1,.29.39,1.38,1.38,0,0,1,.1.52,1.23,1.23,0,0,1-.17.65,1.42,1.42,0,0,1-.43.45,2.22,2.22,0,0,1-.63.27,3.08,3.08,0,0,1-.75.09A2.82,2.82,0,0,1,135.25,283.07Z"/><path class="cls-6" d="M140.08,283.36a.53.53,0,0,1-.39-.16.55.55,0,1,1,.78,0A.53.53,0,0,1,140.08,283.36Z"/><text class="cls-7" transform="translate(116.49 115.82)"><tspan class="cls-8">V</tspan><tspan x="7.58" y="0">rai/</tspan><tspan class="cls-9" x="27.54" y="0">F</tspan><tspan x="33.43" y="0">aux</tspan></text><line class="cls-10" x1="54" x2="54" y2="36"/><line class="cls-10" y1="54" x2="36" y2="54"/><line class="cls-10" y1="307.96" x2="36" y2="307.96"/><line class="cls-10" x1="54" y1="361.96" x2="54" y2="325.96"/><line class="cls-10" x1="236.83" x2="236.83" y2="36"/><line class="cls-10" x1="290.83" y1="54" x2="254.83" y2="54"/><line class="cls-10" x1="290.83" y1="307.96" x2="254.83" y2="307.96"/><line class="cls-10" x1="236.83" y1="361.96" x2="236.83" y2="325.96"/></svg>