<svg id="Calque_1" data-name="Calque 1" xmlns="http://www.w3.org/2000/svg" viewBox="0 0 290.83 361.96"><defs><style>.cls-1,.cls-9{fill:#302d7e;}.cls-2,.cls-3,.cls-4{fill:#fff;}.cls-3{font-size:19.62px;font-family:TwCenMT-CondensedExtraBold, Tw Cen MT Condensed Extra Bold;font-weight:800;}.cls-4{stroke:#fff;stroke-miterlimit:10;stroke-width:0.25px;}.cls-5{opacity:0.2;}.cls-6{font-size:10px;fill:#000100;font-family:SegoeUI, Segoe UI;}.cls-7{letter-spacing:-0.03em;}.cls-8{letter-spacing:-0.04em;}.cls-9{font-size:12px;font-family:SegoeUI-Bold, Segoe UI;font-weight:700;}.cls-10{letter-spacing:-0.04em;}.cls-11{letter-spacing:-0.03em;}.cls-12{fill:none;stroke:#000;stroke-width:0.3px;}</style></defs><title>Carte_bleue_34</title><path class="cls-1" d="M65.53,39.25H225.31a22.09,22.09,0,0,1,22.14,22.14V300.57a22.1,22.1,0,0,1-22.14,22.14H65.53a22.1,22.1,0,0,1-22.15-22.14V61.39A22.09,22.09,0,0,1,65.53,39.25Z"/><path class="cls-2" d="M77.65,95.37h136a17,17,0,0,1,17,17V279.58a17,17,0,0,1-17,17.05h-136a17,17,0,0,1-17-17.05V112.42A17,17,0,0,1,77.65,95.37Z"/><text class="cls-3" transform="translate(86.22 81.27)"><tspan xml:space="preserve">Escape the   ab</tspan></text><path class="cls-4" d="M176.48,63.65l-6.4.05a.75.75,0,0,0-.55.23.78.78,0,0,0-.23.55.8.8,0,0,0,.24.55.74.74,0,0,0,.46.22l.1,13.29a3.29,3.29,0,1,0,6.58-.05l-.1-13.29A.77.77,0,0,0,177,65a.78.78,0,0,0-.56-1.33Zm.27.78a.27.27,0,0,1-.26.26h-.23l-3.92,0a.26.26,0,0,0,0,.52l3.72,0,.1,13.28a2.74,2.74,0,0,1-.79,2,2.78,2.78,0,0,1-4.75-1.93l-.1-13.28h.78a.26.26,0,1,0,0-.52h-1.21a.27.27,0,0,1-.19-.08.26.26,0,0,1,.18-.44l6.41,0a.26.26,0,0,1,.26.26Z"/><path class="cls-4" d="M175.33,71.53a1,1,0,0,0-.64.23.52.52,0,0,1-.35.13.5.5,0,0,1-.35-.13,1.08,1.08,0,0,0-.65-.21,1,1,0,0,0-.64.22.54.54,0,0,1-.35.13.5.5,0,0,1-.35-.12,1.07,1.07,0,0,0-.65-.22.23.23,0,0,0-.18.08.27.27,0,0,0-.08.18l0,2.84a.26.26,0,1,0,.52,0l0-2.5.09.06a1.09,1.09,0,0,0,1.3,0,.54.54,0,0,1,.69,0,1.05,1.05,0,0,0,1.3,0l.09-.06,0,6.38a1.71,1.71,0,0,1-1.71,1.74,1.73,1.73,0,0,1-1.75-1.72l0-2.83a.26.26,0,0,0-.26-.26.27.27,0,0,0-.26.27l0,2.83A2.26,2.26,0,0,0,175,80.09a2.23,2.23,0,0,0,.64-1.6l0-6.68a.27.27,0,0,0-.25-.28Z"/><path class="cls-4" d="M174,67.3a.26.26,0,0,0,.27.26.26.26,0,0,1,.26.26.27.27,0,0,1-.26.26.26.26,0,0,1-.26-.26.26.26,0,0,0-.26-.26.26.26,0,0,0-.26.27.78.78,0,0,0,.78.77.78.78,0,1,0,0-1.56.26.26,0,0,0-.26.26Z"/><path class="cls-4" d="M172.89,70.46a.82.82,0,0,0,.22-.55.75.75,0,0,0-.23-.55.78.78,0,0,0-.55-.23.26.26,0,1,0,0,.52.27.27,0,0,1,.26.26.24.24,0,0,1-.07.18.27.27,0,0,1-.19.08.24.24,0,0,1-.18-.07.27.27,0,0,1-.08-.19.25.25,0,0,0-.26-.25.26.26,0,0,0-.26.26.79.79,0,0,0,.79.77.76.76,0,0,0,.55-.23Z"/><g class="cls-5"><path class="cls-1" d="M118.89,165.65a22.72,22.72,0,0,1,45.43,0v37.44H179.5V165.65a37.9,37.9,0,0,0-75.79,0"/><path class="cls-1" d="M103.71,165.65"/><path class="cls-1" d="M154.18,224.94a12.52,12.52,0,1,1-12.52-12.52,12.51,12.51,0,0,1,12.52,12.52"/><path class="cls-1" d="M112,224.81a29.51,29.51,0,1,1,29.51,29.51A29.55,29.55,0,0,1,112,224.81m-15.18,0a44.69,44.69,0,1,0,44.69-44.69,44.74,44.74,0,0,0-44.69,44.69"/><line class="cls-1" x1="103.71" y1="165.65" x2="118.89" y2="165.65"/></g><text class="cls-6" transform="translate(69.1 136.19)">Un livre peut être mis en Open <tspan x="0" y="12">Access sur le site de l&apos;éditeur </tspan><tspan x="0" y="24">seulement quelques mois après sa </tspan><tspan x="0" y="36">publication.</tspan><tspan class="cls-7" x="0" y="72">R</tspan><tspan x="5.69" y="72">éponse : </tspan><tspan class="cls-8" x="45.43" y="72">V</tspan><tspan x="51.27" y="72">rai</tspan><tspan x="0" y="87">Il existe des articles/livres en accès </tspan><tspan x="0" y="99">libre qui sont diffusés avec une </tspan><tspan x="0" y="111">période d&apos;embargo durant </tspan><tspan x="0" y="123">laquelle ils sont disponibles de </tspan><tspan x="0" y="135">manière payante.</tspan></text><text class="cls-9" transform="translate(114.21 115.79)"><tspan class="cls-10">V</tspan><tspan x="7.58" y="0">rai/</tspan><tspan class="cls-11" x="27.54" y="0">F</tspan><tspan x="33.43" y="0">aux</tspan></text><line class="cls-12" x1="54" x2="54" y2="36"/><line class="cls-12" y1="54" x2="36" y2="54"/><line class="cls-12" y1="307.96" x2="36" y2="307.96"/><line class="cls-12" x1="54" y1="361.96" x2="54" y2="325.96"/><line class="cls-12" x1="236.83" x2="236.83" y2="36"/><line class="cls-12" x1="290.83" y1="54" x2="254.83" y2="54"/><line class="cls-12" x1="290.83" y1="307.96" x2="254.83" y2="307.96"/><line class="cls-12" x1="236.83" y1="361.96" x2="236.83" y2="325.96"/></svg>