<svg id="Calque_1" data-name="Calque 1" xmlns="http://www.w3.org/2000/svg" viewBox="0 0 290.83 361.96"><defs><style>.cls-1,.cls-9{fill:#f9b233;}.cls-2,.cls-3,.cls-4{fill:#fff;}.cls-3{font-size:19.62px;font-family:TwCenMT-CondensedExtraBold, Tw Cen MT Condensed Extra Bold;font-weight:800;}.cls-4{stroke:#fff;stroke-miterlimit:10;stroke-width:0.25px;}.cls-5{opacity:0.4;}.cls-6{font-size:10px;fill:#000100;font-family:SegoeUI, Segoe UI;}.cls-7{letter-spacing:-0.03em;}.cls-8{letter-spacing:-0.04em;}.cls-9{font-size:12px;font-family:SegoeUI-Bold, Segoe UI;font-weight:700;}.cls-10{letter-spacing:-0.04em;}.cls-11{letter-spacing:-0.03em;}.cls-12{fill:none;stroke:#000;stroke-width:0.3px;}</style></defs><title>Carte_jaune_9</title><rect class="cls-1" x="43.38" y="39.25" width="204.07" height="283.46" rx="22.14"/><path class="cls-2" d="M77.4,95.37h136a17,17,0,0,1,17,17V279.58a17,17,0,0,1-17,17.05H77.4a17,17,0,0,1-17-17.05V112.42A17,17,0,0,1,77.4,95.37Z"/><text class="cls-3" transform="translate(88.22 81.21)"><tspan xml:space="preserve">Escape the   ab</tspan></text><path class="cls-4" d="M178.49,63.59l-6.41,0a.81.81,0,0,0-.55.23.82.82,0,0,0-.22.56.78.78,0,0,0,.23.55.82.82,0,0,0,.47.22l.1,13.28a3.28,3.28,0,0,0,3.31,3.26,3.23,3.23,0,0,0,2.32-1,3.27,3.27,0,0,0,.95-2.33l-.11-13.28a.84.84,0,0,0,.47-.23.82.82,0,0,0,.22-.55.78.78,0,0,0-.78-.78Zm.26.78a.24.24,0,0,1-.07.18.27.27,0,0,1-.19.08h-.23l-3.92,0a.27.27,0,0,0-.26.27.26.26,0,0,0,.26.25l3.73,0,.1,13.28a2.79,2.79,0,0,1-.8,2,2.77,2.77,0,0,1-4.74-1.92l-.1-13.29h.78a.26.26,0,0,0,.25-.26.26.26,0,0,0-.26-.26l-1,0h-.23a.29.29,0,0,1-.18-.07.27.27,0,0,1-.08-.19.24.24,0,0,1,.07-.18.27.27,0,0,1,.19-.08l6.4,0a.26.26,0,0,1,.26.26Z"/><path class="cls-4" d="M177.33,71.48a1,1,0,0,0-.64.22.5.5,0,0,1-.35.13.57.57,0,0,1-.35-.12,1,1,0,0,0-.65-.22,1,1,0,0,0-.64.23.5.5,0,0,1-.35.12.45.45,0,0,1-.35-.12,1,1,0,0,0-.65-.21.24.24,0,0,0-.18.07.23.23,0,0,0-.07.19l0,2.83a.26.26,0,0,0,.52,0l0-2.51.09.06a1,1,0,0,0,.65.21,1,1,0,0,0,.64-.22.5.5,0,0,1,.35-.13.57.57,0,0,1,.35.12,1,1,0,0,0,.65.22,1,1,0,0,0,.64-.23l.09-.06,0,6.38a1.74,1.74,0,0,1-1.72,1.75,1.74,1.74,0,0,1-1.74-1.72l0-2.84a.26.26,0,1,0-.51,0l0,2.83a2.24,2.24,0,0,0,2.26,2.23A2.22,2.22,0,0,0,177,80a2.26,2.26,0,0,0,.65-1.59l-.05-6.69a.26.26,0,0,0-.25-.27Z"/><path class="cls-4" d="M176.05,67.24a.26.26,0,0,0,.26.26.26.26,0,0,1,.26.26.29.29,0,0,1-.07.18.27.27,0,0,1-.19.08.26.26,0,0,1-.26-.26.26.26,0,0,0-.52,0,.79.79,0,0,0,.79.77.76.76,0,0,0,.55-.23.82.82,0,0,0,.22-.55.79.79,0,0,0-.78-.78.26.26,0,0,0-.26.26Z"/><path class="cls-4" d="M174.89,70.4a.76.76,0,0,0,.23-.55.82.82,0,0,0-.24-.55.72.72,0,0,0-.55-.22.26.26,0,0,0-.26.26.25.25,0,0,0,.26.25.27.27,0,0,1,.19.08.25.25,0,0,1,.08.18.27.27,0,0,1-.08.19.24.24,0,0,1-.18.07.26.26,0,0,1-.19-.07.24.24,0,0,1-.07-.18.26.26,0,0,0-.27-.26.26.26,0,0,0-.25.26.77.77,0,0,0,.78.77.75.75,0,0,0,.55-.23Z"/><g class="cls-5"><path class="cls-1" d="M120.67,165.65a22.72,22.72,0,0,1,45.44,0v37.44h15.17V165.65a37.9,37.9,0,0,0-75.79,0"/><path class="cls-1" d="M105.49,165.65"/><path class="cls-1" d="M156,224.94a12.52,12.52,0,1,1-12.52-12.52A12.52,12.52,0,0,1,156,224.94"/><path class="cls-1" d="M113.79,224.81a29.51,29.51,0,1,1,29.51,29.51,29.55,29.55,0,0,1-29.51-29.51m-15.17,0a44.69,44.69,0,1,0,44.68-44.69,44.74,44.74,0,0,0-44.68,44.69"/><line class="cls-1" x1="105.49" y1="165.65" x2="120.67" y2="165.65"/></g><text class="cls-6" transform="translate(69.22 136.05)">La loi suisse sur le droit d&apos;auteur <tspan x="0" y="12">autorise le téléchargement </tspan><tspan x="0" y="24">d&apos;articles depuis une plateforme </tspan><tspan x="0" y="36">pirate comme Sci-Hub.</tspan><tspan class="cls-7" x="0" y="72">R</tspan><tspan x="5.69" y="72">éponse : </tspan><tspan class="cls-8" x="45.43" y="72">V</tspan><tspan x="51.27" y="72">rai</tspan><tspan x="0" y="87">Le téléchargement pour un usage </tspan><tspan x="0" y="99">personnel est autorisé en Suisse. </tspan><tspan x="0" y="111">Cependant, la mise à disposition </tspan><tspan x="0" y="123">de contenus protégés par le droit </tspan><tspan x="0" y="135">d&apos;auteur est interdite.</tspan></text><text class="cls-9" transform="translate(116.49 116.03)"><tspan class="cls-10">V</tspan><tspan x="7.58" y="0">rai/</tspan><tspan class="cls-11" x="27.54" y="0">F</tspan><tspan x="33.43" y="0">aux</tspan></text><line class="cls-12" x1="54" x2="54" y2="36"/><line class="cls-12" y1="54" x2="36" y2="54"/><line class="cls-12" y1="307.96" x2="36" y2="307.96"/><line class="cls-12" x1="54" y1="361.96" x2="54" y2="325.96"/><line class="cls-12" x1="236.83" x2="236.83" y2="36"/><line class="cls-12" x1="290.83" y1="54" x2="254.83" y2="54"/><line class="cls-12" x1="290.83" y1="307.96" x2="254.83" y2="307.96"/><line class="cls-12" x1="236.83" y1="361.96" x2="236.83" y2="325.96"/></svg>