<svg id="Calque_1" data-name="Calque 1" xmlns="http://www.w3.org/2000/svg" viewBox="0 0 290.83 361.96"><defs><style>.cls-1,.cls-7{fill:#302d7e;}.cls-2,.cls-3,.cls-4{fill:#fff;}.cls-3{font-size:19.62px;font-family:TwCenMT-CondensedExtraBold, Tw Cen MT Condensed Extra Bold;font-weight:800;}.cls-4{stroke:#fff;stroke-miterlimit:10;stroke-width:0.25px;}.cls-5{opacity:0.2;}.cls-6{fill:#000100;}.cls-7{font-size:12px;font-family:SegoeUI-Bold, Segoe UI;font-weight:700;}.cls-8{letter-spacing:-0.04em;}.cls-9{letter-spacing:-0.03em;}.cls-10{fill:none;stroke:#000;stroke-width:0.3px;}</style></defs><title>Carte_bleue_32</title><rect class="cls-1" x="43.38" y="39.25" width="204.07" height="283.46" rx="22.14"/><path class="cls-2" d="M77.05,95.37h136a17,17,0,0,1,17,17V279.58a17,17,0,0,1-17,17.05h-136a17,17,0,0,1-17-17.05V112.42A17,17,0,0,1,77.05,95.37Z"/><text class="cls-3" transform="translate(87.46 81)"><tspan xml:space="preserve">Escape the   ab</tspan></text><path class="cls-4" d="M177.72,63.38l-6.4,0a.77.77,0,0,0-.77.78.75.75,0,0,0,.23.55.77.77,0,0,0,.46.22l.11,13.29a3.29,3.29,0,1,0,6.57,0l-.1-13.29a.76.76,0,0,0,.69-.78.78.78,0,0,0-.79-.77Zm.27.78a.29.29,0,0,1-.07.18.27.27,0,0,1-.19.08h-.23l-3.92,0a.26.26,0,1,0,0,.52l3.72,0,.1,13.28A2.75,2.75,0,0,1,174.66,81a2.77,2.77,0,0,1-2.79-2.75L171.76,65h.78a.26.26,0,0,0,0-.52h-1.21a.27.27,0,0,1-.19-.08.27.27,0,0,1,0-.36.25.25,0,0,1,.18-.08l6.41-.05a.26.26,0,0,1,.26.26Z"/><path class="cls-4" d="M176.57,71.26a1,1,0,0,0-.64.23.54.54,0,0,1-.7,0,1.05,1.05,0,0,0-.65-.21,1,1,0,0,0-.64.22.52.52,0,0,1-.35.13.5.5,0,0,1-.35-.12,1.07,1.07,0,0,0-.65-.22.25.25,0,0,0-.18.08.27.27,0,0,0-.08.18l0,2.84a.27.27,0,0,0,.27.26.26.26,0,0,0,.25-.27v-2.5l.09.06a1,1,0,0,0,.64.21,1.07,1.07,0,0,0,.65-.22.5.5,0,0,1,.35-.13.53.53,0,0,1,.35.12,1,1,0,0,0,.64.22,1,1,0,0,0,.65-.23l.09-.06.05,6.38a1.77,1.77,0,0,1-.5,1.23,1.71,1.71,0,0,1-1.22.51,1.73,1.73,0,0,1-1.75-1.72l0-2.83a.26.26,0,0,0-.26-.26.27.27,0,0,0-.26.27l0,2.83a2.25,2.25,0,0,0,2.27,2.23,2.22,2.22,0,0,0,1.59-.67,2.28,2.28,0,0,0,.65-1.6l-.06-6.68a.27.27,0,0,0-.24-.28Z"/><path class="cls-4" d="M175.29,67a.25.25,0,0,0,.26.26.26.26,0,0,1,.26.26.25.25,0,0,1-.08.18.23.23,0,0,1-.18.08.26.26,0,0,1-.26-.26.26.26,0,0,0-.26-.26.26.26,0,0,0-.26.27.78.78,0,1,0,.77-.79.25.25,0,0,0-.25.26Z"/><path class="cls-4" d="M174.13,70.19a.82.82,0,0,0,.22-.55.75.75,0,0,0-.23-.55.76.76,0,0,0-.55-.23.26.26,0,0,0,0,.52.27.27,0,0,1,.19.08.27.27,0,0,1,0,.36.25.25,0,0,1-.18.08.26.26,0,0,1-.19-.07.27.27,0,0,1-.08-.19.24.24,0,0,0-.26-.25.26.26,0,0,0-.26.26.79.79,0,0,0,.79.77.76.76,0,0,0,.55-.23Z"/><g class="cls-5"><path class="cls-1" d="M120.36,165.44a22.72,22.72,0,1,1,45.44,0v37.44H181V165.44a37.9,37.9,0,0,0-75.79,0"/><path class="cls-1" d="M105.19,165.44"/><path class="cls-1" d="M155.66,224.73a12.52,12.52,0,1,1-12.52-12.52,12.52,12.52,0,0,1,12.52,12.52"/><path class="cls-1" d="M113.49,224.59A29.51,29.51,0,1,1,143,254.1a29.55,29.55,0,0,1-29.51-29.51m-15.18,0A44.69,44.69,0,1,0,143,179.91a44.74,44.74,0,0,0-44.69,44.68"/><line class="cls-1" x1="105.19" y1="165.44" x2="120.36" y2="165.44"/></g><path class="cls-6" d="M76.26,132.08c0,2-.89,2.95-2.66,2.95s-2.55-.95-2.55-2.84v-4.28h.82v4.23c0,1.44.61,2.15,1.82,2.15s1.75-.69,1.75-2.08v-4.3h.82Z"/><path class="cls-6" d="M82.05,134.91h-.8v-2.85c0-1.06-.39-1.59-1.16-1.59a1.25,1.25,0,0,0-1,.45,1.64,1.64,0,0,0-.4,1.14v2.85h-.8v-5h.8v.83h0a1.81,1.81,0,0,1,1.64-.94,1.52,1.52,0,0,1,1.26.53,2.34,2.34,0,0,1,.43,1.53Z"/><path class="cls-6" d="M89.88,134.91h-.8v-.78h0a1.68,1.68,0,0,1-1.54.9,1.65,1.65,0,0,1-1.17-.39,1.39,1.39,0,0,1-.42-1c0-.94.55-1.48,1.65-1.64l1.5-.21c0-.85-.34-1.27-1-1.27a2.46,2.46,0,0,0-1.63.62v-.82a3,3,0,0,1,1.7-.47c1.17,0,1.76.62,1.76,1.86Zm-.8-2.53-1.21.17a1.84,1.84,0,0,0-.84.28.78.78,0,0,0-.28.7.76.76,0,0,0,.26.59,1,1,0,0,0,.7.24,1.29,1.29,0,0,0,1-.42,1.49,1.49,0,0,0,.39-1.06Z"/><path class="cls-6" d="M94,130.72a1.05,1.05,0,0,0-.61-.16,1,1,0,0,0-.86.49,2.21,2.21,0,0,0-.34,1.31v2.55h-.8v-5h.8v1h0a1.76,1.76,0,0,1,.52-.82,1.19,1.19,0,0,1,.79-.29,1.48,1.48,0,0,1,.48.06Z"/><path class="cls-6" d="M97.18,134.86a1.43,1.43,0,0,1-.74.16c-.88,0-1.32-.49-1.32-1.46v-3h-.86v-.69h.86v-1.22l.8-.26v1.48h1.26v.69H95.92v2.81a1.11,1.11,0,0,0,.18.72.65.65,0,0,0,.56.22.83.83,0,0,0,.52-.17Z"/><path class="cls-6" d="M98.66,128.64a.48.48,0,0,1-.36-.14.5.5,0,0,1-.15-.37.52.52,0,0,1,.15-.38.49.49,0,0,1,.36-.15.54.54,0,0,1,.38.15.52.52,0,0,1,.15.38.49.49,0,0,1-.15.36A.54.54,0,0,1,98.66,128.64Zm.39,6.27h-.8v-5h.8Z"/><path class="cls-6" d="M104.08,134.68a2.6,2.6,0,0,1-1.36.35,2.25,2.25,0,0,1-1.73-.7,2.5,2.5,0,0,1-.66-1.8,2.78,2.78,0,0,1,.71-2,2.47,2.47,0,0,1,1.89-.75,2.64,2.64,0,0,1,1.16.24v.82a2,2,0,0,0-1.19-.39,1.61,1.61,0,0,0-1.26.55,2.13,2.13,0,0,0-.49,1.44,2,2,0,0,0,.47,1.39,1.57,1.57,0,0,0,1.23.51,2,2,0,0,0,1.23-.44Z"/><path class="cls-6" d="M106.1,134.91h-.81v-7.4h.81Z"/><path class="cls-6" d="M111.73,132.61H108.2a1.93,1.93,0,0,0,.45,1.29,1.54,1.54,0,0,0,1.19.46,2.46,2.46,0,0,0,1.55-.56v.75a2.89,2.89,0,0,1-1.74.48,2.13,2.13,0,0,1-1.67-.68,2.8,2.8,0,0,1-.61-1.92,2.75,2.75,0,0,1,.67-1.9,2.12,2.12,0,0,1,1.64-.73,1.9,1.9,0,0,1,1.52.63,2.62,2.62,0,0,1,.53,1.76Zm-.82-.68a1.57,1.57,0,0,0-.33-1.07,1.13,1.13,0,0,0-.92-.39,1.32,1.32,0,0,0-1,.41,1.91,1.91,0,0,0-.49,1.05Z"/><path class="cls-6" d="M116.51,134.19h0v3h-.81v-7.3h.81v.88h0a1.88,1.88,0,0,1,1.72-1,1.82,1.82,0,0,1,1.51.67,2.8,2.8,0,0,1,.54,1.8,3.11,3.11,0,0,1-.61,2A2,2,0,0,1,118,135,1.67,1.67,0,0,1,116.51,134.19Zm0-2v.7a1.45,1.45,0,0,0,.4,1,1.42,1.42,0,0,0,2.16-.12,2.53,2.53,0,0,0,.41-1.55,2,2,0,0,0-.38-1.31,1.3,1.3,0,0,0-1-.47,1.4,1.4,0,0,0-1.12.49A1.78,1.78,0,0,0,116.49,132.17Z"/><path class="cls-6" d="M125.61,134.91h-.8v-.79h0a1.65,1.65,0,0,1-1.55.91c-1.19,0-1.78-.71-1.78-2.13v-3h.79v2.86c0,1.06.41,1.59,1.21,1.59a1.24,1.24,0,0,0,1-.44,1.64,1.64,0,0,0,.38-1.13v-2.88h.8Z"/><path class="cls-6" d="M128,134.19h0v.72h-.8v-7.4h.8v3.28h0a1.9,1.9,0,0,1,1.73-1,1.83,1.83,0,0,1,1.51.67,2.8,2.8,0,0,1,.54,1.8,3.11,3.11,0,0,1-.61,2,2,2,0,0,1-1.67.75A1.65,1.65,0,0,1,128,134.19Zm0-2v.7a1.46,1.46,0,0,0,.41,1,1.34,1.34,0,0,0,1,.44,1.36,1.36,0,0,0,1.14-.56,2.6,2.6,0,0,0,.41-1.55,2.08,2.08,0,0,0-.38-1.31,1.3,1.3,0,0,0-1.05-.47,1.4,1.4,0,0,0-1.12.49A1.79,1.79,0,0,0,128,132.17Z"/><path class="cls-6" d="M133.9,134.91h-.8v-7.4h.8Z"/><path class="cls-6" d="M135.93,128.64a.48.48,0,0,1-.36-.14.5.5,0,0,1-.15-.37.52.52,0,0,1,.15-.38.49.49,0,0,1,.36-.15.51.51,0,0,1,.53.53.49.49,0,0,1-.15.36A.52.52,0,0,1,135.93,128.64Zm.39,6.27h-.8v-5h.8Z"/><path class="cls-6" d="M142,132.61h-3.53a1.93,1.93,0,0,0,.45,1.29,1.53,1.53,0,0,0,1.18.46,2.47,2.47,0,0,0,1.56-.56v.75a2.9,2.9,0,0,1-1.75.48,2.12,2.12,0,0,1-1.66-.68,2.8,2.8,0,0,1-.61-1.92,2.71,2.71,0,0,1,.67-1.9,2.1,2.1,0,0,1,1.64-.73,1.9,1.9,0,0,1,1.52.63,2.62,2.62,0,0,1,.53,1.76Zm-.82-.68a1.57,1.57,0,0,0-.33-1.07,1.14,1.14,0,0,0-.92-.39,1.32,1.32,0,0,0-1,.41,1.91,1.91,0,0,0-.49,1.05Zm-.12-4.57L139.74,129h-.62l1.09-1.61Z"/><path class="cls-6" d="M149.93,132.61H146.4a1.88,1.88,0,0,0,.45,1.29,1.53,1.53,0,0,0,1.18.46,2.49,2.49,0,0,0,1.56-.56v.75a2.9,2.9,0,0,1-1.75.48,2.12,2.12,0,0,1-1.66-.68,3.19,3.19,0,0,1,0-3.82,2.12,2.12,0,0,1,1.65-.73,1.9,1.9,0,0,1,1.52.63,2.68,2.68,0,0,1,.53,1.76Zm-.82-.68a1.57,1.57,0,0,0-.33-1.07,1.14,1.14,0,0,0-.92-.39,1.28,1.28,0,0,0-1,.41,1.84,1.84,0,0,0-.49,1.05Z"/><path class="cls-6" d="M155.29,134.91h-.8v-2.85c0-1.06-.38-1.59-1.16-1.59a1.25,1.25,0,0,0-1,.45,1.64,1.64,0,0,0-.4,1.14v2.85h-.8v-5h.8v.83h0a1.81,1.81,0,0,1,1.64-.94,1.52,1.52,0,0,1,1.26.53,2.34,2.34,0,0,1,.43,1.53Z"/><path class="cls-6" d="M163.12,134.91h-.8v-.78h0a1.68,1.68,0,0,1-1.54.9,1.65,1.65,0,0,1-1.17-.39,1.39,1.39,0,0,1-.42-1c0-.94.55-1.48,1.65-1.64l1.5-.21c0-.85-.34-1.27-1-1.27a2.46,2.46,0,0,0-1.63.62v-.82a3,3,0,0,1,1.7-.47c1.17,0,1.76.62,1.76,1.86Zm-.8-2.53-1.21.17a1.84,1.84,0,0,0-.84.28.81.81,0,0,0-.28.7.76.76,0,0,0,.26.59,1,1,0,0,0,.7.24,1.27,1.27,0,0,0,1-.42,1.49,1.49,0,0,0,.39-1.06Z"/><path class="cls-6" d="M168,134.68a2.63,2.63,0,0,1-1.37.35,2.26,2.26,0,0,1-1.73-.7,2.53,2.53,0,0,1-.65-1.8,2.73,2.73,0,0,1,.71-2,2.47,2.47,0,0,1,1.89-.75,2.7,2.7,0,0,1,1.16.24v.82a2,2,0,0,0-1.19-.39,1.61,1.61,0,0,0-1.26.55,2.08,2.08,0,0,0-.49,1.44,2,2,0,0,0,.46,1.39,1.59,1.59,0,0,0,1.24.51,2,2,0,0,0,1.23-.44Z"/><path class="cls-6" d="M172.66,134.68a2.63,2.63,0,0,1-1.37.35,2.26,2.26,0,0,1-1.73-.7,2.53,2.53,0,0,1-.65-1.8,2.77,2.77,0,0,1,.7-2,2.5,2.5,0,0,1,1.89-.75,2.72,2.72,0,0,1,1.17.24v.82a2,2,0,0,0-1.19-.39,1.6,1.6,0,0,0-1.26.55,2.08,2.08,0,0,0-.49,1.44,2,2,0,0,0,.46,1.39,1.59,1.59,0,0,0,1.24.51,2,2,0,0,0,1.23-.44Z"/><path class="cls-6" d="M177.89,132.61h-3.53a1.83,1.83,0,0,0,.45,1.29,1.52,1.52,0,0,0,1.18.46,2.46,2.46,0,0,0,1.55-.56v.75a2.89,2.89,0,0,1-1.74.48,2.13,2.13,0,0,1-1.67-.68,2.8,2.8,0,0,1-.6-1.92,2.75,2.75,0,0,1,.66-1.9,2.12,2.12,0,0,1,1.64-.73,1.88,1.88,0,0,1,1.52.63,2.63,2.63,0,0,1,.54,1.76Zm-.82-.68a1.63,1.63,0,0,0-.34-1.07,1.12,1.12,0,0,0-.91-.39,1.32,1.32,0,0,0-1,.41,1.83,1.83,0,0,0-.48,1.05Zm-.47-3H176l-1.28-1.61h.82Z"/><path class="cls-6" d="M178.79,134.73v-.86a2.35,2.35,0,0,0,1.45.49c.7,0,1-.24,1-.71a.64.64,0,0,0-.09-.34.82.82,0,0,0-.25-.24,2,2,0,0,0-.36-.2l-.44-.17c-.22-.09-.42-.18-.59-.27a2.25,2.25,0,0,1-.42-.3,1.14,1.14,0,0,1-.25-.39,1.28,1.28,0,0,1-.09-.5,1.18,1.18,0,0,1,.17-.62,1.44,1.44,0,0,1,.43-.46,1.89,1.89,0,0,1,.61-.27,2.76,2.76,0,0,1,.71-.09,2.86,2.86,0,0,1,1.16.22v.81a2.27,2.27,0,0,0-1.27-.36,1.62,1.62,0,0,0-.4.05.9.9,0,0,0-.31.15.53.53,0,0,0-.2.22.54.54,0,0,0-.08.28.67.67,0,0,0,.08.33.55.55,0,0,0,.2.23,1.37,1.37,0,0,0,.34.19,4,4,0,0,0,.44.18c.22.09.42.17.6.26a2.12,2.12,0,0,1,.44.3,1.32,1.32,0,0,1,.29.39,1.4,1.4,0,0,1-.06,1.17,1.45,1.45,0,0,1-.44.45,2,2,0,0,1-.63.27,3.08,3.08,0,0,1-.75.09A2.85,2.85,0,0,1,178.79,134.73Z"/><path class="cls-6" d="M186.88,134.91h-.8v-7.4h.8Z"/><path class="cls-6" d="M188.91,128.64a.48.48,0,0,1-.36-.14.51.51,0,0,1-.16-.37.53.53,0,0,1,.16-.38.49.49,0,0,1,.36-.15.5.5,0,0,1,.37.15.49.49,0,0,1,.16.38.46.46,0,0,1-.16.36A.5.5,0,0,1,188.91,128.64Zm.39,6.27h-.8v-5h.8Z"/><path class="cls-6" d="M191.74,134.19h0v.72h-.8v-7.4h.8v3.28h0a1.9,1.9,0,0,1,1.73-1,1.83,1.83,0,0,1,1.51.67,2.8,2.8,0,0,1,.54,1.8,3.11,3.11,0,0,1-.61,2,2,2,0,0,1-1.67.75A1.65,1.65,0,0,1,191.74,134.19Zm0-2v.7a1.46,1.46,0,0,0,.41,1,1.42,1.42,0,0,0,2.16-.12,2.53,2.53,0,0,0,.41-1.55,2.08,2.08,0,0,0-.38-1.31,1.3,1.3,0,0,0-1-.47,1.4,1.4,0,0,0-1.12.49A1.79,1.79,0,0,0,191.72,132.17Z"/><path class="cls-6" d="M199.41,130.72a1,1,0,0,0-.61-.16,1,1,0,0,0-.85.49,2.21,2.21,0,0,0-.35,1.31v2.55h-.8v-5h.8v1h0a1.77,1.77,0,0,1,.53-.82,1.15,1.15,0,0,1,.78-.29,1.48,1.48,0,0,1,.48.06Z"/><path class="cls-6" d="M204.3,132.61h-3.53a1.83,1.83,0,0,0,.45,1.29,1.52,1.52,0,0,0,1.18.46,2.46,2.46,0,0,0,1.55-.56v.75a2.89,2.89,0,0,1-1.74.48,2.14,2.14,0,0,1-1.67-.68,2.8,2.8,0,0,1-.6-1.92,2.75,2.75,0,0,1,.66-1.9,2.12,2.12,0,0,1,1.64-.73,1.88,1.88,0,0,1,1.52.63,2.63,2.63,0,0,1,.54,1.76Zm-.82-.68a1.63,1.63,0,0,0-.34-1.07,1.12,1.12,0,0,0-.91-.39,1.28,1.28,0,0,0-1,.41,1.78,1.78,0,0,0-.49,1.05Z"/><path class="cls-6" d="M73.13,148.51h-.71a6.26,6.26,0,0,1-1.51-4.27,6.47,6.47,0,0,1,1.51-4.33h.72a6.6,6.6,0,0,0-1.53,4.32A6.52,6.52,0,0,0,73.13,148.51Z"/><path class="cls-6" d="M77,147a3.11,3.11,0,0,1-2.39-1,3.68,3.68,0,0,1-.89-2.55,3.85,3.85,0,0,1,.91-2.7,3.2,3.2,0,0,1,2.49-1,3,3,0,0,1,2.33,1,3.65,3.65,0,0,1,.89,2.55,3.83,3.83,0,0,1-.91,2.71A3.11,3.11,0,0,1,77,147Zm.06-6.49a2.23,2.23,0,0,0-1.79.79,3.54,3.54,0,0,0,0,4.17,2.18,2.18,0,0,0,1.75.79,2.32,2.32,0,0,0,1.82-.75,3.07,3.07,0,0,0,.66-2.1,3.28,3.28,0,0,0-.64-2.15A2.23,2.23,0,0,0,77,140.54Z"/><path class="cls-6" d="M82.41,146.19h0v3h-.8v-7.3h.8v.88h0a1.89,1.89,0,0,1,1.73-1,1.84,1.84,0,0,1,1.51.67,2.8,2.8,0,0,1,.54,1.8,3.17,3.17,0,0,1-.61,2,2,2,0,0,1-1.67.75A1.67,1.67,0,0,1,82.41,146.19Zm0-2v.7a1.45,1.45,0,0,0,.4,1A1.43,1.43,0,0,0,85,145.8a2.6,2.6,0,0,0,.41-1.55,2,2,0,0,0-.39-1.31,1.28,1.28,0,0,0-1-.47,1.42,1.42,0,0,0-1.13.49A1.78,1.78,0,0,0,82.39,144.17Z"/><path class="cls-6" d="M91.49,144.61H88a1.83,1.83,0,0,0,.45,1.29,1.52,1.52,0,0,0,1.18.46,2.46,2.46,0,0,0,1.55-.56v.75a2.89,2.89,0,0,1-1.74.48,2.14,2.14,0,0,1-1.67-.68,2.8,2.8,0,0,1-.6-1.92,2.75,2.75,0,0,1,.66-1.9,2.12,2.12,0,0,1,1.64-.73,1.9,1.9,0,0,1,1.52.63,2.63,2.63,0,0,1,.54,1.76Zm-.82-.68a1.63,1.63,0,0,0-.34-1.07,1.12,1.12,0,0,0-.91-.39,1.32,1.32,0,0,0-1,.41,1.83,1.83,0,0,0-.48,1.05Z"/><path class="cls-6" d="M96.85,146.91h-.8v-2.85q0-1.59-1.17-1.59a1.25,1.25,0,0,0-1,.45,1.68,1.68,0,0,0-.39,1.14v2.85h-.8v-5h.8v.83h0a1.79,1.79,0,0,1,1.64-.94,1.51,1.51,0,0,1,1.25.53,2.35,2.35,0,0,1,.44,1.53Z"/><path class="cls-6" d="M106.62,146.91h-.91l-.74-2h-3l-.69,2h-.92l2.69-7h.85Zm-1.92-2.7-1.09-3a2,2,0,0,1-.11-.47h0a2.53,2.53,0,0,1-.11.47l-1.09,3Z"/><path class="cls-6" d="M111,146.68a2.6,2.6,0,0,1-1.36.35,2.25,2.25,0,0,1-1.73-.7,2.5,2.5,0,0,1-.66-1.8,2.78,2.78,0,0,1,.71-2,2.47,2.47,0,0,1,1.89-.75A2.64,2.64,0,0,1,111,142v.82a2,2,0,0,0-1.19-.39,1.61,1.61,0,0,0-1.26.55,2.13,2.13,0,0,0-.49,1.44,2,2,0,0,0,.47,1.39,1.57,1.57,0,0,0,1.23.51,2,2,0,0,0,1.23-.44Z"/><path class="cls-6" d="M115.57,146.68a2.6,2.6,0,0,1-1.36.35,2.25,2.25,0,0,1-1.73-.7,2.5,2.5,0,0,1-.66-1.8,2.78,2.78,0,0,1,.71-2,2.47,2.47,0,0,1,1.89-.75,2.64,2.64,0,0,1,1.16.24v.82a2,2,0,0,0-1.19-.39,1.61,1.61,0,0,0-1.26.55,2.13,2.13,0,0,0-.49,1.44,2,2,0,0,0,.46,1.39,1.59,1.59,0,0,0,1.24.51,2,2,0,0,0,1.23-.44Z"/><path class="cls-6" d="M120.8,144.61h-3.53a1.83,1.83,0,0,0,.45,1.29,1.53,1.53,0,0,0,1.18.46,2.49,2.49,0,0,0,1.56-.56v.75a2.92,2.92,0,0,1-1.75.48,2.12,2.12,0,0,1-1.66-.68,3.19,3.19,0,0,1,0-3.82,2.12,2.12,0,0,1,1.65-.73,1.86,1.86,0,0,1,1.51.63,2.63,2.63,0,0,1,.54,1.76Zm-.82-.68a1.57,1.57,0,0,0-.33-1.07,1.14,1.14,0,0,0-.92-.39,1.28,1.28,0,0,0-1,.41,1.84,1.84,0,0,0-.49,1.05Z"/><path class="cls-6" d="M121.71,146.73v-.86a2.34,2.34,0,0,0,1.44.49c.7,0,1.06-.24,1.06-.71a.57.57,0,0,0-.1-.34.91.91,0,0,0-.24-.24,2,2,0,0,0-.36-.2l-.45-.17c-.22-.09-.41-.18-.58-.27a1.74,1.74,0,0,1-.42-.3,1,1,0,0,1-.25-.39,1.28,1.28,0,0,1-.09-.5,1.17,1.17,0,0,1,.16-.62,1.57,1.57,0,0,1,.43-.46,2,2,0,0,1,.61-.27,2.82,2.82,0,0,1,.71-.09,2.91,2.91,0,0,1,1.17.22v.81a2.27,2.27,0,0,0-1.27-.36,1.7,1.7,0,0,0-.41.05,1,1,0,0,0-.31.15.6.6,0,0,0-.2.22.53.53,0,0,0-.07.28.67.67,0,0,0,.07.33.66.66,0,0,0,.21.23,1.3,1.3,0,0,0,.33.19l.44.18c.23.09.42.17.6.26a2,2,0,0,1,.45.3,1.52,1.52,0,0,1,.29.39,1.39,1.39,0,0,1,.1.53,1.22,1.22,0,0,1-.17.64,1.42,1.42,0,0,1-.43.45,2.22,2.22,0,0,1-.63.27,3.08,3.08,0,0,1-.75.09A2.82,2.82,0,0,1,121.71,146.73Z"/><path class="cls-6" d="M126,146.73v-.86a2.34,2.34,0,0,0,1.44.49c.71,0,1.06-.24,1.06-.71a.64.64,0,0,0-.09-.34.82.82,0,0,0-.25-.24,2,2,0,0,0-.36-.2l-.44-.17a5.6,5.6,0,0,1-.59-.27,1.74,1.74,0,0,1-.42-.3,1.14,1.14,0,0,1-.25-.39,1.34,1.34,0,0,1,.07-1.12,1.71,1.71,0,0,1,.43-.46,2,2,0,0,1,.62-.27,2.76,2.76,0,0,1,.71-.09A2.86,2.86,0,0,1,129,142v.81a2.27,2.27,0,0,0-1.27-.36,1.7,1.7,0,0,0-.41.05,1,1,0,0,0-.31.15.7.7,0,0,0-.2.22.64.64,0,0,0-.07.28.81.81,0,0,0,.07.33.66.66,0,0,0,.21.23,1.3,1.3,0,0,0,.33.19l.45.18c.22.09.42.17.59.26a2,2,0,0,1,.45.3,1.32,1.32,0,0,1,.29.39,1.22,1.22,0,0,1,.1.53,1.32,1.32,0,0,1-.16.64,1.45,1.45,0,0,1-.44.45,2,2,0,0,1-.63.27,3.08,3.08,0,0,1-.75.09A2.85,2.85,0,0,1,126,146.73Z"/><path class="cls-6" d="M130.52,148.51h-.71a6.52,6.52,0,0,0,1.52-4.28,6.6,6.6,0,0,0-1.53-4.32h.72a6.48,6.48,0,0,1,1.52,4.33A6.27,6.27,0,0,1,130.52,148.51Z"/><path class="cls-6" d="M138.86,142.72a1.07,1.07,0,0,0-1.46.33,2.21,2.21,0,0,0-.34,1.31v2.55h-.8v-5h.8v1h0a1.69,1.69,0,0,1,.52-.82,1.15,1.15,0,0,1,.79-.29,1.45,1.45,0,0,1,.47.06Z"/><path class="cls-6" d="M143.75,144.61h-3.53a1.83,1.83,0,0,0,.45,1.29,1.53,1.53,0,0,0,1.18.46,2.44,2.44,0,0,0,1.55-.56v.75a2.87,2.87,0,0,1-1.74.48,2.12,2.12,0,0,1-1.66-.68,3.19,3.19,0,0,1,.05-3.82,2.12,2.12,0,0,1,1.65-.73,1.86,1.86,0,0,1,1.51.63,2.63,2.63,0,0,1,.54,1.76Zm-.82-.68a1.57,1.57,0,0,0-.33-1.07,1.14,1.14,0,0,0-.92-.39,1.28,1.28,0,0,0-1,.41,1.84,1.84,0,0,0-.49,1.05Z"/><path class="cls-6" d="M148.37,146.68A2.61,2.61,0,0,1,147,147a2.24,2.24,0,0,1-1.72-.7,2.5,2.5,0,0,1-.66-1.8,2.78,2.78,0,0,1,.71-2,2.47,2.47,0,0,1,1.89-.75,2.67,2.67,0,0,1,1.16.24v.82a2,2,0,0,0-1.19-.39,1.61,1.61,0,0,0-1.26.55,2.08,2.08,0,0,0-.49,1.44,2,2,0,0,0,.46,1.39,1.59,1.59,0,0,0,1.24.51,2,2,0,0,0,1.23-.44Zm-.42,1.48c0,.58-.45.86-1.34.86h-.32v-.44l.34,0c.46,0,.69-.14.69-.44s-.21-.38-.63-.38l-.2,0v-.89H147v.51a1.1,1.1,0,0,1,.68.2A.64.64,0,0,1,148,148.16Z"/><path class="cls-6" d="M151.67,147a2.31,2.31,0,0,1-1.77-.7,2.61,2.61,0,0,1-.66-1.86,2.72,2.72,0,0,1,.69-2,2.48,2.48,0,0,1,1.86-.7,2.27,2.27,0,0,1,1.74.68,2.73,2.73,0,0,1,.63,1.91,2.69,2.69,0,0,1-.67,1.92A2.39,2.39,0,0,1,151.67,147Zm.06-4.56a1.49,1.49,0,0,0-1.22.53,2.14,2.14,0,0,0-.45,1.44,2,2,0,0,0,.45,1.4,1.54,1.54,0,0,0,1.22.52,1.43,1.43,0,0,0,1.19-.51,2.16,2.16,0,0,0,.42-1.43,2.21,2.21,0,0,0-.42-1.44A1.43,1.43,0,0,0,151.73,142.47Z"/><path class="cls-6" d="M155.85,140.64a.5.5,0,0,1-.37-.14.5.5,0,0,1-.15-.37.52.52,0,0,1,.15-.38.51.51,0,0,1,.37-.15.5.5,0,0,1,.37.15.49.49,0,0,1,.16.38.46.46,0,0,1-.16.36A.5.5,0,0,1,155.85,140.64Zm.39,6.27h-.8v-5h.8Z"/><path class="cls-6" d="M160.18,146.86a1.49,1.49,0,0,1-.75.16c-.87,0-1.31-.49-1.31-1.46v-3h-.86v-.69h.86v-1.22l.8-.26v1.48h1.26v.69h-1.26v2.81a1.19,1.19,0,0,0,.17.72.68.68,0,0,0,.57.22.85.85,0,0,0,.52-.17Z"/><path class="cls-6" d="M168,144.61h-3.53a1.83,1.83,0,0,0,.45,1.29,1.52,1.52,0,0,0,1.18.46,2.46,2.46,0,0,0,1.55-.56v.75a2.89,2.89,0,0,1-1.74.48,2.14,2.14,0,0,1-1.67-.68,2.8,2.8,0,0,1-.6-1.92,2.75,2.75,0,0,1,.66-1.9,2.12,2.12,0,0,1,1.64-.73,1.88,1.88,0,0,1,1.52.63,2.63,2.63,0,0,1,.54,1.76Zm-.82-.68a1.58,1.58,0,0,0-.34-1.07,1.12,1.12,0,0,0-.91-.39,1.28,1.28,0,0,0-1,.41,1.78,1.78,0,0,0-.49,1.05Z"/><path class="cls-6" d="M173.37,146.91h-.8v-2.85c0-1.06-.39-1.59-1.16-1.59a1.29,1.29,0,0,0-1,.45,1.68,1.68,0,0,0-.39,1.14v2.85h-.8v-5h.8v.83h0a1.8,1.8,0,0,1,1.64-.94,1.52,1.52,0,0,1,1.26.53,2.34,2.34,0,0,1,.43,1.53Z"/><path class="cls-6" d="M181.89,146.51q0,2.76-2.64,2.76a3.58,3.58,0,0,1-1.62-.35v-.81a3.24,3.24,0,0,0,1.61.47c1.23,0,1.84-.65,1.84-2v-.55h0a2,2,0,0,1-3.23.29,2.7,2.7,0,0,1-.56-1.79,3.1,3.1,0,0,1,.61-2,2.06,2.06,0,0,1,1.68-.75,1.64,1.64,0,0,1,1.5.81h0v-.7h.81Zm-.81-1.86v-.73a1.45,1.45,0,0,0-.4-1,1.33,1.33,0,0,0-1-.42,1.38,1.38,0,0,0-1.16.54,2.4,2.4,0,0,0-.42,1.51,2.08,2.08,0,0,0,.4,1.34,1.31,1.31,0,0,0,1.07.5,1.38,1.38,0,0,0,1.09-.48A1.8,1.8,0,0,0,181.08,144.65Z"/><path class="cls-6" d="M187.53,144.61H184a1.93,1.93,0,0,0,.45,1.29,1.54,1.54,0,0,0,1.19.46,2.46,2.46,0,0,0,1.55-.56v.75a2.89,2.89,0,0,1-1.74.48,2.13,2.13,0,0,1-1.67-.68,2.8,2.8,0,0,1-.61-1.92,2.75,2.75,0,0,1,.67-1.9,2.12,2.12,0,0,1,1.64-.73,1.9,1.9,0,0,1,1.52.63,2.63,2.63,0,0,1,.54,1.76Zm-.83-.68a1.57,1.57,0,0,0-.33-1.07,1.13,1.13,0,0,0-.92-.39,1.32,1.32,0,0,0-1,.41,1.91,1.91,0,0,0-.49,1.05Zm-.12-4.57L185.3,141h-.62l1.09-1.61Z"/><path class="cls-6" d="M192.89,146.91h-.8v-2.85q0-1.59-1.17-1.59a1.25,1.25,0,0,0-1,.45,1.68,1.68,0,0,0-.39,1.14v2.85h-.8v-5h.8v.83h0a1.79,1.79,0,0,1,1.64-.94,1.51,1.51,0,0,1,1.25.53,2.35,2.35,0,0,1,.44,1.53Z"/><path class="cls-6" d="M198.41,144.61h-3.53a1.93,1.93,0,0,0,.45,1.29,1.53,1.53,0,0,0,1.18.46,2.47,2.47,0,0,0,1.56-.56v.75a2.9,2.9,0,0,1-1.75.48,2.12,2.12,0,0,1-1.66-.68,2.8,2.8,0,0,1-.61-1.92,2.71,2.71,0,0,1,.67-1.9,2.1,2.1,0,0,1,1.64-.73,1.9,1.9,0,0,1,1.52.63,2.62,2.62,0,0,1,.53,1.76Zm-.82-.68a1.57,1.57,0,0,0-.33-1.07,1.14,1.14,0,0,0-.92-.39,1.32,1.32,0,0,0-1,.41,1.84,1.84,0,0,0-.49,1.05Zm-.12-4.57L196.19,141h-.62l1.09-1.61Z"/><path class="cls-6" d="M202.23,142.72a1,1,0,0,0-.6-.16,1,1,0,0,0-.86.49,2.21,2.21,0,0,0-.34,1.31v2.55h-.81v-5h.81v1h0a1.69,1.69,0,0,1,.52-.82,1.15,1.15,0,0,1,.78-.29,1.48,1.48,0,0,1,.48.06Z"/><path class="cls-6" d="M206.68,146.91h-.8v-.78h0a1.68,1.68,0,0,1-1.54.9,1.65,1.65,0,0,1-1.17-.39,1.39,1.39,0,0,1-.42-1c0-.94.55-1.48,1.65-1.64l1.5-.21c0-.85-.34-1.27-1-1.27a2.46,2.46,0,0,0-1.63.62v-.82a3,3,0,0,1,1.7-.47c1.17,0,1.76.62,1.76,1.86Zm-.8-2.53-1.21.17a1.84,1.84,0,0,0-.84.28.81.81,0,0,0-.28.7.76.76,0,0,0,.26.59,1,1,0,0,0,.7.24,1.27,1.27,0,0,0,1-.42,1.49,1.49,0,0,0,.39-1.06Z"/><path class="cls-6" d="M209,146.91h-.8v-7.4h.8Z"/><path class="cls-6" d="M71.85,158.19h0v3H71v-7.3h.8v.88h0a1.9,1.9,0,0,1,1.73-1,1.82,1.82,0,0,1,1.51.67,2.8,2.8,0,0,1,.54,1.8,3.11,3.11,0,0,1-.61,2,2,2,0,0,1-1.67.75A1.67,1.67,0,0,1,71.85,158.19Zm0-2v.7a1.46,1.46,0,0,0,.41,1,1.31,1.31,0,0,0,1,.44,1.36,1.36,0,0,0,1.14-.56,2.6,2.6,0,0,0,.41-1.55,2.08,2.08,0,0,0-.38-1.31,1.3,1.3,0,0,0-1.05-.47,1.4,1.4,0,0,0-1.12.49A1.74,1.74,0,0,0,71.83,156.17Z"/><path class="cls-6" d="M77.71,158.91h-.8v-7.4h.8Z"/><path class="cls-6" d="M83.38,158.91h-.81v-.79h0A1.65,1.65,0,0,1,81,159c-1.19,0-1.78-.71-1.78-2.13v-3H80v2.86c0,1.06.41,1.59,1.21,1.59a1.25,1.25,0,0,0,1-.44,1.64,1.64,0,0,0,.37-1.13v-2.88h.81Z"/><path class="cls-6" d="M84.69,158.73v-.86a2.34,2.34,0,0,0,1.44.49c.7,0,1.05-.24,1.05-.71a.64.64,0,0,0-.09-.34.91.91,0,0,0-.24-.24,2,2,0,0,0-.36-.2L86,156.7c-.22-.09-.41-.18-.58-.27a1.74,1.74,0,0,1-.42-.3,1.16,1.16,0,0,1-.26-.39,1.5,1.5,0,0,1-.08-.5,1.17,1.17,0,0,1,.16-.62,1.57,1.57,0,0,1,.43-.46,2,2,0,0,1,.61-.27,2.82,2.82,0,0,1,.71-.09,2.91,2.91,0,0,1,1.17.22v.81a2.3,2.3,0,0,0-1.27-.36,1.7,1.7,0,0,0-.41.05,1,1,0,0,0-.31.15.6.6,0,0,0-.2.22.53.53,0,0,0-.07.28.67.67,0,0,0,.07.33.66.66,0,0,0,.21.23,1.3,1.3,0,0,0,.33.19l.44.18c.23.09.42.17.6.26a2,2,0,0,1,.45.3,1.28,1.28,0,0,1,.28.39,1.4,1.4,0,0,1-.06,1.17,1.35,1.35,0,0,1-.44.45,2,2,0,0,1-.63.27A2.94,2.94,0,0,1,86,159,2.82,2.82,0,0,1,84.69,158.73Z"/><path class="cls-6" d="M96.24,158.91h-.8v-.85h0a2,2,0,0,1-3.22.3,2.75,2.75,0,0,1-.57-1.83,3,3,0,0,1,.63-2,2.07,2.07,0,0,1,1.66-.74,1.6,1.6,0,0,1,1.5.81h0v-3.1h.8Zm-.8-2.26v-.73a1.42,1.42,0,0,0-.4-1,1.34,1.34,0,0,0-1-.42,1.39,1.39,0,0,0-1.16.54,2.35,2.35,0,0,0-.42,1.48,2.13,2.13,0,0,0,.41,1.37,1.3,1.3,0,0,0,1.08.5,1.33,1.33,0,0,0,1.08-.49A1.79,1.79,0,0,0,95.44,156.65Z"/><path class="cls-6" d="M101.88,156.61H98.35a1.83,1.83,0,0,0,.45,1.29,1.53,1.53,0,0,0,1.18.46,2.44,2.44,0,0,0,1.55-.56v.75a2.87,2.87,0,0,1-1.74.48,2.12,2.12,0,0,1-1.66-.68,3.19,3.19,0,0,1,.05-3.82,2.12,2.12,0,0,1,1.65-.73,1.86,1.86,0,0,1,1.51.63,2.63,2.63,0,0,1,.54,1.76Zm-.82-.68a1.57,1.57,0,0,0-.33-1.07,1.14,1.14,0,0,0-.92-.39,1.28,1.28,0,0,0-1,.41,1.84,1.84,0,0,0-.49,1.05Z"/><path class="cls-6" d="M109.24,158.68a2.61,2.61,0,0,1-1.37.35,2.22,2.22,0,0,1-1.72-.7,2.5,2.5,0,0,1-.66-1.8,2.78,2.78,0,0,1,.71-2,2.47,2.47,0,0,1,1.89-.75,2.67,2.67,0,0,1,1.16.24v.82a2,2,0,0,0-1.19-.39,1.61,1.61,0,0,0-1.26.55,2.08,2.08,0,0,0-.49,1.44,2,2,0,0,0,.46,1.39,1.59,1.59,0,0,0,1.24.51,2,2,0,0,0,1.23-.44Z"/><path class="cls-6" d="M110.86,152.64a.52.52,0,0,1-.37-.14.5.5,0,0,1-.15-.37.52.52,0,0,1,.15-.38.53.53,0,0,1,.37-.15.5.5,0,0,1,.37.15.49.49,0,0,1,.16.38.46.46,0,0,1-.16.36A.5.5,0,0,1,110.86,152.64Zm.39,6.27h-.8v-5h.8Z"/><path class="cls-6" d="M115.19,158.86a1.45,1.45,0,0,1-.74.16c-.88,0-1.32-.49-1.32-1.46v-3h-.86v-.69h.86v-1.22l.8-.26v1.48h1.26v.69h-1.26v2.81a1.19,1.19,0,0,0,.17.72.68.68,0,0,0,.57.22.83.83,0,0,0,.52-.17Z"/><path class="cls-6" d="M119.84,158.91H119v-.78h0a1.68,1.68,0,0,1-1.54.9,1.65,1.65,0,0,1-1.17-.39,1.39,1.39,0,0,1-.42-1c0-.94.55-1.48,1.65-1.64l1.5-.21c0-.85-.34-1.27-1-1.27a2.46,2.46,0,0,0-1.63.62v-.82a3,3,0,0,1,1.7-.47c1.17,0,1.76.62,1.76,1.86Zm-.8-2.53-1.21.17a1.84,1.84,0,0,0-.84.28.81.81,0,0,0-.28.7.76.76,0,0,0,.26.59,1,1,0,0,0,.7.24,1.27,1.27,0,0,0,1-.42,1.49,1.49,0,0,0,.39-1.06Z"/><path class="cls-6" d="M123.67,158.86a1.49,1.49,0,0,1-.75.16c-.87,0-1.31-.49-1.31-1.46v-3h-.86v-.69h.86v-1.22l.8-.26v1.48h1.26v.69h-1.26v2.81a1.19,1.19,0,0,0,.17.72.66.66,0,0,0,.57.22.85.85,0,0,0,.52-.17Z"/><path class="cls-6" d="M125.15,152.64a.5.5,0,0,1-.37-.14.5.5,0,0,1-.15-.37.52.52,0,0,1,.15-.38.51.51,0,0,1,.37-.15.5.5,0,0,1,.37.15.49.49,0,0,1,.16.38.46.46,0,0,1-.16.36A.5.5,0,0,1,125.15,152.64Zm.39,6.27h-.8v-5h.8Z"/><path class="cls-6" d="M129.25,159a2.31,2.31,0,0,1-1.77-.7,2.61,2.61,0,0,1-.66-1.86,2.72,2.72,0,0,1,.69-2,2.48,2.48,0,0,1,1.86-.7,2.27,2.27,0,0,1,1.74.68,2.73,2.73,0,0,1,.63,1.91,2.7,2.7,0,0,1-.68,1.92A2.36,2.36,0,0,1,129.25,159Zm.06-4.56a1.49,1.49,0,0,0-1.22.53,2.14,2.14,0,0,0-.45,1.44,2,2,0,0,0,.45,1.4,1.54,1.54,0,0,0,1.22.52,1.45,1.45,0,0,0,1.19-.51,2.16,2.16,0,0,0,.42-1.43,2.21,2.21,0,0,0-.42-1.44A1.45,1.45,0,0,0,129.31,154.47Z"/><path class="cls-6" d="M137.17,158.91h-.8v-2.85c0-1.06-.39-1.59-1.16-1.59a1.29,1.29,0,0,0-1,.45,1.68,1.68,0,0,0-.39,1.14v2.85H133v-5h.8v.83h0a1.8,1.8,0,0,1,1.64-.94,1.52,1.52,0,0,1,1.26.53,2.34,2.34,0,0,1,.43,1.53Z"/><path class="cls-6" d="M138.38,158.73v-.86a2.3,2.3,0,0,0,1.44.49c.7,0,1.05-.24,1.05-.71a.64.64,0,0,0-.09-.34.91.91,0,0,0-.24-.24,3.07,3.07,0,0,0-.36-.2l-.45-.17a5.37,5.37,0,0,1-.58-.27,1.74,1.74,0,0,1-.42-.3,1,1,0,0,1-.26-.39,1.28,1.28,0,0,1-.08-.5,1.17,1.17,0,0,1,.16-.62,1.44,1.44,0,0,1,.43-.46,2,2,0,0,1,.61-.27,2.82,2.82,0,0,1,.71-.09,2.86,2.86,0,0,1,1.16.22v.81a2.27,2.27,0,0,0-1.27-.36,1.62,1.62,0,0,0-.4.05.9.9,0,0,0-.31.15.6.6,0,0,0-.27.5.67.67,0,0,0,.07.33.55.55,0,0,0,.2.23,1.58,1.58,0,0,0,.34.19l.44.18c.22.09.42.17.6.26a2.52,2.52,0,0,1,.45.3,1.48,1.48,0,0,1,.28.39,1.4,1.4,0,0,1-.06,1.17,1.45,1.45,0,0,1-.44.45,2,2,0,0,1-.63.27,3.08,3.08,0,0,1-.75.09A2.78,2.78,0,0,1,138.38,158.73Z"/><path class="cls-6" d="M149.93,161.21h-.8v-3.16h0a1.8,1.8,0,0,1-1.71,1,1.87,1.87,0,0,1-1.51-.67,2.75,2.75,0,0,1-.57-1.83,3,3,0,0,1,.62-2,2.08,2.08,0,0,1,1.68-.74,1.58,1.58,0,0,1,1.49.81h0v-.7h.8Zm-.8-4.55v-.73a1.5,1.5,0,0,0-.4-1,1.48,1.48,0,0,0-2.17.11,2.4,2.4,0,0,0-.42,1.51,2.08,2.08,0,0,0,.4,1.36,1.33,1.33,0,0,0,1.05.49,1.41,1.41,0,0,0,1.12-.48A1.79,1.79,0,0,0,149.13,156.66Z"/><path class="cls-6" d="M155.59,158.91h-.8v-.79h0a1.63,1.63,0,0,1-1.54.91c-1.19,0-1.79-.71-1.79-2.13v-3h.8v2.86c0,1.06.4,1.59,1.21,1.59a1.21,1.21,0,0,0,1-.44,1.6,1.6,0,0,0,.38-1.13v-2.88h.8Z"/><path class="cls-6" d="M157.9,151.91v2.18h-.71v-2.18Z"/><path class="cls-6" d="M163.55,158.91h-.8v-.79h0a1.64,1.64,0,0,1-1.54.91c-1.19,0-1.79-.71-1.79-2.13v-3h.8v2.86c0,1.06.4,1.59,1.21,1.59a1.21,1.21,0,0,0,1-.44,1.64,1.64,0,0,0,.38-1.13v-2.88h.8Z"/><path class="cls-6" d="M169.32,158.91h-.8v-2.85c0-1.06-.39-1.59-1.16-1.59a1.26,1.26,0,0,0-1,.45,1.68,1.68,0,0,0-.39,1.14v2.85h-.8v-5h.8v.83h0a1.8,1.8,0,0,1,1.64-.94,1.5,1.5,0,0,1,1.25.53,2.35,2.35,0,0,1,.44,1.53Z"/><path class="cls-6" d="M177.15,158.91h-.81v-.78h0a1.82,1.82,0,0,1-2.7.51,1.39,1.39,0,0,1-.42-1c0-.94.54-1.48,1.65-1.64l1.49-.21c0-.85-.34-1.27-1-1.27a2.48,2.48,0,0,0-1.63.62v-.82a3,3,0,0,1,1.7-.47q1.77,0,1.77,1.86Zm-.81-2.53-1.2.17a1.84,1.84,0,0,0-.84.28.78.78,0,0,0-.28.7.73.73,0,0,0,.26.59,1,1,0,0,0,.69.24,1.29,1.29,0,0,0,1-.42,1.53,1.53,0,0,0,.38-1.06Z"/><path class="cls-6" d="M181.26,154.72a1,1,0,0,0-.6-.16,1,1,0,0,0-.86.49,2.21,2.21,0,0,0-.35,1.31v2.55h-.8v-5h.8v1h0a1.77,1.77,0,0,1,.53-.82,1.15,1.15,0,0,1,.78-.29,1.48,1.48,0,0,1,.48.06Z"/><path class="cls-6" d="M184.45,158.86a1.49,1.49,0,0,1-.75.16c-.87,0-1.31-.49-1.31-1.46v-3h-.86v-.69h.86v-1.22l.8-.26v1.48h1.26v.69h-1.26v2.81a1.19,1.19,0,0,0,.17.72.67.67,0,0,0,.57.22.85.85,0,0,0,.52-.17Z"/><path class="cls-6" d="M185.93,152.64a.5.5,0,0,1-.37-.14.5.5,0,0,1-.15-.37.52.52,0,0,1,.15-.38.51.51,0,0,1,.37-.15.5.5,0,0,1,.37.15.49.49,0,0,1,.16.38.46.46,0,0,1-.16.36A.5.5,0,0,1,185.93,152.64Zm.39,6.27h-.8v-5h.8Z"/><path class="cls-6" d="M191.35,158.68A2.61,2.61,0,0,1,190,159a2.22,2.22,0,0,1-1.72-.7,2.5,2.5,0,0,1-.66-1.8,2.78,2.78,0,0,1,.71-2,2.47,2.47,0,0,1,1.89-.75,2.67,2.67,0,0,1,1.16.24v.82a2,2,0,0,0-1.19-.39,1.61,1.61,0,0,0-1.26.55,2.08,2.08,0,0,0-.49,1.44,2,2,0,0,0,.46,1.39,1.59,1.59,0,0,0,1.24.51,2,2,0,0,0,1.23-.44Z"/><path class="cls-6" d="M193.36,158.91h-.8v-7.4h.8Z"/><path class="cls-6" d="M199,156.61h-3.53a1.83,1.83,0,0,0,.45,1.29,1.53,1.53,0,0,0,1.18.46,2.46,2.46,0,0,0,1.55-.56v.75a2.89,2.89,0,0,1-1.74.48,2.1,2.1,0,0,1-1.66-.68,3.19,3.19,0,0,1,.05-3.82,2.12,2.12,0,0,1,1.65-.73,1.86,1.86,0,0,1,1.51.63,2.63,2.63,0,0,1,.54,1.76Zm-.82-.68a1.57,1.57,0,0,0-.33-1.07,1.14,1.14,0,0,0-.92-.39,1.28,1.28,0,0,0-1,.41,1.78,1.78,0,0,0-.49,1.05Z"/><path class="cls-6" d="M71.85,170.19h0v3H71v-7.3h.8v.88h0a1.9,1.9,0,0,1,1.73-1,1.82,1.82,0,0,1,1.51.67,2.8,2.8,0,0,1,.54,1.8,3.11,3.11,0,0,1-.61,2,2,2,0,0,1-1.67.75A1.67,1.67,0,0,1,71.85,170.19Zm0-2v.7a1.46,1.46,0,0,0,.41,1,1.31,1.31,0,0,0,1,.44,1.36,1.36,0,0,0,1.14-.56,2.6,2.6,0,0,0,.41-1.55,2.08,2.08,0,0,0-.38-1.31,1.3,1.3,0,0,0-1.05-.47,1.4,1.4,0,0,0-1.12.49A1.74,1.74,0,0,0,71.83,168.17Z"/><path class="cls-6" d="M81,170.91h-.8v-.79h0a1.63,1.63,0,0,1-1.54.91c-1.19,0-1.79-.71-1.79-2.13v-3h.8v2.86c0,1.06.4,1.59,1.21,1.59a1.21,1.21,0,0,0,1-.44,1.6,1.6,0,0,0,.38-1.13v-2.88H81Z"/><path class="cls-6" d="M83.39,170.19h0v.72h-.8v-7.4h.8v3.28h0a1.89,1.89,0,0,1,1.73-1,1.84,1.84,0,0,1,1.51.67,2.8,2.8,0,0,1,.54,1.8,3.11,3.11,0,0,1-.61,2,2,2,0,0,1-1.67.75A1.65,1.65,0,0,1,83.39,170.19Zm0-2v.7a1.49,1.49,0,0,0,.4,1,1.43,1.43,0,0,0,2.17-.12,2.6,2.6,0,0,0,.41-1.55,2,2,0,0,0-.39-1.31,1.27,1.27,0,0,0-1-.47,1.39,1.39,0,0,0-1.12.49A1.74,1.74,0,0,0,83.37,168.17Z"/><path class="cls-6" d="M89.25,170.91h-.8v-7.4h.8Z"/><path class="cls-6" d="M91.28,164.64a.52.52,0,0,1-.37-.14.5.5,0,0,1-.15-.37.52.52,0,0,1,.15-.38.53.53,0,0,1,.37-.15.5.5,0,0,1,.37.15.49.49,0,0,1,.16.38.46.46,0,0,1-.16.36A.5.5,0,0,1,91.28,164.64Zm.39,6.27h-.8v-5h.8Z"/><path class="cls-6" d="M97.31,168.61H93.78a1.83,1.83,0,0,0,.45,1.29,1.53,1.53,0,0,0,1.18.46A2.46,2.46,0,0,0,97,169.8v.75a2.87,2.87,0,0,1-1.74.48,2.1,2.1,0,0,1-1.66-.68,3.19,3.19,0,0,1,0-3.82,2.12,2.12,0,0,1,1.65-.73,1.86,1.86,0,0,1,1.51.63,2.63,2.63,0,0,1,.54,1.76Zm-.82-.68a1.57,1.57,0,0,0-.33-1.07,1.14,1.14,0,0,0-.92-.39,1.28,1.28,0,0,0-1,.41,1.84,1.84,0,0,0-.49,1.05Zm-.13-4.57L95.08,165h-.62l1.09-1.61Z"/><path class="cls-6" d="M105.53,170.91h-.8v-.85h0a1.85,1.85,0,0,1-1.72,1,1.87,1.87,0,0,1-1.51-.67,2.8,2.8,0,0,1-.56-1.83,3,3,0,0,1,.62-2,2.1,2.1,0,0,1,1.67-.74,1.6,1.6,0,0,1,1.5.81h0v-3.1h.8Zm-.8-2.26v-.73a1.46,1.46,0,0,0-.4-1,1.36,1.36,0,0,0-1-.42,1.37,1.37,0,0,0-1.15.54,2.35,2.35,0,0,0-.42,1.48,2.13,2.13,0,0,0,.4,1.37,1.33,1.33,0,0,0,1.08.5,1.35,1.35,0,0,0,1.09-.49A1.79,1.79,0,0,0,104.73,168.65Z"/><path class="cls-6" d="M110.73,170.91h-.8v-.78h0a1.68,1.68,0,0,1-1.54.9,1.65,1.65,0,0,1-1.17-.39,1.39,1.39,0,0,1-.42-1c0-.94.55-1.48,1.65-1.64l1.5-.21c0-.85-.34-1.27-1-1.27a2.46,2.46,0,0,0-1.63.62v-.82a3,3,0,0,1,1.7-.47c1.17,0,1.76.62,1.76,1.86Zm-.8-2.53-1.21.17a1.84,1.84,0,0,0-.84.28.78.78,0,0,0-.28.7.76.76,0,0,0,.26.59,1,1,0,0,0,.7.24,1.29,1.29,0,0,0,1-.42,1.49,1.49,0,0,0,.39-1.06Z"/><path class="cls-6" d="M116.39,170.91h-.8v-2.85c0-1.06-.39-1.59-1.16-1.59a1.27,1.27,0,0,0-1,.45,1.68,1.68,0,0,0-.39,1.14v2.85h-.8v-5h.8v.83h0a1.8,1.8,0,0,1,1.64-.94,1.5,1.5,0,0,1,1.25.53,2.35,2.35,0,0,1,.44,1.53Z"/><path class="cls-6" d="M117.59,170.73v-.86a2.35,2.35,0,0,0,1.45.49c.7,0,1-.24,1-.71a.64.64,0,0,0-.09-.34.91.91,0,0,0-.24-.24,2.56,2.56,0,0,0-.37-.2l-.44-.17c-.22-.09-.42-.18-.59-.27a2.25,2.25,0,0,1-.42-.3,1.14,1.14,0,0,1-.25-.39,1.28,1.28,0,0,1-.09-.5,1.18,1.18,0,0,1,.17-.62,1.44,1.44,0,0,1,.43-.46,1.89,1.89,0,0,1,.61-.27,2.76,2.76,0,0,1,.71-.09,2.86,2.86,0,0,1,1.16.22v.81a2.27,2.27,0,0,0-1.27-.36,1.62,1.62,0,0,0-.4.05.9.9,0,0,0-.31.15.6.6,0,0,0-.27.5.67.67,0,0,0,.07.33.55.55,0,0,0,.2.23,1.37,1.37,0,0,0,.34.19l.44.18c.22.09.42.17.6.26a2.12,2.12,0,0,1,.44.3,1.32,1.32,0,0,1,.29.39,1.4,1.4,0,0,1-.06,1.17,1.45,1.45,0,0,1-.44.45,2,2,0,0,1-.63.27,3.08,3.08,0,0,1-.75.09A2.85,2.85,0,0,1,117.59,170.73Z"/><path class="cls-6" d="M128.92,170.91h-.8v-.79h0a1.63,1.63,0,0,1-1.54.91c-1.19,0-1.79-.71-1.79-2.13v-3h.8v2.86c0,1.06.4,1.59,1.21,1.59a1.21,1.21,0,0,0,1-.44,1.6,1.6,0,0,0,.38-1.13v-2.88h.8Z"/><path class="cls-6" d="M134.69,170.91h-.8v-2.85c0-1.06-.39-1.59-1.16-1.59a1.29,1.29,0,0,0-1,.45,1.68,1.68,0,0,0-.39,1.14v2.85h-.8v-5h.8v.83h0a1.8,1.8,0,0,1,1.64-.94,1.52,1.52,0,0,1,1.26.53,2.34,2.34,0,0,1,.43,1.53Z"/><path class="cls-6" d="M140.22,168.61h-3.53a1.83,1.83,0,0,0,.45,1.29,1.52,1.52,0,0,0,1.18.46,2.46,2.46,0,0,0,1.55-.56v.75a2.89,2.89,0,0,1-1.74.48,2.14,2.14,0,0,1-1.67-.68,2.8,2.8,0,0,1-.6-1.92,2.75,2.75,0,0,1,.66-1.9,2.12,2.12,0,0,1,1.64-.73,1.88,1.88,0,0,1,1.52.63,2.63,2.63,0,0,1,.54,1.76Zm-.82-.68a1.63,1.63,0,0,0-.34-1.07,1.12,1.12,0,0,0-.91-.39,1.32,1.32,0,0,0-1,.41,1.83,1.83,0,0,0-.48,1.05Z"/><path class="cls-6" d="M146.77,166.72a1.07,1.07,0,0,0-1.46.33,2.21,2.21,0,0,0-.34,1.31v2.55h-.8v-5h.8v1h0a1.76,1.76,0,0,1,.52-.82,1.17,1.17,0,0,1,.79-.29,1.45,1.45,0,0,1,.47.06Z"/><path class="cls-6" d="M151.66,168.61h-3.53a1.83,1.83,0,0,0,.45,1.29,1.53,1.53,0,0,0,1.18.46,2.49,2.49,0,0,0,1.56-.56v.75a2.92,2.92,0,0,1-1.75.48,2.12,2.12,0,0,1-1.66-.68,3.19,3.19,0,0,1,.05-3.82,2.12,2.12,0,0,1,1.65-.73,1.86,1.86,0,0,1,1.51.63,2.63,2.63,0,0,1,.54,1.76Zm-.82-.68a1.57,1.57,0,0,0-.33-1.07,1.14,1.14,0,0,0-.92-.39,1.28,1.28,0,0,0-1,.41,1.84,1.84,0,0,0-.49,1.05Z"/><path class="cls-6" d="M156.8,165.91l-2,5H154l-1.9-5H153l1.27,3.64a3.27,3.27,0,0,1,.17.69h0a3.88,3.88,0,0,1,.16-.67l1.33-3.66Z"/><path class="cls-6" d="M161.71,170.91h-.8v-.79h0a1.65,1.65,0,0,1-1.55.91c-1.19,0-1.78-.71-1.78-2.13v-3h.79v2.86c0,1.06.4,1.59,1.21,1.59a1.25,1.25,0,0,0,1-.44,1.64,1.64,0,0,0,.38-1.13v-2.88h.8Z"/><path class="cls-6" d="M167.34,168.61h-3.53a1.83,1.83,0,0,0,.45,1.29,1.53,1.53,0,0,0,1.18.46,2.46,2.46,0,0,0,1.55-.56v.75a2.89,2.89,0,0,1-1.74.48,2.1,2.1,0,0,1-1.66-.68,3.19,3.19,0,0,1,0-3.82,2.12,2.12,0,0,1,1.64-.73,1.87,1.87,0,0,1,1.52.63,2.63,2.63,0,0,1,.54,1.76Zm-.82-.68a1.57,1.57,0,0,0-.33-1.07,1.14,1.14,0,0,0-.92-.39,1.28,1.28,0,0,0-1,.41,1.78,1.78,0,0,0-.49,1.05Z"/><path class="cls-6" d="M173.61,170.86a1.49,1.49,0,0,1-.75.16c-.87,0-1.31-.49-1.31-1.46v-3h-.86v-.69h.86v-1.22l.8-.26v1.48h1.26v.69h-1.26v2.81a1.19,1.19,0,0,0,.17.72.67.67,0,0,0,.57.22.85.85,0,0,0,.52-.17Z"/><path class="cls-6" d="M177.29,166.72a1,1,0,0,0-.61-.16,1,1,0,0,0-.86.49,2.29,2.29,0,0,0-.34,1.31v2.55h-.8v-5h.8v1h0a1.76,1.76,0,0,1,.52-.82,1.19,1.19,0,0,1,.79-.29,1.48,1.48,0,0,1,.48.06Z"/><path class="cls-6" d="M181.74,170.91h-.81v-.78h0a1.82,1.82,0,0,1-2.7.51,1.4,1.4,0,0,1-.43-1c0-.94.55-1.48,1.66-1.64l1.49-.21c0-.85-.34-1.27-1-1.27a2.48,2.48,0,0,0-1.63.62v-.82a3,3,0,0,1,1.7-.47q1.77,0,1.77,1.86Zm-.81-2.53-1.2.17a1.84,1.84,0,0,0-.84.28.78.78,0,0,0-.28.7.73.73,0,0,0,.26.59,1,1,0,0,0,.69.24,1.29,1.29,0,0,0,1-.42,1.53,1.53,0,0,0,.38-1.06Z"/><path class="cls-6" d="M187.51,170.91h-.8v-.85h0a2,2,0,0,1-3.22.3,2.75,2.75,0,0,1-.57-1.83,3,3,0,0,1,.63-2,2.07,2.07,0,0,1,1.66-.74,1.6,1.6,0,0,1,1.5.81h0v-3.1h.8Zm-.8-2.26v-.73a1.42,1.42,0,0,0-.4-1,1.36,1.36,0,0,0-1-.42,1.39,1.39,0,0,0-1.15.54,2.35,2.35,0,0,0-.42,1.48,2.19,2.19,0,0,0,.4,1.37,1.44,1.44,0,0,0,2.17,0A1.79,1.79,0,0,0,186.71,168.65Z"/><path class="cls-6" d="M189.54,164.64a.48.48,0,0,1-.36-.14.5.5,0,0,1-.15-.37.52.52,0,0,1,.15-.38.49.49,0,0,1,.36-.15.54.54,0,0,1,.38.15.52.52,0,0,1,.15.38.49.49,0,0,1-.15.36A.54.54,0,0,1,189.54,164.64Zm.39,6.27h-.8v-5h.8Z"/><path class="cls-6" d="M193.87,170.86a1.43,1.43,0,0,1-.74.16c-.88,0-1.32-.49-1.32-1.46v-3H191v-.69h.86v-1.22l.8-.26v1.48h1.26v.69h-1.26v2.81a1.19,1.19,0,0,0,.17.72.68.68,0,0,0,.57.22.83.83,0,0,0,.52-.17Z"/><path class="cls-6" d="M195.35,164.64a.48.48,0,0,1-.36-.14.5.5,0,0,1-.15-.37.52.52,0,0,1,.15-.38.49.49,0,0,1,.36-.15.54.54,0,0,1,.38.15.52.52,0,0,1,.15.38.49.49,0,0,1-.15.36A.54.54,0,0,1,195.35,164.64Zm.39,6.27h-.8v-5h.8Z"/><path class="cls-6" d="M199.45,171a2.3,2.3,0,0,1-1.76-.7,2.57,2.57,0,0,1-.67-1.86,2.72,2.72,0,0,1,.69-2,2.48,2.48,0,0,1,1.86-.7,2.27,2.27,0,0,1,1.75.68,2.73,2.73,0,0,1,.63,1.91,2.7,2.7,0,0,1-.68,1.92A2.38,2.38,0,0,1,199.45,171Zm.06-4.56a1.5,1.5,0,0,0-1.22.53,2.14,2.14,0,0,0-.45,1.44,2,2,0,0,0,.46,1.4,1.52,1.52,0,0,0,1.21.52,1.47,1.47,0,0,0,1.2-.51,2.16,2.16,0,0,0,.41-1.43,2.21,2.21,0,0,0-.41-1.44A1.47,1.47,0,0,0,199.51,166.47Z"/><path class="cls-6" d="M207.37,170.91h-.8v-2.85c0-1.06-.38-1.59-1.16-1.59a1.25,1.25,0,0,0-1,.45,1.68,1.68,0,0,0-.39,1.14v2.85h-.81v-5H204v.83h0a1.81,1.81,0,0,1,1.65-.94,1.51,1.51,0,0,1,1.25.53,2.34,2.34,0,0,1,.43,1.53Z"/><path class="cls-6" d="M211.44,168.44h-2.66v-.63h2.66Z"/><path class="cls-6" d="M75.18,182.91h-.8v-2.85c0-1.06-.39-1.59-1.16-1.59a1.25,1.25,0,0,0-1,.45,1.64,1.64,0,0,0-.4,1.14v2.85H71v-5h.8v.83h0a1.81,1.81,0,0,1,1.64-.94,1.52,1.52,0,0,1,1.26.53,2.34,2.34,0,0,1,.43,1.53Z"/><path class="cls-6" d="M80.71,180.61H77.18a1.83,1.83,0,0,0,.45,1.29,1.53,1.53,0,0,0,1.18.46,2.46,2.46,0,0,0,1.55-.56v.75a2.89,2.89,0,0,1-1.74.48,2.14,2.14,0,0,1-1.67-.68,2.8,2.8,0,0,1-.6-1.92,2.75,2.75,0,0,1,.66-1.9,2.12,2.12,0,0,1,1.64-.73,1.88,1.88,0,0,1,1.52.63,2.63,2.63,0,0,1,.54,1.76Zm-.82-.68a1.58,1.58,0,0,0-.34-1.07,1.11,1.11,0,0,0-.91-.39,1.28,1.28,0,0,0-1,.41,1.78,1.78,0,0,0-.49,1.05Z"/><path class="cls-6" d="M82.72,182.91h-.8v-7.4h.8Z"/><path class="cls-6" d="M85.14,182.91h-.8v-7.4h.8Z"/><path class="cls-6" d="M90.78,180.61H87.25a1.93,1.93,0,0,0,.45,1.29,1.53,1.53,0,0,0,1.18.46,2.49,2.49,0,0,0,1.56-.56v.75a2.9,2.9,0,0,1-1.75.48,2.12,2.12,0,0,1-1.66-.68,3.19,3.19,0,0,1,0-3.82,2.14,2.14,0,0,1,1.65-.73,1.9,1.9,0,0,1,1.52.63,2.68,2.68,0,0,1,.53,1.76Zm-.82-.68a1.57,1.57,0,0,0-.33-1.07,1.14,1.14,0,0,0-.92-.39,1.3,1.3,0,0,0-1,.41,1.84,1.84,0,0,0-.49,1.05Z"/><path class="cls-6" d="M92.27,183a.49.49,0,0,1-.38-.16.53.53,0,0,1-.16-.39.49.49,0,0,1,.16-.38.5.5,0,0,1,.38-.17.51.51,0,0,1,.39.17.49.49,0,0,1,.16.38.53.53,0,0,1-.16.39A.5.5,0,0,1,92.27,183Z"/><path class="cls-6" d="M76.16,218.91h-1L74,217a5.49,5.49,0,0,0-.31-.47,2.27,2.27,0,0,0-.31-.31,1.24,1.24,0,0,0-.34-.18,1.37,1.37,0,0,0-.42-.06H72v3h-.82v-7h2.09a2.86,2.86,0,0,1,.85.12,1.72,1.72,0,0,1,.67.35,1.62,1.62,0,0,1,.45.58,2,2,0,0,1,.16.82,2.09,2.09,0,0,1-.11.67,1.81,1.81,0,0,1-.31.54,1.94,1.94,0,0,1-.49.41,2.6,2.6,0,0,1-.64.26v0a1.49,1.49,0,0,1,.3.18,1.88,1.88,0,0,1,.25.24,2.78,2.78,0,0,1,.23.31c.08.11.16.25.26.4ZM72,212.65v2.54h1.11a1.7,1.7,0,0,0,.57-.09,1.13,1.13,0,0,0,.45-.27,1.08,1.08,0,0,0,.3-.42,1.47,1.47,0,0,0,.11-.56,1.1,1.1,0,0,0-.36-.88,1.6,1.6,0,0,0-1.06-.32Z"/><path class="cls-6" d="M80.74,216.61H77.21a1.83,1.83,0,0,0,.45,1.29,1.52,1.52,0,0,0,1.18.46,2.46,2.46,0,0,0,1.55-.56v.75a2.89,2.89,0,0,1-1.74.48,2.14,2.14,0,0,1-1.67-.68,2.8,2.8,0,0,1-.6-1.92,2.75,2.75,0,0,1,.66-1.9,2.12,2.12,0,0,1,1.64-.73,1.88,1.88,0,0,1,1.52.63,2.63,2.63,0,0,1,.54,1.76Zm-.82-.68a1.58,1.58,0,0,0-.34-1.07,1.12,1.12,0,0,0-.91-.39,1.28,1.28,0,0,0-1,.41,1.78,1.78,0,0,0-.49,1.05Zm-.13-4.57L78.51,213h-.62L79,211.36Z"/><path class="cls-6" d="M82.77,218.19h0v3H82v-7.3h.8v.88h0a1.89,1.89,0,0,1,1.73-1,1.83,1.83,0,0,1,1.51.67,2.8,2.8,0,0,1,.54,1.8,3.11,3.11,0,0,1-.61,2,2,2,0,0,1-1.67.75A1.67,1.67,0,0,1,82.77,218.19Zm0-2v.7a1.53,1.53,0,0,0,.4,1.06,1.37,1.37,0,0,0,1,.43,1.36,1.36,0,0,0,1.14-.56,2.6,2.6,0,0,0,.41-1.55,2,2,0,0,0-.39-1.31,1.27,1.27,0,0,0-1-.47,1.39,1.39,0,0,0-1.12.49A1.74,1.74,0,0,0,82.75,216.17Z"/><path class="cls-6" d="M89.92,219a2.31,2.31,0,0,1-1.77-.7,2.61,2.61,0,0,1-.66-1.86,2.72,2.72,0,0,1,.69-2,2.45,2.45,0,0,1,1.86-.7,2.27,2.27,0,0,1,1.74.68,2.73,2.73,0,0,1,.63,1.91,2.7,2.7,0,0,1-.68,1.92A2.36,2.36,0,0,1,89.92,219Zm.06-4.56a1.49,1.49,0,0,0-1.22.53,2.14,2.14,0,0,0-.45,1.44,2,2,0,0,0,.45,1.4,1.52,1.52,0,0,0,1.22.52,1.46,1.46,0,0,0,1.19-.51,2.16,2.16,0,0,0,.42-1.43,2.21,2.21,0,0,0-.42-1.44A1.46,1.46,0,0,0,90,214.47Z"/><path class="cls-6" d="M97.84,218.91H97v-2.85c0-1.06-.39-1.59-1.16-1.59a1.27,1.27,0,0,0-1,.45,1.68,1.68,0,0,0-.39,1.14v2.85h-.8v-5h.8v.83h0a1.8,1.8,0,0,1,1.64-.94,1.5,1.5,0,0,1,1.25.53,2.35,2.35,0,0,1,.44,1.53Z"/><path class="cls-6" d="M99,218.73v-.86a2.35,2.35,0,0,0,1.45.49c.7,0,1.05-.24,1.05-.71a.64.64,0,0,0-.09-.34.91.91,0,0,0-.24-.24,1.84,1.84,0,0,0-.37-.19l-.44-.18c-.22-.09-.42-.18-.59-.27a2.25,2.25,0,0,1-.42-.3,1.14,1.14,0,0,1-.25-.39,1.28,1.28,0,0,1-.09-.5,1.18,1.18,0,0,1,.17-.62,1.32,1.32,0,0,1,.43-.45,1.71,1.71,0,0,1,.61-.28,2.76,2.76,0,0,1,.71-.09,2.86,2.86,0,0,1,1.16.22v.81a2.27,2.27,0,0,0-1.27-.36,1.62,1.62,0,0,0-.4.05.9.9,0,0,0-.31.15.53.53,0,0,0-.2.22.54.54,0,0,0-.08.28.67.67,0,0,0,.08.33.55.55,0,0,0,.2.23,1.21,1.21,0,0,0,.34.19l.44.18c.22.09.42.17.6.26a1.82,1.82,0,0,1,.44.31,1.17,1.17,0,0,1,.29.38,1.4,1.4,0,0,1-.06,1.17,1.45,1.45,0,0,1-.44.45,1.79,1.79,0,0,1-.63.27,3.08,3.08,0,0,1-.75.09A2.85,2.85,0,0,1,99,218.73Z"/><path class="cls-6" d="M107.61,216.61h-3.53a1.83,1.83,0,0,0,.45,1.29,1.52,1.52,0,0,0,1.18.46,2.46,2.46,0,0,0,1.55-.56v.75a2.89,2.89,0,0,1-1.74.48,2.14,2.14,0,0,1-1.67-.68,2.8,2.8,0,0,1-.6-1.92,2.75,2.75,0,0,1,.66-1.9,2.12,2.12,0,0,1,1.64-.73,1.88,1.88,0,0,1,1.52.63,2.63,2.63,0,0,1,.54,1.76Zm-.82-.68a1.58,1.58,0,0,0-.34-1.07,1.12,1.12,0,0,0-.91-.39,1.28,1.28,0,0,0-1,.41,1.78,1.78,0,0,0-.49,1.05Z"/><path class="cls-6" d="M111.84,214.89a.53.53,0,0,1-.39-.16.56.56,0,0,1-.15-.39.54.54,0,0,1,.15-.38.58.58,0,0,1,.78,0,.51.51,0,0,1,.16.38.55.55,0,0,1-.55.55Zm0,4.13a.53.53,0,0,1-.39-.16.56.56,0,0,1-.15-.39.52.52,0,0,1,.15-.38.53.53,0,0,1,.78,0,.49.49,0,0,1,.16.38.55.55,0,0,1-.55.55Z"/><path class="cls-6" d="M121.78,211.91l-2.59,7h-.91l-2.54-7h.92l1.93,5.55a3.31,3.31,0,0,1,.15.62h0a2.91,2.91,0,0,1,.16-.63l2-5.54Z"/><path class="cls-6" d="M124.91,214.72a1.07,1.07,0,0,0-1.46.33,2.21,2.21,0,0,0-.34,1.31v2.55h-.8v-5h.8v1h0a1.69,1.69,0,0,1,.52-.82,1.15,1.15,0,0,1,.78-.29,1.48,1.48,0,0,1,.48.06Z"/><path class="cls-6" d="M129.36,218.91h-.8v-.78h0a1.83,1.83,0,0,1-2.71.51,1.39,1.39,0,0,1-.42-1c0-.94.55-1.48,1.65-1.64l1.5-.21c0-.85-.34-1.27-1-1.27a2.48,2.48,0,0,0-1.63.62v-.82a3,3,0,0,1,1.7-.47c1.17,0,1.76.62,1.76,1.86Zm-.8-2.53-1.21.17a1.84,1.84,0,0,0-.84.28.81.81,0,0,0-.28.7.79.79,0,0,0,.26.6,1.05,1.05,0,0,0,.7.23,1.27,1.27,0,0,0,1-.42,1.49,1.49,0,0,0,.39-1.06Z"/><path class="cls-6" d="M131.28,212.64a.5.5,0,0,1-.37-.14.5.5,0,0,1-.15-.37.52.52,0,0,1,.15-.38.51.51,0,0,1,.37-.15.5.5,0,0,1,.37.15.49.49,0,0,1,.16.38.46.46,0,0,1-.16.36A.5.5,0,0,1,131.28,212.64Zm.39,6.27h-.8v-5h.8Z"/><text class="cls-7" transform="translate(114.32 116.06)"><tspan class="cls-8">V</tspan><tspan x="7.58" y="0">rai/</tspan><tspan class="cls-9" x="27.54" y="0">F</tspan><tspan x="33.43" y="0">aux</tspan></text><line class="cls-10" x1="54" x2="54" y2="36"/><line class="cls-10" y1="54" x2="36" y2="54"/><line class="cls-10" y1="307.96" x2="36" y2="307.96"/><line class="cls-10" x1="54" y1="361.96" x2="54" y2="325.96"/><line class="cls-10" x1="236.83" x2="236.83" y2="36"/><line class="cls-10" x1="290.83" y1="54" x2="254.83" y2="54"/><line class="cls-10" x1="290.83" y1="307.96" x2="254.83" y2="307.96"/><line class="cls-10" x1="236.83" y1="361.96" x2="236.83" y2="325.96"/></svg>