<svg id="Calque_1" data-name="Calque 1" xmlns="http://www.w3.org/2000/svg" viewBox="0 0 290.83 361.96"><defs><style>.cls-1,.cls-8{fill:#f9b233;}.cls-2,.cls-3,.cls-4{fill:#fff;}.cls-3{stroke:#fff;stroke-miterlimit:10;stroke-width:0.25px;}.cls-4{font-size:19.62px;font-family:TwCenMT-CondensedExtraBold, Tw Cen MT Condensed Extra Bold;font-weight:800;}.cls-5{opacity:0.4;}.cls-6{font-size:10px;fill:#000100;font-family:SegoeUI, Segoe UI;}.cls-7{letter-spacing:-0.06em;}.cls-8{font-size:12px;font-family:SegoeUI-Bold, Segoe UI;font-weight:700;}.cls-9{fill:none;stroke:#000;stroke-width:0.3px;}</style></defs><title>Carte_jaune_12</title><path class="cls-1" d="M65.52,39.25H225.31a22.09,22.09,0,0,1,22.14,22.14V300.57a22.1,22.1,0,0,1-22.14,22.14H65.52a22.1,22.1,0,0,1-22.14-22.14V61.39A22.09,22.09,0,0,1,65.52,39.25Z"/><path class="cls-2" d="M77.4,94.37h136a17,17,0,0,1,17,17V278.58a17,17,0,0,1-17,17.05H77.4a17,17,0,0,1-17-17.05V111.42A17,17,0,0,1,77.4,94.37Z"/><path class="cls-3" d="M179.11,64.13l-6.41.05a.76.76,0,0,0-.55.23.82.82,0,0,0-.22.55.75.75,0,0,0,.23.55.77.77,0,0,0,.47.22l.1,13.29a3.29,3.29,0,0,0,6.58,0l-.1-13.29a.76.76,0,0,0,.68-.78.77.77,0,0,0-.78-.77Zm.26.78a.24.24,0,0,1-.07.18.27.27,0,0,1-.18.08h-.24l-3.92,0a.26.26,0,0,0-.26.26.26.26,0,0,0,.26.26l3.73,0,.1,13.28a2.79,2.79,0,0,1-.8,2A2.77,2.77,0,0,1,173.25,79l-.1-13.28h.78a.25.25,0,0,0,.25-.26.26.26,0,0,0-.26-.26h-1.21a.27.27,0,0,1-.26-.26.29.29,0,0,1,.07-.18.27.27,0,0,1,.19-.08l6.4,0a.26.26,0,0,1,.26.26Z"/><path class="cls-3" d="M178,72a1,1,0,0,0-.65.23.5.5,0,0,1-.35.13.54.54,0,0,1-.35-.13A1,1,0,0,0,176,72a1,1,0,0,0-.64.22.5.5,0,0,1-.35.13.51.51,0,0,1-.35-.12A1,1,0,0,0,174,72a.27.27,0,0,0-.18.08.26.26,0,0,0-.07.19l0,2.83a.26.26,0,0,0,.26.26.27.27,0,0,0,.26-.27l0-2.5a.24.24,0,0,1,.09.06,1.05,1.05,0,0,0,.65.21,1,1,0,0,0,.64-.22.5.5,0,0,1,.35-.13.5.5,0,0,1,.35.12,1,1,0,0,0,.65.22,1,1,0,0,0,.64-.23l.09-.06.05,6.38a1.72,1.72,0,0,1-.5,1.23,1.69,1.69,0,0,1-1.22.51A1.72,1.72,0,0,1,174.29,79l0-2.83a.27.27,0,0,0-.27-.26.26.26,0,0,0-.25.27l0,2.83A2.24,2.24,0,0,0,176,81.24a2.2,2.2,0,0,0,1.59-.67,2.26,2.26,0,0,0,.65-1.6l-.05-6.68A.27.27,0,0,0,178,72Z"/><path class="cls-3" d="M176.67,67.78a.26.26,0,0,0,.26.26.26.26,0,0,1,.26.26.24.24,0,0,1-.07.18.27.27,0,0,1-.19.08.26.26,0,0,1-.26-.26.26.26,0,1,0-.52,0,.79.79,0,0,0,.79.77.81.81,0,0,0,.55-.23.82.82,0,0,0,.22-.56.77.77,0,0,0-.78-.77.26.26,0,0,0-.26.26Z"/><path class="cls-3" d="M175.51,70.94a.78.78,0,0,0,.23-.55.8.8,0,0,0-.24-.55.75.75,0,0,0-.55-.23.26.26,0,0,0-.26.26.26.26,0,0,0,.27.26.27.27,0,0,1,.18.08.26.26,0,0,1-.18.44.26.26,0,0,1-.19-.07.32.32,0,0,1-.07-.19.26.26,0,0,0-.26-.25.25.25,0,0,0-.26.26.77.77,0,0,0,.78.77.75.75,0,0,0,.55-.23Z"/><text class="cls-4" transform="translate(88.84 81.75)"><tspan xml:space="preserve">Escape the   ab</tspan></text><g class="cls-5"><path class="cls-1" d="M120.59,166A22.72,22.72,0,1,1,166,166v37.44H181.2V166a37.9,37.9,0,0,0-75.79,0"/><path class="cls-1" d="M105.41,166"/><path class="cls-1" d="M155.88,225.27a12.52,12.52,0,1,1-12.52-12.53,12.52,12.52,0,0,1,12.52,12.53"/><path class="cls-1" d="M113.71,225.13a29.51,29.51,0,1,1,29.51,29.51,29.55,29.55,0,0,1-29.51-29.51m-15.18,0a44.69,44.69,0,1,0,44.69-44.68,44.74,44.74,0,0,0-44.69,44.68"/><line class="cls-1" x1="105.41" y1="165.98" x2="120.59" y2="165.98"/></g><text class="cls-6" transform="translate(70.29 137.59)"><tspan class="cls-7">V</tspan><tspan x="5.58" y="0">ous avez intégré dans votre livre </tspan><tspan x="0" y="12">une images sans demander </tspan><tspan x="0" y="24">l&apos;autorisation de son auteur et </tspan><tspan x="0" y="36">votre fraude a été décelée. </tspan><tspan x="0" y="60" xml:space="preserve">       Sortez un pion bactérie sur le </tspan><tspan x="0" y="72">plateau !</tspan></text><text class="cls-8" transform="translate(124.28 117.16)">Chance</text><path class="cls-1" d="M77.89,197.72v-2H70.72a.53.53,0,0,1-.51-.59v-3.37c0-.63.43-.66.51-.66h7.33v-2.19c0-.47.26-.53.37-.53a1,1,0,0,1,.57.32L84.12,193a.78.78,0,0,1,.27.52.68.68,0,0,1-.21.49c-.51.51-5.13,4-5.3,4.12a1,1,0,0,1-.56.29C78.16,198.37,77.89,198.28,77.89,197.72Zm.43.24v0Z"/><line class="cls-9" x1="54" x2="54" y2="36"/><line class="cls-9" y1="54" x2="36" y2="54"/><line class="cls-9" y1="307.96" x2="36" y2="307.96"/><line class="cls-9" x1="54" y1="361.96" x2="54" y2="325.96"/><line class="cls-9" x1="236.83" x2="236.83" y2="36"/><line class="cls-9" x1="290.83" y1="54" x2="254.83" y2="54"/><line class="cls-9" x1="290.83" y1="307.96" x2="254.83" y2="307.96"/><line class="cls-9" x1="236.83" y1="361.96" x2="236.83" y2="325.96"/></svg>