<svg id="Calque_1" data-name="Calque 1" xmlns="http://www.w3.org/2000/svg" viewBox="0 0 290.83 361.96"><defs><style>.cls-1,.cls-10{fill:#009741;}.cls-2,.cls-4,.cls-5{fill:#fff;}.cls-3{opacity:0.2;}.cls-4{font-size:19.62px;font-family:TwCenMT-CondensedExtraBold, Tw Cen MT Condensed Extra Bold;font-weight:800;}.cls-5{stroke:#fff;stroke-miterlimit:10;stroke-width:0.25px;}.cls-6{font-size:10px;fill:#000100;font-family:SegoeUI, Segoe UI;}.cls-7{letter-spacing:-0.1em;}.cls-8{letter-spacing:-0.03em;}.cls-9{letter-spacing:-0.03em;}.cls-10{font-size:12px;font-family:SegoeUI-Bold, Segoe UI;font-weight:700;}.cls-11{letter-spacing:-0.04em;}.cls-12{letter-spacing:-0.03em;}.cls-13{fill:none;stroke:#000;stroke-width:0.3px;}</style></defs><title>Carte_verte_14</title><path class="cls-1" d="M65.53,39.25H225.31a22.09,22.09,0,0,1,22.14,22.14V300.57a22.1,22.1,0,0,1-22.14,22.14H65.53a22.1,22.1,0,0,1-22.15-22.14V61.39A22.09,22.09,0,0,1,65.53,39.25Z"/><path class="cls-2" d="M77.75,95.37h136a17,17,0,0,1,17,17V279.58a17,17,0,0,1-17,17.05h-136a17,17,0,0,1-17-17.05V112.42A17,17,0,0,1,77.75,95.37Z"/><g class="cls-3"><path class="cls-1" d="M119.75,166a22.72,22.72,0,0,1,45.44,0v37.44h15.17V166a37.9,37.9,0,0,0-75.79,0"/><path class="cls-1" d="M104.57,166"/><path class="cls-1" d="M155.05,225.27a12.52,12.52,0,1,1-12.52-12.53,12.53,12.53,0,0,1,12.52,12.53"/><path class="cls-1" d="M112.87,225.13a29.51,29.51,0,1,1,29.51,29.51,29.55,29.55,0,0,1-29.51-29.51m-15.18,0a44.69,44.69,0,1,0,44.69-44.68,44.74,44.74,0,0,0-44.69,44.68"/><line class="cls-1" x1="104.57" y1="165.98" x2="119.75" y2="165.98"/></g><text class="cls-4" transform="translate(87.84 81.75)"><tspan xml:space="preserve">Escape the   ab</tspan></text><path class="cls-5" d="M178.11,64.13l-6.41.05a.76.76,0,0,0-.55.23.82.82,0,0,0-.22.55.75.75,0,0,0,.23.55.77.77,0,0,0,.47.22l.1,13.29a3.29,3.29,0,0,0,6.58,0l-.1-13.29a.76.76,0,0,0,.68-.78.77.77,0,0,0-.78-.77Zm.26.78a.24.24,0,0,1-.07.18.27.27,0,0,1-.18.08h-.24l-3.92,0a.26.26,0,0,0-.26.26.26.26,0,0,0,.26.26l3.73,0,.1,13.28a2.79,2.79,0,0,1-.8,2A2.77,2.77,0,0,1,172.25,79l-.1-13.28h.78a.25.25,0,0,0,.25-.26.26.26,0,0,0-.26-.26h-1.21a.27.27,0,0,1-.26-.26.24.24,0,0,1,.07-.18.27.27,0,0,1,.19-.08l6.4,0a.26.26,0,0,1,.26.26Z"/><path class="cls-5" d="M177,72a1,1,0,0,0-.65.23.5.5,0,0,1-.35.13.54.54,0,0,1-.35-.13A1.05,1.05,0,0,0,175,72a1,1,0,0,0-.64.22.5.5,0,0,1-.35.13.51.51,0,0,1-.35-.12A1,1,0,0,0,173,72a.25.25,0,0,0-.18.08.26.26,0,0,0-.07.19l0,2.83a.26.26,0,0,0,.26.26.27.27,0,0,0,.26-.27l0-2.5a.24.24,0,0,1,.09.06,1.05,1.05,0,0,0,.65.21,1,1,0,0,0,.64-.22.5.5,0,0,1,.35-.13.51.51,0,0,1,.35.12,1,1,0,0,0,.65.22,1,1,0,0,0,.64-.23l.09-.06.05,6.38a1.72,1.72,0,0,1-.5,1.23,1.69,1.69,0,0,1-1.22.51A1.72,1.72,0,0,1,173.29,79l0-2.83a.26.26,0,1,0-.51,0l0,2.83A2.24,2.24,0,0,0,175,81.24a2.22,2.22,0,0,0,1.59-.67,2.26,2.26,0,0,0,.65-1.6l-.05-6.68A.27.27,0,0,0,177,72Z"/><path class="cls-5" d="M175.67,67.78a.26.26,0,0,0,.26.26.26.26,0,0,1,.26.26.24.24,0,0,1-.07.18.27.27,0,0,1-.19.08.26.26,0,0,1-.26-.26.26.26,0,1,0-.52,0,.79.79,0,0,0,.79.77.81.81,0,0,0,.55-.23.82.82,0,0,0,.22-.56.77.77,0,0,0-.78-.77.26.26,0,0,0-.26.26Z"/><path class="cls-5" d="M174.51,70.94a.78.78,0,0,0,.23-.55.8.8,0,0,0-.24-.55.75.75,0,0,0-.55-.23.26.26,0,0,0-.26.26.26.26,0,0,0,.26.26.27.27,0,0,1,.19.08.26.26,0,0,1-.18.44.26.26,0,0,1-.19-.07.32.32,0,0,1-.07-.19.26.26,0,0,0-.26-.25.25.25,0,0,0-.26.26.77.77,0,0,0,.78.77.75.75,0,0,0,.55-.23Z"/><text class="cls-6" transform="translate(70.22 135.93)"><tspan class="cls-7">T</tspan><tspan x="4.26" y="0">outes les revues scientifiques ont </tspan><tspan x="0" y="12">un facteur d&apos;impact.</tspan><tspan class="cls-8" x="0" y="48">R</tspan><tspan x="5.69" y="48">éponse : </tspan><tspan class="cls-9" x="45.43" y="48">F</tspan><tspan x="49.98" y="48">aux</tspan><tspan x="0" y="63">Seul un nombre fini, certes assez </tspan><tspan x="0" y="75">important, de revues ont un </tspan><tspan x="0" y="87">facteur d&apos;impact calculé par une </tspan><tspan x="0" y="99">entreprise commerciale.</tspan></text><text class="cls-10" transform="translate(115.55 115.49)"><tspan class="cls-11">V</tspan><tspan x="7.58" y="0">rai/</tspan><tspan class="cls-12" x="27.54" y="0">F</tspan><tspan x="33.43" y="0">aux</tspan></text><line class="cls-13" x1="54" x2="54" y2="36"/><line class="cls-13" y1="54" x2="36" y2="54"/><line class="cls-13" y1="307.96" x2="36" y2="307.96"/><line class="cls-13" x1="54" y1="361.96" x2="54" y2="325.96"/><line class="cls-13" x1="236.83" x2="236.83" y2="36"/><line class="cls-13" x1="290.83" y1="54" x2="254.83" y2="54"/><line class="cls-13" x1="290.83" y1="307.96" x2="254.83" y2="307.96"/><line class="cls-13" x1="236.83" y1="361.96" x2="236.83" y2="325.96"/></svg>