<svg id="Calque_1" data-name="Calque 1" xmlns="http://www.w3.org/2000/svg" viewBox="0 0 290.83 361.96"><defs><style>.cls-1,.cls-9{fill:#e20717;}.cls-2,.cls-3,.cls-4{fill:#fff;}.cls-3{font-size:19.62px;font-family:TwCenMT-CondensedExtraBold, Tw Cen MT Condensed Extra Bold;font-weight:800;}.cls-4{stroke:#fff;stroke-miterlimit:10;stroke-width:0.25px;}.cls-5{opacity:0.2;}.cls-6{font-size:10px;fill:#000100;font-family:SegoeUI, Segoe UI;}.cls-7{letter-spacing:-0.03em;}.cls-8{letter-spacing:-0.04em;}.cls-9{font-size:12px;font-family:SegoeUI-Bold, Segoe UI;font-weight:700;}.cls-10{letter-spacing:-0.04em;}.cls-11{letter-spacing:-0.03em;}.cls-12{fill:none;stroke:#000;stroke-width:0.3px;}</style></defs><title>Carte_rouge_37</title><path class="cls-1" d="M65.53,39.25H225.31a22.09,22.09,0,0,1,22.14,22.14V300.57a22.1,22.1,0,0,1-22.14,22.14H65.53a22.1,22.1,0,0,1-22.15-22.14V61.39A22.09,22.09,0,0,1,65.53,39.25Z"/><path class="cls-2" d="M76.65,96.37h136a17,17,0,0,1,17,17V280.58a17,17,0,0,1-17,17.05h-136a17,17,0,0,1-17-17.05V113.42A17,17,0,0,1,76.65,96.37Z"/><text class="cls-3" transform="translate(86.72 81.62)"><tspan xml:space="preserve">Escape the   ab</tspan></text><path class="cls-4" d="M177,64l-6.4,0a.75.75,0,0,0-.55.23.76.76,0,0,0,0,1.1.69.69,0,0,0,.46.22l.1,13.29a3.29,3.29,0,0,0,3.32,3.26,3.28,3.28,0,0,0,3.26-3.31l-.1-13.29a.72.72,0,0,0,.46-.22.78.78,0,0,0,.23-.55A.8.8,0,0,0,177,64Zm.27.78a.25.25,0,0,1-.08.18A.23.23,0,0,1,177,65h-.23l-3.92,0a.26.26,0,0,0,0,.52l3.72,0,.1,13.28a2.74,2.74,0,0,1-.79,2,2.78,2.78,0,0,1-4.75-1.93L171,65.6h.78a.26.26,0,0,0,.26-.26.26.26,0,0,0-.26-.26l-1,0h-.22a.27.27,0,0,1-.19-.08.23.23,0,0,1-.08-.18.27.27,0,0,1,.26-.26l6.41,0a.26.26,0,0,1,.26.26Z"/><path class="cls-4" d="M175.83,71.88a1.07,1.07,0,0,0-.64.23.52.52,0,0,1-.35.13.5.5,0,0,1-.35-.13,1.08,1.08,0,0,0-.65-.21,1,1,0,0,0-.64.22.54.54,0,0,1-.35.13.5.5,0,0,1-.35-.12,1.07,1.07,0,0,0-.65-.22.27.27,0,0,0-.26.27l0,2.83a.26.26,0,0,0,.26.26.26.26,0,0,0,.26-.27l0-2.5.09.06a1,1,0,0,0,.65.21,1.07,1.07,0,0,0,.65-.22.54.54,0,0,1,.69,0,1.07,1.07,0,0,0,.65.22,1,1,0,0,0,.65-.23l.09-.06,0,6.38a1.73,1.73,0,0,1-3.46,0l0-2.84a.25.25,0,0,0-.26-.25.26.26,0,0,0-.26.26l0,2.83a2.26,2.26,0,0,0,3.86,1.56,2.2,2.2,0,0,0,.64-1.59l0-6.69a.27.27,0,0,0-.25-.28Z"/><path class="cls-4" d="M174.54,67.65a.26.26,0,0,0,.27.26.26.26,0,0,1,.26.26.27.27,0,0,1-.26.26.26.26,0,0,1-.26-.26.26.26,0,0,0-.52,0,.77.77,0,0,0,.78.77.75.75,0,0,0,.55-.23.78.78,0,0,0-.56-1.33.26.26,0,0,0-.26.26Z"/><path class="cls-4" d="M173.39,70.81a.8.8,0,0,0,.22-.55.75.75,0,0,0-.23-.55.78.78,0,0,0-.55-.23.27.27,0,0,0-.26.27.26.26,0,0,0,.26.25.23.23,0,0,1,.18.08.25.25,0,0,1,.08.18.26.26,0,0,1-.07.19.32.32,0,0,1-.19.07.24.24,0,0,1-.18-.07.27.27,0,0,1-.08-.18.26.26,0,0,0-.26-.26.26.26,0,0,0-.26.26.78.78,0,0,0,.79.77.76.76,0,0,0,.55-.23Z"/><g class="cls-5"><path class="cls-1" d="M119.39,166a22.72,22.72,0,1,1,45.43,0v37.44H180V166a37.9,37.9,0,0,0-75.79,0"/><path class="cls-1" d="M104.21,166"/><path class="cls-1" d="M154.68,225.27a12.52,12.52,0,1,1-12.51-12.53,12.52,12.52,0,0,1,12.51,12.53"/><path class="cls-1" d="M112.51,225.13A29.51,29.51,0,1,1,142,254.64a29.55,29.55,0,0,1-29.51-29.51m-15.18,0A44.69,44.69,0,1,0,142,180.45a44.74,44.74,0,0,0-44.69,44.68"/><line class="cls-1" x1="104.21" y1="165.98" x2="119.39" y2="165.98"/></g><text class="cls-6" transform="translate(69.62 135.91)">Même s&apos;il signe un contrat de <tspan x="0" y="12">diffusion dans une revue payante, </tspan><tspan x="0" y="24">l&apos;auteur.e est libre de déposer son </tspan><tspan x="0" y="36">manuscrit final dans l&apos;Archive </tspan><tspan x="0" y="48">ouverte UNIGE.</tspan><tspan class="cls-7" x="0" y="84">R</tspan><tspan x="5.69" y="84">éponse : </tspan><tspan class="cls-8" x="45.43" y="84">V</tspan><tspan x="51.27" y="84">rai</tspan><tspan x="0" y="99">En général, les restrictions du </tspan><tspan x="0" y="111">contrat de l&apos;éditeur concernent </tspan><tspan x="0" y="123">uniquement la version finale mise </tspan><tspan x="0" y="135">en page par l&apos;éditeur.</tspan></text><text class="cls-9" transform="translate(115.03 115.82)"><tspan class="cls-10">V</tspan><tspan x="7.58" y="0">rai/</tspan><tspan class="cls-11" x="27.54" y="0">F</tspan><tspan x="33.43" y="0">aux</tspan></text><line class="cls-12" x1="54" x2="54" y2="36"/><line class="cls-12" y1="54" x2="36" y2="54"/><line class="cls-12" y1="307.96" x2="36" y2="307.96"/><line class="cls-12" x1="54" y1="361.96" x2="54" y2="325.96"/><line class="cls-12" x1="236.83" x2="236.83" y2="36"/><line class="cls-12" x1="290.83" y1="54" x2="254.83" y2="54"/><line class="cls-12" x1="290.83" y1="307.96" x2="254.83" y2="307.96"/><line class="cls-12" x1="236.83" y1="361.96" x2="236.83" y2="325.96"/></svg>