<svg id="Calque_1" data-name="Calque 1" xmlns="http://www.w3.org/2000/svg" viewBox="0 0 290.83 361.96"><defs><style>.cls-1,.cls-9{fill:#f9b233;}.cls-2,.cls-3,.cls-4{fill:#fff;}.cls-3{font-size:19.62px;font-family:TwCenMT-CondensedExtraBold, Tw Cen MT Condensed Extra Bold;font-weight:800;}.cls-4{stroke:#fff;stroke-miterlimit:10;stroke-width:0.25px;}.cls-5{opacity:0.4;}.cls-6{font-size:10px;fill:#000100;font-family:SegoeUI, Segoe UI;}.cls-7{letter-spacing:-0.03em;}.cls-8{letter-spacing:-0.03em;}.cls-9{font-size:12px;font-family:SegoeUI-Bold, Segoe UI;font-weight:700;}.cls-10{fill:none;stroke:#000;stroke-width:0.3px;}</style></defs><title>Carte_jaune_10</title><path class="cls-1" d="M65.53,39.25H225.31a22.09,22.09,0,0,1,22.14,22.14V300.57a22.1,22.1,0,0,1-22.14,22.14H65.53a22.1,22.1,0,0,1-22.15-22.14V61.39A22.09,22.09,0,0,1,65.53,39.25Z"/><path class="cls-2" d="M77.65,96.37h136a17,17,0,0,1,17,17V280.58a17,17,0,0,1-17,17.05h-136a17,17,0,0,1-17-17.05V113.42A17,17,0,0,1,77.65,96.37Z"/><text class="cls-3" transform="translate(86.7 81.57)"><tspan xml:space="preserve">Escape the   ab</tspan></text><path class="cls-4" d="M177,64l-6.4,0a.79.79,0,0,0-.78.79.83.83,0,0,0,.23.55.75.75,0,0,0,.47.21l.1,13.29a3.29,3.29,0,0,0,3.32,3.26,3.29,3.29,0,0,0,3.26-3.31l-.1-13.28a.81.81,0,0,0,.46-.23.78.78,0,0,0,.23-.55A.8.8,0,0,0,177,64Zm.27.78A.27.27,0,0,1,177,65h-.23l-3.93,0a.26.26,0,0,0,0,.52l3.72,0,.1,13.28a2.77,2.77,0,0,1-5.54,0L171,65.55h.78a.26.26,0,0,0,.26-.26.27.27,0,0,0-.27-.26l-1,0h-.23a.29.29,0,0,1-.18-.07.27.27,0,0,1-.08-.19.27.27,0,0,1,.26-.26l6.4,0a.27.27,0,0,1,.27.26Z"/><path class="cls-4" d="M175.82,71.84a1.07,1.07,0,0,0-.65.22.49.49,0,0,1-.34.13.55.55,0,0,1-.35-.12,1.05,1.05,0,0,0-1.3,0,.5.5,0,0,1-.35.12.48.48,0,0,1-.35-.12,1,1,0,0,0-.64-.21.26.26,0,0,0-.19.07.32.32,0,0,0-.07.19l0,2.83a.26.26,0,0,0,.26.26.26.26,0,0,0,.26-.26l0-2.51.09.06a1.07,1.07,0,0,0,1.29,0,.52.52,0,0,1,.35-.13.55.55,0,0,1,.35.12,1,1,0,0,0,.65.22,1,1,0,0,0,.64-.23l.09-.06.05,6.38a1.68,1.68,0,0,1-.5,1.23,1.73,1.73,0,0,1-1.22.52,1.74,1.74,0,0,1-1.74-1.72l0-2.84a.26.26,0,0,0-.52,0l0,2.83a2.25,2.25,0,0,0,2.27,2.23,2.25,2.25,0,0,0,2.23-2.26l0-6.69a.25.25,0,0,0-.25-.27Z"/><path class="cls-4" d="M174.53,67.6a.26.26,0,0,0,.26.26.26.26,0,0,1,.26.26.21.21,0,0,1-.07.18.25.25,0,0,1-.44-.18.27.27,0,0,0-.27-.25.24.24,0,0,0-.25.26.77.77,0,0,0,.78.77.76.76,0,0,0,.55-.23.73.73,0,0,0,.22-.55.78.78,0,0,0-.78-.78.26.26,0,0,0-.26.26Z"/><path class="cls-4" d="M173.37,70.76a.76.76,0,0,0,.23-.55.81.81,0,0,0-.23-.55.74.74,0,0,0-.56-.22.25.25,0,0,0-.25.26.24.24,0,0,0,.26.25.27.27,0,0,1,.26.26.27.27,0,0,1-.08.19.23.23,0,0,1-.18.07.24.24,0,0,1-.18-.07.25.25,0,0,1-.08-.18.26.26,0,0,0-.26-.26.26.26,0,0,0-.26.26.77.77,0,0,0,.79.77.74.74,0,0,0,.54-.23Z"/><g class="cls-5"><path class="cls-1" d="M118.86,165.91a22.72,22.72,0,1,1,45.44,0v37.44h15.18V165.91a37.9,37.9,0,1,0-75.8,0"/><path class="cls-1" d="M103.68,165.91"/><path class="cls-1" d="M154.16,225.2a12.52,12.52,0,1,1-12.52-12.53,12.52,12.52,0,0,1,12.52,12.53"/><path class="cls-1" d="M112,225.06a29.51,29.51,0,1,1,29.5,29.51A29.54,29.54,0,0,1,112,225.06m-15.18,0a44.69,44.69,0,1,0,44.68-44.69,44.74,44.74,0,0,0-44.68,44.69"/><line class="cls-1" x1="103.68" y1="165.91" x2="118.86" y2="165.91"/></g><text class="cls-6" transform="translate(70.25 137.59)"><tspan class="cls-7">P</tspan><tspan x="5.26" y="0">armi les situations suivantes, </tspan><tspan x="0" y="12">laquelle est toujours autorisée ?</tspan><tspan x="0" y="27">A) Donner la référence de sa </tspan><tspan x="0" y="39">publication sur son profil </tspan><tspan class="cls-8" x="0" y="51">R</tspan><tspan x="5.69" y="51">esearchGate.</tspan><tspan x="0" y="66">B) Mettre une copie de sa publica</tspan><tspan x="147.85" y="66">-</tspan><tspan x="0" y="78">tion finale sur son profil </tspan><tspan class="cls-8" x="0" y="90">R</tspan><tspan x="5.69" y="90">esearchGate.</tspan><tspan x="0" y="105">C) Les deux précédentes.</tspan><tspan class="cls-8" x="0" y="141">R</tspan><tspan x="5.69" y="141">éponse : A</tspan></text><text class="cls-9" transform="translate(99.86 117.16)">Choix multiple</text><line class="cls-10" x1="54" x2="54" y2="36"/><line class="cls-10" y1="54" x2="36" y2="54"/><line class="cls-10" y1="307.96" x2="36" y2="307.96"/><line class="cls-10" x1="54" y1="361.96" x2="54" y2="325.96"/><line class="cls-10" x1="236.83" x2="236.83" y2="36"/><line class="cls-10" x1="290.83" y1="54" x2="254.83" y2="54"/><line class="cls-10" x1="290.83" y1="307.96" x2="254.83" y2="307.96"/><line class="cls-10" x1="236.83" y1="361.96" x2="236.83" y2="325.96"/></svg>