<svg id="Calque_1" data-name="Calque 1" xmlns="http://www.w3.org/2000/svg" viewBox="0 0 290.83 361.96"><defs><style>.cls-1,.cls-9{fill:#302d7e;}.cls-2,.cls-3,.cls-4{fill:#fff;}.cls-3{stroke:#fff;stroke-miterlimit:10;stroke-width:0.25px;}.cls-4{font-size:19.62px;font-family:TwCenMT-CondensedExtraBold, Tw Cen MT Condensed Extra Bold;font-weight:800;}.cls-5{opacity:0.2;}.cls-6{font-size:10px;fill:#000100;font-family:SegoeUI, Segoe UI;}.cls-7{letter-spacing:-0.03em;}.cls-8{letter-spacing:-0.03em;}.cls-9{font-size:12px;font-family:SegoeUI-Bold, Segoe UI;font-weight:700;}.cls-10{letter-spacing:-0.04em;}.cls-11{letter-spacing:-0.03em;}.cls-12{fill:none;stroke:#000;stroke-width:0.3px;}</style></defs><title>Carte_bleue_27</title><path class="cls-1" d="M65.52,39.25H225.31a22.09,22.09,0,0,1,22.14,22.14V300.57a22.1,22.1,0,0,1-22.14,22.14H65.52a22.1,22.1,0,0,1-22.14-22.14V61.39A22.09,22.09,0,0,1,65.52,39.25Z"/><path class="cls-2" d="M77.4,94.37h136a17,17,0,0,1,17,17V278.58a17,17,0,0,1-17,17.05H77.4a17,17,0,0,1-17-17.05V111.42A17,17,0,0,1,77.4,94.37Z"/><path class="cls-3" d="M178.72,63.92l-6.4,0a.76.76,0,0,0-.55.23.75.75,0,0,0-.22.55.78.78,0,0,0,.69.77l.11,13.28a3.29,3.29,0,1,0,6.57,0l-.1-13.28a.78.78,0,0,0-.1-1.55Zm.27.78a.31.31,0,0,1-.07.18.27.27,0,0,1-.19.08h-.23l-3.92,0a.26.26,0,0,0-.26.26.26.26,0,0,0,.26.26l3.72,0,.1,13.28a2.7,2.7,0,0,1-.79,2,2.76,2.76,0,0,1-4.74-1.92l-.11-13.28h.78a.26.26,0,0,0,0-.52h-1.21a.27.27,0,0,1-.19-.08.24.24,0,0,1-.07-.18.26.26,0,0,1,.07-.19.24.24,0,0,1,.18-.07l6.41,0a.26.26,0,0,1,.26.26Z"/><path class="cls-3" d="M177.57,71.8a1,1,0,0,0-.64.23.5.5,0,0,1-.35.12.45.45,0,0,1-.35-.12,1,1,0,0,0-.65-.21,1,1,0,0,0-.64.22.52.52,0,0,1-.35.13.55.55,0,0,1-.35-.12,1,1,0,0,0-.65-.22.27.27,0,0,0-.26.26l0,2.83a.26.26,0,1,0,.51,0v-2.5l.09,0a1,1,0,0,0,.64.22,1,1,0,0,0,.65-.23.5.5,0,0,1,.35-.12.48.48,0,0,1,.35.12,1,1,0,0,0,.64.21,1,1,0,0,0,.65-.22l.09-.06.05,6.38a1.74,1.74,0,0,1-.5,1.22,1.73,1.73,0,0,1-3-1.2l0-2.83a.26.26,0,1,0-.52,0l0,2.84a2.26,2.26,0,0,0,3.86,1.56,2.28,2.28,0,0,0,.65-1.6l-.06-6.68a.26.26,0,0,0-.24-.28Z"/><path class="cls-3" d="M176.29,67.57a.26.26,0,0,0,.26.26.26.26,0,0,1,.26.25.27.27,0,0,1-.08.19.23.23,0,0,1-.18.08.26.26,0,0,1-.26-.26.26.26,0,0,0-.26-.26.26.26,0,0,0-.26.26.77.77,0,0,0,1.33.54.75.75,0,0,0,.23-.55.78.78,0,0,0-.79-.77.25.25,0,0,0-.25.26Z"/><path class="cls-3" d="M175.13,70.73a.8.8,0,0,0,0-1.11.8.8,0,0,0-.55-.22.26.26,0,0,0,0,.52.32.32,0,0,1,.19.07.26.26,0,0,1,.07.19.24.24,0,0,1-.07.18.25.25,0,0,1-.18.08.27.27,0,0,1-.19-.08.23.23,0,0,1-.08-.18.26.26,0,0,0-.26-.26.25.25,0,0,0-.25.27.78.78,0,0,0,.78.77.81.81,0,0,0,.55-.23Z"/><text class="cls-4" transform="translate(88.46 81.54)"><tspan xml:space="preserve">Escape the   ab</tspan></text><g class="cls-5"><path class="cls-1" d="M121.2,165.77a22.72,22.72,0,0,1,45.44,0V203.2h15.18V165.77a37.9,37.9,0,1,0-75.79,0"/><path class="cls-1" d="M106,165.77"/><path class="cls-1" d="M156.5,225.05A12.52,12.52,0,1,1,144,212.53a12.51,12.51,0,0,1,12.52,12.52"/><path class="cls-1" d="M114.33,224.92a29.51,29.51,0,1,1,29.5,29.51,29.54,29.54,0,0,1-29.5-29.51m-15.18,0a44.69,44.69,0,1,0,44.68-44.69,44.73,44.73,0,0,0-44.68,44.69"/><line class="cls-1" x1="106.03" y1="165.77" x2="121.2" y2="165.77"/></g><text class="cls-6" transform="translate(68.91 136.02)">Les articles publiés dans des revues <tspan x="0" y="12">en accès libre ne passent pas par le </tspan><tspan x="0" y="24">système de relecture par les pairs </tspan><tspan x="0" y="36">(peer-review).</tspan><tspan class="cls-7" x="0" y="84">R</tspan><tspan x="5.69" y="84">éponse : </tspan><tspan class="cls-8" x="45.43" y="84">F</tspan><tspan x="49.98" y="84">aux</tspan><tspan x="0" y="100">Les revues en Open Access fonc</tspan><tspan x="140.37" y="100">-</tspan><tspan x="0" y="112">tionnent comme les revues tradi</tspan><tspan x="141.94" y="112">-</tspan><tspan x="0" y="124">tionnelles.</tspan></text><text class="cls-9" transform="translate(116.61 115.82)"><tspan class="cls-10">V</tspan><tspan x="7.58" y="0">rai/</tspan><tspan class="cls-11" x="27.54" y="0">F</tspan><tspan x="33.43" y="0">aux</tspan></text><line class="cls-12" x1="54" x2="54" y2="36"/><line class="cls-12" y1="54" x2="36" y2="54"/><line class="cls-12" y1="307.96" x2="36" y2="307.96"/><line class="cls-12" x1="54" y1="361.96" x2="54" y2="325.96"/><line class="cls-12" x1="236.83" x2="236.83" y2="36"/><line class="cls-12" x1="290.83" y1="54" x2="254.83" y2="54"/><line class="cls-12" x1="290.83" y1="307.96" x2="254.83" y2="307.96"/><line class="cls-12" x1="236.83" y1="361.96" x2="236.83" y2="325.96"/></svg>