<svg id="Calque_1" data-name="Calque 1" xmlns="http://www.w3.org/2000/svg" viewBox="0 0 290.83 361.96"><defs><style>.cls-1,.cls-8{fill:#302d7e;}.cls-2,.cls-3,.cls-4{fill:#fff;}.cls-3{font-size:19.62px;font-family:TwCenMT-CondensedExtraBold, Tw Cen MT Condensed Extra Bold;font-weight:800;}.cls-4{stroke:#fff;stroke-miterlimit:10;stroke-width:0.25px;}.cls-5{opacity:0.2;}.cls-6{font-size:10px;fill:#000100;font-family:SegoeUI, Segoe UI;}.cls-7{letter-spacing:-0.03em;}.cls-8{font-size:12px;font-family:SegoeUI-Bold, Segoe UI;font-weight:700;}.cls-9{fill:none;stroke:#000;stroke-width:0.3px;}</style></defs><title>Carte_bleue_31</title><path class="cls-1" d="M65.53,39.25H225.31a22.09,22.09,0,0,1,22.14,22.14V300.57a22.1,22.1,0,0,1-22.14,22.14H65.53a22.1,22.1,0,0,1-22.15-22.14V61.39A22.09,22.09,0,0,1,65.53,39.25Z"/><path class="cls-2" d="M77.65,95.37h136a17,17,0,0,1,17,17V279.58a17,17,0,0,1-17,17.05h-136a17,17,0,0,1-17-17.05V112.42A17,17,0,0,1,77.65,95.37Z"/><text class="cls-3" transform="translate(86.83 81.06)"><tspan xml:space="preserve">Escape the   ab</tspan></text><path class="cls-4" d="M177.1,63.44l-6.41.05a.74.74,0,0,0-.54.23.76.76,0,0,0-.23.55.81.81,0,0,0,.23.55.77.77,0,0,0,.47.22l.1,13.28a3.29,3.29,0,1,0,6.58,0L177.2,65a.75.75,0,0,0,.46-.23.7.7,0,0,0,.22-.55.77.77,0,0,0-.78-.77Zm.27.77a.27.27,0,0,1-.08.19.25.25,0,0,1-.18.08h-.23l-3.93,0a.25.25,0,0,0-.25.26A.26.26,0,0,0,173,65l3.72,0,.1,13.28a2.71,2.71,0,0,1-.8,2,2.76,2.76,0,0,1-4.74-1.92L171.14,65h.78a.26.26,0,1,0,0-.52H170.7a.21.21,0,0,1-.18-.07.25.25,0,0,1-.08-.18.27.27,0,0,1,.08-.19.23.23,0,0,1,.18-.07l6.4-.05a.27.27,0,0,1,.27.25Z"/><path class="cls-4" d="M176,71.32a1.07,1.07,0,0,0-.65.22.5.5,0,0,1-.35.13.48.48,0,0,1-.35-.12,1,1,0,0,0-.64-.21,1.07,1.07,0,0,0-.65.22.5.5,0,0,1-.35.13.59.59,0,0,1-.35-.12,1,1,0,0,0-.64-.22.27.27,0,0,0-.19.08.24.24,0,0,0-.07.18l0,2.83a.26.26,0,0,0,.52,0l0-2.51.09.06a1,1,0,0,0,.65.22,1,1,0,0,0,.64-.23.57.57,0,0,1,.35-.13.5.5,0,0,1,.35.13,1.07,1.07,0,0,0,1.29,0l.09-.06.05,6.38A1.74,1.74,0,0,1,174,80a1.73,1.73,0,0,1-1.74-1.72l0-2.83a.26.26,0,0,0-.26-.26.26.26,0,0,0-.26.26l0,2.84a2.25,2.25,0,0,0,3.85,1.56,2.28,2.28,0,0,0,.65-1.6l0-6.68a.26.26,0,0,0-.25-.28Z"/><path class="cls-4" d="M174.66,67.09a.26.26,0,0,0,.26.26.25.25,0,0,1,.26.25.26.26,0,0,1-.07.19.25.25,0,0,1-.18.08.27.27,0,0,1-.27-.26.26.26,0,0,0-.26-.26.25.25,0,0,0-.25.26.78.78,0,0,0,.78.78.82.82,0,0,0,.55-.24.75.75,0,0,0,.22-.55.77.77,0,0,0-.78-.77.26.26,0,0,0-.26.26Z"/><path class="cls-4" d="M173.5,70.25a.79.79,0,0,0,.23-.56.81.81,0,0,0-.23-.55.82.82,0,0,0-.56-.22.25.25,0,0,0-.25.26.26.26,0,0,0,.26.26.29.29,0,0,1,.18.07.27.27,0,0,1,.08.19.25.25,0,0,1-.08.18A.23.23,0,0,1,173,70a.25.25,0,0,1-.18-.08.23.23,0,0,1-.08-.18.26.26,0,0,0-.26-.26.26.26,0,0,0-.26.26.78.78,0,0,0,1.33.55Z"/><g class="cls-5"><path class="cls-1" d="M118.5,165.44a22.72,22.72,0,1,1,45.44,0v37.44h15.18V165.44a37.9,37.9,0,0,0-75.79,0"/><path class="cls-1" d="M103.33,165.44"/><path class="cls-1" d="M153.8,224.73a12.52,12.52,0,1,1-12.52-12.52,12.52,12.52,0,0,1,12.52,12.52"/><path class="cls-1" d="M111.63,224.59a29.51,29.51,0,1,1,29.51,29.51,29.55,29.55,0,0,1-29.51-29.51m-15.18,0a44.69,44.69,0,1,0,44.69-44.68,44.74,44.74,0,0,0-44.69,44.68"/><line class="cls-1" x1="103.33" y1="165.44" x2="118.5" y2="165.44"/></g><text class="cls-6" transform="translate(69.97 131.91)">Qu’est-ce qu’une revue hybride ?<tspan x="0" y="13">A) Une ancienne revue payante </tspan><tspan x="0" y="25">transformée en revue en accès libre</tspan><tspan x="0" y="38">B) Une revue payante contenant </tspan><tspan x="0" y="50">des articles en accès libre</tspan><tspan x="0" y="63">C) Une revue disponible en format </tspan><tspan x="0" y="75">imprimé et électronique</tspan><tspan class="cls-7" x="0" y="99">R</tspan><tspan x="5.69" y="99">éponse : B</tspan><tspan x="0" y="112">Il est possible de publier en Open </tspan><tspan x="0" y="124">Access dans des revues hybrides, </tspan><tspan x="0" y="136">mais les financeurs refusent en </tspan><tspan x="0" y="148">général de couvrir les frais de </tspan><tspan x="0" y="160">publication.</tspan></text><text class="cls-8" transform="translate(100.8 113.06)">Choix multiple</text><line class="cls-9" x1="54" x2="54" y2="36"/><line class="cls-9" y1="54" x2="36" y2="54"/><line class="cls-9" y1="307.96" x2="36" y2="307.96"/><line class="cls-9" x1="54" y1="361.96" x2="54" y2="325.96"/><line class="cls-9" x1="236.83" x2="236.83" y2="36"/><line class="cls-9" x1="290.83" y1="54" x2="254.83" y2="54"/><line class="cls-9" x1="290.83" y1="307.96" x2="254.83" y2="307.96"/><line class="cls-9" x1="236.83" y1="361.96" x2="236.83" y2="325.96"/></svg>