<svg id="Calque_1" data-name="Calque 1" xmlns="http://www.w3.org/2000/svg" viewBox="0 0 290.83 361.96"><defs><style>.cls-1,.cls-7{fill:#009741;}.cls-2,.cls-3,.cls-4{fill:#fff;}.cls-3{font-size:19.62px;font-family:TwCenMT-CondensedExtraBold, Tw Cen MT Condensed Extra Bold;font-weight:800;}.cls-4{stroke:#fff;stroke-miterlimit:10;stroke-width:0.25px;}.cls-5{opacity:0.2;}.cls-6{fill:#000100;}.cls-7{font-size:12px;font-family:SegoeUI-Bold, Segoe UI;font-weight:700;}.cls-8{letter-spacing:-0.04em;}.cls-9{letter-spacing:-0.03em;}.cls-10{fill:none;stroke:#000;stroke-width:0.3px;}</style></defs><title>Carte_verte_20</title><rect class="cls-1" x="43.38" y="39.25" width="204.07" height="283.46" rx="22.14"/><path class="cls-2" d="M77.75,95.72h136a17,17,0,0,1,17,17V279.93a17,17,0,0,1-17,17.05h-136a17,17,0,0,1-17-17.05V112.77A17,17,0,0,1,77.75,95.72Z"/><text class="cls-3" transform="translate(88.84 81.21)"><tspan xml:space="preserve">Escape the   ab</tspan></text><path class="cls-4" d="M179.11,63.59l-6.41,0a.81.81,0,0,0-.55.23.82.82,0,0,0-.22.56.78.78,0,0,0,.23.55.82.82,0,0,0,.47.22l.1,13.28A3.28,3.28,0,0,0,176,81.74a3.23,3.23,0,0,0,2.32-1,3.27,3.27,0,0,0,.95-2.33l-.1-13.28a.84.84,0,0,0,.46-.23.82.82,0,0,0,.22-.55.78.78,0,0,0-.78-.78Zm.26.78a.24.24,0,0,1-.07.18.27.27,0,0,1-.18.08h-.24l-3.92,0a.27.27,0,0,0-.26.27.26.26,0,0,0,.26.25l3.73,0,.1,13.28a2.79,2.79,0,0,1-.8,2,2.77,2.77,0,0,1-4.74-1.92l-.1-13.29h.78a.25.25,0,0,0,.25-.26.26.26,0,0,0-.26-.26l-1,0h-.23a.29.29,0,0,1-.18-.07.27.27,0,0,1-.08-.19.24.24,0,0,1,.07-.18.27.27,0,0,1,.19-.08l6.4,0a.26.26,0,0,1,.26.26Z"/><path class="cls-4" d="M178,71.48a1,1,0,0,0-.65.22.5.5,0,0,1-.35.13.59.59,0,0,1-.35-.12,1,1,0,0,0-.65-.22,1,1,0,0,0-.64.23.5.5,0,0,1-.35.12.47.47,0,0,1-.35-.12,1,1,0,0,0-.65-.21.24.24,0,0,0-.18.07.26.26,0,0,0-.07.19l0,2.83a.26.26,0,1,0,.52,0l0-2.51.09.06a1,1,0,0,0,.65.21,1,1,0,0,0,.64-.22A.5.5,0,0,1,176,72a.57.57,0,0,1,.35.12,1,1,0,0,0,.65.22,1,1,0,0,0,.64-.23l.09-.06.05,6.38a1.72,1.72,0,0,1-.5,1.23,1.73,1.73,0,0,1-3-1.2l0-2.84a.27.27,0,0,0-.27-.25.25.25,0,0,0-.25.26l0,2.83A2.24,2.24,0,0,0,176,80.7a2.22,2.22,0,0,0,1.59-.67,2.26,2.26,0,0,0,.65-1.59l-.05-6.69a.26.26,0,0,0-.25-.27Z"/><path class="cls-4" d="M176.67,67.24a.26.26,0,0,0,.26.26.26.26,0,0,1,.26.26.24.24,0,0,1-.07.18.27.27,0,0,1-.19.08.26.26,0,0,1-.26-.26.26.26,0,0,0-.52,0,.79.79,0,0,0,.79.77.76.76,0,0,0,.55-.23.82.82,0,0,0,.22-.55.78.78,0,0,0-.78-.78.26.26,0,0,0-.26.26Z"/><path class="cls-4" d="M175.51,70.4a.76.76,0,0,0,.23-.55.82.82,0,0,0-.24-.55.7.7,0,0,0-.55-.22.26.26,0,0,0-.26.26.25.25,0,0,0,.26.25.27.27,0,0,1,.19.08.25.25,0,0,1,.08.18.27.27,0,0,1-.08.19.24.24,0,0,1-.18.07.26.26,0,0,1-.19-.07.29.29,0,0,1-.07-.18.26.26,0,1,0-.52,0,.77.77,0,0,0,.78.77.75.75,0,0,0,.55-.23Z"/><g class="cls-5"><path class="cls-1" d="M119.75,165.65a22.72,22.72,0,0,1,45.44,0v37.44h15.17V165.65a37.9,37.9,0,0,0-75.79,0"/><path class="cls-1" d="M104.57,165.65"/><path class="cls-1" d="M155.05,224.94a12.52,12.52,0,1,1-12.52-12.52,12.52,12.52,0,0,1,12.52,12.52"/><path class="cls-1" d="M112.87,224.81a29.51,29.51,0,1,1,29.51,29.51,29.55,29.55,0,0,1-29.51-29.51m-15.18,0a44.69,44.69,0,1,0,44.69-44.69,44.74,44.74,0,0,0-44.69,44.69"/><line class="cls-1" x1="104.57" y1="165.65" x2="119.75" y2="165.65"/></g><path class="cls-6" d="M74.11,137.17H70.47v-7h.82v6.26h2.82Z"/><path class="cls-6" d="M79.09,134.87H75.56a1.83,1.83,0,0,0,.45,1.29,1.57,1.57,0,0,0,1.18.46,2.46,2.46,0,0,0,1.55-.56v.75a2.89,2.89,0,0,1-1.74.48,2.1,2.1,0,0,1-1.66-.68,2.77,2.77,0,0,1-.61-1.92,2.73,2.73,0,0,1,.66-1.9,2.12,2.12,0,0,1,1.64-.73,1.87,1.87,0,0,1,1.52.63,2.63,2.63,0,0,1,.54,1.76Zm-.82-.68a1.57,1.57,0,0,0-.33-1.07,1.14,1.14,0,0,0-.92-.39,1.28,1.28,0,0,0-1,.4,1.81,1.81,0,0,0-.49,1.06Z"/><path class="cls-6" d="M80,137v-.86a2.39,2.39,0,0,0,1.44.49c.7,0,1-.24,1-.71a.64.64,0,0,0-.09-.34.91.91,0,0,0-.24-.24,2,2,0,0,0-.36-.2l-.45-.17c-.22-.09-.41-.18-.58-.27a1.74,1.74,0,0,1-.42-.3,1.27,1.27,0,0,1-.26-.39,1.5,1.5,0,0,1-.08-.5,1.17,1.17,0,0,1,.16-.62,1.57,1.57,0,0,1,.43-.46,2,2,0,0,1,.61-.27,3,3,0,0,1,1.87.13v.81a2.24,2.24,0,0,0-1.26-.36,1.7,1.7,0,0,0-.41.05,1,1,0,0,0-.31.14.72.72,0,0,0-.2.23.53.53,0,0,0-.07.28.67.67,0,0,0,.07.33.66.66,0,0,0,.21.23,1.69,1.69,0,0,0,.33.19l.44.18a5.68,5.68,0,0,1,.6.26,2.2,2.2,0,0,1,.45.3,1.28,1.28,0,0,1,.28.39,1.21,1.21,0,0,1,.1.52,1.23,1.23,0,0,1-.16.65,1.35,1.35,0,0,1-.44.45,2,2,0,0,1-.63.27,2.94,2.94,0,0,1-.74.09A2.82,2.82,0,0,1,80,137Z"/><path class="cls-6" d="M91.3,134.87H87.77a1.88,1.88,0,0,0,.45,1.29,1.57,1.57,0,0,0,1.18.46,2.49,2.49,0,0,0,1.56-.56v.75a2.9,2.9,0,0,1-1.75.48,2.12,2.12,0,0,1-1.66-.68,2.77,2.77,0,0,1-.61-1.92,2.73,2.73,0,0,1,.66-1.9,2.12,2.12,0,0,1,1.65-.73,1.9,1.9,0,0,1,1.52.63,2.68,2.68,0,0,1,.53,1.76Zm-.82-.68a1.57,1.57,0,0,0-.33-1.07,1.14,1.14,0,0,0-.92-.39,1.28,1.28,0,0,0-1,.4,1.87,1.87,0,0,0-.49,1.06Zm-.12-4.57-1.28,1.61h-.62l1.08-1.61Z"/><path class="cls-6" d="M96.78,137.17H96v-.85h0a2,2,0,0,1-3.22.3,2.75,2.75,0,0,1-.57-1.83,3,3,0,0,1,.63-2,2,2,0,0,1,1.66-.74,1.6,1.6,0,0,1,1.5.81h0v-3.1h.8Zm-.8-2.26v-.74a1.41,1.41,0,0,0-.4-1,1.36,1.36,0,0,0-1-.42,1.39,1.39,0,0,0-1.15.54,2.33,2.33,0,0,0-.42,1.48,2.19,2.19,0,0,0,.4,1.37,1.33,1.33,0,0,0,1.09.5,1.38,1.38,0,0,0,1.08-.49A1.79,1.79,0,0,0,96,134.91Z"/><path class="cls-6" d="M98.81,130.9a.52.52,0,0,1-.36-.14.47.47,0,0,1-.16-.37.53.53,0,0,1,.52-.53.54.54,0,0,1,.38.15.52.52,0,0,1,.15.38.49.49,0,0,1-.15.36A.54.54,0,0,1,98.81,130.9Zm.39,6.27h-.8v-5h.8Z"/><path class="cls-6" d="M103.14,137.12a1.45,1.45,0,0,1-.74.16c-.88,0-1.32-.49-1.32-1.46v-3h-.86v-.69h.86V131l.8-.26v1.48h1.26v.69h-1.26v2.81a1.19,1.19,0,0,0,.17.72.72.72,0,0,0,.57.22.83.83,0,0,0,.52-.17Z"/><path class="cls-6" d="M108.23,134.87H104.7a1.83,1.83,0,0,0,.45,1.29,1.57,1.57,0,0,0,1.18.46,2.46,2.46,0,0,0,1.55-.56v.75a2.87,2.87,0,0,1-1.74.48,2.1,2.1,0,0,1-1.66-.68,2.77,2.77,0,0,1-.61-1.92,2.73,2.73,0,0,1,.66-1.9,2.12,2.12,0,0,1,1.65-.73,1.86,1.86,0,0,1,1.51.63,2.63,2.63,0,0,1,.54,1.76Zm-.82-.68a1.57,1.57,0,0,0-.33-1.07,1.14,1.14,0,0,0-.92-.39,1.28,1.28,0,0,0-1,.4,1.87,1.87,0,0,0-.49,1.06Z"/><path class="cls-6" d="M113.49,137.17h-.81v-.79h0a1.65,1.65,0,0,1-1.55.91c-1.19,0-1.79-.71-1.79-2.13v-3h.8V135c0,1.06.4,1.59,1.21,1.59a1.25,1.25,0,0,0,1-.44,1.64,1.64,0,0,0,.37-1.13v-2.88h.81Z"/><path class="cls-6" d="M117.71,133a1,1,0,0,0-.61-.16,1,1,0,0,0-.85.49,2.21,2.21,0,0,0-.35,1.31v2.55h-.8v-5h.8v1h0a1.84,1.84,0,0,1,.52-.82,1.2,1.2,0,0,1,.79-.3,1.43,1.43,0,0,1,.48.07Z"/><path class="cls-6" d="M118.27,137v-.86a2.41,2.41,0,0,0,1.45.49c.7,0,1-.24,1-.71a.64.64,0,0,0-.09-.34.82.82,0,0,0-.25-.24,2,2,0,0,0-.36-.2l-.44-.17c-.22-.09-.42-.18-.59-.27a2.25,2.25,0,0,1-.42-.3,1.24,1.24,0,0,1-.25-.39,1.28,1.28,0,0,1-.09-.5,1.18,1.18,0,0,1,.17-.62,1.44,1.44,0,0,1,.43-.46,1.89,1.89,0,0,1,.61-.27,2.76,2.76,0,0,1,.71-.09,2.86,2.86,0,0,1,1.16.22v.81a2.27,2.27,0,0,0-1.27-.36,1.62,1.62,0,0,0-.4.05.89.89,0,0,0-.31.14.62.62,0,0,0-.2.23.54.54,0,0,0-.08.28.67.67,0,0,0,.08.33.55.55,0,0,0,.2.23,1.79,1.79,0,0,0,.34.19l.44.18a5.68,5.68,0,0,1,.6.26,2.12,2.12,0,0,1,.44.3,1.32,1.32,0,0,1,.29.39,1.21,1.21,0,0,1,.1.52,1.23,1.23,0,0,1-.16.65,1.45,1.45,0,0,1-.44.45,2,2,0,0,1-.63.27,3.08,3.08,0,0,1-.75.09A2.85,2.85,0,0,1,118.27,137Z"/><path class="cls-6" d="M128.17,133a1,1,0,0,0-.61-.16,1,1,0,0,0-.86.49,2.29,2.29,0,0,0-.34,1.31v2.55h-.8v-5h.8v1h0a1.76,1.76,0,0,1,.52-.82,1.2,1.2,0,0,1,.79-.3,1.43,1.43,0,0,1,.48.07Z"/><path class="cls-6" d="M133.05,134.87h-3.53a1.93,1.93,0,0,0,.45,1.29,1.57,1.57,0,0,0,1.19.46,2.46,2.46,0,0,0,1.55-.56v.75a2.89,2.89,0,0,1-1.74.48,2.13,2.13,0,0,1-1.67-.68,2.82,2.82,0,0,1-.61-1.92,2.74,2.74,0,0,1,.67-1.9,2.1,2.1,0,0,1,1.64-.73,1.9,1.9,0,0,1,1.52.63,2.62,2.62,0,0,1,.53,1.76Zm-.82-.68a1.57,1.57,0,0,0-.33-1.07,1.13,1.13,0,0,0-.92-.39,1.31,1.31,0,0,0-1,.4,1.94,1.94,0,0,0-.49,1.06Z"/><path class="cls-6" d="M136.74,130.47a1.2,1.2,0,0,0-.54-.13c-.56,0-.84.35-.84,1.06v.77h1.18v.69h-1.18v4.31h-.79v-4.31h-.86v-.69h.86v-.81a1.69,1.69,0,0,1,.45-1.24,1.72,1.72,0,0,1,1.72-.37Z"/><path class="cls-6" d="M141.44,137.17h-.8v-.79h0a1.64,1.64,0,0,1-1.54.91c-1.2,0-1.79-.71-1.79-2.13v-3h.79V135c0,1.06.41,1.59,1.22,1.59a1.21,1.21,0,0,0,1-.44,1.64,1.64,0,0,0,.38-1.13v-2.88h.8Z"/><path class="cls-6" d="M142.75,137v-.86a2.41,2.41,0,0,0,1.44.49c.71,0,1.06-.24,1.06-.71a.64.64,0,0,0-.09-.34.82.82,0,0,0-.25-.24,2,2,0,0,0-.36-.2l-.45-.17c-.22-.09-.41-.18-.58-.27a1.74,1.74,0,0,1-.42-.3,1.08,1.08,0,0,1-.25-.39,1.34,1.34,0,0,1,.07-1.12,1.57,1.57,0,0,1,.43-.46,2,2,0,0,1,.62-.27,2.76,2.76,0,0,1,.71-.09,2.86,2.86,0,0,1,1.16.22v.81a2.27,2.27,0,0,0-1.27-.36,1.7,1.7,0,0,0-.41.05,1,1,0,0,0-.31.14.87.87,0,0,0-.2.23.64.64,0,0,0-.07.28.81.81,0,0,0,.07.33.66.66,0,0,0,.21.23,1.69,1.69,0,0,0,.33.19l.45.18a4.72,4.72,0,0,1,.59.26,2,2,0,0,1,.45.3,1.32,1.32,0,0,1,.29.39,1.38,1.38,0,0,1,.1.52,1.23,1.23,0,0,1-.17.65,1.32,1.32,0,0,1-.43.45,2.22,2.22,0,0,1-.63.27,3.08,3.08,0,0,1-.75.09A2.85,2.85,0,0,1,142.75,137Z"/><path class="cls-6" d="M151.32,134.87h-3.53a1.83,1.83,0,0,0,.45,1.29,1.55,1.55,0,0,0,1.18.46,2.46,2.46,0,0,0,1.55-.56v.75a2.89,2.89,0,0,1-1.74.48,2.14,2.14,0,0,1-1.67-.68,2.81,2.81,0,0,1-.6-1.92,2.73,2.73,0,0,1,.66-1.9,2.12,2.12,0,0,1,1.64-.73,1.88,1.88,0,0,1,1.52.63,2.63,2.63,0,0,1,.54,1.76Zm-.82-.68a1.63,1.63,0,0,0-.34-1.07,1.12,1.12,0,0,0-.91-.39,1.31,1.31,0,0,0-1,.4,1.86,1.86,0,0,0-.48,1.06Z"/><path class="cls-6" d="M156.68,137.17h-.8v-2.85c0-1.06-.39-1.59-1.16-1.59a1.27,1.27,0,0,0-1,.45,1.68,1.68,0,0,0-.39,1.14v2.85h-.8v-5h.8V133h0a1.8,1.8,0,0,1,1.64-.94,1.5,1.5,0,0,1,1.25.53,2.35,2.35,0,0,1,.44,1.53Z"/><path class="cls-6" d="M160.51,137.12a1.49,1.49,0,0,1-.75.16c-.88,0-1.31-.49-1.31-1.46v-3h-.86v-.69h.86V131l.8-.26v1.48h1.26v.69h-1.26v2.81a1.12,1.12,0,0,0,.17.72.68.68,0,0,0,.56.22.86.86,0,0,0,.53-.17Z"/><path class="cls-6" d="M164,137v-.86a2.41,2.41,0,0,0,1.44.49c.71,0,1.06-.24,1.06-.71a.64.64,0,0,0-.09-.34.82.82,0,0,0-.25-.24,2,2,0,0,0-.36-.2l-.45-.17c-.22-.09-.41-.18-.58-.27a1.74,1.74,0,0,1-.42-.3,1.08,1.08,0,0,1-.25-.39,1.34,1.34,0,0,1,.07-1.12,1.57,1.57,0,0,1,.43-.46,2,2,0,0,1,.62-.27,2.76,2.76,0,0,1,.71-.09,2.86,2.86,0,0,1,1.16.22v.81a2.27,2.27,0,0,0-1.27-.36,1.7,1.7,0,0,0-.41.05,1,1,0,0,0-.31.14.87.87,0,0,0-.2.23.64.64,0,0,0-.07.28.81.81,0,0,0,.07.33.66.66,0,0,0,.21.23,1.69,1.69,0,0,0,.33.19l.45.18a4.72,4.72,0,0,1,.59.26,2,2,0,0,1,.45.3,1.32,1.32,0,0,1,.29.39,1.38,1.38,0,0,1,.1.52,1.23,1.23,0,0,1-.17.65,1.32,1.32,0,0,1-.43.45,2.22,2.22,0,0,1-.63.27,3.08,3.08,0,0,1-.75.09A2.85,2.85,0,0,1,164,137Z"/><path class="cls-6" d="M172.54,132.17l-2.3,5.8c-.41,1-1,1.56-1.73,1.56a1.56,1.56,0,0,1-.52-.07v-.71a1.71,1.71,0,0,0,.47.08,1,1,0,0,0,.91-.72l.4-1-2-5h.88l1.36,3.85s.05.18.1.38h0c0-.08.05-.2.1-.37l1.42-3.86Z"/><path class="cls-6" d="M173.09,137v-.86a2.41,2.41,0,0,0,1.44.49c.71,0,1.06-.24,1.06-.71a.64.64,0,0,0-.09-.34.82.82,0,0,0-.25-.24,2,2,0,0,0-.36-.2l-.44-.17c-.22-.09-.42-.18-.59-.27a2.25,2.25,0,0,1-.42-.3,1.24,1.24,0,0,1-.25-.39,1.28,1.28,0,0,1-.09-.5,1.18,1.18,0,0,1,.17-.62,1.44,1.44,0,0,1,.43-.46,1.89,1.89,0,0,1,.61-.27,2.76,2.76,0,0,1,.71-.09,2.86,2.86,0,0,1,1.16.22v.81a2.27,2.27,0,0,0-1.27-.36,1.62,1.62,0,0,0-.4.05.89.89,0,0,0-.31.14.76.76,0,0,0-.21.23.64.64,0,0,0-.07.28.81.81,0,0,0,.07.33.66.66,0,0,0,.21.23,2,2,0,0,0,.33.19l.45.18a4.72,4.72,0,0,1,.59.26,2,2,0,0,1,.45.3,1.32,1.32,0,0,1,.29.39,1.21,1.21,0,0,1,.1.52,1.23,1.23,0,0,1-.16.65,1.45,1.45,0,0,1-.44.45,2,2,0,0,1-.63.27,3.08,3.08,0,0,1-.75.09A2.85,2.85,0,0,1,173.09,137Z"/><path class="cls-6" d="M180,137.12a1.49,1.49,0,0,1-.75.16c-.87,0-1.31-.49-1.31-1.46v-3H177v-.69h.86V131l.8-.26v1.48H180v.69H178.7v2.81a1.19,1.19,0,0,0,.17.72.7.7,0,0,0,.57.22.85.85,0,0,0,.52-.17Z"/><path class="cls-6" d="M185.05,134.87h-3.53a1.83,1.83,0,0,0,.45,1.29,1.55,1.55,0,0,0,1.18.46,2.46,2.46,0,0,0,1.55-.56v.75a2.89,2.89,0,0,1-1.74.48,2.14,2.14,0,0,1-1.67-.68,2.81,2.81,0,0,1-.6-1.92,2.73,2.73,0,0,1,.66-1.9,2.12,2.12,0,0,1,1.64-.73,1.88,1.88,0,0,1,1.52.63,2.63,2.63,0,0,1,.54,1.76Zm-.82-.68a1.63,1.63,0,0,0-.34-1.07,1.12,1.12,0,0,0-.91-.39,1.28,1.28,0,0,0-1,.4,1.81,1.81,0,0,0-.49,1.06Zm-.13-4.57-1.28,1.61h-.62l1.09-1.61Z"/><path class="cls-6" d="M193.36,137.17h-.8V134.3a2.18,2.18,0,0,0-.26-1.2,1,1,0,0,0-.86-.37,1.08,1.08,0,0,0-.87.47,1.79,1.79,0,0,0-.36,1.12v2.85h-.8v-3q0-1.47-1.14-1.47a1.07,1.07,0,0,0-.87.44,1.83,1.83,0,0,0-.34,1.15v2.85h-.8v-5h.8V133h0a1.69,1.69,0,0,1,1.55-.9,1.43,1.43,0,0,1,1.42,1,1.77,1.77,0,0,1,1.66-1c1.1,0,1.65.67,1.65,2Z"/><path class="cls-6" d="M198.45,137.17h-.8v-.78h0a1.68,1.68,0,0,1-1.54.9,1.61,1.61,0,0,1-1.17-.4,1.36,1.36,0,0,1-.42-1c0-.93.55-1.47,1.65-1.63l1.5-.21c0-.85-.34-1.27-1-1.27a2.45,2.45,0,0,0-1.63.61v-.82a3.12,3.12,0,0,1,1.7-.46c1.17,0,1.76.62,1.76,1.86Zm-.8-2.53-1.21.17a1.84,1.84,0,0,0-.84.28.81.81,0,0,0-.28.7.76.76,0,0,0,.26.59,1,1,0,0,0,.7.24,1.27,1.27,0,0,0,1-.42,1.49,1.49,0,0,0,.39-1.06Z"/><path class="cls-6" d="M202.28,137.12a1.49,1.49,0,0,1-.75.16c-.87,0-1.31-.49-1.31-1.46v-3h-.86v-.69h.86V131l.8-.26v1.48h1.26v.69H201v2.81a1.19,1.19,0,0,0,.17.72.69.69,0,0,0,.57.22.85.85,0,0,0,.52-.17Z"/><path class="cls-6" d="M203.76,130.9a.53.53,0,0,1-.37-.14.5.5,0,0,1-.15-.37.52.52,0,0,1,.15-.38.53.53,0,0,1,.74,0,.49.49,0,0,1,.16.38.46.46,0,0,1-.16.36A.5.5,0,0,1,203.76,130.9Zm.39,6.27h-.8v-5h.8Z"/><path class="cls-6" d="M208.33,134.7h-2.67v-.63h2.67Z"/><path class="cls-6" d="M74.63,151.47h-.8v-3.16h0a1.8,1.8,0,0,1-1.71,1,1.87,1.87,0,0,1-1.51-.67,2.75,2.75,0,0,1-.57-1.83,3,3,0,0,1,.63-2,2,2,0,0,1,1.68-.74,1.57,1.57,0,0,1,1.48.81h0v-.7h.8Zm-.8-4.55v-.73a1.46,1.46,0,0,0-.4-1,1.36,1.36,0,0,0-1-.42,1.39,1.39,0,0,0-1.15.53,2.4,2.4,0,0,0-.42,1.51,2.08,2.08,0,0,0,.41,1.36,1.31,1.31,0,0,0,1,.49,1.4,1.4,0,0,0,1.12-.48A1.81,1.81,0,0,0,73.83,146.92Z"/><path class="cls-6" d="M80.3,149.17h-.8v-.79h0a1.65,1.65,0,0,1-1.55.91c-1.19,0-1.78-.71-1.78-2.13v-3h.79V147c0,1.06.41,1.59,1.21,1.59a1.25,1.25,0,0,0,1-.44,1.64,1.64,0,0,0,.38-1.13v-2.88h.8Z"/><path class="cls-6" d="M85.93,146.87H82.4a1.83,1.83,0,0,0,.45,1.29,1.57,1.57,0,0,0,1.18.46,2.46,2.46,0,0,0,1.55-.56v.75a2.87,2.87,0,0,1-1.74.48,2.12,2.12,0,0,1-1.66-.68,2.77,2.77,0,0,1-.61-1.92,2.73,2.73,0,0,1,.66-1.9,2.12,2.12,0,0,1,1.65-.73,1.86,1.86,0,0,1,1.51.63,2.63,2.63,0,0,1,.54,1.76Zm-.82-.68a1.57,1.57,0,0,0-.33-1.07,1.14,1.14,0,0,0-.92-.39,1.28,1.28,0,0,0-1,.4,1.87,1.87,0,0,0-.49,1.06Z"/><path class="cls-6" d="M94.24,149.17h-.8V146.3a2.09,2.09,0,0,0-.26-1.2,1,1,0,0,0-.86-.37,1.08,1.08,0,0,0-.87.47,1.79,1.79,0,0,0-.36,1.12v2.85h-.8v-3q0-1.47-1.14-1.47a1.07,1.07,0,0,0-.87.44,1.89,1.89,0,0,0-.34,1.15v2.85h-.8v-5h.8V145h0a1.72,1.72,0,0,1,1.56-.9,1.42,1.42,0,0,1,1.41,1,1.78,1.78,0,0,1,1.66-1c1.1,0,1.65.67,1.65,2Z"/><path class="cls-6" d="M99.77,146.87H96.24a1.93,1.93,0,0,0,.45,1.29,1.57,1.57,0,0,0,1.18.46,2.47,2.47,0,0,0,1.56-.56v.75a2.9,2.9,0,0,1-1.75.48,2.12,2.12,0,0,1-1.66-.68,2.82,2.82,0,0,1-.61-1.92,2.69,2.69,0,0,1,.67-1.9,2.1,2.1,0,0,1,1.64-.73,1.9,1.9,0,0,1,1.52.63,2.68,2.68,0,0,1,.53,1.76Zm-.82-.68a1.57,1.57,0,0,0-.33-1.07,1.14,1.14,0,0,0-.92-.39,1.31,1.31,0,0,0-1,.4,1.94,1.94,0,0,0-.49,1.06Z"/><path class="cls-6" d="M105.14,149.17h-.81v-2.85c0-1.06-.38-1.59-1.16-1.59a1.25,1.25,0,0,0-1,.45,1.68,1.68,0,0,0-.39,1.14v2.85H101v-5h.8V145h0a1.79,1.79,0,0,1,1.64-.94,1.51,1.51,0,0,1,1.25.53,2.35,2.35,0,0,1,.44,1.53Z"/><path class="cls-6" d="M109,149.12a1.45,1.45,0,0,1-.74.16c-.88,0-1.32-.49-1.32-1.46v-3H106v-.69h.86V143l.8-.26v1.48H109v.69H107.7v2.81a1.19,1.19,0,0,0,.17.72.72.72,0,0,0,.57.22.83.83,0,0,0,.52-.17Z"/><path class="cls-6" d="M117,149.17h-.8v-.85h0a2,2,0,0,1-3.22.3,2.75,2.75,0,0,1-.57-1.83,3,3,0,0,1,.63-2,2,2,0,0,1,1.66-.74,1.6,1.6,0,0,1,1.5.81h0v-3.1h.8Zm-.8-2.26v-.74a1.41,1.41,0,0,0-.4-1,1.36,1.36,0,0,0-1-.42,1.39,1.39,0,0,0-1.15.54,2.33,2.33,0,0,0-.42,1.48,2.19,2.19,0,0,0,.4,1.37,1.33,1.33,0,0,0,1.09.5,1.38,1.38,0,0,0,1.08-.49A1.79,1.79,0,0,0,116.24,146.91Z"/><path class="cls-6" d="M122.68,146.87h-3.53a1.83,1.83,0,0,0,.45,1.29,1.57,1.57,0,0,0,1.18.46,2.46,2.46,0,0,0,1.55-.56v.75a2.89,2.89,0,0,1-1.74.48,2.1,2.1,0,0,1-1.66-.68,2.77,2.77,0,0,1-.61-1.92,2.73,2.73,0,0,1,.66-1.9,2.12,2.12,0,0,1,1.64-.73,1.88,1.88,0,0,1,1.52.63,2.63,2.63,0,0,1,.54,1.76Zm-.82-.68a1.53,1.53,0,0,0-.34-1.07,1.11,1.11,0,0,0-.91-.39,1.28,1.28,0,0,0-1,.4,1.81,1.81,0,0,0-.49,1.06Z"/><path class="cls-6" d="M127.45,148.45h0v3h-.8v-7.3h.8v.88h0a1.89,1.89,0,0,1,1.73-1,1.83,1.83,0,0,1,1.51.67,2.76,2.76,0,0,1,.54,1.8,3.11,3.11,0,0,1-.61,2,2,2,0,0,1-1.67.75A1.67,1.67,0,0,1,127.45,148.45Zm0-2v.7a1.49,1.49,0,0,0,.4,1.05,1.43,1.43,0,0,0,2.17-.12,2.6,2.6,0,0,0,.41-1.55,2,2,0,0,0-.39-1.31,1.27,1.27,0,0,0-1-.47,1.39,1.39,0,0,0-1.12.49A1.74,1.74,0,0,0,127.43,146.43Z"/><path class="cls-6" d="M136.55,149.17h-.8v-.79h0a1.63,1.63,0,0,1-1.54.91c-1.19,0-1.79-.71-1.79-2.13v-3h.8V147c0,1.06.4,1.59,1.21,1.59a1.21,1.21,0,0,0,1-.44,1.6,1.6,0,0,0,.38-1.13v-2.88h.8Z"/><path class="cls-6" d="M139,148.45h0v.72h-.8v-7.4h.8v3.28h0a1.89,1.89,0,0,1,1.73-1,1.81,1.81,0,0,1,1.5.67,2.71,2.71,0,0,1,.55,1.8,3.17,3.17,0,0,1-.61,2,2,2,0,0,1-1.67.75A1.65,1.65,0,0,1,139,148.45Zm0-2v.7a1.45,1.45,0,0,0,.4,1.05,1.34,1.34,0,0,0,1,.44,1.36,1.36,0,0,0,1.15-.56,2.6,2.6,0,0,0,.41-1.55,2,2,0,0,0-.39-1.31,1.28,1.28,0,0,0-1-.47,1.42,1.42,0,0,0-1.13.49A1.78,1.78,0,0,0,139,146.43Z"/><path class="cls-6" d="M144.85,149.17h-.8v-7.4h.8Z"/><path class="cls-6" d="M146.88,142.9a.55.55,0,0,1-.37-.14.5.5,0,0,1-.15-.37.52.52,0,0,1,.15-.38.51.51,0,0,1,.37-.15.5.5,0,0,1,.37.15.49.49,0,0,1,.16.38.46.46,0,0,1-.16.36A.5.5,0,0,1,146.88,142.9Zm.39,6.27h-.8v-5h.8Z"/><path class="cls-6" d="M152.91,146.87h-3.53a1.83,1.83,0,0,0,.45,1.29,1.55,1.55,0,0,0,1.18.46,2.46,2.46,0,0,0,1.55-.56v.75a2.89,2.89,0,0,1-1.74.48,2.1,2.1,0,0,1-1.66-.68,2.77,2.77,0,0,1-.61-1.92,2.73,2.73,0,0,1,.66-1.9,2.12,2.12,0,0,1,1.64-.73,1.88,1.88,0,0,1,1.52.63,2.63,2.63,0,0,1,.54,1.76Zm-.82-.68a1.53,1.53,0,0,0-.34-1.07,1.11,1.11,0,0,0-.91-.39,1.28,1.28,0,0,0-1,.4,1.81,1.81,0,0,0-.49,1.06Z"/><path class="cls-6" d="M156.73,145a1,1,0,0,0-.61-.16,1,1,0,0,0-.85.49,2.21,2.21,0,0,0-.35,1.31v2.55h-.8v-5h.8v1h0a1.84,1.84,0,0,1,.52-.82,1.2,1.2,0,0,1,.79-.3,1.43,1.43,0,0,1,.48.07Z"/><path class="cls-6" d="M164.38,149.17h-.8v-.79h0a1.64,1.64,0,0,1-1.54.91c-1.2,0-1.79-.71-1.79-2.13v-3h.8V147c0,1.06.4,1.59,1.21,1.59a1.21,1.21,0,0,0,1-.44,1.64,1.64,0,0,0,.38-1.13v-2.88h.8Z"/><path class="cls-6" d="M170.15,149.17h-.8v-2.85q0-1.59-1.17-1.59a1.25,1.25,0,0,0-1,.45,1.68,1.68,0,0,0-.39,1.14v2.85H166v-5h.8V145h0a1.79,1.79,0,0,1,1.64-.94,1.51,1.51,0,0,1,1.25.53,2.35,2.35,0,0,1,.44,1.53Z"/><path class="cls-6" d="M178,149.17h-.8v-.78h0a1.68,1.68,0,0,1-1.54.9,1.6,1.6,0,0,1-1.16-.4,1.34,1.34,0,0,1-.43-1c0-.93.55-1.47,1.65-1.63l1.5-.21c0-.85-.34-1.27-1-1.27a2.47,2.47,0,0,0-1.63.61v-.82a3.12,3.12,0,0,1,1.7-.46c1.18,0,1.76.62,1.76,1.86Zm-.8-2.53-1.2.17a1.84,1.84,0,0,0-.84.28.79.79,0,0,0-.29.7.74.74,0,0,0,.27.59,1,1,0,0,0,.69.24,1.26,1.26,0,0,0,1-.42,1.49,1.49,0,0,0,.39-1.06Z"/><path class="cls-6" d="M182.09,145a1,1,0,0,0-.61-.16,1,1,0,0,0-.85.49,2.21,2.21,0,0,0-.35,1.31v2.55h-.8v-5h.8v1h0a1.84,1.84,0,0,1,.52-.82,1.2,1.2,0,0,1,.79-.3,1.43,1.43,0,0,1,.48.07Z"/><path class="cls-6" d="M185.28,149.12a1.49,1.49,0,0,1-.75.16c-.87,0-1.31-.49-1.31-1.46v-3h-.86v-.69h.86V143l.8-.26v1.48h1.26v.69H184v2.81a1.12,1.12,0,0,0,.17.72.69.69,0,0,0,.57.22.85.85,0,0,0,.52-.17Z"/><path class="cls-6" d="M186.76,142.9a.53.53,0,0,1-.37-.14.5.5,0,0,1-.15-.37.52.52,0,0,1,.15-.38.5.5,0,0,1,.37-.15.51.51,0,0,1,.37.15.52.52,0,0,1,.15.38.49.49,0,0,1-.15.36A.51.51,0,0,1,186.76,142.9Zm.39,6.27h-.8v-5h.8Z"/><path class="cls-6" d="M192.18,148.94a2.63,2.63,0,0,1-1.37.35,2.26,2.26,0,0,1-1.73-.7,2.53,2.53,0,0,1-.65-1.8,2.72,2.72,0,0,1,.71-2,2.47,2.47,0,0,1,1.89-.75,2.7,2.7,0,0,1,1.16.24v.82a2,2,0,0,0-1.19-.39,1.61,1.61,0,0,0-1.26.55,2.06,2.06,0,0,0-.49,1.44,2,2,0,0,0,.46,1.39,1.59,1.59,0,0,0,1.24.51,2,2,0,0,0,1.23-.44Z"/><path class="cls-6" d="M194.19,149.17h-.8v-7.4h.8Z"/><path class="cls-6" d="M199.83,146.87H196.3a1.83,1.83,0,0,0,.45,1.29,1.55,1.55,0,0,0,1.18.46,2.46,2.46,0,0,0,1.55-.56v.75a2.89,2.89,0,0,1-1.74.48,2.14,2.14,0,0,1-1.67-.68,2.81,2.81,0,0,1-.6-1.92,2.73,2.73,0,0,1,.66-1.9,2.12,2.12,0,0,1,1.64-.73,1.88,1.88,0,0,1,1.52.63,2.63,2.63,0,0,1,.54,1.76Zm-.82-.68a1.58,1.58,0,0,0-.34-1.07,1.12,1.12,0,0,0-.91-.39,1.28,1.28,0,0,0-1,.4,1.81,1.81,0,0,0-.49,1.06Z"/><path class="cls-6" d="M203.48,149v-.86a2.36,2.36,0,0,0,1.44.49c.7,0,1.05-.24,1.05-.71a.64.64,0,0,0-.09-.34.91.91,0,0,0-.24-.24,3.07,3.07,0,0,0-.36-.2l-.45-.17a5.37,5.37,0,0,1-.58-.27,1.74,1.74,0,0,1-.42-.3,1.11,1.11,0,0,1-.26-.39,1.28,1.28,0,0,1-.08-.5,1.17,1.17,0,0,1,.16-.62,1.44,1.44,0,0,1,.43-.46,2,2,0,0,1,.61-.27,2.82,2.82,0,0,1,.71-.09,2.86,2.86,0,0,1,1.16.22v.81a2.27,2.27,0,0,0-1.27-.36,1.62,1.62,0,0,0-.4.05.89.89,0,0,0-.31.14.62.62,0,0,0-.2.23.53.53,0,0,0-.07.28.67.67,0,0,0,.07.33.55.55,0,0,0,.2.23,2.17,2.17,0,0,0,.34.19l.44.18a5.68,5.68,0,0,1,.6.26,2.52,2.52,0,0,1,.45.3,1.48,1.48,0,0,1,.28.39,1.21,1.21,0,0,1,.1.52,1.23,1.23,0,0,1-.16.65,1.45,1.45,0,0,1-.44.45,2,2,0,0,1-.63.27,3.08,3.08,0,0,1-.75.09A2.78,2.78,0,0,1,203.48,149Z"/><path class="cls-6" d="M208.43,142.9a.52.52,0,0,1-.36-.14.51.51,0,0,1-.16-.37.53.53,0,0,1,.16-.38.49.49,0,0,1,.36-.15.54.54,0,0,1,.38.15.52.52,0,0,1,.15.38.49.49,0,0,1-.15.36A.54.54,0,0,1,208.43,142.9Zm.39,6.27H208v-5h.8Z"/><path class="cls-6" d="M74.41,161.17h-.8v-.79h0a1.64,1.64,0,0,1-1.55.91c-1.19,0-1.78-.71-1.78-2.13v-3h.79V159c0,1.06.41,1.59,1.21,1.59a1.22,1.22,0,0,0,1-.44,1.64,1.64,0,0,0,.38-1.13v-2.88h.8Z"/><path class="cls-6" d="M80.17,161.17h-.8v-2.85c0-1.06-.38-1.59-1.16-1.59a1.25,1.25,0,0,0-1,.45,1.68,1.68,0,0,0-.4,1.14v2.85H76v-5h.8V157h0a1.81,1.81,0,0,1,1.65-.94,1.51,1.51,0,0,1,1.25.53,2.34,2.34,0,0,1,.43,1.53Z"/><path class="cls-6" d="M85.7,158.87H82.17a1.83,1.83,0,0,0,.45,1.29,1.57,1.57,0,0,0,1.18.46,2.49,2.49,0,0,0,1.56-.56v.75a2.92,2.92,0,0,1-1.75.48,2.12,2.12,0,0,1-1.66-.68,2.77,2.77,0,0,1-.61-1.92,2.73,2.73,0,0,1,.66-1.9,2.12,2.12,0,0,1,1.65-.73,1.86,1.86,0,0,1,1.51.63,2.63,2.63,0,0,1,.54,1.76Zm-.82-.68a1.57,1.57,0,0,0-.33-1.07,1.14,1.14,0,0,0-.92-.39,1.28,1.28,0,0,0-1,.4,1.87,1.87,0,0,0-.49,1.06Z"/><path class="cls-6" d="M93.58,156.17l-2,5H90.8l-1.89-5h.88l1.27,3.64a3.27,3.27,0,0,1,.17.69h0a3.88,3.88,0,0,1,.16-.67l1.33-3.66Z"/><path class="cls-6" d="M98.46,158.87H94.93a1.83,1.83,0,0,0,.45,1.29,1.57,1.57,0,0,0,1.18.46,2.46,2.46,0,0,0,1.55-.56v.75a2.89,2.89,0,0,1-1.74.48,2.1,2.1,0,0,1-1.66-.68,2.77,2.77,0,0,1-.61-1.92,2.73,2.73,0,0,1,.66-1.9,2.12,2.12,0,0,1,1.65-.73,1.86,1.86,0,0,1,1.51.63,2.63,2.63,0,0,1,.54,1.76Zm-.82-.68a1.57,1.57,0,0,0-.33-1.07,1.14,1.14,0,0,0-.92-.39,1.28,1.28,0,0,0-1,.4,1.81,1.81,0,0,0-.49,1.06Z"/><path class="cls-6" d="M102.28,157a1,1,0,0,0-.61-.16,1,1,0,0,0-.85.49,2.21,2.21,0,0,0-.35,1.31v2.55h-.8v-5h.8v1h0a1.84,1.84,0,0,1,.52-.82,1.2,1.2,0,0,1,.79-.3,1.43,1.43,0,0,1,.48.07Z"/><path class="cls-6" d="M102.85,161v-.86a2.36,2.36,0,0,0,1.44.49c.7,0,1-.24,1-.71a.64.64,0,0,0-.09-.34.91.91,0,0,0-.24-.24,2.56,2.56,0,0,0-.37-.2l-.44-.17c-.22-.09-.42-.18-.59-.27a2.25,2.25,0,0,1-.42-.3,1.24,1.24,0,0,1-.25-.39,1.28,1.28,0,0,1-.08-.5,1.17,1.17,0,0,1,.16-.62,1.44,1.44,0,0,1,.43-.46,2,2,0,0,1,.61-.27,2.82,2.82,0,0,1,.71-.09,2.86,2.86,0,0,1,1.16.22v.81a2.27,2.27,0,0,0-1.27-.36,1.62,1.62,0,0,0-.4.05.89.89,0,0,0-.31.14.62.62,0,0,0-.2.23.53.53,0,0,0-.07.28.67.67,0,0,0,.07.33.55.55,0,0,0,.2.23,2.17,2.17,0,0,0,.34.19l.44.18a5.68,5.68,0,0,1,.6.26,2.52,2.52,0,0,1,.45.3,1.48,1.48,0,0,1,.28.39,1.21,1.21,0,0,1,.1.52,1.23,1.23,0,0,1-.16.65,1.45,1.45,0,0,1-.44.45,2,2,0,0,1-.63.27,3.08,3.08,0,0,1-.75.09A2.78,2.78,0,0,1,102.85,161Z"/><path class="cls-6" d="M107.8,154.9a.52.52,0,0,1-.36-.14.47.47,0,0,1-.16-.37.53.53,0,0,1,.52-.53.54.54,0,0,1,.38.15.52.52,0,0,1,.15.38.49.49,0,0,1-.15.36A.54.54,0,0,1,107.8,154.9Zm.39,6.27h-.8v-5h.8Z"/><path class="cls-6" d="M111.9,161.29a2.31,2.31,0,0,1-1.77-.7,2.61,2.61,0,0,1-.66-1.86,2.72,2.72,0,0,1,.69-2,2.48,2.48,0,0,1,1.86-.7,2.29,2.29,0,0,1,1.75.68,2.78,2.78,0,0,1,.62,1.91,2.69,2.69,0,0,1-.67,1.92A2.38,2.38,0,0,1,111.9,161.29Zm.06-4.56a1.52,1.52,0,0,0-1.22.52,2.17,2.17,0,0,0-.45,1.45,2,2,0,0,0,.46,1.4,1.5,1.5,0,0,0,1.21.52,1.47,1.47,0,0,0,1.2-.51,2.21,2.21,0,0,0,.41-1.43,2.26,2.26,0,0,0-.41-1.44A1.47,1.47,0,0,0,112,156.73Z"/><path class="cls-6" d="M119.82,161.17H119v-2.85c0-1.06-.38-1.59-1.16-1.59a1.25,1.25,0,0,0-1,.45,1.64,1.64,0,0,0-.4,1.14v2.85h-.8v-5h.8V157h0a1.81,1.81,0,0,1,1.64-.94,1.52,1.52,0,0,1,1.26.53,2.34,2.34,0,0,1,.43,1.53Z"/><path class="cls-6" d="M128.22,161.17h-.8v-2.85c0-1.06-.39-1.59-1.16-1.59a1.29,1.29,0,0,0-1,.45,1.68,1.68,0,0,0-.39,1.14v2.85h-.8v-5h.8V157h0a1.81,1.81,0,0,1,1.64-.94,1.52,1.52,0,0,1,1.26.53,2.34,2.34,0,0,1,.43,1.53Z"/><path class="cls-6" d="M131.82,161.29a2.31,2.31,0,0,1-1.77-.7,2.61,2.61,0,0,1-.66-1.86,2.72,2.72,0,0,1,.69-2,2.48,2.48,0,0,1,1.86-.7,2.27,2.27,0,0,1,1.74.68,2.73,2.73,0,0,1,.63,1.91,2.69,2.69,0,0,1-.67,1.92A2.39,2.39,0,0,1,131.82,161.29Zm.06-4.56a1.51,1.51,0,0,0-1.22.52,2.17,2.17,0,0,0-.45,1.45,2,2,0,0,0,.45,1.4,1.54,1.54,0,0,0,1.22.52,1.43,1.43,0,0,0,1.19-.51,2.16,2.16,0,0,0,.42-1.43,2.21,2.21,0,0,0-.42-1.44A1.43,1.43,0,0,0,131.88,156.73Z"/><path class="cls-6" d="M139.74,161.17h-.8v-2.85c0-1.06-.39-1.59-1.16-1.59a1.29,1.29,0,0,0-1,.45,1.68,1.68,0,0,0-.39,1.14v2.85h-.8v-5h.8V157h0a1.81,1.81,0,0,1,1.64-.94,1.52,1.52,0,0,1,1.26.53,2.34,2.34,0,0,1,.43,1.53Z"/><path class="cls-6" d="M147.92,156.17l-2,5h-.79l-1.89-5h.88l1.26,3.64a2.82,2.82,0,0,1,.18.69h0a3.13,3.13,0,0,1,.16-.67l1.32-3.66Z"/><path class="cls-6" d="M152.36,161.17h-.8v-.78h0a1.68,1.68,0,0,1-1.54.9,1.61,1.61,0,0,1-1.17-.4,1.36,1.36,0,0,1-.42-1c0-.93.55-1.47,1.65-1.63l1.5-.21c0-.85-.35-1.27-1-1.27a2.43,2.43,0,0,0-1.63.61v-.82a3.09,3.09,0,0,1,1.7-.46c1.17,0,1.76.62,1.76,1.86Zm-.8-2.53-1.21.17a1.84,1.84,0,0,0-.84.28.78.78,0,0,0-.28.7.76.76,0,0,0,.26.59,1,1,0,0,0,.7.24,1.29,1.29,0,0,0,1-.42,1.49,1.49,0,0,0,.39-1.06Z"/><path class="cls-6" d="M154.67,161.17h-.8v-7.4h.8Z"/><path class="cls-6" d="M156.7,154.9a.55.55,0,0,1-.37-.14.5.5,0,0,1-.15-.37.52.52,0,0,1,.15-.38.51.51,0,0,1,.37-.15.5.5,0,0,1,.37.15.49.49,0,0,1,.16.38.46.46,0,0,1-.16.36A.5.5,0,0,1,156.7,154.9Zm.39,6.27h-.8v-5h.8Z"/><path class="cls-6" d="M163,161.17h-.8v-.85h0a1.85,1.85,0,0,1-1.72,1,1.87,1.87,0,0,1-1.51-.67,2.8,2.8,0,0,1-.56-1.83,3,3,0,0,1,.62-2,2.07,2.07,0,0,1,1.67-.74,1.6,1.6,0,0,1,1.5.81h0v-3.1h.8Zm-.8-2.26v-.74a1.45,1.45,0,0,0-.4-1,1.36,1.36,0,0,0-1-.42,1.37,1.37,0,0,0-1.15.54,2.33,2.33,0,0,0-.42,1.48,2.13,2.13,0,0,0,.4,1.37,1.33,1.33,0,0,0,1.08.5,1.38,1.38,0,0,0,1.09-.49A1.79,1.79,0,0,0,162.18,158.91Z"/><path class="cls-6" d="M168.62,158.87h-3.53a1.83,1.83,0,0,0,.45,1.29,1.55,1.55,0,0,0,1.18.46,2.46,2.46,0,0,0,1.55-.56v.75a2.89,2.89,0,0,1-1.74.48,2.14,2.14,0,0,1-1.67-.68,2.81,2.81,0,0,1-.6-1.92,2.73,2.73,0,0,1,.66-1.9,2.12,2.12,0,0,1,1.64-.73,1.88,1.88,0,0,1,1.52.63,2.63,2.63,0,0,1,.54,1.76Zm-.82-.68a1.63,1.63,0,0,0-.34-1.07,1.12,1.12,0,0,0-.91-.39,1.28,1.28,0,0,0-1,.4,1.81,1.81,0,0,0-.49,1.06Zm-.13-4.57-1.28,1.61h-.62l1.09-1.61Z"/><path class="cls-6" d="M173.85,158.87h-3.53a1.83,1.83,0,0,0,.45,1.29,1.55,1.55,0,0,0,1.18.46,2.46,2.46,0,0,0,1.55-.56v.75a2.89,2.89,0,0,1-1.74.48,2.14,2.14,0,0,1-1.67-.68,2.81,2.81,0,0,1-.6-1.92,2.73,2.73,0,0,1,.66-1.9,2.12,2.12,0,0,1,1.64-.73,1.88,1.88,0,0,1,1.52.63,2.63,2.63,0,0,1,.54,1.76Zm-.82-.68a1.63,1.63,0,0,0-.34-1.07,1.12,1.12,0,0,0-.91-.39,1.28,1.28,0,0,0-1,.4,1.81,1.81,0,0,0-.49,1.06Z"/><path class="cls-6" d="M178.62,160.45h0v3h-.8v-7.3h.8v.88h0a1.89,1.89,0,0,1,1.73-1,1.84,1.84,0,0,1,1.51.67,2.76,2.76,0,0,1,.54,1.8,3.17,3.17,0,0,1-.61,2,2,2,0,0,1-1.67.75A1.67,1.67,0,0,1,178.62,160.45Zm0-2v.7a1.45,1.45,0,0,0,.4,1.05,1.42,1.42,0,0,0,2.16-.12,2.53,2.53,0,0,0,.42-1.55,2,2,0,0,0-.39-1.31,1.28,1.28,0,0,0-1-.47,1.42,1.42,0,0,0-1.13.49A1.78,1.78,0,0,0,178.6,158.43Z"/><path class="cls-6" d="M187.26,161.17h-.81v-.78h0a1.69,1.69,0,0,1-1.54.9,1.61,1.61,0,0,1-1.17-.4,1.36,1.36,0,0,1-.42-1c0-.93.55-1.47,1.65-1.63l1.49-.21c0-.85-.34-1.27-1-1.27a2.47,2.47,0,0,0-1.63.61v-.82a3.12,3.12,0,0,1,1.7-.46q1.77,0,1.77,1.86Zm-.81-2.53-1.2.17a1.84,1.84,0,0,0-.84.28.78.78,0,0,0-.28.7.73.73,0,0,0,.26.59,1,1,0,0,0,.69.24,1.29,1.29,0,0,0,1-.42,1.53,1.53,0,0,0,.38-1.06Z"/><path class="cls-6" d="M191.37,157a1,1,0,0,0-.6-.16,1,1,0,0,0-.86.49,2.21,2.21,0,0,0-.34,1.31v2.55h-.81v-5h.81v1h0a1.77,1.77,0,0,1,.53-.82,1.16,1.16,0,0,1,.78-.3,1.43,1.43,0,0,1,.48.07Z"/><path class="cls-6" d="M195.78,161.17H195v-7.4h.8Z"/><path class="cls-6" d="M201.42,158.87h-3.53a1.83,1.83,0,0,0,.45,1.29,1.57,1.57,0,0,0,1.18.46,2.46,2.46,0,0,0,1.55-.56v.75a2.89,2.89,0,0,1-1.74.48,2.1,2.1,0,0,1-1.66-.68,2.77,2.77,0,0,1-.61-1.92,2.73,2.73,0,0,1,.66-1.9,2.12,2.12,0,0,1,1.64-.73,1.87,1.87,0,0,1,1.52.63,2.63,2.63,0,0,1,.54,1.76Zm-.82-.68a1.57,1.57,0,0,0-.33-1.07,1.14,1.14,0,0,0-.92-.39,1.28,1.28,0,0,0-1,.4,1.81,1.81,0,0,0-.49,1.06Z"/><path class="cls-6" d="M202.33,161v-.86a2.39,2.39,0,0,0,1.44.49c.7,0,1-.24,1-.71a.64.64,0,0,0-.09-.34.91.91,0,0,0-.24-.24,2,2,0,0,0-.36-.2l-.45-.17c-.22-.09-.41-.18-.58-.27a1.74,1.74,0,0,1-.42-.3,1.27,1.27,0,0,1-.26-.39,1.5,1.5,0,0,1-.08-.5,1.17,1.17,0,0,1,.16-.62,1.57,1.57,0,0,1,.43-.46,2,2,0,0,1,.61-.27,3,3,0,0,1,1.87.13v.81a2.24,2.24,0,0,0-1.26-.36,1.7,1.7,0,0,0-.41.05,1,1,0,0,0-.31.14.72.72,0,0,0-.2.23.53.53,0,0,0-.07.28.67.67,0,0,0,.07.33.66.66,0,0,0,.21.23,1.69,1.69,0,0,0,.33.19l.44.18a4.9,4.9,0,0,1,.6.26,2.2,2.2,0,0,1,.45.3,1.28,1.28,0,0,1,.28.39,1.21,1.21,0,0,1,.1.52,1.23,1.23,0,0,1-.16.65,1.35,1.35,0,0,1-.44.45,2,2,0,0,1-.63.27,2.94,2.94,0,0,1-.74.09A2.82,2.82,0,0,1,202.33,161Z"/><path class="cls-6" d="M71.19,172.45h0v3h-.81v-7.3h.81v.88h0a1.89,1.89,0,0,1,1.72-1,1.82,1.82,0,0,1,1.51.67,2.76,2.76,0,0,1,.54,1.8,3.11,3.11,0,0,1-.61,2,2,2,0,0,1-1.67.75A1.67,1.67,0,0,1,71.19,172.45Zm0-2v.7a1.45,1.45,0,0,0,.4,1.05,1.42,1.42,0,0,0,2.16-.12,2.53,2.53,0,0,0,.41-1.55,2,2,0,0,0-.38-1.31,1.3,1.3,0,0,0-1.05-.47,1.4,1.4,0,0,0-1.12.49A1.78,1.78,0,0,0,71.17,170.43Z"/><path class="cls-6" d="M79.82,173.17H79v-.78h0a1.68,1.68,0,0,1-1.54.9,1.6,1.6,0,0,1-1.16-.4,1.34,1.34,0,0,1-.43-1c0-.93.55-1.47,1.65-1.63L79,170c0-.85-.34-1.27-1-1.27a2.47,2.47,0,0,0-1.63.61v-.82a3.12,3.12,0,0,1,1.7-.46c1.18,0,1.76.62,1.76,1.86Zm-.8-2.53-1.2.17a1.84,1.84,0,0,0-.84.28.79.79,0,0,0-.29.7.76.76,0,0,0,.26.59,1,1,0,0,0,.7.24,1.26,1.26,0,0,0,1-.42,1.49,1.49,0,0,0,.39-1.06Z"/><path class="cls-6" d="M81.74,166.9a.52.52,0,0,1-.36-.14.47.47,0,0,1-.16-.37.53.53,0,0,1,.52-.53.54.54,0,0,1,.38.15.52.52,0,0,1,.15.38.49.49,0,0,1-.15.36A.54.54,0,0,1,81.74,166.9Zm.39,6.27h-.8v-5h.8Z"/><path class="cls-6" d="M86.36,169a1,1,0,0,0-.6-.16,1,1,0,0,0-.86.49,2.21,2.21,0,0,0-.35,1.31v2.55h-.8v-5h.8v1h0a1.77,1.77,0,0,1,.53-.82,1.16,1.16,0,0,1,.78-.3,1.43,1.43,0,0,1,.48.07Z"/><path class="cls-6" d="M86.93,173v-.86a2.36,2.36,0,0,0,1.44.49c.7,0,1-.24,1-.71a.64.64,0,0,0-.09-.34.91.91,0,0,0-.24-.24,2.43,2.43,0,0,0-.36-.2l-.45-.17a5.37,5.37,0,0,1-.58-.27,1.74,1.74,0,0,1-.42-.3A1.11,1.11,0,0,1,87,170a1.5,1.5,0,0,1-.08-.5,1.17,1.17,0,0,1,.16-.62,1.57,1.57,0,0,1,.43-.46,2,2,0,0,1,.61-.27,2.82,2.82,0,0,1,.71-.09,2.86,2.86,0,0,1,1.16.22v.81a2.25,2.25,0,0,0-1.27-.36,1.62,1.62,0,0,0-.4.05.89.89,0,0,0-.31.14.72.72,0,0,0-.2.23.53.53,0,0,0-.07.28.67.67,0,0,0,.07.33A.58.58,0,0,0,88,170a1.69,1.69,0,0,0,.33.19l.44.18a5.68,5.68,0,0,1,.6.26,2.52,2.52,0,0,1,.45.3,1.28,1.28,0,0,1,.28.39,1.21,1.21,0,0,1,.1.52,1.23,1.23,0,0,1-.16.65,1.45,1.45,0,0,1-.44.45,2,2,0,0,1-.63.27,3,3,0,0,1-.74.09A2.79,2.79,0,0,1,86.93,173Z"/><path class="cls-6" d="M97.79,173.17H97v-.78h0a1.68,1.68,0,0,1-1.54.9,1.65,1.65,0,0,1-1.17-.4,1.36,1.36,0,0,1-.42-1c0-.93.55-1.47,1.65-1.63L97,170c0-.85-.34-1.27-1-1.27a2.45,2.45,0,0,0-1.63.61v-.82a3.12,3.12,0,0,1,1.7-.46c1.17,0,1.76.62,1.76,1.86Zm-.8-2.53-1.21.17a1.75,1.75,0,0,0-.83.28.79.79,0,0,0-.29.7.76.76,0,0,0,.26.59,1,1,0,0,0,.7.24,1.27,1.27,0,0,0,1-.42,1.49,1.49,0,0,0,.39-1.06Z"/><path class="cls-6" d="M106.06,170.87h-3.53a1.83,1.83,0,0,0,.45,1.29,1.55,1.55,0,0,0,1.18.46,2.46,2.46,0,0,0,1.55-.56v.75a2.89,2.89,0,0,1-1.74.48,2.14,2.14,0,0,1-1.67-.68,2.81,2.81,0,0,1-.6-1.92,2.73,2.73,0,0,1,.66-1.9,2.12,2.12,0,0,1,1.64-.73,1.88,1.88,0,0,1,1.52.63,2.63,2.63,0,0,1,.54,1.76Zm-.82-.68a1.63,1.63,0,0,0-.34-1.07,1.12,1.12,0,0,0-.91-.39,1.28,1.28,0,0,0-1,.4,1.81,1.81,0,0,0-.49,1.06Zm-.13-4.57-1.28,1.61h-.62l1.09-1.61Z"/><path class="cls-6" d="M109.59,173.12a1.49,1.49,0,0,1-.75.16c-.87,0-1.31-.49-1.31-1.46v-3h-.86v-.69h.86V167l.8-.26v1.48h1.26v.69h-1.26v2.81a1.19,1.19,0,0,0,.17.72.69.69,0,0,0,.57.22.85.85,0,0,0,.52-.17Z"/><path class="cls-6" d="M114.68,170.87h-3.53a1.87,1.87,0,0,0,.44,1.29,1.59,1.59,0,0,0,1.19.46,2.46,2.46,0,0,0,1.55-.56v.75a2.89,2.89,0,0,1-1.74.48,2.14,2.14,0,0,1-1.67-.68,2.81,2.81,0,0,1-.6-1.92,2.73,2.73,0,0,1,.66-1.9,2.12,2.12,0,0,1,1.64-.73,1.9,1.9,0,0,1,1.52.63,2.63,2.63,0,0,1,.54,1.76Zm-.82-.68a1.63,1.63,0,0,0-.34-1.07,1.12,1.12,0,0,0-.91-.39,1.31,1.31,0,0,0-1,.4,1.86,1.86,0,0,0-.48,1.06Zm-.13-4.57-1.28,1.61h-.62l1.09-1.61Z"/><path class="cls-6" d="M122.89,173.17h-.8v-.85h0a1.83,1.83,0,0,1-1.71,1,1.86,1.86,0,0,1-1.51-.67,2.74,2.74,0,0,1-.56-1.83,3,3,0,0,1,.62-2,2.06,2.06,0,0,1,1.67-.74,1.59,1.59,0,0,1,1.49.81h0v-3.1h.8Zm-.8-2.26v-.74a1.41,1.41,0,0,0-.4-1,1.32,1.32,0,0,0-1-.42,1.37,1.37,0,0,0-1.15.54,2.33,2.33,0,0,0-.42,1.48,2.13,2.13,0,0,0,.4,1.37,1.33,1.33,0,0,0,1.08.5,1.38,1.38,0,0,0,1.09-.49A1.78,1.78,0,0,0,122.09,170.91Z"/><path class="cls-6" d="M124.93,166.9a.53.53,0,0,1-.37-.14.5.5,0,0,1-.15-.37.52.52,0,0,1,.15-.38.5.5,0,0,1,.37-.15.51.51,0,0,1,.37.15.52.52,0,0,1,.15.38.49.49,0,0,1-.15.36A.51.51,0,0,1,124.93,166.9Zm.39,6.27h-.8v-5h.8Z"/><path class="cls-6" d="M129.41,166.47a1.19,1.19,0,0,0-.53-.13c-.56,0-.84.35-.84,1.06v.77h1.17v.69H128v4.31h-.8v-4.31h-.85v-.69h.85v-.81a1.69,1.69,0,0,1,.45-1.24,1.59,1.59,0,0,1,1.14-.46,1.57,1.57,0,0,1,.58.09Z"/><path class="cls-6" d="M132.54,166.47a1.19,1.19,0,0,0-.53-.13c-.56,0-.84.35-.84,1.06v.77h1.17v.69h-1.17v4.31h-.8v-4.31h-.85v-.69h.85v-.81a1.69,1.69,0,0,1,.45-1.24,1.59,1.59,0,0,1,1.14-.46,1.57,1.57,0,0,1,.58.09Z"/><path class="cls-6" d="M137.24,173.17h-.8v-.79h0a1.64,1.64,0,0,1-1.54.91c-1.19,0-1.79-.71-1.79-2.13v-3h.8V171c0,1.06.4,1.59,1.21,1.59a1.21,1.21,0,0,0,1-.44,1.64,1.64,0,0,0,.38-1.13v-2.88h.8Z"/><path class="cls-6" d="M138.55,173v-.86a2.41,2.41,0,0,0,1.44.49c.71,0,1.06-.24,1.06-.71a.64.64,0,0,0-.09-.34.82.82,0,0,0-.25-.24,2,2,0,0,0-.36-.2l-.44-.17a5.6,5.6,0,0,1-.59-.27,2,2,0,0,1-.42-.3,1.24,1.24,0,0,1-.25-.39,1.34,1.34,0,0,1,.07-1.12,1.71,1.71,0,0,1,.43-.46,2,2,0,0,1,.62-.27,2.76,2.76,0,0,1,.71-.09,2.86,2.86,0,0,1,1.16.22v.81a2.27,2.27,0,0,0-1.27-.36,1.62,1.62,0,0,0-.4.05.81.81,0,0,0-.31.14.76.76,0,0,0-.21.23.64.64,0,0,0-.07.28.81.81,0,0,0,.07.33.66.66,0,0,0,.21.23,1.69,1.69,0,0,0,.33.19l.45.18a4.72,4.72,0,0,1,.59.26,2,2,0,0,1,.45.3,1.32,1.32,0,0,1,.29.39,1.21,1.21,0,0,1,.1.52,1.33,1.33,0,0,1-.16.65,1.45,1.45,0,0,1-.44.45,2,2,0,0,1-.63.27,3.08,3.08,0,0,1-.75.09A2.85,2.85,0,0,1,138.55,173Z"/><path class="cls-6" d="M147.12,170.87h-3.53a1.83,1.83,0,0,0,.45,1.29,1.55,1.55,0,0,0,1.18.46,2.46,2.46,0,0,0,1.55-.56v.75a2.89,2.89,0,0,1-1.74.48,2.14,2.14,0,0,1-1.67-.68,2.81,2.81,0,0,1-.6-1.92,2.73,2.73,0,0,1,.66-1.9,2.12,2.12,0,0,1,1.64-.73,1.88,1.88,0,0,1,1.52.63,2.63,2.63,0,0,1,.54,1.76Zm-.82-.68a1.58,1.58,0,0,0-.34-1.07,1.12,1.12,0,0,0-.91-.39,1.28,1.28,0,0,0-1,.4,1.81,1.81,0,0,0-.49,1.06Zm-.13-4.57-1.28,1.61h-.62l1.09-1.61Z"/><path class="cls-6" d="M152.35,170.87h-3.53a1.83,1.83,0,0,0,.45,1.29,1.55,1.55,0,0,0,1.18.46,2.46,2.46,0,0,0,1.55-.56v.75a2.89,2.89,0,0,1-1.74.48,2.14,2.14,0,0,1-1.67-.68,2.81,2.81,0,0,1-.6-1.92,2.73,2.73,0,0,1,.66-1.9,2.12,2.12,0,0,1,1.64-.73,1.88,1.88,0,0,1,1.52.63,2.63,2.63,0,0,1,.54,1.76Zm-.82-.68a1.58,1.58,0,0,0-.34-1.07,1.12,1.12,0,0,0-.91-.39,1.28,1.28,0,0,0-1,.4,1.81,1.81,0,0,0-.49,1.06Z"/><path class="cls-6" d="M156,173v-.86a2.36,2.36,0,0,0,1.44.49c.7,0,1.05-.24,1.05-.71a.64.64,0,0,0-.09-.34.91.91,0,0,0-.24-.24,2.56,2.56,0,0,0-.37-.2l-.44-.17a5.37,5.37,0,0,1-.58-.27,1.74,1.74,0,0,1-.42-.3,1.11,1.11,0,0,1-.26-.39,1.28,1.28,0,0,1-.08-.5,1.17,1.17,0,0,1,.16-.62,1.44,1.44,0,0,1,.43-.46,2,2,0,0,1,.61-.27,2.82,2.82,0,0,1,.71-.09,2.86,2.86,0,0,1,1.16.22v.81a2.27,2.27,0,0,0-1.27-.36,1.62,1.62,0,0,0-.4.05.89.89,0,0,0-.31.14.62.62,0,0,0-.2.23.53.53,0,0,0-.07.28.67.67,0,0,0,.07.33.55.55,0,0,0,.2.23,2.17,2.17,0,0,0,.34.19l.44.18a5.68,5.68,0,0,1,.6.26,2.52,2.52,0,0,1,.45.3,1.48,1.48,0,0,1,.28.39,1.21,1.21,0,0,1,.1.52,1.23,1.23,0,0,1-.16.65,1.45,1.45,0,0,1-.44.45,2,2,0,0,1-.63.27,3.08,3.08,0,0,1-.75.09A2.78,2.78,0,0,1,156,173Z"/><path class="cls-6" d="M164.58,173.17h-.8v-.79h0a1.63,1.63,0,0,1-1.54.91c-1.19,0-1.79-.71-1.79-2.13v-3h.8V171c0,1.06.4,1.59,1.21,1.59a1.25,1.25,0,0,0,1-.44,1.64,1.64,0,0,0,.37-1.13v-2.88h.8Z"/><path class="cls-6" d="M168.81,169a1,1,0,0,0-.61-.16,1,1,0,0,0-.85.49,2.21,2.21,0,0,0-.35,1.31v2.55h-.8v-5h.8v1h0a1.84,1.84,0,0,1,.52-.82,1.2,1.2,0,0,1,.79-.3,1.43,1.43,0,0,1,.48.07Z"/><path class="cls-6" d="M176.46,173.17h-.8v-.79h0a1.64,1.64,0,0,1-1.54.91c-1.19,0-1.79-.71-1.79-2.13v-3h.8V171c0,1.06.4,1.59,1.21,1.59a1.21,1.21,0,0,0,1-.44,1.64,1.64,0,0,0,.38-1.13v-2.88h.8Z"/><path class="cls-6" d="M182.23,173.17h-.8v-2.85q0-1.59-1.17-1.59a1.25,1.25,0,0,0-1,.45,1.68,1.68,0,0,0-.39,1.14v2.85h-.8v-5h.8V169h0a1.79,1.79,0,0,1,1.64-.94,1.51,1.51,0,0,1,1.25.53,2.35,2.35,0,0,1,.44,1.53Z"/><path class="cls-6" d="M186.17,173v-.86a2.41,2.41,0,0,0,1.44.49c.71,0,1.06-.24,1.06-.71a.64.64,0,0,0-.09-.34.82.82,0,0,0-.25-.24,2,2,0,0,0-.36-.2l-.45-.17c-.22-.09-.41-.18-.58-.27a1.74,1.74,0,0,1-.42-.3,1.08,1.08,0,0,1-.25-.39,1.34,1.34,0,0,1,.07-1.12,1.57,1.57,0,0,1,.43-.46,2.1,2.1,0,0,1,.61-.27,3.07,3.07,0,0,1,1.88.13v.81a2.27,2.27,0,0,0-1.27-.36,1.7,1.7,0,0,0-.41.05,1,1,0,0,0-.31.14.87.87,0,0,0-.2.23.64.64,0,0,0-.07.28.81.81,0,0,0,.07.33.66.66,0,0,0,.21.23,1.69,1.69,0,0,0,.33.19l.45.18a4.72,4.72,0,0,1,.59.26,2,2,0,0,1,.45.3,1.32,1.32,0,0,1,.29.39,1.38,1.38,0,0,1,.1.52,1.23,1.23,0,0,1-.17.65,1.42,1.42,0,0,1-.43.45,2.22,2.22,0,0,1-.63.27,3.08,3.08,0,0,1-.75.09A2.82,2.82,0,0,1,186.17,173Z"/><path class="cls-6" d="M194.74,170.87h-3.53a1.83,1.83,0,0,0,.45,1.29,1.55,1.55,0,0,0,1.18.46,2.46,2.46,0,0,0,1.55-.56v.75a2.89,2.89,0,0,1-1.74.48,2.13,2.13,0,0,1-1.67-.68,2.81,2.81,0,0,1-.6-1.92,2.73,2.73,0,0,1,.66-1.9,2.12,2.12,0,0,1,1.64-.73,1.9,1.9,0,0,1,1.52.63,2.63,2.63,0,0,1,.54,1.76Zm-.82-.68a1.63,1.63,0,0,0-.34-1.07,1.12,1.12,0,0,0-.91-.39,1.31,1.31,0,0,0-1,.4,1.86,1.86,0,0,0-.48,1.06Z"/><path class="cls-6" d="M198.55,169a1.07,1.07,0,0,0-1.46.33,2.21,2.21,0,0,0-.34,1.31v2.55H196v-5h.8v1h0a1.76,1.76,0,0,1,.52-.82,1.18,1.18,0,0,1,.79-.3,1.41,1.41,0,0,1,.47.07Z"/><path class="cls-6" d="M203.35,168.17l-2,5h-.78l-1.9-5h.88l1.27,3.64a4.17,4.17,0,0,1,.18.69h0a3.15,3.15,0,0,1,.15-.67l1.33-3.66Z"/><path class="cls-6" d="M208.23,170.87H204.7a1.83,1.83,0,0,0,.45,1.29,1.57,1.57,0,0,0,1.18.46,2.49,2.49,0,0,0,1.56-.56v.75a2.92,2.92,0,0,1-1.75.48,2.12,2.12,0,0,1-1.66-.68,2.77,2.77,0,0,1-.61-1.92,2.73,2.73,0,0,1,.66-1.9,2.12,2.12,0,0,1,1.65-.73,1.9,1.9,0,0,1,1.52.63,2.68,2.68,0,0,1,.53,1.76Zm-.82-.68a1.57,1.57,0,0,0-.33-1.07,1.14,1.14,0,0,0-.92-.39,1.28,1.28,0,0,0-1,.4,1.87,1.87,0,0,0-.49,1.06Z"/><path class="cls-6" d="M213.49,173.17h-.8v-.79h0a1.65,1.65,0,0,1-1.55.91c-1.19,0-1.78-.71-1.78-2.13v-3h.79V171c0,1.06.4,1.59,1.21,1.59a1.25,1.25,0,0,0,1-.44,1.64,1.64,0,0,0,.38-1.13v-2.88h.8Z"/><path class="cls-6" d="M217.71,169a1,1,0,0,0-.61-.16,1,1,0,0,0-.85.49,2.21,2.21,0,0,0-.35,1.31v2.55h-.8v-5h.8v1h0a1.77,1.77,0,0,1,.53-.82,1.16,1.16,0,0,1,.78-.3,1.43,1.43,0,0,1,.48.07Z"/><path class="cls-6" d="M74.63,185.17h-.8v-.85h0a2,2,0,0,1-3.22.3,2.75,2.75,0,0,1-.57-1.83,3,3,0,0,1,.63-2,2,2,0,0,1,1.66-.74,1.6,1.6,0,0,1,1.5.81h0v-3.1h.8Zm-.8-2.26v-.74a1.41,1.41,0,0,0-.4-1,1.34,1.34,0,0,0-1-.42,1.39,1.39,0,0,0-1.16.54,2.33,2.33,0,0,0-.42,1.48,2.13,2.13,0,0,0,.41,1.37,1.32,1.32,0,0,0,1.08.5,1.36,1.36,0,0,0,1.08-.49A1.79,1.79,0,0,0,73.83,182.91Z"/><path class="cls-6" d="M80.27,182.87H76.74a1.88,1.88,0,0,0,.45,1.29,1.57,1.57,0,0,0,1.18.46,2.49,2.49,0,0,0,1.56-.56v.75a2.9,2.9,0,0,1-1.75.48,2.12,2.12,0,0,1-1.66-.68,2.77,2.77,0,0,1-.61-1.92,2.73,2.73,0,0,1,.66-1.9,2.12,2.12,0,0,1,1.65-.73,1.9,1.9,0,0,1,1.52.63,2.68,2.68,0,0,1,.53,1.76Zm-.82-.68a1.57,1.57,0,0,0-.33-1.07,1.14,1.14,0,0,0-.92-.39,1.28,1.28,0,0,0-1,.4,1.87,1.87,0,0,0-.49,1.06Z"/><path class="cls-6" d="M84.92,178.17v2.18h-.71v-2.18Zm1.62,0v2.18h-.71v-2.18Z"/><path class="cls-6" d="M89,184.45h0v3h-.8v-7.3h.8v.88h0a1.9,1.9,0,0,1,1.73-1,1.82,1.82,0,0,1,1.51.67,2.76,2.76,0,0,1,.54,1.8,3.11,3.11,0,0,1-.61,2,2,2,0,0,1-1.67.75A1.68,1.68,0,0,1,89,184.45Zm0-2v.7a1.46,1.46,0,0,0,.41,1.05,1.42,1.42,0,0,0,2.16-.12,2.6,2.6,0,0,0,.41-1.55,2.06,2.06,0,0,0-.38-1.31,1.3,1.3,0,0,0-1.05-.47,1.4,1.4,0,0,0-1.12.49A1.79,1.79,0,0,0,88.94,182.43Z"/><path class="cls-6" d="M96.63,181a1,1,0,0,0-.61-.16,1,1,0,0,0-.85.49,2.21,2.21,0,0,0-.35,1.31v2.55H94v-5h.8v1h0a1.84,1.84,0,0,1,.52-.82,1.2,1.2,0,0,1,.79-.3,1.43,1.43,0,0,1,.48.07Z"/><path class="cls-6" d="M101.52,182.87H98a1.83,1.83,0,0,0,.45,1.29,1.55,1.55,0,0,0,1.18.46,2.46,2.46,0,0,0,1.55-.56v.75a2.89,2.89,0,0,1-1.74.48,2.14,2.14,0,0,1-1.67-.68,2.81,2.81,0,0,1-.6-1.92,2.73,2.73,0,0,1,.66-1.9,2.12,2.12,0,0,1,1.64-.73,1.88,1.88,0,0,1,1.52.63,2.63,2.63,0,0,1,.54,1.76Zm-.82-.68a1.63,1.63,0,0,0-.34-1.07,1.12,1.12,0,0,0-.91-.39,1.28,1.28,0,0,0-1,.4,1.81,1.81,0,0,0-.49,1.06Z"/><path class="cls-6" d="M103.55,184.45h0v3h-.8v-7.3h.8v.88h0a1.89,1.89,0,0,1,1.73-1,1.84,1.84,0,0,1,1.51.67,2.76,2.76,0,0,1,.54,1.8,3.17,3.17,0,0,1-.61,2,2,2,0,0,1-1.67.75A1.67,1.67,0,0,1,103.55,184.45Zm0-2v.7a1.45,1.45,0,0,0,.4,1.05,1.42,1.42,0,0,0,2.16-.12,2.53,2.53,0,0,0,.42-1.55,2,2,0,0,0-.39-1.31,1.28,1.28,0,0,0-1-.47,1.42,1.42,0,0,0-1.13.49A1.78,1.78,0,0,0,103.53,182.43Z"/><path class="cls-6" d="M111.21,181a1,1,0,0,0-.6-.16,1,1,0,0,0-.86.49,2.21,2.21,0,0,0-.34,1.31v2.55h-.8v-5h.8v1h0a1.76,1.76,0,0,1,.52-.82,1.18,1.18,0,0,1,.79-.3,1.41,1.41,0,0,1,.47.07Z"/><path class="cls-6" d="M112.49,178.9a.52.52,0,0,1-.36-.14.5.5,0,0,1-.15-.37.52.52,0,0,1,.15-.38.49.49,0,0,1,.36-.15.54.54,0,0,1,.38.15.52.52,0,0,1,.15.38.49.49,0,0,1-.15.36A.54.54,0,0,1,112.49,178.9Zm.39,6.27h-.8v-5h.8Z"/><path class="cls-6" d="M118.66,185.17h-.81v-2.85c0-1.06-.38-1.59-1.16-1.59a1.25,1.25,0,0,0-1,.45,1.68,1.68,0,0,0-.39,1.14v2.85h-.8v-5h.8V181h0a1.79,1.79,0,0,1,1.64-.94,1.51,1.51,0,0,1,1.25.53,2.35,2.35,0,0,1,.44,1.53Z"/><path class="cls-6" d="M122.48,185.12a1.43,1.43,0,0,1-.74.16q-1.32,0-1.32-1.47v-2.95h-.86v-.69h.86V179l.8-.26v1.48h1.26v.69h-1.26v2.81a1.19,1.19,0,0,0,.17.72.72.72,0,0,0,.57.22.83.83,0,0,0,.52-.17Z"/><path class="cls-6" d="M123.25,185v-.86a2.41,2.41,0,0,0,1.44.49c.7,0,1.06-.24,1.06-.71a.57.57,0,0,0-.1-.34.91.91,0,0,0-.24-.24,2,2,0,0,0-.36-.2l-.45-.17c-.22-.09-.41-.18-.58-.27a1.74,1.74,0,0,1-.42-.3,1.08,1.08,0,0,1-.25-.39,1.28,1.28,0,0,1-.09-.5,1.17,1.17,0,0,1,.16-.62,1.57,1.57,0,0,1,.43-.46,2,2,0,0,1,.61-.27,2.82,2.82,0,0,1,.71-.09,2.91,2.91,0,0,1,1.17.22v.81a2.27,2.27,0,0,0-1.27-.36,1.7,1.7,0,0,0-.41.05,1,1,0,0,0-.31.14.72.72,0,0,0-.2.23.53.53,0,0,0-.07.28.67.67,0,0,0,.07.33.66.66,0,0,0,.21.23,1.69,1.69,0,0,0,.33.19l.45.18a5.48,5.48,0,0,1,.59.26,2,2,0,0,1,.45.3,1.52,1.52,0,0,1,.29.39,1.38,1.38,0,0,1,.1.52,1.23,1.23,0,0,1-.17.65,1.42,1.42,0,0,1-.43.45,2.22,2.22,0,0,1-.63.27,3.08,3.08,0,0,1-.75.09A2.82,2.82,0,0,1,123.25,185Z"/><path class="cls-6" d="M128.49,178.17v2.18h-.71v-2.18Zm1.62,0v2.18h-.71v-2.18Z"/><path class="cls-6" d="M132,185.28a.53.53,0,0,1-.39-.16.57.57,0,0,1-.16-.39.53.53,0,0,1,.16-.38.53.53,0,0,1,.78,0,.53.53,0,0,1,.16.38.57.57,0,0,1-.16.39A.53.53,0,0,1,132,185.28Z"/><path class="cls-6" d="M75.49,221.17h-1l-1.18-2a3.83,3.83,0,0,0-.31-.47,1.51,1.51,0,0,0-.31-.31,1.24,1.24,0,0,0-.34-.18,1.31,1.31,0,0,0-.41-.06h-.68v3h-.82v-7h2.09a2.86,2.86,0,0,1,.85.12,1.84,1.84,0,0,1,.67.34,1.66,1.66,0,0,1,.45.59,1.88,1.88,0,0,1,.16.82,2.09,2.09,0,0,1-.11.67,1.81,1.81,0,0,1-.31.54,1.94,1.94,0,0,1-.49.41,2.45,2.45,0,0,1-.64.26v0a1.09,1.09,0,0,1,.3.18,1.34,1.34,0,0,1,.25.23,2.62,2.62,0,0,1,.23.32c.08.11.16.25.26.4Zm-4.2-6.26v2.54h1.12a1.69,1.69,0,0,0,.56-.09,1.24,1.24,0,0,0,.46-.27,1.17,1.17,0,0,0,.29-.42,1.32,1.32,0,0,0,.11-.57,1.1,1.1,0,0,0-.36-.87,1.57,1.57,0,0,0-1-.32Z"/><path class="cls-6" d="M80.07,218.87H76.54a1.83,1.83,0,0,0,.45,1.29,1.57,1.57,0,0,0,1.18.46,2.49,2.49,0,0,0,1.56-.56v.75a2.92,2.92,0,0,1-1.75.48,2.12,2.12,0,0,1-1.66-.68,2.77,2.77,0,0,1-.61-1.92,2.73,2.73,0,0,1,.66-1.9,2.12,2.12,0,0,1,1.65-.73,1.86,1.86,0,0,1,1.51.63,2.63,2.63,0,0,1,.54,1.76Zm-.82-.68a1.62,1.62,0,0,0-.33-1.08,1.17,1.17,0,0,0-.92-.38,1.28,1.28,0,0,0-1,.4,1.87,1.87,0,0,0-.49,1.06Zm-.13-4.57-1.27,1.61h-.62l1.08-1.61Z"/><path class="cls-6" d="M82.1,220.45h0v3h-.8v-7.3h.8v.88h0a1.9,1.9,0,0,1,1.73-1,1.82,1.82,0,0,1,1.51.67,2.76,2.76,0,0,1,.54,1.8,3.11,3.11,0,0,1-.61,2,2,2,0,0,1-1.67.75A1.67,1.67,0,0,1,82.1,220.45Zm0-2v.7a1.46,1.46,0,0,0,.41,1.05,1.34,1.34,0,0,0,1,.44,1.36,1.36,0,0,0,1.14-.56,2.6,2.6,0,0,0,.41-1.55,2.06,2.06,0,0,0-.38-1.31,1.3,1.3,0,0,0-1.05-.47,1.4,1.4,0,0,0-1.12.49A1.77,1.77,0,0,0,82.08,218.43Z"/><path class="cls-6" d="M89.25,221.29a2.31,2.31,0,0,1-1.77-.7,2.61,2.61,0,0,1-.66-1.86,2.72,2.72,0,0,1,.69-2,2.48,2.48,0,0,1,1.86-.7,2.22,2.22,0,0,1,1.74.68,2.73,2.73,0,0,1,.63,1.91,2.69,2.69,0,0,1-.67,1.92A2.39,2.39,0,0,1,89.25,221.29Zm.06-4.56a1.52,1.52,0,0,0-1.22.52,2.17,2.17,0,0,0-.45,1.45,2,2,0,0,0,.45,1.4,1.57,1.57,0,0,0,1.22.52,1.43,1.43,0,0,0,1.19-.51,2.16,2.16,0,0,0,.42-1.43,2.21,2.21,0,0,0-.42-1.44A1.43,1.43,0,0,0,89.31,216.73Z"/><path class="cls-6" d="M97.17,221.17h-.8v-2.85c0-1.06-.39-1.59-1.16-1.59a1.25,1.25,0,0,0-1,.45,1.64,1.64,0,0,0-.4,1.14v2.85H93v-5h.8V217h0a1.81,1.81,0,0,1,1.64-.94,1.52,1.52,0,0,1,1.26.53,2.34,2.34,0,0,1,.43,1.53Z"/><path class="cls-6" d="M98.38,221v-.86a2.36,2.36,0,0,0,1.44.49c.7,0,1.05-.24,1.05-.71a.64.64,0,0,0-.09-.34.91.91,0,0,0-.24-.24,2,2,0,0,0-.36-.2l-.45-.17a5.37,5.37,0,0,1-.58-.27,1.74,1.74,0,0,1-.42-.3,1.11,1.11,0,0,1-.26-.39,1.5,1.5,0,0,1-.08-.5,1.17,1.17,0,0,1,.16-.62,1.57,1.57,0,0,1,.43-.46,2,2,0,0,1,.61-.27,2.82,2.82,0,0,1,.71-.09,2.86,2.86,0,0,1,1.16.22v.81a2.25,2.25,0,0,0-1.27-.36,1.62,1.62,0,0,0-.4.05,1,1,0,0,0-.31.14.72.72,0,0,0-.2.23.53.53,0,0,0-.07.28.67.67,0,0,0,.07.33.58.58,0,0,0,.21.23,1.69,1.69,0,0,0,.33.19l.44.18a5.68,5.68,0,0,1,.6.26,2.52,2.52,0,0,1,.45.3,1.28,1.28,0,0,1,.28.39,1.21,1.21,0,0,1,.1.52,1.23,1.23,0,0,1-.16.65,1.45,1.45,0,0,1-.44.45,2,2,0,0,1-.63.27,3,3,0,0,1-.74.09A2.82,2.82,0,0,1,98.38,221Z"/><path class="cls-6" d="M106.94,218.87h-3.53a1.88,1.88,0,0,0,.45,1.29,1.57,1.57,0,0,0,1.18.46,2.49,2.49,0,0,0,1.56-.56v.75a2.92,2.92,0,0,1-1.75.48,2.12,2.12,0,0,1-1.66-.68,2.77,2.77,0,0,1-.61-1.92,2.73,2.73,0,0,1,.66-1.9,2.12,2.12,0,0,1,1.65-.73,1.9,1.9,0,0,1,1.52.63,2.68,2.68,0,0,1,.53,1.76Zm-.82-.68a1.62,1.62,0,0,0-.33-1.08,1.17,1.17,0,0,0-.92-.38,1.28,1.28,0,0,0-1,.4,1.87,1.87,0,0,0-.49,1.06Z"/><path class="cls-6" d="M111.17,217.15a.49.49,0,0,1-.38-.16.53.53,0,0,1-.16-.39.51.51,0,0,1,.16-.38.53.53,0,0,1,.38-.16.57.57,0,0,1,.39.16.51.51,0,0,1,.16.38.55.55,0,0,1-.55.55Zm0,4.13a.49.49,0,0,1-.38-.16.53.53,0,0,1-.16-.39.49.49,0,0,1,.16-.38.5.5,0,0,1,.38-.17.54.54,0,0,1,.39.17.49.49,0,0,1,.16.38.55.55,0,0,1-.55.55Z"/><path class="cls-6" d="M119.46,214.91h-2.73v2.42h2.53v.74h-2.53v3.1h-.82v-7h3.55Z"/><path class="cls-6" d="M123.92,221.17h-.8v-.78h0a1.68,1.68,0,0,1-1.54.9,1.61,1.61,0,0,1-1.17-.4,1.36,1.36,0,0,1-.42-1c0-.93.55-1.47,1.65-1.63l1.5-.21c0-.85-.35-1.27-1-1.27a2.45,2.45,0,0,0-1.63.61v-.82a3.09,3.09,0,0,1,1.7-.46c1.17,0,1.76.62,1.76,1.86Zm-.8-2.53-1.21.17a1.84,1.84,0,0,0-.84.28.78.78,0,0,0-.28.7.76.76,0,0,0,.26.59,1,1,0,0,0,.7.24,1.29,1.29,0,0,0,1-.42,1.49,1.49,0,0,0,.39-1.06Z"/><path class="cls-6" d="M129.47,221.17h-.8v-.79h0a1.64,1.64,0,0,1-1.54.91c-1.19,0-1.79-.71-1.79-2.13v-3h.8V219c0,1.06.4,1.59,1.21,1.59a1.21,1.21,0,0,0,1-.44,1.64,1.64,0,0,0,.38-1.13v-2.88h.8Z"/><path class="cls-6" d="M134.74,216.17l-1.68,2.53,1.65,2.47h-.93l-1-1.62a3.9,3.9,0,0,1-.22-.38h0l-.23.38-1,1.62h-.93l1.71-2.45-1.63-2.55h.93l1,1.71.21.39h0l1.25-2.1Z"/><path class="cls-6" d="M74.11,236.17H70.47v-7h.82v6.26h2.82Z"/><path class="cls-6" d="M78.65,236.17h-.8v-.78h0a1.68,1.68,0,0,1-1.54.9,1.63,1.63,0,0,1-1.17-.4,1.36,1.36,0,0,1-.42-1c0-.93.55-1.47,1.65-1.63l1.5-.21c0-.85-.34-1.27-1-1.27a2.45,2.45,0,0,0-1.63.61v-.82a3.12,3.12,0,0,1,1.7-.46c1.17,0,1.76.62,1.76,1.86Zm-.8-2.53-1.21.17a1.84,1.84,0,0,0-.84.28.81.81,0,0,0-.28.7.76.76,0,0,0,.26.59,1,1,0,0,0,.7.24,1.27,1.27,0,0,0,1-.42,1.49,1.49,0,0,0,.39-1.06Z"/><path class="cls-6" d="M85.22,236.12a1.49,1.49,0,0,1-.75.16c-.87,0-1.31-.49-1.31-1.47v-2.95H82.3v-.69h.86V230l.8-.26v1.48h1.26v.69H84v2.81a1.19,1.19,0,0,0,.17.72.69.69,0,0,0,.57.22.85.85,0,0,0,.52-.17Z"/><path class="cls-6" d="M90.31,233.87H86.78a1.83,1.83,0,0,0,.45,1.29,1.55,1.55,0,0,0,1.18.46,2.46,2.46,0,0,0,1.55-.56v.75a2.89,2.89,0,0,1-1.74.48,2.14,2.14,0,0,1-1.67-.68,2.81,2.81,0,0,1-.6-1.92,2.73,2.73,0,0,1,.66-1.9,2.12,2.12,0,0,1,1.64-.73,1.88,1.88,0,0,1,1.52.63,2.63,2.63,0,0,1,.54,1.76Zm-.82-.68a1.68,1.68,0,0,0-.34-1.08,1.15,1.15,0,0,0-.91-.38,1.31,1.31,0,0,0-1,.4,1.86,1.86,0,0,0-.48,1.06Z"/><path class="cls-6" d="M95.67,236.17h-.8v-2.85q0-1.59-1.17-1.59a1.25,1.25,0,0,0-1,.45,1.68,1.68,0,0,0-.39,1.14v2.85h-.8v-5h.8V232h0a1.8,1.8,0,0,1,1.64-.94,1.5,1.5,0,0,1,1.25.53,2.35,2.35,0,0,1,.44,1.53Z"/><path class="cls-6" d="M101.44,236.17h-.8v-.85h0a1.83,1.83,0,0,1-1.71,1,1.86,1.86,0,0,1-1.51-.67,2.75,2.75,0,0,1-.57-1.83,3,3,0,0,1,.63-2,2,2,0,0,1,1.66-.74,1.6,1.6,0,0,1,1.5.81h0v-3.1h.8Zm-.8-2.26v-.74a1.41,1.41,0,0,0-.4-1,1.32,1.32,0,0,0-1-.42,1.39,1.39,0,0,0-1.16.54,2.39,2.39,0,0,0-.41,1.48,2.13,2.13,0,0,0,.4,1.37,1.33,1.33,0,0,0,1.08.5,1.38,1.38,0,0,0,1.09-.49A1.84,1.84,0,0,0,100.64,233.91Z"/><path class="cls-6" d="M106.64,236.17h-.8v-.78h0a1.66,1.66,0,0,1-1.53.9,1.61,1.61,0,0,1-1.17-.4,1.34,1.34,0,0,1-.43-1c0-.93.55-1.47,1.65-1.63l1.5-.21c0-.85-.34-1.27-1-1.27a2.47,2.47,0,0,0-1.63.61v-.82a3.12,3.12,0,0,1,1.7-.46c1.18,0,1.76.62,1.76,1.86Zm-.8-2.53-1.2.17a1.84,1.84,0,0,0-.84.28.79.79,0,0,0-.29.7.74.74,0,0,0,.27.59,1,1,0,0,0,.69.24,1.29,1.29,0,0,0,1-.42,1.53,1.53,0,0,0,.38-1.06Z"/><path class="cls-6" d="M112.3,236.17h-.8v-2.85c0-1.06-.39-1.59-1.16-1.59a1.25,1.25,0,0,0-1,.45,1.64,1.64,0,0,0-.4,1.14v2.85h-.8v-5h.8V232h0a1.81,1.81,0,0,1,1.64-.94,1.52,1.52,0,0,1,1.26.53,2.34,2.34,0,0,1,.43,1.53Z"/><path class="cls-6" d="M117.22,235.94a2.61,2.61,0,0,1-1.37.35,2.22,2.22,0,0,1-1.72-.7,2.5,2.5,0,0,1-.66-1.8,2.76,2.76,0,0,1,.71-2,2.47,2.47,0,0,1,1.89-.75,2.67,2.67,0,0,1,1.16.24v.82a2,2,0,0,0-1.19-.39,1.61,1.61,0,0,0-1.26.55,2.06,2.06,0,0,0-.49,1.44,2,2,0,0,0,.46,1.39,1.59,1.59,0,0,0,1.24.51,2,2,0,0,0,1.23-.44Z"/><path class="cls-6" d="M122.45,233.87h-3.53a1.83,1.83,0,0,0,.45,1.29,1.55,1.55,0,0,0,1.18.46,2.46,2.46,0,0,0,1.55-.56v.75a2.89,2.89,0,0,1-1.74.48,2.14,2.14,0,0,1-1.67-.68,2.81,2.81,0,0,1-.6-1.92,2.73,2.73,0,0,1,.66-1.9,2.12,2.12,0,0,1,1.64-.73,1.88,1.88,0,0,1,1.52.63,2.63,2.63,0,0,1,.54,1.76Zm-.82-.68a1.62,1.62,0,0,0-.34-1.08,1.13,1.13,0,0,0-.91-.38,1.28,1.28,0,0,0-1,.4,1.81,1.81,0,0,0-.49,1.06Z"/><path class="cls-6" d="M130.42,233.87h-3.53a1.83,1.83,0,0,0,.45,1.29,1.55,1.55,0,0,0,1.18.46,2.46,2.46,0,0,0,1.55-.56v.75a2.89,2.89,0,0,1-1.74.48,2.14,2.14,0,0,1-1.67-.68,2.81,2.81,0,0,1-.6-1.92,2.73,2.73,0,0,1,.66-1.9,2.12,2.12,0,0,1,1.64-.73,1.88,1.88,0,0,1,1.52.63,2.63,2.63,0,0,1,.54,1.76Zm-.82-.68a1.68,1.68,0,0,0-.34-1.08,1.15,1.15,0,0,0-.91-.38,1.28,1.28,0,0,0-1,.4,1.81,1.81,0,0,0-.49,1.06Z"/><path class="cls-6" d="M131.33,236v-.86a2.36,2.36,0,0,0,1.44.49c.7,0,1-.24,1-.71a.64.64,0,0,0-.09-.34.91.91,0,0,0-.24-.24,2.43,2.43,0,0,0-.36-.2l-.45-.17a5.37,5.37,0,0,1-.58-.27,1.74,1.74,0,0,1-.42-.3,1.11,1.11,0,0,1-.26-.39,1.28,1.28,0,0,1-.08-.5,1.17,1.17,0,0,1,.16-.62,1.44,1.44,0,0,1,.43-.46,2,2,0,0,1,.61-.27,2.82,2.82,0,0,1,.71-.09,2.86,2.86,0,0,1,1.16.22v.81a2.27,2.27,0,0,0-1.27-.36,1.62,1.62,0,0,0-.4.05.89.89,0,0,0-.31.14.62.62,0,0,0-.2.23.53.53,0,0,0-.07.28.67.67,0,0,0,.07.33.55.55,0,0,0,.2.23,2.17,2.17,0,0,0,.34.19l.44.18a5.68,5.68,0,0,1,.6.26,2.52,2.52,0,0,1,.45.3,1.48,1.48,0,0,1,.28.39,1.21,1.21,0,0,1,.1.52,1.23,1.23,0,0,1-.16.65,1.45,1.45,0,0,1-.44.45,2,2,0,0,1-.63.27,3,3,0,0,1-.75.09A2.78,2.78,0,0,1,131.33,236Z"/><path class="cls-6" d="M138.19,236.12a1.49,1.49,0,0,1-.75.16c-.87,0-1.31-.49-1.31-1.47v-2.95h-.86v-.69h.86V230l.8-.26v1.48h1.26v.69h-1.26v2.81a1.19,1.19,0,0,0,.17.72.72.72,0,0,0,.57.22.83.83,0,0,0,.52-.17Z"/><path class="cls-6" d="M142.82,235.45h0v3H142v-7.3h.8v.88h0a1.89,1.89,0,0,1,1.73-1,1.83,1.83,0,0,1,1.51.67,2.76,2.76,0,0,1,.54,1.8,3.11,3.11,0,0,1-.61,2,2,2,0,0,1-1.67.75A1.67,1.67,0,0,1,142.82,235.45Zm0-2v.7a1.49,1.49,0,0,0,.4,1.05,1.43,1.43,0,0,0,2.17-.12,2.6,2.6,0,0,0,.41-1.55,2,2,0,0,0-.39-1.31,1.27,1.27,0,0,0-1-.47,1.39,1.39,0,0,0-1.12.49A1.72,1.72,0,0,0,142.8,233.43Z"/><path class="cls-6" d="M148.68,236.17h-.8v-7.4h.8Z"/><path class="cls-6" d="M154.34,236.17h-.8v-.79h0a1.63,1.63,0,0,1-1.54.91c-1.19,0-1.79-.71-1.79-2.13v-3h.8V234c0,1.06.4,1.59,1.21,1.59a1.21,1.21,0,0,0,1-.44,1.6,1.6,0,0,0,.38-1.13v-2.88h.8Z"/><path class="cls-6" d="M158.28,236.12a1.49,1.49,0,0,1-.75.16c-.87,0-1.31-.49-1.31-1.47v-2.95h-.86v-.69h.86V230l.8-.26v1.48h1.26v.69H157v2.81a1.19,1.19,0,0,0,.17.72.7.7,0,0,0,.57.22.85.85,0,0,0,.52-.17Z"/><path class="cls-6" d="M161.44,236.29a2.31,2.31,0,0,1-1.77-.7,2.61,2.61,0,0,1-.66-1.86,2.72,2.72,0,0,1,.69-2,2.48,2.48,0,0,1,1.86-.7,2.23,2.23,0,0,1,1.74.68,2.73,2.73,0,0,1,.63,1.91,2.7,2.7,0,0,1-.68,1.92A2.36,2.36,0,0,1,161.44,236.29Zm.06-4.56a1.51,1.51,0,0,0-1.22.52,2.17,2.17,0,0,0-.45,1.45,2,2,0,0,0,.45,1.4,1.56,1.56,0,0,0,1.22.52,1.45,1.45,0,0,0,1.19-.51,2.16,2.16,0,0,0,.42-1.43,2.21,2.21,0,0,0-.42-1.44A1.45,1.45,0,0,0,161.5,231.73Zm1.36-1.5h-.6l-.8-1.13-.8,1.13h-.55l1-1.63h.65Z"/><path class="cls-6" d="M167.53,236.12a1.49,1.49,0,0,1-.75.16c-.87,0-1.31-.49-1.31-1.47v-2.95h-.86v-.69h.86V230l.8-.26v1.48h1.26v.69h-1.26v2.81a1.12,1.12,0,0,0,.17.72.69.69,0,0,0,.57.22.85.85,0,0,0,.52-.17Z"/><path class="cls-6" d="M172.14,236.17h-.8v-7.4h.8Z"/><path class="cls-6" d="M174.45,229.17v2.18h-.71v-2.18Z"/><path class="cls-6" d="M176.47,229.9a.53.53,0,0,1-.37-.14.5.5,0,0,1-.15-.37.52.52,0,0,1,.15-.38.5.5,0,0,1,.37-.15.51.51,0,0,1,.37.15.49.49,0,0,1,.16.38.46.46,0,0,1-.16.36A.51.51,0,0,1,176.47,229.9Zm.39,6.27h-.8v-5h.8Z"/><path class="cls-6" d="M182.63,236.17h-.8v-2.85c0-1.06-.39-1.59-1.16-1.59a1.29,1.29,0,0,0-1,.45,1.68,1.68,0,0,0-.39,1.14v2.85h-.8v-5h.8V232h0a1.81,1.81,0,0,1,1.64-.94,1.52,1.52,0,0,1,1.26.53,2.34,2.34,0,0,1,.43,1.53Z"/><path class="cls-6" d="M188.07,231.17l-2,5h-.79l-1.89-5h.88l1.27,3.64a3.27,3.27,0,0,1,.17.69h0a3.39,3.39,0,0,1,.16-.68l1.33-3.65Z"/><path class="cls-6" d="M193,233.87h-3.53a1.83,1.83,0,0,0,.45,1.29,1.55,1.55,0,0,0,1.18.46,2.46,2.46,0,0,0,1.55-.56v.75a2.89,2.89,0,0,1-1.74.48,2.14,2.14,0,0,1-1.67-.68,2.81,2.81,0,0,1-.6-1.92,2.73,2.73,0,0,1,.66-1.9,2.12,2.12,0,0,1,1.64-.73,1.88,1.88,0,0,1,1.52.63,2.63,2.63,0,0,1,.54,1.76Zm-.82-.68a1.68,1.68,0,0,0-.34-1.08,1.15,1.15,0,0,0-.91-.38,1.28,1.28,0,0,0-1,.4,1.81,1.81,0,0,0-.49,1.06Z"/><path class="cls-6" d="M196.77,232a1.05,1.05,0,0,0-.61-.16,1,1,0,0,0-.86.49,2.21,2.21,0,0,0-.34,1.31v2.55h-.8v-5h.8v1h0a1.76,1.76,0,0,1,.52-.82,1.2,1.2,0,0,1,.79-.3,1.43,1.43,0,0,1,.48.07Z"/><path class="cls-6" d="M197.33,236v-.86a2.41,2.41,0,0,0,1.44.49c.71,0,1.06-.24,1.06-.71a.64.64,0,0,0-.09-.34.82.82,0,0,0-.25-.24,2,2,0,0,0-.36-.2l-.44-.17a5.6,5.6,0,0,1-.59-.27,1.74,1.74,0,0,1-.42-.3,1.24,1.24,0,0,1-.25-.39,1.34,1.34,0,0,1,.07-1.12,1.57,1.57,0,0,1,.43-.46,2,2,0,0,1,.62-.27,2.76,2.76,0,0,1,.71-.09,2.86,2.86,0,0,1,1.16.22v.81a2.27,2.27,0,0,0-1.27-.36,1.7,1.7,0,0,0-.41.05,1,1,0,0,0-.31.14.87.87,0,0,0-.2.23.64.64,0,0,0-.07.28.81.81,0,0,0,.07.33.66.66,0,0,0,.21.23,1.69,1.69,0,0,0,.33.19l.45.18a4.72,4.72,0,0,1,.59.26,2,2,0,0,1,.45.3,1.32,1.32,0,0,1,.29.39,1.38,1.38,0,0,1,.1.52,1.33,1.33,0,0,1-.16.65,1.45,1.45,0,0,1-.44.45,2.11,2.11,0,0,1-.63.27,3.08,3.08,0,0,1-.75.09A2.85,2.85,0,0,1,197.33,236Z"/><path class="cls-6" d="M205.9,233.87h-3.53a1.83,1.83,0,0,0,.45,1.29,1.55,1.55,0,0,0,1.18.46,2.46,2.46,0,0,0,1.55-.56v.75a2.89,2.89,0,0,1-1.74.48,2.14,2.14,0,0,1-1.67-.68,2.81,2.81,0,0,1-.6-1.92,2.73,2.73,0,0,1,.66-1.9,2.12,2.12,0,0,1,1.64-.73,1.88,1.88,0,0,1,1.52.63,2.63,2.63,0,0,1,.54,1.76Zm-.82-.68a1.68,1.68,0,0,0-.34-1.08,1.15,1.15,0,0,0-.91-.38,1.31,1.31,0,0,0-1,.4,1.86,1.86,0,0,0-.48,1.06Z"/><path class="cls-6" d="M207.84,235.06l-.78,2.4h-.57l.57-2.4Z"/><path class="cls-6" d="M71.19,247.45h0v.72h-.81v-7.4h.81v3.28h0a1.89,1.89,0,0,1,1.72-1,1.83,1.83,0,0,1,1.51.67,2.76,2.76,0,0,1,.54,1.8,3.11,3.11,0,0,1-.61,2,2,2,0,0,1-1.67.75A1.62,1.62,0,0,1,71.19,247.45Zm0-2v.7a1.45,1.45,0,0,0,.4,1.05,1.42,1.42,0,0,0,2.16-.12,2.53,2.53,0,0,0,.41-1.55,2,2,0,0,0-.38-1.31,1.3,1.3,0,0,0-1.05-.47,1.4,1.4,0,0,0-1.12.49A1.76,1.76,0,0,0,71.17,245.43Z"/><path class="cls-6" d="M80.26,245.87H76.73a1.88,1.88,0,0,0,.45,1.29,1.57,1.57,0,0,0,1.18.46,2.49,2.49,0,0,0,1.56-.56v.75a2.9,2.9,0,0,1-1.75.48,2.12,2.12,0,0,1-1.66-.68,2.77,2.77,0,0,1-.61-1.92,2.73,2.73,0,0,1,.66-1.9,2.12,2.12,0,0,1,1.65-.73,1.9,1.9,0,0,1,1.52.63,2.68,2.68,0,0,1,.53,1.76Zm-.82-.68a1.62,1.62,0,0,0-.33-1.08,1.17,1.17,0,0,0-.92-.38,1.28,1.28,0,0,0-1,.4,1.87,1.87,0,0,0-.49,1.06Z"/><path class="cls-6" d="M85.05,248.17h-.8v-.78h0a1.68,1.68,0,0,1-1.54.9,1.65,1.65,0,0,1-1.17-.4,1.36,1.36,0,0,1-.42-1c0-.93.55-1.47,1.65-1.63l1.5-.21c0-.85-.34-1.27-1-1.27a2.47,2.47,0,0,0-1.63.61v-.82a3.12,3.12,0,0,1,1.7-.46c1.18,0,1.76.62,1.76,1.86Zm-.8-2.53-1.2.17a1.75,1.75,0,0,0-.84.28.79.79,0,0,0-.29.7.76.76,0,0,0,.26.59,1,1,0,0,0,.7.24,1.27,1.27,0,0,0,1-.42,1.49,1.49,0,0,0,.39-1.06Z"/><path class="cls-6" d="M90.6,248.17h-.8v-.79h0a1.63,1.63,0,0,1-1.54.91c-1.19,0-1.79-.71-1.79-2.13v-3h.8V246c0,1.06.4,1.59,1.21,1.59a1.25,1.25,0,0,0,1-.44,1.64,1.64,0,0,0,.37-1.13v-2.88h.8Z"/><path class="cls-6" d="M95.63,247.94a2.63,2.63,0,0,1-1.37.35,2.22,2.22,0,0,1-1.72-.7,2.5,2.5,0,0,1-.66-1.8,2.72,2.72,0,0,1,.71-2,2.47,2.47,0,0,1,1.89-.75,2.67,2.67,0,0,1,1.16.24v.82a2,2,0,0,0-1.19-.39,1.61,1.61,0,0,0-1.26.55,2.06,2.06,0,0,0-.49,1.44,2,2,0,0,0,.46,1.39,1.59,1.59,0,0,0,1.24.51,2,2,0,0,0,1.23-.44Z"/><path class="cls-6" d="M98.93,248.29a2.31,2.31,0,0,1-1.77-.7,2.61,2.61,0,0,1-.66-1.86,2.72,2.72,0,0,1,.69-2,2.48,2.48,0,0,1,1.86-.7,2.23,2.23,0,0,1,1.74.68,2.73,2.73,0,0,1,.63,1.91,2.7,2.7,0,0,1-.68,1.92A2.36,2.36,0,0,1,98.93,248.29Zm.06-4.56a1.51,1.51,0,0,0-1.22.52,2.17,2.17,0,0,0-.45,1.45,2,2,0,0,0,.45,1.4,1.56,1.56,0,0,0,1.22.52,1.45,1.45,0,0,0,1.19-.51,2.16,2.16,0,0,0,.42-1.43,2.21,2.21,0,0,0-.42-1.44A1.45,1.45,0,0,0,99,243.73Z"/><path class="cls-6" d="M106.74,248.17h-.8v-.79h0a1.63,1.63,0,0,1-1.54.91c-1.19,0-1.79-.71-1.79-2.13v-3h.8V246c0,1.06.4,1.59,1.21,1.59a1.21,1.21,0,0,0,1-.44,1.6,1.6,0,0,0,.38-1.13v-2.88h.8Z"/><path class="cls-6" d="M109.18,247.45h0v3h-.8v-7.3h.8v.88h0a1.89,1.89,0,0,1,1.73-1,1.84,1.84,0,0,1,1.51.67,2.76,2.76,0,0,1,.54,1.8,3.11,3.11,0,0,1-.61,2,2,2,0,0,1-1.67.75A1.67,1.67,0,0,1,109.18,247.45Zm0-2v.7a1.45,1.45,0,0,0,.4,1.05,1.43,1.43,0,0,0,2.17-.12,2.6,2.6,0,0,0,.41-1.55,2,2,0,0,0-.39-1.31,1.27,1.27,0,0,0-1-.47,1.42,1.42,0,0,0-1.13.49A1.76,1.76,0,0,0,109.16,245.43Z"/><path class="cls-6" d="M121.24,248.17h-.8v-.85h0a1.83,1.83,0,0,1-1.71,1,1.86,1.86,0,0,1-1.51-.67,2.74,2.74,0,0,1-.56-1.83,3,3,0,0,1,.62-2,2.06,2.06,0,0,1,1.67-.74,1.59,1.59,0,0,1,1.49.81h0v-3.1h.8Zm-.8-2.26v-.74a1.41,1.41,0,0,0-.4-1,1.32,1.32,0,0,0-1-.42,1.37,1.37,0,0,0-1.15.54,2.27,2.27,0,0,0-.42,1.48,2.13,2.13,0,0,0,.4,1.37,1.33,1.33,0,0,0,1.08.5,1.38,1.38,0,0,0,1.09-.49A1.84,1.84,0,0,0,120.44,245.91Z"/><path class="cls-6" d="M123.56,241.17v2.18h-.71v-2.18Z"/><path class="cls-6" d="M129.18,245.87h-3.53a1.93,1.93,0,0,0,.45,1.29,1.57,1.57,0,0,0,1.18.46,2.47,2.47,0,0,0,1.56-.56v.75a2.9,2.9,0,0,1-1.75.48,2.12,2.12,0,0,1-1.66-.68,2.82,2.82,0,0,1-.61-1.92,2.69,2.69,0,0,1,.67-1.9,2.1,2.1,0,0,1,1.64-.73,1.9,1.9,0,0,1,1.52.63,2.62,2.62,0,0,1,.53,1.76Zm-.82-.68a1.62,1.62,0,0,0-.33-1.08,1.17,1.17,0,0,0-.92-.38,1.31,1.31,0,0,0-1,.4,1.87,1.87,0,0,0-.49,1.06Zm-.12-4.57L127,242.23h-.62l1.09-1.61Z"/><path class="cls-6" d="M134.66,248.17h-.8v-.85h0a2,2,0,0,1-3.22.3,2.75,2.75,0,0,1-.57-1.83,3,3,0,0,1,.63-2,2,2,0,0,1,1.66-.74,1.6,1.6,0,0,1,1.5.81h0v-3.1h.8Zm-.8-2.26v-.74a1.41,1.41,0,0,0-.4-1,1.34,1.34,0,0,0-1-.42,1.39,1.39,0,0,0-1.16.54,2.33,2.33,0,0,0-.42,1.48,2.13,2.13,0,0,0,.41,1.37,1.33,1.33,0,0,0,1.08.5,1.36,1.36,0,0,0,1.08-.49A1.79,1.79,0,0,0,133.86,245.91Z"/><path class="cls-6" d="M136.69,241.9a.52.52,0,0,1-.36-.14.5.5,0,0,1-.15-.37.52.52,0,0,1,.15-.38.49.49,0,0,1,.36-.15.51.51,0,0,1,.53.53.49.49,0,0,1-.15.36A.52.52,0,0,1,136.69,241.9Zm.39,6.27h-.8v-5h.8Z"/><path class="cls-6" d="M141,248.12a1.43,1.43,0,0,1-.74.16q-1.32,0-1.32-1.47v-2.95h-.86v-.69H139V242l.8-.26v1.48H141v.69h-1.26v2.81a1.11,1.11,0,0,0,.18.72.68.68,0,0,0,.56.22.83.83,0,0,0,.52-.17Z"/><path class="cls-6" d="M146.11,245.87h-3.53a1.88,1.88,0,0,0,.45,1.29,1.57,1.57,0,0,0,1.18.46,2.49,2.49,0,0,0,1.56-.56v.75a2.9,2.9,0,0,1-1.75.48,2.12,2.12,0,0,1-1.66-.68,2.77,2.77,0,0,1-.61-1.92,2.73,2.73,0,0,1,.66-1.9,2.12,2.12,0,0,1,1.65-.73,1.9,1.9,0,0,1,1.52.63,2.68,2.68,0,0,1,.53,1.76Zm-.82-.68a1.62,1.62,0,0,0-.33-1.08,1.17,1.17,0,0,0-.92-.38,1.28,1.28,0,0,0-1,.4,1.87,1.87,0,0,0-.49,1.06Z"/><path class="cls-6" d="M151.37,248.17h-.8v-.79h0a1.65,1.65,0,0,1-1.55.91c-1.19,0-1.78-.71-1.78-2.13v-3H148V246c0,1.06.41,1.59,1.21,1.59a1.24,1.24,0,0,0,1-.44,1.64,1.64,0,0,0,.38-1.13v-2.88h.8Z"/><path class="cls-6" d="M155.59,244a1,1,0,0,0-.6-.16,1,1,0,0,0-.86.49,2.21,2.21,0,0,0-.35,1.31v2.55H153v-5h.8v1h0a1.77,1.77,0,0,1,.53-.82,1.16,1.16,0,0,1,.78-.3,1.43,1.43,0,0,1,.48.07Z"/><path class="cls-6" d="M156.16,248v-.86a2.36,2.36,0,0,0,1.44.49c.7,0,1.05-.24,1.05-.71a.64.64,0,0,0-.09-.34.91.91,0,0,0-.24-.24,2.43,2.43,0,0,0-.36-.2l-.45-.17a5.37,5.37,0,0,1-.58-.27,1.74,1.74,0,0,1-.42-.3,1.11,1.11,0,0,1-.26-.39,1.5,1.5,0,0,1-.08-.5,1.17,1.17,0,0,1,.16-.62,1.57,1.57,0,0,1,.43-.46,2,2,0,0,1,.61-.27,2.82,2.82,0,0,1,.71-.09,2.86,2.86,0,0,1,1.16.22v.81a2.27,2.27,0,0,0-1.27-.36,1.62,1.62,0,0,0-.4.05.89.89,0,0,0-.31.14.72.72,0,0,0-.2.23.53.53,0,0,0-.07.28.67.67,0,0,0,.07.33.58.58,0,0,0,.21.23,1.69,1.69,0,0,0,.33.19l.44.18a5.68,5.68,0,0,1,.6.26,2.52,2.52,0,0,1,.45.3,1.28,1.28,0,0,1,.28.39,1.21,1.21,0,0,1,.1.52,1.23,1.23,0,0,1-.16.65,1.45,1.45,0,0,1-.44.45,2,2,0,0,1-.63.27,3,3,0,0,1-.75.09A2.78,2.78,0,0,1,156.16,248Z"/><path class="cls-6" d="M167.59,248.17h-.8v-2.85c0-1.06-.39-1.59-1.16-1.59a1.25,1.25,0,0,0-1,.45,1.64,1.64,0,0,0-.4,1.14v2.85h-.8v-5h.8V244h0a1.81,1.81,0,0,1,1.64-.94,1.52,1.52,0,0,1,1.26.53,2.34,2.34,0,0,1,.43,1.53Z"/><path class="cls-6" d="M173.12,245.87h-3.53a1.83,1.83,0,0,0,.45,1.29,1.55,1.55,0,0,0,1.18.46,2.46,2.46,0,0,0,1.55-.56v.75a2.89,2.89,0,0,1-1.74.48,2.14,2.14,0,0,1-1.67-.68,2.81,2.81,0,0,1-.6-1.92,2.73,2.73,0,0,1,.66-1.9,2.12,2.12,0,0,1,1.64-.73,1.88,1.88,0,0,1,1.52.63,2.63,2.63,0,0,1,.54,1.76Zm-.82-.68a1.57,1.57,0,0,0-.34-1.08,1.13,1.13,0,0,0-.91-.38,1.28,1.28,0,0,0-1,.4,1.81,1.81,0,0,0-.49,1.06Z"/><path class="cls-6" d="M176.77,248v-.86a2.36,2.36,0,0,0,1.44.49c.7,0,1-.24,1-.71a.64.64,0,0,0-.09-.34.91.91,0,0,0-.24-.24,2.43,2.43,0,0,0-.36-.2l-.45-.17a5.37,5.37,0,0,1-.58-.27,1.74,1.74,0,0,1-.42-.3,1.11,1.11,0,0,1-.26-.39,1.5,1.5,0,0,1-.08-.5,1.17,1.17,0,0,1,.16-.62,1.57,1.57,0,0,1,.43-.46,2,2,0,0,1,.61-.27,2.82,2.82,0,0,1,.71-.09,2.86,2.86,0,0,1,1.16.22v.81a2.25,2.25,0,0,0-1.27-.36,1.62,1.62,0,0,0-.4.05.89.89,0,0,0-.31.14.72.72,0,0,0-.2.23.53.53,0,0,0-.07.28.67.67,0,0,0,.07.33.58.58,0,0,0,.21.23,1.69,1.69,0,0,0,.33.19l.44.18a5.68,5.68,0,0,1,.6.26,2.52,2.52,0,0,1,.45.3,1.28,1.28,0,0,1,.28.39,1.21,1.21,0,0,1,.1.52,1.23,1.23,0,0,1-.16.65,1.45,1.45,0,0,1-.44.45,2,2,0,0,1-.63.27,3,3,0,0,1-.74.09A2.82,2.82,0,0,1,176.77,248Z"/><path class="cls-6" d="M185.33,245.87H181.8a1.83,1.83,0,0,0,.45,1.29,1.57,1.57,0,0,0,1.18.46,2.49,2.49,0,0,0,1.56-.56v.75a2.92,2.92,0,0,1-1.75.48,2.12,2.12,0,0,1-1.66-.68,2.77,2.77,0,0,1-.61-1.92,2.73,2.73,0,0,1,.66-1.9,2.12,2.12,0,0,1,1.65-.73,1.86,1.86,0,0,1,1.51.63,2.63,2.63,0,0,1,.54,1.76Zm-.82-.68a1.62,1.62,0,0,0-.33-1.08,1.17,1.17,0,0,0-.92-.38,1.28,1.28,0,0,0-1,.4,1.87,1.87,0,0,0-.49,1.06Z"/><path class="cls-6" d="M70.06,260v-.86a2.41,2.41,0,0,0,1.44.49c.71,0,1.06-.24,1.06-.71a.64.64,0,0,0-.09-.34.82.82,0,0,0-.25-.24,2,2,0,0,0-.36-.2l-.45-.17c-.22-.09-.41-.18-.58-.27a1.74,1.74,0,0,1-.42-.3,1.08,1.08,0,0,1-.25-.39,1.34,1.34,0,0,1,.07-1.12,1.57,1.57,0,0,1,.43-.46,2,2,0,0,1,.62-.27,2.76,2.76,0,0,1,.71-.09,2.86,2.86,0,0,1,1.16.22v.81a2.27,2.27,0,0,0-1.27-.36,1.7,1.7,0,0,0-.41.05,1,1,0,0,0-.31.14.87.87,0,0,0-.2.23.64.64,0,0,0-.07.28.81.81,0,0,0,.07.33.66.66,0,0,0,.21.23,1.69,1.69,0,0,0,.33.19l.45.18a4.72,4.72,0,0,1,.59.26,2,2,0,0,1,.45.3,1.32,1.32,0,0,1,.29.39,1.38,1.38,0,0,1,.1.52,1.23,1.23,0,0,1-.17.65,1.32,1.32,0,0,1-.43.45,2.11,2.11,0,0,1-.63.27,3.08,3.08,0,0,1-.75.09A2.85,2.85,0,0,1,70.06,260Z"/><path class="cls-6" d="M76.7,260.29a2.31,2.31,0,0,1-1.77-.7,2.61,2.61,0,0,1-.66-1.86,2.76,2.76,0,0,1,.68-2,2.49,2.49,0,0,1,1.87-.7,2.23,2.23,0,0,1,1.74.68,2.73,2.73,0,0,1,.63,1.91,2.7,2.7,0,0,1-.68,1.92A2.36,2.36,0,0,1,76.7,260.29Zm.06-4.56a1.51,1.51,0,0,0-1.22.52,2.17,2.17,0,0,0-.45,1.45,2,2,0,0,0,.45,1.4,1.56,1.56,0,0,0,1.22.52,1.46,1.46,0,0,0,1.19-.51,2.16,2.16,0,0,0,.42-1.43,2.21,2.21,0,0,0-.42-1.44A1.46,1.46,0,0,0,76.76,255.73Z"/><path class="cls-6" d="M84.51,260.17h-.8v-.79h0a1.64,1.64,0,0,1-1.54.91c-1.19,0-1.79-.71-1.79-2.13v-3h.8V258c0,1.06.4,1.59,1.21,1.59a1.21,1.21,0,0,0,1-.44,1.64,1.64,0,0,0,.38-1.13v-2.88h.8Z"/><path class="cls-6" d="M89.53,259.94a2.57,2.57,0,0,1-1.36.35,2.25,2.25,0,0,1-1.73-.7,2.5,2.5,0,0,1-.66-1.8,2.76,2.76,0,0,1,.71-2,2.49,2.49,0,0,1,1.89-.75,2.64,2.64,0,0,1,1.16.24v.82a2,2,0,0,0-1.19-.39,1.57,1.57,0,0,0-1.25.55,2.06,2.06,0,0,0-.49,1.44,2,2,0,0,0,.46,1.39,1.57,1.57,0,0,0,1.23.51,2,2,0,0,0,1.23-.44Z"/><path class="cls-6" d="M91.16,253.9a.53.53,0,0,1-.37-.14.5.5,0,0,1-.15-.37.52.52,0,0,1,.15-.38.5.5,0,0,1,.37-.15.51.51,0,0,1,.37.15.52.52,0,0,1,.15.38.49.49,0,0,1-.15.36A.51.51,0,0,1,91.16,253.9Zm.39,6.27h-.8v-5h.8Z"/><path class="cls-6" d="M96.75,260.17H96v-.78h0a1.68,1.68,0,0,1-1.54.9,1.61,1.61,0,0,1-1.17-.4,1.36,1.36,0,0,1-.42-1.05c0-.93.55-1.47,1.65-1.63L96,257c0-.85-.35-1.27-1-1.27a2.47,2.47,0,0,0-1.64.61v-.82a3.14,3.14,0,0,1,1.7-.46q1.77,0,1.77,1.86Zm-.8-2.53-1.21.17a1.84,1.84,0,0,0-.84.28.78.78,0,0,0-.28.7.73.73,0,0,0,.26.59,1,1,0,0,0,.69.24,1.29,1.29,0,0,0,1-.42,1.49,1.49,0,0,0,.39-1.06Z"/><path class="cls-6" d="M102.41,260.17h-.8v-2.85q0-1.59-1.17-1.59a1.25,1.25,0,0,0-1,.45,1.68,1.68,0,0,0-.39,1.14v2.85h-.8v-5h.8V256h0a1.79,1.79,0,0,1,1.64-.94,1.51,1.51,0,0,1,1.25.53,2.35,2.35,0,0,1,.44,1.53Z"/><path class="cls-6" d="M106.23,260.12a1.43,1.43,0,0,1-.74.16q-1.32,0-1.32-1.47v-2.95h-.86v-.69h.86V254l.8-.26v1.48h1.26v.69H105v2.81a1.11,1.11,0,0,0,.18.72.68.68,0,0,0,.56.22.83.83,0,0,0,.52-.17Z"/><path class="cls-6" d="M110.86,259.45h0v3H110v-7.3h.8v.88h0a1.9,1.9,0,0,1,1.73-1,1.82,1.82,0,0,1,1.51.67,2.76,2.76,0,0,1,.54,1.8,3.11,3.11,0,0,1-.61,2,2,2,0,0,1-1.67.75A1.67,1.67,0,0,1,110.86,259.45Zm0-2v.7a1.46,1.46,0,0,0,.41,1.05,1.32,1.32,0,0,0,1,.44,1.35,1.35,0,0,0,1.14-.56,2.6,2.6,0,0,0,.41-1.55,2.06,2.06,0,0,0-.38-1.31,1.3,1.3,0,0,0-1-.47,1.4,1.4,0,0,0-1.12.49A1.77,1.77,0,0,0,110.84,257.43Z"/><path class="cls-6" d="M119.5,260.17h-.8v-.78h0a1.68,1.68,0,0,1-1.54.9,1.61,1.61,0,0,1-1.17-.4,1.36,1.36,0,0,1-.42-1.05c0-.93.55-1.47,1.65-1.63l1.5-.21c0-.85-.34-1.27-1-1.27a2.45,2.45,0,0,0-1.63.61v-.82a3.12,3.12,0,0,1,1.7-.46c1.17,0,1.76.62,1.76,1.86Zm-.8-2.53-1.21.17a1.84,1.84,0,0,0-.84.28.81.81,0,0,0-.28.7.76.76,0,0,0,.26.59,1,1,0,0,0,.7.24,1.29,1.29,0,0,0,1-.42,1.49,1.49,0,0,0,.39-1.06Z"/><path class="cls-6" d="M120.71,260v-.86a2.36,2.36,0,0,0,1.44.49c.7,0,1-.24,1-.71a.64.64,0,0,0-.09-.34.91.91,0,0,0-.24-.24,3.07,3.07,0,0,0-.36-.2l-.45-.17a5.37,5.37,0,0,1-.58-.27,1.74,1.74,0,0,1-.42-.3,1.11,1.11,0,0,1-.26-.39,1.28,1.28,0,0,1-.08-.5,1.17,1.17,0,0,1,.16-.62,1.44,1.44,0,0,1,.43-.46,2,2,0,0,1,.61-.27,2.82,2.82,0,0,1,.71-.09,2.86,2.86,0,0,1,1.16.22v.81a2.27,2.27,0,0,0-1.27-.36,1.62,1.62,0,0,0-.4.05.89.89,0,0,0-.31.14.62.62,0,0,0-.2.23.53.53,0,0,0-.07.28.67.67,0,0,0,.07.33.55.55,0,0,0,.2.23,2.17,2.17,0,0,0,.34.19l.44.18a5.68,5.68,0,0,1,.6.26,2.52,2.52,0,0,1,.45.3,1.48,1.48,0,0,1,.28.39,1.21,1.21,0,0,1,.1.52,1.23,1.23,0,0,1-.16.65,1.45,1.45,0,0,1-.44.45,2,2,0,0,1-.63.27,3.08,3.08,0,0,1-.75.09A2.78,2.78,0,0,1,120.71,260Z"/><path class="cls-6" d="M132.26,260.17h-.8v-.85h0a1.85,1.85,0,0,1-1.72,1,1.87,1.87,0,0,1-1.51-.67,2.8,2.8,0,0,1-.56-1.83,3,3,0,0,1,.62-2,2.07,2.07,0,0,1,1.67-.74,1.6,1.6,0,0,1,1.5.81h0v-3.1h.8Zm-.8-2.26v-.74a1.45,1.45,0,0,0-.4-1,1.36,1.36,0,0,0-1-.42,1.37,1.37,0,0,0-1.15.54,2.33,2.33,0,0,0-.42,1.48,2.13,2.13,0,0,0,.4,1.37,1.33,1.33,0,0,0,1.08.5,1.38,1.38,0,0,0,1.09-.49A1.79,1.79,0,0,0,131.46,257.91Z"/><path class="cls-6" d="M137.9,257.87h-3.53a1.83,1.83,0,0,0,.45,1.29,1.55,1.55,0,0,0,1.18.46,2.46,2.46,0,0,0,1.55-.56v.75a2.89,2.89,0,0,1-1.74.48,2.14,2.14,0,0,1-1.67-.68,2.81,2.81,0,0,1-.6-1.92,2.73,2.73,0,0,1,.66-1.9,2.12,2.12,0,0,1,1.64-.73,1.88,1.88,0,0,1,1.52.63,2.63,2.63,0,0,1,.54,1.76Zm-.82-.68a1.62,1.62,0,0,0-.34-1.08,1.15,1.15,0,0,0-.91-.38,1.28,1.28,0,0,0-1,.4,1.81,1.81,0,0,0-.49,1.06Z"/><path class="cls-6" d="M138.81,260v-.86a2.36,2.36,0,0,0,1.44.49c.7,0,1.05-.24,1.05-.71a.64.64,0,0,0-.09-.34.91.91,0,0,0-.24-.24,2.43,2.43,0,0,0-.36-.2l-.45-.17a5.37,5.37,0,0,1-.58-.27,1.74,1.74,0,0,1-.42-.3,1.11,1.11,0,0,1-.26-.39,1.28,1.28,0,0,1-.08-.5,1.17,1.17,0,0,1,.16-.62,1.57,1.57,0,0,1,.43-.46,2,2,0,0,1,.61-.27,2.82,2.82,0,0,1,.71-.09,2.86,2.86,0,0,1,1.16.22v.81a2.27,2.27,0,0,0-1.27-.36,1.62,1.62,0,0,0-.4.05.89.89,0,0,0-.31.14.72.72,0,0,0-.2.23.53.53,0,0,0-.07.28.67.67,0,0,0,.07.33.58.58,0,0,0,.21.23,1.69,1.69,0,0,0,.33.19l.44.18a5.68,5.68,0,0,1,.6.26,2.52,2.52,0,0,1,.45.3,1.28,1.28,0,0,1,.28.39,1.21,1.21,0,0,1,.1.52,1.23,1.23,0,0,1-.16.65,1.45,1.45,0,0,1-.44.45,2,2,0,0,1-.63.27,3,3,0,0,1-.75.09A2.78,2.78,0,0,1,138.81,260Z"/><path class="cls-6" d="M146.91,259.45h0v3h-.8v-7.3h.8v.88h0a1.9,1.9,0,0,1,1.73-1,1.82,1.82,0,0,1,1.51.67,2.76,2.76,0,0,1,.54,1.8,3.11,3.11,0,0,1-.61,2,2,2,0,0,1-1.67.75A1.67,1.67,0,0,1,146.91,259.45Zm0-2v.7a1.46,1.46,0,0,0,.41,1.05,1.34,1.34,0,0,0,1,.44,1.36,1.36,0,0,0,1.14-.56,2.6,2.6,0,0,0,.41-1.55,2.06,2.06,0,0,0-.38-1.31,1.3,1.3,0,0,0-1.05-.47,1.4,1.4,0,0,0-1.12.49A1.72,1.72,0,0,0,146.89,257.43Z"/><path class="cls-6" d="M154.58,256a1,1,0,0,0-.61-.16,1,1,0,0,0-.85.49,2.21,2.21,0,0,0-.35,1.31v2.55H152v-5h.8v1h0a1.84,1.84,0,0,1,.52-.82,1.2,1.2,0,0,1,.79-.3,1.43,1.43,0,0,1,.48.07Z"/><path class="cls-6" d="M159.47,257.87h-3.53a1.83,1.83,0,0,0,.45,1.29,1.55,1.55,0,0,0,1.18.46,2.46,2.46,0,0,0,1.55-.56v.75a2.89,2.89,0,0,1-1.74.48,2.13,2.13,0,0,1-1.67-.68,2.81,2.81,0,0,1-.6-1.92,2.73,2.73,0,0,1,.66-1.9,2.12,2.12,0,0,1,1.64-.73,1.88,1.88,0,0,1,1.52.63,2.63,2.63,0,0,1,.54,1.76Zm-.82-.68a1.68,1.68,0,0,0-.34-1.08,1.15,1.15,0,0,0-.91-.38,1.31,1.31,0,0,0-1,.4,1.86,1.86,0,0,0-.48,1.06Z"/><path class="cls-6" d="M161.5,259.45h0v3h-.8v-7.3h.8v.88h0a1.89,1.89,0,0,1,1.73-1,1.84,1.84,0,0,1,1.51.67,2.76,2.76,0,0,1,.54,1.8,3.17,3.17,0,0,1-.61,2,2,2,0,0,1-1.67.75A1.67,1.67,0,0,1,161.5,259.45Zm0-2v.7a1.45,1.45,0,0,0,.4,1.05,1.42,1.42,0,0,0,2.16-.12,2.53,2.53,0,0,0,.42-1.55,2,2,0,0,0-.39-1.31,1.28,1.28,0,0,0-1-.47,1.42,1.42,0,0,0-1.13.49A1.76,1.76,0,0,0,161.48,257.43Z"/><path class="cls-6" d="M169.16,256a1.07,1.07,0,0,0-1.46.33,2.21,2.21,0,0,0-.34,1.31v2.55h-.8v-5h.8v1h0a1.69,1.69,0,0,1,.52-.82,1.18,1.18,0,0,1,.79-.3,1.41,1.41,0,0,1,.47.07Z"/><path class="cls-6" d="M170.44,253.9a.52.52,0,0,1-.36-.14.5.5,0,0,1-.15-.37.52.52,0,0,1,.15-.38.49.49,0,0,1,.36-.15.54.54,0,0,1,.38.15.52.52,0,0,1,.15.38.49.49,0,0,1-.15.36A.54.54,0,0,1,170.44,253.9Zm.39,6.27H170v-5h.8Z"/><path class="cls-6" d="M176.61,260.17h-.81v-2.85c0-1.06-.38-1.59-1.16-1.59a1.25,1.25,0,0,0-1,.45,1.68,1.68,0,0,0-.39,1.14v2.85h-.81v-5h.81V256h0a1.79,1.79,0,0,1,1.64-.94,1.51,1.51,0,0,1,1.25.53,2.35,2.35,0,0,1,.44,1.53Z"/><path class="cls-6" d="M180.43,260.12a1.45,1.45,0,0,1-.74.16q-1.32,0-1.32-1.47v-2.95h-.86v-.69h.86V254l.8-.26v1.48h1.26v.69h-1.26v2.81a1.19,1.19,0,0,0,.17.72.72.72,0,0,0,.57.22.83.83,0,0,0,.52-.17Z"/><path class="cls-6" d="M181.2,260v-.86a2.41,2.41,0,0,0,1.44.49c.7,0,1.06-.24,1.06-.71a.65.65,0,0,0-.1-.34.91.91,0,0,0-.24-.24,2,2,0,0,0-.36-.2l-.45-.17c-.22-.09-.41-.18-.58-.27a1.74,1.74,0,0,1-.42-.3,1.08,1.08,0,0,1-.25-.39,1.28,1.28,0,0,1-.09-.5,1.17,1.17,0,0,1,.16-.62,1.57,1.57,0,0,1,.43-.46,2,2,0,0,1,.61-.27,2.82,2.82,0,0,1,.71-.09,2.91,2.91,0,0,1,1.17.22v.81a2.3,2.3,0,0,0-1.27-.36,1.7,1.7,0,0,0-.41.05,1,1,0,0,0-.31.14.72.72,0,0,0-.2.23.53.53,0,0,0-.07.28.67.67,0,0,0,.07.33.66.66,0,0,0,.21.23,1.69,1.69,0,0,0,.33.19l.44.18a4.9,4.9,0,0,1,.6.26,2,2,0,0,1,.45.3,1.28,1.28,0,0,1,.28.39,1.21,1.21,0,0,1,.11.52,1.23,1.23,0,0,1-.17.65,1.35,1.35,0,0,1-.44.45,2,2,0,0,1-.63.27,2.94,2.94,0,0,1-.74.09A2.82,2.82,0,0,1,181.2,260Z"/><path class="cls-6" d="M186,260.28a.51.51,0,0,1-.38-.16.53.53,0,0,1-.16-.39.49.49,0,0,1,.16-.38.52.52,0,0,1,.38-.17.51.51,0,0,1,.39.17.5.5,0,0,1,.17.38.54.54,0,0,1-.17.39A.5.5,0,0,1,186,260.28Z"/><text class="cls-7" transform="translate(115.55 116.62)"><tspan class="cls-8">V</tspan><tspan x="7.58" y="0">rai/</tspan><tspan class="cls-9" x="27.54" y="0">F</tspan><tspan x="33.43" y="0">aux</tspan></text><line class="cls-10" x1="54" x2="54" y2="36"/><line class="cls-10" y1="54" x2="36" y2="54"/><line class="cls-10" y1="307.96" x2="36" y2="307.96"/><line class="cls-10" x1="54" y1="361.96" x2="54" y2="325.96"/><line class="cls-10" x1="236.83" x2="236.83" y2="36"/><line class="cls-10" x1="290.83" y1="54" x2="254.83" y2="54"/><line class="cls-10" x1="290.83" y1="307.96" x2="254.83" y2="307.96"/><line class="cls-10" x1="236.83" y1="361.96" x2="236.83" y2="325.96"/></svg>