<svg id="Calque_1" data-name="Calque 1" xmlns="http://www.w3.org/2000/svg" viewBox="0 0 290.83 361.96"><defs><style>.cls-1,.cls-7{fill:#302d7e;}.cls-2,.cls-4,.cls-5{fill:#fff;}.cls-3{opacity:0.2;}.cls-4{font-size:19.62px;font-family:TwCenMT-CondensedExtraBold, Tw Cen MT Condensed Extra Bold;font-weight:800;}.cls-5{stroke:#fff;stroke-miterlimit:10;stroke-width:0.25px;}.cls-6{fill:#000100;}.cls-7{font-size:12px;font-family:SegoeUI-Bold, Segoe UI;font-weight:700;}.cls-8{letter-spacing:-0.04em;}.cls-9{letter-spacing:-0.03em;}.cls-10{fill:none;stroke:#000;stroke-width:0.3px;}</style></defs><title>Carte_bleue_29</title><rect class="cls-1" x="43.38" y="39.25" width="204.07" height="283.46" rx="22.14"/><path class="cls-2" d="M77.05,95.37h136a17,17,0,0,1,17,17V279.58a17,17,0,0,1-17,17.05h-136a17,17,0,0,1-17-17.05V112.42A17,17,0,0,1,77.05,95.37Z"/><g class="cls-3"><path class="cls-1" d="M118.36,167a22.72,22.72,0,1,1,45.44,0V204.4H179V167a37.9,37.9,0,0,0-75.79,0"/><path class="cls-1" d="M103.19,167"/><path class="cls-1" d="M153.66,226.25a12.52,12.52,0,1,1-12.52-12.52,12.52,12.52,0,0,1,12.52,12.52"/><path class="cls-1" d="M111.49,226.11A29.51,29.51,0,1,1,141,255.62a29.55,29.55,0,0,1-29.51-29.51m-15.18,0A44.69,44.69,0,1,0,141,181.43a44.74,44.74,0,0,0-44.69,44.68"/><line class="cls-1" x1="103.19" y1="166.96" x2="118.36" y2="166.96"/></g><text class="cls-4" transform="translate(87.46 80.68)"><tspan xml:space="preserve">Escape the   ab</tspan></text><path class="cls-5" d="M177.72,63.06l-6.4,0a.76.76,0,0,0-.55.23.78.78,0,0,0-.22.56.74.74,0,0,0,.23.54.71.71,0,0,0,.46.22L171.35,78a3.28,3.28,0,0,0,3.31,3.26,3.28,3.28,0,0,0,3.26-3.31l-.1-13.29a.77.77,0,0,0,.47-.22.82.82,0,0,0,.22-.55.79.79,0,0,0-.79-.78Zm.27.78a.29.29,0,0,1-.07.18.27.27,0,0,1-.19.08h-.23l-3.92,0a.26.26,0,1,0,0,.52l3.72,0,.1,13.28a2.75,2.75,0,0,1-2.74,2.79,2.77,2.77,0,0,1-2.79-2.75l-.11-13.28h.78a.26.26,0,0,0,.26-.26.26.26,0,0,0-.26-.26l-1,0h-.22a.27.27,0,0,1-.19-.08.23.23,0,0,1-.07-.18.24.24,0,0,1,.07-.18.25.25,0,0,1,.18-.08l6.41-.05a.26.26,0,0,1,.26.26Z"/><path class="cls-5" d="M176.57,70.94a1.07,1.07,0,0,0-.64.23.54.54,0,0,1-.7,0,1.05,1.05,0,0,0-.65-.21,1,1,0,0,0-.64.22.52.52,0,0,1-.35.13.5.5,0,0,1-.35-.12,1,1,0,0,0-.65-.21.24.24,0,0,0-.18.07.27.27,0,0,0-.08.19l0,2.83a.27.27,0,0,0,.27.26.25.25,0,0,0,.25-.26V71.56l.09.06a1,1,0,0,0,.64.21,1.07,1.07,0,0,0,.65-.22.5.5,0,0,1,.35-.13.59.59,0,0,1,.35.12,1,1,0,0,0,.64.22,1,1,0,0,0,.65-.23l.09-.06.05,6.38a1.77,1.77,0,0,1-.5,1.23,1.71,1.71,0,0,1-1.22.51,1.73,1.73,0,0,1-1.75-1.71l0-2.84a.26.26,0,0,0-.52,0l0,2.83a2.25,2.25,0,0,0,2.27,2.23,2.22,2.22,0,0,0,1.59-.67,2.26,2.26,0,0,0,.65-1.59l-.06-6.69a.25.25,0,0,0-.24-.27Z"/><path class="cls-5" d="M175.29,66.71a.25.25,0,0,0,.26.26.26.26,0,0,1,.26.26.25.25,0,0,1-.08.18.23.23,0,0,1-.18.08.26.26,0,0,1-.26-.26.26.26,0,0,0-.52,0,.78.78,0,0,0,.78.77.75.75,0,0,0,.55-.23.78.78,0,0,0,.23-.55.8.8,0,0,0-.79-.78.25.25,0,0,0-.25.26Z"/><path class="cls-5" d="M174.13,69.87a.78.78,0,0,0,0-1.1.76.76,0,0,0-.55-.23.27.27,0,0,0-.26.27.26.26,0,0,0,.26.25.27.27,0,0,1,.19.08.24.24,0,0,1,.07.18.26.26,0,0,1-.07.19.29.29,0,0,1-.18.07.26.26,0,0,1-.19-.07.27.27,0,0,1-.08-.18.25.25,0,0,0-.26-.26.26.26,0,0,0-.26.26.78.78,0,0,0,.79.77.76.76,0,0,0,.55-.23Z"/><path class="cls-6" d="M70.43,138.7v-7h1.94c2.47,0,3.7,1.13,3.7,3.41a3.4,3.4,0,0,1-1,2.6,3.79,3.79,0,0,1-2.75,1Zm.82-6.26V138h1a3,3,0,0,0,2.14-.74,2.77,2.77,0,0,0,.77-2.09c0-1.8-.95-2.69-2.86-2.69Z"/><path class="cls-6" d="M81.36,136.4H77.83a1.87,1.87,0,0,0,.45,1.29,1.54,1.54,0,0,0,1.18.45,2.41,2.41,0,0,0,1.55-.56v.76a2.89,2.89,0,0,1-1.74.47,2.11,2.11,0,0,1-1.67-.68,2.79,2.79,0,0,1-.6-1.91,2.73,2.73,0,0,1,.66-1.9,2.12,2.12,0,0,1,1.64-.74,1.86,1.86,0,0,1,1.52.64,2.63,2.63,0,0,1,.54,1.76Zm-.82-.68a1.68,1.68,0,0,0-.34-1.08,1.12,1.12,0,0,0-.91-.39,1.32,1.32,0,0,0-1,.41,1.83,1.83,0,0,0-.48,1.06Z"/><path class="cls-6" d="M82.27,138.52v-.86a2.35,2.35,0,0,0,1.44.48c.7,0,1.05-.23,1.05-.7a.59.59,0,0,0-.09-.34.94.94,0,0,0-.24-.25,2.55,2.55,0,0,0-.37-.19l-.44-.18c-.22-.09-.42-.18-.59-.27a1.87,1.87,0,0,1-.42-.3,1.19,1.19,0,0,1-.25-.38,1.28,1.28,0,0,1-.08-.5,1.18,1.18,0,0,1,.16-.63,1.32,1.32,0,0,1,.43-.45,2.28,2.28,0,0,1,.61-.28,2.82,2.82,0,0,1,.71-.09,2.86,2.86,0,0,1,1.16.23v.81a2.2,2.2,0,0,0-1.27-.37,1.25,1.25,0,0,0-.4.06.89.89,0,0,0-.31.14.59.59,0,0,0-.2.22.57.57,0,0,0-.07.29.61.61,0,0,0,.07.32.64.64,0,0,0,.2.24,1.56,1.56,0,0,0,.34.18l.44.19a5.68,5.68,0,0,1,.6.26,2.52,2.52,0,0,1,.45.3,1.21,1.21,0,0,1,.28.39,1.18,1.18,0,0,1,.1.52,1.19,1.19,0,0,1-.16.64,1.38,1.38,0,0,1-.44.46,2,2,0,0,1-.63.27,3.08,3.08,0,0,1-.75.08A2.78,2.78,0,0,1,82.27,138.52Z"/><path class="cls-6" d="M93.57,136.4H90a1.87,1.87,0,0,0,.45,1.29,1.54,1.54,0,0,0,1.18.45,2.41,2.41,0,0,0,1.55-.56v.76a2.89,2.89,0,0,1-1.74.47,2.11,2.11,0,0,1-1.67-.68,2.79,2.79,0,0,1-.6-1.91,2.73,2.73,0,0,1,.66-1.9,2.12,2.12,0,0,1,1.64-.74,1.86,1.86,0,0,1,1.52.64,2.63,2.63,0,0,1,.54,1.76Zm-.82-.68a1.62,1.62,0,0,0-.34-1.08,1.12,1.12,0,0,0-.91-.39,1.28,1.28,0,0,0-1,.41,1.78,1.78,0,0,0-.49,1.06Zm-.13-4.57-1.28,1.6h-.62l1.09-1.6Z"/><path class="cls-6" d="M99.05,138.7h-.8v-.85h0a2,2,0,0,1-3.23.29,2.76,2.76,0,0,1-.56-1.83,3,3,0,0,1,.62-2,2.06,2.06,0,0,1,1.67-.75,1.61,1.61,0,0,1,1.5.81h0V131.3h.8Zm-.8-2.26v-.74a1.48,1.48,0,0,0-.4-1,1.36,1.36,0,0,0-1-.42,1.37,1.37,0,0,0-1.15.54,2.36,2.36,0,0,0-.42,1.49,2.1,2.1,0,0,0,.4,1.36,1.33,1.33,0,0,0,1.08.5,1.38,1.38,0,0,0,1.09-.48A1.79,1.79,0,0,0,98.25,136.44Z"/><path class="cls-6" d="M101.08,132.43a.51.51,0,0,1-.37-.15.53.53,0,0,1,0-.74.51.51,0,0,1,.37-.15.5.5,0,0,1,.37.15.51.51,0,0,1,.16.37.52.52,0,0,1-.16.37A.5.5,0,0,1,101.08,132.43Zm.39,6.27h-.8v-5h.8Z"/><path class="cls-6" d="M105.41,138.65a1.61,1.61,0,0,1-.75.16c-.87,0-1.31-.49-1.31-1.47v-3h-.86v-.68h.86v-1.22l.8-.26v1.48h1.26v.68h-1.26v2.82a1.23,1.23,0,0,0,.17.72.68.68,0,0,0,.57.21.85.85,0,0,0,.52-.16Z"/><path class="cls-6" d="M110.5,136.4H107a1.87,1.87,0,0,0,.45,1.29,1.54,1.54,0,0,0,1.18.45,2.41,2.41,0,0,0,1.55-.56v.76a2.89,2.89,0,0,1-1.74.47,2.11,2.11,0,0,1-1.67-.68,2.79,2.79,0,0,1-.6-1.91,2.73,2.73,0,0,1,.66-1.9,2.12,2.12,0,0,1,1.64-.74,1.86,1.86,0,0,1,1.52.64,2.63,2.63,0,0,1,.54,1.76Zm-.82-.68a1.68,1.68,0,0,0-.34-1.08,1.12,1.12,0,0,0-.91-.39,1.28,1.28,0,0,0-1,.41,1.78,1.78,0,0,0-.49,1.06Z"/><path class="cls-6" d="M115.75,138.7H115v-.79h0a1.65,1.65,0,0,1-1.54.9c-1.19,0-1.79-.7-1.79-2.12v-3h.8v2.86c0,1.05.4,1.58,1.21,1.58a1.21,1.21,0,0,0,1-.43,1.68,1.68,0,0,0,.38-1.13V133.7h.8Z"/><path class="cls-6" d="M120,134.51a1,1,0,0,0-.61-.16,1,1,0,0,0-.86.48,2.23,2.23,0,0,0-.34,1.32v2.55h-.8v-5h.8v1h0a1.71,1.71,0,0,1,.52-.82,1.2,1.2,0,0,1,.79-.3,1.28,1.28,0,0,1,.48.07Z"/><path class="cls-6" d="M120.54,138.52v-.86a2.4,2.4,0,0,0,1.44.48c.71,0,1.06-.23,1.06-.7a.59.59,0,0,0-.09-.34.85.85,0,0,0-.25-.25,2,2,0,0,0-.36-.19l-.45-.18c-.22-.09-.41-.18-.58-.27a1.51,1.51,0,0,1-.42-.3,1,1,0,0,1-.25-.38,1.37,1.37,0,0,1,.07-1.13,1.42,1.42,0,0,1,.43-.45,2.43,2.43,0,0,1,.61-.28,2.9,2.9,0,0,1,.72-.09,2.86,2.86,0,0,1,1.16.23v.81a2.2,2.2,0,0,0-1.27-.37,1.31,1.31,0,0,0-.41.06,1,1,0,0,0-.31.14.83.83,0,0,0-.2.22.69.69,0,0,0-.07.29.72.72,0,0,0,.07.32.79.79,0,0,0,.21.24,1.29,1.29,0,0,0,.33.18l.45.19a4.72,4.72,0,0,1,.59.26,2,2,0,0,1,.45.3,1.11,1.11,0,0,1,.29.39,1.34,1.34,0,0,1,.1.52,1.2,1.2,0,0,1-.17.64,1.35,1.35,0,0,1-.43.46,2.22,2.22,0,0,1-.63.27,3.08,3.08,0,0,1-.75.08A2.82,2.82,0,0,1,120.54,138.52Z"/><path class="cls-6" d="M128.65,138h0v3h-.8v-7.3h.8v.88h0a1.88,1.88,0,0,1,1.73-1,1.81,1.81,0,0,1,1.5.67,2.74,2.74,0,0,1,.55,1.8,3.13,3.13,0,0,1-.61,2,2,2,0,0,1-1.67.75A1.66,1.66,0,0,1,128.65,138Zm0-2v.7a1.48,1.48,0,0,0,.4,1.05,1.33,1.33,0,0,0,1,.43,1.31,1.31,0,0,0,1.14-.56,2.49,2.49,0,0,0,.42-1.54,2,2,0,0,0-.39-1.31,1.28,1.28,0,0,0-1-.48,1.45,1.45,0,0,0-1.13.49A1.79,1.79,0,0,0,128.63,136Z"/><path class="cls-6" d="M136.31,134.51a1,1,0,0,0-.6-.16,1,1,0,0,0-.86.48,2.23,2.23,0,0,0-.34,1.32v2.55h-.8v-5h.8v1h0a1.64,1.64,0,0,1,.52-.82,1.16,1.16,0,0,1,.78-.3,1.22,1.22,0,0,1,.48.07Z"/><path class="cls-6" d="M139.27,138.81a2.31,2.31,0,0,1-1.77-.7,2.57,2.57,0,0,1-.66-1.85,2.7,2.7,0,0,1,.69-2,2.49,2.49,0,0,1,1.86-.71,2.26,2.26,0,0,1,1.75.69,2.76,2.76,0,0,1,.62,1.91,2.67,2.67,0,0,1-.67,1.91A2.38,2.38,0,0,1,139.27,138.81Zm.06-4.56a1.53,1.53,0,0,0-1.22.53,2.15,2.15,0,0,0-.45,1.45,2,2,0,0,0,.45,1.4,1.56,1.56,0,0,0,1.22.51,1.46,1.46,0,0,0,1.19-.5,2.18,2.18,0,0,0,.42-1.43,2.22,2.22,0,0,0-.42-1.45A1.43,1.43,0,0,0,139.33,134.25Z"/><path class="cls-6" d="M145.51,132a1,1,0,0,0-.53-.13c-.56,0-.84.35-.84,1.06v.77h1.17v.68h-1.17v4.32h-.8v-4.32h-.85v-.68h.85v-.81a1.72,1.72,0,0,1,.46-1.25,1.54,1.54,0,0,1,1.13-.45,1.5,1.5,0,0,1,.58.09Z"/><path class="cls-6" d="M146.58,132.43a.49.49,0,0,1-.36-.15.51.51,0,0,1,0-.74.49.49,0,0,1,.36-.15.5.5,0,0,1,.37.15.47.47,0,0,1,.16.37.49.49,0,0,1-.16.37A.5.5,0,0,1,146.58,132.43Zm.39,6.27h-.8v-5h.8Z"/><path class="cls-6" d="M150.91,138.65a1.56,1.56,0,0,1-.74.16q-1.32,0-1.32-1.47v-3H148v-.68h.86v-1.22l.8-.26v1.48h1.26v.68h-1.26v2.82a1.23,1.23,0,0,0,.17.72.71.71,0,0,0,.57.21.83.83,0,0,0,.52-.16Z"/><path class="cls-6" d="M156,136.4h-3.53a1.87,1.87,0,0,0,.45,1.29,1.56,1.56,0,0,0,1.18.45,2.41,2.41,0,0,0,1.55-.56v.76a2.89,2.89,0,0,1-1.74.47,2.07,2.07,0,0,1-1.66-.68,3.18,3.18,0,0,1,.05-3.81,2.13,2.13,0,0,1,1.65-.74,1.84,1.84,0,0,1,1.51.64A2.63,2.63,0,0,1,156,136Zm-.82-.68a1.62,1.62,0,0,0-.33-1.08,1.14,1.14,0,0,0-.92-.39,1.28,1.28,0,0,0-1,.41,1.78,1.78,0,0,0-.49,1.06Z"/><path class="cls-6" d="M161.36,138.7h-.8v-2.85c0-1.06-.39-1.6-1.16-1.6a1.23,1.23,0,0,0-1,.46,1.64,1.64,0,0,0-.4,1.14v2.85h-.8v-5h.8v.83h0a1.82,1.82,0,0,1,1.64-.95,1.55,1.55,0,0,1,1.26.53,2.34,2.34,0,0,1,.43,1.53Z"/><path class="cls-6" d="M165.19,138.65a1.61,1.61,0,0,1-.75.16c-.87,0-1.31-.49-1.31-1.47v-3h-.86v-.68h.86v-1.22l.8-.26v1.48h1.26v.68h-1.26v2.82a1.23,1.23,0,0,0,.17.72.7.7,0,0,0,.57.21.85.85,0,0,0,.52-.16Z"/><path class="cls-6" d="M173.27,138.7h-.8v-.85h0a2,2,0,0,1-3.23.29,2.71,2.71,0,0,1-.56-1.83,3,3,0,0,1,.62-2,2.06,2.06,0,0,1,1.67-.75,1.62,1.62,0,0,1,1.5.81h0V131.3h.8Zm-.8-2.26v-.74a1.48,1.48,0,0,0-.4-1,1.36,1.36,0,0,0-1-.42,1.37,1.37,0,0,0-1.15.54,2.36,2.36,0,0,0-.42,1.49,2.1,2.1,0,0,0,.4,1.36,1.33,1.33,0,0,0,1.08.5,1.38,1.38,0,0,0,1.09-.48A1.79,1.79,0,0,0,172.47,136.44Z"/><path class="cls-6" d="M178.93,138.7h-.8v-.79h0a1.65,1.65,0,0,1-1.54.9c-1.19,0-1.79-.7-1.79-2.12v-3h.8v2.86c0,1.05.4,1.58,1.21,1.58a1.21,1.21,0,0,0,1-.43,1.68,1.68,0,0,0,.38-1.13V133.7h.8Z"/><path class="cls-6" d="M190.39,138.7h-.81v-2.87a2.14,2.14,0,0,0-.25-1.2,1,1,0,0,0-.86-.38,1.08,1.08,0,0,0-.88.47,1.87,1.87,0,0,0-.35,1.13v2.85h-.8v-3c0-1-.38-1.48-1.14-1.48a1.05,1.05,0,0,0-.87.45,1.79,1.79,0,0,0-.34,1.15v2.85h-.8v-5h.8v.79h0a1.68,1.68,0,0,1,1.55-.91,1.44,1.44,0,0,1,.89.29,1.37,1.37,0,0,1,.52.75,1.81,1.81,0,0,1,1.67-1q1.65,0,1.65,2Z"/><path class="cls-6" d="M194,138.81a2.31,2.31,0,0,1-1.77-.7,2.57,2.57,0,0,1-.66-1.85,2.7,2.7,0,0,1,.69-2,2.46,2.46,0,0,1,1.86-.71,2.24,2.24,0,0,1,1.74.69,2.72,2.72,0,0,1,.63,1.91,2.67,2.67,0,0,1-.68,1.91A2.36,2.36,0,0,1,194,138.81Zm.06-4.56a1.52,1.52,0,0,0-1.22.53,2.15,2.15,0,0,0-.45,1.45,2,2,0,0,0,.45,1.4,1.55,1.55,0,0,0,1.22.51,1.47,1.47,0,0,0,1.19-.5,2.18,2.18,0,0,0,.42-1.43,2.22,2.22,0,0,0-.42-1.45A1.45,1.45,0,0,0,194.05,134.25Z"/><path class="cls-6" d="M201.8,138.7H201v-.79h0a1.65,1.65,0,0,1-1.54.9c-1.19,0-1.79-.7-1.79-2.12v-3h.8v2.86c0,1.05.4,1.58,1.21,1.58a1.21,1.21,0,0,0,1-.43,1.68,1.68,0,0,0,.38-1.13V133.7h.8Z"/><path class="cls-6" d="M207.35,133.7l-2,5h-.79l-1.89-5h.87l1.27,3.63a2.89,2.89,0,0,1,.18.7h0a2.71,2.71,0,0,1,.16-.68l1.32-3.65Z"/><path class="cls-6" d="M212.23,136.4H208.7a1.87,1.87,0,0,0,.45,1.29,1.54,1.54,0,0,0,1.18.45,2.41,2.41,0,0,0,1.55-.56v.76a2.89,2.89,0,0,1-1.74.47,2.09,2.09,0,0,1-1.67-.68,2.79,2.79,0,0,1-.6-1.91,2.73,2.73,0,0,1,.66-1.9,2.12,2.12,0,0,1,1.64-.74,1.87,1.87,0,0,1,1.52.64,2.63,2.63,0,0,1,.54,1.76Zm-.82-.68a1.68,1.68,0,0,0-.34-1.08,1.12,1.12,0,0,0-.91-.39,1.32,1.32,0,0,0-1,.41,1.83,1.83,0,0,0-.48,1.06Z"/><path class="cls-6" d="M216,136.23h-2.67v-.63H216Z"/><path class="cls-6" d="M77.43,150.7h-.8v-2.87a2.13,2.13,0,0,0-.26-1.2,1,1,0,0,0-.86-.38,1.08,1.08,0,0,0-.87.47,1.82,1.82,0,0,0-.36,1.13v2.85h-.8v-3c0-1-.38-1.48-1.14-1.48a1.05,1.05,0,0,0-.87.45,1.79,1.79,0,0,0-.34,1.15v2.85h-.8v-5h.8v.79h0a1.68,1.68,0,0,1,1.55-.91,1.47,1.47,0,0,1,1.42,1,1.78,1.78,0,0,1,1.66-1q1.65,0,1.65,2Z"/><path class="cls-6" d="M83,148.4H79.43a1.87,1.87,0,0,0,.45,1.29,1.54,1.54,0,0,0,1.18.45,2.41,2.41,0,0,0,1.55-.56v.76a2.89,2.89,0,0,1-1.74.47,2.11,2.11,0,0,1-1.67-.68,2.79,2.79,0,0,1-.6-1.91,2.73,2.73,0,0,1,.66-1.9,2.12,2.12,0,0,1,1.64-.74,1.86,1.86,0,0,1,1.52.64A2.63,2.63,0,0,1,83,148Zm-.82-.68a1.62,1.62,0,0,0-.34-1.08,1.12,1.12,0,0,0-.91-.39,1.28,1.28,0,0,0-1,.41,1.78,1.78,0,0,0-.49,1.06Z"/><path class="cls-6" d="M88.32,150.7h-.8v-2.85c0-1.06-.39-1.6-1.16-1.6a1.27,1.27,0,0,0-1,.46,1.68,1.68,0,0,0-.39,1.14v2.85h-.8v-5H85v.83h0a1.81,1.81,0,0,1,1.64-.95,1.55,1.55,0,0,1,1.26.53,2.34,2.34,0,0,1,.43,1.53Z"/><path class="cls-6" d="M92.15,150.65a1.61,1.61,0,0,1-.75.16c-.87,0-1.31-.49-1.31-1.47v-3h-.86v-.68h.86v-1.22l.8-.26v1.48h1.26v.68H90.89v2.82a1.23,1.23,0,0,0,.17.72.68.68,0,0,0,.57.21.85.85,0,0,0,.52-.16Z"/><path class="cls-6" d="M100.22,150.7h-.8v-.85h0a2,2,0,0,1-3.22.29,2.71,2.71,0,0,1-.57-1.83,3,3,0,0,1,.63-2,2.06,2.06,0,0,1,1.67-.75,1.59,1.59,0,0,1,1.49.81h0V143.3h.8Zm-.8-2.26v-.74a1.43,1.43,0,0,0-.4-1,1.32,1.32,0,0,0-1-.42,1.37,1.37,0,0,0-1.15.54,2.36,2.36,0,0,0-.42,1.49,2.1,2.1,0,0,0,.4,1.36,1.33,1.33,0,0,0,1.08.5,1.38,1.38,0,0,0,1.09-.48A1.84,1.84,0,0,0,99.42,148.44Z"/><path class="cls-6" d="M105.86,148.4h-3.53a2,2,0,0,0,.45,1.29,1.56,1.56,0,0,0,1.18.45,2.41,2.41,0,0,0,1.56-.56v.76a2.9,2.9,0,0,1-1.75.47,2.09,2.09,0,0,1-1.66-.68,2.79,2.79,0,0,1-.61-1.91,2.69,2.69,0,0,1,.67-1.9,2.11,2.11,0,0,1,1.64-.74,1.87,1.87,0,0,1,1.52.64,2.68,2.68,0,0,1,.53,1.76Zm-.82-.68a1.62,1.62,0,0,0-.33-1.08,1.14,1.14,0,0,0-.92-.39,1.32,1.32,0,0,0-1,.41,1.91,1.91,0,0,0-.49,1.06Z"/><path class="cls-6" d="M110.61,150.7h-.8v-7.4h.8Z"/><path class="cls-6" d="M112.93,143.7v2.18h-.71V143.7Z"/><path class="cls-6" d="M117.47,150.81a3.06,3.06,0,0,1-2.39-1,3.61,3.61,0,0,1-.9-2.55,3.86,3.86,0,0,1,.92-2.7,3.17,3.17,0,0,1,2.48-1,3,3,0,0,1,2.34,1,3.65,3.65,0,0,1,.89,2.55,3.91,3.91,0,0,1-.91,2.71A3.15,3.15,0,0,1,117.47,150.81Zm0-6.49a2.27,2.27,0,0,0-1.79.8,3.06,3.06,0,0,0-.69,2.09,3.1,3.1,0,0,0,.68,2.08,2.2,2.2,0,0,0,1.75.79,2.3,2.3,0,0,0,1.81-.75,3.12,3.12,0,0,0,.67-2.11,3.2,3.2,0,0,0-.65-2.14A2.2,2.2,0,0,0,117.52,144.32Z"/><path class="cls-6" d="M122.9,150h0v3h-.81v-7.3h.81v.88h0a1.87,1.87,0,0,1,1.72-1,1.82,1.82,0,0,1,1.51.67,2.8,2.8,0,0,1,.54,1.8,3.07,3.07,0,0,1-.61,2,2,2,0,0,1-1.67.75A1.66,1.66,0,0,1,122.9,150Zm0-2v.7a1.48,1.48,0,0,0,.4,1.05,1.33,1.33,0,0,0,1,.43,1.31,1.31,0,0,0,1.14-.56,2.49,2.49,0,0,0,.41-1.54,2,2,0,0,0-.38-1.31,1.28,1.28,0,0,0-1-.48,1.43,1.43,0,0,0-1.12.49A1.79,1.79,0,0,0,122.88,148Z"/><path class="cls-6" d="M132,148.4h-3.53a1.92,1.92,0,0,0,.45,1.29,1.56,1.56,0,0,0,1.18.45,2.43,2.43,0,0,0,1.56-.56v.76a2.9,2.9,0,0,1-1.75.47,2.09,2.09,0,0,1-1.66-.68,3.18,3.18,0,0,1,.05-3.81,2.13,2.13,0,0,1,1.65-.74,1.87,1.87,0,0,1,1.52.64A2.68,2.68,0,0,1,132,148Zm-.82-.68a1.62,1.62,0,0,0-.33-1.08,1.14,1.14,0,0,0-.92-.39,1.28,1.28,0,0,0-1,.41,1.84,1.84,0,0,0-.49,1.06Z"/><path class="cls-6" d="M137.33,150.7h-.8v-2.85c0-1.06-.38-1.6-1.16-1.6a1.23,1.23,0,0,0-1,.46,1.64,1.64,0,0,0-.4,1.14v2.85h-.8v-5h.8v.83h0a1.82,1.82,0,0,1,1.64-.95,1.55,1.55,0,0,1,1.26.53,2.34,2.34,0,0,1,.43,1.53Z"/><path class="cls-6" d="M147.11,150.7h-.91l-.74-2h-3l-.7,2h-.91l2.68-7h.85Zm-1.92-2.7-1.1-3a4,4,0,0,1-.11-.46h0a2.6,2.6,0,0,1-.11.46l-1.09,3Z"/><path class="cls-6" d="M151.44,150.47a2.6,2.6,0,0,1-1.37.34,2.25,2.25,0,0,1-1.72-.69,2.52,2.52,0,0,1-.66-1.81,2.78,2.78,0,0,1,.71-2,2.47,2.47,0,0,1,1.89-.75,2.67,2.67,0,0,1,1.16.24v.82a2,2,0,0,0-1.19-.39,1.64,1.64,0,0,0-1.26.55,2.09,2.09,0,0,0-.49,1.45,2,2,0,0,0,.46,1.38,1.59,1.59,0,0,0,1.24.51,2,2,0,0,0,1.23-.43Z"/><path class="cls-6" d="M156.06,150.47a2.6,2.6,0,0,1-1.37.34,2.25,2.25,0,0,1-1.72-.69,2.52,2.52,0,0,1-.66-1.81,2.78,2.78,0,0,1,.71-2,2.47,2.47,0,0,1,1.89-.75,2.67,2.67,0,0,1,1.16.24v.82a2,2,0,0,0-1.19-.39,1.64,1.64,0,0,0-1.26.55,2.09,2.09,0,0,0-.49,1.45,2,2,0,0,0,.46,1.38,1.59,1.59,0,0,0,1.24.51,2,2,0,0,0,1.23-.43Z"/><path class="cls-6" d="M161.29,148.4h-3.53a1.87,1.87,0,0,0,.45,1.29,1.54,1.54,0,0,0,1.18.45,2.41,2.41,0,0,0,1.55-.56v.76a2.89,2.89,0,0,1-1.74.47,2.11,2.11,0,0,1-1.67-.68,2.79,2.79,0,0,1-.6-1.91,2.73,2.73,0,0,1,.66-1.9,2.12,2.12,0,0,1,1.64-.74,1.86,1.86,0,0,1,1.52.64,2.63,2.63,0,0,1,.54,1.76Zm-.82-.68a1.62,1.62,0,0,0-.34-1.08,1.12,1.12,0,0,0-.91-.39,1.28,1.28,0,0,0-1,.41,1.78,1.78,0,0,0-.49,1.06Z"/><path class="cls-6" d="M162.2,150.52v-.86a2.35,2.35,0,0,0,1.44.48c.7,0,1.05-.23,1.05-.7a.59.59,0,0,0-.09-.34.94.94,0,0,0-.24-.25,2.42,2.42,0,0,0-.36-.19l-.45-.18a5.37,5.37,0,0,1-.58-.27,1.51,1.51,0,0,1-.42-.3,1.08,1.08,0,0,1-.26-.38,1.5,1.5,0,0,1-.08-.5,1.18,1.18,0,0,1,.16-.63,1.42,1.42,0,0,1,.43-.45,2.28,2.28,0,0,1,.61-.28,2.82,2.82,0,0,1,.71-.09,2.86,2.86,0,0,1,1.16.23v.81a2.2,2.2,0,0,0-1.27-.37,1.25,1.25,0,0,0-.4.06.89.89,0,0,0-.31.14.69.69,0,0,0-.2.22.57.57,0,0,0-.07.29.61.61,0,0,0,.07.32.68.68,0,0,0,.21.24,1.29,1.29,0,0,0,.33.18l.44.19a5.68,5.68,0,0,1,.6.26,2.52,2.52,0,0,1,.45.3,1.08,1.08,0,0,1,.28.39,1.18,1.18,0,0,1,.1.52,1.19,1.19,0,0,1-.16.64,1.38,1.38,0,0,1-.44.46,2,2,0,0,1-.63.27,3,3,0,0,1-.75.08A2.78,2.78,0,0,1,162.2,150.52Z"/><path class="cls-6" d="M166.44,150.52v-.86a2.4,2.4,0,0,0,1.44.48c.7,0,1.06-.23,1.06-.7a.53.53,0,0,0-.1-.34.94.94,0,0,0-.24-.25,2,2,0,0,0-.36-.19l-.45-.18c-.22-.09-.41-.18-.58-.27a1.51,1.51,0,0,1-.42-.3,1,1,0,0,1-.25-.38,1.28,1.28,0,0,1-.09-.5,1.18,1.18,0,0,1,.16-.63A1.42,1.42,0,0,1,167,146a2.28,2.28,0,0,1,.61-.28,2.82,2.82,0,0,1,.71-.09,2.91,2.91,0,0,1,1.17.23v.81a2.2,2.2,0,0,0-1.27-.37,1.31,1.31,0,0,0-.41.06,1,1,0,0,0-.31.14.69.69,0,0,0-.2.22.57.57,0,0,0-.07.29.61.61,0,0,0,.07.32.79.79,0,0,0,.21.24,1.29,1.29,0,0,0,.33.18l.44.19a4.9,4.9,0,0,1,.6.26,2,2,0,0,1,.45.3,1.24,1.24,0,0,1,.29.39,1.34,1.34,0,0,1,.1.52,1.2,1.2,0,0,1-.17.64,1.35,1.35,0,0,1-.43.46,2.22,2.22,0,0,1-.63.27,3.08,3.08,0,0,1-.75.08A2.82,2.82,0,0,1,166.44,150.52Z"/><path class="cls-6" d="M174.55,150h0v3h-.8v-7.3h.8v.88h0a1.88,1.88,0,0,1,1.72-1,1.82,1.82,0,0,1,1.51.67,2.8,2.8,0,0,1,.54,1.8,3.07,3.07,0,0,1-.61,2,2,2,0,0,1-1.67.75A1.66,1.66,0,0,1,174.55,150Zm0-2v.7a1.48,1.48,0,0,0,.4,1.05,1.33,1.33,0,0,0,1,.43,1.31,1.31,0,0,0,1.14-.56,2.49,2.49,0,0,0,.41-1.54,2,2,0,0,0-.38-1.31,1.28,1.28,0,0,0-1.05-.48,1.43,1.43,0,0,0-1.12.49A1.79,1.79,0,0,0,174.53,148Z"/><path class="cls-6" d="M181.69,150.81a2.31,2.31,0,0,1-1.77-.7,2.57,2.57,0,0,1-.66-1.85,2.7,2.7,0,0,1,.69-2,2.49,2.49,0,0,1,1.86-.71,2.25,2.25,0,0,1,1.75.69,2.71,2.71,0,0,1,.62,1.91,2.67,2.67,0,0,1-.67,1.91A2.38,2.38,0,0,1,181.69,150.81Zm.06-4.56a1.53,1.53,0,0,0-1.22.53,2.15,2.15,0,0,0-.45,1.45,2,2,0,0,0,.46,1.4,1.53,1.53,0,0,0,1.21.51,1.49,1.49,0,0,0,1.2-.5,2.18,2.18,0,0,0,.41-1.43,2.22,2.22,0,0,0-.41-1.45A1.47,1.47,0,0,0,181.75,146.25Z"/><path class="cls-6" d="M189.51,150.7h-.8v-.79h0a1.66,1.66,0,0,1-1.55.9c-1.19,0-1.78-.7-1.78-2.12v-3h.79v2.86c0,1.05.41,1.58,1.21,1.58a1.24,1.24,0,0,0,1-.43,1.68,1.68,0,0,0,.38-1.13V145.7h.8Z"/><path class="cls-6" d="M193.73,146.51a1,1,0,0,0-.61-.16,1,1,0,0,0-.85.48,2.22,2.22,0,0,0-.35,1.32v2.55h-.8v-5h.8v1h0a1.72,1.72,0,0,1,.53-.82,1.16,1.16,0,0,1,.78-.3,1.22,1.22,0,0,1,.48.07Z"/><path class="cls-6" d="M74.59,162.3c0,1.83-.87,2.75-2.63,2.75a3.58,3.58,0,0,1-1.62-.35v-.8a3.35,3.35,0,0,0,1.61.47c1.23,0,1.84-.66,1.84-2v-.54h0a1.85,1.85,0,0,1-1.71.95,1.89,1.89,0,0,1-1.51-.66,2.67,2.67,0,0,1-.56-1.79,3.11,3.11,0,0,1,.61-2,2.06,2.06,0,0,1,1.68-.75,1.61,1.61,0,0,1,1.49.81h0v-.69h.8Zm-.8-1.86v-.74a1.41,1.41,0,0,0-.4-1,1.34,1.34,0,0,0-1-.43,1.38,1.38,0,0,0-1.16.54,2.43,2.43,0,0,0-.42,1.52,2,2,0,0,0,.4,1.33,1.31,1.31,0,0,0,1.07.5,1.39,1.39,0,0,0,1.09-.48A1.77,1.77,0,0,0,73.79,160.44Z"/><path class="cls-6" d="M79.79,162.7H79v-.78h0a1.83,1.83,0,0,1-2.7.5,1.37,1.37,0,0,1-.43-1c0-.93.55-1.48,1.65-1.63l1.5-.21c0-.85-.34-1.28-1-1.28a2.48,2.48,0,0,0-1.63.62v-.82a3.12,3.12,0,0,1,1.7-.47c1.18,0,1.76.62,1.76,1.87Zm-.8-2.53-1.2.16a2.11,2.11,0,0,0-.84.28.8.8,0,0,0-.29.7.76.76,0,0,0,.27.6,1,1,0,0,0,.69.23,1.29,1.29,0,0,0,1-.42,1.5,1.5,0,0,0,.38-1.05Z"/><path class="cls-6" d="M85.57,162.3c0,1.83-.88,2.75-2.64,2.75a3.64,3.64,0,0,1-1.62-.35v-.8a3.38,3.38,0,0,0,1.61.47c1.24,0,1.85-.66,1.85-2v-.54h0a1.86,1.86,0,0,1-1.72.95,1.89,1.89,0,0,1-1.5-.66,2.67,2.67,0,0,1-.57-1.79,3.17,3.17,0,0,1,.61-2,2.06,2.06,0,0,1,1.68-.75,1.62,1.62,0,0,1,1.5.81h0v-.69h.8Zm-.8-1.86v-.74a1.41,1.41,0,0,0-.4-1,1.36,1.36,0,0,0-1-.43,1.39,1.39,0,0,0-1.16.54,2.43,2.43,0,0,0-.42,1.52,2.11,2.11,0,0,0,.4,1.33,1.32,1.32,0,0,0,1.07.5,1.4,1.4,0,0,0,1.1-.48A1.77,1.77,0,0,0,84.77,160.44Z"/><path class="cls-6" d="M91.34,162.7h-.8v-2.85c0-1.06-.39-1.6-1.16-1.6a1.23,1.23,0,0,0-1,.46,1.64,1.64,0,0,0-.4,1.14v2.85h-.8v-5H88v.83h0a1.82,1.82,0,0,1,1.64-.95,1.55,1.55,0,0,1,1.26.53,2.34,2.34,0,0,1,.43,1.53Z"/><path class="cls-6" d="M96.87,160.4H93.34a1.87,1.87,0,0,0,.45,1.29,1.56,1.56,0,0,0,1.18.45,2.41,2.41,0,0,0,1.55-.56v.76a2.89,2.89,0,0,1-1.74.47,2.11,2.11,0,0,1-1.67-.68,2.79,2.79,0,0,1-.6-1.91,2.73,2.73,0,0,1,.66-1.9,2.12,2.12,0,0,1,1.64-.74,1.86,1.86,0,0,1,1.52.64,2.63,2.63,0,0,1,.54,1.76Zm-.82-.68a1.68,1.68,0,0,0-.33-1.08,1.14,1.14,0,0,0-.92-.39,1.28,1.28,0,0,0-1,.41,1.78,1.78,0,0,0-.49,1.06Z"/><path class="cls-6" d="M100.69,158.51a1,1,0,0,0-.61-.16,1,1,0,0,0-.85.48,2.22,2.22,0,0,0-.35,1.32v2.55h-.8v-5h.8v1h0a1.71,1.71,0,0,1,.52-.82,1.2,1.2,0,0,1,.79-.3,1.22,1.22,0,0,1,.48.07Z"/><path class="cls-6" d="M108.56,162.7h-.8v-.85h0a2,2,0,0,1-3.22.29,2.71,2.71,0,0,1-.57-1.83,3,3,0,0,1,.63-2,2.06,2.06,0,0,1,1.66-.75,1.6,1.6,0,0,1,1.5.81h0V155.3h.8Zm-.8-2.26v-.74a1.43,1.43,0,0,0-.4-1,1.32,1.32,0,0,0-1-.42,1.36,1.36,0,0,0-1.15.54,2.36,2.36,0,0,0-.42,1.49,2.1,2.1,0,0,0,.4,1.36,1.33,1.33,0,0,0,1.08.5,1.38,1.38,0,0,0,1.09-.48A1.84,1.84,0,0,0,107.76,160.44Z"/><path class="cls-6" d="M114.2,160.4h-3.53a2,2,0,0,0,.45,1.29,1.56,1.56,0,0,0,1.18.45,2.41,2.41,0,0,0,1.56-.56v.76a2.9,2.9,0,0,1-1.75.47,2.09,2.09,0,0,1-1.66-.68,2.74,2.74,0,0,1-.61-1.91,2.69,2.69,0,0,1,.67-1.9,2.11,2.11,0,0,1,1.64-.74,1.87,1.87,0,0,1,1.52.64,2.62,2.62,0,0,1,.53,1.76Zm-.82-.68a1.62,1.62,0,0,0-.33-1.08,1.14,1.14,0,0,0-.92-.39,1.32,1.32,0,0,0-1,.41,1.84,1.84,0,0,0-.49,1.06Z"/><path class="cls-6" d="M119,162.7h-.8v-7.4h.8Z"/><path class="cls-6" d="M121.27,155.7v2.18h-.71V155.7Z"/><path class="cls-6" d="M126.45,162.7h-.8v-.78h0a1.83,1.83,0,0,1-2.7.5,1.37,1.37,0,0,1-.43-1c0-.93.55-1.48,1.66-1.63l1.49-.21c0-.85-.34-1.28-1-1.28a2.48,2.48,0,0,0-1.63.62v-.82a3.12,3.12,0,0,1,1.7-.47c1.18,0,1.76.62,1.76,1.87Zm-.8-2.53-1.2.16a2.11,2.11,0,0,0-.84.28.8.8,0,0,0-.29.7.76.76,0,0,0,.27.6,1,1,0,0,0,.69.23,1.29,1.29,0,0,0,1-.42,1.5,1.5,0,0,0,.38-1.05Z"/><path class="cls-6" d="M130.57,158.51a1,1,0,0,0-.6-.16,1,1,0,0,0-.86.48,2.22,2.22,0,0,0-.35,1.32v2.55H128v-5h.8v1h0a1.72,1.72,0,0,1,.53-.82,1.16,1.16,0,0,1,.78-.3,1.22,1.22,0,0,1,.48.07Z"/><path class="cls-6" d="M135.71,162.3c0,1.83-.88,2.75-2.64,2.75a3.58,3.58,0,0,1-1.62-.35v-.8a3.35,3.35,0,0,0,1.61.47c1.23,0,1.85-.66,1.85-2v-.54h0a2,2,0,0,1-3.22.29,2.67,2.67,0,0,1-.57-1.79,3.11,3.11,0,0,1,.61-2,2.06,2.06,0,0,1,1.68-.75,1.64,1.64,0,0,1,1.5.81h0v-.69h.8Zm-.8-1.86v-.74a1.42,1.42,0,0,0-.41-1,1.32,1.32,0,0,0-1-.43,1.39,1.39,0,0,0-1.16.54,2.43,2.43,0,0,0-.42,1.52,2,2,0,0,0,.4,1.33,1.32,1.32,0,0,0,1.07.5,1.41,1.41,0,0,0,1.1-.48A1.77,1.77,0,0,0,134.91,160.44Z"/><path class="cls-6" d="M141.35,160.4h-3.53a1.87,1.87,0,0,0,.45,1.29,1.54,1.54,0,0,0,1.18.45,2.41,2.41,0,0,0,1.55-.56v.76a2.89,2.89,0,0,1-1.74.47,2.11,2.11,0,0,1-1.67-.68,2.79,2.79,0,0,1-.6-1.91,2.73,2.73,0,0,1,.66-1.9,2.12,2.12,0,0,1,1.64-.74,1.86,1.86,0,0,1,1.52.64,2.63,2.63,0,0,1,.54,1.76Zm-.82-.68a1.68,1.68,0,0,0-.34-1.08,1.12,1.12,0,0,0-.91-.39,1.28,1.28,0,0,0-1,.41,1.78,1.78,0,0,0-.49,1.06Z"/><path class="cls-6" d="M146.71,162.7h-.8v-2.85c0-1.06-.39-1.6-1.16-1.6a1.25,1.25,0,0,0-1,.46,1.68,1.68,0,0,0-.39,1.14v2.85h-.8v-5h.8v.83h0a1.81,1.81,0,0,1,1.64-.95,1.53,1.53,0,0,1,1.25.53,2.35,2.35,0,0,1,.44,1.53Z"/><path class="cls-6" d="M150.54,162.65a1.61,1.61,0,0,1-.75.16c-.88,0-1.31-.49-1.31-1.47v-3h-.86v-.68h.86v-1.22l.8-.26v1.48h1.26v.68h-1.26v2.82a1.16,1.16,0,0,0,.17.72.68.68,0,0,0,.56.21.86.86,0,0,0,.53-.16Z"/><path class="cls-6" d="M151.88,162.81a.56.56,0,0,1-.54-.55.57.57,0,0,1,.16-.39.52.52,0,0,1,.38-.16.54.54,0,0,1,.4.16.57.57,0,0,1,.16.39.53.53,0,0,1-.16.38A.54.54,0,0,1,151.88,162.81Z"/><path class="cls-6" d="M75.45,198.7h-1l-1.17-2a5.13,5.13,0,0,0-.32-.46,1.89,1.89,0,0,0-.31-.32.91.91,0,0,0-.34-.17,1.31,1.31,0,0,0-.41-.06h-.68v3h-.82v-7h2.09a2.87,2.87,0,0,1,.85.11,2,2,0,0,1,.68.35,1.69,1.69,0,0,1,.44.58,1.94,1.94,0,0,1,.16.82,1.81,1.81,0,0,1-.11.67,1.57,1.57,0,0,1-.31.55,1.75,1.75,0,0,1-.49.4,2.47,2.47,0,0,1-.64.27h0l.31.18.24.24a1.92,1.92,0,0,1,.23.31c.08.12.17.25.26.4Zm-4.2-6.26V195h1.12a1.56,1.56,0,0,0,.57-.1,1.43,1.43,0,0,0,.45-.26,1.33,1.33,0,0,0,.3-.43,1.4,1.4,0,0,0,.1-.56,1.1,1.1,0,0,0-.36-.88,1.55,1.55,0,0,0-1.05-.31Z"/><path class="cls-6" d="M80,196.4H76.5a2,2,0,0,0,.45,1.29,1.56,1.56,0,0,0,1.18.45,2.41,2.41,0,0,0,1.56-.56v.76a2.9,2.9,0,0,1-1.75.47,2.09,2.09,0,0,1-1.66-.68,2.79,2.79,0,0,1-.61-1.91,2.67,2.67,0,0,1,.67-1.9,2.11,2.11,0,0,1,1.64-.74,1.9,1.9,0,0,1,1.52.63A2.73,2.73,0,0,1,80,196Zm-.82-.68a1.62,1.62,0,0,0-.33-1.08,1.14,1.14,0,0,0-.92-.39,1.32,1.32,0,0,0-1,.41,1.91,1.91,0,0,0-.49,1.06Zm-.12-4.57-1.28,1.6h-.62l1.09-1.6Z"/><path class="cls-6" d="M82.07,198h0v3h-.81v-7.3h.81v.88h0a1.88,1.88,0,0,1,1.72-1,1.82,1.82,0,0,1,1.51.67,2.8,2.8,0,0,1,.54,1.8,3.07,3.07,0,0,1-.61,2,2,2,0,0,1-1.67.75A1.65,1.65,0,0,1,82.07,198Zm0-2v.7a1.48,1.48,0,0,0,.4,1.05,1.33,1.33,0,0,0,1,.43,1.31,1.31,0,0,0,1.14-.56A2.49,2.49,0,0,0,85,196a2,2,0,0,0-.38-1.31,1.28,1.28,0,0,0-1-.48,1.43,1.43,0,0,0-1.12.49A1.79,1.79,0,0,0,82.05,196Z"/><path class="cls-6" d="M89.21,198.81a2.31,2.31,0,0,1-1.77-.7,2.57,2.57,0,0,1-.66-1.85,2.7,2.7,0,0,1,.69-2,2.49,2.49,0,0,1,1.86-.71,2.25,2.25,0,0,1,1.75.69,2.76,2.76,0,0,1,.62,1.91,2.67,2.67,0,0,1-.67,1.91A2.38,2.38,0,0,1,89.21,198.81Zm.06-4.56a1.53,1.53,0,0,0-1.22.53,2.15,2.15,0,0,0-.45,1.45,2,2,0,0,0,.46,1.4,1.53,1.53,0,0,0,1.21.51,1.49,1.49,0,0,0,1.2-.5,2.23,2.23,0,0,0,.41-1.43,2.28,2.28,0,0,0-.41-1.45A1.47,1.47,0,0,0,89.27,194.25Z"/><path class="cls-6" d="M97.13,198.7h-.8v-2.85c0-1.06-.38-1.6-1.16-1.6a1.23,1.23,0,0,0-1,.46,1.64,1.64,0,0,0-.4,1.14v2.85H93v-5h.8v.83h0a1.82,1.82,0,0,1,1.64-.95,1.55,1.55,0,0,1,1.26.53,2.34,2.34,0,0,1,.43,1.53Z"/><path class="cls-6" d="M98.34,198.52v-.86a2.4,2.4,0,0,0,1.44.48c.7,0,1-.23,1-.7a.59.59,0,0,0-.09-.34.94.94,0,0,0-.24-.25,2,2,0,0,0-.36-.19l-.45-.18c-.22-.09-.41-.18-.58-.27a1.74,1.74,0,0,1-.42-.3,1.22,1.22,0,0,1-.26-.38,1.5,1.5,0,0,1-.08-.5,1.18,1.18,0,0,1,.16-.63,1.42,1.42,0,0,1,.43-.45,2.28,2.28,0,0,1,.61-.28,2.82,2.82,0,0,1,.71-.09,3.09,3.09,0,0,1,1.17.22v.82a2.23,2.23,0,0,0-1.27-.37,1.31,1.31,0,0,0-.41.06,1,1,0,0,0-.31.14.6.6,0,0,0-.2.22.57.57,0,0,0-.07.29.61.61,0,0,0,.07.32.79.79,0,0,0,.21.24,1.29,1.29,0,0,0,.33.18l.44.18c.23.09.42.18.6.27a2,2,0,0,1,.45.3,1.08,1.08,0,0,1,.28.39,1.17,1.17,0,0,1,.11.52,1.2,1.2,0,0,1-.17.64,1.29,1.29,0,0,1-.44.46,2,2,0,0,1-.63.27,3,3,0,0,1-.74.08A2.82,2.82,0,0,1,98.34,198.52Z"/><path class="cls-6" d="M106.9,196.4h-3.53a2,2,0,0,0,.45,1.29,1.56,1.56,0,0,0,1.18.45,2.41,2.41,0,0,0,1.56-.56v.76a2.9,2.9,0,0,1-1.75.47,2.09,2.09,0,0,1-1.66-.68,2.79,2.79,0,0,1-.61-1.91,2.67,2.67,0,0,1,.67-1.9,2.11,2.11,0,0,1,1.64-.74,1.9,1.9,0,0,1,1.52.63,2.73,2.73,0,0,1,.53,1.77Zm-.82-.68a1.62,1.62,0,0,0-.33-1.08,1.14,1.14,0,0,0-.92-.39,1.32,1.32,0,0,0-1,.41,1.91,1.91,0,0,0-.49,1.06Z"/><path class="cls-6" d="M111.13,194.67a.51.51,0,0,1-.38-.16.53.53,0,0,1,0-.76.51.51,0,0,1,.38-.16.5.5,0,0,1,.39.16.53.53,0,0,1,0,.76A.5.5,0,0,1,111.13,194.67Zm0,4.13a.51.51,0,0,1-.38-.16.49.49,0,0,1-.16-.38.53.53,0,0,1,.16-.39.51.51,0,0,1,.38-.16.5.5,0,0,1,.39.16.53.53,0,0,1,.16.39.49.49,0,0,1-.16.38A.5.5,0,0,1,111.13,198.8Z"/><path class="cls-6" d="M121.07,191.7l-2.59,7h-.9l-2.54-7H116l1.94,5.55a3.17,3.17,0,0,1,.14.62h0a3.24,3.24,0,0,1,.16-.63l2-5.54Z"/><path class="cls-6" d="M124.21,194.51a1,1,0,0,0-.61-.16,1,1,0,0,0-.85.48,2.22,2.22,0,0,0-.35,1.32v2.55h-.8v-5h.8v1h0a1.79,1.79,0,0,1,.52-.82,1.2,1.2,0,0,1,.79-.3,1.22,1.22,0,0,1,.48.07Z"/><path class="cls-6" d="M128.66,198.7h-.8v-.78h0a1.84,1.84,0,0,1-2.71.5,1.36,1.36,0,0,1-.42-1c0-.93.55-1.48,1.65-1.63l1.5-.21c0-.85-.35-1.28-1-1.28a2.44,2.44,0,0,0-1.63.62v-.82a3.09,3.09,0,0,1,1.69-.47c1.18,0,1.77.62,1.77,1.87Zm-.8-2.53-1.21.16a2.11,2.11,0,0,0-.84.28.79.79,0,0,0-.28.7.76.76,0,0,0,.26.6,1,1,0,0,0,.69.23,1.29,1.29,0,0,0,1-.42,1.47,1.47,0,0,0,.39-1.05Z"/><path class="cls-6" d="M130.58,192.43a.52.52,0,1,1,0-1,.51.51,0,0,1,.37.15.5.5,0,0,1,.15.37.51.51,0,0,1-.52.52Zm.39,6.27h-.8v-5h.8Z"/><path class="cls-6" d="M75.2,213.4a4,4,0,0,1-1.93.41,3.13,3.13,0,0,1-2.4-1,3.53,3.53,0,0,1-.89-2.52,3.71,3.71,0,0,1,1-2.72,3.41,3.41,0,0,1,2.56-1,4,4,0,0,1,1.65.29v.87a3.33,3.33,0,0,0-1.66-.42,2.56,2.56,0,0,0-2,.81,3,3,0,0,0-.75,2.15,2.89,2.89,0,0,0,.71,2,2.39,2.39,0,0,0,1.83.76,3.46,3.46,0,0,0,1.83-.47Z"/><path class="cls-6" d="M80.54,211.4H77a1.87,1.87,0,0,0,.45,1.29,1.54,1.54,0,0,0,1.18.45,2.41,2.41,0,0,0,1.55-.56v.76a2.89,2.89,0,0,1-1.74.47,2.11,2.11,0,0,1-1.67-.68,2.79,2.79,0,0,1-.6-1.91,2.71,2.71,0,0,1,.66-1.9,2.12,2.12,0,0,1,1.64-.74,1.88,1.88,0,0,1,1.52.63,2.67,2.67,0,0,1,.54,1.77Zm-.82-.68a1.68,1.68,0,0,0-.34-1.08,1.12,1.12,0,0,0-.91-.39,1.32,1.32,0,0,0-1,.41,1.83,1.83,0,0,0-.48,1.06Z"/><path class="cls-6" d="M84.36,209.51a1,1,0,0,0-.61-.16,1,1,0,0,0-.86.48,2.23,2.23,0,0,0-.34,1.32v2.55h-.8v-5h.8v1h0a1.71,1.71,0,0,1,.52-.82,1.18,1.18,0,0,1,.79-.3,1.25,1.25,0,0,1,.48.07Z"/><path class="cls-6" d="M87.54,213.65a1.57,1.57,0,0,1-.74.15c-.88,0-1.32-.48-1.32-1.46v-3h-.86v-.68h.86v-1.22l.8-.26v1.48h1.26v.68H86.28v2.82a1.23,1.23,0,0,0,.17.72.71.71,0,0,0,.57.21.78.78,0,0,0,.52-.17Z"/><path class="cls-6" d="M92.19,213.7h-.8v-.78h0a1.67,1.67,0,0,1-1.54.89,1.69,1.69,0,0,1-1.17-.39,1.36,1.36,0,0,1-.42-1c0-.93.55-1.48,1.65-1.63l1.5-.21c0-.85-.34-1.28-1-1.28a2.48,2.48,0,0,0-1.63.62v-.82a3.12,3.12,0,0,1,1.7-.47c1.17,0,1.76.62,1.76,1.87Zm-.8-2.53-1.2.16a2,2,0,0,0-.84.28.9.9,0,0,0,0,1.3,1.05,1.05,0,0,0,.7.23,1.27,1.27,0,0,0,1-.42,1.47,1.47,0,0,0,.39-1.05Z"/><path class="cls-6" d="M94.11,207.43a.53.53,0,0,1-.37-.15.53.53,0,0,1,0-.74.53.53,0,0,1,.37-.15.5.5,0,0,1,.37.15.47.47,0,0,1,.16.37.49.49,0,0,1-.16.37A.5.5,0,0,1,94.11,207.43Zm.39,6.27h-.8v-5h.8Z"/><path class="cls-6" d="M100.27,213.7h-.8v-2.85c0-1.06-.38-1.6-1.16-1.6a1.23,1.23,0,0,0-1,.46,1.64,1.64,0,0,0-.4,1.14v2.85h-.8v-5h.8v.83h0a1.82,1.82,0,0,1,1.64-.95,1.55,1.55,0,0,1,1.26.53,2.34,2.34,0,0,1,.43,1.53Z"/><path class="cls-6" d="M105.8,211.4h-3.53a1.87,1.87,0,0,0,.45,1.29,1.56,1.56,0,0,0,1.18.45,2.41,2.41,0,0,0,1.55-.56v.76a2.89,2.89,0,0,1-1.74.47,2.07,2.07,0,0,1-1.66-.68,3.18,3.18,0,0,1,0-3.81,2.12,2.12,0,0,1,1.64-.74,1.87,1.87,0,0,1,1.52.63,2.67,2.67,0,0,1,.54,1.77Zm-.82-.68a1.62,1.62,0,0,0-.33-1.08,1.14,1.14,0,0,0-.92-.39,1.28,1.28,0,0,0-1,.41,1.78,1.78,0,0,0-.49,1.06Z"/><path class="cls-6" d="M106.71,213.52v-.86a2.38,2.38,0,0,0,1.44.48c.7,0,1-.23,1-.7a.59.59,0,0,0-.09-.34.94.94,0,0,0-.24-.25,2,2,0,0,0-.36-.19l-.45-.18c-.22-.09-.41-.18-.58-.27a1.74,1.74,0,0,1-.42-.3,1.22,1.22,0,0,1-.26-.38,1.5,1.5,0,0,1-.08-.5,1.18,1.18,0,0,1,.16-.63,1.42,1.42,0,0,1,.43-.45,2.28,2.28,0,0,1,.61-.28,2.82,2.82,0,0,1,.71-.09,3,3,0,0,1,1.16.22v.82a2.17,2.17,0,0,0-1.26-.37,1.31,1.31,0,0,0-.41.06,1,1,0,0,0-.31.14.6.6,0,0,0-.2.22.57.57,0,0,0-.07.29.61.61,0,0,0,.07.32.79.79,0,0,0,.21.24,1.29,1.29,0,0,0,.33.18l.44.18.6.27a2.52,2.52,0,0,1,.45.3,1.08,1.08,0,0,1,.28.39,1.18,1.18,0,0,1,.1.52,1.19,1.19,0,0,1-.16.64,1.29,1.29,0,0,1-.44.46,2,2,0,0,1-.63.27,3,3,0,0,1-.74.08A2.82,2.82,0,0,1,106.71,213.52Z"/><path class="cls-6" d="M114.81,213h0v3H114v-7.3h.8v.88h0a1.89,1.89,0,0,1,1.73-1,1.82,1.82,0,0,1,1.51.67,2.8,2.8,0,0,1,.54,1.8,3.07,3.07,0,0,1-.61,2,2,2,0,0,1-1.67.75A1.67,1.67,0,0,1,114.81,213Zm0-2v.7a1.49,1.49,0,0,0,.41,1.05,1.33,1.33,0,0,0,1,.43,1.31,1.31,0,0,0,1.14-.56,2.49,2.49,0,0,0,.41-1.54,2,2,0,0,0-.38-1.31,1.28,1.28,0,0,0-1-.48,1.43,1.43,0,0,0-1.12.49A1.8,1.8,0,0,0,114.79,211Z"/><path class="cls-6" d="M123.89,211.4h-3.53a1.87,1.87,0,0,0,.45,1.29,1.56,1.56,0,0,0,1.18.45,2.39,2.39,0,0,0,1.55-.56v.76a2.87,2.87,0,0,1-1.74.47,2.09,2.09,0,0,1-1.66-.68,3.18,3.18,0,0,1,0-3.81,2.13,2.13,0,0,1,1.65-.74,1.86,1.86,0,0,1,1.51.63,2.67,2.67,0,0,1,.54,1.77Zm-.82-.68a1.62,1.62,0,0,0-.33-1.08,1.14,1.14,0,0,0-.92-.39,1.28,1.28,0,0,0-1,.41,1.84,1.84,0,0,0-.49,1.06Z"/><path class="cls-6" d="M127.71,209.51a1,1,0,0,0-.61-.16,1,1,0,0,0-.85.48,2.22,2.22,0,0,0-.35,1.32v2.55h-.8v-5h.8v1h0a1.72,1.72,0,0,1,.53-.82,1.16,1.16,0,0,1,.78-.3,1.22,1.22,0,0,1,.48.07Z"/><path class="cls-6" d="M128.28,213.52v-.86a2.35,2.35,0,0,0,1.44.48c.7,0,1.05-.23,1.05-.7a.59.59,0,0,0-.09-.34.94.94,0,0,0-.24-.25,2.55,2.55,0,0,0-.37-.19l-.44-.18a5.37,5.37,0,0,1-.58-.27,1.74,1.74,0,0,1-.42-.3,1.08,1.08,0,0,1-.26-.38,1.28,1.28,0,0,1-.08-.5,1.18,1.18,0,0,1,.16-.63,1.32,1.32,0,0,1,.43-.45,2.28,2.28,0,0,1,.61-.28,2.82,2.82,0,0,1,.71-.09,3,3,0,0,1,1.16.22v.82a2.2,2.2,0,0,0-1.27-.37,1.25,1.25,0,0,0-.4.06.89.89,0,0,0-.31.14.53.53,0,0,0-.2.22.57.57,0,0,0-.07.29.61.61,0,0,0,.07.32.64.64,0,0,0,.2.24,1.56,1.56,0,0,0,.34.18l.44.18.6.27a2.52,2.52,0,0,1,.45.3,1.21,1.21,0,0,1,.28.39,1.18,1.18,0,0,1,.1.52,1.19,1.19,0,0,1-.16.64,1.38,1.38,0,0,1-.44.46,2,2,0,0,1-.63.27,3.08,3.08,0,0,1-.75.08A2.78,2.78,0,0,1,128.28,213.52Z"/><path class="cls-6" d="M134.91,213.81a2.31,2.31,0,0,1-1.77-.7,2.57,2.57,0,0,1-.66-1.85,2.7,2.7,0,0,1,.69-2,2.49,2.49,0,0,1,1.86-.71,2.26,2.26,0,0,1,1.75.69,2.76,2.76,0,0,1,.62,1.91,2.67,2.67,0,0,1-.67,1.91A2.38,2.38,0,0,1,134.91,213.81Zm.06-4.56a1.53,1.53,0,0,0-1.22.53,2.15,2.15,0,0,0-.45,1.45,2,2,0,0,0,.45,1.4,1.56,1.56,0,0,0,1.22.51,1.46,1.46,0,0,0,1.19-.5,2.18,2.18,0,0,0,.42-1.43,2.22,2.22,0,0,0-.42-1.45A1.43,1.43,0,0,0,135,209.25Z"/><path class="cls-6" d="M142.83,213.7H142v-2.85c0-1.06-.39-1.6-1.16-1.6a1.27,1.27,0,0,0-1,.46,1.68,1.68,0,0,0-.39,1.14v2.85h-.8v-5h.8v.83h0a1.82,1.82,0,0,1,1.64-.95,1.55,1.55,0,0,1,1.26.53,2.34,2.34,0,0,1,.43,1.53Z"/><path class="cls-6" d="M148.49,213.7h-.8v-2.85c0-1.06-.39-1.6-1.16-1.6a1.27,1.27,0,0,0-1,.46,1.68,1.68,0,0,0-.39,1.14v2.85h-.8v-5h.8v.83h0a1.82,1.82,0,0,1,1.64-.95,1.55,1.55,0,0,1,1.26.53,2.34,2.34,0,0,1,.43,1.53Z"/><path class="cls-6" d="M154,211.4h-3.53a1.87,1.87,0,0,0,.45,1.29,1.54,1.54,0,0,0,1.18.45,2.41,2.41,0,0,0,1.55-.56v.76a2.89,2.89,0,0,1-1.74.47,2.11,2.11,0,0,1-1.67-.68,2.79,2.79,0,0,1-.6-1.91,2.71,2.71,0,0,1,.66-1.9,2.12,2.12,0,0,1,1.64-.74,1.88,1.88,0,0,1,1.52.63A2.67,2.67,0,0,1,154,211Zm-.82-.68a1.62,1.62,0,0,0-.34-1.08,1.12,1.12,0,0,0-.91-.39,1.28,1.28,0,0,0-1,.41,1.78,1.78,0,0,0-.49,1.06Z"/><path class="cls-6" d="M154.93,213.52v-.86a2.35,2.35,0,0,0,1.44.48c.7,0,1-.23,1-.7a.59.59,0,0,0-.09-.34.94.94,0,0,0-.24-.25,2.42,2.42,0,0,0-.36-.19l-.45-.18a5.37,5.37,0,0,1-.58-.27,1.74,1.74,0,0,1-.42-.3,1.08,1.08,0,0,1-.26-.38,1.28,1.28,0,0,1-.08-.5,1.18,1.18,0,0,1,.16-.63,1.32,1.32,0,0,1,.43-.45,2.28,2.28,0,0,1,.61-.28,2.82,2.82,0,0,1,.71-.09,3,3,0,0,1,1.16.22v.82a2.2,2.2,0,0,0-1.27-.37,1.25,1.25,0,0,0-.4.06.89.89,0,0,0-.31.14.53.53,0,0,0-.2.22.57.57,0,0,0-.07.29.61.61,0,0,0,.07.32.64.64,0,0,0,.2.24,1.56,1.56,0,0,0,.34.18l.44.18.6.27a2.52,2.52,0,0,1,.45.3,1.21,1.21,0,0,1,.28.39,1.18,1.18,0,0,1,.1.52,1.19,1.19,0,0,1-.16.64,1.38,1.38,0,0,1-.44.46,2,2,0,0,1-.63.27,3,3,0,0,1-.75.08A2.78,2.78,0,0,1,154.93,213.52Z"/><path class="cls-6" d="M169.31,213.7h-.8v-2.87a2.19,2.19,0,0,0-.26-1.21,1,1,0,0,0-.86-.37,1.08,1.08,0,0,0-.87.47,1.82,1.82,0,0,0-.36,1.13v2.85h-.8v-3c0-1-.38-1.48-1.14-1.48a1.05,1.05,0,0,0-.87.45,1.85,1.85,0,0,0-.34,1.15v2.85h-.8v-5h.8v.79h0a1.69,1.69,0,0,1,1.55-.91,1.47,1.47,0,0,1,.9.29,1.43,1.43,0,0,1,.52.75,1.79,1.79,0,0,1,1.66-1q1.65,0,1.65,2Z"/><path class="cls-6" d="M174.4,213.7h-.8v-.78h0a1.83,1.83,0,0,1-2.7.5,1.34,1.34,0,0,1-.43-1c0-.93.55-1.48,1.65-1.63l1.5-.21c0-.85-.34-1.28-1-1.28a2.48,2.48,0,0,0-1.63.62v-.82a3.12,3.12,0,0,1,1.7-.47c1.18,0,1.76.62,1.76,1.87Zm-.8-2.53-1.2.16a2.11,2.11,0,0,0-.84.28.8.8,0,0,0-.29.7.77.77,0,0,0,.27.6,1,1,0,0,0,.69.23,1.29,1.29,0,0,0,1-.42,1.5,1.5,0,0,0,.38-1.05Z"/><path class="cls-6" d="M176.71,213.7h-.8v-7.41h.8Z"/><path class="cls-6" d="M178.74,207.43a.49.49,0,0,1-.36-.15.53.53,0,0,1,0-.74.49.49,0,0,1,.36-.15.52.52,0,0,1,.38.15.5.5,0,0,1,.15.37.51.51,0,0,1-.15.37A.52.52,0,0,1,178.74,207.43Zm.4,6.27h-.81v-5h.81Z"/><path class="cls-6" d="M184.91,213.7h-.8v-2.85c0-1.06-.39-1.6-1.17-1.6a1.23,1.23,0,0,0-1,.46,1.68,1.68,0,0,0-.39,1.14v2.85h-.8v-5h.8v.83h0a1.8,1.8,0,0,1,1.64-.95,1.54,1.54,0,0,1,1.25.53,2.35,2.35,0,0,1,.44,1.53Z"/><path class="cls-6" d="M188.74,213.65a1.61,1.61,0,0,1-.75.15c-.88,0-1.32-.48-1.32-1.46v-3h-.85v-.68h.85v-1.22l.81-.26v1.48h1.26v.68h-1.26v2.82a1.16,1.16,0,0,0,.17.72.68.68,0,0,0,.56.21.82.82,0,0,0,.53-.17Z"/><path class="cls-6" d="M193.82,211.4h-3.53a2,2,0,0,0,.45,1.29,1.56,1.56,0,0,0,1.18.45,2.43,2.43,0,0,0,1.56-.56v.76a2.9,2.9,0,0,1-1.75.47,2.09,2.09,0,0,1-1.66-.68,3.18,3.18,0,0,1,.05-3.81,2.14,2.14,0,0,1,1.65-.74,1.9,1.9,0,0,1,1.52.63,2.73,2.73,0,0,1,.53,1.77Zm-.82-.68a1.62,1.62,0,0,0-.33-1.08,1.14,1.14,0,0,0-.92-.39,1.28,1.28,0,0,0-1,.41,1.84,1.84,0,0,0-.49,1.06Z"/><path class="cls-6" d="M199.18,213.7h-.8v-2.85c0-1.06-.38-1.6-1.16-1.6a1.23,1.23,0,0,0-1,.46,1.68,1.68,0,0,0-.4,1.14v2.85H195v-5h.8v.83h0a1.82,1.82,0,0,1,1.64-.95,1.55,1.55,0,0,1,1.26.53,2.34,2.34,0,0,1,.43,1.53Z"/><path class="cls-6" d="M203,213.65a1.6,1.6,0,0,1-.74.15c-.88,0-1.32-.48-1.32-1.46v-3h-.86v-.68H201v-1.22l.8-.26v1.48H203v.68h-1.26v2.82a1.23,1.23,0,0,0,.17.72.71.71,0,0,0,.57.21A.78.78,0,0,0,203,213Z"/><path class="cls-6" d="M204.49,207.43a.49.49,0,0,1-.36-.15.51.51,0,0,1,0-.74.49.49,0,0,1,.36-.15.5.5,0,0,1,.37.15.47.47,0,0,1,.16.37.49.49,0,0,1-.16.37A.5.5,0,0,1,204.49,207.43Zm.39,6.27h-.8v-5h.8Z"/><path class="cls-6" d="M208.59,213.81a2.31,2.31,0,0,1-1.77-.7,2.57,2.57,0,0,1-.66-1.85,2.7,2.7,0,0,1,.69-2,2.49,2.49,0,0,1,1.86-.71,2.25,2.25,0,0,1,1.75.69,2.76,2.76,0,0,1,.62,1.91,2.67,2.67,0,0,1-.67,1.91A2.38,2.38,0,0,1,208.59,213.81Zm.06-4.56a1.53,1.53,0,0,0-1.22.53,2.15,2.15,0,0,0-.45,1.45,2,2,0,0,0,.46,1.4,1.53,1.53,0,0,0,1.21.51,1.49,1.49,0,0,0,1.2-.5,2.23,2.23,0,0,0,.41-1.43,2.28,2.28,0,0,0-.41-1.45A1.47,1.47,0,0,0,208.65,209.25Z"/><path class="cls-6" d="M216.51,213.7h-.8v-2.85c0-1.06-.39-1.6-1.16-1.6a1.23,1.23,0,0,0-1,.46,1.64,1.64,0,0,0-.4,1.14v2.85h-.8v-5h.8v.83h0a1.82,1.82,0,0,1,1.64-.95,1.55,1.55,0,0,1,1.26.53,2.34,2.34,0,0,1,.43,1.53Z"/><path class="cls-6" d="M220.58,211.23h-2.67v-.63h2.67Z"/><path class="cls-6" d="M74.48,225.7h-.8v-2.85c0-1.06-.39-1.6-1.17-1.6a1.23,1.23,0,0,0-1,.46,1.68,1.68,0,0,0-.39,1.14v2.85h-.8v-5h.8v.83h0a1.8,1.8,0,0,1,1.64-.95,1.54,1.54,0,0,1,1.25.53,2.35,2.35,0,0,1,.44,1.53Z"/><path class="cls-6" d="M80,223.4H76.47a2,2,0,0,0,.45,1.29,1.57,1.57,0,0,0,1.19.45,2.41,2.41,0,0,0,1.55-.56v.76a2.9,2.9,0,0,1-1.75.47,2.09,2.09,0,0,1-1.66-.68,2.79,2.79,0,0,1-.61-1.91,2.67,2.67,0,0,1,.67-1.9,2.11,2.11,0,0,1,1.64-.74,1.9,1.9,0,0,1,1.52.63A2.67,2.67,0,0,1,80,223Zm-.82-.68a1.62,1.62,0,0,0-.33-1.08,1.14,1.14,0,0,0-.92-.39,1.32,1.32,0,0,0-1,.41,1.91,1.91,0,0,0-.49,1.06Zm-.12-4.57-1.28,1.6h-.62l1.09-1.6Z"/><path class="cls-6" d="M85.23,223.4H81.7a2,2,0,0,0,.45,1.29,1.56,1.56,0,0,0,1.18.45,2.41,2.41,0,0,0,1.56-.56v.76a2.9,2.9,0,0,1-1.75.47,2.09,2.09,0,0,1-1.66-.68,2.79,2.79,0,0,1-.61-1.91,2.67,2.67,0,0,1,.67-1.9,2.11,2.11,0,0,1,1.64-.74,1.9,1.9,0,0,1,1.52.63,2.73,2.73,0,0,1,.53,1.77Zm-.82-.68a1.62,1.62,0,0,0-.33-1.08,1.14,1.14,0,0,0-.92-.39,1.32,1.32,0,0,0-1,.41,1.91,1.91,0,0,0-.49,1.06Z"/><path class="cls-6" d="M86.14,225.52v-.86a2.4,2.4,0,0,0,1.44.48c.71,0,1.06-.23,1.06-.7a.59.59,0,0,0-.09-.34.85.85,0,0,0-.25-.25,2,2,0,0,0-.36-.19l-.45-.18c-.22-.09-.41-.18-.58-.27a1.74,1.74,0,0,1-.42-.3,1,1,0,0,1-.25-.38,1.37,1.37,0,0,1,.07-1.13,1.42,1.42,0,0,1,.43-.45,2.34,2.34,0,0,1,.62-.28,2.76,2.76,0,0,1,.71-.09,3,3,0,0,1,1.16.22v.82a2.2,2.2,0,0,0-1.27-.37,1.31,1.31,0,0,0-.41.06,1,1,0,0,0-.31.14.7.7,0,0,0-.2.22A.69.69,0,0,0,87,222a.72.72,0,0,0,.07.32.79.79,0,0,0,.21.24,1.29,1.29,0,0,0,.33.18l.45.18c.22.09.42.18.59.27a2,2,0,0,1,.45.3,1.11,1.11,0,0,1,.29.39,1.34,1.34,0,0,1,.1.52,1.2,1.2,0,0,1-.17.64,1.26,1.26,0,0,1-.43.46,2,2,0,0,1-.63.27,3.08,3.08,0,0,1-.75.08A2.85,2.85,0,0,1,86.14,225.52Z"/><path class="cls-6" d="M96.84,225.47a2.63,2.63,0,0,1-1.37.34,2.29,2.29,0,0,1-1.73-.69,2.51,2.51,0,0,1-.65-1.81,2.77,2.77,0,0,1,.7-2,2.5,2.5,0,0,1,1.89-.75,2.72,2.72,0,0,1,1.17.24v.82a2.07,2.07,0,0,0-1.2-.39,1.61,1.61,0,0,0-1.25.55,2.09,2.09,0,0,0-.49,1.45,2,2,0,0,0,.46,1.38,1.59,1.59,0,0,0,1.24.51,2,2,0,0,0,1.23-.43Z"/><path class="cls-6" d="M100.65,221.51a1,1,0,0,0-.6-.16,1,1,0,0,0-.86.48,2.23,2.23,0,0,0-.34,1.32v2.55h-.8v-5h.8v1h0a1.71,1.71,0,0,1,.52-.82,1.31,1.31,0,0,1,1.26-.23Z"/><path class="cls-6" d="M105.54,223.4H102a1.87,1.87,0,0,0,.45,1.29,1.56,1.56,0,0,0,1.18.45,2.43,2.43,0,0,0,1.56-.56v.76a2.92,2.92,0,0,1-1.75.47,2.09,2.09,0,0,1-1.66-.68,3.18,3.18,0,0,1,0-3.81,2.13,2.13,0,0,1,1.65-.74,1.86,1.86,0,0,1,1.51.63,2.67,2.67,0,0,1,.54,1.77Zm-.82-.68a1.62,1.62,0,0,0-.33-1.08,1.14,1.14,0,0,0-.92-.39,1.28,1.28,0,0,0-1,.41,1.84,1.84,0,0,0-.49,1.06Zm-.13-4.57-1.27,1.6h-.62l1.08-1.6Z"/><path class="cls-6" d="M110.77,223.4h-3.53a1.87,1.87,0,0,0,.45,1.29,1.56,1.56,0,0,0,1.18.45,2.41,2.41,0,0,0,1.55-.56v.76a2.87,2.87,0,0,1-1.74.47,2.07,2.07,0,0,1-1.66-.68,3.18,3.18,0,0,1,0-3.81,2.13,2.13,0,0,1,1.65-.74,1.86,1.86,0,0,1,1.51.63,2.67,2.67,0,0,1,.54,1.77Zm-.82-.68a1.62,1.62,0,0,0-.33-1.08,1.14,1.14,0,0,0-.92-.39,1.28,1.28,0,0,0-1,.41,1.84,1.84,0,0,0-.49,1.06Z"/><path class="cls-6" d="M116.13,225.7h-.8v-2.85c0-1.06-.39-1.6-1.16-1.6a1.23,1.23,0,0,0-1,.46,1.64,1.64,0,0,0-.4,1.14v2.85H112v-5h.8v.83h0a1.82,1.82,0,0,1,1.64-.95,1.55,1.55,0,0,1,1.26.53,2.34,2.34,0,0,1,.43,1.53Z"/><path class="cls-6" d="M120,225.65a1.61,1.61,0,0,1-.75.15c-.87,0-1.31-.48-1.31-1.46v-3H117v-.68h.86v-1.22l.8-.26v1.48H120v.68H118.7v2.82a1.23,1.23,0,0,0,.17.72.7.7,0,0,0,.57.21A.79.79,0,0,0,120,225Z"/><path class="cls-6" d="M128,225.7h-.8v-.85h0a2,2,0,0,1-3.23.29,2.71,2.71,0,0,1-.56-1.83,3,3,0,0,1,.62-2,2.06,2.06,0,0,1,1.67-.75,1.62,1.62,0,0,1,1.5.81h0v-3.1h.8Zm-.8-2.26v-.74a1.48,1.48,0,0,0-.4-1,1.36,1.36,0,0,0-1-.42,1.37,1.37,0,0,0-1.15.54,2.36,2.36,0,0,0-.42,1.49,2.1,2.1,0,0,0,.4,1.36,1.33,1.33,0,0,0,1.08.5,1.38,1.38,0,0,0,1.09-.48A1.81,1.81,0,0,0,127.24,223.44Z"/><path class="cls-6" d="M133.68,223.4h-3.53a1.87,1.87,0,0,0,.45,1.29,1.54,1.54,0,0,0,1.18.45,2.41,2.41,0,0,0,1.55-.56v.76a2.89,2.89,0,0,1-1.74.47,2.09,2.09,0,0,1-1.67-.68,2.79,2.79,0,0,1-.6-1.91,2.71,2.71,0,0,1,.66-1.9,2.12,2.12,0,0,1,1.64-.74,1.88,1.88,0,0,1,1.52.63,2.67,2.67,0,0,1,.54,1.77Zm-.82-.68a1.68,1.68,0,0,0-.34-1.08,1.12,1.12,0,0,0-.91-.39,1.32,1.32,0,0,0-1,.41,1.83,1.83,0,0,0-.48,1.06Z"/><path class="cls-6" d="M138.45,225h0v3h-.8v-7.3h.8v.88h0a1.88,1.88,0,0,1,1.73-1,1.81,1.81,0,0,1,1.5.67,2.74,2.74,0,0,1,.55,1.8,3.13,3.13,0,0,1-.61,2,2,2,0,0,1-1.67.75A1.65,1.65,0,0,1,138.45,225Zm0-2v.7a1.48,1.48,0,0,0,.4,1.05,1.33,1.33,0,0,0,1,.43,1.31,1.31,0,0,0,1.14-.56,2.49,2.49,0,0,0,.42-1.54,2,2,0,0,0-.39-1.31,1.28,1.28,0,0,0-1-.48,1.45,1.45,0,0,0-1.13.49A1.79,1.79,0,0,0,138.43,223Z"/><path class="cls-6" d="M143.2,225.52v-.86a2.4,2.4,0,0,0,1.44.48c.71,0,1.06-.23,1.06-.7a.59.59,0,0,0-.09-.34.85.85,0,0,0-.25-.25,2,2,0,0,0-.36-.19l-.44-.18a5.6,5.6,0,0,1-.59-.27,1.74,1.74,0,0,1-.42-.3,1.19,1.19,0,0,1-.25-.38,1.37,1.37,0,0,1,.07-1.13,1.42,1.42,0,0,1,.43-.45,2.34,2.34,0,0,1,.62-.28,2.76,2.76,0,0,1,.71-.09,3,3,0,0,1,1.16.22v.82a2.2,2.2,0,0,0-1.27-.37,1.31,1.31,0,0,0-.41.06,1,1,0,0,0-.31.14.7.7,0,0,0-.2.22.69.69,0,0,0-.07.29.72.72,0,0,0,.07.32.79.79,0,0,0,.21.24,1.29,1.29,0,0,0,.33.18l.45.18c.22.09.42.18.59.27a2,2,0,0,1,.45.3,1.11,1.11,0,0,1,.29.39,1.18,1.18,0,0,1,.1.52,1.29,1.29,0,0,1-.16.64,1.38,1.38,0,0,1-.44.46,2,2,0,0,1-.63.27,3.08,3.08,0,0,1-.75.08A2.85,2.85,0,0,1,143.2,225.52Z"/><path class="cls-6" d="M151.77,223.4h-3.53a1.87,1.87,0,0,0,.45,1.29,1.54,1.54,0,0,0,1.18.45,2.41,2.41,0,0,0,1.55-.56v.76a2.89,2.89,0,0,1-1.74.47,2.11,2.11,0,0,1-1.67-.68,2.79,2.79,0,0,1-.6-1.91,2.71,2.71,0,0,1,.66-1.9,2.12,2.12,0,0,1,1.64-.74,1.88,1.88,0,0,1,1.52.63,2.67,2.67,0,0,1,.54,1.77Zm-.82-.68a1.68,1.68,0,0,0-.34-1.08,1.12,1.12,0,0,0-.91-.39,1.28,1.28,0,0,0-1,.41,1.78,1.78,0,0,0-.49,1.06Z"/><path class="cls-6" d="M157,225.7h-.8v-.79h0a1.65,1.65,0,0,1-1.54.9c-1.19,0-1.79-.7-1.79-2.12v-3h.8v2.86c0,1.05.4,1.58,1.21,1.58a1.21,1.21,0,0,0,1-.43,1.68,1.68,0,0,0,.38-1.13V220.7h.8Z"/><path class="cls-6" d="M162.91,225.7h-.81v-.85h0a1.84,1.84,0,0,1-1.71,1,1.87,1.87,0,0,1-1.51-.67,2.71,2.71,0,0,1-.56-1.83,3,3,0,0,1,.62-2,2.06,2.06,0,0,1,1.67-.75,1.59,1.59,0,0,1,1.49.81h0v-3.1h.81Zm-.81-2.26v-.74a1.43,1.43,0,0,0-.4-1,1.32,1.32,0,0,0-1-.42,1.37,1.37,0,0,0-1.15.54,2.36,2.36,0,0,0-.42,1.49,2.1,2.1,0,0,0,.4,1.36,1.33,1.33,0,0,0,1.08.5,1.38,1.38,0,0,0,1.09-.48A1.8,1.8,0,0,0,162.1,223.44Z"/><path class="cls-6" d="M166.62,225.81a2.31,2.31,0,0,1-1.77-.7,2.58,2.58,0,0,1-.67-1.85,2.7,2.7,0,0,1,.69-2,2.49,2.49,0,0,1,1.86-.71,2.25,2.25,0,0,1,1.75.69,2.72,2.72,0,0,1,.63,1.91,2.67,2.67,0,0,1-.68,1.91A2.37,2.37,0,0,1,166.62,225.81Zm0-4.56a1.53,1.53,0,0,0-1.22.53,2.15,2.15,0,0,0-.45,1.45,2.05,2.05,0,0,0,.46,1.4,1.54,1.54,0,0,0,1.21.51,1.49,1.49,0,0,0,1.2-.5,2.18,2.18,0,0,0,.42-1.43,2.22,2.22,0,0,0-.42-1.45A1.47,1.47,0,0,0,166.67,221.25Z"/><path class="cls-6" d="M172.94,223.23h-2.66v-.63h2.66Z"/><path class="cls-6" d="M177,221.51a1,1,0,0,0-.6-.16,1,1,0,0,0-.86.48,2.23,2.23,0,0,0-.34,1.32v2.55h-.81v-5h.81v1h0a1.72,1.72,0,0,1,.53-.82,1.16,1.16,0,0,1,.78-.3,1.22,1.22,0,0,1,.48.07Z"/><path class="cls-6" d="M181.88,223.4h-3.53a1.87,1.87,0,0,0,.45,1.29,1.54,1.54,0,0,0,1.18.45,2.41,2.41,0,0,0,1.55-.56v.76a2.89,2.89,0,0,1-1.74.47,2.11,2.11,0,0,1-1.67-.68,2.79,2.79,0,0,1-.6-1.91,2.71,2.71,0,0,1,.66-1.9,2.12,2.12,0,0,1,1.64-.74,1.88,1.88,0,0,1,1.52.63,2.67,2.67,0,0,1,.54,1.77Zm-.82-.68a1.57,1.57,0,0,0-.34-1.08,1.11,1.11,0,0,0-.91-.39,1.28,1.28,0,0,0-1,.41,1.78,1.78,0,0,0-.49,1.06Z"/><path class="cls-6" d="M187,220.7l-2,5h-.79l-1.89-5h.88l1.27,3.63a3.34,3.34,0,0,1,.17.7h0a3.23,3.23,0,0,1,.16-.68l1.33-3.65Z"/><path class="cls-6" d="M191.92,225.7h-.8v-.79h0a1.64,1.64,0,0,1-1.54.9c-1.19,0-1.79-.7-1.79-2.12v-3h.8v2.86c0,1.05.4,1.58,1.21,1.58a1.21,1.21,0,0,0,1-.43,1.63,1.63,0,0,0,.38-1.13V220.7h.8Z"/><path class="cls-6" d="M197.56,223.4H194a1.87,1.87,0,0,0,.45,1.29,1.54,1.54,0,0,0,1.18.45,2.41,2.41,0,0,0,1.55-.56v.76a2.89,2.89,0,0,1-1.74.47,2.11,2.11,0,0,1-1.67-.68,2.79,2.79,0,0,1-.6-1.91,2.71,2.71,0,0,1,.66-1.9,2.12,2.12,0,0,1,1.64-.74,1.88,1.88,0,0,1,1.52.63,2.67,2.67,0,0,1,.54,1.77Zm-.82-.68a1.62,1.62,0,0,0-.34-1.08,1.12,1.12,0,0,0-.91-.39,1.28,1.28,0,0,0-1,.41,1.78,1.78,0,0,0-.49,1.06Z"/><path class="cls-6" d="M198.47,225.52v-.86a2.35,2.35,0,0,0,1.44.48c.7,0,1.05-.23,1.05-.7a.59.59,0,0,0-.09-.34.94.94,0,0,0-.24-.25,2.42,2.42,0,0,0-.36-.19l-.45-.18a5.37,5.37,0,0,1-.58-.27,1.74,1.74,0,0,1-.42-.3,1.08,1.08,0,0,1-.26-.38,1.28,1.28,0,0,1-.08-.5,1.18,1.18,0,0,1,.16-.63,1.32,1.32,0,0,1,.43-.45,2.28,2.28,0,0,1,.61-.28,2.82,2.82,0,0,1,.71-.09,3,3,0,0,1,1.16.22v.82a2.2,2.2,0,0,0-1.27-.37,1.25,1.25,0,0,0-.4.06.89.89,0,0,0-.31.14.53.53,0,0,0-.2.22.57.57,0,0,0-.07.29.61.61,0,0,0,.07.32.64.64,0,0,0,.2.24,1.56,1.56,0,0,0,.34.18l.44.18.6.27a2.52,2.52,0,0,1,.45.3,1.21,1.21,0,0,1,.28.39,1.18,1.18,0,0,1,.1.52,1.19,1.19,0,0,1-.16.64,1.38,1.38,0,0,1-.44.46,2,2,0,0,1-.63.27,3,3,0,0,1-.75.08A2.78,2.78,0,0,1,198.47,225.52Z"/><path class="cls-6" d="M70,237.52v-.86a2.4,2.4,0,0,0,1.44.48c.71,0,1.06-.23,1.06-.7a.59.59,0,0,0-.09-.34.85.85,0,0,0-.25-.25,2,2,0,0,0-.36-.19l-.44-.18c-.22-.09-.42-.18-.59-.27a2.25,2.25,0,0,1-.42-.3,1.19,1.19,0,0,1-.25-.38A1.28,1.28,0,0,1,70,234a1.19,1.19,0,0,1,.17-.63,1.39,1.39,0,0,1,.42-.45,2.34,2.34,0,0,1,.62-.28,2.76,2.76,0,0,1,.71-.09,3,3,0,0,1,1.16.22v.82a2.2,2.2,0,0,0-1.27-.37,1.25,1.25,0,0,0-.4.06.81.81,0,0,0-.31.14.53.53,0,0,0-.2.22.57.57,0,0,0-.08.29.61.61,0,0,0,.08.32.64.64,0,0,0,.2.24,1.29,1.29,0,0,0,.33.18l.45.18c.22.09.42.18.59.27a2,2,0,0,1,.45.3,1.11,1.11,0,0,1,.29.39,1.18,1.18,0,0,1,.1.52,1.29,1.29,0,0,1-.16.64,1.38,1.38,0,0,1-.44.46,2,2,0,0,1-.63.27,3.08,3.08,0,0,1-.75.08A2.85,2.85,0,0,1,70,237.52Z"/><path class="cls-6" d="M78,237.47a2.63,2.63,0,0,1-1.37.34,2.25,2.25,0,0,1-1.72-.69,2.52,2.52,0,0,1-.66-1.81,2.73,2.73,0,0,1,.71-2,2.47,2.47,0,0,1,1.89-.75,2.67,2.67,0,0,1,1.16.24v.82a2,2,0,0,0-1.19-.39,1.64,1.64,0,0,0-1.26.55,2.09,2.09,0,0,0-.49,1.45,2,2,0,0,0,.46,1.38,1.59,1.59,0,0,0,1.24.51,2,2,0,0,0,1.23-.43Z"/><path class="cls-6" d="M79.6,231.43a.51.51,0,0,1-.37-.15.53.53,0,0,1,0-.74.51.51,0,0,1,.37-.15.5.5,0,0,1,.37.15.47.47,0,0,1,.16.37.49.49,0,0,1-.16.37A.5.5,0,0,1,79.6,231.43ZM80,237.7h-.8v-5H80Z"/><path class="cls-6" d="M85.63,235.4H82.1a1.87,1.87,0,0,0,.45,1.29,1.56,1.56,0,0,0,1.18.45,2.41,2.41,0,0,0,1.55-.56v.76a2.89,2.89,0,0,1-1.74.47,2.11,2.11,0,0,1-1.67-.68,2.79,2.79,0,0,1-.6-1.91,2.71,2.71,0,0,1,.66-1.9,2.12,2.12,0,0,1,1.64-.74,1.88,1.88,0,0,1,1.52.63,2.67,2.67,0,0,1,.54,1.77Zm-.82-.68a1.62,1.62,0,0,0-.34-1.08,1.11,1.11,0,0,0-.91-.39,1.28,1.28,0,0,0-1,.41,1.78,1.78,0,0,0-.49,1.06Z"/><path class="cls-6" d="M91,237.7h-.8v-2.85c0-1.06-.39-1.6-1.16-1.6a1.27,1.27,0,0,0-1,.46,1.68,1.68,0,0,0-.39,1.14v2.85h-.8v-5h.8v.83h0a1.82,1.82,0,0,1,1.64-.95,1.55,1.55,0,0,1,1.26.53,2.34,2.34,0,0,1,.43,1.53Z"/><path class="cls-6" d="M94.82,237.65a1.61,1.61,0,0,1-.75.15c-.87,0-1.31-.48-1.31-1.46v-3H91.9v-.68h.86v-1.22l.8-.26v1.48h1.26v.68H93.56v2.82a1.23,1.23,0,0,0,.17.72.68.68,0,0,0,.57.21.79.79,0,0,0,.52-.17Z"/><path class="cls-6" d="M96.3,231.43a.51.51,0,0,1-.37-.15.53.53,0,0,1,0-.74.51.51,0,0,1,.37-.15.5.5,0,0,1,.37.15.51.51,0,0,1,.16.37.52.52,0,0,1-.16.37A.5.5,0,0,1,96.3,231.43Zm.39,6.27h-.8v-5h.8Z"/><path class="cls-6" d="M100.78,231a1,1,0,0,0-.53-.13c-.56,0-.84.35-.84,1.06v.77h1.17v.68H99.41v4.32h-.8v-4.32h-.85v-.68h.85v-.81a1.68,1.68,0,0,1,.46-1.25,1.72,1.72,0,0,1,1.71-.36Z"/><path class="cls-6" d="M101.85,231.43a.53.53,0,0,1-.37-.15.53.53,0,0,1,0-.74.53.53,0,0,1,.37-.15.5.5,0,0,1,.37.15.47.47,0,0,1,.16.37.49.49,0,0,1-.16.37A.5.5,0,0,1,101.85,231.43Zm.39,6.27h-.8v-5h.8Z"/><path class="cls-6" d="M108.13,240h-.8v-3.16h0a1.79,1.79,0,0,1-1.71,1,1.87,1.87,0,0,1-1.51-.67,2.71,2.71,0,0,1-.57-1.83,2.94,2.94,0,0,1,.63-2,2,2,0,0,1,1.67-.75,1.58,1.58,0,0,1,1.49.81h0v-.69h.8Zm-.8-4.55v-.73a1.48,1.48,0,0,0-.4-1,1.46,1.46,0,0,0-2.17.11,2.39,2.39,0,0,0-.42,1.5,2.08,2.08,0,0,0,.41,1.36,1.27,1.27,0,0,0,1,.49,1.41,1.41,0,0,0,1.12-.48A1.78,1.78,0,0,0,107.33,235.45Z"/><path class="cls-6" d="M113.79,237.7H113v-.79h0a1.64,1.64,0,0,1-1.54.9c-1.19,0-1.79-.7-1.79-2.12v-3h.8v2.86c0,1.05.4,1.58,1.21,1.58a1.21,1.21,0,0,0,1-.43,1.63,1.63,0,0,0,.38-1.13V232.7h.8Z"/><path class="cls-6" d="M119.43,235.4H115.9a1.87,1.87,0,0,0,.45,1.29,1.54,1.54,0,0,0,1.18.45,2.41,2.41,0,0,0,1.55-.56v.76a2.89,2.89,0,0,1-1.74.47,2.11,2.11,0,0,1-1.67-.68,2.79,2.79,0,0,1-.6-1.91,2.71,2.71,0,0,1,.66-1.9,2.12,2.12,0,0,1,1.64-.74,1.88,1.88,0,0,1,1.52.63,2.67,2.67,0,0,1,.54,1.77Zm-.82-.68a1.62,1.62,0,0,0-.34-1.08,1.12,1.12,0,0,0-.91-.39,1.28,1.28,0,0,0-1,.41,1.78,1.78,0,0,0-.49,1.06Z"/><path class="cls-6" d="M120.34,237.52v-.86a2.35,2.35,0,0,0,1.44.48c.7,0,1-.23,1-.7a.59.59,0,0,0-.09-.34.94.94,0,0,0-.24-.25,2.42,2.42,0,0,0-.36-.19l-.45-.18a5.37,5.37,0,0,1-.58-.27,1.74,1.74,0,0,1-.42-.3,1.08,1.08,0,0,1-.26-.38,1.28,1.28,0,0,1-.08-.5,1.18,1.18,0,0,1,.16-.63,1.32,1.32,0,0,1,.43-.45,2.28,2.28,0,0,1,.61-.28,2.82,2.82,0,0,1,.71-.09,3,3,0,0,1,1.16.22v.82a2.2,2.2,0,0,0-1.27-.37,1.25,1.25,0,0,0-.4.06.89.89,0,0,0-.31.14.53.53,0,0,0-.2.22.57.57,0,0,0-.07.29.61.61,0,0,0,.07.32.59.59,0,0,0,.21.24,1.29,1.29,0,0,0,.33.18l.44.18.6.27a2.52,2.52,0,0,1,.45.3,1.08,1.08,0,0,1,.28.39,1.18,1.18,0,0,1,.1.52,1.19,1.19,0,0,1-.16.64,1.38,1.38,0,0,1-.44.46,2,2,0,0,1-.63.27,3,3,0,0,1-.75.08A2.78,2.78,0,0,1,120.34,237.52Z"/><path class="cls-6" d="M125.61,236.58l-.78,2.41h-.57l.57-2.41Z"/><path class="cls-6" d="M129.49,237.52v-.86a2.35,2.35,0,0,0,1.44.48c.7,0,1-.23,1-.7a.59.59,0,0,0-.09-.34.94.94,0,0,0-.24-.25,2.42,2.42,0,0,0-.36-.19l-.45-.18a5.37,5.37,0,0,1-.58-.27,1.74,1.74,0,0,1-.42-.3,1.08,1.08,0,0,1-.26-.38,1.5,1.5,0,0,1-.08-.5,1.18,1.18,0,0,1,.16-.63,1.42,1.42,0,0,1,.43-.45,2.28,2.28,0,0,1,.61-.28,2.82,2.82,0,0,1,.71-.09,3,3,0,0,1,1.16.22v.82a2.2,2.2,0,0,0-1.27-.37,1.25,1.25,0,0,0-.4.06.89.89,0,0,0-.31.14.6.6,0,0,0-.2.22.57.57,0,0,0-.07.29.61.61,0,0,0,.07.32.68.68,0,0,0,.21.24,1.29,1.29,0,0,0,.33.18l.44.18.6.27a2.52,2.52,0,0,1,.45.3,1.08,1.08,0,0,1,.28.39,1.18,1.18,0,0,1,.1.52,1.19,1.19,0,0,1-.16.64,1.38,1.38,0,0,1-.44.46,2,2,0,0,1-.63.27,3,3,0,0,1-.75.08A2.78,2.78,0,0,1,129.49,237.52Z"/><path class="cls-6" d="M137.61,237.7h-.8v-.78h0a1.67,1.67,0,0,1-1.54.89,1.69,1.69,0,0,1-1.17-.39,1.36,1.36,0,0,1-.42-1c0-.93.55-1.48,1.65-1.63l1.5-.21c0-.85-.34-1.28-1-1.28a2.48,2.48,0,0,0-1.63.62v-.82a3.12,3.12,0,0,1,1.7-.47c1.17,0,1.76.62,1.76,1.87Zm-.8-2.53-1.2.16a2,2,0,0,0-.84.28.9.9,0,0,0,0,1.3,1.05,1.05,0,0,0,.7.23,1.27,1.27,0,0,0,1-.42,1.47,1.47,0,0,0,.39-1.05Z"/><path class="cls-6" d="M143.27,237.7h-.8v-2.85c0-1.06-.39-1.6-1.16-1.6a1.27,1.27,0,0,0-1,.46,1.68,1.68,0,0,0-.39,1.14v2.85h-.8v-5h.8v.83h0a1.82,1.82,0,0,1,1.64-.95,1.55,1.55,0,0,1,1.26.53,2.34,2.34,0,0,1,.43,1.53Z"/><path class="cls-6" d="M144.48,237.52v-.86a2.35,2.35,0,0,0,1.44.48c.7,0,1.05-.23,1.05-.7a.59.59,0,0,0-.09-.34.94.94,0,0,0-.24-.25,2.42,2.42,0,0,0-.36-.19l-.45-.18a5.37,5.37,0,0,1-.58-.27,1.74,1.74,0,0,1-.42-.3,1.08,1.08,0,0,1-.26-.38,1.5,1.5,0,0,1-.08-.5,1.18,1.18,0,0,1,.16-.63,1.42,1.42,0,0,1,.43-.45,2.28,2.28,0,0,1,.61-.28,2.82,2.82,0,0,1,.71-.09,3,3,0,0,1,1.16.22v.82a2.18,2.18,0,0,0-1.27-.37,1.25,1.25,0,0,0-.4.06.89.89,0,0,0-.31.14.6.6,0,0,0-.2.22.57.57,0,0,0-.07.29.61.61,0,0,0,.07.32.68.68,0,0,0,.21.24,1.29,1.29,0,0,0,.33.18l.44.18.6.27a2.52,2.52,0,0,1,.45.3,1.08,1.08,0,0,1,.28.39,1.18,1.18,0,0,1,.1.52,1.19,1.19,0,0,1-.16.64,1.38,1.38,0,0,1-.44.46,2,2,0,0,1-.63.27,3,3,0,0,1-.74.08A2.82,2.82,0,0,1,144.48,237.52Z"/><path class="cls-6" d="M152.56,237.7h-.8v-7.41h.8Z"/><path class="cls-6" d="M158.2,235.4h-3.53a2,2,0,0,0,.45,1.29,1.56,1.56,0,0,0,1.18.45,2.43,2.43,0,0,0,1.56-.56v.76a2.9,2.9,0,0,1-1.75.47,2.09,2.09,0,0,1-1.66-.68,3.18,3.18,0,0,1,.05-3.81,2.14,2.14,0,0,1,1.65-.74,1.9,1.9,0,0,1,1.52.63,2.73,2.73,0,0,1,.53,1.77Zm-.82-.68a1.62,1.62,0,0,0-.33-1.08,1.14,1.14,0,0,0-.92-.39,1.28,1.28,0,0,0-1,.41,1.84,1.84,0,0,0-.49,1.06Zm-.12-4.57-1.28,1.6h-.62l1.09-1.6Z"/><path class="cls-6" d="M163.68,237.3c0,1.83-.88,2.75-2.64,2.75a3.64,3.64,0,0,1-1.62-.35v-.8a3.38,3.38,0,0,0,1.61.47c1.24,0,1.85-.66,1.85-2v-.54h0a1.86,1.86,0,0,1-1.72.95,1.89,1.89,0,0,1-1.5-.66,2.67,2.67,0,0,1-.57-1.79,3.11,3.11,0,0,1,.62-2,2,2,0,0,1,1.67-.75,1.62,1.62,0,0,1,1.5.81h0v-.69h.8Zm-.8-1.86v-.74a1.41,1.41,0,0,0-.4-1,1.36,1.36,0,0,0-1-.43,1.39,1.39,0,0,0-1.16.54,2.42,2.42,0,0,0-.42,1.51,2.12,2.12,0,0,0,.4,1.34,1.32,1.32,0,0,0,1.07.5,1.4,1.4,0,0,0,1.1-.48A1.79,1.79,0,0,0,162.88,235.44Z"/><path class="cls-6" d="M165.71,231.43a.49.49,0,0,1-.36-.15.53.53,0,0,1,0-.74.49.49,0,0,1,.36-.15.54.54,0,0,1,.38.15.5.5,0,0,1,.15.37.51.51,0,0,1-.15.37A.54.54,0,0,1,165.71,231.43Zm.39,6.27h-.8v-5h.8Z"/><path class="cls-6" d="M170,237.65a1.54,1.54,0,0,1-.74.15c-.88,0-1.32-.48-1.32-1.46v-3h-.86v-.68H168v-1.22l.8-.26v1.48H170v.68h-1.26v2.82a1.23,1.23,0,0,0,.17.72.71.71,0,0,0,.57.21A.78.78,0,0,0,170,237Z"/><path class="cls-6" d="M171.52,231.43a.49.49,0,0,1-.36-.15.53.53,0,0,1,0-.74.49.49,0,0,1,.36-.15.54.54,0,0,1,.38.15.5.5,0,0,1,.15.37.51.51,0,0,1-.15.37A.54.54,0,0,1,171.52,231.43Zm.39,6.27h-.8v-5h.8Z"/><path class="cls-6" d="M180.63,237.7h-.8v-2.87a2.21,2.21,0,0,0-.25-1.21,1,1,0,0,0-.86-.37,1.08,1.08,0,0,0-.88.47,1.87,1.87,0,0,0-.35,1.13v2.85h-.81v-3c0-1-.37-1.48-1.13-1.48a1.05,1.05,0,0,0-.87.45,1.79,1.79,0,0,0-.34,1.15v2.85h-.81v-5h.81v.79h0a1.68,1.68,0,0,1,1.55-.91,1.44,1.44,0,0,1,.89.29,1.37,1.37,0,0,1,.52.75,1.8,1.8,0,0,1,1.66-1q1.65,0,1.65,2Z"/><path class="cls-6" d="M182.56,231.43a.52.52,0,1,1,0-1,.51.51,0,0,1,.37.15.51.51,0,0,1,.16.37.52.52,0,0,1-.16.37A.51.51,0,0,1,182.56,231.43Zm.39,6.27h-.8v-5h.8Z"/><path class="cls-6" d="M186.89,237.65a1.61,1.61,0,0,1-.75.15c-.87,0-1.31-.48-1.31-1.46v-3H184v-.68h.86v-1.22l.8-.26v1.48h1.26v.68h-1.26v2.82a1.23,1.23,0,0,0,.17.72.68.68,0,0,0,.57.21.79.79,0,0,0,.52-.17Z"/><path class="cls-6" d="M192,235.4h-3.53a1.87,1.87,0,0,0,.45,1.29,1.54,1.54,0,0,0,1.18.45,2.41,2.41,0,0,0,1.55-.56v.76a2.89,2.89,0,0,1-1.74.47,2.11,2.11,0,0,1-1.67-.68,2.79,2.79,0,0,1-.6-1.91,2.71,2.71,0,0,1,.66-1.9,2.12,2.12,0,0,1,1.64-.74,1.88,1.88,0,0,1,1.52.63A2.67,2.67,0,0,1,192,235Zm-.82-.68a1.68,1.68,0,0,0-.34-1.08,1.12,1.12,0,0,0-.91-.39,1.28,1.28,0,0,0-1,.41,1.78,1.78,0,0,0-.49,1.06Zm-.13-4.57-1.28,1.6h-.62l1.09-1.6Z"/><path class="cls-6" d="M200.08,237.7h-.8v-2.85c0-1.06-.39-1.6-1.17-1.6a1.23,1.23,0,0,0-1,.46,1.68,1.68,0,0,0-.39,1.14v2.85h-.8v-5h.8v.83h0a1.81,1.81,0,0,1,1.64-.95,1.53,1.53,0,0,1,1.25.53,2.35,2.35,0,0,1,.44,1.53Z"/><path class="cls-6" d="M202,231.43a.52.52,0,1,1,0-1,.51.51,0,0,1,.37.15.5.5,0,0,1,.15.37.51.51,0,0,1-.52.52Zm.39,6.27h-.8v-5h.8Z"/><path class="cls-6" d="M73.74,249.47a2.63,2.63,0,0,1-1.37.34,2.29,2.29,0,0,1-1.73-.69,2.51,2.51,0,0,1-.65-1.81,2.77,2.77,0,0,1,.7-2,2.5,2.5,0,0,1,1.89-.75,2.64,2.64,0,0,1,1.16.24v.82a2,2,0,0,0-1.19-.39,1.61,1.61,0,0,0-1.25.55,2.09,2.09,0,0,0-.49,1.45,2,2,0,0,0,.46,1.38,1.57,1.57,0,0,0,1.23.51,2,2,0,0,0,1.24-.43Z"/><path class="cls-6" d="M77,249.81a2.31,2.31,0,0,1-1.77-.7,2.53,2.53,0,0,1-.67-1.85,2.7,2.7,0,0,1,.69-2,2.49,2.49,0,0,1,1.86-.71,2.25,2.25,0,0,1,1.75.69,2.72,2.72,0,0,1,.63,1.91,2.67,2.67,0,0,1-.68,1.91A2.37,2.37,0,0,1,77,249.81Zm0-4.56a1.53,1.53,0,0,0-1.22.53,2.15,2.15,0,0,0-.45,1.45,2.05,2.05,0,0,0,.46,1.4,1.54,1.54,0,0,0,1.21.51,1.49,1.49,0,0,0,1.2-.5,2.18,2.18,0,0,0,.42-1.43,2.22,2.22,0,0,0-.42-1.45A1.47,1.47,0,0,0,77.09,245.25Z"/><path class="cls-6" d="M85,249.7h-.8v-2.85c0-1.06-.39-1.6-1.17-1.6a1.23,1.23,0,0,0-1,.46,1.68,1.68,0,0,0-.39,1.14v2.85h-.8v-5h.8v.83h0a1.8,1.8,0,0,1,1.64-.95,1.54,1.54,0,0,1,1.25.53,2.35,2.35,0,0,1,.44,1.53Z"/><path class="cls-6" d="M88.78,249.65a1.57,1.57,0,0,1-.74.15c-.88,0-1.32-.48-1.32-1.46v-3h-.86v-.68h.86v-1.22l.8-.26v1.48h1.26v.68H87.52v2.82a1.15,1.15,0,0,0,.18.72.68.68,0,0,0,.56.21.78.78,0,0,0,.52-.17Z"/><path class="cls-6" d="M92.46,245.51a1,1,0,0,0-.6-.16,1,1,0,0,0-.86.48,2.22,2.22,0,0,0-.35,1.32v2.55h-.8v-5h.8v1h0a1.72,1.72,0,0,1,.53-.82,1.16,1.16,0,0,1,.78-.3,1.22,1.22,0,0,1,.48.07Z"/><path class="cls-6" d="M95.42,249.81a2.31,2.31,0,0,1-1.77-.7,2.57,2.57,0,0,1-.66-1.85,2.7,2.7,0,0,1,.69-2,2.49,2.49,0,0,1,1.86-.71,2.24,2.24,0,0,1,1.74.69,2.72,2.72,0,0,1,.63,1.91,2.67,2.67,0,0,1-.68,1.91A2.36,2.36,0,0,1,95.42,249.81Zm.06-4.56a1.52,1.52,0,0,0-1.22.53,2.15,2.15,0,0,0-.45,1.45,2,2,0,0,0,.45,1.4,1.56,1.56,0,0,0,1.22.51,1.47,1.47,0,0,0,1.19-.5,2.18,2.18,0,0,0,.42-1.43,2.22,2.22,0,0,0-.42-1.45A1.45,1.45,0,0,0,95.48,245.25Zm1.36-1.5h-.6l-.8-1.12-.8,1.12h-.55l1-1.62h.65Z"/><path class="cls-6" d="M100,249.7h-.8v-7.41h.8Z"/><path class="cls-6" d="M105.63,247.4H102.1a1.87,1.87,0,0,0,.45,1.29,1.56,1.56,0,0,0,1.18.45,2.41,2.41,0,0,0,1.55-.56v.76a2.89,2.89,0,0,1-1.74.47,2.11,2.11,0,0,1-1.67-.68,2.79,2.79,0,0,1-.6-1.91,2.71,2.71,0,0,1,.66-1.9,2.12,2.12,0,0,1,1.64-.74,1.88,1.88,0,0,1,1.52.63,2.67,2.67,0,0,1,.54,1.77Zm-.82-.68a1.62,1.62,0,0,0-.34-1.08,1.11,1.11,0,0,0-.91-.39,1.28,1.28,0,0,0-1,.41,1.78,1.78,0,0,0-.49,1.06Z"/><path class="cls-6" d="M109.28,249.52v-.86a2.35,2.35,0,0,0,1.44.48c.7,0,1-.23,1-.7a.59.59,0,0,0-.09-.34.94.94,0,0,0-.24-.25,2.42,2.42,0,0,0-.36-.19l-.45-.18a5.37,5.37,0,0,1-.58-.27,1.74,1.74,0,0,1-.42-.3,1.08,1.08,0,0,1-.26-.38,1.5,1.5,0,0,1-.08-.5,1.18,1.18,0,0,1,.16-.63,1.42,1.42,0,0,1,.43-.45,2.28,2.28,0,0,1,.61-.28,2.82,2.82,0,0,1,.71-.09,3,3,0,0,1,1.16.22v.82a2.2,2.2,0,0,0-1.27-.37,1.25,1.25,0,0,0-.4.06.89.89,0,0,0-.31.14.6.6,0,0,0-.2.22.57.57,0,0,0-.07.29.61.61,0,0,0,.07.32.68.68,0,0,0,.21.24,1.29,1.29,0,0,0,.33.18l.44.18.6.27a2.52,2.52,0,0,1,.45.3,1.08,1.08,0,0,1,.28.39,1.18,1.18,0,0,1,.1.52,1.19,1.19,0,0,1-.16.64,1.38,1.38,0,0,1-.44.46,2,2,0,0,1-.63.27,3,3,0,0,1-.75.08A2.78,2.78,0,0,1,109.28,249.52Z"/><path class="cls-6" d="M117.23,249.47a2.6,2.6,0,0,1-1.37.34,2.27,2.27,0,0,1-1.72-.69,2.52,2.52,0,0,1-.66-1.81,2.78,2.78,0,0,1,.71-2,2.47,2.47,0,0,1,1.89-.75,2.64,2.64,0,0,1,1.16.24v.82a2,2,0,0,0-1.19-.39,1.64,1.64,0,0,0-1.26.55,2.14,2.14,0,0,0-.49,1.45,2,2,0,0,0,.46,1.38,1.59,1.59,0,0,0,1.24.51,2,2,0,0,0,1.23-.43Z"/><path class="cls-6" d="M118.85,243.43a.49.49,0,0,1-.36-.15.51.51,0,0,1,0-.74.49.49,0,0,1,.36-.15.54.54,0,0,1,.38.15.5.5,0,0,1,.15.37.51.51,0,0,1-.15.37A.54.54,0,0,1,118.85,243.43Zm.39,6.27h-.8v-5h.8Z"/><path class="cls-6" d="M124.88,247.4h-3.53a1.92,1.92,0,0,0,.45,1.29,1.56,1.56,0,0,0,1.18.45,2.43,2.43,0,0,0,1.56-.56v.76a2.9,2.9,0,0,1-1.75.47,2.09,2.09,0,0,1-1.66-.68,3.18,3.18,0,0,1,.05-3.81,2.13,2.13,0,0,1,1.65-.74,1.9,1.9,0,0,1,1.52.63,2.73,2.73,0,0,1,.53,1.77Zm-.82-.68a1.62,1.62,0,0,0-.33-1.08,1.14,1.14,0,0,0-.92-.39,1.28,1.28,0,0,0-1,.41,1.84,1.84,0,0,0-.49,1.06Z"/><path class="cls-6" d="M130.24,249.7h-.8v-2.85c0-1.06-.38-1.6-1.16-1.6a1.23,1.23,0,0,0-1,.46,1.68,1.68,0,0,0-.4,1.14v2.85h-.8v-5h.8v.83h0a1.82,1.82,0,0,1,1.64-.95,1.55,1.55,0,0,1,1.26.53,2.34,2.34,0,0,1,.43,1.53Z"/><path class="cls-6" d="M134.07,249.65a1.61,1.61,0,0,1-.75.15c-.87,0-1.31-.48-1.31-1.46v-3h-.86v-.68H132v-1.22l.8-.26v1.48h1.26v.68h-1.26v2.82a1.23,1.23,0,0,0,.17.72.71.71,0,0,0,.57.21.78.78,0,0,0,.52-.17Z"/><path class="cls-6" d="M135.55,243.43a.49.49,0,0,1-.36-.15.51.51,0,0,1,0-.74.49.49,0,0,1,.36-.15.5.5,0,0,1,.37.15.47.47,0,0,1,.16.37.49.49,0,0,1-.16.37A.5.5,0,0,1,135.55,243.43Zm.39,6.27h-.8v-5h.8Z"/><path class="cls-6" d="M140,243a1,1,0,0,0-.53-.13c-.56,0-.84.35-.84,1.06v.77h1.17v.68h-1.17v4.32h-.79v-4.32H137v-.68h.86v-.81a1.71,1.71,0,0,1,.45-1.25,1.54,1.54,0,0,1,1.13-.45,1.5,1.5,0,0,1,.58.09Z"/><path class="cls-6" d="M141.1,243.43a.49.49,0,0,1-.36-.15.53.53,0,0,1,0-.74.49.49,0,0,1,.36-.15.54.54,0,0,1,.38.15.5.5,0,0,1,.15.37.51.51,0,0,1-.15.37A.54.54,0,0,1,141.1,243.43Zm.39,6.27h-.8v-5h.8Z"/><path class="cls-6" d="M147.38,252h-.8v-3.16h0a1.79,1.79,0,0,1-1.71,1,1.88,1.88,0,0,1-1.51-.67,2.71,2.71,0,0,1-.57-1.83,2.94,2.94,0,0,1,.63-2,2.07,2.07,0,0,1,1.68-.75,1.57,1.57,0,0,1,1.48.81h0v-.69h.8Zm-.8-4.55v-.73a1.44,1.44,0,0,0-.4-1,1.46,1.46,0,0,0-2.17.11,2.39,2.39,0,0,0-.42,1.5,2.08,2.08,0,0,0,.41,1.36,1.28,1.28,0,0,0,1,.49,1.4,1.4,0,0,0,1.12-.48A1.78,1.78,0,0,0,146.58,247.45Z"/><path class="cls-6" d="M153.05,249.7h-.8v-.79h0a1.66,1.66,0,0,1-1.55.9c-1.19,0-1.78-.7-1.78-2.12v-3h.79v2.86c0,1.05.41,1.58,1.21,1.58a1.24,1.24,0,0,0,1-.43,1.68,1.68,0,0,0,.38-1.13V244.7h.8Z"/><path class="cls-6" d="M158.68,247.4h-3.53a1.87,1.87,0,0,0,.45,1.29,1.56,1.56,0,0,0,1.18.45,2.39,2.39,0,0,0,1.55-.56v.76a2.87,2.87,0,0,1-1.74.47,2.09,2.09,0,0,1-1.66-.68,3.18,3.18,0,0,1,0-3.81,2.13,2.13,0,0,1,1.65-.74,1.86,1.86,0,0,1,1.51.63,2.67,2.67,0,0,1,.54,1.77Zm-.82-.68a1.62,1.62,0,0,0-.33-1.08,1.14,1.14,0,0,0-.92-.39,1.28,1.28,0,0,0-1,.41,1.84,1.84,0,0,0-.49,1.06Z"/><path class="cls-6" d="M159.59,249.52v-.86a2.4,2.4,0,0,0,1.44.48c.7,0,1.05-.23,1.05-.7a.59.59,0,0,0-.09-.34.94.94,0,0,0-.24-.25,2,2,0,0,0-.36-.19l-.45-.18c-.22-.09-.41-.18-.58-.27a1.74,1.74,0,0,1-.42-.3,1,1,0,0,1-.25-.38,1.28,1.28,0,0,1-.09-.5,1.18,1.18,0,0,1,.16-.63,1.42,1.42,0,0,1,.43-.45,2.28,2.28,0,0,1,.61-.28,2.82,2.82,0,0,1,.71-.09,3.09,3.09,0,0,1,1.17.22v.82a2.23,2.23,0,0,0-1.27-.37,1.31,1.31,0,0,0-.41.06,1,1,0,0,0-.31.14.6.6,0,0,0-.2.22.57.57,0,0,0-.07.29.61.61,0,0,0,.07.32.79.79,0,0,0,.21.24,1.29,1.29,0,0,0,.33.18l.44.18c.23.09.42.18.6.27a2,2,0,0,1,.45.3,1.08,1.08,0,0,1,.28.39,1.17,1.17,0,0,1,.11.52,1.2,1.2,0,0,1-.17.64,1.29,1.29,0,0,1-.44.46,2,2,0,0,1-.63.27,3,3,0,0,1-.74.08A2.82,2.82,0,0,1,159.59,249.52Z"/><path class="cls-6" d="M164.87,248.58l-.78,2.41h-.57l.57-2.41Z"/><path class="cls-6" d="M173.31,249.7h-.8v-.85h0a2,2,0,0,1-3.22.29,2.71,2.71,0,0,1-.57-1.83,3,3,0,0,1,.63-2,2,2,0,0,1,1.66-.75,1.6,1.6,0,0,1,1.5.81h0v-3.1h.8Zm-.8-2.26v-.74a1.43,1.43,0,0,0-.4-1,1.36,1.36,0,0,0-1-.42,1.39,1.39,0,0,0-1.15.54,2.36,2.36,0,0,0-.42,1.49,2.16,2.16,0,0,0,.4,1.36,1.33,1.33,0,0,0,1.09.5,1.37,1.37,0,0,0,1.08-.48A1.81,1.81,0,0,0,172.51,247.44Z"/><path class="cls-6" d="M178.51,249.7h-.8v-.78h0a1.84,1.84,0,0,1-2.71.5,1.36,1.36,0,0,1-.42-1c0-.93.55-1.48,1.65-1.63l1.5-.21c0-.85-.34-1.28-1-1.28a2.46,2.46,0,0,0-1.63.62v-.82a3.12,3.12,0,0,1,1.7-.47c1.17,0,1.76.62,1.76,1.87Zm-.8-2.53-1.21.16a2.11,2.11,0,0,0-.84.28.82.82,0,0,0-.28.7.79.79,0,0,0,.26.6,1.05,1.05,0,0,0,.7.23,1.27,1.27,0,0,0,1-.42,1.47,1.47,0,0,0,.39-1.05Z"/><path class="cls-6" d="M184.17,249.7h-.8v-2.85c0-1.06-.39-1.6-1.16-1.6a1.27,1.27,0,0,0-1,.46,1.68,1.68,0,0,0-.39,1.14v2.85H180v-5h.8v.83h0a1.81,1.81,0,0,1,1.64-.95,1.55,1.55,0,0,1,1.26.53,2.34,2.34,0,0,1,.43,1.53Z"/><path class="cls-6" d="M185.38,249.52v-.86a2.35,2.35,0,0,0,1.44.48c.7,0,1.05-.23,1.05-.7a.59.59,0,0,0-.09-.34.94.94,0,0,0-.24-.25,2.55,2.55,0,0,0-.37-.19l-.44-.18a5.37,5.37,0,0,1-.58-.27,1.74,1.74,0,0,1-.42-.3,1.08,1.08,0,0,1-.26-.38,1.28,1.28,0,0,1-.08-.5,1.18,1.18,0,0,1,.16-.63A1.32,1.32,0,0,1,186,245a2.28,2.28,0,0,1,.61-.28,2.82,2.82,0,0,1,.71-.09,3,3,0,0,1,1.16.22v.82a2.2,2.2,0,0,0-1.27-.37,1.25,1.25,0,0,0-.4.06.89.89,0,0,0-.31.14.53.53,0,0,0-.2.22.57.57,0,0,0-.07.29.61.61,0,0,0,.07.32.64.64,0,0,0,.2.24,1.36,1.36,0,0,0,.34.18l.44.18.6.27a2.52,2.52,0,0,1,.45.3,1.21,1.21,0,0,1,.28.39,1.18,1.18,0,0,1,.1.52,1.19,1.19,0,0,1-.16.64,1.38,1.38,0,0,1-.44.46,2,2,0,0,1-.63.27,3.08,3.08,0,0,1-.75.08A2.78,2.78,0,0,1,185.38,249.52Z"/><path class="cls-6" d="M193.46,249.7h-.8v-7.41h.8Z"/><path class="cls-6" d="M199.1,247.4h-3.53a1.87,1.87,0,0,0,.45,1.29,1.56,1.56,0,0,0,1.18.45,2.39,2.39,0,0,0,1.55-.56v.76a2.87,2.87,0,0,1-1.74.47,2.09,2.09,0,0,1-1.66-.68,3.18,3.18,0,0,1,.05-3.81,2.13,2.13,0,0,1,1.65-.74,1.86,1.86,0,0,1,1.51.63,2.67,2.67,0,0,1,.54,1.77Zm-.82-.68a1.62,1.62,0,0,0-.33-1.08,1.14,1.14,0,0,0-.92-.39,1.28,1.28,0,0,0-1,.41,1.84,1.84,0,0,0-.49,1.06Z"/><path class="cls-6" d="M202.75,249.52v-.86a2.38,2.38,0,0,0,1.44.48c.7,0,1.05-.23,1.05-.7a.59.59,0,0,0-.09-.34.94.94,0,0,0-.24-.25,2,2,0,0,0-.36-.19l-.45-.18c-.22-.09-.41-.18-.58-.27a1.74,1.74,0,0,1-.42-.3,1.22,1.22,0,0,1-.26-.38,1.5,1.5,0,0,1-.08-.5,1.18,1.18,0,0,1,.16-.63,1.42,1.42,0,0,1,.43-.45,2.28,2.28,0,0,1,.61-.28,2.82,2.82,0,0,1,.71-.09,3,3,0,0,1,1.16.22v.82a2.17,2.17,0,0,0-1.26-.37,1.31,1.31,0,0,0-.41.06,1,1,0,0,0-.31.14.6.6,0,0,0-.2.22.57.57,0,0,0-.07.29.61.61,0,0,0,.07.32.79.79,0,0,0,.21.24,1.29,1.29,0,0,0,.33.18l.44.18c.23.09.42.18.6.27a2.2,2.2,0,0,1,.45.3,1.08,1.08,0,0,1,.28.39,1.18,1.18,0,0,1,.1.52,1.19,1.19,0,0,1-.16.64,1.29,1.29,0,0,1-.44.46,2,2,0,0,1-.63.27,3,3,0,0,1-.74.08A2.82,2.82,0,0,1,202.75,249.52Z"/><path class="cls-6" d="M211.31,247.4h-3.53a2,2,0,0,0,.45,1.29,1.56,1.56,0,0,0,1.18.45,2.43,2.43,0,0,0,1.56-.56v.76a2.9,2.9,0,0,1-1.75.47,2.09,2.09,0,0,1-1.66-.68,2.79,2.79,0,0,1-.61-1.91,2.71,2.71,0,0,1,.66-1.9,2.14,2.14,0,0,1,1.65-.74,1.9,1.9,0,0,1,1.52.63,2.73,2.73,0,0,1,.53,1.77Zm-.82-.68a1.62,1.62,0,0,0-.33-1.08,1.14,1.14,0,0,0-.92-.39,1.28,1.28,0,0,0-1,.41,1.84,1.84,0,0,0-.49,1.06Z"/><path class="cls-6" d="M216.57,249.7h-.8v-.79h0a1.66,1.66,0,0,1-1.55.9c-1.19,0-1.78-.7-1.78-2.12v-3h.79v2.86c0,1.05.41,1.58,1.21,1.58a1.23,1.23,0,0,0,1-.43,1.68,1.68,0,0,0,.38-1.13V244.7h.8Z"/><path class="cls-6" d="M219,249.7h-.8v-7.41h.8Z"/><path class="cls-6" d="M71.15,261h0v.73h-.8v-7.41h.8v3.29h0a1.88,1.88,0,0,1,1.73-1,1.81,1.81,0,0,1,1.5.67,2.8,2.8,0,0,1,.55,1.8,3.13,3.13,0,0,1-.61,2,2,2,0,0,1-1.67.75A1.63,1.63,0,0,1,71.15,261Zm0-2v.7a1.48,1.48,0,0,0,.4,1,1.33,1.33,0,0,0,1,.43,1.31,1.31,0,0,0,1.14-.56,2.49,2.49,0,0,0,.42-1.54,2,2,0,0,0-.39-1.31,1.28,1.28,0,0,0-1-.48,1.45,1.45,0,0,0-1.13.49A1.79,1.79,0,0,0,71.13,259Z"/><path class="cls-6" d="M80.25,261.7h-.8v-.79h0a1.65,1.65,0,0,1-1.54.9c-1.2,0-1.79-.7-1.79-2.12v-3h.79v2.86c0,1.05.41,1.58,1.22,1.58a1.21,1.21,0,0,0,1-.43,1.68,1.68,0,0,0,.38-1.13V256.7h.8Z"/><path class="cls-6" d="M84.18,261.65a1.54,1.54,0,0,1-.74.15c-.88,0-1.32-.48-1.32-1.46v-3h-.86v-.68h.86v-1.22l.8-.26v1.48h1.26v.68H82.92v2.82a1.15,1.15,0,0,0,.18.72.68.68,0,0,0,.56.21.78.78,0,0,0,.52-.17Z"/><path class="cls-6" d="M92.26,261.7h-.8v-.85h0a2,2,0,0,1-3.22.29,2.71,2.71,0,0,1-.57-1.83,3,3,0,0,1,.63-2,2,2,0,0,1,1.66-.75,1.6,1.6,0,0,1,1.5.81h0v-3.1h.8Zm-.8-2.26v-.74a1.43,1.43,0,0,0-.4-1,1.36,1.36,0,0,0-1-.42,1.39,1.39,0,0,0-1.15.54,2.36,2.36,0,0,0-.42,1.49,2.16,2.16,0,0,0,.4,1.36,1.33,1.33,0,0,0,1.09.5,1.37,1.37,0,0,0,1.08-.48A1.81,1.81,0,0,0,91.46,259.44Z"/><path class="cls-6" d="M94.57,254.7v2.18h-.7V254.7Z"/><path class="cls-6" d="M100.2,259.4H96.67a1.87,1.87,0,0,0,.45,1.29,1.56,1.56,0,0,0,1.18.45,2.41,2.41,0,0,0,1.55-.56v.76a2.89,2.89,0,0,1-1.74.47,2.07,2.07,0,0,1-1.66-.68,3.18,3.18,0,0,1,0-3.81,2.12,2.12,0,0,1,1.64-.74,1.88,1.88,0,0,1,1.52.63,2.67,2.67,0,0,1,.54,1.77Zm-.82-.68a1.68,1.68,0,0,0-.33-1.08,1.14,1.14,0,0,0-.92-.39,1.28,1.28,0,0,0-1,.41,1.78,1.78,0,0,0-.49,1.06Z"/><path class="cls-6" d="M105.56,261.7h-.8v-2.85c0-1.06-.39-1.6-1.16-1.6a1.27,1.27,0,0,0-1,.46,1.68,1.68,0,0,0-.39,1.14v2.85h-.8v-5h.8v.83h0a1.82,1.82,0,0,1,1.64-.95,1.55,1.55,0,0,1,1.26.53,2.34,2.34,0,0,1,.43,1.53Z"/><path class="cls-6" d="M110.48,261.47a2.63,2.63,0,0,1-1.37.34,2.25,2.25,0,0,1-1.72-.69,2.52,2.52,0,0,1-.66-1.81,2.73,2.73,0,0,1,.71-2,2.47,2.47,0,0,1,1.89-.75,2.67,2.67,0,0,1,1.16.24v.82a2,2,0,0,0-1.19-.39,1.64,1.64,0,0,0-1.26.55,2.09,2.09,0,0,0-.49,1.45,2,2,0,0,0,.46,1.38,1.59,1.59,0,0,0,1.24.51,2,2,0,0,0,1.23-.43Z"/><path class="cls-6" d="M115.27,261.7h-.8v-.78h0a1.84,1.84,0,0,1-2.71.5,1.36,1.36,0,0,1-.42-1.05c0-.93.55-1.48,1.65-1.63l1.5-.21c0-.85-.35-1.28-1-1.28a2.44,2.44,0,0,0-1.63.62v-.82a3.1,3.1,0,0,1,1.7-.47c1.17,0,1.76.62,1.76,1.87Zm-.8-2.53-1.21.16a2.11,2.11,0,0,0-.84.28.92.92,0,0,0,0,1.3,1,1,0,0,0,.7.23,1.29,1.29,0,0,0,1-.42,1.47,1.47,0,0,0,.39-1.05Z"/><path class="cls-6" d="M117.19,255.43a.52.52,0,1,1,0-1,.51.51,0,0,1,.37.15.5.5,0,0,1,.15.37.51.51,0,0,1-.52.52Zm.39,6.27h-.8v-5h.8Z"/><path class="cls-6" d="M118.9,261.52v-.86a2.35,2.35,0,0,0,1.44.48c.7,0,1-.23,1-.7a.59.59,0,0,0-.09-.34.94.94,0,0,0-.24-.25,3,3,0,0,0-.36-.19l-.45-.18a5.37,5.37,0,0,1-.58-.27,1.74,1.74,0,0,1-.42-.3,1.08,1.08,0,0,1-.26-.38,1.28,1.28,0,0,1-.08-.5,1.18,1.18,0,0,1,.16-.63,1.32,1.32,0,0,1,.43-.45,2.28,2.28,0,0,1,.61-.28,2.82,2.82,0,0,1,.71-.09,3,3,0,0,1,1.16.22v.82a2.2,2.2,0,0,0-1.27-.37,1.25,1.25,0,0,0-.4.06.89.89,0,0,0-.31.14.53.53,0,0,0-.2.22.57.57,0,0,0-.07.29.61.61,0,0,0,.07.32.64.64,0,0,0,.2.24,1.56,1.56,0,0,0,.34.18l.44.18.6.27a2.52,2.52,0,0,1,.45.3,1.21,1.21,0,0,1,.28.39,1.18,1.18,0,0,1,.1.52,1.19,1.19,0,0,1-.16.64,1.38,1.38,0,0,1-.44.46,2,2,0,0,1-.63.27,3.08,3.08,0,0,1-.75.08A2.78,2.78,0,0,1,118.9,261.52Z"/><path class="cls-6" d="M123.14,261.52v-.86a2.4,2.4,0,0,0,1.44.48c.7,0,1-.23,1-.7a.59.59,0,0,0-.09-.34.94.94,0,0,0-.24-.25,2,2,0,0,0-.36-.19l-.45-.18c-.22-.09-.41-.18-.58-.27a1.74,1.74,0,0,1-.42-.3,1,1,0,0,1-.25-.38,1.28,1.28,0,0,1-.09-.5,1.18,1.18,0,0,1,.16-.63,1.42,1.42,0,0,1,.43-.45,2.28,2.28,0,0,1,.61-.28,2.82,2.82,0,0,1,.71-.09,3.09,3.09,0,0,1,1.17.22v.82a2.23,2.23,0,0,0-1.27-.37,1.31,1.31,0,0,0-.41.06,1,1,0,0,0-.31.14.6.6,0,0,0-.2.22.57.57,0,0,0-.07.29.61.61,0,0,0,.07.32.79.79,0,0,0,.21.24,1.29,1.29,0,0,0,.33.18l.44.18c.23.09.42.18.6.27a2,2,0,0,1,.45.3,1.08,1.08,0,0,1,.28.39,1.18,1.18,0,0,1,.1.52,1.19,1.19,0,0,1-.16.64,1.29,1.29,0,0,1-.44.46,2,2,0,0,1-.63.27,3,3,0,0,1-.74.08A2.82,2.82,0,0,1,123.14,261.52Z"/><path class="cls-6" d="M131.7,259.4h-3.53a2,2,0,0,0,.45,1.29,1.56,1.56,0,0,0,1.18.45,2.41,2.41,0,0,0,1.56-.56v.76a2.9,2.9,0,0,1-1.75.47,2.09,2.09,0,0,1-1.66-.68,2.79,2.79,0,0,1-.61-1.91,2.67,2.67,0,0,1,.67-1.9,2.11,2.11,0,0,1,1.64-.74,1.9,1.9,0,0,1,1.52.63,2.67,2.67,0,0,1,.53,1.77Zm-.82-.68a1.62,1.62,0,0,0-.33-1.08,1.14,1.14,0,0,0-.92-.39,1.32,1.32,0,0,0-1,.41,1.84,1.84,0,0,0-.49,1.06Z"/><path class="cls-6" d="M135.52,257.51a1,1,0,0,0-.6-.16,1,1,0,0,0-.86.48,2.23,2.23,0,0,0-.34,1.32v2.55h-.81v-5h.81v1h0a1.64,1.64,0,0,1,.52-.82,1.16,1.16,0,0,1,.78-.3,1.22,1.22,0,0,1,.48.07Z"/><path class="cls-6" d="M143.4,261.7h-.8v-.85h0a2,2,0,0,1-3.23.29,2.76,2.76,0,0,1-.56-1.83,3,3,0,0,1,.62-2,2.08,2.08,0,0,1,1.67-.75,1.6,1.6,0,0,1,1.5.81h0v-3.1h.8Zm-.8-2.26v-.74a1.48,1.48,0,0,0-.4-1,1.36,1.36,0,0,0-1-.42,1.37,1.37,0,0,0-1.15.54,2.36,2.36,0,0,0-.42,1.49,2.1,2.1,0,0,0,.4,1.36,1.33,1.33,0,0,0,1.08.5,1.38,1.38,0,0,0,1.09-.48A1.81,1.81,0,0,0,142.6,259.44Z"/><path class="cls-6" d="M149,259.4h-3.53a1.87,1.87,0,0,0,.45,1.29,1.54,1.54,0,0,0,1.18.45,2.41,2.41,0,0,0,1.55-.56v.76a2.89,2.89,0,0,1-1.74.47,2.11,2.11,0,0,1-1.67-.68,2.79,2.79,0,0,1-.6-1.91,2.71,2.71,0,0,1,.66-1.9,2.12,2.12,0,0,1,1.64-.74,1.88,1.88,0,0,1,1.52.63A2.67,2.67,0,0,1,149,259Zm-.82-.68a1.68,1.68,0,0,0-.34-1.08,1.12,1.12,0,0,0-.91-.39,1.28,1.28,0,0,0-1,.41,1.78,1.78,0,0,0-.49,1.06Z"/><path class="cls-6" d="M150,261.52v-.86a2.35,2.35,0,0,0,1.44.48c.7,0,1.05-.23,1.05-.7a.59.59,0,0,0-.09-.34.94.94,0,0,0-.24-.25,2.55,2.55,0,0,0-.37-.19l-.44-.18a5.37,5.37,0,0,1-.58-.27,1.74,1.74,0,0,1-.42-.3,1.08,1.08,0,0,1-.26-.38,1.28,1.28,0,0,1-.08-.5,1.18,1.18,0,0,1,.16-.63,1.32,1.32,0,0,1,.43-.45,2.28,2.28,0,0,1,.61-.28,2.82,2.82,0,0,1,.71-.09,3,3,0,0,1,1.16.22v.82a2.2,2.2,0,0,0-1.27-.37,1.25,1.25,0,0,0-.4.06.89.89,0,0,0-.31.14.53.53,0,0,0-.2.22.57.57,0,0,0-.07.29.61.61,0,0,0,.07.32.64.64,0,0,0,.2.24,1.56,1.56,0,0,0,.34.18l.44.18.6.27a2.52,2.52,0,0,1,.45.3,1.21,1.21,0,0,1,.28.39,1.18,1.18,0,0,1,.1.52,1.19,1.19,0,0,1-.16.64,1.38,1.38,0,0,1-.44.46,2,2,0,0,1-.63.27,3.08,3.08,0,0,1-.75.08A2.78,2.78,0,0,1,150,261.52Z"/><path class="cls-6" d="M159.7,255a1,1,0,0,0-.53-.13c-.56,0-.84.35-.84,1.06v.77h1.17v.68h-1.17v4.32h-.8v-4.32h-.85v-.68h.85v-.81a1.72,1.72,0,0,1,.46-1.25,1.72,1.72,0,0,1,1.71-.36Z"/><path class="cls-6" d="M163,257.51a1,1,0,0,0-.61-.16,1,1,0,0,0-.85.48,2.22,2.22,0,0,0-.35,1.32v2.55h-.8v-5h.8v1h0a1.79,1.79,0,0,1,.52-.82,1.2,1.2,0,0,1,.79-.3,1.22,1.22,0,0,1,.48.07Z"/><path class="cls-6" d="M167.42,261.7h-.8v-.78h0a1.84,1.84,0,0,1-2.71.5,1.36,1.36,0,0,1-.42-1.05c0-.93.55-1.48,1.65-1.63l1.5-.21c0-.85-.35-1.28-1-1.28a2.49,2.49,0,0,0-1.64.62v-.82a3.15,3.15,0,0,1,1.7-.47c1.18,0,1.77.62,1.77,1.87Zm-.8-2.53-1.21.16a2.11,2.11,0,0,0-.84.28.79.79,0,0,0-.28.7.76.76,0,0,0,.26.6,1,1,0,0,0,.69.23,1.29,1.29,0,0,0,1-.42,1.47,1.47,0,0,0,.39-1.05Z"/><path class="cls-6" d="M169.34,255.43a.52.52,0,1,1,0-1,.51.51,0,0,1,.37.15.5.5,0,0,1,.15.37.51.51,0,0,1-.52.52Zm.39,6.27h-.8v-5h.8Z"/><path class="cls-6" d="M171,261.52v-.86a2.4,2.4,0,0,0,1.45.48c.7,0,1-.23,1-.7a.59.59,0,0,0-.09-.34.85.85,0,0,0-.25-.25,2,2,0,0,0-.36-.19l-.44-.18c-.22-.09-.42-.18-.59-.27a2.25,2.25,0,0,1-.42-.3,1.19,1.19,0,0,1-.25-.38,1.28,1.28,0,0,1-.09-.5,1.19,1.19,0,0,1,.17-.63,1.32,1.32,0,0,1,.43-.45,2.14,2.14,0,0,1,.61-.28,2.76,2.76,0,0,1,.71-.09,3,3,0,0,1,1.16.22v.82a2.2,2.2,0,0,0-1.27-.37,1.25,1.25,0,0,0-.4.06.89.89,0,0,0-.31.14.53.53,0,0,0-.2.22.57.57,0,0,0-.08.29.61.61,0,0,0,.08.32.64.64,0,0,0,.2.24,1.36,1.36,0,0,0,.34.18,4,4,0,0,0,.44.18l.6.27a2.12,2.12,0,0,1,.44.3,1.11,1.11,0,0,1,.29.39,1.18,1.18,0,0,1,.1.52,1.19,1.19,0,0,1-.16.64,1.38,1.38,0,0,1-.44.46,2,2,0,0,1-.63.27,3.08,3.08,0,0,1-.75.08A2.85,2.85,0,0,1,171,261.52Z"/><path class="cls-6" d="M182.6,261.7h-.8v-.85h0a2,2,0,0,1-3.23.29,2.76,2.76,0,0,1-.56-1.83,3,3,0,0,1,.62-2,2.06,2.06,0,0,1,1.67-.75,1.62,1.62,0,0,1,1.5.81h0v-3.1h.8Zm-.8-2.26v-.74a1.48,1.48,0,0,0-.4-1,1.36,1.36,0,0,0-1-.42,1.37,1.37,0,0,0-1.15.54,2.36,2.36,0,0,0-.42,1.49,2.1,2.1,0,0,0,.4,1.36,1.33,1.33,0,0,0,1.08.5,1.38,1.38,0,0,0,1.09-.48A1.81,1.81,0,0,0,181.8,259.44Z"/><path class="cls-6" d="M188.24,259.4h-3.53a1.87,1.87,0,0,0,.45,1.29,1.54,1.54,0,0,0,1.18.45,2.41,2.41,0,0,0,1.55-.56v.76a2.89,2.89,0,0,1-1.74.47,2.11,2.11,0,0,1-1.67-.68,2.79,2.79,0,0,1-.6-1.91,2.71,2.71,0,0,1,.66-1.9,2.12,2.12,0,0,1,1.64-.74,1.88,1.88,0,0,1,1.52.63,2.67,2.67,0,0,1,.54,1.77Zm-.82-.68a1.68,1.68,0,0,0-.34-1.08,1.12,1.12,0,0,0-.91-.39,1.32,1.32,0,0,0-1,.41,1.83,1.83,0,0,0-.48,1.06Z"/><path class="cls-6" d="M71.15,273h0v3h-.8v-7.3h.8v.88h0a1.88,1.88,0,0,1,1.73-1,1.81,1.81,0,0,1,1.5.67,2.74,2.74,0,0,1,.55,1.8,3.13,3.13,0,0,1-.61,2,2,2,0,0,1-1.67.75A1.65,1.65,0,0,1,71.15,273Zm0-2v.7a1.48,1.48,0,0,0,.4,1,1.33,1.33,0,0,0,1,.43,1.31,1.31,0,0,0,1.14-.56,2.49,2.49,0,0,0,.42-1.54,2,2,0,0,0-.39-1.31,1.28,1.28,0,0,0-1-.48,1.45,1.45,0,0,0-1.13.49A1.79,1.79,0,0,0,71.13,271Z"/><path class="cls-6" d="M80.25,273.7h-.8v-.79h0a1.65,1.65,0,0,1-1.54.9c-1.2,0-1.79-.7-1.79-2.12v-3h.79v2.86c0,1.05.41,1.58,1.22,1.58a1.21,1.21,0,0,0,1-.43,1.68,1.68,0,0,0,.38-1.13V268.7h.8Z"/><path class="cls-6" d="M82.69,273h0v.73h-.81v-7.41h.81v3.29h0a1.88,1.88,0,0,1,1.72-1,1.83,1.83,0,0,1,1.51.67,2.8,2.8,0,0,1,.54,1.8,3.07,3.07,0,0,1-.61,2,2,2,0,0,1-1.67.75A1.6,1.6,0,0,1,82.69,273Zm0-2v.7a1.48,1.48,0,0,0,.4,1,1.33,1.33,0,0,0,1,.43,1.31,1.31,0,0,0,1.14-.56,2.49,2.49,0,0,0,.41-1.54,2,2,0,0,0-.38-1.31,1.28,1.28,0,0,0-1.05-.48,1.43,1.43,0,0,0-1.12.49A1.79,1.79,0,0,0,82.67,271Z"/><path class="cls-6" d="M88.54,273.7h-.8v-7.41h.8Z"/><path class="cls-6" d="M90.58,267.43a.52.52,0,1,1,0-1,.51.51,0,0,1,.37.15.5.5,0,0,1,.15.37.51.51,0,0,1-.52.52ZM91,273.7h-.8v-5H91Z"/><path class="cls-6" d="M96,273.47a2.63,2.63,0,0,1-1.37.34,2.29,2.29,0,0,1-1.73-.69,2.51,2.51,0,0,1-.65-1.81,2.77,2.77,0,0,1,.7-2,2.5,2.5,0,0,1,1.89-.75,2.72,2.72,0,0,1,1.17.24v.82a2.07,2.07,0,0,0-1.2-.39,1.61,1.61,0,0,0-1.25.55,2.09,2.09,0,0,0-.49,1.45,2,2,0,0,0,.46,1.38,1.59,1.59,0,0,0,1.24.51,2,2,0,0,0,1.23-.43Z"/><path class="cls-6" d="M100.79,273.7H100v-.78h0a1.68,1.68,0,0,1-1.54.89,1.65,1.65,0,0,1-1.17-.39,1.36,1.36,0,0,1-.42-1.05c0-.93.55-1.48,1.65-1.63l1.5-.21c0-.85-.35-1.28-1-1.28a2.48,2.48,0,0,0-1.63.62v-.82a3.15,3.15,0,0,1,1.7-.47c1.18,0,1.77.62,1.77,1.87Zm-.8-2.53-1.21.16a2.11,2.11,0,0,0-.84.28.79.79,0,0,0-.28.7.76.76,0,0,0,.26.6,1,1,0,0,0,.69.23,1.29,1.29,0,0,0,1-.42,1.47,1.47,0,0,0,.39-1.05Z"/><path class="cls-6" d="M104.61,273.65a1.54,1.54,0,0,1-.74.15c-.88,0-1.32-.48-1.32-1.46v-3h-.86v-.68h.86v-1.22l.8-.26v1.48h1.26v.68h-1.26v2.82a1.15,1.15,0,0,0,.18.72.68.68,0,0,0,.56.21.78.78,0,0,0,.52-.17Z"/><path class="cls-6" d="M106.09,267.43a.49.49,0,0,1-.36-.15.53.53,0,0,1,0-.74.49.49,0,0,1,.36-.15.54.54,0,0,1,.38.15.5.5,0,0,1,.15.37.51.51,0,0,1-.15.37A.54.54,0,0,1,106.09,267.43Zm.39,6.27h-.8v-5h.8Z"/><path class="cls-6" d="M110.2,273.81a2.31,2.31,0,0,1-1.77-.7,2.53,2.53,0,0,1-.67-1.85,2.7,2.7,0,0,1,.69-2,2.49,2.49,0,0,1,1.86-.71,2.25,2.25,0,0,1,1.75.69,2.72,2.72,0,0,1,.63,1.91,2.67,2.67,0,0,1-.68,1.91A2.37,2.37,0,0,1,110.2,273.81Zm0-4.56a1.53,1.53,0,0,0-1.22.53,2.15,2.15,0,0,0-.45,1.45,2.05,2.05,0,0,0,.46,1.4,1.54,1.54,0,0,0,1.21.51,1.49,1.49,0,0,0,1.2-.5,2.18,2.18,0,0,0,.41-1.43,2.22,2.22,0,0,0-.41-1.45A1.47,1.47,0,0,0,110.25,269.25Z"/><path class="cls-6" d="M118.11,273.7h-.8v-2.85c0-1.06-.38-1.6-1.16-1.6a1.23,1.23,0,0,0-1,.46,1.68,1.68,0,0,0-.39,1.14v2.85H114v-5h.81v.83h0a1.82,1.82,0,0,1,1.65-.95,1.54,1.54,0,0,1,1.25.53,2.34,2.34,0,0,1,.43,1.53Z"/><path class="cls-6" d="M119.32,273.52v-.86a2.4,2.4,0,0,0,1.44.48c.7,0,1.06-.23,1.06-.7a.59.59,0,0,0-.09-.34,1,1,0,0,0-.25-.25,2,2,0,0,0-.36-.19l-.45-.18c-.22-.09-.41-.18-.58-.27a1.74,1.74,0,0,1-.42-.3,1,1,0,0,1-.25-.38,1.28,1.28,0,0,1-.09-.5,1.18,1.18,0,0,1,.16-.63,1.42,1.42,0,0,1,.43-.45,2.43,2.43,0,0,1,.61-.28,2.82,2.82,0,0,1,.71-.09,3.05,3.05,0,0,1,1.17.22v.82a2.2,2.2,0,0,0-1.27-.37,1.31,1.31,0,0,0-.41.06,1,1,0,0,0-.31.14.7.7,0,0,0-.2.22.57.57,0,0,0-.07.29.61.61,0,0,0,.07.32.79.79,0,0,0,.21.24,1.29,1.29,0,0,0,.33.18l.45.18c.22.09.42.18.59.27a2,2,0,0,1,.45.3,1.24,1.24,0,0,1,.29.39,1.34,1.34,0,0,1,.1.52,1.2,1.2,0,0,1-.17.64,1.35,1.35,0,0,1-.43.46,2.22,2.22,0,0,1-.63.27,3.08,3.08,0,0,1-.75.08A2.82,2.82,0,0,1,119.32,273.52Z"/><path class="cls-6" d="M130.87,273.7h-.8v-.85h0a2,2,0,0,1-3.22.29,2.71,2.71,0,0,1-.57-1.83,3,3,0,0,1,.63-2,2.06,2.06,0,0,1,1.66-.75,1.6,1.6,0,0,1,1.5.81h0v-3.1h.8Zm-.8-2.26v-.74a1.43,1.43,0,0,0-.4-1,1.32,1.32,0,0,0-1-.42,1.39,1.39,0,0,0-1.16.54,2.36,2.36,0,0,0-.42,1.49,2.1,2.1,0,0,0,.41,1.36,1.33,1.33,0,0,0,1.08.5,1.38,1.38,0,0,0,1.09-.48A1.85,1.85,0,0,0,130.07,271.44Z"/><path class="cls-6" d="M136.51,271.4H133a2,2,0,0,0,.45,1.29,1.56,1.56,0,0,0,1.18.45,2.41,2.41,0,0,0,1.56-.56v.76a2.9,2.9,0,0,1-1.75.47,2.09,2.09,0,0,1-1.66-.68,2.79,2.79,0,0,1-.61-1.91,2.67,2.67,0,0,1,.67-1.9,2.11,2.11,0,0,1,1.64-.74,1.9,1.9,0,0,1,1.52.63,2.73,2.73,0,0,1,.53,1.77Zm-.82-.68a1.62,1.62,0,0,0-.33-1.08,1.14,1.14,0,0,0-.92-.39,1.3,1.3,0,0,0-1,.41,1.84,1.84,0,0,0-.49,1.06Z"/><path class="cls-6" d="M137.42,273.52v-.86a2.4,2.4,0,0,0,1.44.48c.71,0,1.06-.23,1.06-.7a.59.59,0,0,0-.09-.34.85.85,0,0,0-.25-.25,2,2,0,0,0-.36-.19l-.45-.18c-.22-.09-.41-.18-.58-.27a1.74,1.74,0,0,1-.42-.3,1,1,0,0,1-.25-.38,1.37,1.37,0,0,1,.07-1.13A1.42,1.42,0,0,1,138,269a2.43,2.43,0,0,1,.61-.28,2.84,2.84,0,0,1,.72-.09,3,3,0,0,1,1.16.22v.82a2.2,2.2,0,0,0-1.27-.37,1.31,1.31,0,0,0-.41.06,1,1,0,0,0-.31.14.7.7,0,0,0-.2.22.69.69,0,0,0-.07.29.72.72,0,0,0,.07.32.79.79,0,0,0,.21.24,1.29,1.29,0,0,0,.33.18l.45.18c.22.09.42.18.59.27a2,2,0,0,1,.45.3,1.11,1.11,0,0,1,.29.39,1.34,1.34,0,0,1,.1.52,1.2,1.2,0,0,1-.17.64,1.35,1.35,0,0,1-.43.46,2.22,2.22,0,0,1-.63.27,3.08,3.08,0,0,1-.75.08A2.82,2.82,0,0,1,137.42,273.52Z"/><path class="cls-6" d="M148.29,273.7h-.8v-.78h0a1.68,1.68,0,0,1-1.54.89,1.65,1.65,0,0,1-1.17-.39,1.36,1.36,0,0,1-.42-1.05c0-.93.55-1.48,1.65-1.63l1.5-.21c0-.85-.35-1.28-1-1.28a2.48,2.48,0,0,0-1.63.62v-.82a3.15,3.15,0,0,1,1.7-.47c1.18,0,1.77.62,1.77,1.87Zm-.8-2.53-1.21.16a2.11,2.11,0,0,0-.84.28.79.79,0,0,0-.28.7.76.76,0,0,0,.26.6,1,1,0,0,0,.69.23,1.29,1.29,0,0,0,1-.42,1.47,1.47,0,0,0,.39-1.05Z"/><path class="cls-6" d="M153.84,273.7H153v-.79h0a1.65,1.65,0,0,1-1.55.9c-1.19,0-1.78-.7-1.78-2.12v-3h.79v2.86c0,1.05.41,1.58,1.21,1.58a1.23,1.23,0,0,0,1-.43,1.68,1.68,0,0,0,.38-1.13V268.7h.8Z"/><path class="cls-6" d="M157.77,273.65a1.57,1.57,0,0,1-.74.15c-.88,0-1.32-.48-1.32-1.46v-3h-.86v-.68h.86v-1.22l.8-.26v1.48h1.26v.68h-1.26v2.82a1.23,1.23,0,0,0,.17.72.71.71,0,0,0,.57.21.78.78,0,0,0,.52-.17Z"/><path class="cls-6" d="M162.86,271.4h-3.53a1.87,1.87,0,0,0,.45,1.29,1.56,1.56,0,0,0,1.18.45,2.39,2.39,0,0,0,1.55-.56v.76a2.89,2.89,0,0,1-1.74.47,2.09,2.09,0,0,1-1.66-.68,3.18,3.18,0,0,1,0-3.81,2.13,2.13,0,0,1,1.65-.74,1.86,1.86,0,0,1,1.51.63,2.67,2.67,0,0,1,.54,1.77Zm-.82-.68a1.62,1.62,0,0,0-.33-1.08,1.14,1.14,0,0,0-.92-.39,1.28,1.28,0,0,0-1,.41,1.84,1.84,0,0,0-.49,1.06Z"/><path class="cls-6" d="M168.11,273.7h-.8v-.79h0a1.64,1.64,0,0,1-1.54.9c-1.19,0-1.79-.7-1.79-2.12v-3h.8v2.86c0,1.05.4,1.58,1.21,1.58a1.24,1.24,0,0,0,1-.43,1.67,1.67,0,0,0,.37-1.13V268.7h.8Z"/><path class="cls-6" d="M172.34,269.51a1,1,0,0,0-.61-.16,1,1,0,0,0-.85.48,2.22,2.22,0,0,0-.35,1.32v2.55h-.8v-5h.8v1h0a1.79,1.79,0,0,1,.52-.82,1.2,1.2,0,0,1,.79-.3,1.22,1.22,0,0,1,.48.07Z"/><path class="cls-6" d="M173.49,273.8a.55.55,0,0,1-.55-.54.57.57,0,0,1,.16-.39.56.56,0,0,1,.78,0,.57.57,0,0,1,.16.39.55.55,0,0,1-.55.54Z"/><path class="cls-6" d="M179.39,271.4h-3.53a2,2,0,0,0,.45,1.29,1.56,1.56,0,0,0,1.18.45,2.41,2.41,0,0,0,1.56-.56v.76a2.9,2.9,0,0,1-1.75.47,2.09,2.09,0,0,1-1.66-.68,2.79,2.79,0,0,1-.61-1.91,2.67,2.67,0,0,1,.67-1.9,2.11,2.11,0,0,1,1.64-.74,1.9,1.9,0,0,1,1.52.63,2.67,2.67,0,0,1,.53,1.77Zm-.82-.68a1.62,1.62,0,0,0-.33-1.08,1.14,1.14,0,0,0-.92-.39,1.32,1.32,0,0,0-1,.41,1.91,1.91,0,0,0-.49,1.06Z"/><path class="cls-6" d="M180.88,273.8a.51.51,0,0,1-.38-.16.49.49,0,0,1-.16-.38.53.53,0,0,1,.16-.39.51.51,0,0,1,.38-.16.5.5,0,0,1,.39.16.54.54,0,0,1,.17.39.56.56,0,0,1-.56.54Z"/><path class="cls-6" d="M182.47,273.52v-.86a2.4,2.4,0,0,0,1.44.48c.7,0,1.06-.23,1.06-.7a.53.53,0,0,0-.1-.34.81.81,0,0,0-.24-.25,2,2,0,0,0-.36-.19l-.45-.18c-.22-.09-.41-.18-.58-.27a1.74,1.74,0,0,1-.42-.3,1,1,0,0,1-.25-.38,1.28,1.28,0,0,1-.09-.5,1.18,1.18,0,0,1,.16-.63,1.42,1.42,0,0,1,.43-.45,2.28,2.28,0,0,1,.61-.28,2.82,2.82,0,0,1,.71-.09,3.09,3.09,0,0,1,1.17.22v.82a2.2,2.2,0,0,0-1.27-.37,1.31,1.31,0,0,0-.41.06,1,1,0,0,0-.31.14.7.7,0,0,0-.2.22.57.57,0,0,0-.07.29.61.61,0,0,0,.07.32.79.79,0,0,0,.21.24,1.29,1.29,0,0,0,.33.18l.45.18c.22.09.42.18.59.27a2,2,0,0,1,.45.3,1.24,1.24,0,0,1,.29.39,1.34,1.34,0,0,1,.1.52,1.2,1.2,0,0,1-.17.64,1.35,1.35,0,0,1-.43.46,2.22,2.22,0,0,1-.63.27,3.08,3.08,0,0,1-.75.08A2.82,2.82,0,0,1,182.47,273.52Z"/><path class="cls-6" d="M187.29,273.8a.52.52,0,0,1-.38-.16.53.53,0,0,1-.16-.38.57.57,0,0,1,.16-.39.52.52,0,0,1,.38-.16.54.54,0,0,1,.4.16.57.57,0,0,1,.16.39.53.53,0,0,1-.16.38A.54.54,0,0,1,187.29,273.8Z"/><text class="cls-7" transform="translate(114.32 116.77)"><tspan class="cls-8">V</tspan><tspan x="7.58" y="0">rai/</tspan><tspan class="cls-9" x="27.54" y="0">F</tspan><tspan x="33.43" y="0">aux</tspan></text><line class="cls-10" x1="54" x2="54" y2="36"/><line class="cls-10" y1="54" x2="36" y2="54"/><line class="cls-10" y1="307.96" x2="36" y2="307.96"/><line class="cls-10" x1="54" y1="361.96" x2="54" y2="325.96"/><line class="cls-10" x1="236.83" x2="236.83" y2="36"/><line class="cls-10" x1="290.83" y1="54" x2="254.83" y2="54"/><line class="cls-10" x1="290.83" y1="307.96" x2="254.83" y2="307.96"/><line class="cls-10" x1="236.83" y1="361.96" x2="236.83" y2="325.96"/></svg>