<svg id="Calque_1" data-name="Calque 1" xmlns="http://www.w3.org/2000/svg" viewBox="0 0 290.83 361.96"><defs><style>.cls-1,.cls-8{fill:#f9b233;}.cls-2,.cls-3,.cls-4{fill:#fff;}.cls-3{font-size:19.62px;font-family:TwCenMT-CondensedExtraBold, Tw Cen MT Condensed Extra Bold;font-weight:800;}.cls-4{stroke:#fff;stroke-miterlimit:10;stroke-width:0.25px;}.cls-5{opacity:0.4;}.cls-6{font-size:10px;fill:#000100;font-family:SegoeUI, Segoe UI;}.cls-7{letter-spacing:-0.03em;}.cls-8{font-size:12px;font-family:SegoeUI-Bold, Segoe UI;font-weight:700;}.cls-9{fill:none;stroke:#000;stroke-width:0.3px;}</style></defs><title>Carte_jaune_4</title><path class="cls-1" d="M65.53,39.25H225.31a22.09,22.09,0,0,1,22.14,22.14V300.57a22.1,22.1,0,0,1-22.14,22.14H65.53a22.1,22.1,0,0,1-22.15-22.14V61.39A22.09,22.09,0,0,1,65.53,39.25Z"/><path class="cls-2" d="M77.65,95.37h136a17,17,0,0,1,17,17V279.58a17,17,0,0,1-17,17.05h-136a17,17,0,0,1-17-17.05V112.42A17,17,0,0,1,77.65,95.37Z"/><text class="cls-3" transform="translate(87.72 80.93)"><tspan xml:space="preserve">Escape the   ab</tspan></text><path class="cls-4" d="M178,63.31l-6.4,0a.76.76,0,0,0-.55.23.72.72,0,0,0-.22.55.78.78,0,0,0,.69.77l.1,13.28a3.29,3.29,0,1,0,6.58,0l-.1-13.29a.73.73,0,0,0,.46-.23.75.75,0,0,0,.23-.55.79.79,0,0,0-.79-.77Zm.27.78a.25.25,0,0,1-.08.18.23.23,0,0,1-.18.08h-.23l-3.92,0a.26.26,0,0,0-.26.26.26.26,0,0,0,.26.26l3.72,0,.1,13.28a2.7,2.7,0,0,1-.79,2,2.77,2.77,0,0,1-4.75-1.92L172,64.91h.78a.26.26,0,1,0,0-.52h-1.21a.27.27,0,0,1-.19-.08.3.3,0,0,1-.08-.18.27.27,0,0,1,.08-.19.24.24,0,0,1,.18-.07l6.41-.05a.26.26,0,0,1,.26.26Z"/><path class="cls-4" d="M176.83,71.19a1,1,0,0,0-.64.23.57.57,0,0,1-.35.13.5.5,0,0,1-.35-.13,1.07,1.07,0,0,0-1.29,0,.54.54,0,0,1-.35.13.55.55,0,0,1-.35-.12,1,1,0,0,0-.65-.22.23.23,0,0,0-.18.08.25.25,0,0,0-.08.18l0,2.84a.26.26,0,0,0,.27.25.25.25,0,0,0,.25-.26l0-2.5.09,0a1,1,0,0,0,.65.22,1.07,1.07,0,0,0,.65-.22.49.49,0,0,1,.34-.13.45.45,0,0,1,.35.12,1,1,0,0,0,.65.21,1.07,1.07,0,0,0,.65-.22l.09-.06,0,6.38a1.69,1.69,0,0,1-.49,1.22,1.73,1.73,0,0,1-3-1.2l0-2.83a.26.26,0,0,0-.52,0l0,2.84a2.26,2.26,0,0,0,3.86,1.56,2.23,2.23,0,0,0,.64-1.6l0-6.68a.27.27,0,0,0-.25-.28Z"/><path class="cls-4" d="M175.54,67a.27.27,0,0,0,.27.26.26.26,0,0,1,.26.26.27.27,0,0,1-.08.18.25.25,0,0,1-.18.08.26.26,0,0,1-.26-.26.26.26,0,0,0-.26-.26.26.26,0,0,0-.26.26.78.78,0,0,0,.78.78.8.8,0,0,0,.55-.24.75.75,0,0,0,.23-.55.79.79,0,0,0-.79-.77.26.26,0,0,0-.26.26Z"/><path class="cls-4" d="M174.39,70.12a.82.82,0,0,0,.22-.56.78.78,0,0,0-.23-.55.82.82,0,0,0-.55-.22.26.26,0,1,0,0,.52.27.27,0,0,1,.18.07.27.27,0,0,1,.08.19.24.24,0,0,1-.07.18.27.27,0,0,1-.19.08.27.27,0,0,1-.18-.08.23.23,0,0,1-.08-.18.26.26,0,0,0-.26-.26.27.27,0,0,0-.26.27.79.79,0,0,0,.79.77.81.81,0,0,0,.55-.23Z"/><g class="cls-5"><path class="cls-1" d="M118.9,167.18a22.72,22.72,0,0,1,45.44,0v37.43h15.18V167.18a37.9,37.9,0,1,0-75.79,0"/><path class="cls-1" d="M103.73,167.18"/><path class="cls-1" d="M154.2,226.46a12.52,12.52,0,1,1-12.52-12.52,12.51,12.51,0,0,1,12.52,12.52"/><path class="cls-1" d="M112,226.33a29.51,29.51,0,1,1,29.51,29.51A29.55,29.55,0,0,1,112,226.33m-15.18,0a44.69,44.69,0,1,0,44.69-44.69,44.74,44.74,0,0,0-44.69,44.69"/><line class="cls-1" x1="103.73" y1="167.18" x2="118.9" y2="167.18"/></g><text class="cls-6" transform="translate(69.82 137.72)">La Suisse a adopté une stratégie <tspan x="0" y="12">nationale d&apos;accès libre pour les </tspan><tspan x="0" y="24">publications scientifiques. Elle </tspan><tspan x="0" y="36">vise 100% d&apos;Open Access en : </tspan><tspan x="0" y="51">A) 2020</tspan><tspan x="0" y="66">B) 2024</tspan><tspan x="0" y="81">C) 2034</tspan><tspan class="cls-7" x="0" y="117">R</tspan><tspan x="5.69" y="117">éponse : B</tspan></text><text class="cls-8" transform="translate(100.46 116.96)">Choix multiple</text><line class="cls-9" x1="54" x2="54" y2="36"/><line class="cls-9" y1="54" x2="36" y2="54"/><line class="cls-9" y1="307.96" x2="36" y2="307.96"/><line class="cls-9" x1="54" y1="361.96" x2="54" y2="325.96"/><line class="cls-9" x1="236.83" x2="236.83" y2="36"/><line class="cls-9" x1="290.83" y1="54" x2="254.83" y2="54"/><line class="cls-9" x1="290.83" y1="307.96" x2="254.83" y2="307.96"/><line class="cls-9" x1="236.83" y1="361.96" x2="236.83" y2="325.96"/></svg>