<svg id="Calque_1" data-name="Calque 1" xmlns="http://www.w3.org/2000/svg" viewBox="0 0 291.06 362.12"><defs><style>.cls-1,.cls-9{fill:#009741;}.cls-2,.cls-3,.cls-4{fill:#fff;}.cls-3{font-size:19.62px;font-family:TwCenMT-CondensedExtraBold, Tw Cen MT Condensed Extra Bold;font-weight:800;}.cls-4{stroke:#fff;stroke-miterlimit:10;stroke-width:0.25px;}.cls-5{opacity:0.2;}.cls-6{font-size:10px;fill:#000100;font-family:SegoeUI, Segoe UI;}.cls-7{letter-spacing:-0.03em;}.cls-8{letter-spacing:-0.04em;}.cls-9{font-size:12px;font-family:SegoeUI-Bold, Segoe UI;font-weight:700;}.cls-10{letter-spacing:-0.04em;}.cls-11{letter-spacing:-0.03em;}.cls-12{fill:none;stroke:#000;stroke-width:0.3px;}</style></defs><title>Carte_verte_19</title><path class="cls-1" d="M65.54,39.5l159.68-.17a22.08,22.08,0,0,1,22.16,22.1l.25,239a22.08,22.08,0,0,1-22.1,22.16l-159.69.17a22.08,22.08,0,0,1-22.15-22.11l-.26-239A22.08,22.08,0,0,1,65.54,39.5Z"/><path class="cls-2" d="M77.67,95.87l136-.15a17,17,0,0,1,17,17l.18,167.17a17,17,0,0,1-17,17.06l-136,.15a17,17,0,0,1-17-17l-.18-167.16A17,17,0,0,1,77.67,95.87Z"/><text class="cls-3" transform="matrix(1, 0, 0, 1, 86.17, 81.26)"><tspan xml:space="preserve">Escape the   ab</tspan></text><path class="cls-4" d="M176.47,63.64l-6.4,0a.76.76,0,0,0-.55.24.75.75,0,0,0-.23.55.82.82,0,0,0,.24.55.8.8,0,0,0,.46.22l.12,13.28a3.29,3.29,0,0,0,6.58-.06l-.12-13.28A.73.73,0,0,0,177,65a.76.76,0,0,0,.23-.55.78.78,0,0,0-.79-.77Zm.27.77a.27.27,0,0,1-.08.19.3.3,0,0,1-.18.08h-.23l-3.92,0a.26.26,0,1,0,0,.52l3.72,0,.12,13.28a2.77,2.77,0,0,1-5.54,0l-.12-13.29h.78a.26.26,0,0,0,.26-.26.26.26,0,0,0-.26-.26l-1,0h-.22a.26.26,0,0,1-.19-.07.27.27,0,0,1-.08-.19.27.27,0,0,1,.26-.26l6.41,0a.25.25,0,0,1,.26.25Z"/><path class="cls-4" d="M175.33,71.52a1,1,0,0,0-.65.23.55.55,0,0,1-.34.13.5.5,0,0,1-.35-.13,1.09,1.09,0,0,0-1.3,0,.5.5,0,0,1-.35.13.53.53,0,0,1-.35-.12,1,1,0,0,0-.64-.21.26.26,0,0,0-.19.07.32.32,0,0,0-.07.19l0,2.83a.27.27,0,0,0,.27.26.26.26,0,0,0,.25-.26l0-2.51.09.06a1.08,1.08,0,0,0,.65.21,1,1,0,0,0,.64-.22.52.52,0,0,1,.35-.13.5.5,0,0,1,.35.12,1.07,1.07,0,0,0,1.29,0l.09-.06.06,6.38a1.74,1.74,0,0,1-1.72,1.74,1.73,1.73,0,0,1-1.74-1.71l0-2.84a.25.25,0,0,0-.26-.25.26.26,0,0,0-.26.26l0,2.83a2.25,2.25,0,0,0,2.27,2.23,2.19,2.19,0,0,0,1.58-.67,2.28,2.28,0,0,0,.65-1.6l-.06-6.68a.26.26,0,0,0-.25-.28Z"/><path class="cls-4" d="M174,67.29a.26.26,0,0,0,.26.26.26.26,0,0,1,.26.26.29.29,0,0,1-.07.18.27.27,0,0,1-.19.08.26.26,0,0,1-.26-.26.26.26,0,0,0-.52,0,.8.8,0,0,0,.79.78.78.78,0,1,0,0-1.56.26.26,0,0,0-.25.26Z"/><path class="cls-4" d="M172.88,70.45a.78.78,0,0,0,.23-.55.8.8,0,0,0-.24-.55.75.75,0,0,0-.55-.23.27.27,0,0,0-.26.27.26.26,0,0,0,.27.25.27.27,0,0,1,.18.08.26.26,0,0,1-.18.44.24.24,0,0,1-.18-.07.27.27,0,0,1-.08-.19.26.26,0,0,0-.52,0,.77.77,0,0,0,.78.77.75.75,0,0,0,.55-.23Z"/><g class="cls-5"><path class="cls-1" d="M119,165.76a22.72,22.72,0,0,1,45.43,0l0,37.44,15.18,0,0-37.43a37.9,37.9,0,1,0-75.79.08"/><path class="cls-1" d="M103.81,165.78"/><path class="cls-1" d="M154.35,225a12.52,12.52,0,1,1-12.54-12.51A12.52,12.52,0,0,1,154.35,225"/><path class="cls-1" d="M112.17,224.92a29.51,29.51,0,1,1,29.54,29.48,29.55,29.55,0,0,1-29.54-29.48m-15.17,0a44.69,44.69,0,1,0,44.63-44.73A44.73,44.73,0,0,0,97,224.93"/><line class="cls-1" x1="103.81" y1="165.78" x2="118.99" y2="165.76"/></g><text class="cls-6" transform="matrix(1, 0, 0, 1, 69.31, 137.24)"><tspan xml:space="preserve">Certains éditeurs demandent  la </tspan><tspan x="0" y="12">publication des données liées à un </tspan><tspan x="0" y="24">article en même temps que </tspan><tspan x="0" y="36">l’article lui-même.</tspan><tspan class="cls-7" x="0" y="72">R</tspan><tspan x="5.69" y="72">éponse : </tspan><tspan class="cls-8" x="45.43" y="72">V</tspan><tspan x="51.27" y="72">rai</tspan><tspan x="0" y="87">C&apos;est de plus en plus fréquent</tspan></text><text class="cls-9" transform="matrix(1, 0, 0, 1, 113.69, 116.64)"><tspan class="cls-10">V</tspan><tspan x="7.58" y="0">rai/</tspan><tspan class="cls-11" x="27.54" y="0">F</tspan><tspan x="33.43" y="0">aux</tspan></text><line class="cls-12" x1="54" x2="54" y2="36"/><line class="cls-12" y1="54" x2="36" y2="54"/><line class="cls-12" y1="308.12" x2="36" y2="308.12"/><line class="cls-12" x1="54" y1="362.12" x2="54" y2="326.12"/><line class="cls-12" x1="237.06" x2="237.06" y2="36"/><line class="cls-12" x1="291.06" y1="54" x2="255.06" y2="54"/><line class="cls-12" x1="291.06" y1="308.12" x2="255.06" y2="308.12"/><line class="cls-12" x1="237.06" y1="362.12" x2="237.06" y2="326.12"/></svg>