<svg id="Calque_1" data-name="Calque 1" xmlns="http://www.w3.org/2000/svg" viewBox="0 0 290.83 361.96"><defs><style>.cls-1,.cls-9{fill:#e20717;}.cls-2,.cls-4,.cls-5{fill:#fff;}.cls-3{opacity:0.2;}.cls-4{font-size:19.62px;font-family:TwCenMT-CondensedExtraBold, Tw Cen MT Condensed Extra Bold;font-weight:800;}.cls-5{stroke:#fff;stroke-miterlimit:10;stroke-width:0.25px;}.cls-6{font-size:10px;fill:#000100;font-family:SegoeUI, Segoe UI;}.cls-7{letter-spacing:-0.03em;}.cls-8{letter-spacing:-0.03em;}.cls-9{font-size:12px;font-family:SegoeUI-Bold, Segoe UI;font-weight:700;}.cls-10{letter-spacing:-0.04em;}.cls-11{letter-spacing:-0.03em;}.cls-12{fill:none;stroke:#000;stroke-width:0.3px;}</style></defs><title>Carte_rouge_41</title><rect class="cls-1" x="43.38" y="39.25" width="204.07" height="283.46" rx="22.14"/><path class="cls-2" d="M76.05,95.37h136a17,17,0,0,1,17,17V279.58a17,17,0,0,1-17,17.05h-136a17,17,0,0,1-17-17.05V112.42A17,17,0,0,1,76.05,95.37Z"/><g class="cls-3"><path class="cls-1" d="M120.25,167.18a22.72,22.72,0,1,1,45.44,0v37.43h15.17V167.18a37.9,37.9,0,1,0-75.79,0"/><path class="cls-1" d="M105.07,167.18"/><path class="cls-1" d="M155.55,226.46A12.52,12.52,0,1,1,143,213.94a12.52,12.52,0,0,1,12.52,12.52"/><path class="cls-1" d="M113.37,226.33a29.51,29.51,0,1,1,29.51,29.51,29.55,29.55,0,0,1-29.51-29.51m-15.17,0a44.69,44.69,0,1,0,44.68-44.69A44.73,44.73,0,0,0,98.2,226.33"/><line class="cls-1" x1="105.07" y1="167.18" x2="120.25" y2="167.18"/></g><text class="cls-4" transform="translate(87.34 80.89)"><tspan xml:space="preserve">Escape the   ab</tspan></text><path class="cls-5" d="M177.61,63.27l-6.41,0a.82.82,0,0,0-.55.24.78.78,0,0,0-.22.55.76.76,0,0,0,.23.55.82.82,0,0,0,.47.22l.1,13.28a3.28,3.28,0,0,0,3.31,3.26,3.23,3.23,0,0,0,2.32-1,3.27,3.27,0,0,0,.95-2.33l-.1-13.28a.78.78,0,0,0,.46-.23.8.8,0,0,0,.22-.55.78.78,0,0,0-.78-.78Zm.26.78a.26.26,0,0,1-.07.19.26.26,0,0,1-.18.07h-.24l-3.92,0a.26.26,0,0,0-.26.26.25.25,0,0,0,.26.25l3.73,0,.1,13.28a2.77,2.77,0,1,1-5.54,0l-.1-13.28h.78a.26.26,0,0,0,.25-.27.25.25,0,0,0-.26-.25h-1.21a.24.24,0,0,1-.18-.07.27.27,0,0,1-.08-.19.31.31,0,0,1,.07-.18.27.27,0,0,1,.19-.08l6.4-.05a.26.26,0,0,1,.26.26Z"/><path class="cls-5" d="M176.46,71.16a1,1,0,0,0-.65.22.5.5,0,0,1-.35.13.53.53,0,0,1-.35-.12,1,1,0,0,0-.65-.22,1,1,0,0,0-.64.23.5.5,0,0,1-.35.13.52.52,0,0,1-.35-.13,1.05,1.05,0,0,0-.65-.21.27.27,0,0,0-.18.08.23.23,0,0,0-.07.18l0,2.83a.26.26,0,0,0,.26.26.26.26,0,0,0,.26-.26l0-2.51.09.06a1,1,0,0,0,.65.22,1.07,1.07,0,0,0,.64-.23.54.54,0,0,1,.7,0,1.05,1.05,0,0,0,.65.21,1,1,0,0,0,.64-.22.24.24,0,0,1,.09-.06l.05,6.37a1.72,1.72,0,0,1-.5,1.23,1.73,1.73,0,0,1-3-1.2l0-2.83a.27.27,0,0,0-.27-.26.25.25,0,0,0-.25.26l0,2.83a2.25,2.25,0,0,0,4.5,0l-.05-6.69a.26.26,0,0,0-.25-.27Z"/><path class="cls-5" d="M175.17,66.93a.25.25,0,0,0,.26.25.26.26,0,1,1,0,.52.26.26,0,0,1-.26-.25.26.26,0,0,0-.26-.26.26.26,0,0,0-.26.26.78.78,0,0,0,.79.77A.76.76,0,0,0,176,68a.8.8,0,0,0,.22-.55.78.78,0,0,0-.78-.78.27.27,0,0,0-.26.27Z"/><path class="cls-5" d="M174,70.08a.76.76,0,0,0,.23-.55A.82.82,0,0,0,174,69a.78.78,0,0,0-.55-.22.26.26,0,1,0,0,.52.26.26,0,0,1,.18.07.25.25,0,0,1,.08.18.27.27,0,0,1-.08.19.25.25,0,0,1-.18.08.27.27,0,0,1-.19-.08.29.29,0,0,1-.07-.18.26.26,0,1,0-.52,0,.78.78,0,0,0,.78.78.8.8,0,0,0,.55-.24Z"/><text class="cls-6" transform="translate(62.71 137.57)">Un.e chercheur.euse de l&apos;Université <tspan x="0" y="12">peut refuser de déposer une copie </tspan><tspan x="0" y="24">de ses publications dans l&apos;Archive </tspan><tspan x="0" y="36">ouverte UNIGE afin de respecter les </tspan><tspan x="0" y="48">droits des éditeurs.</tspan><tspan class="cls-7" x="0" y="72">R</tspan><tspan x="5.69" y="72">éponse : </tspan><tspan class="cls-8" x="45.43" y="72">F</tspan><tspan x="49.98" y="72">aux</tspan><tspan x="0" y="87" xml:space="preserve">Les collaborateurs/trices  ont l&apos;obli</tspan><tspan x="151.33" y="87">-</tspan><tspan x="0" y="99">gation de déposer une copie de </tspan><tspan x="0" y="111">leurs publications, même si ces </tspan><tspan x="0" y="123">documents ne peuvent pas être </tspan><tspan x="0" y="135">diffusés.</tspan></text><text class="cls-9" transform="translate(116.44 117.11)"><tspan class="cls-10">V</tspan><tspan x="7.58" y="0">rai/</tspan><tspan class="cls-11" x="27.54" y="0">F</tspan><tspan x="33.43" y="0">aux</tspan></text><line class="cls-12" x1="54" x2="54" y2="36"/><line class="cls-12" y1="54" x2="36" y2="54"/><line class="cls-12" y1="307.96" x2="36" y2="307.96"/><line class="cls-12" x1="54" y1="361.96" x2="54" y2="325.96"/><line class="cls-12" x1="236.83" x2="236.83" y2="36"/><line class="cls-12" x1="290.83" y1="54" x2="254.83" y2="54"/><line class="cls-12" x1="290.83" y1="307.96" x2="254.83" y2="307.96"/><line class="cls-12" x1="236.83" y1="361.96" x2="236.83" y2="325.96"/></svg>