<svg id="Calque_1" data-name="Calque 1" xmlns="http://www.w3.org/2000/svg" viewBox="0 0 290.83 361.96"><defs><style>.cls-1,.cls-7{fill:#302d7e;}.cls-2,.cls-3,.cls-4{fill:#fff;}.cls-3{font-size:19.62px;font-family:TwCenMT-CondensedExtraBold, Tw Cen MT Condensed Extra Bold;font-weight:800;}.cls-4{stroke:#fff;stroke-miterlimit:10;stroke-width:0.25px;}.cls-5{opacity:0.2;}.cls-6{fill:#000100;}.cls-7{font-size:12px;font-family:SegoeUI-Bold, Segoe UI;font-weight:700;}.cls-8{fill:none;stroke:#000;stroke-width:0.3px;}</style></defs><title>Carte_bleue_36</title><path class="cls-1" d="M65.52,39.25H225.31a22.09,22.09,0,0,1,22.14,22.14V300.57a22.1,22.1,0,0,1-22.14,22.14H65.52a22.1,22.1,0,0,1-22.14-22.14V61.39A22.09,22.09,0,0,1,65.52,39.25Z"/><path class="cls-2" d="M77.4,95.37h136a17,17,0,0,1,17,17V279.58a17,17,0,0,1-17,17.05H77.4a17,17,0,0,1-17-17.05V112.42A17,17,0,0,1,77.4,95.37Z"/><text class="cls-3" transform="translate(87.84 81.21)"><tspan xml:space="preserve">Escape the   ab</tspan></text><path class="cls-4" d="M178.11,63.59l-6.41,0a.81.81,0,0,0-.55.23.82.82,0,0,0-.22.56.78.78,0,0,0,.23.55.82.82,0,0,0,.47.22l.1,13.28A3.28,3.28,0,0,0,175,81.74a3.23,3.23,0,0,0,2.32-1,3.27,3.27,0,0,0,.95-2.33l-.1-13.28a.84.84,0,0,0,.46-.23.82.82,0,0,0,.22-.55.78.78,0,0,0-.78-.78Zm.26.78a.23.23,0,0,1-.07.18.27.27,0,0,1-.18.08h-.24l-3.92,0a.27.27,0,0,0-.26.27.26.26,0,0,0,.26.25l3.73,0,.1,13.28a2.79,2.79,0,0,1-.8,2,2.71,2.71,0,0,1-2,.82,2.76,2.76,0,0,1-2.79-2.74l-.1-13.29h.78a.25.25,0,0,0,.25-.26.26.26,0,0,0-.26-.26l-1,0h-.23a.29.29,0,0,1-.18-.07.27.27,0,0,1-.08-.19.24.24,0,0,1,.07-.18.27.27,0,0,1,.19-.08l6.4,0a.26.26,0,0,1,.26.26Z"/><path class="cls-4" d="M177,71.48a1,1,0,0,0-.65.22.5.5,0,0,1-.35.13.59.59,0,0,1-.35-.12,1,1,0,0,0-.65-.22,1,1,0,0,0-.64.23.5.5,0,0,1-.35.12.47.47,0,0,1-.35-.12,1,1,0,0,0-.65-.21.24.24,0,0,0-.18.07.26.26,0,0,0-.07.19l0,2.83a.26.26,0,1,0,.52,0l0-2.51.09.06a1,1,0,0,0,.65.21,1,1,0,0,0,.64-.22A.5.5,0,0,1,175,72a.57.57,0,0,1,.35.12,1,1,0,0,0,.65.22,1,1,0,0,0,.64-.23l.09-.06.05,6.38a1.72,1.72,0,0,1-.5,1.23,1.73,1.73,0,0,1-3-1.2l0-2.84a.26.26,0,1,0-.51,0l0,2.83A2.24,2.24,0,0,0,175,80.7a2.22,2.22,0,0,0,1.59-.67,2.26,2.26,0,0,0,.65-1.59l-.05-6.69a.26.26,0,0,0-.25-.27Z"/><path class="cls-4" d="M175.67,67.24a.26.26,0,0,0,.26.26.26.26,0,0,1,.26.26.24.24,0,0,1-.07.18.27.27,0,0,1-.19.08.26.26,0,0,1-.26-.26.26.26,0,0,0-.52,0,.79.79,0,0,0,.79.77.76.76,0,0,0,.55-.23.82.82,0,0,0,.22-.55.78.78,0,0,0-.78-.78.26.26,0,0,0-.26.26Z"/><path class="cls-4" d="M174.51,70.4a.76.76,0,0,0,.23-.55.82.82,0,0,0-.24-.55.7.7,0,0,0-.55-.22.26.26,0,0,0-.26.26.25.25,0,0,0,.26.25.27.27,0,0,1,.19.08.25.25,0,0,1,.08.18.27.27,0,0,1-.08.19.24.24,0,0,1-.18.07.26.26,0,0,1-.19-.07.29.29,0,0,1-.07-.18.26.26,0,1,0-.52,0,.77.77,0,0,0,.78.77.75.75,0,0,0,.55-.23Z"/><g class="cls-5"><path class="cls-1" d="M120.27,165.65a22.72,22.72,0,0,1,45.44,0v37.44h15.17V165.65a37.9,37.9,0,0,0-75.79,0"/><path class="cls-1" d="M105.09,165.65"/><path class="cls-1" d="M155.57,224.94a12.52,12.52,0,1,1-12.52-12.52,12.52,12.52,0,0,1,12.52,12.52"/><path class="cls-1" d="M113.39,224.81a29.51,29.51,0,1,1,29.51,29.51,29.55,29.55,0,0,1-29.51-29.51m-15.17,0a44.69,44.69,0,1,0,44.68-44.69,44.73,44.73,0,0,0-44.68,44.69"/><line class="cls-1" x1="105.09" y1="165.65" x2="120.27" y2="165.65"/></g><path class="cls-6" d="M76.46,129.19l-2.59,7H73l-2.54-7h.91l1.94,5.55a3.17,3.17,0,0,1,.14.62h0a2.65,2.65,0,0,1,.16-.63l2-5.54Z"/><path class="cls-6" d="M78.81,136.31A2.34,2.34,0,0,1,77,135.6a2.57,2.57,0,0,1-.66-1.85,2.7,2.7,0,0,1,.69-2,2.49,2.49,0,0,1,1.86-.71,2.25,2.25,0,0,1,1.75.69,2.71,2.71,0,0,1,.62,1.91,2.67,2.67,0,0,1-.67,1.91A2.39,2.39,0,0,1,78.81,136.31Zm.06-4.57a1.53,1.53,0,0,0-1.22.53,2.15,2.15,0,0,0-.45,1.45,2,2,0,0,0,.46,1.4,1.54,1.54,0,0,0,1.21.51,1.49,1.49,0,0,0,1.2-.5,2.18,2.18,0,0,0,.41-1.43,2.22,2.22,0,0,0-.41-1.45A1.47,1.47,0,0,0,78.87,131.74Z"/><path class="cls-6" d="M86.63,136.19h-.8v-.79h0a1.67,1.67,0,0,1-1.55.91c-1.19,0-1.78-.71-1.78-2.13v-3h.79v2.86c0,1,.41,1.58,1.21,1.58a1.23,1.23,0,0,0,1-.43,1.68,1.68,0,0,0,.38-1.13v-2.88h.8Z"/><path class="cls-6" d="M87.94,136v-.86a2.4,2.4,0,0,0,1.44.48c.7,0,1.06-.23,1.06-.7a.59.59,0,0,0-.09-.34,1,1,0,0,0-.25-.25,2,2,0,0,0-.36-.19l-.45-.18c-.22-.09-.41-.18-.58-.27a1.51,1.51,0,0,1-.42-.3A1,1,0,0,1,88,133a1.28,1.28,0,0,1-.09-.5,1.18,1.18,0,0,1,.16-.63,1.42,1.42,0,0,1,.43-.45,2.28,2.28,0,0,1,.61-.28,2.82,2.82,0,0,1,.71-.09,2.91,2.91,0,0,1,1.17.23v.81a2.28,2.28,0,0,0-1.27-.37,1.31,1.31,0,0,0-.41.06,1,1,0,0,0-.31.14.83.83,0,0,0-.2.22.57.57,0,0,0-.07.29.61.61,0,0,0,.07.32.79.79,0,0,0,.21.24,1.29,1.29,0,0,0,.33.18l.45.19a4.72,4.72,0,0,1,.59.26,2,2,0,0,1,.45.3,1.24,1.24,0,0,1,.29.39,1.34,1.34,0,0,1,.1.52,1.2,1.2,0,0,1-.17.64,1.35,1.35,0,0,1-.43.46,2.22,2.22,0,0,1-.63.27,3.08,3.08,0,0,1-.75.09A2.82,2.82,0,0,1,87.94,136Z"/><path class="cls-6" d="M98.8,136.19H98v-.78h0a1.81,1.81,0,0,1-2.7.5,1.37,1.37,0,0,1-.43-1c0-.93.55-1.48,1.66-1.63L98,133c0-.85-.34-1.28-1-1.28a2.48,2.48,0,0,0-1.63.62v-.82a3.12,3.12,0,0,1,1.7-.47c1.18,0,1.76.62,1.76,1.87Zm-.8-2.53-1.2.16a2.11,2.11,0,0,0-.84.28.8.8,0,0,0-.29.7.76.76,0,0,0,.27.6,1,1,0,0,0,.69.23,1.29,1.29,0,0,0,1-.42,1.5,1.5,0,0,0,.38-1.05Z"/><path class="cls-6" d="M104.24,131.19l-2,5h-.78l-1.9-5h.88l1.27,3.63a4.26,4.26,0,0,1,.18.7h0a3.25,3.25,0,0,1,.15-.68l1.33-3.65Z"/><path class="cls-6" d="M109.12,133.89h-3.53a1.92,1.92,0,0,0,.45,1.29,1.56,1.56,0,0,0,1.18.45,2.43,2.43,0,0,0,1.56-.56v.76a2.9,2.9,0,0,1-1.75.48,2.09,2.09,0,0,1-1.66-.69,3.18,3.18,0,0,1,0-3.81,2.13,2.13,0,0,1,1.65-.74,1.87,1.87,0,0,1,1.52.64,2.68,2.68,0,0,1,.53,1.76Zm-.82-.68a1.62,1.62,0,0,0-.33-1.08,1.14,1.14,0,0,0-.92-.39,1.28,1.28,0,0,0-1,.41,1.84,1.84,0,0,0-.49,1.06Z"/><path class="cls-6" d="M113.82,131.42l-3,4.08h2.93v.69h-4.11v-.25l3-4.07H110v-.68h3.86Z"/><path class="cls-6" d="M121,136a2.6,2.6,0,0,1-1.36.35,2.28,2.28,0,0,1-1.73-.7,2.51,2.51,0,0,1-.66-1.8,2.78,2.78,0,0,1,.71-2,2.47,2.47,0,0,1,1.89-.75,2.64,2.64,0,0,1,1.16.24v.83a2,2,0,0,0-1.19-.4,1.64,1.64,0,0,0-1.26.55,2.14,2.14,0,0,0-.49,1.45,2,2,0,0,0,.46,1.38,1.59,1.59,0,0,0,1.24.51,2,2,0,0,0,1.23-.43Z"/><path class="cls-6" d="M124.3,136.31a2.31,2.31,0,0,1-1.77-.71,2.57,2.57,0,0,1-.66-1.85,2.7,2.7,0,0,1,.69-2,2.49,2.49,0,0,1,1.86-.71,2.25,2.25,0,0,1,1.75.69,2.76,2.76,0,0,1,.62,1.91,2.67,2.67,0,0,1-.67,1.91A2.39,2.39,0,0,1,124.3,136.31Zm.06-4.57a1.53,1.53,0,0,0-1.22.53,2.15,2.15,0,0,0-.45,1.45,2,2,0,0,0,.46,1.4,1.53,1.53,0,0,0,1.21.51,1.49,1.49,0,0,0,1.2-.5,2.23,2.23,0,0,0,.41-1.43,2.28,2.28,0,0,0-.41-1.45A1.47,1.47,0,0,0,124.36,131.74Z"/><path class="cls-6" d="M132.22,136.19h-.8v-2.85c0-1.06-.39-1.6-1.16-1.6a1.23,1.23,0,0,0-1,.46,1.64,1.64,0,0,0-.4,1.14v2.85h-.8v-5h.8V132h0a1.82,1.82,0,0,1,1.64-1,1.55,1.55,0,0,1,1.26.53,2.34,2.34,0,0,1,.43,1.53Z"/><path class="cls-6" d="M137.66,131.19l-2,5h-.79l-1.89-5h.88l1.27,3.63a3.34,3.34,0,0,1,.17.7h0a4,4,0,0,1,.16-.68l1.33-3.65Z"/><path class="cls-6" d="M142.1,136.19h-.8v-.78h0a1.82,1.82,0,0,1-2.71.5,1.36,1.36,0,0,1-.42-1c0-.93.55-1.48,1.65-1.63l1.5-.21c0-.85-.34-1.28-1-1.28a2.46,2.46,0,0,0-1.63.62v-.82a3.12,3.12,0,0,1,1.7-.47c1.17,0,1.76.62,1.76,1.87Zm-.8-2.53-1.21.16a2.11,2.11,0,0,0-.84.28.82.82,0,0,0-.28.7.78.78,0,0,0,.26.6,1.05,1.05,0,0,0,.7.23,1.27,1.27,0,0,0,1-.42,1.47,1.47,0,0,0,.39-1.05Z"/><path class="cls-6" d="M144,129.92a.51.51,0,0,1-.37-.15.53.53,0,0,1,0-.74.51.51,0,0,1,.37-.15.5.5,0,0,1,.37.15.47.47,0,0,1,.16.37.49.49,0,0,1-.16.37A.5.5,0,0,1,144,129.92Zm.39,6.27h-.8v-5h.8Z"/><path class="cls-6" d="M150.18,136.19h-.8v-2.85c0-1.06-.39-1.6-1.16-1.6a1.27,1.27,0,0,0-1,.46,1.68,1.68,0,0,0-.39,1.14v2.85H146v-5h.8V132h0a1.82,1.82,0,0,1,1.64-1,1.55,1.55,0,0,1,1.26.53,2.34,2.34,0,0,1,.43,1.53Z"/><path class="cls-6" d="M155.1,136a2.61,2.61,0,0,1-1.37.35,2.26,2.26,0,0,1-1.72-.7,2.51,2.51,0,0,1-.66-1.8,2.78,2.78,0,0,1,.71-2,2.47,2.47,0,0,1,1.89-.75,2.67,2.67,0,0,1,1.16.24v.83a2,2,0,0,0-1.19-.4,1.64,1.64,0,0,0-1.26.55,2.09,2.09,0,0,0-.49,1.45,2,2,0,0,0,.46,1.38,1.59,1.59,0,0,0,1.24.51,2,2,0,0,0,1.23-.43Z"/><path class="cls-6" d="M160.35,136.19h-.8v-.79h0a1.65,1.65,0,0,1-1.54.91c-1.19,0-1.79-.71-1.79-2.13v-3h.8v2.86c0,1,.4,1.58,1.21,1.58a1.21,1.21,0,0,0,1-.43,1.63,1.63,0,0,0,.38-1.13v-2.88h.8Z"/><path class="cls-6" d="M168.64,131.19l-2,5h-.79l-1.89-5h.87l1.27,3.63a2.89,2.89,0,0,1,.18.7h0a2.71,2.71,0,0,1,.16-.68l1.32-3.65Z"/><path class="cls-6" d="M171.59,136.31a2.31,2.31,0,0,1-1.77-.71,2.57,2.57,0,0,1-.66-1.85,2.74,2.74,0,0,1,.68-2,2.49,2.49,0,0,1,1.87-.71,2.24,2.24,0,0,1,1.74.69,2.72,2.72,0,0,1,.63,1.91,2.67,2.67,0,0,1-.68,1.91A2.36,2.36,0,0,1,171.59,136.31Zm.06-4.57a1.52,1.52,0,0,0-1.22.53,2.15,2.15,0,0,0-.45,1.45,2,2,0,0,0,.45,1.4,1.55,1.55,0,0,0,1.22.51,1.48,1.48,0,0,0,1.19-.5,2.18,2.18,0,0,0,.42-1.43,2.22,2.22,0,0,0-.42-1.45A1.46,1.46,0,0,0,171.65,131.74Z"/><path class="cls-6" d="M175.05,136v-.86a2.4,2.4,0,0,0,1.45.48c.7,0,1.05-.23,1.05-.7a.59.59,0,0,0-.09-.34.94.94,0,0,0-.24-.25,2.55,2.55,0,0,0-.37-.19l-.44-.18c-.22-.09-.42-.18-.59-.27a1.87,1.87,0,0,1-.42-.3,1.19,1.19,0,0,1-.25-.38,1.28,1.28,0,0,1-.09-.5,1.19,1.19,0,0,1,.17-.63,1.32,1.32,0,0,1,.43-.45,2.14,2.14,0,0,1,.61-.28,2.76,2.76,0,0,1,.71-.09,2.86,2.86,0,0,1,1.16.23v.81a2.28,2.28,0,0,0-1.27-.37,1.25,1.25,0,0,0-.4.06.89.89,0,0,0-.31.14.59.59,0,0,0-.2.22.57.57,0,0,0-.08.29.61.61,0,0,0,.08.32.64.64,0,0,0,.2.24,1.36,1.36,0,0,0,.34.18l.44.19a5.68,5.68,0,0,1,.6.26,2.12,2.12,0,0,1,.44.3,1.11,1.11,0,0,1,.29.39,1.18,1.18,0,0,1,.1.52,1.19,1.19,0,0,1-.16.64,1.38,1.38,0,0,1-.44.46,2,2,0,0,1-.63.27,3.08,3.08,0,0,1-.75.09A2.85,2.85,0,0,1,175.05,136Z"/><path class="cls-6" d="M185.75,136a2.63,2.63,0,0,1-1.37.35,2.3,2.3,0,0,1-1.73-.7,2.55,2.55,0,0,1-.65-1.8,2.74,2.74,0,0,1,.71-2,2.47,2.47,0,0,1,1.89-.75,2.67,2.67,0,0,1,1.16.24v.83a2,2,0,0,0-1.19-.4,1.64,1.64,0,0,0-1.26.55,2.09,2.09,0,0,0-.49,1.45,2,2,0,0,0,.46,1.38,1.59,1.59,0,0,0,1.24.51,2,2,0,0,0,1.23-.43Z"/><path class="cls-6" d="M189.05,136.31a2.31,2.31,0,0,1-1.77-.71,2.57,2.57,0,0,1-.66-1.85,2.7,2.7,0,0,1,.69-2,2.46,2.46,0,0,1,1.86-.71,2.24,2.24,0,0,1,1.74.69,2.72,2.72,0,0,1,.63,1.91,2.67,2.67,0,0,1-.68,1.91A2.36,2.36,0,0,1,189.05,136.31Zm.06-4.57a1.52,1.52,0,0,0-1.22.53,2.15,2.15,0,0,0-.45,1.45,2,2,0,0,0,.45,1.4,1.55,1.55,0,0,0,1.22.51,1.47,1.47,0,0,0,1.19-.5,2.18,2.18,0,0,0,.42-1.43,2.22,2.22,0,0,0-.42-1.45A1.45,1.45,0,0,0,189.11,131.74Z"/><path class="cls-6" d="M195.38,133.72h-2.67v-.63h2.67Z"/><path class="cls-6" d="M200.4,136.19h-.8v-.78h0a1.68,1.68,0,0,1-1.54.9,1.66,1.66,0,0,1-1.17-.4,1.36,1.36,0,0,1-.42-1c0-.93.55-1.48,1.65-1.63l1.5-.21c0-.85-.35-1.28-1-1.28a2.49,2.49,0,0,0-1.64.62v-.82a3.15,3.15,0,0,1,1.7-.47c1.18,0,1.77.62,1.77,1.87Zm-.8-2.53-1.21.16a2.11,2.11,0,0,0-.84.28.79.79,0,0,0-.28.7.75.75,0,0,0,.26.6,1,1,0,0,0,.69.23,1.29,1.29,0,0,0,1-.42,1.47,1.47,0,0,0,.39-1.05Z"/><path class="cls-6" d="M206,136.19h-.8v-.79h0a1.66,1.66,0,0,1-1.54.91c-1.2,0-1.79-.71-1.79-2.13v-3h.79v2.86c0,1,.41,1.58,1.21,1.58a1.21,1.21,0,0,0,1-.43,1.68,1.68,0,0,0,.38-1.13v-2.88h.8Z"/><path class="cls-6" d="M210.12,133.72h-2.66v-.63h2.66Z"/><path class="cls-6" d="M73.47,148.14a1.61,1.61,0,0,1-.75.16c-.87,0-1.31-.49-1.31-1.47v-3h-.86v-.68h.86V142l.8-.26v1.48h1.26v.68H72.21v2.82a1.23,1.23,0,0,0,.17.72.68.68,0,0,0,.57.21.85.85,0,0,0,.52-.16Z"/><path class="cls-6" d="M78.56,145.89H75a1.91,1.91,0,0,0,.44,1.29,1.57,1.57,0,0,0,1.19.45,2.41,2.41,0,0,0,1.55-.56v.76a2.89,2.89,0,0,1-1.74.48,2.1,2.1,0,0,1-1.67-.69,2.79,2.79,0,0,1-.6-1.91,2.73,2.73,0,0,1,.66-1.9,2.12,2.12,0,0,1,1.64-.74,1.87,1.87,0,0,1,1.52.64,2.63,2.63,0,0,1,.54,1.76Zm-.82-.68a1.68,1.68,0,0,0-.34-1.08,1.12,1.12,0,0,0-.91-.39,1.32,1.32,0,0,0-1,.41,1.83,1.83,0,0,0-.48,1.06Z"/><path class="cls-6" d="M83.81,148.19H83v-.79h0a1.66,1.66,0,0,1-1.54.91c-1.19,0-1.79-.71-1.79-2.13v-3h.8v2.86c0,1,.4,1.58,1.21,1.58a1.21,1.21,0,0,0,1-.43,1.68,1.68,0,0,0,.38-1.13v-2.88h.8Z"/><path class="cls-6" d="M88,144a1,1,0,0,0-.6-.16,1,1,0,0,0-.86.48,2.23,2.23,0,0,0-.34,1.32v2.55h-.8v-5h.8v1h0a1.64,1.64,0,0,1,.52-.82,1.18,1.18,0,0,1,.78-.3,1.22,1.22,0,0,1,.48.07Z"/><path class="cls-6" d="M88.6,148v-.86a2.4,2.4,0,0,0,1.44.48c.7,0,1-.23,1-.7a.59.59,0,0,0-.09-.34.94.94,0,0,0-.24-.25,2,2,0,0,0-.36-.19L90,146c-.22-.09-.41-.18-.58-.27a1.51,1.51,0,0,1-.42-.3,1,1,0,0,1-.25-.38,1.28,1.28,0,0,1-.09-.5,1.18,1.18,0,0,1,.16-.63,1.42,1.42,0,0,1,.43-.45,2.28,2.28,0,0,1,.61-.28,2.82,2.82,0,0,1,.71-.09,2.91,2.91,0,0,1,1.17.23v.81a2.31,2.31,0,0,0-1.27-.37,1.31,1.31,0,0,0-.41.06,1,1,0,0,0-.31.14.69.69,0,0,0-.2.22.57.57,0,0,0-.07.29.61.61,0,0,0,.07.32.79.79,0,0,0,.21.24,1.29,1.29,0,0,0,.33.18l.44.19a4.9,4.9,0,0,1,.6.26,2,2,0,0,1,.45.3,1.24,1.24,0,0,1,.29.39,1.34,1.34,0,0,1,.1.52,1.2,1.2,0,0,1-.17.64,1.29,1.29,0,0,1-.44.46,2,2,0,0,1-.63.27,2.94,2.94,0,0,1-.74.09A2.82,2.82,0,0,1,88.6,148Z"/><path class="cls-6" d="M100.15,148.19h-.8v-.85h0a2,2,0,0,1-3.22.29,2.7,2.7,0,0,1-.57-1.82,3,3,0,0,1,.63-2,2,2,0,0,1,1.66-.75,1.6,1.6,0,0,1,1.5.81h0v-3.09h.8Zm-.8-2.26v-.74a1.43,1.43,0,0,0-.4-1,1.34,1.34,0,0,0-1-.42,1.39,1.39,0,0,0-1.16.54,2.36,2.36,0,0,0-.42,1.49,2.1,2.1,0,0,0,.41,1.36,1.32,1.32,0,0,0,1.08.5,1.36,1.36,0,0,0,1.08-.48A1.79,1.79,0,0,0,99.35,145.93Z"/><path class="cls-6" d="M102.47,141.19v2.18h-.71v-2.18Z"/><path class="cls-6" d="M106.16,148.31a2.31,2.31,0,0,1-1.77-.71,2.57,2.57,0,0,1-.66-1.85,2.7,2.7,0,0,1,.69-2,2.49,2.49,0,0,1,1.86-.71,2.25,2.25,0,0,1,1.75.69,2.76,2.76,0,0,1,.62,1.91,2.67,2.67,0,0,1-.67,1.91A2.39,2.39,0,0,1,106.16,148.31Zm.06-4.57a1.53,1.53,0,0,0-1.22.53,2.15,2.15,0,0,0-.45,1.45,2,2,0,0,0,.46,1.4,1.53,1.53,0,0,0,1.21.51,1.49,1.49,0,0,0,1.2-.5,2.23,2.23,0,0,0,.41-1.43,2.28,2.28,0,0,0-.41-1.45A1.47,1.47,0,0,0,106.22,143.74Z"/><path class="cls-6" d="M110.75,147.47h0v3h-.8v-7.3h.8v.88h0a1.89,1.89,0,0,1,1.73-1,1.82,1.82,0,0,1,1.51.67,2.8,2.8,0,0,1,.54,1.8,3.07,3.07,0,0,1-.61,2,2,2,0,0,1-1.67.76A1.69,1.69,0,0,1,110.75,147.47Zm0-2v.7a1.49,1.49,0,0,0,.41,1,1.43,1.43,0,0,0,2.16-.13,2.56,2.56,0,0,0,.41-1.54,2,2,0,0,0-.38-1.31,1.28,1.28,0,0,0-1-.48,1.43,1.43,0,0,0-1.12.49A1.75,1.75,0,0,0,110.73,145.45Z"/><path class="cls-6" d="M118.13,148.14a1.61,1.61,0,0,1-.75.16c-.87,0-1.31-.49-1.31-1.47v-3h-.86v-.68h.86V142l.8-.26v1.48h1.26v.68h-1.26v2.82a1.23,1.23,0,0,0,.17.72.71.71,0,0,0,.57.21.83.83,0,0,0,.52-.16Z"/><path class="cls-6" d="M123.22,145.89h-3.53a1.87,1.87,0,0,0,.45,1.29,1.54,1.54,0,0,0,1.18.45,2.41,2.41,0,0,0,1.55-.56v.76a2.89,2.89,0,0,1-1.74.48,2.11,2.11,0,0,1-1.67-.69,2.79,2.79,0,0,1-.6-1.91,2.73,2.73,0,0,1,.66-1.9,2.12,2.12,0,0,1,1.64-.74,1.86,1.86,0,0,1,1.52.64,2.63,2.63,0,0,1,.54,1.76Zm-.82-.68a1.62,1.62,0,0,0-.34-1.08,1.11,1.11,0,0,0-.91-.39,1.28,1.28,0,0,0-1,.41,1.78,1.78,0,0,0-.49,1.06Z"/><path class="cls-6" d="M127,144a1,1,0,0,0-.61-.16,1,1,0,0,0-.86.48,2.3,2.3,0,0,0-.34,1.32v2.55h-.8v-5h.8v1h0a1.71,1.71,0,0,1,.52-.82,1.2,1.2,0,0,1,.79-.3,1.22,1.22,0,0,1,.48.07Z"/><path class="cls-6" d="M131.47,147.47h0v3h-.8v-7.3h.8v.88h0a1.88,1.88,0,0,1,1.73-1,1.81,1.81,0,0,1,1.5.67,2.74,2.74,0,0,1,.55,1.8,3.13,3.13,0,0,1-.61,2,2.06,2.06,0,0,1-1.67.76A1.67,1.67,0,0,1,131.47,147.47Zm0-2v.7a1.48,1.48,0,0,0,.4,1,1.33,1.33,0,0,0,1,.43,1.31,1.31,0,0,0,1.14-.56,2.49,2.49,0,0,0,.42-1.54,2,2,0,0,0-.39-1.31,1.28,1.28,0,0,0-1-.48,1.43,1.43,0,0,0-1.12.49A1.79,1.79,0,0,0,131.45,145.45Z"/><path class="cls-6" d="M138.61,148.31a2.3,2.3,0,0,1-1.76-.71,2.53,2.53,0,0,1-.67-1.85,2.7,2.7,0,0,1,.69-2,2.49,2.49,0,0,1,1.86-.71,2.25,2.25,0,0,1,1.75.69,2.72,2.72,0,0,1,.63,1.91,2.67,2.67,0,0,1-.68,1.91A2.39,2.39,0,0,1,138.61,148.31Zm.06-4.57a1.53,1.53,0,0,0-1.22.53,2.15,2.15,0,0,0-.45,1.45,2,2,0,0,0,.46,1.4,1.54,1.54,0,0,0,1.21.51,1.49,1.49,0,0,0,1.2-.5,2.18,2.18,0,0,0,.41-1.43,2.22,2.22,0,0,0-.41-1.45A1.47,1.47,0,0,0,138.67,143.74Z"/><path class="cls-6" d="M146.43,148.19h-.8v-.79h0a1.66,1.66,0,0,1-1.55.91c-1.19,0-1.78-.71-1.78-2.13v-3h.79v2.86c0,1,.41,1.58,1.21,1.58a1.23,1.23,0,0,0,1-.43,1.68,1.68,0,0,0,.38-1.13v-2.88h.8Z"/><path class="cls-6" d="M150.65,144a1,1,0,0,0-.6-.16,1,1,0,0,0-.86.48,2.22,2.22,0,0,0-.35,1.32v2.55H148v-5h.8v1h0a1.72,1.72,0,0,1,.53-.82,1.16,1.16,0,0,1,.78-.3,1.22,1.22,0,0,1,.48.07Z"/><path class="cls-6" d="M155.06,148.19h-.8v-7.4h.8Z"/><path class="cls-6" d="M160.26,148.19h-.8v-.78h0a1.68,1.68,0,0,1-1.54.9,1.66,1.66,0,0,1-1.17-.4,1.36,1.36,0,0,1-.42-1c0-.93.55-1.48,1.65-1.63l1.5-.21c0-.85-.34-1.28-1-1.28a2.46,2.46,0,0,0-1.63.62v-.82a3.12,3.12,0,0,1,1.7-.47c1.17,0,1.76.62,1.76,1.87Zm-.8-2.53-1.21.16a2.11,2.11,0,0,0-.84.28.79.79,0,0,0-.28.7.78.78,0,0,0,.26.6,1.05,1.05,0,0,0,.7.23,1.29,1.29,0,0,0,1-.42,1.47,1.47,0,0,0,.39-1.05Z"/><path class="cls-6" d="M165.33,147.47h0v3h-.8v-7.3h.8v.88h0a1.88,1.88,0,0,1,1.73-1,1.84,1.84,0,0,1,1.51.67,2.8,2.8,0,0,1,.54,1.8,3.13,3.13,0,0,1-.61,2,2.06,2.06,0,0,1-1.67.76A1.67,1.67,0,0,1,165.33,147.47Zm0-2v.7a1.48,1.48,0,0,0,.4,1,1.44,1.44,0,0,0,2.17-.13,2.56,2.56,0,0,0,.41-1.54,2,2,0,0,0-.39-1.31,1.26,1.26,0,0,0-1-.48,1.45,1.45,0,0,0-1.13.49A1.79,1.79,0,0,0,165.31,145.45Z"/><path class="cls-6" d="M174.43,148.19h-.8v-.79h0a1.66,1.66,0,0,1-1.54.91c-1.19,0-1.79-.71-1.79-2.13v-3h.8v2.86c0,1,.4,1.58,1.21,1.58a1.21,1.21,0,0,0,1-.43,1.68,1.68,0,0,0,.38-1.13v-2.88h.8Z"/><path class="cls-6" d="M176.87,147.47h0v.72h-.8v-7.4h.8v3.28h0a1.88,1.88,0,0,1,1.72-1,1.82,1.82,0,0,1,1.51.67,2.8,2.8,0,0,1,.55,1.8,3.13,3.13,0,0,1-.61,2,2.06,2.06,0,0,1-1.67.76A1.64,1.64,0,0,1,176.87,147.47Zm0-2v.7a1.48,1.48,0,0,0,.4,1,1.33,1.33,0,0,0,1,.43,1.31,1.31,0,0,0,1.14-.56,2.49,2.49,0,0,0,.42-1.54,2,2,0,0,0-.39-1.31,1.28,1.28,0,0,0-1.05-.48,1.43,1.43,0,0,0-1.12.49A1.79,1.79,0,0,0,176.85,145.45Z"/><path class="cls-6" d="M182.73,148.19h-.81v-7.4h.81Z"/><path class="cls-6" d="M184.76,141.92a.52.52,0,1,1,0-1,.51.51,0,0,1,.37.15.5.5,0,0,1,.15.37.51.51,0,0,1-.52.52Zm.39,6.27h-.8v-5h.8Z"/><path class="cls-6" d="M190.18,148a2.63,2.63,0,0,1-1.37.35,2.3,2.3,0,0,1-1.73-.7,2.55,2.55,0,0,1-.65-1.8,2.78,2.78,0,0,1,.7-2,2.5,2.5,0,0,1,1.89-.75,2.72,2.72,0,0,1,1.17.24v.83a2,2,0,0,0-1.19-.4,1.63,1.63,0,0,0-1.26.55,2.09,2.09,0,0,0-.49,1.45,2,2,0,0,0,.46,1.38,1.59,1.59,0,0,0,1.24.51,2,2,0,0,0,1.23-.43Z"/><path class="cls-6" d="M195,148.19h-.8v-.78h0a1.68,1.68,0,0,1-1.54.9,1.66,1.66,0,0,1-1.17-.4,1.36,1.36,0,0,1-.42-1c0-.93.55-1.48,1.65-1.63l1.5-.21c0-.85-.35-1.28-1-1.28a2.44,2.44,0,0,0-1.63.62v-.82a3.09,3.09,0,0,1,1.69-.47c1.18,0,1.77.62,1.77,1.87Zm-.8-2.53-1.21.16a2.11,2.11,0,0,0-.84.28.79.79,0,0,0-.28.7.75.75,0,0,0,.26.6,1,1,0,0,0,.69.23,1.29,1.29,0,0,0,1-.42,1.47,1.47,0,0,0,.39-1.05Z"/><path class="cls-6" d="M198.8,148.14a1.61,1.61,0,0,1-.75.16q-1.32,0-1.32-1.47v-3h-.85v-.68h.85V142l.81-.26v1.48h1.26v.68h-1.26v2.82a1.16,1.16,0,0,0,.17.72.68.68,0,0,0,.56.21.88.88,0,0,0,.53-.16Z"/><path class="cls-6" d="M200.27,141.92a.49.49,0,0,1-.36-.15.53.53,0,0,1,0-.74.49.49,0,0,1,.36-.15.52.52,0,0,1,.38.15.5.5,0,0,1,.15.37.51.51,0,0,1-.15.37A.52.52,0,0,1,200.27,141.92Zm.4,6.27h-.81v-5h.81Z"/><path class="cls-6" d="M204.38,148.31a2.31,2.31,0,0,1-1.77-.71,2.58,2.58,0,0,1-.67-1.85,2.7,2.7,0,0,1,.69-2,2.49,2.49,0,0,1,1.86-.71,2.25,2.25,0,0,1,1.75.69,2.72,2.72,0,0,1,.63,1.91,2.67,2.67,0,0,1-.68,1.91A2.38,2.38,0,0,1,204.38,148.31Zm.05-4.57a1.53,1.53,0,0,0-1.22.53,2.15,2.15,0,0,0-.45,1.45,2.05,2.05,0,0,0,.46,1.4,1.54,1.54,0,0,0,1.21.51,1.49,1.49,0,0,0,1.2-.5,2.18,2.18,0,0,0,.42-1.43,2.22,2.22,0,0,0-.42-1.45A1.47,1.47,0,0,0,204.43,143.74Z"/><path class="cls-6" d="M212.3,148.19h-.8v-2.85c0-1.06-.39-1.6-1.17-1.6a1.23,1.23,0,0,0-1,.46,1.68,1.68,0,0,0-.39,1.14v2.85h-.8v-5h.8V144h0a1.8,1.8,0,0,1,1.64-1,1.54,1.54,0,0,1,1.25.53,2.35,2.35,0,0,1,.44,1.53Z"/><path class="cls-6" d="M75.42,160.19h-.8v-.85h0a2,2,0,0,1-3.23.29,2.7,2.7,0,0,1-.56-1.82,3,3,0,0,1,.62-2,2.06,2.06,0,0,1,1.67-.75,1.62,1.62,0,0,1,1.5.81h0v-3.09h.8Zm-.8-2.26v-.74a1.48,1.48,0,0,0-.4-1,1.36,1.36,0,0,0-1-.42,1.37,1.37,0,0,0-1.15.54,2.36,2.36,0,0,0-.42,1.49,2.1,2.1,0,0,0,.4,1.36,1.33,1.33,0,0,0,1.08.5,1.38,1.38,0,0,0,1.09-.48A1.79,1.79,0,0,0,74.62,157.93Z"/><path class="cls-6" d="M81.06,157.89H77.53a1.91,1.91,0,0,0,.44,1.29,1.57,1.57,0,0,0,1.19.45,2.41,2.41,0,0,0,1.55-.56v.76a2.89,2.89,0,0,1-1.74.48,2.1,2.1,0,0,1-1.67-.69,2.79,2.79,0,0,1-.6-1.91,2.73,2.73,0,0,1,.66-1.9,2.12,2.12,0,0,1,1.64-.74,1.87,1.87,0,0,1,1.52.64,2.63,2.63,0,0,1,.54,1.76Zm-.82-.68a1.68,1.68,0,0,0-.34-1.08,1.12,1.12,0,0,0-.91-.39,1.32,1.32,0,0,0-1,.41,1.83,1.83,0,0,0-.48,1.06Z"/><path class="cls-6" d="M88.94,155.19l-2,5h-.78l-1.9-5h.88l1.27,3.63a2.89,2.89,0,0,1,.18.7h0a3.25,3.25,0,0,1,.15-.68l1.33-3.65Z"/><path class="cls-6" d="M91.89,160.31a2.31,2.31,0,0,1-1.77-.71,2.53,2.53,0,0,1-.67-1.85,2.7,2.7,0,0,1,.69-2,2.49,2.49,0,0,1,1.86-.71,2.25,2.25,0,0,1,1.75.69,2.72,2.72,0,0,1,.63,1.91,2.67,2.67,0,0,1-.68,1.91A2.38,2.38,0,0,1,91.89,160.31Zm0-4.57a1.53,1.53,0,0,0-1.22.53,2.15,2.15,0,0,0-.45,1.45,2.05,2.05,0,0,0,.46,1.4,1.54,1.54,0,0,0,1.21.51,1.49,1.49,0,0,0,1.2-.5,2.18,2.18,0,0,0,.42-1.43,2.22,2.22,0,0,0-.42-1.45A1.47,1.47,0,0,0,91.94,155.74Z"/><path class="cls-6" d="M98,160.14a1.53,1.53,0,0,1-.74.16q-1.32,0-1.32-1.47v-3h-.86v-.68h.86V154l.81-.26v1.48H98v.68H96.72v2.82a1.16,1.16,0,0,0,.17.72.68.68,0,0,0,.56.21.83.83,0,0,0,.52-.16Z"/><path class="cls-6" d="M101.65,156a1,1,0,0,0-.6-.16,1,1,0,0,0-.86.48,2.22,2.22,0,0,0-.35,1.32v2.55H99v-5h.8v1h0a1.72,1.72,0,0,1,.53-.82,1.16,1.16,0,0,1,.78-.3,1.22,1.22,0,0,1,.48.07Z"/><path class="cls-6" d="M106.54,157.89H103a1.87,1.87,0,0,0,.45,1.29,1.54,1.54,0,0,0,1.18.45,2.41,2.41,0,0,0,1.55-.56v.76a2.89,2.89,0,0,1-1.74.48,2.11,2.11,0,0,1-1.67-.69,2.79,2.79,0,0,1-.6-1.91,2.73,2.73,0,0,1,.66-1.9,2.12,2.12,0,0,1,1.64-.74,1.86,1.86,0,0,1,1.52.64,2.63,2.63,0,0,1,.54,1.76Zm-.82-.68a1.62,1.62,0,0,0-.34-1.08,1.12,1.12,0,0,0-.91-.39,1.28,1.28,0,0,0-1,.41,1.78,1.78,0,0,0-.49,1.06Z"/><path class="cls-6" d="M114.07,160.19h-.8v-.78h0a1.68,1.68,0,0,1-1.54.9,1.66,1.66,0,0,1-1.17-.4,1.36,1.36,0,0,1-.42-1c0-.93.55-1.48,1.65-1.63l1.5-.21c0-.85-.35-1.28-1-1.28a2.46,2.46,0,0,0-1.63.62v-.82a3.1,3.1,0,0,1,1.7-.47c1.17,0,1.76.62,1.76,1.87Zm-.8-2.53-1.21.16a2.11,2.11,0,0,0-.84.28.79.79,0,0,0-.28.7.78.78,0,0,0,.26.6,1,1,0,0,0,.7.23,1.29,1.29,0,0,0,1-.42,1.47,1.47,0,0,0,.39-1.05Z"/><path class="cls-6" d="M118.19,156a1,1,0,0,0-.61-.16,1,1,0,0,0-.86.48,2.23,2.23,0,0,0-.34,1.32v2.55h-.8v-5h.8v1h0a1.71,1.71,0,0,1,.52-.82,1.18,1.18,0,0,1,.79-.3,1.28,1.28,0,0,1,.48.07Z"/><path class="cls-6" d="M121.37,160.14a1.53,1.53,0,0,1-.74.16q-1.32,0-1.32-1.47v-3h-.86v-.68h.86V154l.8-.26v1.48h1.26v.68h-1.26v2.82a1.23,1.23,0,0,0,.17.72.71.71,0,0,0,.57.21.83.83,0,0,0,.52-.16Z"/><path class="cls-6" d="M122.85,153.92a.49.49,0,0,1-.36-.15.53.53,0,0,1,0-.74.49.49,0,0,1,.36-.15.54.54,0,0,1,.38.15.5.5,0,0,1,.15.37.51.51,0,0,1-.15.37A.54.54,0,0,1,122.85,153.92Zm.39,6.27h-.8v-5h.8Z"/><path class="cls-6" d="M128.27,160a2.6,2.6,0,0,1-1.36.35,2.28,2.28,0,0,1-1.73-.7,2.51,2.51,0,0,1-.66-1.8,2.78,2.78,0,0,1,.71-2,2.47,2.47,0,0,1,1.89-.75,2.64,2.64,0,0,1,1.16.24v.83a2,2,0,0,0-1.19-.4,1.64,1.64,0,0,0-1.26.55,2.14,2.14,0,0,0-.49,1.45,2,2,0,0,0,.46,1.38,1.61,1.61,0,0,0,1.24.51,2,2,0,0,0,1.23-.43Z"/><path class="cls-6" d="M130.28,160.19h-.8v-7.4h.8Z"/><path class="cls-6" d="M135.92,157.89h-3.53a2,2,0,0,0,.45,1.29,1.57,1.57,0,0,0,1.19.45,2.41,2.41,0,0,0,1.55-.56v.76a2.9,2.9,0,0,1-1.75.48,2.09,2.09,0,0,1-1.66-.69,2.79,2.79,0,0,1-.61-1.91,2.69,2.69,0,0,1,.67-1.9,2.11,2.11,0,0,1,1.64-.74,1.87,1.87,0,0,1,1.52.64,2.62,2.62,0,0,1,.53,1.76Zm-.82-.68a1.62,1.62,0,0,0-.33-1.08,1.14,1.14,0,0,0-.92-.39,1.32,1.32,0,0,0-1,.41,1.91,1.91,0,0,0-.49,1.06Z"/><path class="cls-6" d="M143.89,157.89h-3.53a2,2,0,0,0,.45,1.29,1.56,1.56,0,0,0,1.18.45,2.43,2.43,0,0,0,1.56-.56v.76a2.9,2.9,0,0,1-1.75.48,2.09,2.09,0,0,1-1.66-.69,2.79,2.79,0,0,1-.61-1.91,2.69,2.69,0,0,1,.67-1.9,2.11,2.11,0,0,1,1.64-.74,1.87,1.87,0,0,1,1.52.64,2.68,2.68,0,0,1,.53,1.76Zm-.82-.68a1.62,1.62,0,0,0-.33-1.08,1.14,1.14,0,0,0-.92-.39,1.3,1.3,0,0,0-1,.41,1.84,1.84,0,0,0-.49,1.06Z"/><path class="cls-6" d="M149.25,160.19h-.8v-2.85c0-1.06-.38-1.6-1.16-1.6a1.23,1.23,0,0,0-1,.46,1.68,1.68,0,0,0-.4,1.14v2.85h-.8v-5h.8V156h0a1.82,1.82,0,0,1,1.64-1,1.55,1.55,0,0,1,1.26.53,2.34,2.34,0,0,1,.43,1.53Z"/><path class="cls-6" d="M156.43,160.31a3,3,0,0,1-2.38-1,3.61,3.61,0,0,1-.9-2.55,3.92,3.92,0,0,1,.91-2.7,3.2,3.2,0,0,1,2.49-1,2.94,2.94,0,0,1,2.33,1,3.6,3.6,0,0,1,.89,2.55,3.86,3.86,0,0,1-.91,2.71A3.13,3.13,0,0,1,156.43,160.31Zm.06-6.5a2.27,2.27,0,0,0-1.79.8,3.06,3.06,0,0,0-.69,2.09,3.1,3.1,0,0,0,.67,2.08,2.18,2.18,0,0,0,1.75.79,2.3,2.3,0,0,0,1.82-.75,3.12,3.12,0,0,0,.66-2.11,3.2,3.2,0,0,0-.64-2.14A2.2,2.2,0,0,0,156.49,153.81Z"/><path class="cls-6" d="M161.86,159.47h0v3H161v-7.3h.8v.88h0a1.89,1.89,0,0,1,1.73-1,1.83,1.83,0,0,1,1.51.67,2.8,2.8,0,0,1,.54,1.8,3.07,3.07,0,0,1-.61,2,2,2,0,0,1-1.67.76A1.67,1.67,0,0,1,161.86,159.47Zm0-2v.7a1.53,1.53,0,0,0,.4,1,1.44,1.44,0,0,0,2.17-.13,2.56,2.56,0,0,0,.41-1.54,2,2,0,0,0-.39-1.31,1.25,1.25,0,0,0-1-.48,1.42,1.42,0,0,0-1.12.49A1.75,1.75,0,0,0,161.84,157.45Z"/><path class="cls-6" d="M170.94,157.89h-3.53a1.87,1.87,0,0,0,.45,1.29,1.54,1.54,0,0,0,1.18.45,2.41,2.41,0,0,0,1.55-.56v.76a2.89,2.89,0,0,1-1.74.48,2.11,2.11,0,0,1-1.67-.69,2.79,2.79,0,0,1-.6-1.91,2.73,2.73,0,0,1,.66-1.9,2.12,2.12,0,0,1,1.64-.74,1.86,1.86,0,0,1,1.52.64,2.63,2.63,0,0,1,.54,1.76Zm-.82-.68a1.62,1.62,0,0,0-.34-1.08,1.12,1.12,0,0,0-.91-.39,1.28,1.28,0,0,0-1,.41,1.78,1.78,0,0,0-.49,1.06Z"/><path class="cls-6" d="M176.3,160.19h-.8v-2.85c0-1.06-.39-1.6-1.16-1.6a1.27,1.27,0,0,0-1,.46,1.68,1.68,0,0,0-.39,1.14v2.85h-.8v-5h.8V156h0a1.81,1.81,0,0,1,1.64-1,1.55,1.55,0,0,1,1.26.53,2.34,2.34,0,0,1,.43,1.53Z"/><path class="cls-6" d="M186.08,160.19h-.91l-.75-2h-3l-.7,2h-.92l2.69-7h.85Zm-1.92-2.7-1.1-3A2.59,2.59,0,0,1,183,154h0a2.6,2.6,0,0,1-.11.46l-1.09,3Z"/><path class="cls-6" d="M190.41,160a2.63,2.63,0,0,1-1.37.35,2.3,2.3,0,0,1-1.73-.7,2.55,2.55,0,0,1-.65-1.8,2.78,2.78,0,0,1,.7-2,2.5,2.5,0,0,1,1.89-.75,2.72,2.72,0,0,1,1.17.24v.83a2,2,0,0,0-1.2-.4,1.62,1.62,0,0,0-1.25.55,2.09,2.09,0,0,0-.49,1.45,2,2,0,0,0,.46,1.38,1.59,1.59,0,0,0,1.24.51,2,2,0,0,0,1.23-.43Z"/><path class="cls-6" d="M195,160a2.63,2.63,0,0,1-1.37.35,2.3,2.3,0,0,1-1.73-.7,2.51,2.51,0,0,1-.65-1.8,2.78,2.78,0,0,1,.7-2,2.5,2.5,0,0,1,1.89-.75,2.72,2.72,0,0,1,1.17.24v.83a2,2,0,0,0-1.2-.4,1.61,1.61,0,0,0-1.25.55,2.09,2.09,0,0,0-.49,1.45,2,2,0,0,0,.46,1.38,1.59,1.59,0,0,0,1.24.51,2,2,0,0,0,1.23-.43Z"/><path class="cls-6" d="M200.26,157.89h-3.54a2,2,0,0,0,.45,1.29,1.57,1.57,0,0,0,1.19.45,2.41,2.41,0,0,0,1.55-.56v.76a2.89,2.89,0,0,1-1.74.48,2.1,2.1,0,0,1-1.67-.69,2.79,2.79,0,0,1-.61-1.91,2.74,2.74,0,0,1,.67-1.9,2.12,2.12,0,0,1,1.64-.74,1.87,1.87,0,0,1,1.52.64,2.63,2.63,0,0,1,.54,1.76Zm-.83-.68a1.62,1.62,0,0,0-.33-1.08,1.13,1.13,0,0,0-.92-.39,1.32,1.32,0,0,0-1,.41,1.91,1.91,0,0,0-.49,1.06Z"/><path class="cls-6" d="M201.16,160v-.86a2.4,2.4,0,0,0,1.44.48c.71,0,1.06-.23,1.06-.7a.59.59,0,0,0-.09-.34.85.85,0,0,0-.25-.25,2,2,0,0,0-.36-.19l-.44-.18a5.6,5.6,0,0,1-.59-.27,1.51,1.51,0,0,1-.42-.3,1.19,1.19,0,0,1-.25-.38,1.37,1.37,0,0,1,.07-1.13,1.54,1.54,0,0,1,.43-.45,2.34,2.34,0,0,1,.62-.28,2.76,2.76,0,0,1,.71-.09,2.86,2.86,0,0,1,1.16.23v.81a2.28,2.28,0,0,0-1.27-.37,1.31,1.31,0,0,0-.41.06,1,1,0,0,0-.31.14.83.83,0,0,0-.2.22.69.69,0,0,0-.07.29.72.72,0,0,0,.07.32.79.79,0,0,0,.21.24,1.29,1.29,0,0,0,.33.18l.45.19a4.72,4.72,0,0,1,.59.26,2,2,0,0,1,.45.3,1.11,1.11,0,0,1,.29.39,1.18,1.18,0,0,1,.1.52,1.29,1.29,0,0,1-.16.64,1.38,1.38,0,0,1-.44.46,2,2,0,0,1-.63.27,3.08,3.08,0,0,1-.75.09A2.85,2.85,0,0,1,201.16,160Z"/><path class="cls-6" d="M205.41,160v-.86a2.35,2.35,0,0,0,1.44.48c.7,0,1.05-.23,1.05-.7a.59.59,0,0,0-.09-.34.94.94,0,0,0-.24-.25,2.42,2.42,0,0,0-.36-.19l-.45-.18a5.37,5.37,0,0,1-.58-.27,1.51,1.51,0,0,1-.42-.3,1.08,1.08,0,0,1-.26-.38,1.28,1.28,0,0,1-.08-.5,1.18,1.18,0,0,1,.16-.63,1.32,1.32,0,0,1,.43-.45,2.28,2.28,0,0,1,.61-.28,2.82,2.82,0,0,1,.71-.09,2.86,2.86,0,0,1,1.16.23v.81a2.28,2.28,0,0,0-1.27-.37,1.25,1.25,0,0,0-.4.06.89.89,0,0,0-.31.14.59.59,0,0,0-.2.22.57.57,0,0,0-.07.29.61.61,0,0,0,.07.32.64.64,0,0,0,.2.24,1.56,1.56,0,0,0,.34.18l.44.19a5.68,5.68,0,0,1,.6.26,2.52,2.52,0,0,1,.45.3,1.21,1.21,0,0,1,.28.39,1.18,1.18,0,0,1,.1.52,1.19,1.19,0,0,1-.16.64,1.38,1.38,0,0,1-.44.46,2,2,0,0,1-.63.27,3,3,0,0,1-.75.09A2.78,2.78,0,0,1,205.41,160Z"/><path class="cls-6" d="M95.64,177.19l-2.6,7h-.9l-2.54-7h.91l1.94,5.55a3.17,3.17,0,0,1,.14.62h0a3.24,3.24,0,0,1,.16-.63l2-5.54Z"/><path class="cls-6" d="M98,184.31a2.31,2.31,0,0,1-1.77-.71,2.57,2.57,0,0,1-.66-1.85,2.7,2.7,0,0,1,.69-2,2.49,2.49,0,0,1,1.86-.71,2.24,2.24,0,0,1,1.74.69,3.13,3.13,0,0,1,0,3.83A2.39,2.39,0,0,1,98,184.31Zm.06-4.57a1.52,1.52,0,0,0-1.22.53,2.15,2.15,0,0,0-.45,1.45,2,2,0,0,0,.45,1.4,1.55,1.55,0,0,0,1.22.51,1.47,1.47,0,0,0,1.19-.5,2.18,2.18,0,0,0,.42-1.43,2.22,2.22,0,0,0-.42-1.45A1.45,1.45,0,0,0,98.05,179.74Z"/><path class="cls-6" d="M105.8,184.19H105v-.79h0a1.65,1.65,0,0,1-1.54.91c-1.19,0-1.79-.71-1.79-2.13v-3h.8v2.86c0,1,.4,1.58,1.21,1.58a1.21,1.21,0,0,0,1-.43,1.63,1.63,0,0,0,.38-1.13v-2.88h.8Z"/><path class="cls-6" d="M107.12,184v-.86a2.35,2.35,0,0,0,1.44.48c.7,0,1-.23,1-.7a.62.62,0,0,0-.09-.34.94.94,0,0,0-.24-.25,2.55,2.55,0,0,0-.37-.19l-.44-.18c-.22-.09-.42-.18-.59-.27a1.87,1.87,0,0,1-.42-.3,1.19,1.19,0,0,1-.25-.38,1.28,1.28,0,0,1-.08-.5,1.18,1.18,0,0,1,.16-.63,1.32,1.32,0,0,1,.43-.45,2.28,2.28,0,0,1,.61-.28,2.82,2.82,0,0,1,.71-.09,2.86,2.86,0,0,1,1.16.23v.81a2.28,2.28,0,0,0-1.27-.37,1.25,1.25,0,0,0-.4.06.89.89,0,0,0-.31.14.59.59,0,0,0-.2.22.57.57,0,0,0-.07.29.61.61,0,0,0,.07.32.64.64,0,0,0,.2.24,1.56,1.56,0,0,0,.34.18l.44.19a5.68,5.68,0,0,1,.6.26,2.52,2.52,0,0,1,.45.3,1.21,1.21,0,0,1,.28.39,1.18,1.18,0,0,1,.1.52,1.19,1.19,0,0,1-.16.64,1.38,1.38,0,0,1-.44.46,2,2,0,0,1-.63.27,3.08,3.08,0,0,1-.75.09A2.78,2.78,0,0,1,107.12,184Z"/><path class="cls-6" d="M115.22,183.47h0v3h-.8v-7.3h.8v.88h0a1.88,1.88,0,0,1,1.73-1,1.83,1.83,0,0,1,1.51.67,2.8,2.8,0,0,1,.54,1.8,3.07,3.07,0,0,1-.61,2,2,2,0,0,1-1.67.76A1.67,1.67,0,0,1,115.22,183.47Zm0-2v.7a1.53,1.53,0,0,0,.4,1,1.44,1.44,0,0,0,2.17-.13,2.56,2.56,0,0,0,.41-1.54,2,2,0,0,0-.39-1.31,1.25,1.25,0,0,0-1-.48,1.42,1.42,0,0,0-1.12.49A1.75,1.75,0,0,0,115.2,181.45Z"/><path class="cls-6" d="M122.37,184.31a2.31,2.31,0,0,1-1.77-.71,2.57,2.57,0,0,1-.66-1.85,2.7,2.7,0,0,1,.69-2,2.49,2.49,0,0,1,1.86-.71,2.24,2.24,0,0,1,1.74.69,3.13,3.13,0,0,1,0,3.83A2.39,2.39,0,0,1,122.37,184.31Zm.06-4.57a1.52,1.52,0,0,0-1.22.53,2.15,2.15,0,0,0-.45,1.45,2,2,0,0,0,.45,1.4,1.56,1.56,0,0,0,1.22.51,1.47,1.47,0,0,0,1.19-.5,2.18,2.18,0,0,0,.42-1.43,2.22,2.22,0,0,0-.42-1.45A1.45,1.45,0,0,0,122.43,179.74Z"/><path class="cls-6" d="M130.18,184.19h-.8v-.79h0a1.65,1.65,0,0,1-1.54.91c-1.19,0-1.79-.71-1.79-2.13v-3h.8v2.86c0,1,.4,1.58,1.21,1.58a1.21,1.21,0,0,0,1-.43,1.63,1.63,0,0,0,.38-1.13v-2.88h.8Z"/><path class="cls-6" d="M135.73,179.19l-2,5H133l-1.89-5h.88l1.26,3.63a2.89,2.89,0,0,1,.18.7h0a3.23,3.23,0,0,1,.16-.68l1.32-3.65Z"/><path class="cls-6" d="M140.61,181.89h-3.53a1.87,1.87,0,0,0,.45,1.29,1.54,1.54,0,0,0,1.18.45,2.41,2.41,0,0,0,1.55-.56v.76a2.89,2.89,0,0,1-1.74.48,2.11,2.11,0,0,1-1.67-.69,2.79,2.79,0,0,1-.6-1.91,2.73,2.73,0,0,1,.66-1.9,2.12,2.12,0,0,1,1.64-.74,1.86,1.86,0,0,1,1.52.64,2.63,2.63,0,0,1,.54,1.76Zm-.82-.68a1.68,1.68,0,0,0-.34-1.08,1.12,1.12,0,0,0-.91-.39,1.32,1.32,0,0,0-1,.41,1.83,1.83,0,0,0-.48,1.06Z"/><path class="cls-6" d="M145.3,179.42l-3,4.08h2.93v.69h-4.11v-.25l3-4.07h-2.68v-.68h3.85Z"/><path class="cls-6" d="M149.9,183.47h0v3h-.8v-7.3h.8v.88h0a1.88,1.88,0,0,1,1.73-1,1.84,1.84,0,0,1,1.51.67,2.8,2.8,0,0,1,.54,1.8,3.13,3.13,0,0,1-.61,2,2.06,2.06,0,0,1-1.67.76A1.67,1.67,0,0,1,149.9,183.47Zm0-2v.7a1.48,1.48,0,0,0,.4,1,1.44,1.44,0,0,0,2.17-.13,2.56,2.56,0,0,0,.41-1.54,2,2,0,0,0-.39-1.31,1.25,1.25,0,0,0-1-.48,1.45,1.45,0,0,0-1.13.49A1.79,1.79,0,0,0,149.88,181.45Z"/><path class="cls-6" d="M157.56,180a1,1,0,0,0-.6-.16,1,1,0,0,0-.86.48,2.23,2.23,0,0,0-.34,1.32v2.55H155v-5h.8v1h0a1.71,1.71,0,0,1,.52-.82,1.31,1.31,0,0,1,1.26-.23Z"/><path class="cls-6" d="M162.45,181.89h-3.53a1.92,1.92,0,0,0,.45,1.29,1.56,1.56,0,0,0,1.18.45,2.43,2.43,0,0,0,1.56-.56v.76a2.9,2.9,0,0,1-1.75.48,2.09,2.09,0,0,1-1.66-.69,3.18,3.18,0,0,1,.05-3.81,2.13,2.13,0,0,1,1.65-.74,1.87,1.87,0,0,1,1.52.64,2.68,2.68,0,0,1,.53,1.76Zm-.82-.68a1.62,1.62,0,0,0-.33-1.08,1.14,1.14,0,0,0-.92-.39,1.28,1.28,0,0,0-1,.41,1.84,1.84,0,0,0-.49,1.06Z"/><path class="cls-6" d="M167.81,184.19H167v-2.85c0-1.06-.38-1.6-1.16-1.6a1.23,1.23,0,0,0-1,.46,1.64,1.64,0,0,0-.4,1.14v2.85h-.8v-5h.8V180h0a1.82,1.82,0,0,1,1.64-1,1.55,1.55,0,0,1,1.26.53,2.34,2.34,0,0,1,.43,1.53Z"/><path class="cls-6" d="M173.59,184.19h-.8v-.85h0a2,2,0,0,1-3.22.29,2.7,2.7,0,0,1-.57-1.82,3,3,0,0,1,.63-2,2,2,0,0,1,1.66-.75,1.6,1.6,0,0,1,1.5.81h0v-3.09h.8Zm-.8-2.26v-.74a1.43,1.43,0,0,0-.4-1,1.36,1.36,0,0,0-1-.42,1.37,1.37,0,0,0-1.15.54,2.36,2.36,0,0,0-.42,1.49,2.16,2.16,0,0,0,.4,1.36,1.33,1.33,0,0,0,1.09.5,1.37,1.37,0,0,0,1.08-.48A1.79,1.79,0,0,0,172.79,181.93Z"/><path class="cls-6" d="M177.82,180a1,1,0,0,0-.61-.16,1,1,0,0,0-.85.48,2.22,2.22,0,0,0-.35,1.32v2.55h-.8v-5h.8v1h0a1.79,1.79,0,0,1,.52-.82,1.2,1.2,0,0,1,.79-.3,1.22,1.22,0,0,1,.48.07Z"/><path class="cls-6" d="M182.71,181.89h-3.53a1.87,1.87,0,0,0,.45,1.29,1.54,1.54,0,0,0,1.18.45,2.41,2.41,0,0,0,1.55-.56v.76a2.89,2.89,0,0,1-1.74.48,2.1,2.1,0,0,1-1.67-.69,2.79,2.79,0,0,1-.6-1.91,2.73,2.73,0,0,1,.66-1.9,2.12,2.12,0,0,1,1.64-.74,1.87,1.87,0,0,1,1.52.64,2.63,2.63,0,0,1,.54,1.76Zm-.82-.68a1.68,1.68,0,0,0-.34-1.08,1.12,1.12,0,0,0-.91-.39,1.32,1.32,0,0,0-1,.41,1.83,1.83,0,0,0-.48,1.06Z"/><path class="cls-6" d="M190.7,184.19h-.8v-.79h0a1.66,1.66,0,0,1-1.54.91c-1.2,0-1.79-.71-1.79-2.13v-3h.79v2.86c0,1,.41,1.58,1.22,1.58a1.21,1.21,0,0,0,1-.43,1.68,1.68,0,0,0,.38-1.13v-2.88h.8Z"/><path class="cls-6" d="M196.47,184.19h-.8v-2.85c0-1.06-.39-1.6-1.17-1.6a1.23,1.23,0,0,0-1,.46,1.68,1.68,0,0,0-.39,1.14v2.85h-.8v-5h.8V180h0a1.8,1.8,0,0,1,1.64-1,1.54,1.54,0,0,1,1.25.53,2.35,2.35,0,0,1,.44,1.53Z"/><path class="cls-6" d="M202,181.89h-3.53a2,2,0,0,0,.45,1.29,1.56,1.56,0,0,0,1.18.45,2.43,2.43,0,0,0,1.56-.56v.76a2.9,2.9,0,0,1-1.75.48,2.09,2.09,0,0,1-1.66-.69,2.79,2.79,0,0,1-.61-1.91,2.69,2.69,0,0,1,.67-1.9,2.11,2.11,0,0,1,1.64-.74,1.87,1.87,0,0,1,1.52.64,2.68,2.68,0,0,1,.53,1.76Zm-.82-.68a1.62,1.62,0,0,0-.33-1.08,1.14,1.14,0,0,0-.92-.39,1.3,1.3,0,0,0-1,.41,1.84,1.84,0,0,0-.49,1.06Z"/><path class="cls-6" d="M74.56,196a2.63,2.63,0,0,1-1.37.35,2.3,2.3,0,0,1-1.73-.7,2.55,2.55,0,0,1-.65-1.8,2.78,2.78,0,0,1,.7-2,2.5,2.5,0,0,1,1.89-.75,2.72,2.72,0,0,1,1.17.24v.83a2.05,2.05,0,0,0-1.19-.4,1.63,1.63,0,0,0-1.26.55,2.09,2.09,0,0,0-.49,1.45,2,2,0,0,0,.46,1.38,1.59,1.59,0,0,0,1.24.51,2,2,0,0,0,1.23-.43Z"/><path class="cls-6" d="M79.35,196.19h-.8v-.78h0a1.68,1.68,0,0,1-1.54.9,1.66,1.66,0,0,1-1.17-.4,1.36,1.36,0,0,1-.42-1c0-.93.55-1.48,1.65-1.63l1.5-.21c0-.85-.35-1.28-1-1.28a2.49,2.49,0,0,0-1.64.62v-.82a3.15,3.15,0,0,1,1.7-.47c1.18,0,1.77.62,1.77,1.87Zm-.8-2.53-1.21.16a2.11,2.11,0,0,0-.84.28.79.79,0,0,0-.28.7.75.75,0,0,0,.26.6,1,1,0,0,0,.69.23,1.29,1.29,0,0,0,1-.42,1.47,1.47,0,0,0,.39-1.05Z"/><path class="cls-6" d="M83.46,192a1,1,0,0,0-.6-.16,1,1,0,0,0-.86.48,2.23,2.23,0,0,0-.34,1.32v2.55h-.8v-5h.8v1h0a1.64,1.64,0,0,1,.52-.82,1.18,1.18,0,0,1,.78-.3,1.22,1.22,0,0,1,.48.07Z"/><path class="cls-6" d="M86.65,196.14a1.61,1.61,0,0,1-.75.16c-.87,0-1.31-.49-1.31-1.47v-3h-.86v-.68h.86V190l.8-.26v1.48h1.26v.68H85.39v2.82a1.23,1.23,0,0,0,.17.72.71.71,0,0,0,.57.21.83.83,0,0,0,.52-.16Z"/><path class="cls-6" d="M91.74,193.89H88.21a1.87,1.87,0,0,0,.45,1.29,1.56,1.56,0,0,0,1.18.45,2.41,2.41,0,0,0,1.55-.56v.76a2.89,2.89,0,0,1-1.74.48,2.11,2.11,0,0,1-1.67-.69,2.79,2.79,0,0,1-.6-1.91,2.73,2.73,0,0,1,.66-1.9,2.12,2.12,0,0,1,1.64-.74,1.86,1.86,0,0,1,1.52.64,2.63,2.63,0,0,1,.54,1.76Zm-.82-.68a1.62,1.62,0,0,0-.34-1.08,1.12,1.12,0,0,0-.91-.39,1.28,1.28,0,0,0-1,.41,1.78,1.78,0,0,0-.49,1.06Z"/><path class="cls-6" d="M99.27,196.19h-.8v-.78h0a1.68,1.68,0,0,1-1.54.9,1.66,1.66,0,0,1-1.17-.4,1.36,1.36,0,0,1-.42-1c0-.93.55-1.48,1.65-1.63l1.5-.21c0-.85-.35-1.28-1-1.28a2.46,2.46,0,0,0-1.63.62v-.82a3.1,3.1,0,0,1,1.7-.47c1.17,0,1.76.62,1.76,1.87Zm-.8-2.53-1.21.16a2.11,2.11,0,0,0-.84.28.79.79,0,0,0-.28.7.78.78,0,0,0,.26.6,1,1,0,0,0,.7.23,1.29,1.29,0,0,0,1-.42,1.47,1.47,0,0,0,.39-1.05Zm-.3-3.42h-.62l-1.28-1.6h.82Z"/><path class="cls-6" d="M107.78,196.19H107v-.85h0a2,2,0,0,1-3.22.29,2.7,2.7,0,0,1-.57-1.82,3,3,0,0,1,.63-2,2.06,2.06,0,0,1,1.67-.75,1.59,1.59,0,0,1,1.49.81h0v-3.09h.8Zm-.8-2.26v-.74a1.43,1.43,0,0,0-.4-1,1.36,1.36,0,0,0-1-.42,1.37,1.37,0,0,0-1.15.54,2.38,2.38,0,0,0-.42,1.49,2.1,2.1,0,0,0,.4,1.36,1.33,1.33,0,0,0,1.08.5,1.38,1.38,0,0,0,1.09-.48A1.84,1.84,0,0,0,107,193.93Z"/><path class="cls-6" d="M111.5,196.31a2.31,2.31,0,0,1-1.77-.71,2.53,2.53,0,0,1-.67-1.85,2.7,2.7,0,0,1,.69-2,2.49,2.49,0,0,1,1.86-.71,2.25,2.25,0,0,1,1.75.69,3.13,3.13,0,0,1,0,3.83A2.41,2.41,0,0,1,111.5,196.31Zm0-4.57a1.53,1.53,0,0,0-1.22.53,2.15,2.15,0,0,0-.45,1.45,2.05,2.05,0,0,0,.46,1.4,1.54,1.54,0,0,0,1.21.51,1.49,1.49,0,0,0,1.2-.5,2.18,2.18,0,0,0,.42-1.43,2.22,2.22,0,0,0-.42-1.45A1.47,1.47,0,0,0,111.55,191.74Z"/><path class="cls-6" d="M119.31,196.19h-.8v-.79h0a1.66,1.66,0,0,1-1.54.91c-1.2,0-1.79-.71-1.79-2.13v-3H116v2.86c0,1,.41,1.58,1.21,1.58a1.21,1.21,0,0,0,1-.43,1.68,1.68,0,0,0,.38-1.13v-2.88h.8Z"/><path class="cls-6" d="M121.74,195.47h0v.72h-.81v-7.4h.81v3.28h0a1.89,1.89,0,0,1,1.73-1,1.83,1.83,0,0,1,1.51.67,2.8,2.8,0,0,1,.54,1.8,3.07,3.07,0,0,1-.61,2,2,2,0,0,1-1.67.76A1.65,1.65,0,0,1,121.74,195.47Zm0-2v.7a1.48,1.48,0,0,0,.4,1,1.33,1.33,0,0,0,1,.43,1.31,1.31,0,0,0,1.14-.56,2.49,2.49,0,0,0,.41-1.54,2,2,0,0,0-.38-1.31,1.28,1.28,0,0,0-1-.48,1.43,1.43,0,0,0-1.12.49A1.79,1.79,0,0,0,121.73,193.45Z"/><path class="cls-6" d="M127.6,196.19h-.8v-7.4h.8Z"/><path class="cls-6" d="M133.24,193.89h-3.53a2,2,0,0,0,.45,1.29,1.56,1.56,0,0,0,1.18.45,2.41,2.41,0,0,0,1.56-.56v.76a2.9,2.9,0,0,1-1.75.48,2.09,2.09,0,0,1-1.66-.69,2.79,2.79,0,0,1-.61-1.91,2.69,2.69,0,0,1,.67-1.9,2.11,2.11,0,0,1,1.64-.74,1.87,1.87,0,0,1,1.52.64,2.62,2.62,0,0,1,.53,1.76Zm-.82-.68a1.62,1.62,0,0,0-.33-1.08,1.14,1.14,0,0,0-.92-.39,1.32,1.32,0,0,0-1,.41,1.84,1.84,0,0,0-.49,1.06Z"/><path class="cls-6" d="M140.77,196.19H140v-.78h0a1.82,1.82,0,0,1-2.71.5,1.36,1.36,0,0,1-.42-1c0-.93.55-1.48,1.65-1.63L140,193c0-.85-.34-1.28-1-1.28a2.48,2.48,0,0,0-1.63.62v-.82a3.12,3.12,0,0,1,1.7-.47c1.18,0,1.76.62,1.76,1.87Zm-.8-2.53-1.2.16a2.05,2.05,0,0,0-.84.28.8.8,0,0,0-.29.7.78.78,0,0,0,.26.6,1.05,1.05,0,0,0,.7.23,1.27,1.27,0,0,0,1-.42,1.47,1.47,0,0,0,.39-1.05Zm-.3-3.42h-.62l-1.27-1.6h.82Z"/><path class="cls-6" d="M149.06,196.19h-.8v-.79h0a1.65,1.65,0,0,1-1.54.91c-1.19,0-1.79-.71-1.79-2.13v-3h.8v2.86c0,1,.4,1.58,1.21,1.58a1.21,1.21,0,0,0,1-.43,1.63,1.63,0,0,0,.38-1.13v-2.88h.8Z"/><path class="cls-6" d="M154.83,196.19H154v-2.85c0-1.06-.39-1.6-1.16-1.6a1.27,1.27,0,0,0-1,.46,1.68,1.68,0,0,0-.39,1.14v2.85h-.8v-5h.8V192h0a1.81,1.81,0,0,1,1.64-1,1.55,1.55,0,0,1,1.26.53,2.34,2.34,0,0,1,.43,1.53Z"/><path class="cls-6" d="M162.66,196.19h-.8v-.78h0a1.68,1.68,0,0,1-1.54.9,1.66,1.66,0,0,1-1.17-.4,1.36,1.36,0,0,1-.42-1c0-.93.55-1.48,1.65-1.63l1.5-.21c0-.85-.35-1.28-1-1.28a2.44,2.44,0,0,0-1.63.62v-.82a3.09,3.09,0,0,1,1.69-.47c1.18,0,1.77.62,1.77,1.87Zm-.8-2.53-1.21.16a2.11,2.11,0,0,0-.84.28.79.79,0,0,0-.28.7.75.75,0,0,0,.26.6,1,1,0,0,0,.69.23,1.29,1.29,0,0,0,1-.42,1.47,1.47,0,0,0,.39-1.05Z"/><path class="cls-6" d="M168.21,196.19h-.8v-.79h0a1.66,1.66,0,0,1-1.54.91c-1.2,0-1.79-.71-1.79-2.13v-3h.79v2.86c0,1,.41,1.58,1.22,1.58a1.21,1.21,0,0,0,1-.43,1.68,1.68,0,0,0,.38-1.13v-2.88h.8Z"/><path class="cls-6" d="M172.14,196.14a1.53,1.53,0,0,1-.74.16q-1.32,0-1.32-1.47v-3h-.86v-.68h.86V190l.8-.26v1.48h1.26v.68h-1.26v2.82a1.15,1.15,0,0,0,.18.72.68.68,0,0,0,.56.21.83.83,0,0,0,.52-.16Z"/><path class="cls-6" d="M175.82,192a1,1,0,0,0-.6-.16,1,1,0,0,0-.86.48,2.22,2.22,0,0,0-.35,1.32v2.55h-.8v-5h.8v1h0a1.72,1.72,0,0,1,.53-.82,1.16,1.16,0,0,1,.78-.3,1.22,1.22,0,0,1,.48.07Z"/><path class="cls-6" d="M180.71,193.89h-3.53a1.87,1.87,0,0,0,.45,1.29,1.54,1.54,0,0,0,1.18.45,2.41,2.41,0,0,0,1.55-.56v.76a2.89,2.89,0,0,1-1.74.48,2.11,2.11,0,0,1-1.67-.69,2.79,2.79,0,0,1-.6-1.91,2.73,2.73,0,0,1,.66-1.9,2.12,2.12,0,0,1,1.64-.74,1.86,1.86,0,0,1,1.52.64,2.63,2.63,0,0,1,.54,1.76Zm-.82-.68a1.62,1.62,0,0,0-.34-1.08,1.11,1.11,0,0,0-.91-.39,1.28,1.28,0,0,0-1,.41,1.78,1.78,0,0,0-.49,1.06Z"/><path class="cls-6" d="M185.46,196a3.09,3.09,0,0,1-.5,1.9,1.66,1.66,0,0,1-1.41.66,1.59,1.59,0,0,1-.67-.15v-.75a1.39,1.39,0,0,0,.69.22c.73,0,1.09-.58,1.09-1.75v-4.92h.8Zm-.39-6.06a.51.51,0,0,1-.37-.15.53.53,0,0,1,0-.74.51.51,0,0,1,.37-.15.5.5,0,0,1,.37.15.47.47,0,0,1,.16.37.49.49,0,0,1-.16.37A.5.5,0,0,1,185.07,189.92Z"/><path class="cls-6" d="M189.17,196.31a2.31,2.31,0,0,1-1.77-.71,2.57,2.57,0,0,1-.66-1.85,2.7,2.7,0,0,1,.69-2,2.49,2.49,0,0,1,1.86-.71,2.22,2.22,0,0,1,1.74.69,3.15,3.15,0,0,1,0,3.83A2.43,2.43,0,0,1,189.17,196.31Zm.06-4.57a1.53,1.53,0,0,0-1.22.53,2.15,2.15,0,0,0-.45,1.45,2,2,0,0,0,.45,1.4,1.56,1.56,0,0,0,1.22.51,1.46,1.46,0,0,0,1.19-.5,2.18,2.18,0,0,0,.42-1.43,2.22,2.22,0,0,0-.42-1.45A1.43,1.43,0,0,0,189.23,191.74Z"/><path class="cls-6" d="M197,196.19h-.8v-.79h0a1.65,1.65,0,0,1-1.54.91c-1.19,0-1.79-.71-1.79-2.13v-3h.8v2.86c0,1,.4,1.58,1.21,1.58a1.21,1.21,0,0,0,1-.43,1.63,1.63,0,0,0,.38-1.13v-2.88h.8Z"/><path class="cls-6" d="M202.62,193.89h-3.53a1.87,1.87,0,0,0,.45,1.29,1.54,1.54,0,0,0,1.18.45,2.41,2.41,0,0,0,1.55-.56v.76a2.89,2.89,0,0,1-1.74.48,2.11,2.11,0,0,1-1.67-.69,2.79,2.79,0,0,1-.6-1.91,2.73,2.73,0,0,1,.66-1.9,2.12,2.12,0,0,1,1.64-.74,1.86,1.86,0,0,1,1.52.64,2.63,2.63,0,0,1,.54,1.76Zm-.82-.68a1.62,1.62,0,0,0-.34-1.08,1.12,1.12,0,0,0-.91-.39,1.28,1.28,0,0,0-1,.41,1.78,1.78,0,0,0-.49,1.06Z"/><path class="cls-6" d="M207.87,196.19h-.8v-.79h0a1.65,1.65,0,0,1-1.54.91c-1.19,0-1.79-.71-1.79-2.13v-3h.8v2.86c0,1,.4,1.58,1.21,1.58a1.21,1.21,0,0,0,1-.43,1.63,1.63,0,0,0,.38-1.13v-2.88h.8Z"/><path class="cls-6" d="M212.1,192a1,1,0,0,0-.61-.16,1,1,0,0,0-.86.48,2.23,2.23,0,0,0-.34,1.32v2.55h-.8v-5h.8v1h0a1.71,1.71,0,0,1,.52-.82,1.2,1.2,0,0,1,.79-.3,1.22,1.22,0,0,1,.48.07Z"/><path class="cls-6" d="M213.7,195.07l-.78,2.41h-.58l.58-2.41Z"/><path class="cls-6" d="M70.85,208v-.86a2.35,2.35,0,0,0,1.44.48c.7,0,1-.23,1-.7a.62.62,0,0,0-.09-.34.94.94,0,0,0-.24-.25,3,3,0,0,0-.36-.19L72.2,206l-.59-.26a1.64,1.64,0,0,1-.41-.31,1.08,1.08,0,0,1-.26-.38,1.28,1.28,0,0,1-.08-.5,1.18,1.18,0,0,1,.16-.63,1.32,1.32,0,0,1,.43-.45,2.28,2.28,0,0,1,.61-.28,2.82,2.82,0,0,1,.71-.09,2.86,2.86,0,0,1,1.16.23v.81a2.28,2.28,0,0,0-1.27-.37,1.25,1.25,0,0,0-.4.06.89.89,0,0,0-.31.14.59.59,0,0,0-.2.22.57.57,0,0,0-.07.29.61.61,0,0,0,.07.32.64.64,0,0,0,.2.24,1.56,1.56,0,0,0,.34.18l.44.19a5.68,5.68,0,0,1,.6.26,2.52,2.52,0,0,1,.45.3,1.21,1.21,0,0,1,.28.39,1.18,1.18,0,0,1,.1.52,1.19,1.19,0,0,1-.16.64,1.38,1.38,0,0,1-.44.46,2,2,0,0,1-.63.27,3.08,3.08,0,0,1-.75.09A2.78,2.78,0,0,1,70.85,208Z"/><path class="cls-6" d="M75.8,201.92a.49.49,0,0,1-.36-.15.51.51,0,0,1,0-.74.49.49,0,0,1,.36-.15.54.54,0,0,1,.38.15.5.5,0,0,1,.15.37.51.51,0,0,1-.15.37A.54.54,0,0,1,75.8,201.92Zm.39,6.27h-.8v-5h.8Z"/><path class="cls-6" d="M84,208a2.61,2.61,0,0,1-1.37.35,2.27,2.27,0,0,1-1.72-.7,2.51,2.51,0,0,1-.66-1.8,2.78,2.78,0,0,1,.71-2,2.47,2.47,0,0,1,1.89-.75,2.64,2.64,0,0,1,1.16.24v.83a2.05,2.05,0,0,0-1.19-.4,1.64,1.64,0,0,0-1.26.55,2.14,2.14,0,0,0-.49,1.45,2,2,0,0,0,.46,1.38,1.59,1.59,0,0,0,1.24.51A2,2,0,0,0,84,207.2Z"/><path class="cls-6" d="M89.19,205.89H85.66a1.87,1.87,0,0,0,.45,1.29,1.56,1.56,0,0,0,1.18.45,2.41,2.41,0,0,0,1.55-.56v.76a2.89,2.89,0,0,1-1.74.48,2.08,2.08,0,0,1-1.66-.69,3.18,3.18,0,0,1,0-3.81,2.12,2.12,0,0,1,1.64-.74,1.85,1.85,0,0,1,1.52.64,2.63,2.63,0,0,1,.54,1.76Zm-.82-.68a1.62,1.62,0,0,0-.33-1.08,1.14,1.14,0,0,0-.92-.39,1.28,1.28,0,0,0-1,.41,1.78,1.78,0,0,0-.49,1.06Z"/><path class="cls-6" d="M91.2,208.19h-.8v-7.4h.8Z"/><path class="cls-6" d="M96.4,208.19h-.8v-.78h0a1.82,1.82,0,0,1-2.71.5,1.36,1.36,0,0,1-.42-1c0-.93.55-1.48,1.65-1.63l1.5-.21c0-.85-.34-1.28-1-1.28a2.48,2.48,0,0,0-1.63.62v-.82a3.12,3.12,0,0,1,1.7-.47c1.18,0,1.76.62,1.76,1.87Zm-.8-2.53-1.2.16a2,2,0,0,0-.84.28.8.8,0,0,0-.29.7.78.78,0,0,0,.26.6,1.05,1.05,0,0,0,.7.23,1.27,1.27,0,0,0,1-.42,1.47,1.47,0,0,0,.39-1.05Z"/><path class="cls-6" d="M104.58,203.19l-2,5h-.79l-1.89-5h.88l1.27,3.63a3.34,3.34,0,0,1,.17.7h0a3.23,3.23,0,0,1,.16-.68l1.33-3.65Z"/><path class="cls-6" d="M107.53,208.31a2.31,2.31,0,0,1-1.77-.71,2.57,2.57,0,0,1-.66-1.85,2.7,2.7,0,0,1,.69-2,2.49,2.49,0,0,1,1.86-.71,2.24,2.24,0,0,1,1.74.69,2.72,2.72,0,0,1,.63,1.91,2.67,2.67,0,0,1-.68,1.92A2.39,2.39,0,0,1,107.53,208.31Zm.06-4.57a1.52,1.52,0,0,0-1.22.53,2.15,2.15,0,0,0-.45,1.45,2,2,0,0,0,.45,1.4,1.56,1.56,0,0,0,1.22.51,1.47,1.47,0,0,0,1.19-.5,2.18,2.18,0,0,0,.42-1.43,2.22,2.22,0,0,0-.42-1.45A1.45,1.45,0,0,0,107.59,203.74Z"/><path class="cls-6" d="M115.34,208.19h-.8v-.79h0a1.65,1.65,0,0,1-1.54.91c-1.19,0-1.79-.71-1.79-2.13v-3h.8v2.86c0,1,.4,1.58,1.21,1.58a1.21,1.21,0,0,0,1-.43,1.63,1.63,0,0,0,.38-1.13v-2.88h.8Z"/><path class="cls-6" d="M116.66,208v-.86a2.35,2.35,0,0,0,1.44.48c.7,0,1.05-.23,1.05-.7a.62.62,0,0,0-.09-.34.94.94,0,0,0-.24-.25,2.55,2.55,0,0,0-.37-.19L118,206l-.58-.26a1.53,1.53,0,0,1-.42-.31,1.08,1.08,0,0,1-.26-.38,1.28,1.28,0,0,1-.08-.5,1.18,1.18,0,0,1,.16-.63,1.32,1.32,0,0,1,.43-.45,2.28,2.28,0,0,1,.61-.28,2.82,2.82,0,0,1,.71-.09,2.86,2.86,0,0,1,1.16.23v.81a2.28,2.28,0,0,0-1.27-.37,1.25,1.25,0,0,0-.4.06.89.89,0,0,0-.31.14.59.59,0,0,0-.2.22.57.57,0,0,0-.07.29.61.61,0,0,0,.07.32.64.64,0,0,0,.2.24,1.56,1.56,0,0,0,.34.18l.44.19a5.68,5.68,0,0,1,.6.26,2.52,2.52,0,0,1,.45.3,1.21,1.21,0,0,1,.28.39,1.18,1.18,0,0,1,.1.52,1.19,1.19,0,0,1-.16.64,1.38,1.38,0,0,1-.44.46,2,2,0,0,1-.63.27,3.08,3.08,0,0,1-.75.09A2.78,2.78,0,0,1,116.66,208Z"/><path class="cls-6" d="M127.52,208.19h-.8v-.78h0a1.68,1.68,0,0,1-1.54.9,1.66,1.66,0,0,1-1.17-.4,1.36,1.36,0,0,1-.42-1c0-.93.55-1.48,1.65-1.63l1.5-.21c0-.85-.34-1.28-1-1.28a2.46,2.46,0,0,0-1.63.62v-.82a3.12,3.12,0,0,1,1.7-.47c1.17,0,1.76.62,1.76,1.87Zm-.8-2.53-1.21.16a2.11,2.11,0,0,0-.84.28.82.82,0,0,0-.28.7.78.78,0,0,0,.26.6,1.05,1.05,0,0,0,.7.23,1.29,1.29,0,0,0,1-.42,1.47,1.47,0,0,0,.39-1.05Z"/><path class="cls-6" d="M131.64,204a1,1,0,0,0-.61-.16,1,1,0,0,0-.86.48,2.3,2.3,0,0,0-.34,1.32v2.55H129v-5h.8v1h0a1.71,1.71,0,0,1,.52-.82,1.2,1.2,0,0,1,.79-.3,1.22,1.22,0,0,1,.48.07Z"/><path class="cls-6" d="M135.11,204a1,1,0,0,0-.6-.16,1,1,0,0,0-.86.48,2.23,2.23,0,0,0-.34,1.32v2.55h-.8v-5h.8v1h0a1.64,1.64,0,0,1,.52-.82,1.16,1.16,0,0,1,.78-.3,1.22,1.22,0,0,1,.48.07Z"/><path class="cls-6" d="M139.56,208.19h-.8v-.78h0a1.82,1.82,0,0,1-2.71.5,1.36,1.36,0,0,1-.42-1c0-.93.55-1.48,1.65-1.63l1.5-.21c0-.85-.34-1.28-1-1.28a2.46,2.46,0,0,0-1.63.62v-.82a3.12,3.12,0,0,1,1.7-.47c1.17,0,1.76.62,1.76,1.87Zm-.8-2.53-1.21.16a2.11,2.11,0,0,0-.84.28.82.82,0,0,0-.28.7.78.78,0,0,0,.26.6,1.05,1.05,0,0,0,.7.23,1.27,1.27,0,0,0,1-.42,1.47,1.47,0,0,0,.39-1.05Z"/><path class="cls-6" d="M145.22,208.19h-.8v-2.85c0-1.06-.39-1.6-1.16-1.6a1.27,1.27,0,0,0-1,.46,1.68,1.68,0,0,0-.39,1.14v2.85h-.8v-5h.8V204h0a1.82,1.82,0,0,1,1.64-1,1.55,1.55,0,0,1,1.26.53,2.34,2.34,0,0,1,.43,1.53Z"/><path class="cls-6" d="M151,207.79c0,1.83-.88,2.75-2.64,2.75a3.58,3.58,0,0,1-1.62-.35v-.8a3.35,3.35,0,0,0,1.61.47c1.23,0,1.85-.66,1.85-2v-.54h0a2,2,0,0,1-3.22.29,2.67,2.67,0,0,1-.57-1.79,3.11,3.11,0,0,1,.61-2,2.06,2.06,0,0,1,1.68-.75,1.64,1.64,0,0,1,1.5.81h0v-.69h.8Zm-.8-1.86v-.74a1.42,1.42,0,0,0-.41-1,1.34,1.34,0,0,0-1-.43,1.38,1.38,0,0,0-1.16.54,2.43,2.43,0,0,0-.42,1.52,2,2,0,0,0,.4,1.33,1.31,1.31,0,0,0,1.07.5,1.38,1.38,0,0,0,1.09-.48A1.78,1.78,0,0,0,150.2,205.93Z"/><path class="cls-6" d="M156.64,205.89h-3.53a1.91,1.91,0,0,0,.44,1.29,1.58,1.58,0,0,0,1.19.45,2.41,2.41,0,0,0,1.55-.56v.76a2.89,2.89,0,0,1-1.74.48,2.1,2.1,0,0,1-1.67-.69,2.79,2.79,0,0,1-.6-1.91,2.73,2.73,0,0,1,.66-1.9,2.12,2.12,0,0,1,1.64-.74,1.87,1.87,0,0,1,1.52.64,2.63,2.63,0,0,1,.54,1.76Zm-.82-.68a1.68,1.68,0,0,0-.34-1.08,1.12,1.12,0,0,0-.91-.39,1.32,1.32,0,0,0-1,.41,1.83,1.83,0,0,0-.48,1.06Z"/><path class="cls-6" d="M161.2,208.28a.57.57,0,0,1-.39-.16.54.54,0,0,1,.39-.92.52.52,0,0,1,.38.16.53.53,0,0,1,0,.76A.57.57,0,0,1,161.2,208.28Zm.41-7.09-.1,5h-.66l-.08-5Z"/><text class="cls-7" transform="translate(124.14 115.79)">Chance</text><path class="cls-1" d="M77.89,185.3v-2H70.72a.52.52,0,0,1-.51-.59v-3.37c0-.63.43-.66.51-.66h7.33v-2.19c0-.48.26-.53.37-.53a1,1,0,0,1,.57.31l5.13,4.25a.84.84,0,0,1,.27.52.69.69,0,0,1-.21.5c-.51.5-5.13,4-5.3,4.11a.93.93,0,0,1-.56.29C78.16,185.94,77.89,185.86,77.89,185.3Zm.43.24v0Z"/><line class="cls-8" x1="54" x2="54" y2="36"/><line class="cls-8" y1="54" x2="36" y2="54"/><line class="cls-8" y1="307.96" x2="36" y2="307.96"/><line class="cls-8" x1="54" y1="361.96" x2="54" y2="325.96"/><line class="cls-8" x1="236.83" x2="236.83" y2="36"/><line class="cls-8" x1="290.83" y1="54" x2="254.83" y2="54"/><line class="cls-8" x1="290.83" y1="307.96" x2="254.83" y2="307.96"/><line class="cls-8" x1="236.83" y1="361.96" x2="236.83" y2="325.96"/></svg>