<svg id="Calque_1" data-name="Calque 1" xmlns="http://www.w3.org/2000/svg" viewBox="0 0 290.83 361.96"><defs><style>.cls-1,.cls-9{fill:#e20717;}.cls-2,.cls-3,.cls-4{fill:#fff;}.cls-3{font-size:19.62px;font-family:TwCenMT-CondensedExtraBold, Tw Cen MT Condensed Extra Bold;font-weight:800;}.cls-4{stroke:#fff;stroke-miterlimit:10;stroke-width:0.25px;}.cls-5{opacity:0.2;}.cls-6{font-size:10px;fill:#000100;font-family:SegoeUI, Segoe UI;}.cls-7{letter-spacing:-0.03em;}.cls-8{letter-spacing:-0.04em;}.cls-9{font-size:12px;font-family:SegoeUI-Bold, Segoe UI;font-weight:700;}.cls-10{letter-spacing:-0.04em;}.cls-11{letter-spacing:-0.03em;}.cls-12{fill:none;stroke:#000;stroke-width:0.3px;}</style></defs><title>Carte_rouge_46</title><path class="cls-1" d="M65.53,39.25H225.31a22.09,22.09,0,0,1,22.14,22.14V300.57a22.1,22.1,0,0,1-22.14,22.14H65.53a22.1,22.1,0,0,1-22.15-22.14V61.39A22.09,22.09,0,0,1,65.53,39.25Z"/><path class="cls-2" d="M77.48,96.34h136a17,17,0,0,1,17,17V280.55a17,17,0,0,1-17,17.05h-136a17,17,0,0,1-17-17.05V113.39A17,17,0,0,1,77.48,96.34Z"/><text class="cls-3" transform="translate(86.42 81.64)"><tspan xml:space="preserve">Escape the   ab</tspan></text><path class="cls-4" d="M176.69,64l-6.41,0a.74.74,0,0,0-.54.23.77.77,0,0,0,0,1.1.77.77,0,0,0,.47.22l.1,13.29a3.29,3.29,0,0,0,5.63,2.28,3.26,3.26,0,0,0,.95-2.33l-.1-13.29a.83.83,0,0,0,.46-.22.74.74,0,0,0,.22-.56.77.77,0,0,0-.78-.77Zm.27.78a.27.27,0,0,1-.26.26h-.23l-3.93,0a.25.25,0,0,0-.25.26.26.26,0,0,0,.26.26l3.72,0,.1,13.28a2.71,2.71,0,0,1-.8,2,2.76,2.76,0,0,1-4.74-1.92l-.1-13.28h.78a.26.26,0,1,0,0-.52h-1.21a.27.27,0,0,1-.26-.26.27.27,0,0,1,.08-.19.27.27,0,0,1,.18-.07l6.4,0a.27.27,0,0,1,.27.26Z"/><path class="cls-4" d="M175.54,71.9a1,1,0,0,0-.65.23.55.55,0,0,1-.35.13.54.54,0,0,1-.35-.13,1,1,0,0,0-.64-.21,1.07,1.07,0,0,0-.65.22.5.5,0,0,1-.35.13.53.53,0,0,1-.35-.12,1,1,0,0,0-.64-.22.27.27,0,0,0-.19.08.26.26,0,0,0-.07.18l0,2.84a.26.26,0,0,0,.52,0l0-2.5a.24.24,0,0,1,.09.06,1.05,1.05,0,0,0,.65.21,1,1,0,0,0,.64-.22.52.52,0,0,1,.35-.13.5.5,0,0,1,.35.12,1,1,0,0,0,.65.22,1.07,1.07,0,0,0,.64-.23l.09-.06.05,6.38a1.74,1.74,0,0,1-1.72,1.74,1.73,1.73,0,0,1-1.74-1.72l0-2.83a.26.26,0,0,0-.26-.26.26.26,0,0,0-.26.27l0,2.83a2.25,2.25,0,0,0,2.27,2.23,2.19,2.19,0,0,0,1.58-.67,2.28,2.28,0,0,0,.65-1.6l0-6.68a.27.27,0,0,0-.25-.28Z"/><path class="cls-4" d="M174.25,67.67a.26.26,0,0,0,.26.26.25.25,0,0,1,.26.26.24.24,0,0,1-.07.18.25.25,0,0,1-.18.08.27.27,0,0,1-.27-.26.26.26,0,0,0-.26-.26.25.25,0,0,0-.25.26.78.78,0,0,0,.78.78.81.81,0,0,0,.55-.23.78.78,0,0,0-.56-1.33.26.26,0,0,0-.26.26Z"/><path class="cls-4" d="M173.09,70.83a.78.78,0,0,0-.56-1.33.26.26,0,0,0,0,.52.25.25,0,0,1,.18.08.23.23,0,0,1,.08.18.25.25,0,0,1-.08.18.23.23,0,0,1-.18.08.29.29,0,0,1-.18-.07.27.27,0,0,1-.08-.19.26.26,0,0,0-.52,0,.78.78,0,0,0,.78.77.75.75,0,0,0,.55-.23Z"/><g class="cls-5"><path class="cls-1" d="M119,165.72a22.72,22.72,0,0,1,45.44,0v37.43h15.17V165.72a37.9,37.9,0,1,0-75.79,0"/><path class="cls-1" d="M103.77,165.72"/><path class="cls-1" d="M154.25,225a12.52,12.52,0,1,1-12.52-12.52A12.52,12.52,0,0,1,154.25,225"/><path class="cls-1" d="M112.07,224.87a29.51,29.51,0,1,1,29.51,29.51,29.55,29.55,0,0,1-29.51-29.51m-15.17,0a44.69,44.69,0,1,0,44.68-44.69A44.73,44.73,0,0,0,96.9,224.87"/><line class="cls-1" x1="103.77" y1="165.72" x2="118.95" y2="165.72"/></g><text class="cls-6" transform="translate(70.99 136.22)">Les auteur.e.s de l&apos;UNIGE peuvent <tspan x="0" y="12">se faire aider pour couvrir des </tspan><tspan x="0" y="24">frais de publication en accès libre.</tspan><tspan class="cls-7" x="0" y="60">R</tspan><tspan x="5.69" y="60">éponse : </tspan><tspan class="cls-8" x="45.43" y="60">V</tspan><tspan x="51.27" y="60">rai</tspan><tspan x="0" y="75">Un fonds d&apos;aide à la publication </tspan><tspan x="0" y="87">en Open Access existe depuis </tspan><tspan x="0" y="99">janvier 2018. Il fournit une aide </tspan><tspan x="0" y="111">financière pour les auteur.e.s qui </tspan><tspan x="0" y="123">remplissent certains critères.</tspan></text><text class="cls-9" transform="translate(115.31 117.75)"><tspan class="cls-10">V</tspan><tspan x="7.58" y="0">rai/</tspan><tspan class="cls-11" x="27.54" y="0">F</tspan><tspan x="33.43" y="0">aux</tspan></text><line class="cls-12" x1="54" x2="54" y2="36"/><line class="cls-12" y1="54" x2="36" y2="54"/><line class="cls-12" y1="307.96" x2="36" y2="307.96"/><line class="cls-12" x1="54" y1="361.96" x2="54" y2="325.96"/><line class="cls-12" x1="236.83" x2="236.83" y2="36"/><line class="cls-12" x1="290.83" y1="54" x2="254.83" y2="54"/><line class="cls-12" x1="290.83" y1="307.96" x2="254.83" y2="307.96"/><line class="cls-12" x1="236.83" y1="361.96" x2="236.83" y2="325.96"/></svg>