<svg id="Calque_1" data-name="Calque 1" xmlns="http://www.w3.org/2000/svg" viewBox="0 0 290.83 361.96"><defs><style>.cls-1,.cls-7{fill:#e20717;}.cls-2,.cls-3,.cls-4{fill:#fff;}.cls-3{font-size:19.62px;font-family:TwCenMT-CondensedExtraBold, Tw Cen MT Condensed Extra Bold;font-weight:800;}.cls-4{stroke:#fff;stroke-miterlimit:10;stroke-width:0.25px;}.cls-5{opacity:0.2;}.cls-6{fill:#000100;}.cls-7{font-size:12px;font-family:SegoeUI-Bold, Segoe UI;font-weight:700;}.cls-8{letter-spacing:-0.04em;}.cls-9{letter-spacing:-0.03em;}.cls-10{fill:none;stroke:#000;stroke-width:0.3px;}</style></defs><title>Carte_rouge_44</title><rect class="cls-1" x="43.38" y="39.25" width="204.07" height="283.46" rx="22.14"/><path class="cls-2" d="M77.05,95.37h136a17,17,0,0,1,17,17V279.58a17,17,0,0,1-17,17.05h-136a17,17,0,0,1-17-17.05V112.42A17,17,0,0,1,77.05,95.37Z"/><text class="cls-3" transform="translate(88.62 80.96)"><tspan xml:space="preserve">Escape the   ab</tspan></text><path class="cls-4" d="M178.89,63.34l-6.41,0a.78.78,0,0,0-.55.23.8.8,0,0,0-.22.55.76.76,0,0,0,.23.55.82.82,0,0,0,.47.22l.1,13.28a3.29,3.29,0,1,0,6.58,0L179,64.89a.78.78,0,0,0,.46-.23.75.75,0,0,0,.22-.55.77.77,0,0,0-.78-.77Zm.26.77a.26.26,0,0,1-.07.19.25.25,0,0,1-.18.08h-.24l-3.92,0a.26.26,0,1,0,0,.52l3.72,0,.1,13.28a2.77,2.77,0,1,1-5.54,0l-.1-13.28h.78a.25.25,0,0,0,.25-.27.26.26,0,0,0-.26-.25h-1.21a.24.24,0,0,1-.18-.07.25.25,0,0,1-.08-.18.32.32,0,0,1,.07-.19.33.33,0,0,1,.19-.08l6.4,0a.25.25,0,0,1,.26.25Z"/><path class="cls-4" d="M177.74,71.22a1,1,0,0,0-.65.22.5.5,0,0,1-.35.13.53.53,0,0,1-.35-.12,1,1,0,0,0-.64-.22,1.11,1.11,0,0,0-.65.23.5.5,0,0,1-.35.13.54.54,0,0,1-.35-.13,1.05,1.05,0,0,0-.65-.21.27.27,0,0,0-.18.08.24.24,0,0,0-.07.18l0,2.83a.26.26,0,0,0,.26.26.26.26,0,0,0,.26-.26l0-2.51.09.06a1,1,0,0,0,.65.22,1,1,0,0,0,.64-.23.55.55,0,0,1,.35-.13.5.5,0,0,1,.35.13,1,1,0,0,0,.65.21,1,1,0,0,0,.64-.22l.09-.06.05,6.38a1.74,1.74,0,0,1-1.72,1.74,1.72,1.72,0,0,1-1.74-1.72l0-2.83a.27.27,0,0,0-.27-.26.26.26,0,0,0-.25.26l0,2.84a2.25,2.25,0,0,0,3.85,1.56,2.28,2.28,0,0,0,.65-1.6L178,71.5a.27.27,0,0,0-.25-.28Z"/><path class="cls-4" d="M176.45,67a.26.26,0,0,0,.26.26.26.26,0,0,1,.26.25.26.26,0,0,1-.07.19.27.27,0,0,1-.19.08.26.26,0,0,1-.26-.26.26.26,0,0,0-.26-.26.26.26,0,0,0-.26.26.78.78,0,0,0,.79.77.76.76,0,0,0,.55-.23.8.8,0,0,0,.22-.55.77.77,0,0,0-.78-.77.26.26,0,0,0-.26.26Z"/><path class="cls-4" d="M175.29,70.14a.75.75,0,0,0,.23-.55.79.79,0,0,0-.79-.77.26.26,0,0,0-.26.26.27.27,0,0,0,.27.26.24.24,0,0,1,.18.07.27.27,0,0,1,.08.19.27.27,0,0,1-.26.26.23.23,0,0,1-.18-.08.25.25,0,0,1-.08-.18.26.26,0,0,0-.26-.26.26.26,0,0,0-.26.26.78.78,0,0,0,.78.78.76.76,0,0,0,.55-.24Z"/><g class="cls-5"><path class="cls-1" d="M120.25,165.65a22.72,22.72,0,0,1,45.44,0v37.44h15.17V165.65a37.9,37.9,0,0,0-75.79,0"/><path class="cls-1" d="M105.07,165.65"/><path class="cls-1" d="M155.55,224.94A12.52,12.52,0,1,1,143,212.42a12.52,12.52,0,0,1,12.52,12.52"/><path class="cls-1" d="M113.37,224.81a29.51,29.51,0,1,1,29.51,29.51,29.55,29.55,0,0,1-29.51-29.51m-15.17,0a44.69,44.69,0,1,0,44.68-44.69A44.73,44.73,0,0,0,98.2,224.81"/><line class="cls-1" x1="105.07" y1="165.65" x2="120.25" y2="165.65"/></g><path class="cls-6" d="M74.52,136.07H70.88v-7h.82v6.26h2.82Z"/><path class="cls-6" d="M76.18,129.06v2.19h-.71v-2.19Z"/><path class="cls-6" d="M83.31,136.07H82.4l-.74-2h-3l-.7,2h-.91l2.69-7h.85Zm-1.92-2.7-1.1-3a2.74,2.74,0,0,1-.1-.47h0a2.42,2.42,0,0,1-.12.47l-1.08,3Z"/><path class="cls-6" d="M86.84,131.88a1,1,0,0,0-.6-.16,1,1,0,0,0-.86.48,2.22,2.22,0,0,0-.35,1.32v2.55h-.8v-5H85v1h0a1.81,1.81,0,0,1,.53-.83,1.2,1.2,0,0,1,.78-.29,1.22,1.22,0,0,1,.48.07Z"/><path class="cls-6" d="M91.12,135.84a2.63,2.63,0,0,1-1.37.34,2.25,2.25,0,0,1-1.72-.69,2.54,2.54,0,0,1-.66-1.81,2.73,2.73,0,0,1,.71-2A2.47,2.47,0,0,1,90,131a2.67,2.67,0,0,1,1.16.24V132a2,2,0,0,0-1.19-.39,1.64,1.64,0,0,0-1.26.55,2.09,2.09,0,0,0-.49,1.45,2,2,0,0,0,.46,1.38,1.59,1.59,0,0,0,1.24.51,2,2,0,0,0,1.23-.43Z"/><path class="cls-6" d="M96.48,136.07h-.8v-2.88c0-1.05-.39-1.57-1.16-1.57a1.26,1.26,0,0,0-1,.46,1.65,1.65,0,0,0-.4,1.15v2.84h-.8v-7.41h.8v3.24h0a1.82,1.82,0,0,1,1.64-1c1.13,0,1.69.68,1.69,2Z"/><path class="cls-6" d="M98.4,129.8a.51.51,0,0,1-.37-.15.53.53,0,0,1,0-.74.51.51,0,0,1,.37-.15.5.5,0,0,1,.37.15.51.51,0,0,1,.16.37.54.54,0,0,1-.16.37A.5.5,0,0,1,98.4,129.8Zm.39,6.27H98v-5h.8Z"/><path class="cls-6" d="M104.34,131.07l-2,5h-.79l-1.89-5h.88l1.27,3.63a3.34,3.34,0,0,1,.17.7h0a3.23,3.23,0,0,1,.16-.68l1.33-3.65Z"/><path class="cls-6" d="M109.22,133.77h-3.53a1.87,1.87,0,0,0,.45,1.29,1.54,1.54,0,0,0,1.18.45,2.46,2.46,0,0,0,1.55-.56v.76a3,3,0,0,1-1.74.47,2.11,2.11,0,0,1-1.67-.68,2.79,2.79,0,0,1-.6-1.91,2.76,2.76,0,0,1,.66-1.91,2.12,2.12,0,0,1,1.64-.73,1.88,1.88,0,0,1,1.52.63,2.67,2.67,0,0,1,.54,1.77Zm-.82-.68a1.62,1.62,0,0,0-.34-1.08,1.12,1.12,0,0,0-.91-.39,1.28,1.28,0,0,0-1,.41,1.78,1.78,0,0,0-.49,1.06Z"/><path class="cls-6" d="M115.26,136.18a2.31,2.31,0,0,1-1.77-.7,2.57,2.57,0,0,1-.66-1.85,2.7,2.7,0,0,1,.69-2,2.46,2.46,0,0,1,1.86-.71,2.24,2.24,0,0,1,1.74.69,2.72,2.72,0,0,1,.63,1.91,2.69,2.69,0,0,1-.68,1.91A2.36,2.36,0,0,1,115.26,136.18Zm.06-4.56a1.52,1.52,0,0,0-1.22.53,2.15,2.15,0,0,0-.45,1.45,2,2,0,0,0,.45,1.4,1.55,1.55,0,0,0,1.22.51,1.47,1.47,0,0,0,1.19-.5,2.18,2.18,0,0,0,.42-1.43,2.22,2.22,0,0,0-.42-1.45A1.45,1.45,0,0,0,115.32,131.62Z"/><path class="cls-6" d="M123.07,136.07h-.8v-.79h0a1.65,1.65,0,0,1-1.54.9c-1.19,0-1.79-.71-1.79-2.12v-3h.8v2.86c0,1,.4,1.58,1.21,1.58a1.21,1.21,0,0,0,1-.43,1.68,1.68,0,0,0,.38-1.13v-2.88h.8Z"/><path class="cls-6" d="M128.62,131.07l-2,5h-.79l-1.89-5h.87l1.27,3.63a2.89,2.89,0,0,1,.18.7h0a2.71,2.71,0,0,1,.16-.68l1.32-3.65Z"/><path class="cls-6" d="M133.5,133.77H130a1.87,1.87,0,0,0,.45,1.29,1.54,1.54,0,0,0,1.18.45,2.46,2.46,0,0,0,1.55-.56v.76a3,3,0,0,1-1.74.47,2.09,2.09,0,0,1-1.67-.68,2.79,2.79,0,0,1-.6-1.91,2.76,2.76,0,0,1,.66-1.91,2.12,2.12,0,0,1,1.64-.73,1.9,1.9,0,0,1,1.52.63,2.67,2.67,0,0,1,.54,1.77Zm-.82-.68a1.68,1.68,0,0,0-.34-1.08,1.12,1.12,0,0,0-.91-.39,1.32,1.32,0,0,0-1,.41,1.83,1.83,0,0,0-.48,1.06Z"/><path class="cls-6" d="M137.31,131.88a.93.93,0,0,0-.6-.16,1,1,0,0,0-.86.48,2.23,2.23,0,0,0-.34,1.32v2.55h-.8v-5h.8v1h0a1.79,1.79,0,0,1,.52-.83,1.22,1.22,0,0,1,.79-.29,1.19,1.19,0,0,1,.47.07Z"/><path class="cls-6" d="M140.5,136a1.57,1.57,0,0,1-.74.15c-.88,0-1.32-.48-1.32-1.46v-3h-.86v-.68h.86v-1.22l.8-.26v1.48h1.26v.68h-1.26v2.82a1.23,1.23,0,0,0,.17.72.71.71,0,0,0,.57.21.78.78,0,0,0,.52-.17Z"/><path class="cls-6" d="M145.59,133.77h-3.53a1.87,1.87,0,0,0,.45,1.29,1.56,1.56,0,0,0,1.18.45,2.44,2.44,0,0,0,1.55-.56v.76a3,3,0,0,1-1.74.47,2.09,2.09,0,0,1-1.66-.68,3.19,3.19,0,0,1,0-3.82,2.12,2.12,0,0,1,1.65-.73,1.86,1.86,0,0,1,1.51.63,2.67,2.67,0,0,1,.54,1.77Zm-.82-.68a1.62,1.62,0,0,0-.33-1.08,1.14,1.14,0,0,0-.92-.39,1.28,1.28,0,0,0-1,.41,1.84,1.84,0,0,0-.49,1.06Z"/><path class="cls-6" d="M154.77,133.23c0,2-.89,3-2.66,3s-2.55-.94-2.55-2.83v-4.29h.82v4.23c0,1.44.61,2.16,1.82,2.16s1.75-.7,1.75-2.08v-4.31h.82Z"/><path class="cls-6" d="M162.16,136.07h-1l-3.61-5.58a2.58,2.58,0,0,1-.22-.44h0a6.5,6.5,0,0,1,0,1v5.06h-.82v-7h1.06l3.51,5.5a4.12,4.12,0,0,1,.28.47h0a7.82,7.82,0,0,1,0-1v-4.94h.82Z"/><path class="cls-6" d="M164.82,136.07H164v-7h.82Z"/><path class="cls-6" d="M171.9,135.59a4.69,4.69,0,0,1-2.35.59,3.19,3.19,0,0,1-2.42-1,3.55,3.55,0,0,1-.93-2.56,3.61,3.61,0,0,1,1-2.67,3.5,3.5,0,0,1,2.6-1,4.35,4.35,0,0,1,1.92.37v.91a3.64,3.64,0,0,0-2-.54,2.52,2.52,0,0,0-1.93.81,3.39,3.39,0,0,0-.05,4.19,2.48,2.48,0,0,0,1.89.76,2.89,2.89,0,0,0,1.42-.33v-2h-1.53v-.75h2.36Z"/><path class="cls-6" d="M177.23,136.07h-3.71v-7h3.56v.75h-2.74v2.33h2.53v.73h-2.53v2.45h2.89Z"/><path class="cls-6" d="M183.82,131.88a1,1,0,0,0-.61-.16,1,1,0,0,0-.85.48,2.22,2.22,0,0,0-.35,1.32v2.55h-.8v-5h.8v1h0a1.88,1.88,0,0,1,.52-.83,1.24,1.24,0,0,1,.79-.29,1.22,1.22,0,0,1,.48.07Z"/><path class="cls-6" d="M188.71,133.77h-3.53a1.87,1.87,0,0,0,.45,1.29,1.54,1.54,0,0,0,1.18.45,2.46,2.46,0,0,0,1.55-.56v.76a3,3,0,0,1-1.74.47,2.11,2.11,0,0,1-1.67-.68,2.79,2.79,0,0,1-.6-1.91,2.76,2.76,0,0,1,.66-1.91,2.12,2.12,0,0,1,1.64-.73,1.88,1.88,0,0,1,1.52.63,2.67,2.67,0,0,1,.54,1.77Zm-.82-.68a1.68,1.68,0,0,0-.34-1.08,1.12,1.12,0,0,0-.91-.39,1.32,1.32,0,0,0-1,.41,1.83,1.83,0,0,0-.48,1.06Z"/><path class="cls-6" d="M193.33,135.84a2.63,2.63,0,0,1-1.37.34,2.29,2.29,0,0,1-1.73-.69,2.53,2.53,0,0,1-.65-1.81,2.77,2.77,0,0,1,.7-2,2.5,2.5,0,0,1,1.89-.75,2.72,2.72,0,0,1,1.17.24V132a2.07,2.07,0,0,0-1.2-.39,1.61,1.61,0,0,0-1.25.55,2.09,2.09,0,0,0-.49,1.45,2,2,0,0,0,.46,1.38,1.59,1.59,0,0,0,1.24.51,2,2,0,0,0,1.23-.43Z"/><path class="cls-6" d="M198.56,133.77H195a1.91,1.91,0,0,0,.44,1.29,1.58,1.58,0,0,0,1.19.45,2.46,2.46,0,0,0,1.55-.56v.76a3,3,0,0,1-1.74.47,2.09,2.09,0,0,1-1.67-.68,2.79,2.79,0,0,1-.6-1.91,2.76,2.76,0,0,1,.66-1.91,2.12,2.12,0,0,1,1.64-.73,1.9,1.9,0,0,1,1.52.63,2.67,2.67,0,0,1,.54,1.77Zm-.82-.68a1.68,1.68,0,0,0-.34-1.08,1.12,1.12,0,0,0-.91-.39,1.32,1.32,0,0,0-1,.41,1.91,1.91,0,0,0-.49,1.06Z"/><path class="cls-6" d="M203.92,136.07h-.8v-2.85c0-1.07-.39-1.6-1.17-1.6a1.23,1.23,0,0,0-1,.46,1.68,1.68,0,0,0-.39,1.14v2.85h-.8v-5h.8v.83h0a1.8,1.8,0,0,1,1.64-1,1.54,1.54,0,0,1,1.25.53,2.35,2.35,0,0,1,.44,1.53Z"/><path class="cls-6" d="M205.12,135.89V135a2.4,2.4,0,0,0,1.44.48c.71,0,1.06-.23,1.06-.7a.59.59,0,0,0-.09-.34.75.75,0,0,0-.25-.25,2,2,0,0,0-.36-.19l-.44-.18a5.6,5.6,0,0,1-.59-.27,1.74,1.74,0,0,1-.42-.3,1.19,1.19,0,0,1-.25-.38,1.33,1.33,0,0,1-.09-.51,1.27,1.27,0,0,1,.16-.62,1.42,1.42,0,0,1,.43-.45,2.06,2.06,0,0,1,.62-.28,2.76,2.76,0,0,1,.71-.09,2.86,2.86,0,0,1,1.16.22V132a2.27,2.27,0,0,0-1.27-.36,1.7,1.7,0,0,0-.41,0,1.28,1.28,0,0,0-.31.15.7.7,0,0,0-.2.22.69.69,0,0,0-.07.29.72.72,0,0,0,.07.32.79.79,0,0,0,.21.24,1.29,1.29,0,0,0,.33.18l.45.18c.22.09.42.18.59.27a1.68,1.68,0,0,1,.45.3,1.11,1.11,0,0,1,.29.39,1.18,1.18,0,0,1,.1.52,1.29,1.29,0,0,1-.16.64,1.38,1.38,0,0,1-.44.46,2,2,0,0,1-.63.27,3.67,3.67,0,0,1-.75.08A3,3,0,0,1,205.12,135.89Z"/><path class="cls-6" d="M213.69,133.77h-3.53a1.87,1.87,0,0,0,.45,1.29,1.54,1.54,0,0,0,1.18.45,2.46,2.46,0,0,0,1.55-.56v.76a3,3,0,0,1-1.74.47,2.11,2.11,0,0,1-1.67-.68,2.79,2.79,0,0,1-.6-1.91,2.76,2.76,0,0,1,.66-1.91,2.12,2.12,0,0,1,1.64-.73,1.88,1.88,0,0,1,1.52.63,2.67,2.67,0,0,1,.54,1.77Zm-.82-.68a1.68,1.68,0,0,0-.34-1.08,1.12,1.12,0,0,0-.91-.39,1.28,1.28,0,0,0-1,.41,1.78,1.78,0,0,0-.49,1.06Z"/><path class="cls-6" d="M71.58,148.07h-.8v-7.41h.8Z"/><path class="cls-6" d="M77.22,145.77H73.69a1.87,1.87,0,0,0,.45,1.29,1.54,1.54,0,0,0,1.18.45,2.46,2.46,0,0,0,1.55-.56v.76a3,3,0,0,1-1.74.47,2.11,2.11,0,0,1-1.67-.68,2.79,2.79,0,0,1-.6-1.91,2.76,2.76,0,0,1,.66-1.91,2.12,2.12,0,0,1,1.64-.73,1.88,1.88,0,0,1,1.52.63,2.67,2.67,0,0,1,.54,1.77Zm-.82-.68a1.68,1.68,0,0,0-.34-1.08,1.12,1.12,0,0,0-.91-.39,1.32,1.32,0,0,0-1,.41,1.83,1.83,0,0,0-.48,1.06Z"/><path class="cls-6" d="M78.13,147.89V147a2.35,2.35,0,0,0,1.44.48c.7,0,1.05-.23,1.05-.7a.59.59,0,0,0-.09-.34.82.82,0,0,0-.24-.25,2.55,2.55,0,0,0-.37-.19l-.44-.18c-.22-.09-.42-.18-.59-.27a2.25,2.25,0,0,1-.42-.3,1.19,1.19,0,0,1-.25-.38,1.33,1.33,0,0,1-.08-.51,1.17,1.17,0,0,1,.16-.62,1.32,1.32,0,0,1,.43-.45,2,2,0,0,1,.61-.28,2.76,2.76,0,0,1,.71-.09,2.86,2.86,0,0,1,1.16.22V144a2.27,2.27,0,0,0-1.27-.36,1.62,1.62,0,0,0-.4,0,1.12,1.12,0,0,0-.31.15.53.53,0,0,0-.2.22.57.57,0,0,0-.07.29.61.61,0,0,0,.07.32.64.64,0,0,0,.2.24,1.36,1.36,0,0,0,.34.18l.44.18.6.27a1.79,1.79,0,0,1,.44.3,1.11,1.11,0,0,1,.29.39,1.18,1.18,0,0,1,.1.52,1.19,1.19,0,0,1-.16.64,1.38,1.38,0,0,1-.44.46,2,2,0,0,1-.63.27,3.67,3.67,0,0,1-.75.08A2.9,2.9,0,0,1,78.13,147.89Z"/><path class="cls-6" d="M86.23,147.34h0v3h-.8v-7.3h.8V144h0A1.88,1.88,0,0,1,88,143a1.83,1.83,0,0,1,1.51.67,2.8,2.8,0,0,1,.54,1.8,3.07,3.07,0,0,1-.61,2,2,2,0,0,1-1.67.75A1.67,1.67,0,0,1,86.23,147.34Zm0-2v.7a1.53,1.53,0,0,0,.4,1.05,1.34,1.34,0,0,0,1,.43,1.36,1.36,0,0,0,1.14-.56,2.56,2.56,0,0,0,.41-1.54,2,2,0,0,0-.39-1.31,1.25,1.25,0,0,0-1-.48,1.42,1.42,0,0,0-1.12.49A1.75,1.75,0,0,0,86.21,145.33Z"/><path class="cls-6" d="M95.33,148.07h-.8v-.79h0a1.64,1.64,0,0,1-1.54.9c-1.19,0-1.79-.71-1.79-2.12v-3H92v2.86c0,1,.4,1.58,1.21,1.58a1.21,1.21,0,0,0,1-.43,1.63,1.63,0,0,0,.38-1.13v-2.88h.8Z"/><path class="cls-6" d="M97.77,147.34h0v.73H97v-7.41h.8V144h0a1.88,1.88,0,0,1,1.73-1,1.81,1.81,0,0,1,1.5.67,2.74,2.74,0,0,1,.55,1.8,3.13,3.13,0,0,1-.61,2,2,2,0,0,1-1.67.75A1.65,1.65,0,0,1,97.77,147.34Zm0-2v.7a1.48,1.48,0,0,0,.4,1.05,1.34,1.34,0,0,0,1,.43,1.36,1.36,0,0,0,1.14-.56,2.56,2.56,0,0,0,.41-1.54,2,2,0,0,0-.39-1.31,1.26,1.26,0,0,0-1-.48,1.45,1.45,0,0,0-1.13.49A1.79,1.79,0,0,0,97.75,145.33Z"/><path class="cls-6" d="M103.63,148.07h-.8v-7.41h.8Z"/><path class="cls-6" d="M105.66,141.8a.51.51,0,0,1-.37-.15.53.53,0,0,1,0-.74.51.51,0,0,1,.37-.15.5.5,0,0,1,.37.15.47.47,0,0,1,.16.37.53.53,0,0,1-.53.52Zm.39,6.27h-.8v-5h.8Z"/><path class="cls-6" d="M111.08,147.84a2.6,2.6,0,0,1-1.37.34,2.25,2.25,0,0,1-1.72-.69,2.54,2.54,0,0,1-.66-1.81,2.78,2.78,0,0,1,.71-2,2.47,2.47,0,0,1,1.89-.75,2.67,2.67,0,0,1,1.16.24V144a2,2,0,0,0-1.19-.39,1.64,1.64,0,0,0-1.26.55,2.09,2.09,0,0,0-.49,1.45,2,2,0,0,0,.46,1.38,1.59,1.59,0,0,0,1.24.51,2,2,0,0,0,1.23-.43Z"/><path class="cls-6" d="M115.87,148.07h-.8v-.78h0a1.69,1.69,0,0,1-1.54.89,1.65,1.65,0,0,1-1.17-.39,1.39,1.39,0,0,1-.42-1c0-.94.55-1.48,1.65-1.63l1.5-.21c0-.85-.35-1.28-1-1.28a2.46,2.46,0,0,0-1.63.62v-.82a3.12,3.12,0,0,1,1.7-.47c1.17,0,1.76.62,1.76,1.86Zm-.8-2.53-1.21.16a2.11,2.11,0,0,0-.84.28.78.78,0,0,0-.28.7.79.79,0,0,0,.26.6,1.05,1.05,0,0,0,.7.23,1.29,1.29,0,0,0,1-.42,1.48,1.48,0,0,0,.39-1.05Z"/><path class="cls-6" d="M119.7,148a1.61,1.61,0,0,1-.75.15c-.88,0-1.31-.48-1.31-1.46v-3h-.86v-.68h.86v-1.22l.8-.26v1.48h1.26v.68h-1.26v2.82a1.16,1.16,0,0,0,.17.72.68.68,0,0,0,.57.21.79.79,0,0,0,.52-.17Z"/><path class="cls-6" d="M121.18,141.8a.52.52,0,1,1,0-1,.51.51,0,0,1,.37.15.5.5,0,0,1,.15.37.53.53,0,0,1-.15.37A.51.51,0,0,1,121.18,141.8Zm.39,6.27h-.8v-5h.8Z"/><path class="cls-6" d="M125.28,148.18a2.31,2.31,0,0,1-1.77-.7,2.57,2.57,0,0,1-.66-1.85,2.7,2.7,0,0,1,.69-2,2.46,2.46,0,0,1,1.86-.71,2.24,2.24,0,0,1,1.74.69,2.72,2.72,0,0,1,.63,1.91,2.69,2.69,0,0,1-.68,1.91A2.36,2.36,0,0,1,125.28,148.18Zm.06-4.56a1.52,1.52,0,0,0-1.22.53,2.15,2.15,0,0,0-.45,1.45,2,2,0,0,0,.45,1.4,1.55,1.55,0,0,0,1.22.51,1.48,1.48,0,0,0,1.19-.5,2.18,2.18,0,0,0,.42-1.43,2.22,2.22,0,0,0-.42-1.45A1.46,1.46,0,0,0,125.34,143.62Z"/><path class="cls-6" d="M133.2,148.07h-.8v-2.85c0-1.07-.39-1.6-1.16-1.6a1.25,1.25,0,0,0-1,.46,1.68,1.68,0,0,0-.39,1.14v2.85h-.8v-5h.8v.83h0a1.81,1.81,0,0,1,1.64-1,1.53,1.53,0,0,1,1.25.53,2.35,2.35,0,0,1,.44,1.53Z"/><path class="cls-6" d="M134.4,147.89V147a2.4,2.4,0,0,0,1.44.48c.71,0,1.06-.23,1.06-.7a.59.59,0,0,0-.09-.34.75.75,0,0,0-.25-.25,2,2,0,0,0-.36-.19l-.44-.18c-.22-.09-.42-.18-.59-.27a2.25,2.25,0,0,1-.42-.3,1.19,1.19,0,0,1-.25-.38,1.33,1.33,0,0,1-.09-.51,1.18,1.18,0,0,1,.17-.62,1.32,1.32,0,0,1,.43-.45,1.9,1.9,0,0,1,.61-.28,2.76,2.76,0,0,1,.71-.09,2.86,2.86,0,0,1,1.16.22V144a2.27,2.27,0,0,0-1.27-.36,1.62,1.62,0,0,0-.4,0,1.12,1.12,0,0,0-.31.15.63.63,0,0,0-.21.22.69.69,0,0,0-.07.29.72.72,0,0,0,.07.32.79.79,0,0,0,.21.24,1.48,1.48,0,0,0,.33.18l.45.18.6.27a1.79,1.79,0,0,1,.44.3,1.11,1.11,0,0,1,.29.39,1.18,1.18,0,0,1,.1.52,1.19,1.19,0,0,1-.16.64,1.38,1.38,0,0,1-.44.46,2,2,0,0,1-.63.27,3.67,3.67,0,0,1-.75.08A3,3,0,0,1,134.4,147.89Z"/><path class="cls-6" d="M146,148.07h-.8v-.85h0a2,2,0,0,1-3.23.29,2.78,2.78,0,0,1-.56-1.83,3,3,0,0,1,.62-2,2.06,2.06,0,0,1,1.67-.75,1.62,1.62,0,0,1,1.5.81h0v-3.1h.8Zm-.8-2.26v-.74a1.46,1.46,0,0,0-.4-1,1.36,1.36,0,0,0-1-.42,1.37,1.37,0,0,0-1.15.54,2.35,2.35,0,0,0-.42,1.48,2.11,2.11,0,0,0,.4,1.37,1.33,1.33,0,0,0,1.08.5,1.38,1.38,0,0,0,1.09-.48A1.81,1.81,0,0,0,145.16,145.81Z"/><path class="cls-6" d="M151.6,145.77h-3.53a1.87,1.87,0,0,0,.45,1.29,1.54,1.54,0,0,0,1.18.45,2.46,2.46,0,0,0,1.55-.56v.76a3,3,0,0,1-1.74.47,2.11,2.11,0,0,1-1.67-.68,2.79,2.79,0,0,1-.6-1.91,2.76,2.76,0,0,1,.66-1.91,2.12,2.12,0,0,1,1.64-.73,1.88,1.88,0,0,1,1.52.63,2.67,2.67,0,0,1,.54,1.77Zm-.82-.68a1.68,1.68,0,0,0-.34-1.08,1.12,1.12,0,0,0-.91-.39,1.28,1.28,0,0,0-1,.41,1.78,1.78,0,0,0-.49,1.06Z"/><path class="cls-6" d="M152.51,147.89V147a2.35,2.35,0,0,0,1.44.48c.7,0,1.05-.23,1.05-.7a.59.59,0,0,0-.09-.34.82.82,0,0,0-.24-.25,2.55,2.55,0,0,0-.37-.19l-.44-.18a5.37,5.37,0,0,1-.58-.27,1.74,1.74,0,0,1-.42-.3,1.08,1.08,0,0,1-.26-.38,1.33,1.33,0,0,1-.08-.51,1.17,1.17,0,0,1,.16-.62,1.32,1.32,0,0,1,.43-.45,1.9,1.9,0,0,1,.61-.28,2.82,2.82,0,0,1,.71-.09,2.86,2.86,0,0,1,1.16.22V144a2.27,2.27,0,0,0-1.27-.36,1.62,1.62,0,0,0-.4,0,1.12,1.12,0,0,0-.31.15.53.53,0,0,0-.2.22.57.57,0,0,0-.07.29.61.61,0,0,0,.07.32.64.64,0,0,0,.2.24,1.36,1.36,0,0,0,.34.18l.44.18.6.27a2.08,2.08,0,0,1,.45.3,1.21,1.21,0,0,1,.28.39,1.18,1.18,0,0,1,.1.52,1.19,1.19,0,0,1-.16.64,1.38,1.38,0,0,1-.44.46,2,2,0,0,1-.63.27,3.67,3.67,0,0,1-.75.08A2.9,2.9,0,0,1,152.51,147.89Z"/><path class="cls-6" d="M163.2,147.84a2.6,2.6,0,0,1-1.37.34,2.25,2.25,0,0,1-1.72-.69,2.54,2.54,0,0,1-.66-1.81,2.78,2.78,0,0,1,.71-2,2.47,2.47,0,0,1,1.89-.75,2.67,2.67,0,0,1,1.16.24V144a2,2,0,0,0-1.19-.39,1.64,1.64,0,0,0-1.26.55,2.09,2.09,0,0,0-.49,1.45,2,2,0,0,0,.46,1.38,1.59,1.59,0,0,0,1.24.51,2,2,0,0,0,1.23-.43Z"/><path class="cls-6" d="M168.56,148.07h-.8v-2.88c0-1.05-.39-1.57-1.16-1.57a1.26,1.26,0,0,0-1,.46,1.65,1.65,0,0,0-.4,1.15v2.84h-.8v-7.41h.8v3.24h0a1.82,1.82,0,0,1,1.64-1c1.13,0,1.69.68,1.69,2Z"/><path class="cls-6" d="M174.09,145.77h-3.53a1.87,1.87,0,0,0,.45,1.29,1.54,1.54,0,0,0,1.18.45,2.46,2.46,0,0,0,1.55-.56v.76a3,3,0,0,1-1.74.47,2.11,2.11,0,0,1-1.67-.68,2.79,2.79,0,0,1-.6-1.91,2.76,2.76,0,0,1,.66-1.91A2.12,2.12,0,0,1,172,143a1.88,1.88,0,0,1,1.52.63,2.67,2.67,0,0,1,.54,1.77Zm-.82-.68a1.68,1.68,0,0,0-.34-1.08,1.12,1.12,0,0,0-.91-.39,1.28,1.28,0,0,0-1,.41,1.78,1.78,0,0,0-.49,1.06Z"/><path class="cls-6" d="M177.91,143.88a1,1,0,0,0-.61-.16,1,1,0,0,0-.86.48,2.23,2.23,0,0,0-.34,1.32v2.55h-.8v-5h.8v1h0a1.79,1.79,0,0,1,.52-.83,1.24,1.24,0,0,1,.79-.29,1.22,1.22,0,0,1,.48.07Z"/><path class="cls-6" d="M181.33,145.6h-2.66V145h2.66Z"/><path class="cls-6" d="M74.18,159.84a2.59,2.59,0,0,1-1.36.34,2.27,2.27,0,0,1-1.73-.69,2.54,2.54,0,0,1-.66-1.81,2.78,2.78,0,0,1,.71-2A2.47,2.47,0,0,1,73,155a2.64,2.64,0,0,1,1.16.24V156a2,2,0,0,0-1.19-.39,1.61,1.61,0,0,0-1.25.55,2.09,2.09,0,0,0-.49,1.45,2,2,0,0,0,.46,1.38,1.57,1.57,0,0,0,1.23.51,2,2,0,0,0,1.23-.43Z"/><path class="cls-6" d="M79.55,160.07h-.8v-2.88c0-1.05-.39-1.57-1.17-1.57a1.23,1.23,0,0,0-1,.46,1.65,1.65,0,0,0-.4,1.15v2.84h-.8v-7.41h.8v3.24h0a1.82,1.82,0,0,1,1.64-1c1.12,0,1.69.68,1.69,2Z"/><path class="cls-6" d="M85.07,157.77H81.54a2,2,0,0,0,.45,1.29,1.56,1.56,0,0,0,1.18.45,2.49,2.49,0,0,0,1.56-.56v.76a3,3,0,0,1-1.75.47,2.09,2.09,0,0,1-1.66-.68,3.19,3.19,0,0,1,.05-3.82A2.14,2.14,0,0,1,83,155a1.9,1.9,0,0,1,1.52.63,2.73,2.73,0,0,1,.53,1.77Zm-.82-.68a1.62,1.62,0,0,0-.33-1.08,1.14,1.14,0,0,0-.92-.39,1.3,1.3,0,0,0-1,.41,1.84,1.84,0,0,0-.49,1.06Z"/><path class="cls-6" d="M90.33,160.07h-.8v-.79h0a1.65,1.65,0,0,1-1.55.9c-1.19,0-1.78-.71-1.78-2.12v-3H87v2.86c0,1,.41,1.58,1.21,1.58a1.23,1.23,0,0,0,1-.43,1.68,1.68,0,0,0,.38-1.13v-2.88h.8Z"/><path class="cls-6" d="M94.55,155.88a1,1,0,0,0-.6-.16,1,1,0,0,0-.86.48,2.22,2.22,0,0,0-.35,1.32v2.55h-.8v-5h.8v1h0a1.81,1.81,0,0,1,.53-.83,1.2,1.2,0,0,1,.78-.29,1.22,1.22,0,0,1,.48.07Z"/><path class="cls-6" d="M95.7,160.17a.55.55,0,0,1-.54-.54.53.53,0,0,1,.16-.39.49.49,0,0,1,.38-.16.55.55,0,0,1,.55.55.49.49,0,0,1-.16.38A.53.53,0,0,1,95.7,160.17Z"/><path class="cls-6" d="M101.61,157.77H98.08a1.87,1.87,0,0,0,.45,1.29,1.54,1.54,0,0,0,1.18.45,2.46,2.46,0,0,0,1.55-.56v.76a3,3,0,0,1-1.74.47,2.11,2.11,0,0,1-1.67-.68,2.79,2.79,0,0,1-.6-1.91,2.76,2.76,0,0,1,.66-1.91,2.12,2.12,0,0,1,1.64-.73,1.88,1.88,0,0,1,1.52.63,2.67,2.67,0,0,1,.54,1.77Zm-.82-.68a1.68,1.68,0,0,0-.34-1.08,1.12,1.12,0,0,0-.91-.39,1.32,1.32,0,0,0-1,.41,1.83,1.83,0,0,0-.48,1.06Z"/><path class="cls-6" d="M106.86,160.07h-.8v-.79h0a1.65,1.65,0,0,1-1.54.9c-1.19,0-1.79-.71-1.79-2.12v-3h.8v2.86c0,1,.4,1.58,1.21,1.58a1.21,1.21,0,0,0,1-.43,1.68,1.68,0,0,0,.38-1.13v-2.88h.8Z"/><path class="cls-6" d="M108.17,159.89V159a2.4,2.4,0,0,0,1.44.48c.71,0,1.06-.23,1.06-.7a.59.59,0,0,0-.09-.34.75.75,0,0,0-.25-.25A2,2,0,0,0,110,158l-.44-.18c-.22-.09-.42-.18-.59-.27a2.25,2.25,0,0,1-.42-.3,1.19,1.19,0,0,1-.25-.38,1.33,1.33,0,0,1-.09-.51,1.27,1.27,0,0,1,.16-.62,1.54,1.54,0,0,1,.43-.45,2.06,2.06,0,0,1,.62-.28,2.76,2.76,0,0,1,.71-.09,2.86,2.86,0,0,1,1.16.22V156a2.27,2.27,0,0,0-1.27-.36,1.62,1.62,0,0,0-.4,0,1,1,0,0,0-.31.15.63.63,0,0,0-.21.22.69.69,0,0,0-.07.29.72.72,0,0,0,.07.32.79.79,0,0,0,.21.24,1.29,1.29,0,0,0,.33.18l.45.18c.22.09.42.18.59.27a1.68,1.68,0,0,1,.45.3,1.11,1.11,0,0,1,.29.39,1.18,1.18,0,0,1,.1.52,1.29,1.29,0,0,1-.16.64,1.38,1.38,0,0,1-.44.46,2,2,0,0,1-.63.27,3.67,3.67,0,0,1-.75.08A3,3,0,0,1,108.17,159.89Z"/><path class="cls-6" d="M116.74,157.77h-3.53a1.87,1.87,0,0,0,.45,1.29,1.54,1.54,0,0,0,1.18.45,2.46,2.46,0,0,0,1.55-.56v.76a3,3,0,0,1-1.74.47,2.11,2.11,0,0,1-1.67-.68,2.79,2.79,0,0,1-.6-1.91,2.76,2.76,0,0,1,.66-1.91,2.12,2.12,0,0,1,1.64-.73,1.88,1.88,0,0,1,1.52.63,2.67,2.67,0,0,1,.54,1.77Zm-.82-.68a1.62,1.62,0,0,0-.34-1.08,1.12,1.12,0,0,0-.91-.39,1.28,1.28,0,0,0-1,.41,1.78,1.78,0,0,0-.49,1.06Z"/><path class="cls-6" d="M118.23,160.17a.53.53,0,0,1-.39-.16.52.52,0,0,1-.15-.38.56.56,0,0,1,.15-.39.55.55,0,0,1,.94.39.49.49,0,0,1-.16.38A.53.53,0,0,1,118.23,160.17Z"/><path class="cls-6" d="M119.81,159.89V159a2.4,2.4,0,0,0,1.45.48c.7,0,1-.23,1-.7a.59.59,0,0,0-.09-.34.75.75,0,0,0-.25-.25,2,2,0,0,0-.36-.19l-.44-.18c-.22-.09-.42-.18-.59-.27a2.25,2.25,0,0,1-.42-.3,1.19,1.19,0,0,1-.25-.38,1.33,1.33,0,0,1-.09-.51,1.18,1.18,0,0,1,.17-.62,1.32,1.32,0,0,1,.43-.45A1.9,1.9,0,0,1,121,155a2.76,2.76,0,0,1,.71-.09,2.86,2.86,0,0,1,1.16.22V156a2.27,2.27,0,0,0-1.27-.36,1.62,1.62,0,0,0-.4,0,1.12,1.12,0,0,0-.31.15.53.53,0,0,0-.2.22.57.57,0,0,0-.08.29.61.61,0,0,0,.08.32.64.64,0,0,0,.2.24,1.36,1.36,0,0,0,.34.18l.44.18.6.27a1.79,1.79,0,0,1,.44.3,1.11,1.11,0,0,1,.29.39,1.18,1.18,0,0,1,.1.52,1.19,1.19,0,0,1-.16.64,1.38,1.38,0,0,1-.44.46,2,2,0,0,1-.63.27,3.67,3.67,0,0,1-.75.08A3,3,0,0,1,119.81,159.89Z"/><path class="cls-6" d="M131.37,160.07h-.8v-.85h0a2,2,0,0,1-3.23.29,2.78,2.78,0,0,1-.56-1.83,3,3,0,0,1,.62-2,2.06,2.06,0,0,1,1.67-.75,1.62,1.62,0,0,1,1.5.81h0v-3.1h.8Zm-.8-2.26v-.74a1.46,1.46,0,0,0-.4-1,1.36,1.36,0,0,0-1-.42,1.37,1.37,0,0,0-1.15.54,2.35,2.35,0,0,0-.42,1.48A2.11,2.11,0,0,0,128,159a1.33,1.33,0,0,0,1.08.5,1.38,1.38,0,0,0,1.09-.48A1.81,1.81,0,0,0,130.57,157.81Z"/><path class="cls-6" d="M137,157.77h-3.53a1.87,1.87,0,0,0,.45,1.29,1.54,1.54,0,0,0,1.18.45,2.46,2.46,0,0,0,1.55-.56v.76a3,3,0,0,1-1.74.47,2.11,2.11,0,0,1-1.67-.68,2.79,2.79,0,0,1-.6-1.91,2.76,2.76,0,0,1,.66-1.91A2.12,2.12,0,0,1,135,155a1.88,1.88,0,0,1,1.52.63,2.67,2.67,0,0,1,.54,1.77Zm-.82-.68a1.68,1.68,0,0,0-.34-1.08,1.12,1.12,0,0,0-.91-.39,1.32,1.32,0,0,0-1,.41,1.83,1.83,0,0,0-.48,1.06Z"/><path class="cls-6" d="M141.76,160.07H141v-7.41h.8Z"/><path class="cls-6" d="M144.07,153.06v2.19h-.71v-2.19Z"/><path class="cls-6" d="M146.09,153.8a.51.51,0,0,1-.37-.15.53.53,0,0,1,0-.74.51.51,0,0,1,.37-.15.5.5,0,0,1,.37.15.47.47,0,0,1,.16.37.53.53,0,0,1-.53.52Zm.39,6.27h-.8v-5h.8Z"/><path class="cls-6" d="M152.25,160.07h-.8v-2.85c0-1.07-.39-1.6-1.16-1.6a1.27,1.27,0,0,0-1,.46,1.68,1.68,0,0,0-.39,1.14v2.85h-.8v-5h.8v.83h0a1.82,1.82,0,0,1,1.64-1,1.55,1.55,0,0,1,1.26.53,2.34,2.34,0,0,1,.43,1.53Z"/><path class="cls-6" d="M153.46,159.89V159a2.35,2.35,0,0,0,1.44.48c.7,0,1-.23,1-.7a.59.59,0,0,0-.09-.34.82.82,0,0,0-.24-.25,2,2,0,0,0-.36-.19l-.45-.18a5.37,5.37,0,0,1-.58-.27,1.74,1.74,0,0,1-.42-.3,1.08,1.08,0,0,1-.26-.38,1.56,1.56,0,0,1-.08-.51,1.17,1.17,0,0,1,.16-.62,1.42,1.42,0,0,1,.43-.45,2,2,0,0,1,.61-.28,2.82,2.82,0,0,1,.71-.09,2.86,2.86,0,0,1,1.16.22V156a2.25,2.25,0,0,0-1.27-.36,1.62,1.62,0,0,0-.4,0,1.28,1.28,0,0,0-.31.15.6.6,0,0,0-.2.22.57.57,0,0,0-.07.29.61.61,0,0,0,.07.32.79.79,0,0,0,.21.24,1.29,1.29,0,0,0,.33.18l.44.18.6.27a2.08,2.08,0,0,1,.45.3,1.08,1.08,0,0,1,.28.39,1.18,1.18,0,0,1,.1.52,1.19,1.19,0,0,1-.16.64,1.29,1.29,0,0,1-.44.46,2,2,0,0,1-.63.27,3.5,3.5,0,0,1-.74.08A2.94,2.94,0,0,1,153.46,159.89Z"/><path class="cls-6" d="M160.32,160a1.57,1.57,0,0,1-.74.15c-.88,0-1.32-.48-1.32-1.46v-3h-.86v-.68h.86v-1.22l.8-.26v1.48h1.26v.68h-1.26v2.82a1.23,1.23,0,0,0,.17.72.71.71,0,0,0,.57.21.78.78,0,0,0,.52-.17Z"/><path class="cls-6" d="M161.8,153.8a.49.49,0,0,1-.36-.15.51.51,0,0,1,0-.74.49.49,0,0,1,.36-.15.54.54,0,0,1,.38.15.5.5,0,0,1,.15.37.53.53,0,0,1-.15.37A.54.54,0,0,1,161.8,153.8Zm.39,6.27h-.8v-5h.8Z"/><path class="cls-6" d="M166.13,160a1.54,1.54,0,0,1-.74.15c-.88,0-1.32-.48-1.32-1.46v-3h-.86v-.68h.86v-1.22l.8-.26v1.48h1.26v.68h-1.26v2.82a1.23,1.23,0,0,0,.17.72.71.71,0,0,0,.57.21.78.78,0,0,0,.52-.17Z"/><path class="cls-6" d="M171.25,160.07h-.8v-.79h0a1.66,1.66,0,0,1-1.55.9c-1.19,0-1.78-.71-1.78-2.12v-3h.79v2.86c0,1,.4,1.58,1.21,1.58a1.24,1.24,0,0,0,1-.43,1.68,1.68,0,0,0,.38-1.13v-2.88h.8Z"/><path class="cls-6" d="M175.18,160a1.61,1.61,0,0,1-.75.15c-.87,0-1.31-.48-1.31-1.46v-3h-.86v-.68h.86v-1.22l.8-.26v1.48h1.26v.68h-1.26v2.82a1.23,1.23,0,0,0,.17.72.71.71,0,0,0,.57.21.79.79,0,0,0,.52-.17Z"/><path class="cls-6" d="M176.66,153.8a.53.53,0,0,1-.37-.15.53.53,0,0,1,0-.74.53.53,0,0,1,.37-.15.5.5,0,0,1,.37.15.47.47,0,0,1,.16.37.53.53,0,0,1-.53.52Zm.39,6.27h-.8v-5h.8Z"/><path class="cls-6" d="M180.76,160.18a2.31,2.31,0,0,1-1.77-.7,2.57,2.57,0,0,1-.66-1.85,2.7,2.7,0,0,1,.69-2,2.49,2.49,0,0,1,1.86-.71,2.26,2.26,0,0,1,1.75.69,2.76,2.76,0,0,1,.62,1.91,2.68,2.68,0,0,1-.67,1.91A2.38,2.38,0,0,1,180.76,160.18Zm.06-4.56a1.53,1.53,0,0,0-1.22.53,2.15,2.15,0,0,0-.45,1.45,2,2,0,0,0,.46,1.4,1.53,1.53,0,0,0,1.21.51A1.46,1.46,0,0,0,182,159a2.18,2.18,0,0,0,.42-1.43,2.22,2.22,0,0,0-.42-1.45A1.43,1.43,0,0,0,180.82,155.62Z"/><path class="cls-6" d="M188.68,160.07h-.8v-2.85c0-1.07-.39-1.6-1.16-1.6a1.23,1.23,0,0,0-1,.46,1.64,1.64,0,0,0-.4,1.14v2.85h-.8v-5h.8v.83h0a1.82,1.82,0,0,1,1.64-1,1.55,1.55,0,0,1,1.26.53,2.34,2.34,0,0,1,.43,1.53Z"/><path class="cls-6" d="M196.51,160.07h-.8v-.78h0a1.69,1.69,0,0,1-1.54.89,1.65,1.65,0,0,1-1.17-.39,1.39,1.39,0,0,1-.42-1c0-.94.55-1.48,1.65-1.63l1.5-.21c0-.85-.35-1.28-1-1.28a2.46,2.46,0,0,0-1.63.62v-.82a3.12,3.12,0,0,1,1.7-.47c1.17,0,1.76.62,1.76,1.86Zm-.8-2.53-1.21.16a2.11,2.11,0,0,0-.84.28.78.78,0,0,0-.28.7.79.79,0,0,0,.26.6,1.05,1.05,0,0,0,.7.23,1.29,1.29,0,0,0,1-.42,1.48,1.48,0,0,0,.39-1.05Z"/><path class="cls-6" d="M200.49,153.37a1,1,0,0,0-.53-.13c-.56,0-.84.35-.84,1.06v.77h1.17v.68h-1.17v4.32h-.8v-4.32h-.85v-.68h.85v-.81a1.68,1.68,0,0,1,.46-1.25,1.54,1.54,0,0,1,1.13-.45,1.8,1.8,0,0,1,.58.08Z"/><path class="cls-6" d="M201.56,153.8a.52.52,0,1,1,0-1,.51.51,0,0,1,.37.15.51.51,0,0,1,.16.37.54.54,0,0,1-.16.37A.51.51,0,0,1,201.56,153.8Zm.39,6.27h-.8v-5h.8Z"/><path class="cls-6" d="M207.72,160.07h-.8v-2.85c0-1.07-.39-1.6-1.16-1.6a1.27,1.27,0,0,0-1,.46,1.68,1.68,0,0,0-.39,1.14v2.85h-.8v-5h.8v.83h0a1.82,1.82,0,0,1,1.64-1,1.55,1.55,0,0,1,1.26.53,2.34,2.34,0,0,1,.43,1.53Z"/><path class="cls-6" d="M216.24,160.07h-.8v-.85h0a2,2,0,0,1-3.23.29,2.72,2.72,0,0,1-.56-1.83,3,3,0,0,1,.62-2,2.06,2.06,0,0,1,1.67-.75,1.62,1.62,0,0,1,1.5.81h0v-3.1h.8Zm-.8-2.26v-.74a1.43,1.43,0,0,0-.41-1,1.32,1.32,0,0,0-1-.42,1.37,1.37,0,0,0-1.15.54,2.35,2.35,0,0,0-.42,1.48,2.11,2.11,0,0,0,.4,1.37,1.33,1.33,0,0,0,1.08.5A1.38,1.38,0,0,0,215,159,1.81,1.81,0,0,0,215.44,157.81Z"/><path class="cls-6" d="M221.88,157.77h-3.53a1.91,1.91,0,0,0,.44,1.29,1.58,1.58,0,0,0,1.19.45,2.46,2.46,0,0,0,1.55-.56v.76a3,3,0,0,1-1.74.47,2.09,2.09,0,0,1-1.67-.68,2.79,2.79,0,0,1-.6-1.91,2.76,2.76,0,0,1,.66-1.91,2.12,2.12,0,0,1,1.64-.73,1.9,1.9,0,0,1,1.52.63,2.67,2.67,0,0,1,.54,1.77Zm-.82-.68a1.68,1.68,0,0,0-.34-1.08,1.12,1.12,0,0,0-.91-.39,1.32,1.32,0,0,0-1,.41,1.83,1.83,0,0,0-.48,1.06Z"/><path class="cls-6" d="M77.88,172.07h-.8V169.2a2.19,2.19,0,0,0-.26-1.21,1,1,0,0,0-.86-.37,1.06,1.06,0,0,0-.87.47,1.8,1.8,0,0,0-.36,1.13v2.85h-.8v-3c0-1-.38-1.48-1.14-1.48a1.05,1.05,0,0,0-.87.45,1.79,1.79,0,0,0-.34,1.15v2.85h-.8v-5h.8v.79h0a1.68,1.68,0,0,1,1.55-.91,1.38,1.38,0,0,1,.89.29,1.46,1.46,0,0,1,.53.74,1.77,1.77,0,0,1,1.66-1q1.65,0,1.65,2Z"/><path class="cls-6" d="M83.41,169.77H79.88a1.87,1.87,0,0,0,.45,1.29,1.54,1.54,0,0,0,1.18.45,2.46,2.46,0,0,0,1.55-.56v.76a3,3,0,0,1-1.74.47,2.11,2.11,0,0,1-1.67-.68,2.79,2.79,0,0,1-.6-1.91,2.76,2.76,0,0,1,.66-1.91,2.12,2.12,0,0,1,1.64-.73,1.88,1.88,0,0,1,1.52.63,2.67,2.67,0,0,1,.54,1.77Zm-.82-.68a1.68,1.68,0,0,0-.34-1.08,1.12,1.12,0,0,0-.91-.39,1.28,1.28,0,0,0-1,.41,1.78,1.78,0,0,0-.49,1.06Z"/><path class="cls-6" d="M84.32,171.89V171a2.35,2.35,0,0,0,1.44.48c.7,0,1-.23,1-.7a.59.59,0,0,0-.09-.34.82.82,0,0,0-.24-.25,3,3,0,0,0-.36-.19l-.45-.18a5.37,5.37,0,0,1-.58-.27,1.74,1.74,0,0,1-.42-.3,1.08,1.08,0,0,1-.26-.38,1.33,1.33,0,0,1-.08-.51,1.17,1.17,0,0,1,.16-.62,1.32,1.32,0,0,1,.43-.45,2,2,0,0,1,.61-.28,2.82,2.82,0,0,1,.71-.09,2.86,2.86,0,0,1,1.16.22V168a2.27,2.27,0,0,0-1.27-.36,1.62,1.62,0,0,0-.4,0,1.12,1.12,0,0,0-.31.15.53.53,0,0,0-.2.22.57.57,0,0,0-.07.29.61.61,0,0,0,.07.32.59.59,0,0,0,.21.24,1.29,1.29,0,0,0,.33.18l.44.18.6.27a2.08,2.08,0,0,1,.45.3,1.08,1.08,0,0,1,.28.39,1.18,1.18,0,0,1,.1.52,1.19,1.19,0,0,1-.16.64,1.38,1.38,0,0,1-.44.46,2,2,0,0,1-.63.27,3.67,3.67,0,0,1-.75.08A2.9,2.9,0,0,1,84.32,171.89Z"/><path class="cls-6" d="M92.91,172.07H92.1v-.79h0a1.66,1.66,0,0,1-1.55.9c-1.19,0-1.78-.71-1.78-2.12v-3h.79v2.86c0,1,.4,1.58,1.21,1.58a1.24,1.24,0,0,0,1-.43A1.67,1.67,0,0,0,92.1,170v-2.88h.81Z"/><path class="cls-6" d="M97.13,167.88a1,1,0,0,0-.61-.16,1,1,0,0,0-.85.48,2.22,2.22,0,0,0-.35,1.32v2.55h-.8v-5h.8v1h0a1.88,1.88,0,0,1,.52-.83,1.24,1.24,0,0,1,.79-.29,1.22,1.22,0,0,1,.48.07Z"/><path class="cls-6" d="M102,169.77H98.49a1.87,1.87,0,0,0,.45,1.29,1.54,1.54,0,0,0,1.18.45,2.46,2.46,0,0,0,1.55-.56v.76a3,3,0,0,1-1.74.47,2.11,2.11,0,0,1-1.67-.68,2.79,2.79,0,0,1-.6-1.91,2.76,2.76,0,0,1,.66-1.91A2.12,2.12,0,0,1,100,167a1.88,1.88,0,0,1,1.52.63,2.67,2.67,0,0,1,.54,1.77Zm-.82-.68a1.68,1.68,0,0,0-.34-1.08,1.12,1.12,0,0,0-.91-.39,1.32,1.32,0,0,0-1,.41,1.83,1.83,0,0,0-.48,1.06Z"/><path class="cls-6" d="M105.84,167.88a1,1,0,0,0-.61-.16,1,1,0,0,0-.86.48,2.23,2.23,0,0,0-.34,1.32v2.55h-.8v-5h.8v1h0a1.79,1.79,0,0,1,.52-.83,1.22,1.22,0,0,1,.79-.29,1.25,1.25,0,0,1,.48.07Z"/><path class="cls-6" d="M110.24,172.07h-.8v-7.41h.8Z"/><path class="cls-6" d="M115.88,169.77h-3.53a2,2,0,0,0,.45,1.29,1.56,1.56,0,0,0,1.18.45,2.47,2.47,0,0,0,1.56-.56v.76a3,3,0,0,1-1.75.47,2.09,2.09,0,0,1-1.66-.68,2.79,2.79,0,0,1-.61-1.91,2.72,2.72,0,0,1,.67-1.91,2.1,2.1,0,0,1,1.64-.73,1.9,1.9,0,0,1,1.52.63,2.67,2.67,0,0,1,.53,1.77Zm-.82-.68a1.62,1.62,0,0,0-.33-1.08,1.14,1.14,0,0,0-.92-.39,1.32,1.32,0,0,0-1,.41,1.91,1.91,0,0,0-.49,1.06Z"/><path class="cls-6" d="M121.14,172.07h-.8v-.79h0a1.65,1.65,0,0,1-1.55.9c-1.19,0-1.78-.71-1.78-2.12v-3h.79v2.86c0,1,.41,1.58,1.21,1.58a1.21,1.21,0,0,0,1-.43,1.68,1.68,0,0,0,.38-1.13v-2.88h.8Z"/><path class="cls-6" d="M125.36,167.88a1,1,0,0,0-.6-.16,1,1,0,0,0-.86.48,2.22,2.22,0,0,0-.35,1.32v2.55h-.8v-5h.8v1h0a1.81,1.81,0,0,1,.53-.83,1.2,1.2,0,0,1,.78-.29,1.22,1.22,0,0,1,.48.07Z"/><path class="cls-6" d="M129.79,171.34h0v3H129v-7.3h.8V168h0a1.88,1.88,0,0,1,1.73-1,1.83,1.83,0,0,1,1.51.67,2.8,2.8,0,0,1,.54,1.8,3.07,3.07,0,0,1-.61,2,2,2,0,0,1-1.67.75A1.67,1.67,0,0,1,129.79,171.34Zm0-2v.7a1.53,1.53,0,0,0,.4,1.05,1.34,1.34,0,0,0,1,.43,1.36,1.36,0,0,0,1.14-.56,2.56,2.56,0,0,0,.41-1.54,2,2,0,0,0-.39-1.31,1.25,1.25,0,0,0-1-.48,1.42,1.42,0,0,0-1.12.49A1.75,1.75,0,0,0,129.77,169.33Z"/><path class="cls-6" d="M138.87,169.77h-3.53a1.87,1.87,0,0,0,.45,1.29,1.54,1.54,0,0,0,1.18.45,2.46,2.46,0,0,0,1.55-.56v.76a3,3,0,0,1-1.74.47,2.11,2.11,0,0,1-1.67-.68,2.79,2.79,0,0,1-.6-1.91,2.76,2.76,0,0,1,.66-1.91,2.12,2.12,0,0,1,1.64-.73,1.88,1.88,0,0,1,1.52.63,2.67,2.67,0,0,1,.54,1.77Zm-.82-.68a1.68,1.68,0,0,0-.34-1.08,1.12,1.12,0,0,0-.91-.39,1.28,1.28,0,0,0-1,.41,1.78,1.78,0,0,0-.49,1.06Z"/><path class="cls-6" d="M142.69,167.88a1,1,0,0,0-.61-.16,1,1,0,0,0-.86.48,2.23,2.23,0,0,0-.34,1.32v2.55h-.8v-5h.8v1h0a1.79,1.79,0,0,1,.52-.83,1.24,1.24,0,0,1,.79-.29,1.22,1.22,0,0,1,.48.07Z"/><path class="cls-6" d="M146,165.37a1.08,1.08,0,0,0-.54-.13c-.56,0-.84.35-.84,1.06v.77h1.18v.68h-1.18v4.32h-.79v-4.32H143v-.68h.86v-.81a1.71,1.71,0,0,1,.45-1.25,1.54,1.54,0,0,1,1.13-.45,1.86,1.86,0,0,1,.59.08Z"/><path class="cls-6" d="M148.78,172.18a2.31,2.31,0,0,1-1.77-.7,2.53,2.53,0,0,1-.67-1.85,2.7,2.7,0,0,1,.69-2,2.49,2.49,0,0,1,1.86-.71,2.25,2.25,0,0,1,1.75.69,2.72,2.72,0,0,1,.63,1.91,2.69,2.69,0,0,1-.68,1.91A2.37,2.37,0,0,1,148.78,172.18Zm.05-4.56a1.53,1.53,0,0,0-1.22.53,2.15,2.15,0,0,0-.45,1.45,2.05,2.05,0,0,0,.46,1.4,1.54,1.54,0,0,0,1.21.51,1.49,1.49,0,0,0,1.2-.5,2.18,2.18,0,0,0,.42-1.43,2.22,2.22,0,0,0-.42-1.45A1.47,1.47,0,0,0,148.83,167.62Z"/><path class="cls-6" d="M155.15,167.88a1,1,0,0,0-.6-.16,1,1,0,0,0-.86.48,2.23,2.23,0,0,0-.34,1.32v2.55h-.81v-5h.81v1h0a1.81,1.81,0,0,1,.53-.83,1.2,1.2,0,0,1,.78-.29,1.22,1.22,0,0,1,.48.07Z"/><path class="cls-6" d="M163.12,172.07h-.8V169.2a2.19,2.19,0,0,0-.26-1.21,1,1,0,0,0-.86-.37,1.08,1.08,0,0,0-.87.47,1.8,1.8,0,0,0-.36,1.13v2.85h-.8v-3c0-1-.38-1.48-1.14-1.48a1.05,1.05,0,0,0-.87.45,1.85,1.85,0,0,0-.34,1.15v2.85H156v-5h.8v.79h0a1.69,1.69,0,0,1,1.55-.91,1.41,1.41,0,0,1,.9.29,1.44,1.44,0,0,1,.52.74,1.78,1.78,0,0,1,1.66-1q1.65,0,1.65,2Z"/><path class="cls-6" d="M168.21,172.07h-.8v-.78h0a1.68,1.68,0,0,1-1.53.89,1.65,1.65,0,0,1-1.17-.39,1.37,1.37,0,0,1-.43-1c0-.94.55-1.48,1.65-1.63l1.5-.21c0-.85-.34-1.28-1-1.28a2.48,2.48,0,0,0-1.63.62v-.82a3.12,3.12,0,0,1,1.7-.47c1.18,0,1.76.62,1.76,1.86Zm-.8-2.53-1.2.16a2.11,2.11,0,0,0-.84.28.79.79,0,0,0-.29.7.77.77,0,0,0,.27.6,1,1,0,0,0,.69.23,1.29,1.29,0,0,0,1-.42,1.52,1.52,0,0,0,.38-1.05Z"/><path class="cls-6" d="M173.87,172.07h-.8v-2.85c0-1.07-.39-1.6-1.16-1.6a1.23,1.23,0,0,0-1,.46,1.64,1.64,0,0,0-.4,1.14v2.85h-.8v-5h.8v.83h0a1.82,1.82,0,0,1,1.64-1,1.55,1.55,0,0,1,1.26.53,2.34,2.34,0,0,1,.43,1.53Z"/><path class="cls-6" d="M178.79,171.84a2.6,2.6,0,0,1-1.37.34,2.25,2.25,0,0,1-1.72-.69,2.54,2.54,0,0,1-.66-1.81,2.78,2.78,0,0,1,.71-2,2.47,2.47,0,0,1,1.89-.75,2.67,2.67,0,0,1,1.16.24V168a2,2,0,0,0-1.19-.39,1.64,1.64,0,0,0-1.26.55,2.09,2.09,0,0,0-.49,1.45,2,2,0,0,0,.46,1.38,1.59,1.59,0,0,0,1.24.51,2,2,0,0,0,1.23-.43Z"/><path class="cls-6" d="M184,169.77h-3.53a1.87,1.87,0,0,0,.45,1.29,1.54,1.54,0,0,0,1.18.45,2.46,2.46,0,0,0,1.55-.56v.76a3,3,0,0,1-1.74.47,2.11,2.11,0,0,1-1.67-.68,2.79,2.79,0,0,1-.6-1.91,2.76,2.76,0,0,1,.66-1.91A2.12,2.12,0,0,1,182,167a1.88,1.88,0,0,1,1.52.63,2.67,2.67,0,0,1,.54,1.77Zm-.82-.68a1.62,1.62,0,0,0-.34-1.08,1.11,1.11,0,0,0-.91-.39,1.28,1.28,0,0,0-1,.41,1.78,1.78,0,0,0-.49,1.06Z"/><path class="cls-6" d="M188.25,172.17a.53.53,0,0,1-.39-.16.52.52,0,0,1-.15-.38.56.56,0,0,1,.15-.39.55.55,0,0,1,.94.39.49.49,0,0,1-.16.38A.53.53,0,0,1,188.25,172.17Z"/><path class="cls-6" d="M75.9,208.07h-1l-1.17-2a5.13,5.13,0,0,0-.32-.46,1.58,1.58,0,0,0-.31-.32,1.11,1.11,0,0,0-.34-.18,1.7,1.7,0,0,0-.41,0H71.7v3h-.82v-7H73a2.86,2.86,0,0,1,.85.12,1.86,1.86,0,0,1,.67.35,1.52,1.52,0,0,1,.45.58,1.94,1.94,0,0,1,.16.82,1.81,1.81,0,0,1-.11.67,1.57,1.57,0,0,1-.31.55,1.75,1.75,0,0,1-.49.4,2.15,2.15,0,0,1-.64.26v0l.31.18.24.24a1.92,1.92,0,0,1,.23.31c.08.12.17.25.26.4Zm-4.2-6.26v2.54h1.12a1.56,1.56,0,0,0,.57-.1,1.43,1.43,0,0,0,.45-.26,1.33,1.33,0,0,0,.3-.43,1.43,1.43,0,0,0,.1-.56,1.1,1.1,0,0,0-.36-.88,1.55,1.55,0,0,0-1-.31Z"/><path class="cls-6" d="M80.48,205.77H77a2,2,0,0,0,.45,1.29,1.56,1.56,0,0,0,1.18.45,2.49,2.49,0,0,0,1.56-.56v.76a3,3,0,0,1-1.75.47,2.09,2.09,0,0,1-1.66-.68,3.19,3.19,0,0,1,0-3.82,2.14,2.14,0,0,1,1.65-.73,1.9,1.9,0,0,1,1.52.63,2.73,2.73,0,0,1,.53,1.77Zm-.82-.68a1.62,1.62,0,0,0-.33-1.08,1.14,1.14,0,0,0-.92-.39,1.32,1.32,0,0,0-1,.41,1.91,1.91,0,0,0-.49,1.06Zm-.12-4.57-1.28,1.6h-.62l1.09-1.6Z"/><path class="cls-6" d="M82.51,207.34h0v3h-.81v-7.3h.81V204h0a1.9,1.9,0,0,1,1.73-1,1.82,1.82,0,0,1,1.51.67,2.8,2.8,0,0,1,.54,1.8,3.07,3.07,0,0,1-.61,2,2,2,0,0,1-1.67.75A1.69,1.69,0,0,1,82.51,207.34Zm0-2v.7a1.48,1.48,0,0,0,.4,1.05,1.43,1.43,0,0,0,2.16-.13,2.49,2.49,0,0,0,.41-1.54,2,2,0,0,0-.38-1.31,1.28,1.28,0,0,0-1-.48,1.43,1.43,0,0,0-1.12.49A1.79,1.79,0,0,0,82.5,205.33Z"/><path class="cls-6" d="M89.66,208.18a2.31,2.31,0,0,1-1.77-.7,2.57,2.57,0,0,1-.66-1.85,2.7,2.7,0,0,1,.69-2,2.45,2.45,0,0,1,1.86-.71,2.25,2.25,0,0,1,1.75.69,2.76,2.76,0,0,1,.62,1.91,2.67,2.67,0,0,1-.67,1.91A2.38,2.38,0,0,1,89.66,208.18Zm.06-4.56a1.53,1.53,0,0,0-1.22.53,2.15,2.15,0,0,0-.45,1.45,2,2,0,0,0,.46,1.4,1.53,1.53,0,0,0,1.21.51,1.49,1.49,0,0,0,1.2-.5,2.73,2.73,0,0,0,0-2.88A1.47,1.47,0,0,0,89.72,203.62Z"/><path class="cls-6" d="M97.58,208.07h-.8v-2.85c0-1.07-.38-1.6-1.16-1.6a1.23,1.23,0,0,0-1,.46,1.64,1.64,0,0,0-.4,1.14v2.85h-.8v-5h.8v.83h0a1.82,1.82,0,0,1,1.64-1,1.55,1.55,0,0,1,1.26.53,2.34,2.34,0,0,1,.43,1.53Z"/><path class="cls-6" d="M98.79,207.89V207a2.4,2.4,0,0,0,1.44.48c.7,0,1-.23,1-.7a.59.59,0,0,0-.09-.34.82.82,0,0,0-.24-.25,2,2,0,0,0-.36-.19l-.45-.18c-.22-.09-.41-.18-.58-.27a1.74,1.74,0,0,1-.42-.3,1.22,1.22,0,0,1-.26-.38,1.52,1.52,0,0,1-.08-.51,1.17,1.17,0,0,1,.16-.62,1.42,1.42,0,0,1,.43-.45A2,2,0,0,1,100,203a2.82,2.82,0,0,1,.71-.09,2.91,2.91,0,0,1,1.17.22V204a2.3,2.3,0,0,0-1.27-.36,1.31,1.31,0,0,0-.41.06,1,1,0,0,0-.31.14.6.6,0,0,0-.2.22.57.57,0,0,0-.07.29.61.61,0,0,0,.07.32.79.79,0,0,0,.21.24,1.29,1.29,0,0,0,.33.18l.44.18c.23.09.42.18.6.27a1.68,1.68,0,0,1,.45.3,1.08,1.08,0,0,1,.28.39,1.18,1.18,0,0,1,.1.52,1.19,1.19,0,0,1-.16.64,1.29,1.29,0,0,1-.44.46,2,2,0,0,1-.63.27,3.5,3.5,0,0,1-.74.08A2.82,2.82,0,0,1,98.79,207.89Z"/><path class="cls-6" d="M107.35,205.77h-3.53a2,2,0,0,0,.45,1.29,1.56,1.56,0,0,0,1.18.45A2.49,2.49,0,0,0,107,207v.76a3,3,0,0,1-1.75.47,2.09,2.09,0,0,1-1.66-.68,2.79,2.79,0,0,1-.61-1.91,2.72,2.72,0,0,1,.67-1.91,2.1,2.1,0,0,1,1.64-.73,1.9,1.9,0,0,1,1.52.63,2.73,2.73,0,0,1,.53,1.77Zm-.82-.68a1.62,1.62,0,0,0-.33-1.08,1.14,1.14,0,0,0-.92-.39,1.32,1.32,0,0,0-1,.41,1.91,1.91,0,0,0-.49,1.06Z"/><path class="cls-6" d="M111.58,204a.49.49,0,0,1-.38-.16.51.51,0,0,1-.16-.38.55.55,0,0,1,.54-.54.5.5,0,0,1,.39.16.49.49,0,0,1,.16.38.51.51,0,0,1-.16.38A.5.5,0,0,1,111.58,204Zm0,4.13a.55.55,0,0,1-.54-.54.53.53,0,0,1,.16-.39.49.49,0,0,1,.38-.16.5.5,0,0,1,.39.16.53.53,0,0,1,.16.39.49.49,0,0,1-.16.38A.5.5,0,0,1,111.58,208.17Z"/><path class="cls-6" d="M119.87,201.81h-2.73v2.42h2.53V205h-2.53v3.1h-.82v-7h3.55Z"/><path class="cls-6" d="M124.33,208.07h-.8v-.78h0a1.84,1.84,0,0,1-2.71.5,1.38,1.38,0,0,1-.42-1c0-.94.55-1.48,1.65-1.63l1.5-.21c0-.85-.34-1.28-1-1.28a2.46,2.46,0,0,0-1.63.62v-.82a3.12,3.12,0,0,1,1.7-.47c1.17,0,1.76.62,1.76,1.86Zm-.8-2.53-1.21.16a2.11,2.11,0,0,0-.84.28.82.82,0,0,0-.28.7.79.79,0,0,0,.26.6,1.05,1.05,0,0,0,.7.23,1.27,1.27,0,0,0,1-.42,1.48,1.48,0,0,0,.39-1.05Z"/><path class="cls-6" d="M129.88,208.07h-.8v-.79h0a1.64,1.64,0,0,1-1.54.9c-1.19,0-1.79-.71-1.79-2.12v-3h.8v2.86c0,1,.4,1.58,1.21,1.58a1.21,1.21,0,0,0,1-.43,1.63,1.63,0,0,0,.38-1.13v-2.88h.8Z"/><path class="cls-6" d="M135.15,203.07l-1.68,2.53,1.65,2.47h-.93l-1-1.62c-.06-.1-.14-.23-.22-.39h0l-.23.39-1,1.62h-.92l1.7-2.45-1.63-2.55h.93l1,1.71q.11.18.21.39h0l1.25-2.1Z"/><path class="cls-6" d="M74.52,220.07H70.88v-7h.82v6.26h2.82Z"/><path class="cls-6" d="M76.18,213.06v2.19h-.71v-2.19Z"/><path class="cls-6" d="M83.31,220.07H82.4l-.74-2h-3l-.7,2h-.91l2.69-7h.85Zm-1.92-2.7-1.1-3a2.74,2.74,0,0,1-.1-.47h0a2.42,2.42,0,0,1-.12.47l-1.08,3Z"/><path class="cls-6" d="M86.84,215.88a1,1,0,0,0-.6-.16,1,1,0,0,0-.86.48,2.22,2.22,0,0,0-.35,1.32v2.55h-.8v-5H85v1h0a1.81,1.81,0,0,1,.53-.83,1.2,1.2,0,0,1,.78-.29,1.22,1.22,0,0,1,.48.07Z"/><path class="cls-6" d="M91.12,219.84a2.63,2.63,0,0,1-1.37.34,2.25,2.25,0,0,1-1.72-.69,2.54,2.54,0,0,1-.66-1.81,2.73,2.73,0,0,1,.71-2A2.47,2.47,0,0,1,90,215a2.67,2.67,0,0,1,1.16.24V216a2,2,0,0,0-1.19-.39,1.64,1.64,0,0,0-1.26.55,2.09,2.09,0,0,0-.49,1.45,2,2,0,0,0,.46,1.38,1.59,1.59,0,0,0,1.24.51,2.09,2.09,0,0,0,1.23-.43Z"/><path class="cls-6" d="M96.48,220.07h-.8v-2.88c0-1.05-.39-1.57-1.16-1.57a1.26,1.26,0,0,0-1,.46,1.65,1.65,0,0,0-.4,1.15v2.84h-.8v-7.41h.8v3.24h0a1.82,1.82,0,0,1,1.64-1c1.13,0,1.69.68,1.69,2Z"/><path class="cls-6" d="M98.4,213.8a.51.51,0,0,1-.37-.15.53.53,0,0,1,0-.74.51.51,0,0,1,.37-.15.5.5,0,0,1,.37.15.51.51,0,0,1,.16.37.54.54,0,0,1-.16.37A.5.5,0,0,1,98.4,213.8Zm.39,6.27H98v-5h.8Z"/><path class="cls-6" d="M104.34,215.07l-2,5h-.79l-1.89-5h.88l1.27,3.63a3.34,3.34,0,0,1,.17.7h0a3.23,3.23,0,0,1,.16-.68l1.33-3.65Z"/><path class="cls-6" d="M109.22,217.77h-3.53a1.87,1.87,0,0,0,.45,1.29,1.54,1.54,0,0,0,1.18.45,2.46,2.46,0,0,0,1.55-.56v.76a3,3,0,0,1-1.74.47,2.11,2.11,0,0,1-1.67-.68,2.79,2.79,0,0,1-.6-1.91,2.76,2.76,0,0,1,.66-1.91,2.12,2.12,0,0,1,1.64-.73,1.88,1.88,0,0,1,1.52.63,2.67,2.67,0,0,1,.54,1.77Zm-.82-.68a1.62,1.62,0,0,0-.34-1.08,1.12,1.12,0,0,0-.91-.39,1.28,1.28,0,0,0-1,.41,1.78,1.78,0,0,0-.49,1.06Z"/><path class="cls-6" d="M115.26,220.18a2.31,2.31,0,0,1-1.77-.7,2.57,2.57,0,0,1-.66-1.85,2.7,2.7,0,0,1,.69-2,2.42,2.42,0,0,1,1.86-.71,2.24,2.24,0,0,1,1.74.69,2.72,2.72,0,0,1,.63,1.91,2.67,2.67,0,0,1-.68,1.91A2.36,2.36,0,0,1,115.26,220.18Zm.06-4.56a1.52,1.52,0,0,0-1.22.53,2.15,2.15,0,0,0-.45,1.45,2,2,0,0,0,.45,1.4,1.55,1.55,0,0,0,1.22.51,1.47,1.47,0,0,0,1.19-.5,2.2,2.2,0,0,0,.42-1.43,2.22,2.22,0,0,0-.42-1.45A1.45,1.45,0,0,0,115.32,215.62Z"/><path class="cls-6" d="M123.07,220.07h-.8v-.79h0a1.65,1.65,0,0,1-1.54.9c-1.19,0-1.79-.71-1.79-2.12v-3h.8v2.86c0,1,.4,1.58,1.21,1.58a1.21,1.21,0,0,0,1-.43,1.68,1.68,0,0,0,.38-1.13v-2.88h.8Z"/><path class="cls-6" d="M128.62,215.07l-2,5h-.79l-1.89-5h.87l1.27,3.63a2.89,2.89,0,0,1,.18.7h0a2.71,2.71,0,0,1,.16-.68l1.32-3.65Z"/><path class="cls-6" d="M133.5,217.77H130a1.87,1.87,0,0,0,.45,1.29,1.54,1.54,0,0,0,1.18.45,2.46,2.46,0,0,0,1.55-.56v.76a3,3,0,0,1-1.74.47,2.09,2.09,0,0,1-1.67-.68,2.79,2.79,0,0,1-.6-1.91,2.76,2.76,0,0,1,.66-1.91,2.12,2.12,0,0,1,1.64-.73,1.9,1.9,0,0,1,1.52.63,2.67,2.67,0,0,1,.54,1.77Zm-.82-.68a1.68,1.68,0,0,0-.34-1.08,1.12,1.12,0,0,0-.91-.39,1.32,1.32,0,0,0-1,.41,1.83,1.83,0,0,0-.48,1.06Z"/><path class="cls-6" d="M137.31,215.88a.93.93,0,0,0-.6-.16,1,1,0,0,0-.86.48,2.23,2.23,0,0,0-.34,1.32v2.55h-.8v-5h.8v1h0a1.79,1.79,0,0,1,.52-.83,1.22,1.22,0,0,1,.79-.29,1.19,1.19,0,0,1,.47.07Z"/><path class="cls-6" d="M140.5,220a1.57,1.57,0,0,1-.74.15c-.88,0-1.32-.48-1.32-1.46v-3h-.86v-.68h.86v-1.22l.8-.26v1.48h1.26v.68h-1.26v2.82a1.23,1.23,0,0,0,.17.72.71.71,0,0,0,.57.21.83.83,0,0,0,.52-.17Z"/><path class="cls-6" d="M145.59,217.77h-3.53a1.87,1.87,0,0,0,.45,1.29,1.56,1.56,0,0,0,1.18.45,2.44,2.44,0,0,0,1.55-.56v.76a3,3,0,0,1-1.74.47,2.09,2.09,0,0,1-1.66-.68,3.19,3.19,0,0,1,0-3.82,2.12,2.12,0,0,1,1.65-.73,1.86,1.86,0,0,1,1.51.63,2.67,2.67,0,0,1,.54,1.77Zm-.82-.68a1.62,1.62,0,0,0-.33-1.08,1.14,1.14,0,0,0-.92-.39,1.28,1.28,0,0,0-1,.41,1.84,1.84,0,0,0-.49,1.06Z"/><path class="cls-6" d="M153.69,220.07h-.8v-2.85c0-1.07-.39-1.6-1.16-1.6a1.23,1.23,0,0,0-1,.46,1.64,1.64,0,0,0-.4,1.14v2.85h-.8v-5h.8v.83h0a1.82,1.82,0,0,1,1.64-1,1.55,1.55,0,0,1,1.26.53,2.34,2.34,0,0,1,.43,1.53Z"/><path class="cls-6" d="M155.89,213.06v2.19h-.7v-2.19Z"/><path class="cls-6" d="M161.08,220.07h-.8v-.78h0a1.69,1.69,0,0,1-1.54.89,1.65,1.65,0,0,1-1.17-.39,1.38,1.38,0,0,1-.42-1c0-.94.55-1.48,1.65-1.63l1.5-.21c0-.85-.34-1.28-1-1.28a2.46,2.46,0,0,0-1.63.62v-.82a3.12,3.12,0,0,1,1.7-.47c1.17,0,1.76.62,1.76,1.86Zm-.8-2.53-1.21.16a2.11,2.11,0,0,0-.84.28.92.92,0,0,0,0,1.3,1.05,1.05,0,0,0,.7.23,1.29,1.29,0,0,0,1-.42,1.48,1.48,0,0,0,.39-1.05Z"/><path class="cls-6" d="M166.15,219.34h0v3h-.8v-7.3h.8V216h0a1.88,1.88,0,0,1,1.73-1,1.84,1.84,0,0,1,1.51.67,2.8,2.8,0,0,1,.54,1.8,3.13,3.13,0,0,1-.61,2,2,2,0,0,1-1.67.75A1.67,1.67,0,0,1,166.15,219.34Zm0-2v.7a1.48,1.48,0,0,0,.4,1.05,1.33,1.33,0,0,0,1,.43,1.36,1.36,0,0,0,1.15-.56,2.56,2.56,0,0,0,.41-1.54,2,2,0,0,0-.39-1.31,1.26,1.26,0,0,0-1-.48,1.45,1.45,0,0,0-1.13.49A1.79,1.79,0,0,0,166.13,217.33Z"/><path class="cls-6" d="M174.79,220.07H174v-.78h0a1.7,1.7,0,0,1-1.54.89,1.65,1.65,0,0,1-1.17-.39,1.38,1.38,0,0,1-.42-1c0-.94.55-1.48,1.65-1.63l1.5-.21c0-.85-.35-1.28-1-1.28a2.48,2.48,0,0,0-1.63.62v-.82A3.15,3.15,0,0,1,173,215q1.77,0,1.77,1.86Zm-.8-2.53-1.21.16a2.11,2.11,0,0,0-.84.28.79.79,0,0,0-.28.7.76.76,0,0,0,.26.6,1,1,0,0,0,.69.23,1.29,1.29,0,0,0,1-.42A1.48,1.48,0,0,0,174,218Z"/><path class="cls-6" d="M176,219.89V219a2.4,2.4,0,0,0,1.44.48c.71,0,1.06-.23,1.06-.7a.59.59,0,0,0-.09-.34.75.75,0,0,0-.25-.25,2,2,0,0,0-.36-.19l-.45-.18c-.22-.09-.41-.18-.58-.27a1.74,1.74,0,0,1-.42-.3,1,1,0,0,1-.25-.38,1.29,1.29,0,0,1-.09-.51,1.27,1.27,0,0,1,.16-.62,1.42,1.42,0,0,1,.43-.45,2.12,2.12,0,0,1,.61-.28,2.9,2.9,0,0,1,.72-.09,2.86,2.86,0,0,1,1.16.22V216a2.27,2.27,0,0,0-1.27-.36,1.31,1.31,0,0,0-.41.06,1,1,0,0,0-.31.14.7.7,0,0,0-.2.22.69.69,0,0,0-.07.29.72.72,0,0,0,.07.32.79.79,0,0,0,.21.24,1.29,1.29,0,0,0,.33.18l.45.18c.22.09.42.18.59.27a1.68,1.68,0,0,1,.45.3,1.11,1.11,0,0,1,.29.39,1.34,1.34,0,0,1,.1.52,1.2,1.2,0,0,1-.17.64,1.35,1.35,0,0,1-.43.46,2.22,2.22,0,0,1-.63.27,3.67,3.67,0,0,1-.75.08A2.85,2.85,0,0,1,176,219.89Z"/><path class="cls-6" d="M187.3,217.77h-3.53a1.91,1.91,0,0,0,.44,1.29,1.58,1.58,0,0,0,1.19.45A2.46,2.46,0,0,0,187,219v.76a3,3,0,0,1-1.74.47,2.09,2.09,0,0,1-1.67-.68,2.79,2.79,0,0,1-.6-1.91,2.76,2.76,0,0,1,.66-1.91,2.12,2.12,0,0,1,1.64-.73,1.9,1.9,0,0,1,1.52.63,2.67,2.67,0,0,1,.54,1.77Zm-.82-.68a1.68,1.68,0,0,0-.34-1.08,1.12,1.12,0,0,0-.91-.39,1.32,1.32,0,0,0-1,.41,1.83,1.83,0,0,0-.48,1.06Zm-.13-4.57-1.28,1.6h-.62l1.09-1.6Z"/><path class="cls-6" d="M190.83,220a1.61,1.61,0,0,1-.75.15c-.88,0-1.31-.48-1.31-1.46v-3h-.86v-.68h.86v-1.22l.8-.26v1.48h1.26v.68h-1.26v2.82a1.16,1.16,0,0,0,.17.72.68.68,0,0,0,.56.21.86.86,0,0,0,.53-.17Z"/><path class="cls-6" d="M195.91,217.77h-3.53a2,2,0,0,0,.45,1.29,1.56,1.56,0,0,0,1.18.45,2.47,2.47,0,0,0,1.56-.56v.76a3,3,0,0,1-1.75.47,2.09,2.09,0,0,1-1.66-.68,2.79,2.79,0,0,1-.61-1.91,2.72,2.72,0,0,1,.67-1.91,2.1,2.1,0,0,1,1.64-.73,1.9,1.9,0,0,1,1.52.63,2.67,2.67,0,0,1,.53,1.77Zm-.82-.68a1.62,1.62,0,0,0-.33-1.08,1.14,1.14,0,0,0-.92-.39,1.32,1.32,0,0,0-1,.41,1.84,1.84,0,0,0-.49,1.06Zm-.12-4.57-1.28,1.6h-.62l1.09-1.6Z"/><path class="cls-6" d="M74.18,231.84a2.59,2.59,0,0,1-1.36.34,2.27,2.27,0,0,1-1.73-.69,2.54,2.54,0,0,1-.66-1.81,2.78,2.78,0,0,1,.71-2A2.47,2.47,0,0,1,73,227a2.64,2.64,0,0,1,1.16.24V228a2,2,0,0,0-1.19-.39,1.61,1.61,0,0,0-1.25.55,2.09,2.09,0,0,0-.49,1.45,2,2,0,0,0,.46,1.38,1.57,1.57,0,0,0,1.23.51,2,2,0,0,0,1.23-.43Z"/><path class="cls-6" d="M78,227.88a1,1,0,0,0-.6-.16,1,1,0,0,0-.86.48,2.23,2.23,0,0,0-.34,1.32v2.55h-.8v-5h.8v1h0a1.72,1.72,0,0,1,.52-.83,1.33,1.33,0,0,1,1.26-.22Z"/><path class="cls-6" d="M82.89,229.77H79.36a1.87,1.87,0,0,0,.45,1.29,1.56,1.56,0,0,0,1.18.45,2.46,2.46,0,0,0,1.55-.56v.76a3,3,0,0,1-1.74.47,2.07,2.07,0,0,1-1.66-.68,3.19,3.19,0,0,1,0-3.82,2.12,2.12,0,0,1,1.65-.73,1.86,1.86,0,0,1,1.51.63,2.67,2.67,0,0,1,.54,1.77Zm-.82-.68a1.62,1.62,0,0,0-.33-1.08,1.14,1.14,0,0,0-.92-.39,1.28,1.28,0,0,0-1,.41,1.78,1.78,0,0,0-.49,1.06Zm-.13-4.57-1.28,1.6H80l1.09-1.6Z"/><path class="cls-6" d="M88.12,229.77H84.59a1.87,1.87,0,0,0,.45,1.29,1.56,1.56,0,0,0,1.18.45,2.46,2.46,0,0,0,1.55-.56v.76a3,3,0,0,1-1.74.47,2.07,2.07,0,0,1-1.66-.68,3.19,3.19,0,0,1,0-3.82,2.12,2.12,0,0,1,1.64-.73,1.87,1.87,0,0,1,1.52.63,2.67,2.67,0,0,1,.54,1.77Zm-.82-.68A1.62,1.62,0,0,0,87,228a1.14,1.14,0,0,0-.92-.39,1.28,1.28,0,0,0-1,.41,1.78,1.78,0,0,0-.49,1.06Zm-.13-4.57-1.28,1.6h-.62l1.09-1.6Z"/><path class="cls-6" d="M93.35,229.77H89.82a1.87,1.87,0,0,0,.45,1.29,1.56,1.56,0,0,0,1.18.45A2.46,2.46,0,0,0,93,231v.76a3,3,0,0,1-1.74.47,2.11,2.11,0,0,1-1.67-.68,2.79,2.79,0,0,1-.6-1.91,2.76,2.76,0,0,1,.66-1.91,2.12,2.12,0,0,1,1.64-.73,1.88,1.88,0,0,1,1.52.63,2.67,2.67,0,0,1,.54,1.77Zm-.82-.68A1.68,1.68,0,0,0,92.2,228a1.14,1.14,0,0,0-.92-.39,1.28,1.28,0,0,0-1,.41,1.78,1.78,0,0,0-.49,1.06Z"/><path class="cls-6" d="M98.12,231.34h0v3h-.8v-7.3h.8V228h0a1.88,1.88,0,0,1,1.73-1,1.83,1.83,0,0,1,1.51.67,2.8,2.8,0,0,1,.54,1.8,3.07,3.07,0,0,1-.61,2,2,2,0,0,1-1.67.75A1.67,1.67,0,0,1,98.12,231.34Zm0-2v.7a1.53,1.53,0,0,0,.4,1.05,1.34,1.34,0,0,0,1,.43,1.36,1.36,0,0,0,1.14-.56,2.56,2.56,0,0,0,.41-1.54,2,2,0,0,0-.39-1.31,1.25,1.25,0,0,0-1-.48,1.42,1.42,0,0,0-1.12.49A1.75,1.75,0,0,0,98.1,229.33Z"/><path class="cls-6" d="M105.27,232.18a2.31,2.31,0,0,1-1.77-.7,2.57,2.57,0,0,1-.66-1.85,2.7,2.7,0,0,1,.69-2,2.42,2.42,0,0,1,1.86-.71,2.24,2.24,0,0,1,1.74.69,2.72,2.72,0,0,1,.63,1.91,2.67,2.67,0,0,1-.68,1.91A2.36,2.36,0,0,1,105.27,232.18Zm.06-4.56a1.52,1.52,0,0,0-1.22.53,2.15,2.15,0,0,0-.45,1.45,2,2,0,0,0,.45,1.4,1.55,1.55,0,0,0,1.22.51,1.48,1.48,0,0,0,1.19-.5,2.2,2.2,0,0,0,.42-1.43,2.22,2.22,0,0,0-.42-1.45A1.46,1.46,0,0,0,105.33,227.62Z"/><path class="cls-6" d="M113.08,232.07h-.8v-.79h0a1.65,1.65,0,0,1-1.54.9c-1.19,0-1.79-.71-1.79-2.12v-3h.8v2.86c0,1,.4,1.58,1.21,1.58a1.21,1.21,0,0,0,1-.43,1.68,1.68,0,0,0,.38-1.13v-2.88h.8Z"/><path class="cls-6" d="M117.3,227.88a.93.93,0,0,0-.6-.16,1,1,0,0,0-.86.48,2.23,2.23,0,0,0-.34,1.32v2.55h-.8v-5h.8v1h0a1.79,1.79,0,0,1,.52-.83,1.22,1.22,0,0,1,.79-.29,1.19,1.19,0,0,1,.47.07Z"/><path class="cls-6" d="M125.18,232.07h-.8v-.85h0a2,2,0,0,1-3.22.29,2.73,2.73,0,0,1-.57-1.83,3,3,0,0,1,.63-2,2,2,0,0,1,1.66-.75,1.6,1.6,0,0,1,1.5.81h0v-3.1h.8Zm-.8-2.26v-.74a1.43,1.43,0,0,0-.4-1,1.36,1.36,0,0,0-1-.42,1.39,1.39,0,0,0-1.15.54,2.35,2.35,0,0,0-.42,1.48,2.17,2.17,0,0,0,.4,1.37,1.33,1.33,0,0,0,1.09.5A1.37,1.37,0,0,0,124,231,1.81,1.81,0,0,0,124.38,229.81Z"/><path class="cls-6" d="M130.84,232.07H130v-.79h0a1.64,1.64,0,0,1-1.54.9c-1.19,0-1.79-.71-1.79-2.12v-3h.8v2.86c0,1,.4,1.58,1.21,1.58a1.24,1.24,0,0,0,1-.43A1.67,1.67,0,0,0,130,230v-2.88h.8Z"/><path class="cls-6" d="M142.3,232.07h-.8V229.2a2.19,2.19,0,0,0-.26-1.21,1,1,0,0,0-.86-.37,1.08,1.08,0,0,0-.87.47,1.8,1.8,0,0,0-.36,1.13v2.85h-.8v-3c0-1-.38-1.48-1.14-1.48a1.05,1.05,0,0,0-.87.45,1.85,1.85,0,0,0-.34,1.15v2.85h-.8v-5h.8v.79h0a1.69,1.69,0,0,1,1.55-.91,1.41,1.41,0,0,1,.9.29,1.5,1.5,0,0,1,.52.74,1.77,1.77,0,0,1,1.66-1q1.65,0,1.65,2Z"/><path class="cls-6" d="M145.9,232.18a2.31,2.31,0,0,1-1.77-.7,2.57,2.57,0,0,1-.66-1.85,2.7,2.7,0,0,1,.69-2A2.45,2.45,0,0,1,146,227a2.25,2.25,0,0,1,1.75.69,2.71,2.71,0,0,1,.62,1.91,2.67,2.67,0,0,1-.67,1.91A2.38,2.38,0,0,1,145.9,232.18Zm.06-4.56a1.53,1.53,0,0,0-1.22.53,2.15,2.15,0,0,0-.45,1.45,2,2,0,0,0,.46,1.4,1.53,1.53,0,0,0,1.21.51,1.49,1.49,0,0,0,1.2-.5,2.19,2.19,0,0,0,.41-1.43,2.22,2.22,0,0,0-.41-1.45A1.47,1.47,0,0,0,146,227.62Z"/><path class="cls-6" d="M153.82,232.07H153v-2.85c0-1.07-.38-1.6-1.16-1.6a1.23,1.23,0,0,0-1,.46,1.68,1.68,0,0,0-.4,1.14v2.85h-.8v-5h.8v.83h0a1.82,1.82,0,0,1,1.64-1,1.55,1.55,0,0,1,1.26.53,2.34,2.34,0,0,1,.43,1.53Z"/><path class="cls-6" d="M155.74,225.8a.49.49,0,0,1-.36-.15.53.53,0,0,1,0-.74.49.49,0,0,1,.36-.15.54.54,0,0,1,.38.15.5.5,0,0,1,.15.37.53.53,0,0,1-.15.37A.54.54,0,0,1,155.74,225.8Zm.39,6.27h-.8v-5h.8Z"/><path class="cls-6" d="M160.07,232a1.54,1.54,0,0,1-.74.15c-.88,0-1.32-.48-1.32-1.46v-3h-.86v-.68H158v-1.22l.8-.26v1.48h1.26v.68h-1.26v2.82a1.15,1.15,0,0,0,.18.72.68.68,0,0,0,.56.21.83.83,0,0,0,.52-.17Z"/><path class="cls-6" d="M163.23,232.18a2.31,2.31,0,0,1-1.77-.7,2.57,2.57,0,0,1-.66-1.85,2.7,2.7,0,0,1,.69-2,2.45,2.45,0,0,1,1.86-.71,2.25,2.25,0,0,1,1.75.69,2.76,2.76,0,0,1,.62,1.91,2.67,2.67,0,0,1-.67,1.91A2.38,2.38,0,0,1,163.23,232.18Zm.06-4.56a1.53,1.53,0,0,0-1.22.53,2.15,2.15,0,0,0-.45,1.45,2,2,0,0,0,.46,1.4,1.53,1.53,0,0,0,1.21.51,1.49,1.49,0,0,0,1.2-.5,2.73,2.73,0,0,0,0-2.88A1.47,1.47,0,0,0,163.29,227.62Z"/><path class="cls-6" d="M169.61,227.88a1,1,0,0,0-.61-.16,1,1,0,0,0-.85.48,2.22,2.22,0,0,0-.35,1.32v2.55H167v-5h.8v1h0a1.81,1.81,0,0,1,.53-.83,1.2,1.2,0,0,1,.78-.29,1.22,1.22,0,0,1,.48.07Z"/><path class="cls-6" d="M170.89,225.8a.51.51,0,0,1-.37-.15.53.53,0,0,1,0-.74.51.51,0,0,1,.37-.15.5.5,0,0,1,.37.15.47.47,0,0,1,.16.37.53.53,0,0,1-.53.52Zm.39,6.27h-.8v-5h.8Z"/><path class="cls-6" d="M177.05,232.07h-.8v-2.85c0-1.07-.39-1.6-1.16-1.6a1.27,1.27,0,0,0-1,.46,1.68,1.68,0,0,0-.39,1.14v2.85h-.8v-5h.8v.83h0a1.82,1.82,0,0,1,1.64-1,1.55,1.55,0,0,1,1.26.53,2.34,2.34,0,0,1,.43,1.53Z"/><path class="cls-6" d="M182.83,231.67c0,1.83-.88,2.75-2.64,2.75a3.58,3.58,0,0,1-1.62-.35v-.8a3.35,3.35,0,0,0,1.61.47c1.23,0,1.85-.66,1.85-2v-.54h0a2,2,0,0,1-3.22.29,2.67,2.67,0,0,1-.57-1.79,3.11,3.11,0,0,1,.61-2,2.06,2.06,0,0,1,1.68-.75,1.64,1.64,0,0,1,1.5.81h0v-.69h.8Zm-.8-1.86v-.74a1.42,1.42,0,0,0-.41-1,1.32,1.32,0,0,0-1-.43,1.39,1.39,0,0,0-1.16.54,2.42,2.42,0,0,0-.42,1.51,2.06,2.06,0,0,0,.4,1.34,1.32,1.32,0,0,0,1.07.5,1.41,1.41,0,0,0,1.1-.48A1.79,1.79,0,0,0,182,229.81Z"/><path class="cls-6" d="M184.73,232.17a.53.53,0,0,1-.39-.16.52.52,0,0,1-.15-.38.56.56,0,0,1,.15-.39.55.55,0,0,1,.94.39.49.49,0,0,1-.16.38A.53.53,0,0,1,184.73,232.17Z"/><path class="cls-6" d="M193.17,232.07h-3.71v-7H193v.75h-2.74v2.33h2.53v.73h-2.53v2.45h2.89Z"/><path class="cls-6" d="M195.22,232.07h-.81v-7.41h.81Z"/><path class="cls-6" d="M197.64,232.07h-.8v-7.41h.8Z"/><path class="cls-6" d="M203.28,229.77h-3.53a1.87,1.87,0,0,0,.45,1.29,1.54,1.54,0,0,0,1.18.45,2.46,2.46,0,0,0,1.55-.56v.76a3,3,0,0,1-1.74.47,2.11,2.11,0,0,1-1.67-.68,2.79,2.79,0,0,1-.6-1.91,2.76,2.76,0,0,1,.66-1.91,2.12,2.12,0,0,1,1.64-.73,1.88,1.88,0,0,1,1.52.63,2.67,2.67,0,0,1,.54,1.77Zm-.82-.68a1.68,1.68,0,0,0-.34-1.08,1.12,1.12,0,0,0-.91-.39,1.32,1.32,0,0,0-1,.41,1.83,1.83,0,0,0-.48,1.06Z"/><path class="cls-6" d="M73.25,237.37a1.07,1.07,0,0,0-.53-.13c-.56,0-.84.35-.84,1.06v.77h1.17v.68H71.88v4.32h-.8v-4.32h-.86v-.68h.86v-.81a1.71,1.71,0,0,1,.45-1.25,1.56,1.56,0,0,1,1.14-.45,1.84,1.84,0,0,1,.58.08Z"/><path class="cls-6" d="M76,244.18a2.31,2.31,0,0,1-1.77-.7,2.58,2.58,0,0,1-.67-1.85,2.7,2.7,0,0,1,.69-2,2.45,2.45,0,0,1,1.86-.71,2.25,2.25,0,0,1,1.75.69,2.72,2.72,0,0,1,.63,1.91,2.67,2.67,0,0,1-.68,1.91A2.37,2.37,0,0,1,76,244.18Zm0-4.56a1.53,1.53,0,0,0-1.22.53,2.15,2.15,0,0,0-.44,1.45,2,2,0,0,0,.45,1.4,1.54,1.54,0,0,0,1.21.51,1.49,1.49,0,0,0,1.2-.5,2.2,2.2,0,0,0,.42-1.43,2.22,2.22,0,0,0-.42-1.45A1.47,1.47,0,0,0,76.05,239.62Z"/><path class="cls-6" d="M83.81,244.07H83v-.79h0a1.65,1.65,0,0,1-1.54.9c-1.2,0-1.79-.71-1.79-2.12v-3h.79v2.86c0,1,.41,1.58,1.22,1.58a1.21,1.21,0,0,0,1-.43A1.68,1.68,0,0,0,83,242v-2.88h.8Z"/><path class="cls-6" d="M88,239.88a1,1,0,0,0-.6-.16,1,1,0,0,0-.86.48,2.23,2.23,0,0,0-.34,1.32v2.55h-.8v-5h.8v1h0a1.72,1.72,0,0,1,.52-.83,1.2,1.2,0,0,1,.78-.29,1.22,1.22,0,0,1,.48.07Z"/><path class="cls-6" d="M93.05,244.07h-.8v-2.85c0-1.07-.39-1.6-1.16-1.6a1.23,1.23,0,0,0-1,.46,1.64,1.64,0,0,0-.4,1.14v2.85h-.8v-5h.8v.83h0a1.82,1.82,0,0,1,1.64-1,1.55,1.55,0,0,1,1.26.53,2.34,2.34,0,0,1,.43,1.53Z"/><path class="cls-6" d="M95,237.8a.53.53,0,0,1-.37-.15.53.53,0,0,1,0-.74.53.53,0,0,1,.37-.15.5.5,0,0,1,.37.15.47.47,0,0,1,.16.37.53.53,0,0,1-.53.52Zm.39,6.27h-.8v-5h.8Z"/><path class="cls-6" d="M99.3,244a1.61,1.61,0,0,1-.75.15c-.87,0-1.31-.48-1.31-1.46v-3h-.86v-.68h.86v-1.22l.8-.26v1.48H99.3v.68H98v2.82a1.23,1.23,0,0,0,.17.72.71.71,0,0,0,.57.21.83.83,0,0,0,.52-.17Z"/><path class="cls-6" d="M106.52,243.84a2.63,2.63,0,0,1-1.37.34,2.25,2.25,0,0,1-1.72-.69,2.54,2.54,0,0,1-.66-1.81,2.73,2.73,0,0,1,.71-2,2.47,2.47,0,0,1,1.89-.75,2.67,2.67,0,0,1,1.16.24V240a2,2,0,0,0-1.19-.39,1.64,1.64,0,0,0-1.26.55,2.09,2.09,0,0,0-.49,1.45,2,2,0,0,0,.46,1.38,1.59,1.59,0,0,0,1.24.51,2.09,2.09,0,0,0,1.23-.43Z"/><path class="cls-6" d="M111.75,241.77h-3.53a1.87,1.87,0,0,0,.45,1.29,1.54,1.54,0,0,0,1.18.45,2.46,2.46,0,0,0,1.55-.56v.76a3,3,0,0,1-1.74.47,2.11,2.11,0,0,1-1.67-.68,2.79,2.79,0,0,1-.6-1.91,2.76,2.76,0,0,1,.66-1.91,2.12,2.12,0,0,1,1.64-.73,1.88,1.88,0,0,1,1.52.63,2.67,2.67,0,0,1,.54,1.77Zm-.82-.68a1.62,1.62,0,0,0-.34-1.08,1.12,1.12,0,0,0-.91-.39,1.28,1.28,0,0,0-1,.41,1.78,1.78,0,0,0-.49,1.06Z"/><path class="cls-6" d="M113.78,243.34h0v3H113v-7.3h.8V240h0a1.88,1.88,0,0,1,1.73-1,1.83,1.83,0,0,1,1.51.67,2.8,2.8,0,0,1,.54,1.8,3.07,3.07,0,0,1-.61,2,2,2,0,0,1-1.67.75A1.67,1.67,0,0,1,113.78,243.34Zm0-2v.7a1.48,1.48,0,0,0,.4,1.05,1.34,1.34,0,0,0,1,.43,1.36,1.36,0,0,0,1.14-.56,2.56,2.56,0,0,0,.41-1.54,2,2,0,0,0-.39-1.31,1.25,1.25,0,0,0-1-.48,1.45,1.45,0,0,0-1.13.49A1.79,1.79,0,0,0,113.76,241.33Z"/><path class="cls-6" d="M122.86,241.77h-3.53a1.87,1.87,0,0,0,.45,1.29,1.54,1.54,0,0,0,1.18.45,2.46,2.46,0,0,0,1.55-.56v.76a3,3,0,0,1-1.74.47,2.11,2.11,0,0,1-1.67-.68,2.79,2.79,0,0,1-.6-1.91,2.76,2.76,0,0,1,.66-1.91,2.12,2.12,0,0,1,1.64-.73,1.88,1.88,0,0,1,1.52.63,2.67,2.67,0,0,1,.54,1.77Zm-.82-.68a1.68,1.68,0,0,0-.34-1.08,1.12,1.12,0,0,0-.91-.39,1.32,1.32,0,0,0-1,.41,1.83,1.83,0,0,0-.48,1.06Z"/><path class="cls-6" d="M128.22,244.07h-.8v-2.85c0-1.07-.39-1.6-1.16-1.6a1.24,1.24,0,0,0-1,.46,1.68,1.68,0,0,0-.39,1.14v2.85h-.8v-5h.8v.83h0a1.81,1.81,0,0,1,1.64-1,1.53,1.53,0,0,1,1.25.53,2.35,2.35,0,0,1,.44,1.53Z"/><path class="cls-6" d="M134,244.07h-.8v-.85h0a2,2,0,0,1-3.22.29,2.72,2.72,0,0,1-.56-1.83,3,3,0,0,1,.62-2,2.06,2.06,0,0,1,1.67-.75,1.59,1.59,0,0,1,1.49.81h0v-3.1h.8Zm-.8-2.26v-.74a1.43,1.43,0,0,0-.4-1,1.32,1.32,0,0,0-1-.42,1.37,1.37,0,0,0-1.15.54,2.29,2.29,0,0,0-.42,1.48,2.11,2.11,0,0,0,.4,1.37,1.33,1.33,0,0,0,1.08.5,1.38,1.38,0,0,0,1.09-.48A1.85,1.85,0,0,0,133.19,241.81Z"/><path class="cls-6" d="M139.19,244.07h-.8v-.78h0a1.67,1.67,0,0,1-1.53.89,1.65,1.65,0,0,1-1.17-.39,1.39,1.39,0,0,1-.43-1c0-.94.55-1.48,1.65-1.63l1.5-.21c0-.85-.34-1.28-1-1.28a2.48,2.48,0,0,0-1.63.62v-.82a3.12,3.12,0,0,1,1.7-.47c1.18,0,1.76.62,1.76,1.86Zm-.8-2.53-1.2.16a2.11,2.11,0,0,0-.84.28.8.8,0,0,0-.29.7.77.77,0,0,0,.27.6,1,1,0,0,0,.69.23,1.29,1.29,0,0,0,1-.42,1.52,1.52,0,0,0,.38-1.05Z"/><path class="cls-6" d="M144.85,244.07h-.8v-2.85c0-1.07-.38-1.6-1.16-1.6a1.23,1.23,0,0,0-1,.46,1.68,1.68,0,0,0-.4,1.14v2.85h-.8v-5h.8v.83h0a1.82,1.82,0,0,1,1.64-1,1.55,1.55,0,0,1,1.26.53,2.34,2.34,0,0,1,.43,1.53Z"/><path class="cls-6" d="M148.68,244a1.6,1.6,0,0,1-.74.15c-.88,0-1.32-.48-1.32-1.46v-3h-.86v-.68h.86v-1.22l.8-.26v1.48h1.26v.68h-1.26v2.82a1.23,1.23,0,0,0,.17.72.71.71,0,0,0,.57.21.83.83,0,0,0,.52-.17Z"/><path class="cls-6" d="M156.76,244.07H156v-.85h0a2,2,0,0,1-3.23.29,2.78,2.78,0,0,1-.56-1.83,3,3,0,0,1,.62-2,2.08,2.08,0,0,1,1.67-.75,1.6,1.6,0,0,1,1.5.81h0v-3.1h.8Zm-.8-2.26v-.74a1.48,1.48,0,0,0-.4-1,1.36,1.36,0,0,0-1-.42,1.37,1.37,0,0,0-1.15.54,2.35,2.35,0,0,0-.42,1.48,2.11,2.11,0,0,0,.4,1.37,1.33,1.33,0,0,0,1.08.5,1.38,1.38,0,0,0,1.09-.48A1.81,1.81,0,0,0,156,241.81Z"/><path class="cls-6" d="M162.4,241.77h-3.53a1.87,1.87,0,0,0,.45,1.29,1.54,1.54,0,0,0,1.18.45,2.46,2.46,0,0,0,1.55-.56v.76a3,3,0,0,1-1.74.47,2.11,2.11,0,0,1-1.67-.68,2.79,2.79,0,0,1-.6-1.91,2.76,2.76,0,0,1,.66-1.91,2.12,2.12,0,0,1,1.64-.73,1.88,1.88,0,0,1,1.52.63,2.67,2.67,0,0,1,.54,1.77Zm-.82-.68a1.68,1.68,0,0,0-.34-1.08,1.12,1.12,0,0,0-.91-.39,1.28,1.28,0,0,0-1,.41,1.78,1.78,0,0,0-.49,1.06Z"/><path class="cls-6" d="M163.31,243.89V243a2.35,2.35,0,0,0,1.44.48c.7,0,1.05-.23,1.05-.7a.59.59,0,0,0-.09-.34.82.82,0,0,0-.24-.25,3,3,0,0,0-.36-.19l-.45-.18a5.37,5.37,0,0,1-.58-.27,1.74,1.74,0,0,1-.42-.3,1.08,1.08,0,0,1-.26-.38,1.3,1.3,0,0,1-.08-.51,1.17,1.17,0,0,1,.16-.62,1.32,1.32,0,0,1,.43-.45,2,2,0,0,1,.61-.28,2.82,2.82,0,0,1,.71-.09,2.86,2.86,0,0,1,1.16.22V240a2.27,2.27,0,0,0-1.27-.36,1.25,1.25,0,0,0-.4.06.89.89,0,0,0-.31.14.53.53,0,0,0-.2.22.57.57,0,0,0-.07.29.61.61,0,0,0,.07.32.64.64,0,0,0,.2.24,1.56,1.56,0,0,0,.34.18l.44.18.6.27a2.08,2.08,0,0,1,.45.3,1.21,1.21,0,0,1,.28.39,1.18,1.18,0,0,1,.1.52,1.19,1.19,0,0,1-.16.64,1.38,1.38,0,0,1-.44.46,2,2,0,0,1-.63.27,3.59,3.59,0,0,1-.75.08A2.78,2.78,0,0,1,163.31,243.89Z"/><path class="cls-6" d="M174.86,244.07h-.8v-.85h0a2,2,0,0,1-3.23.29,2.78,2.78,0,0,1-.56-1.83,3,3,0,0,1,.62-2,2.08,2.08,0,0,1,1.67-.75,1.6,1.6,0,0,1,1.5.81h0v-3.1h.8Zm-.8-2.26v-.74a1.48,1.48,0,0,0-.4-1,1.36,1.36,0,0,0-1-.42,1.37,1.37,0,0,0-1.15.54,2.35,2.35,0,0,0-.42,1.48,2.11,2.11,0,0,0,.4,1.37,1.33,1.33,0,0,0,1.08.5,1.38,1.38,0,0,0,1.09-.48A1.81,1.81,0,0,0,174.06,241.81Z"/><path class="cls-6" d="M178.57,244.18a2.31,2.31,0,0,1-1.77-.7,2.57,2.57,0,0,1-.66-1.85,2.7,2.7,0,0,1,.69-2,2.45,2.45,0,0,1,1.86-.71,2.24,2.24,0,0,1,1.74.69,2.72,2.72,0,0,1,.63,1.91,2.67,2.67,0,0,1-.68,1.91A2.36,2.36,0,0,1,178.57,244.18Zm.06-4.56a1.52,1.52,0,0,0-1.22.53,2.15,2.15,0,0,0-.45,1.45,2,2,0,0,0,.45,1.4,1.56,1.56,0,0,0,1.22.51,1.47,1.47,0,0,0,1.19-.5,2.2,2.2,0,0,0,.42-1.43,2.22,2.22,0,0,0-.42-1.45A1.45,1.45,0,0,0,178.63,239.62Z"/><path class="cls-6" d="M186.49,244.07h-.8v-2.85c0-1.07-.39-1.6-1.16-1.6a1.27,1.27,0,0,0-1,.46,1.68,1.68,0,0,0-.39,1.14v2.85h-.8v-5h.8v.83h0a1.81,1.81,0,0,1,1.64-1,1.55,1.55,0,0,1,1.26.53,2.34,2.34,0,0,1,.43,1.53Z"/><path class="cls-6" d="M192.15,244.07h-.8v-2.85c0-1.07-.39-1.6-1.16-1.6a1.25,1.25,0,0,0-1,.46,1.68,1.68,0,0,0-.39,1.14v2.85H188v-5h.8v.83h0a1.81,1.81,0,0,1,1.64-1,1.53,1.53,0,0,1,1.25.53,2.35,2.35,0,0,1,.44,1.53Z"/><path class="cls-6" d="M197.68,241.77h-3.53a1.87,1.87,0,0,0,.45,1.29,1.54,1.54,0,0,0,1.18.45,2.46,2.46,0,0,0,1.55-.56v.76a3,3,0,0,1-1.74.47,2.09,2.09,0,0,1-1.67-.68,2.79,2.79,0,0,1-.6-1.91,2.76,2.76,0,0,1,.66-1.91,2.12,2.12,0,0,1,1.64-.73,1.88,1.88,0,0,1,1.52.63,2.67,2.67,0,0,1,.54,1.77Zm-.82-.68a1.68,1.68,0,0,0-.34-1.08,1.12,1.12,0,0,0-.91-.39,1.32,1.32,0,0,0-1,.41,1.83,1.83,0,0,0-.48,1.06Zm-.13-4.57-1.28,1.6h-.62l1.09-1.6Z"/><path class="cls-6" d="M202.91,241.77h-3.53a1.91,1.91,0,0,0,.44,1.29,1.58,1.58,0,0,0,1.19.45,2.46,2.46,0,0,0,1.55-.56v.76a3,3,0,0,1-1.74.47,2.09,2.09,0,0,1-1.67-.68,2.79,2.79,0,0,1-.6-1.91,2.76,2.76,0,0,1,.66-1.91,2.12,2.12,0,0,1,1.64-.73,1.9,1.9,0,0,1,1.52.63,2.67,2.67,0,0,1,.54,1.77Zm-.82-.68a1.68,1.68,0,0,0-.34-1.08,1.12,1.12,0,0,0-.91-.39,1.32,1.32,0,0,0-1,.41,1.83,1.83,0,0,0-.48,1.06Z"/><path class="cls-6" d="M203.81,243.89V243a2.4,2.4,0,0,0,1.44.48c.71,0,1.06-.23,1.06-.7a.59.59,0,0,0-.09-.34.75.75,0,0,0-.25-.25,2,2,0,0,0-.36-.19l-.44-.18c-.22-.09-.42-.18-.59-.27a2.25,2.25,0,0,1-.42-.3,1.19,1.19,0,0,1-.25-.38,1.29,1.29,0,0,1-.09-.51,1.18,1.18,0,0,1,.17-.62,1.39,1.39,0,0,1,.42-.45A2.06,2.06,0,0,1,205,239a2.76,2.76,0,0,1,.71-.09,2.86,2.86,0,0,1,1.16.22V240a2.27,2.27,0,0,0-1.27-.36,1.25,1.25,0,0,0-.4.06.89.89,0,0,0-.31.14.63.63,0,0,0-.21.22.69.69,0,0,0-.07.29.72.72,0,0,0,.07.32.79.79,0,0,0,.21.24,1.29,1.29,0,0,0,.33.18l.45.18c.22.09.42.18.59.27a1.68,1.68,0,0,1,.45.3,1.11,1.11,0,0,1,.29.39,1.18,1.18,0,0,1,.1.52,1.29,1.29,0,0,1-.16.64,1.38,1.38,0,0,1-.44.46,2,2,0,0,1-.63.27,3.67,3.67,0,0,1-.75.08A2.85,2.85,0,0,1,203.81,243.89Z"/><path class="cls-6" d="M71.6,255.34h0v3h-.8v-7.3h.8V252h0a1.88,1.88,0,0,1,1.73-1,1.81,1.81,0,0,1,1.5.67,2.74,2.74,0,0,1,.55,1.8,3.13,3.13,0,0,1-.61,2,2,2,0,0,1-1.67.75A1.67,1.67,0,0,1,71.6,255.34Zm0-2v.7a1.48,1.48,0,0,0,.4,1.05,1.43,1.43,0,0,0,2.16-.13,2.49,2.49,0,0,0,.42-1.54,2,2,0,0,0-.39-1.31,1.28,1.28,0,0,0-1-.48,1.45,1.45,0,0,0-1.13.49A1.79,1.79,0,0,0,71.58,253.33Z"/><path class="cls-6" d="M78.75,256.18a2.31,2.31,0,0,1-1.77-.7,2.53,2.53,0,0,1-.67-1.85,2.7,2.7,0,0,1,.69-2,2.45,2.45,0,0,1,1.86-.71,2.25,2.25,0,0,1,1.75.69,2.72,2.72,0,0,1,.63,1.91,2.67,2.67,0,0,1-.68,1.91A2.37,2.37,0,0,1,78.75,256.18Zm0-4.56a1.53,1.53,0,0,0-1.22.53,2.15,2.15,0,0,0-.45,1.45,2.05,2.05,0,0,0,.46,1.4,1.54,1.54,0,0,0,1.21.51A1.49,1.49,0,0,0,80,255a2.2,2.2,0,0,0,.42-1.43,2.22,2.22,0,0,0-.42-1.45A1.47,1.47,0,0,0,78.8,251.62Z"/><path class="cls-6" d="M86.56,256.07h-.8v-.79h0a1.65,1.65,0,0,1-1.55.9c-1.19,0-1.78-.71-1.78-2.12v-3h.79v2.86c0,1,.41,1.58,1.21,1.58a1.23,1.23,0,0,0,1-.43,1.68,1.68,0,0,0,.38-1.13v-2.88h.8Z"/><path class="cls-6" d="M90.78,251.88a1,1,0,0,0-.6-.16,1,1,0,0,0-.86.48,2.22,2.22,0,0,0-.35,1.32v2.55h-.8v-5H89v1h0a1.81,1.81,0,0,1,.53-.83,1.2,1.2,0,0,1,.78-.29,1.22,1.22,0,0,1,.48.07Z"/><path class="cls-6" d="M95.19,256.07h-.8v-7.41h.8Z"/><path class="cls-6" d="M100.83,253.77H97.3a1.87,1.87,0,0,0,.45,1.29,1.56,1.56,0,0,0,1.18.45,2.46,2.46,0,0,0,1.55-.56v.76a3,3,0,0,1-1.74.47,2.07,2.07,0,0,1-1.66-.68,3.19,3.19,0,0,1,0-3.82,2.12,2.12,0,0,1,1.64-.73,1.87,1.87,0,0,1,1.52.63,2.67,2.67,0,0,1,.54,1.77Zm-.82-.68a1.62,1.62,0,0,0-.33-1.08,1.14,1.14,0,0,0-.92-.39,1.28,1.28,0,0,0-1,.41,1.78,1.78,0,0,0-.49,1.06Z"/><path class="cls-6" d="M101.74,255.89V255a2.38,2.38,0,0,0,1.44.48c.7,0,1-.23,1-.7a.59.59,0,0,0-.09-.34.82.82,0,0,0-.24-.25,2,2,0,0,0-.36-.19l-.45-.18c-.22-.09-.41-.18-.58-.27a1.74,1.74,0,0,1-.42-.3,1.22,1.22,0,0,1-.26-.38,1.52,1.52,0,0,1-.08-.51,1.17,1.17,0,0,1,.16-.62,1.42,1.42,0,0,1,.43-.45A2,2,0,0,1,103,251a3,3,0,0,1,1.87.13V252a2.25,2.25,0,0,0-1.27-.36,1.29,1.29,0,0,0-.4.06,1,1,0,0,0-.31.14.6.6,0,0,0-.2.22.57.57,0,0,0-.07.29.61.61,0,0,0,.07.32.79.79,0,0,0,.21.24,1.29,1.29,0,0,0,.33.18l.44.18.6.27a2.08,2.08,0,0,1,.45.3,1.08,1.08,0,0,1,.28.39,1.18,1.18,0,0,1,.1.52,1.19,1.19,0,0,1-.16.64,1.29,1.29,0,0,1-.44.46,2,2,0,0,1-.63.27,3.5,3.5,0,0,1-.74.08A2.82,2.82,0,0,1,101.74,255.89Z"/><path class="cls-6" d="M111.49,249.37a1,1,0,0,0-.53-.13c-.56,0-.84.35-.84,1.06v.77h1.17v.68h-1.17v4.32h-.79v-4.32h-.86v-.68h.86v-.81a1.71,1.71,0,0,1,.45-1.25,1.54,1.54,0,0,1,1.13-.45,1.75,1.75,0,0,1,.58.08Z"/><path class="cls-6" d="M115.73,256.07h-.8v-.78h0a1.84,1.84,0,0,1-2.71.5,1.38,1.38,0,0,1-.42-1c0-.94.55-1.48,1.65-1.63l1.5-.21c0-.85-.34-1.28-1-1.28a2.48,2.48,0,0,0-1.63.62v-.82A3.12,3.12,0,0,1,114,251c1.17,0,1.76.62,1.76,1.86Zm-.8-2.53-1.2.16a2,2,0,0,0-.84.28.9.9,0,0,0,0,1.3,1.05,1.05,0,0,0,.7.23,1.27,1.27,0,0,0,1-.42,1.48,1.48,0,0,0,.39-1.05Z"/><path class="cls-6" d="M120.65,255.84a2.6,2.6,0,0,1-1.37.34,2.25,2.25,0,0,1-1.72-.69,2.54,2.54,0,0,1-.66-1.81,2.78,2.78,0,0,1,.71-2,2.47,2.47,0,0,1,1.89-.75,2.67,2.67,0,0,1,1.16.24V252a2,2,0,0,0-1.19-.39,1.64,1.64,0,0,0-1.26.55,2.09,2.09,0,0,0-.49,1.45,2,2,0,0,0,.46,1.38,1.59,1.59,0,0,0,1.24.51,2,2,0,0,0,1.23-.43Z"/><path class="cls-6" d="M125.9,256.07h-.8v-.79h0a1.64,1.64,0,0,1-1.54.9c-1.19,0-1.79-.71-1.79-2.12v-3h.8v2.86c0,1,.4,1.58,1.21,1.58a1.21,1.21,0,0,0,1-.43,1.63,1.63,0,0,0,.38-1.13v-2.88h.8Z"/><path class="cls-6" d="M128.32,256.07h-.8v-7.41h.8Z"/><path class="cls-6" d="M132.26,256a1.61,1.61,0,0,1-.75.15c-.87,0-1.31-.48-1.31-1.46v-3h-.86v-.68h.86v-1.22l.8-.26v1.48h1.26v.68H131v2.82a1.23,1.23,0,0,0,.17.72.7.7,0,0,0,.57.21.85.85,0,0,0,.52-.17Z"/><path class="cls-6" d="M137.35,253.77h-3.53a1.87,1.87,0,0,0,.45,1.29,1.54,1.54,0,0,0,1.18.45A2.46,2.46,0,0,0,137,255v.76a3,3,0,0,1-1.74.47,2.11,2.11,0,0,1-1.67-.68,2.79,2.79,0,0,1-.6-1.91,2.76,2.76,0,0,1,.66-1.91,2.12,2.12,0,0,1,1.64-.73,1.88,1.88,0,0,1,1.52.63,2.67,2.67,0,0,1,.54,1.77Zm-.82-.68a1.62,1.62,0,0,0-.34-1.08,1.12,1.12,0,0,0-.91-.39,1.28,1.28,0,0,0-1,.41,1.78,1.78,0,0,0-.49,1.06Zm-.13-4.57-1.28,1.6h-.62l1.09-1.6Z"/><path class="cls-6" d="M138.26,255.89V255a2.35,2.35,0,0,0,1.44.48c.7,0,1.05-.23,1.05-.7a.59.59,0,0,0-.09-.34.82.82,0,0,0-.24-.25,2.42,2.42,0,0,0-.36-.19l-.45-.18a5.37,5.37,0,0,1-.58-.27,1.74,1.74,0,0,1-.42-.3,1.08,1.08,0,0,1-.26-.38,1.52,1.52,0,0,1-.08-.51,1.17,1.17,0,0,1,.16-.62,1.42,1.42,0,0,1,.43-.45,2,2,0,0,1,.61-.28,2.82,2.82,0,0,1,.71-.09,2.86,2.86,0,0,1,1.16.22V252a2.27,2.27,0,0,0-1.27-.36,1.25,1.25,0,0,0-.4.06.89.89,0,0,0-.31.14.6.6,0,0,0-.2.22.57.57,0,0,0-.07.29.61.61,0,0,0,.07.32.68.68,0,0,0,.21.24,1.29,1.29,0,0,0,.33.18l.44.18.6.27a2.08,2.08,0,0,1,.45.3,1.08,1.08,0,0,1,.28.39,1.18,1.18,0,0,1,.1.52,1.19,1.19,0,0,1-.16.64,1.38,1.38,0,0,1-.44.46,2,2,0,0,1-.63.27,3.59,3.59,0,0,1-.75.08A2.8,2.8,0,0,1,138.26,255.89Z"/><path class="cls-6" d="M149.81,256.07H149v-.85h0a1.85,1.85,0,0,1-1.72,1,1.87,1.87,0,0,1-1.51-.67,2.78,2.78,0,0,1-.56-1.83,3,3,0,0,1,.63-2,2,2,0,0,1,1.66-.75,1.6,1.6,0,0,1,1.5.81h0v-3.1h.8Zm-.8-2.26v-.74a1.43,1.43,0,0,0-.4-1,1.36,1.36,0,0,0-1-.42,1.39,1.39,0,0,0-1.15.54,2.35,2.35,0,0,0-.42,1.48,2.17,2.17,0,0,0,.4,1.37,1.33,1.33,0,0,0,1.09.5,1.37,1.37,0,0,0,1.08-.48A1.81,1.81,0,0,0,149,253.81Z"/><path class="cls-6" d="M155.45,253.77h-3.53a1.87,1.87,0,0,0,.45,1.29,1.56,1.56,0,0,0,1.18.45,2.46,2.46,0,0,0,1.55-.56v.76a3,3,0,0,1-1.74.47,2.07,2.07,0,0,1-1.66-.68,3.19,3.19,0,0,1,.05-3.82,2.12,2.12,0,0,1,1.64-.73,1.88,1.88,0,0,1,1.52.63,2.67,2.67,0,0,1,.54,1.77Zm-.82-.68a1.57,1.57,0,0,0-.34-1.08,1.11,1.11,0,0,0-.91-.39,1.28,1.28,0,0,0-1,.41,1.78,1.78,0,0,0-.49,1.06Z"/><path class="cls-6" d="M166.65,256.07h-.82v-4.7c0-.37,0-.83.07-1.36h0a5.27,5.27,0,0,1-.21.68l-2.39,5.38h-.4l-2.39-5.34a4.1,4.1,0,0,1-.21-.72h0c0,.28,0,.73,0,1.37v4.69h-.79v-7h1.08l2.15,4.89a5.44,5.44,0,0,1,.32.84h0c.14-.39.25-.67.34-.86l2.19-4.87h1Z"/><path class="cls-6" d="M172.4,253.77h-3.53a1.87,1.87,0,0,0,.45,1.29,1.54,1.54,0,0,0,1.18.45,2.46,2.46,0,0,0,1.55-.56v.76a3,3,0,0,1-1.74.47,2.11,2.11,0,0,1-1.67-.68,2.79,2.79,0,0,1-.6-1.91,2.76,2.76,0,0,1,.66-1.91,2.12,2.12,0,0,1,1.64-.73,1.88,1.88,0,0,1,1.52.63,2.67,2.67,0,0,1,.54,1.77Zm-.82-.68a1.68,1.68,0,0,0-.34-1.08,1.12,1.12,0,0,0-.91-.39,1.28,1.28,0,0,0-1,.41,1.78,1.78,0,0,0-.49,1.06Zm-.13-4.57-1.28,1.6h-.62l1.09-1.6Z"/><path class="cls-6" d="M177.88,256.07h-.8v-.85h0a2,2,0,0,1-3.23.29,2.72,2.72,0,0,1-.56-1.83,3,3,0,0,1,.62-2,2.06,2.06,0,0,1,1.67-.75,1.62,1.62,0,0,1,1.5.81h0v-3.1h.8Zm-.8-2.26v-.74a1.48,1.48,0,0,0-.4-1,1.36,1.36,0,0,0-1-.42,1.37,1.37,0,0,0-1.15.54,2.35,2.35,0,0,0-.42,1.48,2.11,2.11,0,0,0,.4,1.37,1.33,1.33,0,0,0,1.08.5,1.38,1.38,0,0,0,1.09-.48A1.81,1.81,0,0,0,177.08,253.81Z"/><path class="cls-6" d="M183.52,253.77H180a1.87,1.87,0,0,0,.45,1.29,1.54,1.54,0,0,0,1.18.45,2.46,2.46,0,0,0,1.55-.56v.76a3,3,0,0,1-1.74.47,2.09,2.09,0,0,1-1.67-.68,2.79,2.79,0,0,1-.6-1.91,2.76,2.76,0,0,1,.66-1.91,2.12,2.12,0,0,1,1.64-.73,1.9,1.9,0,0,1,1.52.63,2.67,2.67,0,0,1,.54,1.77Zm-.82-.68a1.68,1.68,0,0,0-.34-1.08,1.12,1.12,0,0,0-.91-.39,1.32,1.32,0,0,0-1,.41,1.83,1.83,0,0,0-.48,1.06Z"/><path class="cls-6" d="M188.14,255.84a2.63,2.63,0,0,1-1.37.34,2.29,2.29,0,0,1-1.73-.69,2.53,2.53,0,0,1-.65-1.81,2.77,2.77,0,0,1,.7-2A2.5,2.5,0,0,1,187,251a2.72,2.72,0,0,1,1.17.24V252a2.07,2.07,0,0,0-1.2-.39,1.61,1.61,0,0,0-1.25.55,2.09,2.09,0,0,0-.49,1.45,2,2,0,0,0,.46,1.38,1.59,1.59,0,0,0,1.24.51,2.09,2.09,0,0,0,1.23-.43Z"/><path class="cls-6" d="M189.76,249.8a.52.52,0,1,1,0-1,.51.51,0,0,1,.37.15.5.5,0,0,1,.15.37.53.53,0,0,1-.15.37A.51.51,0,0,1,189.76,249.8Zm.39,6.27h-.8v-5h.8Z"/><path class="cls-6" d="M195.92,256.07h-.8v-2.85c0-1.07-.39-1.6-1.16-1.6a1.25,1.25,0,0,0-1,.46,1.68,1.68,0,0,0-.39,1.14v2.85h-.8v-5h.8v.83h0a1.81,1.81,0,0,1,1.64-1,1.53,1.53,0,0,1,1.25.53,2.35,2.35,0,0,1,.44,1.53Z"/><path class="cls-6" d="M201.45,253.77h-3.53a1.91,1.91,0,0,0,.44,1.29,1.58,1.58,0,0,0,1.19.45,2.46,2.46,0,0,0,1.55-.56v.76a3,3,0,0,1-1.74.47,2.09,2.09,0,0,1-1.67-.68,2.79,2.79,0,0,1-.6-1.91,2.76,2.76,0,0,1,.66-1.91,2.12,2.12,0,0,1,1.64-.73,1.9,1.9,0,0,1,1.52.63,2.67,2.67,0,0,1,.54,1.77Zm-.82-.68a1.68,1.68,0,0,0-.34-1.08,1.12,1.12,0,0,0-.91-.39,1.32,1.32,0,0,0-1,.41,1.83,1.83,0,0,0-.48,1.06Z"/><path class="cls-6" d="M209.41,253.77h-3.53a2,2,0,0,0,.45,1.29,1.57,1.57,0,0,0,1.19.45,2.46,2.46,0,0,0,1.55-.56v.76a3,3,0,0,1-1.75.47,2.09,2.09,0,0,1-1.66-.68,3.17,3.17,0,0,1,.06-3.82,2.1,2.1,0,0,1,1.64-.73,1.9,1.9,0,0,1,1.52.63,2.67,2.67,0,0,1,.53,1.77Zm-.82-.68a1.62,1.62,0,0,0-.33-1.08,1.13,1.13,0,0,0-.92-.39,1.32,1.32,0,0,0-1,.41,1.91,1.91,0,0,0-.49,1.06Z"/><path class="cls-6" d="M213,256a1.61,1.61,0,0,1-.75.15c-.88,0-1.32-.48-1.32-1.46v-3H210v-.68h.85v-1.22l.81-.26v1.48H213v.68h-1.26v2.82a1.16,1.16,0,0,0,.17.72.68.68,0,0,0,.56.21.88.88,0,0,0,.53-.17Z"/><path class="cls-6" d="M75,268.07h-.8v-.85h0a2,2,0,0,1-3.22.29,2.73,2.73,0,0,1-.57-1.83,3,3,0,0,1,.63-2,2.06,2.06,0,0,1,1.66-.75,1.6,1.6,0,0,1,1.5.81h0v-3.1H75Zm-.8-2.26v-.74a1.43,1.43,0,0,0-.4-1,1.32,1.32,0,0,0-1-.42,1.36,1.36,0,0,0-1.15.54,2.35,2.35,0,0,0-.42,1.48,2.11,2.11,0,0,0,.4,1.37,1.33,1.33,0,0,0,1.08.5,1.38,1.38,0,0,0,1.09-.48A1.85,1.85,0,0,0,74.24,265.81Z"/><path class="cls-6" d="M80.68,265.77H77.15a2,2,0,0,0,.45,1.29,1.56,1.56,0,0,0,1.18.45,2.49,2.49,0,0,0,1.56-.56v.76a3,3,0,0,1-1.75.47,2.09,2.09,0,0,1-1.66-.68,2.79,2.79,0,0,1-.61-1.91,2.72,2.72,0,0,1,.67-1.91,2.1,2.1,0,0,1,1.64-.73,1.9,1.9,0,0,1,1.52.63,2.73,2.73,0,0,1,.53,1.77Zm-.82-.68a1.62,1.62,0,0,0-.33-1.08,1.14,1.14,0,0,0-.92-.39,1.32,1.32,0,0,0-1,.41,1.91,1.91,0,0,0-.49,1.06Z"/><path class="cls-6" d="M90,267.59a4.69,4.69,0,0,1-2.35.59,3.19,3.19,0,0,1-2.42-1,3.55,3.55,0,0,1-.93-2.56,3.65,3.65,0,0,1,1-2.67,3.53,3.53,0,0,1,2.61-1,4.34,4.34,0,0,1,1.91.37v.91a3.64,3.64,0,0,0-2-.54,2.54,2.54,0,0,0-1.93.81,3.39,3.39,0,0,0,0,4.19,2.48,2.48,0,0,0,1.89.76,2.93,2.93,0,0,0,1.43-.33v-2H87.62v-.75H90Z"/><path class="cls-6" d="M91.27,267.78v-1a3.07,3.07,0,0,0,.4.26,4.19,4.19,0,0,0,.49.2,4.37,4.37,0,0,0,.52.12,2.79,2.79,0,0,0,.47.05,1.89,1.89,0,0,0,1.13-.28,1,1,0,0,0,.38-.81.93.93,0,0,0-.13-.5,1.33,1.33,0,0,0-.34-.38,4.71,4.71,0,0,0-.52-.33l-.65-.34c-.24-.12-.47-.24-.68-.37a3.06,3.06,0,0,1-.55-.42,1.71,1.71,0,0,1-.37-.52,1.73,1.73,0,0,1,.07-1.51,1.76,1.76,0,0,1,.56-.59,2.34,2.34,0,0,1,.77-.34,3.89,3.89,0,0,1,.9-.11,3.3,3.3,0,0,1,1.5.25v.92a2.69,2.69,0,0,0-1.59-.43,2.39,2.39,0,0,0-.53.06,1.45,1.45,0,0,0-.48.18.9.9,0,0,0-.34.33.83.83,0,0,0-.14.48,1.12,1.12,0,0,0,.1.47,1.1,1.1,0,0,0,.3.35,2.67,2.67,0,0,0,.48.32l.64.33q.38.18.72.39a4,4,0,0,1,.59.45,2,2,0,0,1,.4.56,1.52,1.52,0,0,1,.15.69,1.84,1.84,0,0,1-.2.88,1.7,1.7,0,0,1-.55.58,2.28,2.28,0,0,1-.8.32,4,4,0,0,1-.94.1,3.18,3.18,0,0,1-.41,0l-.5-.08-.48-.13A1.42,1.42,0,0,1,91.27,267.78Z"/><path class="cls-6" d="M100.63,268.07H96.91v-7h3.56v.75H97.73v2.33h2.53v.73H97.73v2.45h2.9Z"/><path class="cls-6" d="M109.11,268.07h-.81v-4.7c0-.37,0-.83.06-1.36h0a4.24,4.24,0,0,1-.2.68l-2.4,5.38h-.4L103,262.73a7.14,7.14,0,0,1-.21-.72h0c0,.28,0,.73,0,1.37v4.69H102v-7h1.09l2.15,4.89a6.76,6.76,0,0,1,.32.84h0c.14-.39.25-.67.33-.86l2.2-4.87h1Z"/><path class="cls-6" d="M117.85,270.37h-.8v-3.16h0a1.79,1.79,0,0,1-1.71,1,1.87,1.87,0,0,1-1.51-.67,2.73,2.73,0,0,1-.57-1.83,3,3,0,0,1,.63-2,2.08,2.08,0,0,1,1.68-.74,1.57,1.57,0,0,1,1.48.81h0v-.69h.8Zm-.8-4.55v-.73a1.44,1.44,0,0,0-.4-1,1.46,1.46,0,0,0-2.17.11,2.39,2.39,0,0,0-.42,1.5,2.08,2.08,0,0,0,.41,1.36,1.28,1.28,0,0,0,1,.49,1.4,1.4,0,0,0,1.12-.48A1.78,1.78,0,0,0,117.05,265.82Z"/><path class="cls-6" d="M123.52,268.07h-.8v-.79h0a1.66,1.66,0,0,1-1.55.9c-1.19,0-1.78-.71-1.78-2.12v-3h.79v2.86c0,1.05.4,1.58,1.21,1.58a1.24,1.24,0,0,0,1-.43,1.68,1.68,0,0,0,.38-1.13v-2.88h.8Z"/><path class="cls-6" d="M125.54,261.8a.49.49,0,0,1-.36-.15.51.51,0,0,1,0-.74.49.49,0,0,1,.36-.15.54.54,0,0,1,.38.15.5.5,0,0,1,.15.37.53.53,0,0,1-.15.37A.54.54,0,0,1,125.54,261.8Zm.39,6.27h-.8v-5h.8Z"/><path class="cls-6" d="M132.38,268.18a2.31,2.31,0,0,1-1.77-.7,2.57,2.57,0,0,1-.66-1.85,2.7,2.7,0,0,1,.69-2,2.45,2.45,0,0,1,1.86-.71,2.25,2.25,0,0,1,1.75.69,2.76,2.76,0,0,1,.62,1.91,2.67,2.67,0,0,1-.67,1.91A2.38,2.38,0,0,1,132.38,268.18Zm.06-4.56a1.53,1.53,0,0,0-1.22.53,2.15,2.15,0,0,0-.45,1.45,2,2,0,0,0,.46,1.4,1.53,1.53,0,0,0,1.21.51,1.49,1.49,0,0,0,1.2-.5,2.73,2.73,0,0,0,0-2.88A1.47,1.47,0,0,0,132.44,263.62Z"/><path class="cls-6" d="M140.3,268.07h-.8v-2.85c0-1.07-.39-1.6-1.16-1.6a1.23,1.23,0,0,0-1,.46,1.64,1.64,0,0,0-.4,1.14v2.85h-.8v-5h.8v.83h0a1.82,1.82,0,0,1,1.64-.95,1.55,1.55,0,0,1,1.26.53,2.34,2.34,0,0,1,.43,1.53Z"/><path class="cls-6" d="M144.13,268a1.61,1.61,0,0,1-.75.15c-.87,0-1.31-.48-1.31-1.46v-3h-.86v-.68h.86v-1.22l.8-.26v1.48h1.26v.68h-1.26v2.82a1.23,1.23,0,0,0,.17.72.7.7,0,0,0,.57.21.85.85,0,0,0,.52-.17Z"/><path class="cls-6" d="M148.74,268.07h-.8v-7.41h.8Z"/><path class="cls-6" d="M154.38,265.77h-3.53a1.87,1.87,0,0,0,.45,1.29,1.56,1.56,0,0,0,1.18.45A2.46,2.46,0,0,0,154,267v.76a3,3,0,0,1-1.74.47,2.07,2.07,0,0,1-1.66-.68,3.19,3.19,0,0,1,.05-3.82,2.12,2.12,0,0,1,1.64-.73,1.87,1.87,0,0,1,1.52.63,2.67,2.67,0,0,1,.54,1.77Zm-.82-.68a1.62,1.62,0,0,0-.33-1.08,1.14,1.14,0,0,0-.92-.39,1.28,1.28,0,0,0-1,.41,1.78,1.78,0,0,0-.49,1.06Z"/><path class="cls-6" d="M159.63,268.07h-.8v-.79h0a1.64,1.64,0,0,1-1.54.9c-1.19,0-1.79-.71-1.79-2.12v-3h.8v2.86c0,1.05.4,1.58,1.21,1.58a1.21,1.21,0,0,0,1-.43,1.63,1.63,0,0,0,.38-1.13v-2.88h.8Z"/><path class="cls-6" d="M163.86,263.88a1,1,0,0,0-.61-.16,1,1,0,0,0-.85.48,2.22,2.22,0,0,0-.35,1.32v2.55h-.8v-5h.8v1h0a1.88,1.88,0,0,1,.52-.83,1.24,1.24,0,0,1,.79-.29,1.22,1.22,0,0,1,.48.07Z"/><path class="cls-6" d="M168.29,267.34h0v3h-.8v-7.3h.8V264h0a1.88,1.88,0,0,1,1.73-1,1.81,1.81,0,0,1,1.5.67,2.74,2.74,0,0,1,.55,1.8,3.13,3.13,0,0,1-.61,2,2,2,0,0,1-1.67.75A1.67,1.67,0,0,1,168.29,267.34Zm0-2v.7a1.48,1.48,0,0,0,.4,1.05,1.43,1.43,0,0,0,2.16-.13,2.49,2.49,0,0,0,.42-1.54,2,2,0,0,0-.39-1.31,1.28,1.28,0,0,0-1-.48,1.45,1.45,0,0,0-1.13.49A1.79,1.79,0,0,0,168.27,265.33Z"/><path class="cls-6" d="M176,263.88a1,1,0,0,0-.6-.16,1,1,0,0,0-.86.48,2.23,2.23,0,0,0-.34,1.32v2.55h-.8v-5h.8v1h0a1.72,1.72,0,0,1,.52-.83,1.2,1.2,0,0,1,.78-.29,1.22,1.22,0,0,1,.48.07Z"/><path class="cls-6" d="M178.91,268.18a2.31,2.31,0,0,1-1.77-.7,2.57,2.57,0,0,1-.66-1.85,2.7,2.7,0,0,1,.69-2A2.45,2.45,0,0,1,179,263a2.26,2.26,0,0,1,1.75.69,2.76,2.76,0,0,1,.62,1.91,2.67,2.67,0,0,1-.67,1.91A2.38,2.38,0,0,1,178.91,268.18Zm.06-4.56a1.53,1.53,0,0,0-1.22.53,2.15,2.15,0,0,0-.45,1.45,2,2,0,0,0,.45,1.4,1.56,1.56,0,0,0,1.22.51,1.46,1.46,0,0,0,1.19-.5,2.2,2.2,0,0,0,.42-1.43,2.22,2.22,0,0,0-.42-1.45A1.43,1.43,0,0,0,179,263.62Z"/><path class="cls-6" d="M183.5,267.34h0v3h-.8v-7.3h.8V264h0a1.89,1.89,0,0,1,1.73-1,1.83,1.83,0,0,1,1.51.67,2.8,2.8,0,0,1,.54,1.8,3.07,3.07,0,0,1-.61,2,2,2,0,0,1-1.67.75A1.67,1.67,0,0,1,183.5,267.34Zm0-2v.7a1.53,1.53,0,0,0,.4,1.05,1.34,1.34,0,0,0,1,.43,1.36,1.36,0,0,0,1.14-.56,2.56,2.56,0,0,0,.41-1.54,2,2,0,0,0-.39-1.31,1.25,1.25,0,0,0-1-.48,1.42,1.42,0,0,0-1.12.49A1.75,1.75,0,0,0,183.48,265.33Z"/><path class="cls-6" d="M191.17,263.88a1,1,0,0,0-.61-.16,1,1,0,0,0-.86.48,2.3,2.3,0,0,0-.34,1.32v2.55h-.8v-5h.8v1h0a1.79,1.79,0,0,1,.52-.83,1.24,1.24,0,0,1,.79-.29,1.22,1.22,0,0,1,.48.07Z"/><path class="cls-6" d="M196.06,265.77h-3.53a1.91,1.91,0,0,0,.44,1.29,1.58,1.58,0,0,0,1.19.45,2.46,2.46,0,0,0,1.55-.56v.76a3,3,0,0,1-1.74.47,2.09,2.09,0,0,1-1.67-.68,2.79,2.79,0,0,1-.6-1.91,2.76,2.76,0,0,1,.66-1.91A2.12,2.12,0,0,1,194,263a1.9,1.9,0,0,1,1.52.63,2.67,2.67,0,0,1,.54,1.77Zm-.82-.68a1.68,1.68,0,0,0-.34-1.08,1.12,1.12,0,0,0-.91-.39,1.32,1.32,0,0,0-1,.41,1.91,1.91,0,0,0-.49,1.06Z"/><path class="cls-6" d="M71.6,279.34h0v3h-.8v-7.3h.8V276h0a1.88,1.88,0,0,1,1.73-1,1.81,1.81,0,0,1,1.5.67,2.74,2.74,0,0,1,.55,1.8,3.13,3.13,0,0,1-.61,2,2,2,0,0,1-1.67.75A1.67,1.67,0,0,1,71.6,279.34Zm0-2v.7a1.48,1.48,0,0,0,.4,1.05,1.43,1.43,0,0,0,2.16-.13,2.49,2.49,0,0,0,.42-1.54,2,2,0,0,0-.39-1.31,1.28,1.28,0,0,0-1-.48,1.45,1.45,0,0,0-1.13.49A1.79,1.79,0,0,0,71.58,277.33Z"/><path class="cls-6" d="M79.26,275.88a1,1,0,0,0-.6-.16,1,1,0,0,0-.86.48,2.23,2.23,0,0,0-.34,1.32v2.55h-.8v-5h.8v1h0a1.72,1.72,0,0,1,.52-.83,1.2,1.2,0,0,1,.78-.29,1.22,1.22,0,0,1,.48.07Z"/><path class="cls-6" d="M82.22,280.18a2.31,2.31,0,0,1-1.77-.7,2.57,2.57,0,0,1-.66-1.85,2.7,2.7,0,0,1,.69-2,2.45,2.45,0,0,1,1.86-.71,2.22,2.22,0,0,1,1.74.69,2.72,2.72,0,0,1,.63,1.91,2.67,2.67,0,0,1-.67,1.91A2.38,2.38,0,0,1,82.22,280.18Zm.06-4.56a1.53,1.53,0,0,0-1.22.53,2.15,2.15,0,0,0-.45,1.45,2,2,0,0,0,.45,1.4,1.56,1.56,0,0,0,1.22.51,1.46,1.46,0,0,0,1.19-.5,2.2,2.2,0,0,0,.42-1.43,2.22,2.22,0,0,0-.42-1.45A1.43,1.43,0,0,0,82.28,275.62Z"/><path class="cls-6" d="M90.26,279.67c0,1.83-.88,2.75-2.64,2.75a3.58,3.58,0,0,1-1.62-.35v-.8a3.35,3.35,0,0,0,1.61.47c1.23,0,1.85-.66,1.85-2v-.54h0a2,2,0,0,1-3.22.29,2.67,2.67,0,0,1-.57-1.79,3.11,3.11,0,0,1,.61-2,2.06,2.06,0,0,1,1.68-.75,1.64,1.64,0,0,1,1.5.81h0v-.69h.8Zm-.8-1.86v-.74a1.45,1.45,0,0,0-.4-1,1.36,1.36,0,0,0-1-.43,1.39,1.39,0,0,0-1.16.54,2.42,2.42,0,0,0-.42,1.51,2.06,2.06,0,0,0,.4,1.34,1.32,1.32,0,0,0,1.07.5A1.41,1.41,0,0,0,89,279,1.79,1.79,0,0,0,89.46,277.81Z"/><path class="cls-6" d="M94.49,275.88a1,1,0,0,0-.61-.16,1,1,0,0,0-.85.48,2.22,2.22,0,0,0-.35,1.32v2.55h-.8v-5h.8v1h0a1.79,1.79,0,0,1,.52-.83A1.24,1.24,0,0,1,94,275a1.22,1.22,0,0,1,.48.07Z"/><path class="cls-6" d="M98.94,280.07h-.8v-.78h0a1.7,1.7,0,0,1-1.54.89,1.65,1.65,0,0,1-1.17-.39,1.38,1.38,0,0,1-.42-1.05c0-.94.55-1.48,1.65-1.63l1.5-.21c0-.85-.35-1.28-1-1.28a2.48,2.48,0,0,0-1.63.62v-.82a3.15,3.15,0,0,1,1.7-.47q1.77,0,1.77,1.86Zm-.8-2.53-1.21.16a2.11,2.11,0,0,0-.84.28.79.79,0,0,0-.28.7.76.76,0,0,0,.26.6,1,1,0,0,0,.69.23,1.29,1.29,0,0,0,1-.42,1.48,1.48,0,0,0,.39-1Z"/><path class="cls-6" d="M107.54,280.07h-.8V277.2a2.21,2.21,0,0,0-.25-1.21,1,1,0,0,0-.86-.37,1.08,1.08,0,0,0-.88.47,1.8,1.8,0,0,0-.36,1.13v2.85h-.8v-3c0-1-.38-1.48-1.13-1.48a1,1,0,0,0-.87.45,1.79,1.79,0,0,0-.34,1.15v2.85h-.81v-5h.81v.79h0a1.71,1.71,0,0,1,1.56-.91,1.46,1.46,0,0,1,1.41,1,1.78,1.78,0,0,1,1.66-1q1.65,0,1.65,2Z"/><path class="cls-6" d="M116.16,280.07h-.8V277.2a2.19,2.19,0,0,0-.26-1.21,1,1,0,0,0-.86-.37,1.08,1.08,0,0,0-.87.47,1.8,1.8,0,0,0-.36,1.13v2.85h-.8v-3c0-1-.38-1.48-1.14-1.48a1.05,1.05,0,0,0-.87.45,1.79,1.79,0,0,0-.34,1.15v2.85h-.8v-5h.8v.79h0a1.68,1.68,0,0,1,1.55-.91,1.38,1.38,0,0,1,.89.29,1.46,1.46,0,0,1,.53.74,1.77,1.77,0,0,1,1.66-1q1.65,0,1.65,2Z"/><path class="cls-6" d="M121.69,277.77h-3.53a1.87,1.87,0,0,0,.45,1.29,1.54,1.54,0,0,0,1.18.45,2.46,2.46,0,0,0,1.55-.56v.76a3,3,0,0,1-1.74.47,2.11,2.11,0,0,1-1.67-.68,2.79,2.79,0,0,1-.6-1.91,2.76,2.76,0,0,1,.66-1.91,2.12,2.12,0,0,1,1.64-.73,1.88,1.88,0,0,1,1.52.63,2.67,2.67,0,0,1,.54,1.77Zm-.82-.68a1.57,1.57,0,0,0-.34-1.08,1.11,1.11,0,0,0-.91-.39,1.28,1.28,0,0,0-1,.41,1.78,1.78,0,0,0-.49,1.06Z"/><path class="cls-6" d="M129.91,280.07h-.8v-.85h0a2,2,0,0,1-3.23.29,2.78,2.78,0,0,1-.56-1.83,3,3,0,0,1,.62-2,2.06,2.06,0,0,1,1.67-.75,1.62,1.62,0,0,1,1.5.81h0v-3.1h.8Zm-.8-2.26v-.74a1.48,1.48,0,0,0-.4-1,1.36,1.36,0,0,0-1-.42,1.37,1.37,0,0,0-1.15.54,2.35,2.35,0,0,0-.42,1.48,2.11,2.11,0,0,0,.4,1.37,1.33,1.33,0,0,0,1.08.5,1.38,1.38,0,0,0,1.09-.48A1.81,1.81,0,0,0,129.11,277.81Z"/><path class="cls-6" d="M135.55,277.77H132a1.87,1.87,0,0,0,.45,1.29,1.54,1.54,0,0,0,1.18.45,2.46,2.46,0,0,0,1.55-.56v.76a3,3,0,0,1-1.74.47,2.11,2.11,0,0,1-1.67-.68,2.79,2.79,0,0,1-.6-1.91,2.76,2.76,0,0,1,.66-1.91,2.12,2.12,0,0,1,1.64-.73,1.88,1.88,0,0,1,1.52.63,2.67,2.67,0,0,1,.54,1.77Zm-.82-.68a1.68,1.68,0,0,0-.34-1.08,1.12,1.12,0,0,0-.91-.39,1.32,1.32,0,0,0-1,.41,1.83,1.83,0,0,0-.48,1.06Z"/><path class="cls-6" d="M146.6,280.07h-.8V277.2a2.19,2.19,0,0,0-.26-1.21,1,1,0,0,0-.86-.37,1.08,1.08,0,0,0-.87.47,1.8,1.8,0,0,0-.36,1.13v2.85h-.8v-3c0-1-.38-1.48-1.14-1.48a1.05,1.05,0,0,0-.87.45,1.79,1.79,0,0,0-.34,1.15v2.85h-.8v-5h.8v.79h0a1.68,1.68,0,0,1,1.55-.91,1.38,1.38,0,0,1,.89.29,1.46,1.46,0,0,1,.53.74,1.77,1.77,0,0,1,1.66-1q1.65,0,1.65,2Z"/><path class="cls-6" d="M152.13,277.77H148.6a1.87,1.87,0,0,0,.45,1.29,1.54,1.54,0,0,0,1.18.45,2.46,2.46,0,0,0,1.55-.56v.76a3,3,0,0,1-1.74.47,2.11,2.11,0,0,1-1.67-.68,2.79,2.79,0,0,1-.6-1.91,2.76,2.76,0,0,1,.66-1.91,2.12,2.12,0,0,1,1.64-.73,1.88,1.88,0,0,1,1.52.63,2.67,2.67,0,0,1,.54,1.77Zm-.82-.68A1.57,1.57,0,0,0,151,276a1.11,1.11,0,0,0-.91-.39,1.28,1.28,0,0,0-1,.41,1.78,1.78,0,0,0-.49,1.06Z"/><path class="cls-6" d="M153,279.89V279a2.35,2.35,0,0,0,1.44.48c.7,0,1.05-.23,1.05-.7a.59.59,0,0,0-.09-.34.82.82,0,0,0-.24-.25,2,2,0,0,0-.36-.19l-.45-.18a5.37,5.37,0,0,1-.58-.27,1.74,1.74,0,0,1-.42-.3,1.08,1.08,0,0,1-.26-.38,1.52,1.52,0,0,1-.08-.51,1.17,1.17,0,0,1,.16-.62,1.42,1.42,0,0,1,.43-.45,2,2,0,0,1,.61-.28A2.82,2.82,0,0,1,155,275a2.86,2.86,0,0,1,1.16.22V276a2.25,2.25,0,0,0-1.27-.36,1.25,1.25,0,0,0-.4.06,1,1,0,0,0-.31.14.6.6,0,0,0-.2.22.57.57,0,0,0-.07.29.61.61,0,0,0,.07.32.79.79,0,0,0,.21.24,1.29,1.29,0,0,0,.33.18l.44.18.6.27a2.08,2.08,0,0,1,.45.3,1.08,1.08,0,0,1,.28.39,1.18,1.18,0,0,1,.1.52,1.19,1.19,0,0,1-.16.64,1.29,1.29,0,0,1-.44.46,2,2,0,0,1-.63.27,3.5,3.5,0,0,1-.74.08A2.82,2.82,0,0,1,153,279.89Z"/><path class="cls-6" d="M161.63,280.07h-.8v-.79h0a1.66,1.66,0,0,1-1.55.9c-1.19,0-1.78-.71-1.78-2.12v-3h.79v2.86c0,1.05.41,1.58,1.21,1.58a1.23,1.23,0,0,0,1-.43,1.68,1.68,0,0,0,.38-1.13v-2.88h.8Z"/><path class="cls-6" d="M165.85,275.88a1,1,0,0,0-.61-.16,1,1,0,0,0-.85.48,2.22,2.22,0,0,0-.35,1.32v2.55h-.8v-5h.8v1h0a1.81,1.81,0,0,1,.53-.83,1.2,1.2,0,0,1,.78-.29,1.22,1.22,0,0,1,.48.07Z"/><path class="cls-6" d="M170.74,277.77h-3.53a1.87,1.87,0,0,0,.45,1.29,1.54,1.54,0,0,0,1.18.45,2.46,2.46,0,0,0,1.55-.56v.76a3,3,0,0,1-1.74.47,2.11,2.11,0,0,1-1.67-.68,2.79,2.79,0,0,1-.6-1.91,2.76,2.76,0,0,1,.66-1.91,2.12,2.12,0,0,1,1.64-.73,1.88,1.88,0,0,1,1.52.63,2.67,2.67,0,0,1,.54,1.77Zm-.82-.68a1.68,1.68,0,0,0-.34-1.08,1.12,1.12,0,0,0-.91-.39,1.28,1.28,0,0,0-1,.41,1.78,1.78,0,0,0-.49,1.06Z"/><path class="cls-6" d="M172.23,280.17a.53.53,0,0,1-.39-.16.52.52,0,0,1-.15-.38.56.56,0,0,1,.15-.39.55.55,0,0,1,.94.39.49.49,0,0,1-.16.38A.53.53,0,0,1,172.23,280.17Z"/><text class="cls-7" transform="translate(116.44 116.29)"><tspan class="cls-8">V</tspan><tspan x="7.58" y="0">rai/</tspan><tspan class="cls-9" x="27.54" y="0">F</tspan><tspan x="33.43" y="0">aux</tspan></text><line class="cls-10" x1="54" x2="54" y2="36"/><line class="cls-10" y1="54" x2="36" y2="54"/><line class="cls-10" y1="307.96" x2="36" y2="307.96"/><line class="cls-10" x1="54" y1="361.96" x2="54" y2="325.96"/><line class="cls-10" x1="236.83" x2="236.83" y2="36"/><line class="cls-10" x1="290.83" y1="54" x2="254.83" y2="54"/><line class="cls-10" x1="290.83" y1="307.96" x2="254.83" y2="307.96"/><line class="cls-10" x1="236.83" y1="361.96" x2="236.83" y2="325.96"/></svg>