<svg id="Calque_1" data-name="Calque 1" xmlns="http://www.w3.org/2000/svg" viewBox="0 0 290.83 361.96"><defs><style>.cls-1,.cls-7{fill:#009741;}.cls-2,.cls-3,.cls-4{fill:#fff;}.cls-3{font-size:19.62px;font-family:TwCenMT-CondensedExtraBold, Tw Cen MT Condensed Extra Bold;font-weight:800;}.cls-4{stroke:#fff;stroke-miterlimit:10;stroke-width:0.25px;}.cls-5{opacity:0.2;}.cls-6{fill:#000100;}.cls-7{font-size:12px;font-family:SegoeUI-Bold, Segoe UI;font-weight:700;}.cls-8{fill:none;stroke:#000;stroke-width:0.3px;}</style></defs><title>Carte_verte_21</title><rect class="cls-1" x="43.38" y="39.25" width="204.07" height="283.46" rx="22.14"/><path class="cls-2" d="M77.4,95.72h136a17,17,0,0,1,17,17V279.93a17,17,0,0,1-17,17.05H77.4a17,17,0,0,1-17-17.05V112.77A17,17,0,0,1,77.4,95.72Z"/><text class="cls-3" transform="translate(88.84 81.21)"><tspan xml:space="preserve">Escape the   ab</tspan></text><path class="cls-4" d="M179.11,63.59l-6.41,0a.81.81,0,0,0-.55.23.82.82,0,0,0-.22.56.78.78,0,0,0,.23.55.82.82,0,0,0,.47.22l.1,13.28A3.28,3.28,0,0,0,176,81.74a3.23,3.23,0,0,0,2.32-1,3.27,3.27,0,0,0,.95-2.33l-.1-13.28a.84.84,0,0,0,.46-.23.82.82,0,0,0,.22-.55.78.78,0,0,0-.78-.78Zm.26.78a.24.24,0,0,1-.07.18.27.27,0,0,1-.18.08h-.24l-3.92,0a.27.27,0,0,0-.26.27.26.26,0,0,0,.26.25l3.73,0,.1,13.28a2.79,2.79,0,0,1-.8,2,2.77,2.77,0,0,1-4.74-1.92l-.1-13.29h.78a.25.25,0,0,0,.25-.26.26.26,0,0,0-.26-.26l-1,0h-.23a.29.29,0,0,1-.18-.07.27.27,0,0,1-.08-.19.24.24,0,0,1,.07-.18.27.27,0,0,1,.19-.08l6.4,0a.26.26,0,0,1,.26.26Z"/><path class="cls-4" d="M178,71.48a1,1,0,0,0-.65.22.5.5,0,0,1-.35.13.59.59,0,0,1-.35-.12,1,1,0,0,0-.65-.22,1,1,0,0,0-.64.23.5.5,0,0,1-.35.12.47.47,0,0,1-.35-.12,1,1,0,0,0-.65-.21.24.24,0,0,0-.18.07.26.26,0,0,0-.07.19l0,2.83a.26.26,0,1,0,.52,0l0-2.51.09.06a1,1,0,0,0,.65.21,1,1,0,0,0,.64-.22A.5.5,0,0,1,176,72a.57.57,0,0,1,.35.12,1,1,0,0,0,.65.22,1,1,0,0,0,.64-.23l.09-.06.05,6.38a1.72,1.72,0,0,1-.5,1.23,1.73,1.73,0,0,1-3-1.2l0-2.84a.26.26,0,1,0-.51,0l0,2.83A2.24,2.24,0,0,0,176,80.7a2.22,2.22,0,0,0,1.59-.67,2.26,2.26,0,0,0,.65-1.59l-.05-6.69a.26.26,0,0,0-.25-.27Z"/><path class="cls-4" d="M176.67,67.24a.26.26,0,0,0,.26.26.26.26,0,0,1,.26.26.24.24,0,0,1-.07.18.27.27,0,0,1-.19.08.26.26,0,0,1-.26-.26.26.26,0,0,0-.52,0,.79.79,0,0,0,.79.77.76.76,0,0,0,.55-.23.82.82,0,0,0,.22-.55.78.78,0,0,0-.78-.78.26.26,0,0,0-.26.26Z"/><path class="cls-4" d="M175.51,70.4a.76.76,0,0,0,.23-.55.82.82,0,0,0-.24-.55.7.7,0,0,0-.55-.22.26.26,0,0,0-.26.26.25.25,0,0,0,.26.25.27.27,0,0,1,.19.08.25.25,0,0,1,.08.18.27.27,0,0,1-.08.19.24.24,0,0,1-.18.07.26.26,0,0,1-.19-.07.29.29,0,0,1-.07-.18.26.26,0,1,0-.52,0,.77.77,0,0,0,.78.77.75.75,0,0,0,.55-.23Z"/><g class="cls-5"><path class="cls-1" d="M120.68,165.65a22.72,22.72,0,0,1,45.43,0v37.44h15.18V165.65a37.9,37.9,0,0,0-75.79,0"/><path class="cls-1" d="M105.5,165.65"/><path class="cls-1" d="M156,224.94a12.52,12.52,0,1,1-12.52-12.52A12.51,12.51,0,0,1,156,224.94"/><path class="cls-1" d="M113.8,224.81a29.51,29.51,0,1,1,29.51,29.51,29.55,29.55,0,0,1-29.51-29.51m-15.18,0a44.69,44.69,0,1,0,44.69-44.69,44.74,44.74,0,0,0-44.69,44.69"/><line class="cls-1" x1="105.5" y1="165.65" x2="120.68" y2="165.65"/></g><path class="cls-6" d="M73,137.29a3.12,3.12,0,0,1-2.39-1,3.69,3.69,0,0,1-.89-2.56,3.89,3.89,0,0,1,.91-2.69,3.22,3.22,0,0,1,2.49-1,3,3,0,0,1,2.33,1,3.6,3.6,0,0,1,.89,2.55,3.83,3.83,0,0,1-.91,2.71,2.22,2.22,0,0,1-.46.41l2,1.42H75.41l-1.32-1A3.67,3.67,0,0,1,73,137.29ZM73,130.8a2.25,2.25,0,0,0-1.79.79,3.08,3.08,0,0,0-.69,2.09,3.12,3.12,0,0,0,.67,2.09,2.2,2.2,0,0,0,1.75.78,2.3,2.3,0,0,0,1.82-.75,3.07,3.07,0,0,0,.66-2.1,3.21,3.21,0,0,0-.64-2.15A2.22,2.22,0,0,0,73,130.8Z"/><path class="cls-6" d="M81.61,137.17h-.8v-.79h0a1.63,1.63,0,0,1-1.54.91c-1.19,0-1.79-.71-1.79-2.13v-3h.8V135c0,1.06.4,1.59,1.21,1.59a1.25,1.25,0,0,0,1-.44,1.64,1.64,0,0,0,.37-1.13v-2.88h.8Z"/><path class="cls-6" d="M87.25,134.87H83.72a1.83,1.83,0,0,0,.45,1.29,1.55,1.55,0,0,0,1.18.46,2.46,2.46,0,0,0,1.55-.56v.75a2.89,2.89,0,0,1-1.74.48,2.14,2.14,0,0,1-1.67-.68,2.81,2.81,0,0,1-.6-1.92,2.73,2.73,0,0,1,.66-1.9,2.12,2.12,0,0,1,1.64-.73,1.88,1.88,0,0,1,1.52.63,2.63,2.63,0,0,1,.54,1.76Zm-.82-.68a1.58,1.58,0,0,0-.34-1.07,1.12,1.12,0,0,0-.91-.39,1.28,1.28,0,0,0-1,.4,1.81,1.81,0,0,0-.49,1.06Z"/><path class="cls-6" d="M89.26,137.17h-.8v-7.4h.8Z"/><path class="cls-6" d="M91.68,137.17h-.8v-7.4h.8Z"/><path class="cls-6" d="M97.32,134.87H93.79a1.88,1.88,0,0,0,.45,1.29,1.57,1.57,0,0,0,1.18.46,2.49,2.49,0,0,0,1.56-.56v.75a2.9,2.9,0,0,1-1.75.48,2.12,2.12,0,0,1-1.66-.68,2.77,2.77,0,0,1-.61-1.92,2.73,2.73,0,0,1,.66-1.9,2.12,2.12,0,0,1,1.65-.73,1.9,1.9,0,0,1,1.52.63,2.68,2.68,0,0,1,.53,1.76Zm-.82-.68a1.57,1.57,0,0,0-.33-1.07,1.14,1.14,0,0,0-.92-.39,1.28,1.28,0,0,0-1,.4,1.87,1.87,0,0,0-.49,1.06Z"/><path class="cls-6" d="M105.29,134.87h-3.53a1.83,1.83,0,0,0,.45,1.29,1.57,1.57,0,0,0,1.18.46,2.46,2.46,0,0,0,1.55-.56v.75a2.87,2.87,0,0,1-1.74.48,2.1,2.1,0,0,1-1.66-.68,2.77,2.77,0,0,1-.61-1.92,2.73,2.73,0,0,1,.66-1.9,2.12,2.12,0,0,1,1.65-.73,1.86,1.86,0,0,1,1.51.63,2.63,2.63,0,0,1,.54,1.76Zm-.82-.68a1.57,1.57,0,0,0-.33-1.07,1.14,1.14,0,0,0-.92-.39,1.28,1.28,0,0,0-1,.4,1.87,1.87,0,0,0-.49,1.06Z"/><path class="cls-6" d="M106.2,137v-.86a2.41,2.41,0,0,0,1.44.49c.7,0,1-.24,1-.71a.64.64,0,0,0-.09-.34.91.91,0,0,0-.24-.24,2,2,0,0,0-.36-.2l-.45-.17c-.22-.09-.41-.18-.58-.27a1.74,1.74,0,0,1-.42-.3,1.27,1.27,0,0,1-.26-.39,1.5,1.5,0,0,1-.08-.5,1.17,1.17,0,0,1,.16-.62,1.57,1.57,0,0,1,.43-.46,2,2,0,0,1,.61-.27,2.82,2.82,0,0,1,.71-.09,2.91,2.91,0,0,1,1.17.22v.81a2.3,2.3,0,0,0-1.27-.36,1.7,1.7,0,0,0-.41.05,1,1,0,0,0-.31.14.72.72,0,0,0-.2.23.53.53,0,0,0-.07.28.67.67,0,0,0,.07.33.66.66,0,0,0,.21.23,1.69,1.69,0,0,0,.33.19l.44.18a4.9,4.9,0,0,1,.6.26,2,2,0,0,1,.45.3,1.28,1.28,0,0,1,.28.39,1.21,1.21,0,0,1,.1.52,1.23,1.23,0,0,1-.16.65,1.35,1.35,0,0,1-.44.45,2,2,0,0,1-.63.27,2.94,2.94,0,0,1-.74.09A2.82,2.82,0,0,1,106.2,137Z"/><path class="cls-6" d="M113.06,137.12a1.43,1.43,0,0,1-.74.16c-.88,0-1.32-.49-1.32-1.46v-3h-.86v-.69H111V131l.8-.26v1.48h1.26v.69H111.8v2.81a1.11,1.11,0,0,0,.18.72.68.68,0,0,0,.56.22.83.83,0,0,0,.52-.17Z"/><path class="cls-6" d="M117.67,137.17h-.8v-7.4h.8Z"/><path class="cls-6" d="M122.87,137.17h-.8v-.78h0a1.66,1.66,0,0,1-1.53.9,1.61,1.61,0,0,1-1.17-.4,1.34,1.34,0,0,1-.43-1c0-.93.55-1.47,1.65-1.63l1.5-.21c0-.85-.34-1.27-1-1.27a2.47,2.47,0,0,0-1.63.61v-.82a3.12,3.12,0,0,1,1.7-.46c1.18,0,1.76.62,1.76,1.86Zm-.8-2.53-1.2.17a1.84,1.84,0,0,0-.84.28.79.79,0,0,0-.29.7.74.74,0,0,0,.27.59,1,1,0,0,0,.69.24,1.29,1.29,0,0,0,1-.42,1.53,1.53,0,0,0,.38-1.06Z"/><path class="cls-6" d="M131.39,137.17h-.8v-.85h0a1.84,1.84,0,0,1-1.72,1,1.87,1.87,0,0,1-1.51-.67,2.8,2.8,0,0,1-.56-1.83,3,3,0,0,1,.63-2,2,2,0,0,1,1.66-.74,1.6,1.6,0,0,1,1.5.81h0v-3.1h.8Zm-.8-2.26v-.74a1.41,1.41,0,0,0-.4-1,1.36,1.36,0,0,0-1-.42,1.37,1.37,0,0,0-1.15.54,2.33,2.33,0,0,0-.42,1.48,2.19,2.19,0,0,0,.4,1.37,1.33,1.33,0,0,0,1.09.5,1.38,1.38,0,0,0,1.08-.49A1.79,1.79,0,0,0,130.59,134.91Z"/><path class="cls-6" d="M133.42,130.9a.57.57,0,0,1-.37-.14.5.5,0,0,1-.15-.37.52.52,0,0,1,.15-.38.53.53,0,0,1,.37-.15.5.5,0,0,1,.37.15.49.49,0,0,1,.16.38.46.46,0,0,1-.16.36A.5.5,0,0,1,133.42,130.9Zm.39,6.27H133v-5h.8Z"/><path class="cls-6" d="M137.9,130.47a1.12,1.12,0,0,0-.53-.13c-.56,0-.84.35-.84,1.06v.77h1.17v.69h-1.17v4.31h-.79v-4.31h-.86v-.69h.86v-.81a1.69,1.69,0,0,1,.45-1.24,1.55,1.55,0,0,1,1.13-.46,1.5,1.5,0,0,1,.58.09Z"/><path class="cls-6" d="M141,130.47a1.12,1.12,0,0,0-.53-.13c-.56,0-.84.35-.84,1.06v.77h1.17v.69h-1.17v4.31h-.79v-4.31H138v-.69h.86v-.81a1.69,1.69,0,0,1,.45-1.24,1.55,1.55,0,0,1,1.13-.46,1.5,1.5,0,0,1,.58.09Z"/><path class="cls-6" d="M145.71,134.87h-3.53a1.83,1.83,0,0,0,.45,1.29,1.57,1.57,0,0,0,1.18.46,2.44,2.44,0,0,0,1.55-.56v.75a2.89,2.89,0,0,1-1.74.48,2.12,2.12,0,0,1-1.66-.68,2.77,2.77,0,0,1-.61-1.92,2.73,2.73,0,0,1,.66-1.9,2.12,2.12,0,0,1,1.65-.73,1.86,1.86,0,0,1,1.51.63,2.63,2.63,0,0,1,.54,1.76Zm-.82-.68a1.57,1.57,0,0,0-.33-1.07,1.14,1.14,0,0,0-.92-.39,1.28,1.28,0,0,0-1,.4,1.87,1.87,0,0,0-.49,1.06Zm-.13-4.57-1.28,1.61h-.62l1.09-1.61Z"/><path class="cls-6" d="M149.53,133a1,1,0,0,0-.61-.16,1,1,0,0,0-.85.49,2.21,2.21,0,0,0-.35,1.31v2.55h-.8v-5h.8v1h0a1.84,1.84,0,0,1,.52-.82,1.2,1.2,0,0,1,.79-.3,1.43,1.43,0,0,1,.48.07Z"/><path class="cls-6" d="M154.42,134.87h-3.53a1.83,1.83,0,0,0,.45,1.29,1.55,1.55,0,0,0,1.18.46,2.46,2.46,0,0,0,1.55-.56v.75a2.89,2.89,0,0,1-1.74.48,2.14,2.14,0,0,1-1.67-.68,2.81,2.81,0,0,1-.6-1.92,2.73,2.73,0,0,1,.66-1.9,2.12,2.12,0,0,1,1.64-.73,1.88,1.88,0,0,1,1.52.63,2.63,2.63,0,0,1,.54,1.76Zm-.82-.68a1.63,1.63,0,0,0-.34-1.07,1.12,1.12,0,0,0-.91-.39,1.31,1.31,0,0,0-1,.4,1.86,1.86,0,0,0-.48,1.06Z"/><path class="cls-6" d="M159.78,137.17H159v-2.85c0-1.06-.39-1.59-1.16-1.59a1.27,1.27,0,0,0-1,.45,1.68,1.68,0,0,0-.39,1.14v2.85h-.8v-5h.8V133h0a1.8,1.8,0,0,1,1.64-.94,1.5,1.5,0,0,1,1.25.53,2.35,2.35,0,0,1,.44,1.53Z"/><path class="cls-6" d="M164.7,136.94a2.63,2.63,0,0,1-1.37.35,2.26,2.26,0,0,1-1.73-.7,2.49,2.49,0,0,1-.65-1.8,2.75,2.75,0,0,1,.7-2,2.5,2.5,0,0,1,1.89-.75,2.72,2.72,0,0,1,1.17.24v.82a2.07,2.07,0,0,0-1.2-.39,1.57,1.57,0,0,0-1.25.55,2.06,2.06,0,0,0-.49,1.44,2,2,0,0,0,.46,1.39,1.59,1.59,0,0,0,1.24.51,2,2,0,0,0,1.23-.44Z"/><path class="cls-6" d="M169.92,134.87h-3.53a1.93,1.93,0,0,0,.45,1.29,1.57,1.57,0,0,0,1.19.46,2.46,2.46,0,0,0,1.55-.56v.75a2.89,2.89,0,0,1-1.74.48,2.13,2.13,0,0,1-1.67-.68,2.82,2.82,0,0,1-.61-1.92,2.74,2.74,0,0,1,.67-1.9,2.12,2.12,0,0,1,1.64-.73,1.9,1.9,0,0,1,1.52.63,2.62,2.62,0,0,1,.53,1.76Zm-.82-.68a1.57,1.57,0,0,0-.33-1.07,1.13,1.13,0,0,0-.92-.39,1.31,1.31,0,0,0-1,.4,1.94,1.94,0,0,0-.49,1.06Z"/><path class="cls-6" d="M177.89,134.87h-3.53a1.93,1.93,0,0,0,.45,1.29,1.57,1.57,0,0,0,1.18.46,2.47,2.47,0,0,0,1.56-.56v.75a2.9,2.9,0,0,1-1.75.48,2.12,2.12,0,0,1-1.66-.68,2.82,2.82,0,0,1-.61-1.92,2.69,2.69,0,0,1,.67-1.9,2.1,2.1,0,0,1,1.64-.73,1.9,1.9,0,0,1,1.52.63,2.62,2.62,0,0,1,.53,1.76Zm-.82-.68a1.57,1.57,0,0,0-.33-1.07,1.14,1.14,0,0,0-.92-.39,1.31,1.31,0,0,0-1,.4,1.87,1.87,0,0,0-.49,1.06Z"/><path class="cls-6" d="M183.26,137.17h-.81v-2.85c0-1.06-.38-1.59-1.16-1.59a1.25,1.25,0,0,0-1,.45,1.68,1.68,0,0,0-.39,1.14v2.85h-.81v-5h.81V133h0a1.81,1.81,0,0,1,1.65-.94,1.51,1.51,0,0,1,1.25.53,2.35,2.35,0,0,1,.44,1.53Z"/><path class="cls-6" d="M187.08,137.12a1.45,1.45,0,0,1-.74.16c-.88,0-1.32-.49-1.32-1.46v-3h-.86v-.69H185V131l.8-.26v1.48h1.26v.69h-1.26v2.81a1.19,1.19,0,0,0,.17.72.72.72,0,0,0,.57.22.83.83,0,0,0,.52-.17Z"/><path class="cls-6" d="M190.76,133a1,1,0,0,0-.61-.16,1,1,0,0,0-.85.49,2.21,2.21,0,0,0-.35,1.31v2.55h-.8v-5h.8v1h0a1.77,1.77,0,0,1,.53-.82,1.16,1.16,0,0,1,.78-.3,1.43,1.43,0,0,1,.48.07Z"/><path class="cls-6" d="M195.65,134.87h-3.53a1.83,1.83,0,0,0,.45,1.29,1.55,1.55,0,0,0,1.18.46,2.46,2.46,0,0,0,1.55-.56v.75a2.89,2.89,0,0,1-1.74.48,2.14,2.14,0,0,1-1.67-.68,2.81,2.81,0,0,1-.6-1.92,2.73,2.73,0,0,1,.66-1.9,2.12,2.12,0,0,1,1.64-.73,1.88,1.88,0,0,1,1.52.63,2.63,2.63,0,0,1,.54,1.76Zm-.82-.68a1.63,1.63,0,0,0-.34-1.07,1.12,1.12,0,0,0-.91-.39,1.28,1.28,0,0,0-1,.4,1.81,1.81,0,0,0-.49,1.06Z"/><path class="cls-6" d="M200.4,137.17h-.8v-7.4h.8Z"/><path class="cls-6" d="M205.6,137.17h-.8v-.78h0a1.68,1.68,0,0,1-1.54.9,1.61,1.61,0,0,1-1.17-.4,1.36,1.36,0,0,1-.42-1c0-.93.55-1.47,1.65-1.63l1.5-.21c0-.85-.35-1.27-1-1.27a2.45,2.45,0,0,0-1.63.61v-.82a3.09,3.09,0,0,1,1.7-.46c1.17,0,1.76.62,1.76,1.86Zm-.8-2.53-1.21.17a1.84,1.84,0,0,0-.84.28.78.78,0,0,0-.28.7.76.76,0,0,0,.26.59,1,1,0,0,0,.7.24,1.29,1.29,0,0,0,1-.42,1.49,1.49,0,0,0,.39-1.06Z"/><path class="cls-6" d="M74,144.17l-2,5h-.79l-1.89-5h.88l1.27,3.64a3.27,3.27,0,0,1,.17.69h0a3.88,3.88,0,0,1,.16-.67l1.33-3.66Z"/><path class="cls-6" d="M78.84,146.87H75.31a1.83,1.83,0,0,0,.45,1.29,1.57,1.57,0,0,0,1.18.46,2.46,2.46,0,0,0,1.55-.56v.75a2.89,2.89,0,0,1-1.74.48,2.1,2.1,0,0,1-1.66-.68,2.77,2.77,0,0,1-.61-1.92,2.73,2.73,0,0,1,.66-1.9,2.12,2.12,0,0,1,1.65-.73,1.86,1.86,0,0,1,1.51.63,2.63,2.63,0,0,1,.54,1.76Zm-.82-.68a1.57,1.57,0,0,0-.33-1.07,1.14,1.14,0,0,0-.92-.39,1.28,1.28,0,0,0-1,.4,1.87,1.87,0,0,0-.49,1.06Z"/><path class="cls-6" d="M82.66,145a1,1,0,0,0-.61-.16,1,1,0,0,0-.85.49,2.21,2.21,0,0,0-.35,1.31v2.55h-.8v-5h.8v1h0a1.84,1.84,0,0,1,.52-.82,1.2,1.2,0,0,1,.79-.3,1.43,1.43,0,0,1,.48.07Z"/><path class="cls-6" d="M83.23,149v-.86a2.36,2.36,0,0,0,1.44.49c.7,0,1-.24,1-.71a.64.64,0,0,0-.09-.34.91.91,0,0,0-.24-.24,3.07,3.07,0,0,0-.36-.2l-.45-.17c-.22-.09-.42-.18-.59-.27a2.25,2.25,0,0,1-.42-.3,1.24,1.24,0,0,1-.25-.39,1.28,1.28,0,0,1-.08-.5,1.17,1.17,0,0,1,.16-.62,1.44,1.44,0,0,1,.43-.46,2,2,0,0,1,.61-.27,2.82,2.82,0,0,1,.71-.09,2.86,2.86,0,0,1,1.16.22v.81a2.27,2.27,0,0,0-1.27-.36,1.62,1.62,0,0,0-.4.05.89.89,0,0,0-.31.14.62.62,0,0,0-.2.23.53.53,0,0,0-.07.28.67.67,0,0,0,.07.33.55.55,0,0,0,.2.23,2.17,2.17,0,0,0,.34.19l.44.18a5.68,5.68,0,0,1,.6.26,2.52,2.52,0,0,1,.45.3,1.48,1.48,0,0,1,.28.39,1.21,1.21,0,0,1,.1.52,1.23,1.23,0,0,1-.16.65,1.45,1.45,0,0,1-.44.45,2,2,0,0,1-.63.27,3.08,3.08,0,0,1-.75.09A2.78,2.78,0,0,1,83.23,149Z"/><path class="cls-6" d="M88.18,142.9a.52.52,0,0,1-.36-.14.47.47,0,0,1-.16-.37.53.53,0,0,1,.52-.53.54.54,0,0,1,.38.15.52.52,0,0,1,.15.38.49.49,0,0,1-.15.36A.54.54,0,0,1,88.18,142.9Zm.39,6.27h-.8v-5h.8Z"/><path class="cls-6" d="M92.28,149.29a2.31,2.31,0,0,1-1.77-.7,2.61,2.61,0,0,1-.66-1.86,2.72,2.72,0,0,1,.69-2,2.48,2.48,0,0,1,1.86-.7,2.27,2.27,0,0,1,1.75.68,2.78,2.78,0,0,1,.62,1.91,2.69,2.69,0,0,1-.67,1.92A2.38,2.38,0,0,1,92.28,149.29Zm.06-4.56a1.52,1.52,0,0,0-1.22.52,2.17,2.17,0,0,0-.45,1.45,2,2,0,0,0,.46,1.4,1.5,1.5,0,0,0,1.21.52,1.47,1.47,0,0,0,1.2-.51,2.21,2.21,0,0,0,.41-1.43,2.26,2.26,0,0,0-.41-1.44A1.47,1.47,0,0,0,92.34,144.73Z"/><path class="cls-6" d="M100.2,149.17h-.8v-2.85c0-1.06-.38-1.59-1.16-1.59a1.25,1.25,0,0,0-1,.45,1.64,1.64,0,0,0-.4,1.14v2.85h-.8v-5h.8V145h0a1.81,1.81,0,0,1,1.64-.94,1.52,1.52,0,0,1,1.26.53,2.34,2.34,0,0,1,.43,1.53Z"/><path class="cls-6" d="M105.14,142.17v2.18h-.7v-2.18Zm1.63,0v2.18h-.71v-2.18Z"/><path class="cls-6" d="M112,149.17h-.8v-.78h0a1.68,1.68,0,0,1-1.54.9,1.63,1.63,0,0,1-1.17-.4,1.36,1.36,0,0,1-.42-1c0-.93.55-1.47,1.65-1.63l1.5-.21c0-.85-.34-1.27-1-1.27a2.45,2.45,0,0,0-1.63.61v-.82a3.12,3.12,0,0,1,1.7-.46c1.17,0,1.76.62,1.76,1.86Zm-.8-2.53-1.21.17a1.84,1.84,0,0,0-.84.28.81.81,0,0,0-.28.7.76.76,0,0,0,.26.59,1,1,0,0,0,.7.24,1.27,1.27,0,0,0,1-.42,1.49,1.49,0,0,0,.39-1.06Z"/><path class="cls-6" d="M117.5,149.17h-.8v-.79h0a1.63,1.63,0,0,1-1.54.91c-1.19,0-1.79-.71-1.79-2.13v-3h.8V147c0,1.06.4,1.59,1.21,1.59a1.21,1.21,0,0,0,1-.44,1.6,1.6,0,0,0,.38-1.13v-2.88h.8Z"/><path class="cls-6" d="M121.44,149.12a1.49,1.49,0,0,1-.75.16c-.87,0-1.31-.49-1.31-1.46v-3h-.86v-.69h.86V143l.8-.26v1.48h1.26v.69h-1.26v2.81a1.19,1.19,0,0,0,.17.72.69.69,0,0,0,.57.22.85.85,0,0,0,.52-.17Z"/><path class="cls-6" d="M126.66,149.17h-.8v-2.88c0-1-.39-1.56-1.16-1.56a1.27,1.27,0,0,0-1,.45,1.67,1.67,0,0,0-.4,1.16v2.83h-.8v-7.4h.8V145h0a1.81,1.81,0,0,1,1.64-.94c1.12,0,1.69.67,1.69,2Z"/><path class="cls-6" d="M130.26,149.29a2.31,2.31,0,0,1-1.77-.7,2.61,2.61,0,0,1-.66-1.86,2.71,2.71,0,0,1,.68-2,2.48,2.48,0,0,1,1.86-.7,2.27,2.27,0,0,1,1.75.68,2.73,2.73,0,0,1,.63,1.91,2.7,2.7,0,0,1-.68,1.92A2.36,2.36,0,0,1,130.26,149.29Zm.06-4.56a1.53,1.53,0,0,0-1.23.52,2.22,2.22,0,0,0-.44,1.45,2,2,0,0,0,.45,1.4,1.52,1.52,0,0,0,1.22.52,1.46,1.46,0,0,0,1.19-.51,2.16,2.16,0,0,0,.42-1.43,2.21,2.21,0,0,0-.42-1.44A1.46,1.46,0,0,0,130.32,144.73Z"/><path class="cls-6" d="M136.63,145a1.07,1.07,0,0,0-1.46.33,2.21,2.21,0,0,0-.34,1.31v2.55H134v-5h.8v1h0a1.69,1.69,0,0,1,.52-.82,1.18,1.18,0,0,1,.79-.3,1.41,1.41,0,0,1,.47.07Z"/><path class="cls-6" d="M141.06,148.45h0v3h-.8v-7.3h.8v.88h0a1.9,1.9,0,0,1,1.73-1,1.82,1.82,0,0,1,1.51.67,2.76,2.76,0,0,1,.54,1.8,3.11,3.11,0,0,1-.61,2,2,2,0,0,1-1.67.75A1.67,1.67,0,0,1,141.06,148.45Zm0-2v.7a1.46,1.46,0,0,0,.41,1.05,1.34,1.34,0,0,0,1,.44,1.36,1.36,0,0,0,1.14-.56,2.6,2.6,0,0,0,.41-1.55,2.06,2.06,0,0,0-.38-1.31,1.3,1.3,0,0,0-1-.47,1.4,1.4,0,0,0-1.12.49A1.74,1.74,0,0,0,141,146.43Z"/><path class="cls-6" d="M148.21,149.29a2.31,2.31,0,0,1-1.77-.7,2.61,2.61,0,0,1-.66-1.86,2.72,2.72,0,0,1,.69-2,2.48,2.48,0,0,1,1.86-.7,2.25,2.25,0,0,1,1.74.68,2.73,2.73,0,0,1,.63,1.91,2.69,2.69,0,0,1-.67,1.92A2.39,2.39,0,0,1,148.21,149.29Zm.06-4.56a1.52,1.52,0,0,0-1.22.52,2.17,2.17,0,0,0-.45,1.45,2,2,0,0,0,.45,1.4,1.54,1.54,0,0,0,1.22.52,1.43,1.43,0,0,0,1.19-.51,2.16,2.16,0,0,0,.42-1.43,2.21,2.21,0,0,0-.42-1.44A1.43,1.43,0,0,0,148.27,144.73Z"/><path class="cls-6" d="M151.68,149v-.86a2.36,2.36,0,0,0,1.44.49c.7,0,1-.24,1-.71a.64.64,0,0,0-.09-.34.91.91,0,0,0-.24-.24,2,2,0,0,0-.36-.2L153,147a5.37,5.37,0,0,1-.58-.27,1.74,1.74,0,0,1-.42-.3,1.11,1.11,0,0,1-.26-.39,1.5,1.5,0,0,1-.08-.5,1.17,1.17,0,0,1,.16-.62,1.57,1.57,0,0,1,.43-.46,2,2,0,0,1,.61-.27,2.82,2.82,0,0,1,.71-.09,2.86,2.86,0,0,1,1.16.22v.81a2.25,2.25,0,0,0-1.27-.36,1.62,1.62,0,0,0-.4.05,1,1,0,0,0-.31.14.72.72,0,0,0-.2.23.53.53,0,0,0-.07.28.67.67,0,0,0,.07.33.66.66,0,0,0,.21.23,1.69,1.69,0,0,0,.33.19l.44.18a5.68,5.68,0,0,1,.6.26,2.52,2.52,0,0,1,.45.3,1.28,1.28,0,0,1,.28.39,1.21,1.21,0,0,1,.1.52,1.23,1.23,0,0,1-.16.65,1.35,1.35,0,0,1-.44.45,2,2,0,0,1-.63.27,2.94,2.94,0,0,1-.74.09A2.82,2.82,0,0,1,151.68,149Z"/><path class="cls-6" d="M158.54,149.12a1.45,1.45,0,0,1-.74.16c-.88,0-1.32-.49-1.32-1.46v-3h-.86v-.69h.86V143l.8-.26v1.48h1.26v.69h-1.26v2.81a1.19,1.19,0,0,0,.17.72.72.72,0,0,0,.57.22.83.83,0,0,0,.52-.17Z"/><path class="cls-6" d="M162.17,146.7h-2.66v-.63h2.66Z"/><path class="cls-6" d="M164.43,148.45h0v3h-.8v-7.3h.8v.88h0a1.9,1.9,0,0,1,1.73-1,1.83,1.83,0,0,1,1.51.67,2.76,2.76,0,0,1,.54,1.8,3.11,3.11,0,0,1-.61,2,2,2,0,0,1-1.67.75A1.67,1.67,0,0,1,164.43,148.45Zm0-2v.7a1.49,1.49,0,0,0,.4,1.05,1.43,1.43,0,0,0,2.17-.12,2.6,2.6,0,0,0,.41-1.55,2.06,2.06,0,0,0-.38-1.31,1.3,1.3,0,0,0-1-.47,1.39,1.39,0,0,0-1.12.49A1.74,1.74,0,0,0,164.41,146.43Z"/><path class="cls-6" d="M172.1,145a1.08,1.08,0,0,0-1.47.33,2.29,2.29,0,0,0-.34,1.31v2.55h-.8v-5h.8v1h0a1.76,1.76,0,0,1,.52-.82,1.2,1.2,0,0,1,.79-.3,1.43,1.43,0,0,1,.48.07Z"/><path class="cls-6" d="M173.38,142.9a.53.53,0,0,1-.37-.14.5.5,0,0,1-.15-.37A.52.52,0,0,1,173,142a.5.5,0,0,1,.37-.15.51.51,0,0,1,.37.15.52.52,0,0,1,.15.38.49.49,0,0,1-.15.36A.51.51,0,0,1,173.38,142.9Zm.39,6.27H173v-5h.8Z"/><path class="cls-6" d="M179.54,149.17h-.8v-2.85c0-1.06-.39-1.59-1.16-1.59a1.27,1.27,0,0,0-1,.45,1.68,1.68,0,0,0-.39,1.14v2.85h-.8v-5h.8V145h0a1.8,1.8,0,0,1,1.64-.94,1.5,1.5,0,0,1,1.25.53,2.35,2.35,0,0,1,.44,1.53Z"/><path class="cls-6" d="M183.37,149.12a1.49,1.49,0,0,1-.75.16c-.88,0-1.31-.49-1.31-1.46v-3h-.86v-.69h.86V143l.8-.26v1.48h1.26v.69h-1.26v2.81a1.12,1.12,0,0,0,.17.72.68.68,0,0,0,.56.22.86.86,0,0,0,.53-.17Z"/><path class="cls-6" d="M185.13,142.17v2.18h-.71v-2.18Zm1.62,0v2.18H186v-2.18Z"/><path class="cls-6" d="M195.12,146.87h-3.53a1.87,1.87,0,0,0,.44,1.29,1.59,1.59,0,0,0,1.19.46,2.46,2.46,0,0,0,1.55-.56v.75a2.89,2.89,0,0,1-1.74.48,2.13,2.13,0,0,1-1.67-.68,2.81,2.81,0,0,1-.6-1.92,2.73,2.73,0,0,1,.66-1.9,2.12,2.12,0,0,1,1.64-.73,1.9,1.9,0,0,1,1.52.63,2.63,2.63,0,0,1,.54,1.76Zm-.82-.68a1.63,1.63,0,0,0-.34-1.07,1.12,1.12,0,0,0-.91-.39,1.31,1.31,0,0,0-1,.4,1.94,1.94,0,0,0-.49,1.06Z"/><path class="cls-6" d="M198.65,149.12a1.49,1.49,0,0,1-.75.16c-.88,0-1.31-.49-1.31-1.46v-3h-.86v-.69h.86V143l.8-.26v1.48h1.26v.69h-1.26v2.81a1.12,1.12,0,0,0,.17.72.68.68,0,0,0,.56.22.86.86,0,0,0,.53-.17Z"/><path class="cls-6" d="M70.83,161.17H70v-7.4h.8Z"/><path class="cls-6" d="M76,161.17h-.8v-.78h0a1.68,1.68,0,0,1-1.54.9,1.6,1.6,0,0,1-1.16-.4,1.34,1.34,0,0,1-.43-1c0-.93.55-1.47,1.65-1.63l1.5-.21c0-.85-.34-1.27-1-1.27a2.47,2.47,0,0,0-1.63.61v-.82a3.12,3.12,0,0,1,1.7-.46c1.18,0,1.76.62,1.76,1.86Zm-.8-2.53-1.2.17a1.84,1.84,0,0,0-.84.28.79.79,0,0,0-.29.7.76.76,0,0,0,.26.59,1,1,0,0,0,.7.24,1.26,1.26,0,0,0,1-.42,1.49,1.49,0,0,0,.39-1.06Z"/><path class="cls-6" d="M84.21,156.17l-2,5h-.79l-1.89-5h.88l1.27,3.64a3.27,3.27,0,0,1,.17.69h0a3.88,3.88,0,0,1,.16-.67l1.33-3.66Z"/><path class="cls-6" d="M89.09,158.87H85.56a1.83,1.83,0,0,0,.45,1.29,1.57,1.57,0,0,0,1.18.46,2.46,2.46,0,0,0,1.55-.56v.75a2.89,2.89,0,0,1-1.74.48,2.1,2.1,0,0,1-1.66-.68,2.77,2.77,0,0,1-.61-1.92,2.73,2.73,0,0,1,.66-1.9,2.12,2.12,0,0,1,1.64-.73,1.87,1.87,0,0,1,1.52.63,2.63,2.63,0,0,1,.54,1.76Zm-.82-.68a1.63,1.63,0,0,0-.33-1.07,1.14,1.14,0,0,0-.92-.39,1.28,1.28,0,0,0-1,.4,1.81,1.81,0,0,0-.49,1.06Z"/><path class="cls-6" d="M92.91,157a1,1,0,0,0-.61-.16,1,1,0,0,0-.85.49,2.21,2.21,0,0,0-.35,1.31v2.55h-.8v-5h.8v1h0a1.84,1.84,0,0,1,.52-.82,1.2,1.2,0,0,1,.79-.3,1.43,1.43,0,0,1,.48.07Z"/><path class="cls-6" d="M93.47,161v-.86a2.41,2.41,0,0,0,1.45.49c.7,0,1-.24,1-.71a.64.64,0,0,0-.09-.34.91.91,0,0,0-.24-.24,2.56,2.56,0,0,0-.37-.2l-.44-.17c-.22-.09-.42-.18-.59-.27a2.25,2.25,0,0,1-.42-.3,1.24,1.24,0,0,1-.25-.39,1.28,1.28,0,0,1-.09-.5,1.18,1.18,0,0,1,.17-.62,1.44,1.44,0,0,1,.43-.46,1.89,1.89,0,0,1,.61-.27,2.76,2.76,0,0,1,.71-.09,2.86,2.86,0,0,1,1.16.22v.81a2.27,2.27,0,0,0-1.27-.36,1.62,1.62,0,0,0-.4.05.89.89,0,0,0-.31.14.62.62,0,0,0-.2.23.54.54,0,0,0-.08.28.67.67,0,0,0,.08.33.55.55,0,0,0,.2.23,1.52,1.52,0,0,0,.34.19l.44.18a5.68,5.68,0,0,1,.6.26,2.12,2.12,0,0,1,.44.3,1.32,1.32,0,0,1,.29.39,1.21,1.21,0,0,1,.1.52,1.23,1.23,0,0,1-.16.65,1.45,1.45,0,0,1-.44.45,2,2,0,0,1-.63.27,3.08,3.08,0,0,1-.75.09A2.85,2.85,0,0,1,93.47,161Z"/><path class="cls-6" d="M98.43,154.9a.57.57,0,0,1-.37-.14.5.5,0,0,1-.15-.37.52.52,0,0,1,.15-.38.53.53,0,0,1,.37-.15.5.5,0,0,1,.37.15.49.49,0,0,1,.16.38.46.46,0,0,1-.16.36A.5.5,0,0,1,98.43,154.9Zm.39,6.27H98v-5h.8Z"/><path class="cls-6" d="M102.53,161.29a2.31,2.31,0,0,1-1.77-.7,2.61,2.61,0,0,1-.66-1.86,2.72,2.72,0,0,1,.69-2,2.48,2.48,0,0,1,1.86-.7,2.27,2.27,0,0,1,1.75.68,2.78,2.78,0,0,1,.62,1.91,2.69,2.69,0,0,1-.67,1.92A2.38,2.38,0,0,1,102.53,161.29Zm.06-4.56a1.52,1.52,0,0,0-1.22.52,2.17,2.17,0,0,0-.45,1.45,2,2,0,0,0,.46,1.4,1.5,1.5,0,0,0,1.21.52,1.43,1.43,0,0,0,1.19-.51,2.16,2.16,0,0,0,.42-1.43,2.21,2.21,0,0,0-.42-1.44A1.43,1.43,0,0,0,102.59,156.73Z"/><path class="cls-6" d="M110.45,161.17h-.8v-2.85c0-1.06-.39-1.59-1.16-1.59a1.25,1.25,0,0,0-1,.45,1.64,1.64,0,0,0-.4,1.14v2.85h-.8v-5h.8V157h0a1.81,1.81,0,0,1,1.64-.94,1.52,1.52,0,0,1,1.26.53,2.34,2.34,0,0,1,.43,1.53Z"/><path class="cls-6" d="M118.72,158.87h-3.53a1.83,1.83,0,0,0,.45,1.29,1.55,1.55,0,0,0,1.18.46,2.46,2.46,0,0,0,1.55-.56v.75a2.89,2.89,0,0,1-1.74.48,2.14,2.14,0,0,1-1.67-.68,2.81,2.81,0,0,1-.6-1.92,2.73,2.73,0,0,1,.66-1.9,2.12,2.12,0,0,1,1.64-.73,1.88,1.88,0,0,1,1.52.63,2.63,2.63,0,0,1,.54,1.76Zm-.82-.68a1.58,1.58,0,0,0-.34-1.07,1.12,1.12,0,0,0-.91-.39,1.28,1.28,0,0,0-1,.4,1.81,1.81,0,0,0-.49,1.06Zm-.13-4.57-1.28,1.61h-.62l1.09-1.61Z"/><path class="cls-6" d="M124.2,161.17h-.8v-.85h0a1.85,1.85,0,0,1-1.72,1,1.87,1.87,0,0,1-1.51-.67,2.8,2.8,0,0,1-.56-1.83,3,3,0,0,1,.62-2,2.06,2.06,0,0,1,1.67-.74,1.62,1.62,0,0,1,1.5.81h0v-3.1h.8Zm-.8-2.26v-.74a1.45,1.45,0,0,0-.4-1,1.36,1.36,0,0,0-1-.42,1.37,1.37,0,0,0-1.15.54,2.33,2.33,0,0,0-.42,1.48,2.13,2.13,0,0,0,.4,1.37,1.33,1.33,0,0,0,1.08.5,1.38,1.38,0,0,0,1.09-.49A1.79,1.79,0,0,0,123.4,158.91Z"/><path class="cls-6" d="M126.23,154.9a.55.55,0,0,1-.37-.14.5.5,0,0,1-.15-.37.52.52,0,0,1,.15-.38.51.51,0,0,1,.37-.15.5.5,0,0,1,.37.15.49.49,0,0,1,.16.38.46.46,0,0,1-.16.36A.5.5,0,0,1,126.23,154.9Zm.39,6.27h-.8v-5h.8Z"/><path class="cls-6" d="M130.56,161.12a1.49,1.49,0,0,1-.75.16c-.87,0-1.31-.49-1.31-1.46v-3h-.86v-.69h.86V155l.8-.26v1.48h1.26v.69H129.3v2.81a1.19,1.19,0,0,0,.17.72.7.7,0,0,0,.57.22.85.85,0,0,0,.52-.17Z"/><path class="cls-6" d="M135.65,158.87h-3.53a1.83,1.83,0,0,0,.45,1.29,1.55,1.55,0,0,0,1.18.46,2.46,2.46,0,0,0,1.55-.56v.75a2.89,2.89,0,0,1-1.74.48,2.14,2.14,0,0,1-1.67-.68,2.81,2.81,0,0,1-.6-1.92,2.73,2.73,0,0,1,.66-1.9,2.12,2.12,0,0,1,1.64-.73,1.88,1.88,0,0,1,1.52.63,2.63,2.63,0,0,1,.54,1.76Zm-.82-.68a1.63,1.63,0,0,0-.34-1.07,1.12,1.12,0,0,0-.91-.39,1.28,1.28,0,0,0-1,.4,1.81,1.81,0,0,0-.49,1.06Z"/><path class="cls-6" d="M140.9,161.17h-.8v-.79h0a1.64,1.64,0,0,1-1.54.91c-1.19,0-1.79-.71-1.79-2.13v-3h.8V159c0,1.06.4,1.59,1.21,1.59a1.21,1.21,0,0,0,1-.44,1.64,1.64,0,0,0,.38-1.13v-2.88h.8Z"/><path class="cls-6" d="M145.13,157a1.05,1.05,0,0,0-.61-.16,1,1,0,0,0-.86.49,2.21,2.21,0,0,0-.34,1.31v2.55h-.8v-5h.8v1h0a1.76,1.76,0,0,1,.52-.82,1.18,1.18,0,0,1,.79-.3,1.52,1.52,0,0,1,.48.07Z"/><path class="cls-6" d="M153,161.17h-.8v-.85h0a2,2,0,0,1-3.22.3,2.75,2.75,0,0,1-.57-1.83,3,3,0,0,1,.63-2,2,2,0,0,1,1.66-.74,1.6,1.6,0,0,1,1.5.81h0v-3.1h.8Zm-.8-2.26v-.74a1.41,1.41,0,0,0-.4-1,1.36,1.36,0,0,0-1-.42,1.39,1.39,0,0,0-1.15.54,2.33,2.33,0,0,0-.42,1.48,2.19,2.19,0,0,0,.4,1.37,1.33,1.33,0,0,0,1.09.5,1.36,1.36,0,0,0,1.08-.49A1.79,1.79,0,0,0,152.2,158.91Z"/><path class="cls-6" d="M155.32,154.17v2.18h-.71v-2.18Z"/><path class="cls-6" d="M161,161.17h-.81v-.79h0a1.63,1.63,0,0,1-1.54.91c-1.19,0-1.79-.71-1.79-2.13v-3h.8V159c0,1.06.4,1.59,1.21,1.59a1.25,1.25,0,0,0,1-.44,1.64,1.64,0,0,0,.37-1.13v-2.88H161Z"/><path class="cls-6" d="M166.73,161.17h-.8v-2.85c0-1.06-.39-1.59-1.16-1.59a1.29,1.29,0,0,0-1,.45,1.68,1.68,0,0,0-.39,1.14v2.85h-.8v-5h.8V157h0a1.81,1.81,0,0,1,1.64-.94,1.52,1.52,0,0,1,1.26.53,2.34,2.34,0,0,1,.43,1.53Z"/><path class="cls-6" d="M172.26,158.87h-3.53a1.83,1.83,0,0,0,.45,1.29,1.55,1.55,0,0,0,1.18.46,2.46,2.46,0,0,0,1.55-.56v.75a2.89,2.89,0,0,1-1.74.48,2.14,2.14,0,0,1-1.67-.68,2.81,2.81,0,0,1-.6-1.92,2.73,2.73,0,0,1,.66-1.9,2.12,2.12,0,0,1,1.64-.73,1.88,1.88,0,0,1,1.52.63,2.63,2.63,0,0,1,.54,1.76Zm-.82-.68a1.58,1.58,0,0,0-.34-1.07,1.12,1.12,0,0,0-.91-.39,1.28,1.28,0,0,0-1,.4,1.81,1.81,0,0,0-.49,1.06Z"/><path class="cls-6" d="M177,160.45h0v3h-.8v-7.3h.8v.88h0a1.89,1.89,0,0,1,1.73-1,1.83,1.83,0,0,1,1.51.67,2.76,2.76,0,0,1,.54,1.8,3.11,3.11,0,0,1-.61,2,2,2,0,0,1-1.67.75A1.67,1.67,0,0,1,177,160.45Zm0-2v.7a1.45,1.45,0,0,0,.4,1.05,1.43,1.43,0,0,0,2.17-.12,2.6,2.6,0,0,0,.41-1.55,2,2,0,0,0-.39-1.31,1.27,1.27,0,0,0-1-.47,1.42,1.42,0,0,0-1.13.49A1.78,1.78,0,0,0,177,158.43Z"/><path class="cls-6" d="M186.13,161.17h-.8v-.79h0a1.64,1.64,0,0,1-1.54.91c-1.19,0-1.79-.71-1.79-2.13v-3h.8V159c0,1.06.4,1.59,1.21,1.59a1.21,1.21,0,0,0,1-.44,1.64,1.64,0,0,0,.38-1.13v-2.88h.8Z"/><path class="cls-6" d="M188.57,160.45h0v.72h-.8v-7.4h.8v3.28h0a1.89,1.89,0,0,1,1.73-1,1.81,1.81,0,0,1,1.5.67,2.71,2.71,0,0,1,.55,1.8,3.17,3.17,0,0,1-.61,2,2,2,0,0,1-1.67.75A1.65,1.65,0,0,1,188.57,160.45Zm0-2v.7a1.45,1.45,0,0,0,.4,1.05,1.42,1.42,0,0,0,2.16-.12,2.53,2.53,0,0,0,.42-1.55,2,2,0,0,0-.39-1.31,1.28,1.28,0,0,0-1-.47,1.42,1.42,0,0,0-1.13.49A1.78,1.78,0,0,0,188.55,158.43Z"/><path class="cls-6" d="M194.43,161.17h-.8v-7.4h.8Z"/><path class="cls-6" d="M196.46,154.9a.53.53,0,0,1-.37-.14.5.5,0,0,1-.15-.37.52.52,0,0,1,.15-.38.5.5,0,0,1,.37-.15.51.51,0,0,1,.37.15.53.53,0,0,1,.16.38.5.5,0,0,1-.16.36A.51.51,0,0,1,196.46,154.9Zm.39,6.27h-.8v-5h.8Z"/><path class="cls-6" d="M201.88,160.94a2.63,2.63,0,0,1-1.37.35,2.26,2.26,0,0,1-1.73-.7,2.53,2.53,0,0,1-.65-1.8,2.72,2.72,0,0,1,.71-2,2.47,2.47,0,0,1,1.89-.75,2.67,2.67,0,0,1,1.16.24v.82a2,2,0,0,0-1.19-.39,1.61,1.61,0,0,0-1.26.55,2.06,2.06,0,0,0-.49,1.44,2,2,0,0,0,.46,1.39,1.59,1.59,0,0,0,1.24.51,2,2,0,0,0,1.23-.44Z"/><path class="cls-6" d="M206.67,161.17h-.8v-.78h0a1.68,1.68,0,0,1-1.54.9,1.61,1.61,0,0,1-1.17-.4,1.36,1.36,0,0,1-.42-1c0-.93.55-1.47,1.65-1.63l1.5-.21c0-.85-.35-1.27-1-1.27a2.43,2.43,0,0,0-1.63.61v-.82a3.09,3.09,0,0,1,1.7-.46c1.17,0,1.76.62,1.76,1.86Zm-.8-2.53-1.21.17a1.84,1.84,0,0,0-.84.28.78.78,0,0,0-.28.7.76.76,0,0,0,.26.59,1,1,0,0,0,.7.24,1.29,1.29,0,0,0,1-.42,1.49,1.49,0,0,0,.39-1.06Z"/><path class="cls-6" d="M210.74,158.7h-2.67v-.63h2.67Z"/><path class="cls-6" d="M72.35,173.12a1.49,1.49,0,0,1-.75.16c-.87,0-1.31-.49-1.31-1.46v-3h-.86v-.69h.86V167l.8-.26v1.48h1.26v.69H71.09v2.81a1.19,1.19,0,0,0,.17.72.72.72,0,0,0,.57.22.83.83,0,0,0,.52-.17Z"/><path class="cls-6" d="M73.83,166.9a.52.52,0,0,1-.36-.14.47.47,0,0,1-.16-.37.53.53,0,0,1,.52-.53.5.5,0,0,1,.37.15.49.49,0,0,1,.16.38.46.46,0,0,1-.16.36A.5.5,0,0,1,73.83,166.9Zm.39,6.27h-.8v-5h.8Z"/><path class="cls-6" d="M77.93,173.29a2.31,2.31,0,0,1-1.77-.7,2.61,2.61,0,0,1-.66-1.86,2.72,2.72,0,0,1,.69-2,2.48,2.48,0,0,1,1.86-.7,2.27,2.27,0,0,1,1.75.68,2.78,2.78,0,0,1,.62,1.91,2.69,2.69,0,0,1-.67,1.92A2.38,2.38,0,0,1,77.93,173.29Zm.06-4.56a1.52,1.52,0,0,0-1.22.52,2.17,2.17,0,0,0-.45,1.45,2,2,0,0,0,.46,1.4,1.5,1.5,0,0,0,1.21.52,1.47,1.47,0,0,0,1.2-.51,2.21,2.21,0,0,0,.41-1.43,2.26,2.26,0,0,0-.41-1.44A1.47,1.47,0,0,0,78,168.73Z"/><path class="cls-6" d="M85.85,173.17h-.8v-2.85c0-1.06-.39-1.59-1.16-1.59a1.25,1.25,0,0,0-1,.45,1.64,1.64,0,0,0-.4,1.14v2.85h-.8v-5h.8V169h0a1.81,1.81,0,0,1,1.64-.94,1.52,1.52,0,0,1,1.26.53,2.34,2.34,0,0,1,.43,1.53Z"/><path class="cls-6" d="M90.93,171.23a1.77,1.77,0,0,1-.08-.33,1.87,1.87,0,0,1,0-.4,1.33,1.33,0,0,1,.13-.57,2.24,2.24,0,0,1,.31-.47,5.25,5.25,0,0,1,.4-.42,5.28,5.28,0,0,0,.41-.41,2.19,2.19,0,0,0,.31-.44,1,1,0,0,0,.12-.5.91.91,0,0,0-.09-.41.89.89,0,0,0-.24-.3,1,1,0,0,0-.36-.19,1.61,1.61,0,0,0-.44-.06,1.9,1.9,0,0,0-1.43.65v-.86a2.89,2.89,0,0,1,1.55-.47,2.63,2.63,0,0,1,.7.1,1.8,1.8,0,0,1,.57.29,1.53,1.53,0,0,1,.39.48,1.57,1.57,0,0,1,.14.67,1.51,1.51,0,0,1-.13.65,2.14,2.14,0,0,1-.32.52,5.62,5.62,0,0,1-.41.44,5.44,5.44,0,0,0-.42.41,1.8,1.8,0,0,0-.32.42.89.89,0,0,0-.13.48,1.7,1.7,0,0,0,0,.41l.11.31Zm.44,2a.54.54,0,0,1-.39-.16.53.53,0,0,1,0-.76.54.54,0,0,1,.77,0,.53.53,0,0,1,0,.76A.52.52,0,0,1,91.37,173.26Z"/><path class="cls-6" d="M75.56,188.17h-.91l-.74-2h-3l-.7,2h-.91l2.68-7h.85Zm-1.92-2.7-1.1-3c0-.1-.07-.26-.11-.47h0a2.42,2.42,0,0,1-.12.47l-1.09,3Z"/><path class="cls-6" d="M76.5,189.76h-.71a6.47,6.47,0,0,0,1.52-4.27,6.6,6.6,0,0,0-1.53-4.32h.72A6.44,6.44,0,0,1,78,185.5,6.19,6.19,0,0,1,76.5,189.76Z"/><path class="cls-6" d="M86,188.17H82.35v-7h.82v6.26H86Z"/><path class="cls-6" d="M91,185.87H87.43a1.93,1.93,0,0,0,.45,1.29,1.57,1.57,0,0,0,1.19.46,2.46,2.46,0,0,0,1.55-.56v.75a2.89,2.89,0,0,1-1.74.48,2.13,2.13,0,0,1-1.67-.68,2.82,2.82,0,0,1-.61-1.92,2.74,2.74,0,0,1,.67-1.9,2.12,2.12,0,0,1,1.64-.73,1.9,1.9,0,0,1,1.52.63,2.63,2.63,0,0,1,.54,1.76Zm-.83-.68a1.62,1.62,0,0,0-.33-1.08,1.16,1.16,0,0,0-.92-.38,1.31,1.31,0,0,0-1,.4,1.94,1.94,0,0,0-.49,1.06Z"/><path class="cls-6" d="M95.61,181.17v2.18H94.9v-2.18Zm1.62,0v2.18h-.71v-2.18Z"/><path class="cls-6" d="M99.66,187.45h0v3h-.8v-7.3h.8v.88h0a1.89,1.89,0,0,1,1.72-1,1.82,1.82,0,0,1,1.51.67,2.71,2.71,0,0,1,.55,1.8,3.17,3.17,0,0,1-.61,2,2,2,0,0,1-1.67.75A1.67,1.67,0,0,1,99.66,187.45Zm0-2v.7a1.45,1.45,0,0,0,.4,1.05,1.42,1.42,0,0,0,2.16-.12,2.53,2.53,0,0,0,.42-1.55,2,2,0,0,0-.39-1.31,1.3,1.3,0,0,0-1-.47,1.4,1.4,0,0,0-1.12.49A1.76,1.76,0,0,0,99.64,185.43Z"/><path class="cls-6" d="M108.73,185.87H105.2a1.93,1.93,0,0,0,.45,1.29,1.57,1.57,0,0,0,1.18.46,2.49,2.49,0,0,0,1.56-.56v.75a2.9,2.9,0,0,1-1.75.48,2.12,2.12,0,0,1-1.66-.68,2.77,2.77,0,0,1-.61-1.92,2.73,2.73,0,0,1,.66-1.9,2.14,2.14,0,0,1,1.65-.73,1.9,1.9,0,0,1,1.52.63,2.68,2.68,0,0,1,.53,1.76Zm-.82-.68a1.62,1.62,0,0,0-.33-1.08,1.17,1.17,0,0,0-.92-.38,1.31,1.31,0,0,0-1,.4,1.94,1.94,0,0,0-.49,1.06Z"/><path class="cls-6" d="M114,185.87h-3.53a1.93,1.93,0,0,0,.45,1.29,1.57,1.57,0,0,0,1.18.46,2.49,2.49,0,0,0,1.56-.56v.75a2.9,2.9,0,0,1-1.75.48,2.12,2.12,0,0,1-1.66-.68,2.77,2.77,0,0,1-.61-1.92,2.73,2.73,0,0,1,.66-1.9,2.14,2.14,0,0,1,1.65-.73,1.9,1.9,0,0,1,1.52.63,2.68,2.68,0,0,1,.53,1.76Zm-.82-.68a1.62,1.62,0,0,0-.33-1.08,1.17,1.17,0,0,0-.92-.38,1.28,1.28,0,0,0-1,.4,1.87,1.87,0,0,0-.49,1.06Z"/><path class="cls-6" d="M117.78,184a1,1,0,0,0-.6-.16,1,1,0,0,0-.86.49,2.21,2.21,0,0,0-.35,1.31v2.55h-.8v-5h.8v1h0a1.77,1.77,0,0,1,.53-.82,1.16,1.16,0,0,1,.78-.3,1.43,1.43,0,0,1,.48.07Z"/><path class="cls-6" d="M121.21,185.7h-2.67v-.63h2.67Z"/><path class="cls-6" d="M125.26,184a1,1,0,0,0-.61-.16,1,1,0,0,0-.86.49,2.29,2.29,0,0,0-.34,1.31v2.55h-.8v-5h.8v1h0a1.76,1.76,0,0,1,.52-.82,1.2,1.2,0,0,1,.79-.3,1.43,1.43,0,0,1,.48.07Z"/><path class="cls-6" d="M130.14,185.87h-3.53a1.93,1.93,0,0,0,.45,1.29,1.57,1.57,0,0,0,1.19.46,2.46,2.46,0,0,0,1.55-.56v.75a2.9,2.9,0,0,1-1.75.48,2.12,2.12,0,0,1-1.66-.68,2.82,2.82,0,0,1-.61-1.92,2.74,2.74,0,0,1,.67-1.9,2.1,2.1,0,0,1,1.64-.73,1.9,1.9,0,0,1,1.52.63,2.62,2.62,0,0,1,.53,1.76Zm-.82-.68a1.62,1.62,0,0,0-.33-1.08,1.16,1.16,0,0,0-.92-.38,1.31,1.31,0,0,0-1,.4,1.94,1.94,0,0,0-.49,1.06Z"/><path class="cls-6" d="M135.29,183.17l-2,5h-.78l-1.9-5h.88l1.27,3.64a2.82,2.82,0,0,1,.18.69h0a3.4,3.4,0,0,1,.15-.68l1.33-3.65Z"/><path class="cls-6" d="M136.56,181.9a.53.53,0,0,1-.37-.14.5.5,0,0,1-.15-.37.52.52,0,0,1,.15-.38.5.5,0,0,1,.37-.15.51.51,0,0,1,.37.15.52.52,0,0,1,.15.38.49.49,0,0,1-.15.36A.51.51,0,0,1,136.56,181.9Zm.39,6.27h-.8v-5h.8Z"/><path class="cls-6" d="M142.59,185.87h-3.53a1.83,1.83,0,0,0,.45,1.29,1.55,1.55,0,0,0,1.18.46,2.46,2.46,0,0,0,1.55-.56v.75a2.89,2.89,0,0,1-1.74.48,2.13,2.13,0,0,1-1.67-.68,2.81,2.81,0,0,1-.6-1.92,2.73,2.73,0,0,1,.66-1.9,2.12,2.12,0,0,1,1.64-.73,1.9,1.9,0,0,1,1.52.63,2.63,2.63,0,0,1,.54,1.76Zm-.82-.68a1.68,1.68,0,0,0-.34-1.08,1.15,1.15,0,0,0-.91-.38,1.31,1.31,0,0,0-1,.4,1.86,1.86,0,0,0-.48,1.06Z"/><path class="cls-6" d="M150.1,183.17l-1.5,5h-.83l-1-3.58a2,2,0,0,1-.08-.46h0a2.69,2.69,0,0,1-.1.45l-1.12,3.59h-.8l-1.52-5h.84l1,3.76a3.59,3.59,0,0,1,.07.45h0a3,3,0,0,1,.08-.46l1.16-3.75h.73l1,3.77a2.29,2.29,0,0,1,.08.45h0a1.65,1.65,0,0,1,.08-.45l1-3.77Z"/><path class="cls-6" d="M151.72,181.17v2.18H151v-2.18Zm1.62,0v2.18h-.71v-2.18Z"/><path class="cls-6" d="M159.78,189.76h-.71a6.22,6.22,0,0,1-1.51-4.26,6.47,6.47,0,0,1,1.51-4.33h.72a6.6,6.6,0,0,0-1.53,4.32A6.47,6.47,0,0,0,159.78,189.76Z"/><path class="cls-6" d="M163.31,184a1,1,0,0,0-.61-.16,1,1,0,0,0-.85.49,2.21,2.21,0,0,0-.35,1.31v2.55h-.8v-5h.8v1h0a1.84,1.84,0,0,1,.52-.82,1.2,1.2,0,0,1,.79-.3,1.43,1.43,0,0,1,.48.07Z"/><path class="cls-6" d="M168.2,185.87h-3.53a1.83,1.83,0,0,0,.45,1.29,1.55,1.55,0,0,0,1.18.46,2.46,2.46,0,0,0,1.55-.56v.75a2.89,2.89,0,0,1-1.74.48,2.13,2.13,0,0,1-1.67-.68,2.81,2.81,0,0,1-.6-1.92,2.73,2.73,0,0,1,.66-1.9,2.12,2.12,0,0,1,1.64-.73,1.88,1.88,0,0,1,1.52.63,2.63,2.63,0,0,1,.54,1.76Zm-.82-.68a1.68,1.68,0,0,0-.34-1.08,1.15,1.15,0,0,0-.91-.38,1.31,1.31,0,0,0-1,.4,1.86,1.86,0,0,0-.48,1.06Z"/><path class="cls-6" d="M170.21,188.17h-.8v-7.4h.8Z"/><path class="cls-6" d="M175.85,185.87h-3.53a1.83,1.83,0,0,0,.45,1.29,1.55,1.55,0,0,0,1.18.46,2.46,2.46,0,0,0,1.55-.56v.75a2.89,2.89,0,0,1-1.74.48,2.14,2.14,0,0,1-1.67-.68,2.81,2.81,0,0,1-.6-1.92,2.73,2.73,0,0,1,.66-1.9,2.12,2.12,0,0,1,1.64-.73,1.88,1.88,0,0,1,1.52.63,2.63,2.63,0,0,1,.54,1.76Zm-.82-.68a1.68,1.68,0,0,0-.34-1.08,1.15,1.15,0,0,0-.91-.38,1.28,1.28,0,0,0-1,.4,1.81,1.81,0,0,0-.49,1.06Z"/><path class="cls-6" d="M180.47,187.94a2.63,2.63,0,0,1-1.37.35,2.26,2.26,0,0,1-1.73-.7,2.53,2.53,0,0,1-.65-1.8,2.75,2.75,0,0,1,.7-2,2.5,2.5,0,0,1,1.89-.75,2.72,2.72,0,0,1,1.17.24v.82a2,2,0,0,0-1.19-.39,1.6,1.6,0,0,0-1.26.55,2.06,2.06,0,0,0-.49,1.44,2,2,0,0,0,.46,1.39,1.59,1.59,0,0,0,1.24.51,2,2,0,0,0,1.23-.44Z"/><path class="cls-6" d="M184,188.12a1.49,1.49,0,0,1-.75.16c-.88,0-1.31-.49-1.31-1.47v-2.95h-.86v-.69h.86V182l.8-.26v1.48H184v.69h-1.26v2.81a1.12,1.12,0,0,0,.17.72.68.68,0,0,0,.56.22.86.86,0,0,0,.53-.17Z"/><path class="cls-6" d="M189.11,188.17h-.8v-.79h0a1.64,1.64,0,0,1-1.54.91c-1.2,0-1.79-.71-1.79-2.13v-3h.8V186c0,1.06.4,1.59,1.21,1.59a1.21,1.21,0,0,0,1-.44,1.64,1.64,0,0,0,.38-1.13v-2.88h.8Z"/><path class="cls-6" d="M193.33,184a1.07,1.07,0,0,0-1.46.33,2.21,2.21,0,0,0-.34,1.31v2.55h-.8v-5h.8v1h0a1.69,1.69,0,0,1,.52-.82,1.16,1.16,0,0,1,.78-.3,1.43,1.43,0,0,1,.48.07Z"/><path class="cls-6" d="M198.22,185.87h-3.53a1.83,1.83,0,0,0,.45,1.29,1.57,1.57,0,0,0,1.18.46,2.46,2.46,0,0,0,1.55-.56v.75a2.89,2.89,0,0,1-1.74.48,2.1,2.1,0,0,1-1.66-.68,2.77,2.77,0,0,1-.61-1.92,2.73,2.73,0,0,1,.66-1.9,2.12,2.12,0,0,1,1.65-.73,1.86,1.86,0,0,1,1.51.63,2.63,2.63,0,0,1,.54,1.76Zm-.82-.68a1.62,1.62,0,0,0-.33-1.08,1.17,1.17,0,0,0-.92-.38,1.28,1.28,0,0,0-1,.4,1.81,1.81,0,0,0-.49,1.06Z"/><path class="cls-6" d="M203,187.45h0v3h-.8v-7.3h.8v.88h0a1.89,1.89,0,0,1,1.73-1,1.83,1.83,0,0,1,1.51.67,2.76,2.76,0,0,1,.54,1.8,3.11,3.11,0,0,1-.61,2,2,2,0,0,1-1.67.75A1.67,1.67,0,0,1,203,187.45Zm0-2v.7a1.49,1.49,0,0,0,.4,1.05,1.43,1.43,0,0,0,2.17-.12,2.6,2.6,0,0,0,.41-1.55,2,2,0,0,0-.39-1.31,1.27,1.27,0,0,0-1-.47,1.39,1.39,0,0,0-1.12.49A1.72,1.72,0,0,0,203,185.43Z"/><path class="cls-6" d="M211.63,188.17h-.8v-.78h0a1.68,1.68,0,0,1-1.54.9,1.61,1.61,0,0,1-1.17-.4,1.36,1.36,0,0,1-.42-1c0-.93.55-1.47,1.65-1.63l1.5-.21c0-.85-.35-1.27-1-1.27a2.45,2.45,0,0,0-1.63.61v-.82a3.09,3.09,0,0,1,1.7-.46c1.17,0,1.76.62,1.76,1.86Zm-.8-2.53-1.21.17a1.84,1.84,0,0,0-.84.28.78.78,0,0,0-.28.7.76.76,0,0,0,.26.59,1,1,0,0,0,.7.24,1.29,1.29,0,0,0,1-.42,1.49,1.49,0,0,0,.39-1.06Z"/><path class="cls-6" d="M215.75,184a1.05,1.05,0,0,0-.61-.16,1,1,0,0,0-.86.49,2.21,2.21,0,0,0-.34,1.31v2.55h-.8v-5h.8v1h0a1.76,1.76,0,0,1,.52-.82,1.2,1.2,0,0,1,.79-.3,1.52,1.52,0,0,1,.48.07Z"/><path class="cls-6" d="M70.83,200.17H70v-7.4h.8Z"/><path class="cls-6" d="M76.47,197.87H72.94a1.93,1.93,0,0,0,.45,1.29,1.57,1.57,0,0,0,1.18.46,2.49,2.49,0,0,0,1.56-.56v.75a2.9,2.9,0,0,1-1.75.48,2.12,2.12,0,0,1-1.66-.68,2.77,2.77,0,0,1-.61-1.92,2.73,2.73,0,0,1,.66-1.9,2.14,2.14,0,0,1,1.65-.73,1.9,1.9,0,0,1,1.52.63,2.68,2.68,0,0,1,.53,1.76Zm-.82-.68a1.62,1.62,0,0,0-.33-1.08,1.17,1.17,0,0,0-.92-.38,1.29,1.29,0,0,0-1,.4,1.87,1.87,0,0,0-.49,1.06Z"/><path class="cls-6" d="M77.38,200v-.86a2.41,2.41,0,0,0,1.44.49c.7,0,1.06-.24,1.06-.71a.64.64,0,0,0-.09-.34,1,1,0,0,0-.25-.24,2,2,0,0,0-.36-.2l-.45-.17c-.22-.09-.41-.18-.58-.27a1.74,1.74,0,0,1-.42-.3,1.08,1.08,0,0,1-.25-.39,1.28,1.28,0,0,1-.09-.5,1.17,1.17,0,0,1,.16-.62,1.57,1.57,0,0,1,.43-.46,2,2,0,0,1,.61-.27,2.82,2.82,0,0,1,.71-.09,2.87,2.87,0,0,1,1.17.22v.81a2.27,2.27,0,0,0-1.27-.36,1.7,1.7,0,0,0-.41.05,1,1,0,0,0-.31.14.87.87,0,0,0-.2.23.53.53,0,0,0-.07.28.67.67,0,0,0,.07.33.66.66,0,0,0,.21.23,1.69,1.69,0,0,0,.33.19l.45.18a4.72,4.72,0,0,1,.59.26,2,2,0,0,1,.45.3,1.52,1.52,0,0,1,.29.39,1.38,1.38,0,0,1,.1.52,1.23,1.23,0,0,1-.17.65,1.42,1.42,0,0,1-.43.45,2.22,2.22,0,0,1-.63.27,3.08,3.08,0,0,1-.75.09A2.82,2.82,0,0,1,77.38,200Z"/><path class="cls-6" d="M85.49,199.45h0v3h-.8v-7.3h.8v.88h0a1.89,1.89,0,0,1,1.73-1,1.81,1.81,0,0,1,1.5.67,2.71,2.71,0,0,1,.55,1.8,3.17,3.17,0,0,1-.61,2,2,2,0,0,1-1.67.75A1.67,1.67,0,0,1,85.49,199.45Zm0-2v.7a1.45,1.45,0,0,0,.4,1.05,1.42,1.42,0,0,0,2.16-.12,2.53,2.53,0,0,0,.42-1.55,2,2,0,0,0-.39-1.31,1.3,1.3,0,0,0-1-.47,1.4,1.4,0,0,0-1.12.49A1.76,1.76,0,0,0,85.47,197.43Z"/><path class="cls-6" d="M94.12,200.17h-.8v-.78h0a1.66,1.66,0,0,1-1.53.9,1.61,1.61,0,0,1-1.17-.4,1.34,1.34,0,0,1-.43-1c0-.93.55-1.47,1.65-1.63l1.5-.21c0-.85-.34-1.27-1-1.27a2.47,2.47,0,0,0-1.63.61v-.82a3.12,3.12,0,0,1,1.7-.46c1.18,0,1.76.62,1.76,1.86Zm-.8-2.53-1.2.17a1.84,1.84,0,0,0-.84.28.79.79,0,0,0-.29.7.74.74,0,0,0,.27.59,1,1,0,0,0,.69.24,1.29,1.29,0,0,0,1-.42,1.53,1.53,0,0,0,.38-1.06Z"/><path class="cls-6" d="M96,193.9a.52.52,0,0,1-.36-.14.5.5,0,0,1-.15-.37.52.52,0,0,1,.15-.38.49.49,0,0,1,.36-.15.54.54,0,0,1,.38.15.52.52,0,0,1,.15.38.49.49,0,0,1-.15.36A.54.54,0,0,1,96,193.9Zm.39,6.27h-.8v-5h.8Z"/><path class="cls-6" d="M100.66,196a1.07,1.07,0,0,0-1.46.33,2.21,2.21,0,0,0-.34,1.31v2.55h-.81v-5h.81v1h0a1.69,1.69,0,0,1,.52-.82,1.16,1.16,0,0,1,.78-.3,1.43,1.43,0,0,1,.48.07Z"/><path class="cls-6" d="M101.23,200v-.86a2.39,2.39,0,0,0,1.44.49c.7,0,1-.24,1-.71a.64.64,0,0,0-.09-.34.91.91,0,0,0-.24-.24,2,2,0,0,0-.36-.2l-.45-.17c-.22-.09-.41-.18-.58-.27a1.74,1.74,0,0,1-.42-.3,1.27,1.27,0,0,1-.26-.39,1.5,1.5,0,0,1-.08-.5,1.17,1.17,0,0,1,.16-.62,1.57,1.57,0,0,1,.43-.46,2,2,0,0,1,.61-.27,3,3,0,0,1,1.87.13v.81a2.24,2.24,0,0,0-1.26-.36,1.7,1.7,0,0,0-.41.05,1,1,0,0,0-.31.14.72.72,0,0,0-.2.23.53.53,0,0,0-.07.28.67.67,0,0,0,.07.33.66.66,0,0,0,.21.23,1.69,1.69,0,0,0,.33.19l.44.18a5.68,5.68,0,0,1,.6.26,2.52,2.52,0,0,1,.45.3,1.28,1.28,0,0,1,.28.39,1.21,1.21,0,0,1,.1.52,1.23,1.23,0,0,1-.16.65,1.35,1.35,0,0,1-.44.45,2,2,0,0,1-.63.27,2.94,2.94,0,0,1-.74.09A2.82,2.82,0,0,1,101.23,200Z"/><path class="cls-6" d="M105.79,201.76h-.71a6.42,6.42,0,0,0,1.52-4.27,6.6,6.6,0,0,0-1.53-4.32h.72a6.44,6.44,0,0,1,1.53,4.33A6.19,6.19,0,0,1,105.79,201.76Z"/><path class="cls-6" d="M115.68,200.17h-.8v-2.85c0-1.06-.39-1.59-1.16-1.59a1.29,1.29,0,0,0-1,.45,1.68,1.68,0,0,0-.39,1.14v2.85h-.8v-5h.8V196h0a1.81,1.81,0,0,1,1.64-.94,1.52,1.52,0,0,1,1.26.53,2.34,2.34,0,0,1,.43,1.53Z"/><path class="cls-6" d="M117.88,193.17v2.18h-.7v-2.18Z"/><path class="cls-6" d="M123.07,200.17h-.8v-.78h0a1.68,1.68,0,0,1-1.54.9,1.61,1.61,0,0,1-1.17-.4,1.36,1.36,0,0,1-.42-1c0-.93.55-1.47,1.65-1.63l1.5-.21c0-.85-.35-1.27-1-1.27a2.45,2.45,0,0,0-1.63.61v-.82a3.12,3.12,0,0,1,1.7-.46c1.17,0,1.76.62,1.76,1.86Zm-.8-2.53-1.21.17a1.84,1.84,0,0,0-.84.28.78.78,0,0,0-.28.7.76.76,0,0,0,.26.59,1,1,0,0,0,.7.24,1.29,1.29,0,0,0,1-.42,1.49,1.49,0,0,0,.39-1.06Z"/><path class="cls-6" d="M128.14,199.45h0v3h-.8v-7.3h.8v.88h0a1.89,1.89,0,0,1,1.73-1,1.84,1.84,0,0,1,1.51.67,2.76,2.76,0,0,1,.54,1.8,3.17,3.17,0,0,1-.61,2,2,2,0,0,1-1.67.75A1.67,1.67,0,0,1,128.14,199.45Zm0-2v.7a1.45,1.45,0,0,0,.4,1.05,1.42,1.42,0,0,0,2.16-.12,2.53,2.53,0,0,0,.42-1.55,2,2,0,0,0-.39-1.31,1.28,1.28,0,0,0-1-.47,1.42,1.42,0,0,0-1.13.49A1.76,1.76,0,0,0,128.12,197.43Z"/><path class="cls-6" d="M136.78,200.17H136v-.78h0a1.69,1.69,0,0,1-1.54.9,1.61,1.61,0,0,1-1.17-.4,1.36,1.36,0,0,1-.42-1c0-.93.55-1.47,1.65-1.63L136,197c0-.85-.34-1.27-1-1.27a2.47,2.47,0,0,0-1.63.61v-.82a3.12,3.12,0,0,1,1.7-.46q1.77,0,1.77,1.86Zm-.81-2.53-1.2.17a1.84,1.84,0,0,0-.84.28.78.78,0,0,0-.28.7.73.73,0,0,0,.26.59,1,1,0,0,0,.69.24,1.29,1.29,0,0,0,1-.42,1.53,1.53,0,0,0,.38-1.06Z"/><path class="cls-6" d="M138,200v-.86a2.41,2.41,0,0,0,1.44.49c.71,0,1.06-.24,1.06-.71a.64.64,0,0,0-.09-.34.82.82,0,0,0-.25-.24,2,2,0,0,0-.36-.2l-.45-.17c-.22-.09-.41-.18-.58-.27a1.74,1.74,0,0,1-.42-.3,1.08,1.08,0,0,1-.25-.39,1.34,1.34,0,0,1,.07-1.12,1.57,1.57,0,0,1,.43-.46,2.1,2.1,0,0,1,.61-.27,3.07,3.07,0,0,1,1.88.13v.81a2.27,2.27,0,0,0-1.27-.36,1.7,1.7,0,0,0-.41.05,1,1,0,0,0-.31.14.87.87,0,0,0-.2.23.64.64,0,0,0-.07.28.81.81,0,0,0,.07.33.66.66,0,0,0,.21.23,1.69,1.69,0,0,0,.33.19l.45.18a4.72,4.72,0,0,1,.59.26,2,2,0,0,1,.45.3,1.32,1.32,0,0,1,.29.39,1.38,1.38,0,0,1,.1.52,1.23,1.23,0,0,1-.17.65,1.42,1.42,0,0,1-.43.45,2.22,2.22,0,0,1-.63.27,3.08,3.08,0,0,1-.75.09A2.82,2.82,0,0,1,138,200Z"/><path class="cls-6" d="M149.29,197.87h-3.53a1.87,1.87,0,0,0,.44,1.29,1.57,1.57,0,0,0,1.19.46,2.46,2.46,0,0,0,1.55-.56v.75a2.89,2.89,0,0,1-1.74.48,2.13,2.13,0,0,1-1.67-.68,2.82,2.82,0,0,1-.61-1.92,2.74,2.74,0,0,1,.67-1.9,2.12,2.12,0,0,1,1.64-.73,1.9,1.9,0,0,1,1.52.63,2.63,2.63,0,0,1,.54,1.76Zm-.82-.68a1.68,1.68,0,0,0-.34-1.08,1.15,1.15,0,0,0-.91-.38,1.31,1.31,0,0,0-1,.4,1.94,1.94,0,0,0-.49,1.06Zm-.13-4.57-1.28,1.61h-.62l1.09-1.61Z"/><path class="cls-6" d="M152.82,200.12a1.49,1.49,0,0,1-.75.16c-.88,0-1.31-.49-1.31-1.47v-2.95h-.86v-.69h.86V194l.8-.26v1.48h1.26v.69h-1.26v2.81a1.12,1.12,0,0,0,.17.72.68.68,0,0,0,.56.22.86.86,0,0,0,.53-.17Z"/><path class="cls-6" d="M157.9,197.87h-3.53a1.93,1.93,0,0,0,.45,1.29,1.57,1.57,0,0,0,1.18.46,2.47,2.47,0,0,0,1.56-.56v.75a2.9,2.9,0,0,1-1.75.48,2.12,2.12,0,0,1-1.66-.68,2.82,2.82,0,0,1-.61-1.92,2.69,2.69,0,0,1,.67-1.9,2.1,2.1,0,0,1,1.64-.73,1.9,1.9,0,0,1,1.52.63,2.68,2.68,0,0,1,.53,1.76Zm-.82-.68a1.62,1.62,0,0,0-.33-1.08,1.17,1.17,0,0,0-.92-.38,1.29,1.29,0,0,0-1,.4,1.87,1.87,0,0,0-.49,1.06Zm-.12-4.57-1.28,1.61h-.62l1.09-1.61Z"/><path class="cls-6" d="M165.87,197.87h-3.53a1.88,1.88,0,0,0,.45,1.29,1.57,1.57,0,0,0,1.18.46,2.49,2.49,0,0,0,1.56-.56v.75a2.9,2.9,0,0,1-1.75.48,2.12,2.12,0,0,1-1.66-.68,2.77,2.77,0,0,1-.61-1.92,2.73,2.73,0,0,1,.66-1.9,2.12,2.12,0,0,1,1.65-.73,1.9,1.9,0,0,1,1.52.63,2.68,2.68,0,0,1,.53,1.76Zm-.82-.68a1.62,1.62,0,0,0-.33-1.08,1.17,1.17,0,0,0-.92-.38,1.28,1.28,0,0,0-1,.4,1.87,1.87,0,0,0-.49,1.06Z"/><path class="cls-6" d="M169.55,193.47a1.12,1.12,0,0,0-.53-.13c-.56,0-.84.35-.84,1.06v.77h1.17v.69h-1.17v4.31h-.79v-4.31h-.86v-.69h.86v-.81a1.69,1.69,0,0,1,.45-1.24,1.7,1.7,0,0,1,1.71-.37Z"/><path class="cls-6" d="M172.68,193.47a1.12,1.12,0,0,0-.53-.13c-.56,0-.84.35-.84,1.06v.77h1.17v.69h-1.17v4.31h-.79v-4.31h-.86v-.69h.86v-.81a1.69,1.69,0,0,1,.45-1.24,1.7,1.7,0,0,1,1.71-.37Z"/><path class="cls-6" d="M177.36,197.87h-3.53a1.83,1.83,0,0,0,.45,1.29,1.57,1.57,0,0,0,1.18.46,2.44,2.44,0,0,0,1.55-.56v.75a2.87,2.87,0,0,1-1.74.48,2.12,2.12,0,0,1-1.66-.68,2.77,2.77,0,0,1-.61-1.92,2.73,2.73,0,0,1,.66-1.9,2.12,2.12,0,0,1,1.65-.73,1.86,1.86,0,0,1,1.51.63,2.63,2.63,0,0,1,.54,1.76Zm-.82-.68a1.62,1.62,0,0,0-.33-1.08,1.17,1.17,0,0,0-.92-.38,1.28,1.28,0,0,0-1,.4,1.87,1.87,0,0,0-.49,1.06Z"/><path class="cls-6" d="M182,199.94a2.61,2.61,0,0,1-1.37.35,2.24,2.24,0,0,1-1.72-.7,2.5,2.5,0,0,1-.66-1.8,2.76,2.76,0,0,1,.71-2,2.47,2.47,0,0,1,1.89-.75,2.64,2.64,0,0,1,1.16.24v.82a2,2,0,0,0-1.19-.39,1.61,1.61,0,0,0-1.26.55,2.11,2.11,0,0,0-.49,1.44,2,2,0,0,0,.46,1.39,1.59,1.59,0,0,0,1.24.51,2,2,0,0,0,1.23-.44Z"/><path class="cls-6" d="M185.51,200.12a1.49,1.49,0,0,1-.75.16c-.87,0-1.31-.49-1.31-1.47v-2.95h-.86v-.69h.86V194l.8-.26v1.48h1.26v.69h-1.26v2.81a1.19,1.19,0,0,0,.17.72.7.7,0,0,0,.57.22.85.85,0,0,0,.52-.17Z"/><path class="cls-6" d="M190.62,200.17h-.8v-.79h0a1.63,1.63,0,0,1-1.54.91c-1.19,0-1.79-.71-1.79-2.13v-3h.8V198c0,1.06.4,1.59,1.21,1.59a1.21,1.21,0,0,0,1-.44,1.6,1.6,0,0,0,.38-1.13v-2.88h.8Z"/><path class="cls-6" d="M196.26,197.87h-3.53a1.83,1.83,0,0,0,.45,1.29,1.55,1.55,0,0,0,1.18.46,2.46,2.46,0,0,0,1.55-.56v.75a2.89,2.89,0,0,1-1.74.48,2.14,2.14,0,0,1-1.67-.68,2.81,2.81,0,0,1-.6-1.92,2.73,2.73,0,0,1,.66-1.9,2.12,2.12,0,0,1,1.64-.73,1.88,1.88,0,0,1,1.52.63,2.63,2.63,0,0,1,.54,1.76Zm-.82-.68a1.68,1.68,0,0,0-.34-1.08,1.15,1.15,0,0,0-.91-.38,1.28,1.28,0,0,0-1,.4,1.81,1.81,0,0,0-.49,1.06Zm-.13-4.57L194,194.23h-.62l1.09-1.61Z"/><path class="cls-6" d="M70.14,215.17v-7h2a2.19,2.19,0,0,1,1.44.44,1.44,1.44,0,0,1,.53,1.16,1.67,1.67,0,0,1-1.21,1.66v0A1.78,1.78,0,0,1,74,212a1.65,1.65,0,0,1,.42,1.17,1.85,1.85,0,0,1-.64,1.46,2.4,2.4,0,0,1-1.63.55Zm.82-6.26v2.26h.84a1.63,1.63,0,0,0,1.06-.32,1.13,1.13,0,0,0,.39-.92q0-1-1.35-1Zm0,3v2.52h1.11a1.63,1.63,0,0,0,1.12-.34,1.16,1.16,0,0,0,.4-.94c0-.83-.56-1.24-1.69-1.24Z"/><path class="cls-6" d="M75.78,216.76h-.71a6.42,6.42,0,0,0,1.52-4.27,6.6,6.6,0,0,0-1.53-4.32h.72a6.44,6.44,0,0,1,1.53,4.33A6.19,6.19,0,0,1,75.78,216.76Z"/><path class="cls-6" d="M85.26,215.17H81.63v-7h.82v6.26h2.81Z"/><path class="cls-6" d="M89.81,215.17H89v-.78h0a1.68,1.68,0,0,1-1.54.9,1.61,1.61,0,0,1-1.17-.4,1.36,1.36,0,0,1-.42-1c0-.93.55-1.47,1.65-1.63L89,212c0-.85-.35-1.27-1-1.27a2.43,2.43,0,0,0-1.63.61v-.82a3.09,3.09,0,0,1,1.7-.46c1.17,0,1.76.62,1.76,1.86Zm-.8-2.53-1.21.17a1.84,1.84,0,0,0-.84.28.78.78,0,0,0-.28.7.73.73,0,0,0,.26.59,1,1,0,0,0,.69.24,1.29,1.29,0,0,0,1-.42,1.49,1.49,0,0,0,.39-1.06Z"/><path class="cls-6" d="M101.16,215.17h-.81V212.3a2.19,2.19,0,0,0-.25-1.2,1,1,0,0,0-.86-.37,1.08,1.08,0,0,0-.88.47,1.84,1.84,0,0,0-.35,1.12v2.85h-.8v-3q0-1.47-1.14-1.47a1.07,1.07,0,0,0-.87.44,1.83,1.83,0,0,0-.34,1.15v2.85h-.8v-5h.8V211h0a1.69,1.69,0,0,1,1.55-.9,1.43,1.43,0,0,1,.89.28,1.37,1.37,0,0,1,.52.75,1.8,1.8,0,0,1,1.67-1c1.1,0,1.65.67,1.65,2Z"/><path class="cls-6" d="M103.08,208.9a.55.55,0,0,1-.37-.14.5.5,0,0,1-.15-.37.52.52,0,0,1,.15-.38.51.51,0,0,1,.37-.15.5.5,0,0,1,.37.15.49.49,0,0,1,.16.38.46.46,0,0,1-.16.36A.5.5,0,0,1,103.08,208.9Zm.39,6.27h-.8v-5h.8Z"/><path class="cls-6" d="M104.79,215v-.86a2.36,2.36,0,0,0,1.44.49c.7,0,1-.24,1-.71a.64.64,0,0,0-.09-.34.91.91,0,0,0-.24-.24,2,2,0,0,0-.36-.2l-.45-.17a5.37,5.37,0,0,1-.58-.27,1.74,1.74,0,0,1-.42-.3,1.27,1.27,0,0,1-.26-.39,1.5,1.5,0,0,1-.08-.5,1.17,1.17,0,0,1,.16-.62,1.57,1.57,0,0,1,.43-.46,2,2,0,0,1,.61-.27,3,3,0,0,1,1.87.13v.81a2.25,2.25,0,0,0-1.27-.36,1.62,1.62,0,0,0-.4.05,1,1,0,0,0-.31.14.72.72,0,0,0-.2.23.53.53,0,0,0-.07.28.67.67,0,0,0,.07.33.66.66,0,0,0,.21.23,1.69,1.69,0,0,0,.33.19l.44.18a5.68,5.68,0,0,1,.6.26,2.52,2.52,0,0,1,.45.3,1.28,1.28,0,0,1,.28.39,1.21,1.21,0,0,1,.1.52,1.23,1.23,0,0,1-.16.65,1.35,1.35,0,0,1-.44.45,2,2,0,0,1-.63.27,2.94,2.94,0,0,1-.74.09A2.82,2.82,0,0,1,104.79,215Z"/><path class="cls-6" d="M113.35,212.87h-3.53a1.88,1.88,0,0,0,.45,1.29,1.57,1.57,0,0,0,1.18.46,2.49,2.49,0,0,0,1.56-.56v.75a2.9,2.9,0,0,1-1.75.48,2.12,2.12,0,0,1-1.66-.68,2.77,2.77,0,0,1-.61-1.92,2.73,2.73,0,0,1,.66-1.9,2.12,2.12,0,0,1,1.65-.73,1.9,1.9,0,0,1,1.52.63,2.68,2.68,0,0,1,.53,1.76Zm-.82-.68a1.62,1.62,0,0,0-.33-1.08,1.17,1.17,0,0,0-.92-.38,1.28,1.28,0,0,0-1,.4,1.87,1.87,0,0,0-.49,1.06Z"/><path class="cls-6" d="M121.32,212.87h-3.53a1.83,1.83,0,0,0,.45,1.29,1.57,1.57,0,0,0,1.18.46,2.44,2.44,0,0,0,1.55-.56v.75a2.87,2.87,0,0,1-1.74.48,2.12,2.12,0,0,1-1.66-.68,2.77,2.77,0,0,1-.61-1.92,2.73,2.73,0,0,1,.66-1.9,2.12,2.12,0,0,1,1.65-.73,1.86,1.86,0,0,1,1.51.63,2.63,2.63,0,0,1,.54,1.76Zm-.82-.68a1.62,1.62,0,0,0-.33-1.08,1.17,1.17,0,0,0-.92-.38,1.28,1.28,0,0,0-1,.4,1.87,1.87,0,0,0-.49,1.06Z"/><path class="cls-6" d="M126.68,215.17h-.8v-2.85c0-1.06-.39-1.59-1.16-1.59a1.25,1.25,0,0,0-1,.45,1.64,1.64,0,0,0-.4,1.14v2.85h-.8v-5h.8V211h0a1.81,1.81,0,0,1,1.64-.94,1.52,1.52,0,0,1,1.26.53,2.34,2.34,0,0,1,.43,1.53Z"/><path class="cls-6" d="M131.75,214.45h0v3h-.8v-7.3h.8v.88h0a1.89,1.89,0,0,1,1.73-1,1.83,1.83,0,0,1,1.51.67,2.76,2.76,0,0,1,.54,1.8,3.11,3.11,0,0,1-.61,2,2,2,0,0,1-1.67.75A1.67,1.67,0,0,1,131.75,214.45Zm0-2v.7a1.49,1.49,0,0,0,.4,1.05,1.43,1.43,0,0,0,2.17-.12,2.6,2.6,0,0,0,.41-1.55,2,2,0,0,0-.39-1.31,1.27,1.27,0,0,0-1-.47,1.39,1.39,0,0,0-1.12.49A1.72,1.72,0,0,0,131.73,212.43Z"/><path class="cls-6" d="M140.39,215.17h-.8v-.78h0a1.68,1.68,0,0,1-1.54.9,1.61,1.61,0,0,1-1.17-.4,1.36,1.36,0,0,1-.42-1c0-.93.55-1.47,1.65-1.63l1.5-.21c0-.85-.35-1.27-1-1.27a2.45,2.45,0,0,0-1.63.61v-.82a3.09,3.09,0,0,1,1.7-.46c1.17,0,1.76.62,1.76,1.86Zm-.8-2.53-1.21.17a1.84,1.84,0,0,0-.84.28.78.78,0,0,0-.28.7.76.76,0,0,0,.26.59,1,1,0,0,0,.7.24,1.29,1.29,0,0,0,1-.42,1.49,1.49,0,0,0,.39-1.06Z"/><path class="cls-6" d="M146.17,214.77q0,2.76-2.64,2.76a3.46,3.46,0,0,1-1.62-.36v-.8a3.24,3.24,0,0,0,1.61.47c1.23,0,1.84-.65,1.84-2v-.55h0a2,2,0,0,1-3.22.29,2.7,2.7,0,0,1-.56-1.79,3.08,3.08,0,0,1,.61-2,2.06,2.06,0,0,1,1.68-.75,1.61,1.61,0,0,1,1.49.81h0v-.7h.81Zm-.81-1.86v-.74a1.44,1.44,0,0,0-.4-1,1.33,1.33,0,0,0-1-.42,1.38,1.38,0,0,0-1.16.54,2.4,2.4,0,0,0-.42,1.51,2.08,2.08,0,0,0,.4,1.34,1.31,1.31,0,0,0,1.07.5,1.38,1.38,0,0,0,1.09-.48A1.8,1.8,0,0,0,145.36,212.91Z"/><path class="cls-6" d="M151.8,212.87h-3.53a1.93,1.93,0,0,0,.45,1.29,1.57,1.57,0,0,0,1.19.46,2.46,2.46,0,0,0,1.55-.56v.75a2.89,2.89,0,0,1-1.74.48,2.13,2.13,0,0,1-1.67-.68,2.82,2.82,0,0,1-.61-1.92,2.74,2.74,0,0,1,.67-1.9,2.1,2.1,0,0,1,1.64-.73,1.9,1.9,0,0,1,1.52.63,2.62,2.62,0,0,1,.53,1.76Zm-.82-.68a1.62,1.62,0,0,0-.33-1.08,1.16,1.16,0,0,0-.92-.38,1.31,1.31,0,0,0-1,.4,1.94,1.94,0,0,0-.49,1.06Z"/><path class="cls-6" d="M158.23,208.47a1.2,1.2,0,0,0-.54-.13c-.56,0-.84.35-.84,1.06v.77H158v.69h-1.18v4.31h-.79v-4.31h-.86v-.69h.86v-.81a1.69,1.69,0,0,1,.45-1.24,1.51,1.51,0,0,1,1.13-.46,1.59,1.59,0,0,1,.59.09Z"/><path class="cls-6" d="M159.3,208.9a.53.53,0,0,1-.37-.14.5.5,0,0,1-.15-.37.52.52,0,0,1,.15-.38.5.5,0,0,1,.37-.15.51.51,0,0,1,.37.15.52.52,0,0,1,.15.38.49.49,0,0,1-.15.36A.51.51,0,0,1,159.3,208.9Zm.39,6.27h-.81v-5h.81Z"/><path class="cls-6" d="M165.46,215.17h-.8v-2.85q0-1.59-1.17-1.59a1.25,1.25,0,0,0-1,.45,1.68,1.68,0,0,0-.39,1.14v2.85h-.8v-5h.8V211h0a1.8,1.8,0,0,1,1.64-.94,1.51,1.51,0,0,1,1.25.53,2.35,2.35,0,0,1,.44,1.53Z"/><path class="cls-6" d="M170.55,215.17h-.81v-.78h0a1.66,1.66,0,0,1-1.53.9,1.61,1.61,0,0,1-1.17-.4,1.37,1.37,0,0,1-.43-1c0-.93.55-1.47,1.66-1.63l1.49-.21c0-.85-.34-1.27-1-1.27a2.47,2.47,0,0,0-1.63.61v-.82a3.12,3.12,0,0,1,1.7-.46q1.77,0,1.77,1.86Zm-.81-2.53-1.2.17a1.84,1.84,0,0,0-.84.28.78.78,0,0,0-.28.7.73.73,0,0,0,.26.59,1,1,0,0,0,.69.24,1.29,1.29,0,0,0,1-.42,1.53,1.53,0,0,0,.38-1.06Z"/><path class="cls-6" d="M172.85,215.17h-.8v-7.4h.8Z"/><path class="cls-6" d="M178.49,212.87H175a1.93,1.93,0,0,0,.45,1.29,1.57,1.57,0,0,0,1.18.46,2.47,2.47,0,0,0,1.56-.56v.75a2.9,2.9,0,0,1-1.75.48,2.12,2.12,0,0,1-1.66-.68,2.82,2.82,0,0,1-.61-1.92,2.69,2.69,0,0,1,.67-1.9,2.1,2.1,0,0,1,1.64-.73,1.9,1.9,0,0,1,1.52.63,2.62,2.62,0,0,1,.53,1.76Zm-.82-.68a1.62,1.62,0,0,0-.33-1.08,1.17,1.17,0,0,0-.92-.38,1.31,1.31,0,0,0-1,.4,1.94,1.94,0,0,0-.49,1.06Z"/><path class="cls-6" d="M186.59,215.17h-.8v-2.85c0-1.06-.38-1.59-1.16-1.59a1.25,1.25,0,0,0-1,.45,1.68,1.68,0,0,0-.39,1.14v2.85h-.81v-5h.81V211h0a1.81,1.81,0,0,1,1.65-.94,1.51,1.51,0,0,1,1.25.53,2.34,2.34,0,0,1,.43,1.53Z"/><path class="cls-6" d="M188.8,208.17v2.18h-.71v-2.18Z"/><path class="cls-6" d="M194,215.17h-.8v-.78h0a1.68,1.68,0,0,1-1.54.9,1.65,1.65,0,0,1-1.17-.4,1.36,1.36,0,0,1-.42-1c0-.93.55-1.47,1.65-1.63l1.5-.21c0-.85-.34-1.27-1-1.27a2.47,2.47,0,0,0-1.63.61v-.82a3.12,3.12,0,0,1,1.7-.46c1.17,0,1.76.62,1.76,1.86Zm-.8-2.53-1.2.17a1.75,1.75,0,0,0-.84.28.79.79,0,0,0-.29.7.76.76,0,0,0,.26.59,1,1,0,0,0,.7.24,1.27,1.27,0,0,0,1-.42,1.49,1.49,0,0,0,.39-1.06Z"/><path class="cls-6" d="M199.05,214.45h0v3h-.8v-7.3h.8v.88h0a1.89,1.89,0,0,1,1.73-1,1.83,1.83,0,0,1,1.51.67,2.76,2.76,0,0,1,.54,1.8,3.11,3.11,0,0,1-.61,2,2,2,0,0,1-1.67.75A1.67,1.67,0,0,1,199.05,214.45Zm0-2v.7a1.49,1.49,0,0,0,.4,1.05,1.43,1.43,0,0,0,2.17-.12,2.6,2.6,0,0,0,.41-1.55,2,2,0,0,0-.39-1.31,1.27,1.27,0,0,0-1-.47,1.39,1.39,0,0,0-1.12.49A1.72,1.72,0,0,0,199,212.43Z"/><path class="cls-6" d="M207.69,215.17h-.8v-.78h0a1.68,1.68,0,0,1-1.54.9,1.61,1.61,0,0,1-1.17-.4,1.36,1.36,0,0,1-.42-1c0-.93.55-1.47,1.65-1.63l1.5-.21c0-.85-.35-1.27-1-1.27a2.45,2.45,0,0,0-1.63.61v-.82a3.09,3.09,0,0,1,1.7-.46c1.17,0,1.76.62,1.76,1.86Zm-.8-2.53-1.21.17a1.84,1.84,0,0,0-.84.28.78.78,0,0,0-.28.7.76.76,0,0,0,.26.59,1,1,0,0,0,.7.24,1.29,1.29,0,0,0,1-.42,1.49,1.49,0,0,0,.39-1.06Z"/><path class="cls-6" d="M208.89,215v-.86a2.41,2.41,0,0,0,1.45.49c.7,0,1-.24,1-.71a.64.64,0,0,0-.09-.34.82.82,0,0,0-.25-.24,2,2,0,0,0-.36-.2l-.44-.17c-.22-.09-.42-.18-.59-.27a2.25,2.25,0,0,1-.42-.3A1.24,1.24,0,0,1,209,212a1.28,1.28,0,0,1-.09-.5,1.18,1.18,0,0,1,.17-.62,1.44,1.44,0,0,1,.43-.46,1.89,1.89,0,0,1,.61-.27,2.76,2.76,0,0,1,.71-.09,2.86,2.86,0,0,1,1.16.22v.81a2.27,2.27,0,0,0-1.27-.36,1.62,1.62,0,0,0-.4.05.89.89,0,0,0-.31.14.62.62,0,0,0-.2.23.54.54,0,0,0-.08.28.67.67,0,0,0,.08.33.55.55,0,0,0,.2.23,1.79,1.79,0,0,0,.34.19l.44.18a5.68,5.68,0,0,1,.6.26,2.12,2.12,0,0,1,.44.3,1.32,1.32,0,0,1,.29.39,1.21,1.21,0,0,1,.1.52,1.23,1.23,0,0,1-.16.65,1.45,1.45,0,0,1-.44.45,2,2,0,0,1-.63.27,3.08,3.08,0,0,1-.75.09A2.85,2.85,0,0,1,208.89,215Z"/><path class="cls-6" d="M74.05,224.87H70.52a1.83,1.83,0,0,0,.45,1.29,1.57,1.57,0,0,0,1.18.46,2.46,2.46,0,0,0,1.55-.56v.75a2.89,2.89,0,0,1-1.74.48,2.1,2.1,0,0,1-1.66-.68,2.77,2.77,0,0,1-.61-1.92,2.73,2.73,0,0,1,.66-1.9,2.12,2.12,0,0,1,1.65-.73,1.86,1.86,0,0,1,1.51.63,2.63,2.63,0,0,1,.54,1.76Zm-.82-.68a1.62,1.62,0,0,0-.33-1.08,1.17,1.17,0,0,0-.92-.38,1.28,1.28,0,0,0-1,.4,1.87,1.87,0,0,0-.49,1.06Zm-.13-4.57-1.28,1.61H71.2l1.09-1.61Z"/><path class="cls-6" d="M77.58,227.12a1.49,1.49,0,0,1-.75.16c-.87,0-1.31-.49-1.31-1.47v-2.95h-.86v-.69h.86V221l.8-.26v1.48h1.26v.69H76.32v2.81a1.19,1.19,0,0,0,.17.72.72.72,0,0,0,.57.22.85.85,0,0,0,.52-.17Z"/><path class="cls-6" d="M82.67,224.87H79.14a1.83,1.83,0,0,0,.45,1.29,1.55,1.55,0,0,0,1.18.46,2.46,2.46,0,0,0,1.55-.56v.75a2.89,2.89,0,0,1-1.74.48,2.14,2.14,0,0,1-1.67-.68,2.81,2.81,0,0,1-.6-1.92,2.73,2.73,0,0,1,.66-1.9,2.12,2.12,0,0,1,1.64-.73,1.88,1.88,0,0,1,1.52.63,2.63,2.63,0,0,1,.54,1.76Zm-.82-.68a1.62,1.62,0,0,0-.34-1.08,1.15,1.15,0,0,0-.91-.38,1.28,1.28,0,0,0-1,.4,1.81,1.81,0,0,0-.49,1.06Zm-.13-4.57-1.28,1.61h-.62l1.09-1.61Z"/><path class="cls-6" d="M90.64,224.87H87.11a1.83,1.83,0,0,0,.45,1.29,1.55,1.55,0,0,0,1.18.46,2.46,2.46,0,0,0,1.55-.56v.75a2.89,2.89,0,0,1-1.74.48,2.14,2.14,0,0,1-1.67-.68,2.81,2.81,0,0,1-.6-1.92,2.73,2.73,0,0,1,.66-1.9,2.12,2.12,0,0,1,1.64-.73,1.88,1.88,0,0,1,1.52.63,2.63,2.63,0,0,1,.54,1.76Zm-.82-.68a1.68,1.68,0,0,0-.34-1.08,1.15,1.15,0,0,0-.91-.38,1.28,1.28,0,0,0-1,.4,1.81,1.81,0,0,0-.49,1.06Z"/><path class="cls-6" d="M94.32,220.47a1.15,1.15,0,0,0-.53-.13c-.56,0-.84.35-.84,1.06v.77h1.17v.69H93v4.31h-.8v-4.31H91.3v-.69h.85v-.81a1.65,1.65,0,0,1,.46-1.24,1.51,1.51,0,0,1,1.13-.46,1.53,1.53,0,0,1,.58.09Z"/><path class="cls-6" d="M97.45,220.47a1.15,1.15,0,0,0-.53-.13c-.56,0-.84.35-.84,1.06v.77h1.17v.69H96.08v4.31h-.8v-4.31h-.85v-.69h.85v-.81a1.65,1.65,0,0,1,.46-1.24,1.51,1.51,0,0,1,1.13-.46,1.53,1.53,0,0,1,.58.09Z"/><path class="cls-6" d="M102.13,224.87H98.6a1.83,1.83,0,0,0,.45,1.29,1.55,1.55,0,0,0,1.18.46,2.46,2.46,0,0,0,1.55-.56v.75a2.89,2.89,0,0,1-1.74.48,2.14,2.14,0,0,1-1.67-.68,2.81,2.81,0,0,1-.6-1.92,2.73,2.73,0,0,1,.66-1.9,2.12,2.12,0,0,1,1.64-.73,1.88,1.88,0,0,1,1.52.63,2.63,2.63,0,0,1,.54,1.76Zm-.82-.68a1.68,1.68,0,0,0-.34-1.08,1.15,1.15,0,0,0-.91-.38,1.31,1.31,0,0,0-1,.4,1.86,1.86,0,0,0-.48,1.06Z"/><path class="cls-6" d="M106.75,226.94a2.63,2.63,0,0,1-1.37.35,2.26,2.26,0,0,1-1.73-.7,2.53,2.53,0,0,1-.65-1.8,2.75,2.75,0,0,1,.7-2,2.5,2.5,0,0,1,1.89-.75,2.72,2.72,0,0,1,1.17.24v.82a2.07,2.07,0,0,0-1.2-.39,1.57,1.57,0,0,0-1.25.55,2.06,2.06,0,0,0-.49,1.44,2,2,0,0,0,.46,1.39,1.59,1.59,0,0,0,1.24.51,2,2,0,0,0,1.23-.44Z"/><path class="cls-6" d="M110.28,227.12a1.49,1.49,0,0,1-.75.16c-.88,0-1.31-.49-1.31-1.47v-2.95h-.86v-.69h.86V221l.8-.26v1.48h1.26v.69H109v2.81a1.12,1.12,0,0,0,.17.72.68.68,0,0,0,.56.22.86.86,0,0,0,.53-.17Z"/><path class="cls-6" d="M115.39,227.17h-.8v-.79h0a1.64,1.64,0,0,1-1.54.91c-1.2,0-1.79-.71-1.79-2.13v-3H112V225c0,1.06.41,1.59,1.22,1.59a1.21,1.21,0,0,0,1-.44,1.64,1.64,0,0,0,.38-1.13v-2.88h.8Z"/><path class="cls-6" d="M121,224.87h-3.53a1.93,1.93,0,0,0,.45,1.29,1.57,1.57,0,0,0,1.18.46,2.47,2.47,0,0,0,1.56-.56v.75a2.9,2.9,0,0,1-1.75.48,2.12,2.12,0,0,1-1.66-.68,2.82,2.82,0,0,1-.61-1.92,2.69,2.69,0,0,1,.67-1.9,2.1,2.1,0,0,1,1.64-.73,1.9,1.9,0,0,1,1.52.63,2.68,2.68,0,0,1,.53,1.76Zm-.82-.68a1.62,1.62,0,0,0-.33-1.08,1.17,1.17,0,0,0-.92-.38,1.31,1.31,0,0,0-1,.4,1.87,1.87,0,0,0-.49,1.06Zm-.12-4.57-1.28,1.61h-.62l1.09-1.61Z"/><path class="cls-6" d="M126.25,224.87h-3.53a1.93,1.93,0,0,0,.45,1.29,1.57,1.57,0,0,0,1.18.46,2.49,2.49,0,0,0,1.56-.56v.75a2.9,2.9,0,0,1-1.75.48,2.12,2.12,0,0,1-1.66-.68,2.77,2.77,0,0,1-.61-1.92,2.73,2.73,0,0,1,.66-1.9,2.14,2.14,0,0,1,1.65-.73,1.9,1.9,0,0,1,1.52.63,2.68,2.68,0,0,1,.53,1.76Zm-.82-.68a1.62,1.62,0,0,0-.33-1.08,1.17,1.17,0,0,0-.92-.38,1.28,1.28,0,0,0-1,.4,1.87,1.87,0,0,0-.49,1.06Z"/><path class="cls-6" d="M74.91,241.88a4.19,4.19,0,0,1-1.94.41,3.13,3.13,0,0,1-2.39-1,3.54,3.54,0,0,1-.9-2.53,3.72,3.72,0,0,1,1-2.71,3.45,3.45,0,0,1,2.57-1,4.17,4.17,0,0,1,1.65.29v.88a3.38,3.38,0,0,0-1.66-.42,2.53,2.53,0,0,0-2,.8,3,3,0,0,0-.75,2.15,2.86,2.86,0,0,0,.7,2,2.38,2.38,0,0,0,1.84.76,3.42,3.42,0,0,0,1.83-.47Z"/><path class="cls-6" d="M76.24,243.76h-.71a6.42,6.42,0,0,0,1.52-4.27,6.6,6.6,0,0,0-1.53-4.32h.72a6.44,6.44,0,0,1,1.53,4.33A6.19,6.19,0,0,1,76.24,243.76Z"/><path class="cls-6" d="M85.72,242.17H82.09v-7h.82v6.26h2.81Z"/><path class="cls-6" d="M90.71,239.87H87.18a1.83,1.83,0,0,0,.45,1.29,1.55,1.55,0,0,0,1.18.46,2.46,2.46,0,0,0,1.55-.56v.75a2.89,2.89,0,0,1-1.74.48,2.14,2.14,0,0,1-1.67-.68,2.81,2.81,0,0,1-.6-1.92,2.73,2.73,0,0,1,.66-1.9,2.12,2.12,0,0,1,1.64-.73,1.9,1.9,0,0,1,1.52.63,2.63,2.63,0,0,1,.54,1.76Zm-.82-.68a1.68,1.68,0,0,0-.34-1.08,1.15,1.15,0,0,0-.91-.38,1.31,1.31,0,0,0-1,.4,1.86,1.86,0,0,0-.48,1.06Z"/><path class="cls-6" d="M91.61,242v-.86a2.41,2.41,0,0,0,1.44.49c.71,0,1.06-.24,1.06-.71a.64.64,0,0,0-.09-.34.91.91,0,0,0-.24-.24,2.56,2.56,0,0,0-.37-.2L93,240c-.22-.09-.42-.18-.59-.27a2.25,2.25,0,0,1-.42-.3,1.24,1.24,0,0,1-.25-.39,1.28,1.28,0,0,1-.09-.5,1.18,1.18,0,0,1,.17-.62,1.44,1.44,0,0,1,.43-.46,1.89,1.89,0,0,1,.61-.27,2.76,2.76,0,0,1,.71-.09,2.86,2.86,0,0,1,1.16.22v.81a2.27,2.27,0,0,0-1.27-.36,1.62,1.62,0,0,0-.4.05.81.81,0,0,0-.31.14.62.62,0,0,0-.2.23.54.54,0,0,0-.08.28.67.67,0,0,0,.08.33.55.55,0,0,0,.2.23,1.69,1.69,0,0,0,.33.19l.45.18a4.72,4.72,0,0,1,.59.26,2,2,0,0,1,.45.3,1.32,1.32,0,0,1,.29.39,1.21,1.21,0,0,1,.1.52,1.23,1.23,0,0,1-.16.65,1.45,1.45,0,0,1-.44.45,2,2,0,0,1-.63.27,3.08,3.08,0,0,1-.75.09A2.85,2.85,0,0,1,91.61,242Z"/><path class="cls-6" d="M103.17,242.17h-.8v-.85h0a1.85,1.85,0,0,1-1.72,1,1.87,1.87,0,0,1-1.51-.67,2.8,2.8,0,0,1-.56-1.83,3,3,0,0,1,.62-2,2.06,2.06,0,0,1,1.67-.74,1.62,1.62,0,0,1,1.5.81h0v-3.1h.8Zm-.8-2.26v-.74a1.45,1.45,0,0,0-.4-1,1.36,1.36,0,0,0-1-.42,1.37,1.37,0,0,0-1.15.54,2.33,2.33,0,0,0-.42,1.48,2.13,2.13,0,0,0,.4,1.37,1.33,1.33,0,0,0,1.08.5,1.38,1.38,0,0,0,1.09-.49A1.79,1.79,0,0,0,102.37,239.91Z"/><path class="cls-6" d="M108.81,239.87h-3.53a1.83,1.83,0,0,0,.45,1.29,1.55,1.55,0,0,0,1.18.46,2.46,2.46,0,0,0,1.55-.56v.75a2.89,2.89,0,0,1-1.74.48,2.14,2.14,0,0,1-1.67-.68,2.81,2.81,0,0,1-.6-1.92,2.73,2.73,0,0,1,.66-1.9,2.12,2.12,0,0,1,1.64-.73,1.88,1.88,0,0,1,1.52.63,2.63,2.63,0,0,1,.54,1.76Zm-.82-.68a1.68,1.68,0,0,0-.34-1.08,1.15,1.15,0,0,0-.91-.38,1.31,1.31,0,0,0-1,.4,1.86,1.86,0,0,0-.48,1.06Z"/><path class="cls-6" d="M114.06,242.17h-.8v-.79h0a1.64,1.64,0,0,1-1.54.91c-1.19,0-1.79-.71-1.79-2.13v-3h.8V240c0,1.06.4,1.59,1.21,1.59a1.21,1.21,0,0,0,1-.44,1.64,1.64,0,0,0,.38-1.13v-2.88h.8Z"/><path class="cls-6" d="M119.33,237.17l-1.68,2.53,1.65,2.47h-.93l-1-1.62a3.9,3.9,0,0,1-.22-.38h0l-.23.38-1,1.62H115l1.71-2.45-1.63-2.55H116l1,1.71.21.39h0l1.25-2.1Z"/><path class="cls-6" d="M123.83,241.45h0v3H123v-7.3h.8v.88h0a1.89,1.89,0,0,1,1.72-1,1.82,1.82,0,0,1,1.51.67,2.76,2.76,0,0,1,.55,1.8,3.17,3.17,0,0,1-.61,2,2,2,0,0,1-1.67.75A1.67,1.67,0,0,1,123.83,241.45Zm0-2v.7a1.45,1.45,0,0,0,.4,1.05,1.42,1.42,0,0,0,2.16-.12,2.53,2.53,0,0,0,.42-1.55,2,2,0,0,0-.39-1.31,1.3,1.3,0,0,0-1.05-.47,1.4,1.4,0,0,0-1.12.49A1.76,1.76,0,0,0,123.81,239.43Z"/><path class="cls-6" d="M131.49,238a1.07,1.07,0,0,0-1.46.33,2.21,2.21,0,0,0-.34,1.31v2.55h-.81v-5h.81v1h0a1.69,1.69,0,0,1,.52-.82,1.16,1.16,0,0,1,.78-.3,1.43,1.43,0,0,1,.48.07Z"/><path class="cls-6" d="M136.38,239.87h-3.53a1.83,1.83,0,0,0,.45,1.29,1.57,1.57,0,0,0,1.18.46,2.46,2.46,0,0,0,1.55-.56v.75a2.89,2.89,0,0,1-1.74.48,2.1,2.1,0,0,1-1.66-.68,2.77,2.77,0,0,1-.61-1.92,2.73,2.73,0,0,1,.66-1.9,2.12,2.12,0,0,1,1.64-.73,1.88,1.88,0,0,1,1.52.63,2.63,2.63,0,0,1,.54,1.76Zm-.82-.68a1.57,1.57,0,0,0-.34-1.08,1.13,1.13,0,0,0-.91-.38,1.28,1.28,0,0,0-1,.4,1.81,1.81,0,0,0-.49,1.06Zm-.13-4.57-1.28,1.61h-.62l1.09-1.61Z"/><path class="cls-6" d="M141,241.94a2.61,2.61,0,0,1-1.37.35,2.22,2.22,0,0,1-1.72-.7,2.5,2.5,0,0,1-.66-1.8,2.76,2.76,0,0,1,.71-2,2.47,2.47,0,0,1,1.89-.75,2.67,2.67,0,0,1,1.16.24v.82a2,2,0,0,0-1.19-.39,1.61,1.61,0,0,0-1.26.55,2.06,2.06,0,0,0-.49,1.44,2,2,0,0,0,.46,1.39,1.59,1.59,0,0,0,1.24.51,2,2,0,0,0,1.23-.44Z"/><path class="cls-6" d="M146.23,239.87H142.7a1.83,1.83,0,0,0,.45,1.29,1.55,1.55,0,0,0,1.18.46,2.46,2.46,0,0,0,1.55-.56v.75a2.89,2.89,0,0,1-1.74.48,2.14,2.14,0,0,1-1.67-.68,2.81,2.81,0,0,1-.6-1.92,2.73,2.73,0,0,1,.66-1.9,2.12,2.12,0,0,1,1.64-.73,1.88,1.88,0,0,1,1.52.63,2.63,2.63,0,0,1,.54,1.76Zm-.82-.68a1.62,1.62,0,0,0-.34-1.08,1.15,1.15,0,0,0-.91-.38,1.28,1.28,0,0,0-1,.4,1.81,1.81,0,0,0-.49,1.06Zm-.13-4.57L144,236.23h-.62l1.09-1.61Z"/><path class="cls-6" d="M151.71,242.17h-.8v-.85h0a1.85,1.85,0,0,1-1.72,1,1.87,1.87,0,0,1-1.51-.67,2.8,2.8,0,0,1-.56-1.83,3,3,0,0,1,.62-2,2.06,2.06,0,0,1,1.67-.74,1.62,1.62,0,0,1,1.5.81h0v-3.1h.8Zm-.8-2.26v-.74a1.45,1.45,0,0,0-.4-1,1.36,1.36,0,0,0-1-.42,1.37,1.37,0,0,0-1.15.54,2.33,2.33,0,0,0-.42,1.48,2.13,2.13,0,0,0,.4,1.37,1.33,1.33,0,0,0,1.08.5,1.38,1.38,0,0,0,1.09-.49A1.79,1.79,0,0,0,150.91,239.91Z"/><path class="cls-6" d="M157.35,239.87h-3.53a1.83,1.83,0,0,0,.45,1.29,1.55,1.55,0,0,0,1.18.46,2.46,2.46,0,0,0,1.55-.56v.75a2.89,2.89,0,0,1-1.74.48,2.14,2.14,0,0,1-1.67-.68,2.81,2.81,0,0,1-.6-1.92,2.73,2.73,0,0,1,.66-1.9,2.12,2.12,0,0,1,1.64-.73,1.88,1.88,0,0,1,1.52.63,2.63,2.63,0,0,1,.54,1.76Zm-.82-.68a1.68,1.68,0,0,0-.34-1.08,1.15,1.15,0,0,0-.91-.38,1.31,1.31,0,0,0-1,.4,1.86,1.86,0,0,0-.48,1.06Z"/><path class="cls-6" d="M162.71,242.17h-.8v-2.85c0-1.06-.39-1.59-1.16-1.59a1.26,1.26,0,0,0-1,.45,1.68,1.68,0,0,0-.39,1.14v2.85h-.8v-5h.8V238h0a1.8,1.8,0,0,1,1.64-.94,1.5,1.5,0,0,1,1.25.53,2.35,2.35,0,0,1,.44,1.53Z"/><path class="cls-6" d="M166.54,242.12a1.49,1.49,0,0,1-.75.16c-.88,0-1.31-.49-1.31-1.47v-2.95h-.86v-.69h.86V236l.8-.26v1.48h1.26v.69h-1.26v2.81a1.12,1.12,0,0,0,.17.72.68.68,0,0,0,.56.22.86.86,0,0,0,.53-.17Z"/><path class="cls-6" d="M167.3,242v-.86a2.41,2.41,0,0,0,1.44.49c.71,0,1.06-.24,1.06-.71a.64.64,0,0,0-.09-.34.82.82,0,0,0-.25-.24,2,2,0,0,0-.36-.2l-.44-.17a5.6,5.6,0,0,1-.59-.27,1.74,1.74,0,0,1-.42-.3,1.24,1.24,0,0,1-.25-.39,1.34,1.34,0,0,1,.07-1.12,1.57,1.57,0,0,1,.43-.46,2,2,0,0,1,.62-.27,2.76,2.76,0,0,1,.71-.09,2.86,2.86,0,0,1,1.16.22v.81a2.27,2.27,0,0,0-1.27-.36,1.7,1.7,0,0,0-.41.05,1,1,0,0,0-.31.14.87.87,0,0,0-.2.23.64.64,0,0,0-.07.28.81.81,0,0,0,.07.33.66.66,0,0,0,.21.23,1.69,1.69,0,0,0,.33.19l.45.18a4.72,4.72,0,0,1,.59.26,2,2,0,0,1,.45.3,1.32,1.32,0,0,1,.29.39,1.21,1.21,0,0,1,.1.52,1.33,1.33,0,0,1-.16.65,1.45,1.45,0,0,1-.44.45,2,2,0,0,1-.63.27,3.08,3.08,0,0,1-.75.09A2.85,2.85,0,0,1,167.3,242Z"/><path class="cls-6" d="M75.16,278.17h-1l-1.17-2a5.49,5.49,0,0,0-.31-.47,1.81,1.81,0,0,0-.31-.31,1.24,1.24,0,0,0-.34-.18,1.37,1.37,0,0,0-.42-.06H71v3h-.82v-7h2.09a2.86,2.86,0,0,1,.85.12,1.84,1.84,0,0,1,.67.34,1.66,1.66,0,0,1,.45.59,2,2,0,0,1,.16.82,2.09,2.09,0,0,1-.11.67,1.81,1.81,0,0,1-.31.54,1.94,1.94,0,0,1-.49.41,2.6,2.6,0,0,1-.64.26v0a1.49,1.49,0,0,1,.3.18,1.34,1.34,0,0,1,.25.23c.08.1.15.2.23.32s.16.25.26.4ZM71,271.91v2.54h1.11a1.7,1.7,0,0,0,.57-.09,1.13,1.13,0,0,0,.45-.27,1.08,1.08,0,0,0,.3-.42,1.48,1.48,0,0,0,.11-.57,1.1,1.1,0,0,0-.36-.87,1.6,1.6,0,0,0-1.06-.32Z"/><path class="cls-6" d="M79.74,275.87H76.21a1.83,1.83,0,0,0,.45,1.29,1.57,1.57,0,0,0,1.18.46,2.46,2.46,0,0,0,1.55-.56v.75a2.89,2.89,0,0,1-1.74.48,2.14,2.14,0,0,1-1.67-.68,2.81,2.81,0,0,1-.6-1.92,2.73,2.73,0,0,1,.66-1.9,2.12,2.12,0,0,1,1.64-.73,1.88,1.88,0,0,1,1.52.63,2.63,2.63,0,0,1,.54,1.76Zm-.82-.68a1.62,1.62,0,0,0-.34-1.08,1.15,1.15,0,0,0-.91-.38,1.28,1.28,0,0,0-1,.4,1.81,1.81,0,0,0-.49,1.06Zm-.13-4.57-1.28,1.61h-.62L78,270.62Z"/><path class="cls-6" d="M81.77,277.45h0v3H81v-7.3h.8v.88h0a1.89,1.89,0,0,1,1.73-1,1.83,1.83,0,0,1,1.51.67,2.76,2.76,0,0,1,.54,1.8,3.11,3.11,0,0,1-.61,2,2,2,0,0,1-1.67.75A1.67,1.67,0,0,1,81.77,277.45Zm0-2v.7a1.49,1.49,0,0,0,.4,1.05,1.43,1.43,0,0,0,2.17-.12,2.6,2.6,0,0,0,.41-1.55,2,2,0,0,0-.39-1.31,1.27,1.27,0,0,0-1-.47,1.39,1.39,0,0,0-1.12.49A1.72,1.72,0,0,0,81.75,275.43Z"/><path class="cls-6" d="M88.92,278.29a2.31,2.31,0,0,1-1.77-.7,2.61,2.61,0,0,1-.66-1.86,2.72,2.72,0,0,1,.69-2,2.47,2.47,0,0,1,1.86-.7,2.23,2.23,0,0,1,1.74.68,2.73,2.73,0,0,1,.63,1.91,2.7,2.7,0,0,1-.68,1.92A2.36,2.36,0,0,1,88.92,278.29Zm.06-4.56a1.51,1.51,0,0,0-1.22.52,2.17,2.17,0,0,0-.45,1.45,2,2,0,0,0,.45,1.4,1.56,1.56,0,0,0,1.22.52,1.45,1.45,0,0,0,1.19-.51,2.16,2.16,0,0,0,.42-1.43,2.21,2.21,0,0,0-.42-1.44A1.45,1.45,0,0,0,89,273.73Z"/><path class="cls-6" d="M96.84,278.17H96v-2.85c0-1.06-.39-1.59-1.16-1.59a1.27,1.27,0,0,0-1,.45,1.68,1.68,0,0,0-.39,1.14v2.85h-.8v-5h.8V274h0a1.8,1.8,0,0,1,1.64-.94,1.5,1.5,0,0,1,1.25.53,2.35,2.35,0,0,1,.44,1.53Z"/><path class="cls-6" d="M98.05,278v-.86a2.36,2.36,0,0,0,1.44.49c.7,0,1.05-.24,1.05-.71a.64.64,0,0,0-.09-.34.91.91,0,0,0-.24-.24,2.56,2.56,0,0,0-.37-.2L99.4,276c-.22-.09-.42-.18-.59-.27a2.25,2.25,0,0,1-.42-.3,1.24,1.24,0,0,1-.25-.39,1.28,1.28,0,0,1-.09-.5,1.18,1.18,0,0,1,.17-.62,1.44,1.44,0,0,1,.43-.46,1.89,1.89,0,0,1,.61-.27,2.76,2.76,0,0,1,.71-.09,2.86,2.86,0,0,1,1.16.22v.81a2.27,2.27,0,0,0-1.27-.36,1.62,1.62,0,0,0-.4,0,.89.89,0,0,0-.31.14.62.62,0,0,0-.2.23.53.53,0,0,0-.07.28.67.67,0,0,0,.07.33.55.55,0,0,0,.2.23,1.79,1.79,0,0,0,.34.19l.44.18a5.68,5.68,0,0,1,.6.26,2.12,2.12,0,0,1,.44.3,1.32,1.32,0,0,1,.29.39,1.21,1.21,0,0,1,.1.52,1.23,1.23,0,0,1-.16.65,1.45,1.45,0,0,1-.44.45,2,2,0,0,1-.63.27,3.08,3.08,0,0,1-.75.09A2.78,2.78,0,0,1,98.05,278Z"/><path class="cls-6" d="M106.61,275.87h-3.53a1.83,1.83,0,0,0,.45,1.29,1.57,1.57,0,0,0,1.18.46,2.46,2.46,0,0,0,1.55-.56v.75a2.89,2.89,0,0,1-1.74.48,2.14,2.14,0,0,1-1.67-.68,2.81,2.81,0,0,1-.6-1.92,2.73,2.73,0,0,1,.66-1.9,2.12,2.12,0,0,1,1.64-.73,1.88,1.88,0,0,1,1.52.63,2.63,2.63,0,0,1,.54,1.76Zm-.82-.68a1.62,1.62,0,0,0-.34-1.08,1.13,1.13,0,0,0-.91-.38,1.28,1.28,0,0,0-1,.4,1.81,1.81,0,0,0-.49,1.06Z"/><path class="cls-6" d="M110.84,274.15a.53.53,0,0,1-.39-.16.56.56,0,0,1-.15-.39.54.54,0,0,1,.15-.38.56.56,0,0,1,.78,0,.51.51,0,0,1,.16.38.55.55,0,0,1-.55.55Zm0,4.13a.53.53,0,0,1-.39-.16.56.56,0,0,1-.15-.39.52.52,0,0,1,.15-.38.53.53,0,0,1,.78,0,.49.49,0,0,1,.16.38.55.55,0,0,1-.55.55Z"/><path class="cls-6" d="M115.57,278.17v-7h2a2.23,2.23,0,0,1,1.44.44,1.47,1.47,0,0,1,.53,1.16,1.67,1.67,0,0,1-1.21,1.66v0a1.76,1.76,0,0,1,1.13.54,1.65,1.65,0,0,1,.43,1.17,1.86,1.86,0,0,1-.65,1.46,2.39,2.39,0,0,1-1.62.55Zm.82-6.26v2.26h.84a1.62,1.62,0,0,0,1.06-.32,1.13,1.13,0,0,0,.39-.92c0-.68-.45-1-1.34-1Zm0,3v2.52h1.12a1.67,1.67,0,0,0,1.12-.34,1.19,1.19,0,0,0,.4-.94c0-.83-.57-1.24-1.69-1.24Z"/><text class="cls-7" transform="translate(102.07 116.62)">Choix multiple</text><line class="cls-8" x1="54" x2="54" y2="36"/><line class="cls-8" y1="54" x2="36" y2="54"/><line class="cls-8" y1="307.96" x2="36" y2="307.96"/><line class="cls-8" x1="54" y1="361.96" x2="54" y2="325.96"/><line class="cls-8" x1="236.83" x2="236.83" y2="36"/><line class="cls-8" x1="290.83" y1="54" x2="254.83" y2="54"/><line class="cls-8" x1="290.83" y1="307.96" x2="254.83" y2="307.96"/><line class="cls-8" x1="236.83" y1="361.96" x2="236.83" y2="325.96"/></svg>