<svg id="Calque_1" data-name="Calque 1" xmlns="http://www.w3.org/2000/svg" viewBox="0 0 290.83 361.96"><defs><style>.cls-1,.cls-9{fill:#e20717;}.cls-2,.cls-4,.cls-5{fill:#fff;}.cls-3{opacity:0.2;}.cls-4{font-size:19.62px;font-family:TwCenMT-CondensedExtraBold, Tw Cen MT Condensed Extra Bold;font-weight:800;}.cls-5{stroke:#fff;stroke-miterlimit:10;stroke-width:0.25px;}.cls-6{font-size:10px;fill:#000100;font-family:SegoeUI, Segoe UI;}.cls-7{letter-spacing:-0.06em;}.cls-8{letter-spacing:-0.03em;}.cls-9{font-size:12px;font-family:SegoeUI-Bold, Segoe UI;font-weight:700;}.cls-10{fill:none;stroke:#000;stroke-width:0.3px;}</style></defs><title>Carte_rouge_47</title><path class="cls-1" d="M65.53,39.25H225.31a22.09,22.09,0,0,1,22.14,22.14V300.57a22.1,22.1,0,0,1-22.14,22.14H65.53a22.1,22.1,0,0,1-22.15-22.14V61.39A22.09,22.09,0,0,1,65.53,39.25Z"/><path class="cls-2" d="M77.17,94.4h136a17,17,0,0,1,17,17V278.61a17,17,0,0,1-17,17.05h-136a17,17,0,0,1-17-17.05V111.45A17,17,0,0,1,77.17,94.4Z"/><g class="cls-3"><path class="cls-1" d="M120.28,165.72a22.72,22.72,0,0,1,45.44,0v37.43H180.9V165.72a37.9,37.9,0,1,0-75.79,0"/><path class="cls-1" d="M105.11,165.72"/><path class="cls-1" d="M155.58,225a12.52,12.52,0,1,1-12.52-12.52A12.51,12.51,0,0,1,155.58,225"/><path class="cls-1" d="M113.41,224.87a29.51,29.51,0,1,1,29.51,29.51,29.55,29.55,0,0,1-29.51-29.51m-15.18,0a44.69,44.69,0,1,0,44.69-44.69,44.73,44.73,0,0,0-44.69,44.69"/><line class="cls-1" x1="105.11" y1="165.72" x2="120.28" y2="165.72"/></g><text class="cls-4" transform="translate(87.63 81.75)"><tspan xml:space="preserve">Escape the   ab</tspan></text><path class="cls-5" d="M177.9,64.13l-6.41.05a.76.76,0,0,0-.55.23.8.8,0,0,0-.22.55.77.77,0,0,0,.7.77l.1,13.28A3.29,3.29,0,1,0,178.1,79L178,65.68a.78.78,0,0,0,.68-.78.77.77,0,0,0-.78-.77Zm.26.77a.26.26,0,0,1-.07.19.27.27,0,0,1-.19.08h-.23l-3.92,0a.26.26,0,0,0,0,.52l3.73,0,.1,13.28A2.77,2.77,0,0,1,172,79l-.1-13.28h.78a.25.25,0,0,0,.25-.26.26.26,0,0,0-.26-.26H171.5a.21.21,0,0,1-.18-.07.25.25,0,0,1-.08-.18.24.24,0,0,1,.26-.26l6.4,0a.26.26,0,0,1,.26.25Z"/><path class="cls-5" d="M176.74,72a1,1,0,0,0-.64.22.5.5,0,0,1-.35.13.47.47,0,0,1-.35-.12,1,1,0,0,0-.65-.21,1,1,0,0,0-.64.22.5.5,0,0,1-.35.13.57.57,0,0,1-.35-.12,1,1,0,0,0-.65-.22.25.25,0,0,0-.18.08.24.24,0,0,0-.07.18l0,2.83a.26.26,0,0,0,.26.26.26.26,0,0,0,.26-.26l0-2.51.09.06a1,1,0,0,0,.65.22,1,1,0,0,0,.64-.23.55.55,0,0,1,.35-.13.52.52,0,0,1,.35.13,1,1,0,0,0,.65.21,1,1,0,0,0,.64-.22l.09-.06,0,6.38a1.74,1.74,0,0,1-.5,1.22,1.7,1.7,0,0,1-1.22.52A1.72,1.72,0,0,1,173.08,79l0-2.83a.26.26,0,0,0-.26-.26.25.25,0,0,0-.25.26l0,2.84a2.25,2.25,0,0,0,3.85,1.56,2.28,2.28,0,0,0,.65-1.6L177,72.29a.27.27,0,0,0-.25-.28Z"/><path class="cls-5" d="M175.46,67.78a.26.26,0,0,0,.26.26.26.26,0,0,1,.26.25.26.26,0,0,1-.07.19.27.27,0,0,1-.19.08.26.26,0,0,1-.26-.26.26.26,0,1,0-.52,0,.8.8,0,0,0,.79.78.82.82,0,0,0,.55-.24.8.8,0,0,0,.22-.55.77.77,0,0,0-.78-.77.26.26,0,0,0-.26.26Z"/><path class="cls-5" d="M174.3,70.94a.79.79,0,0,0,.23-.56.82.82,0,0,0-.24-.55.8.8,0,0,0-.55-.22.26.26,0,1,0,0,.52.32.32,0,0,1,.19.07.27.27,0,0,1,.08.19.27.27,0,0,1-.26.26.27.27,0,0,1-.19-.08.23.23,0,0,1-.07-.18.26.26,0,0,0-.26-.26.26.26,0,0,0-.26.26.78.78,0,0,0,1.33.55Z"/><text class="cls-6" transform="translate(71.1 136.22)"><tspan class="cls-7">V</tspan><tspan x="5.58" y="0">ous avez signé un contrat avec </tspan><tspan x="0" y="12">un éditeur qui vous empêche de </tspan><tspan x="0" y="24">diffuser votre livre sur Internet via </tspan><tspan x="0" y="36">l&apos;Archive ouverte UNIGE. </tspan><tspan x="0" y="60" xml:space="preserve">       </tspan><tspan class="cls-8" x="19.17" y="60">P</tspan><tspan x="24.43" y="60">assez votre tour !</tspan></text><path class="cls-1" d="M79.89,196.89v-2H72.71a.52.52,0,0,1-.5-.59v-3.36c0-.64.42-.67.51-.67H80v-2.19c0-.48.27-.53.38-.53a.92.92,0,0,1,.56.32l5.14,4.25a.78.78,0,0,1,.26.51.62.62,0,0,1-.21.5c-.51.5-5.12,4-5.3,4.11a.9.9,0,0,1-.55.29C80.16,197.53,79.89,197.45,79.89,196.89Zm.43.24v0Z"/><text class="cls-9" transform="translate(123.65 117.75)">Chance</text><line class="cls-10" x1="54" x2="54" y2="36"/><line class="cls-10" y1="54" x2="36" y2="54"/><line class="cls-10" y1="307.96" x2="36" y2="307.96"/><line class="cls-10" x1="54" y1="361.96" x2="54" y2="325.96"/><line class="cls-10" x1="236.83" x2="236.83" y2="36"/><line class="cls-10" x1="290.83" y1="54" x2="254.83" y2="54"/><line class="cls-10" x1="290.83" y1="307.96" x2="254.83" y2="307.96"/><line class="cls-10" x1="236.83" y1="361.96" x2="236.83" y2="325.96"/></svg>