<svg id="Calque_1" data-name="Calque 1" xmlns="http://www.w3.org/2000/svg" viewBox="0 0 290.83 361.96"><defs><style>.cls-1,.cls-8{fill:#009741;}.cls-2,.cls-3,.cls-4{fill:#fff;}.cls-3{font-size:19.62px;font-family:TwCenMT-CondensedExtraBold, Tw Cen MT Condensed Extra Bold;font-weight:800;}.cls-4{stroke:#fff;stroke-miterlimit:10;stroke-width:0.25px;}.cls-5{opacity:0.2;}.cls-6{font-size:10px;fill:#000100;font-family:SegoeUI, Segoe UI;}.cls-7{letter-spacing:-0.03em;}.cls-8{font-size:12px;font-family:SegoeUI-Bold, Segoe UI;font-weight:700;}.cls-9{fill:none;stroke:#000;stroke-width:0.3px;}</style></defs><title>Carte_verte_22</title><path class="cls-1" d="M65.53,39.25H225.31a22.09,22.09,0,0,1,22.14,22.14V300.57a22.1,22.1,0,0,1-22.14,22.14H65.53a22.1,22.1,0,0,1-22.15-22.14V61.39A22.09,22.09,0,0,1,65.53,39.25Z"/><path class="cls-2" d="M77.65,95.37h136a17,17,0,0,1,17,17V279.58a17,17,0,0,1-17,17.05h-136a17,17,0,0,1-17-17.05V112.42A17,17,0,0,1,77.65,95.37Z"/><text class="cls-3" transform="translate(88.22 80.95)"><tspan xml:space="preserve">Escape the   ab</tspan></text><path class="cls-4" d="M178.48,63.33l-6.4.05a.75.75,0,0,0-.55.23.76.76,0,0,0,0,1.1.69.69,0,0,0,.46.22l.1,13.29a3.29,3.29,0,0,0,3.32,3.26,3.28,3.28,0,0,0,3.26-3.31l-.1-13.29a.72.72,0,0,0,.46-.22.78.78,0,0,0,.23-.55.8.8,0,0,0-.79-.78Zm.27.78a.27.27,0,0,1-.26.26h-.23l-3.92,0a.26.26,0,0,0,0,.52l3.72,0,.1,13.28a2.74,2.74,0,0,1-.79,2,2.78,2.78,0,0,1-4.75-1.93l-.1-13.28h.78a.26.26,0,0,0,.26-.26.26.26,0,0,0-.26-.26l-1,0h-.22a.27.27,0,0,1-.19-.08.23.23,0,0,1-.08-.18.27.27,0,0,1,.26-.26l6.41,0a.26.26,0,0,1,.26.26Z"/><path class="cls-4" d="M177.33,71.21a1.07,1.07,0,0,0-.64.23.52.52,0,0,1-.35.13.5.5,0,0,1-.35-.13,1.08,1.08,0,0,0-.65-.21,1,1,0,0,0-.64.22.54.54,0,0,1-.35.13.5.5,0,0,1-.35-.12,1,1,0,0,0-.65-.21.23.23,0,0,0-.18.07.27.27,0,0,0-.08.19l0,2.83a.26.26,0,0,0,.26.26.26.26,0,0,0,.26-.26l0-2.51.09.06a1,1,0,0,0,.65.21,1.07,1.07,0,0,0,.65-.22.49.49,0,0,1,.34-.13.55.55,0,0,1,.35.12,1.05,1.05,0,0,0,1.3,0l.09-.06,0,6.38a1.73,1.73,0,0,1-3.46,0l0-2.84a.26.26,0,0,0-.52,0l0,2.83A2.26,2.26,0,0,0,177,79.77a2.2,2.2,0,0,0,.64-1.59l0-6.69a.25.25,0,0,0-.25-.27,0,0,0,0,0,0,0Z"/><path class="cls-4" d="M176,67a.26.26,0,0,0,.27.26.26.26,0,0,1,.26.26.27.27,0,0,1-.26.26.26.26,0,0,1-.26-.26.26.26,0,0,0-.52,0,.77.77,0,0,0,.78.77.75.75,0,0,0,.55-.23.78.78,0,0,0,.23-.55.8.8,0,0,0-.79-.78A.26.26,0,0,0,176,67Z"/><path class="cls-4" d="M174.89,70.14a.8.8,0,0,0,.22-.55.75.75,0,0,0-.23-.55.78.78,0,0,0-.55-.23.27.27,0,0,0-.26.27.26.26,0,0,0,.26.25.27.27,0,0,1,.26.26.26.26,0,0,1-.07.19.32.32,0,0,1-.19.07.24.24,0,0,1-.18-.07.27.27,0,0,1-.08-.18.26.26,0,0,0-.26-.26.26.26,0,0,0-.26.26.78.78,0,0,0,.79.77.76.76,0,0,0,.55-.23Z"/><g class="cls-5"><path class="cls-1" d="M118.91,167.18a22.72,22.72,0,0,1,45.44,0v37.43h15.17V167.18a37.9,37.9,0,1,0-75.79,0"/><path class="cls-1" d="M103.73,167.18"/><path class="cls-1" d="M154.21,226.46a12.52,12.52,0,1,1-12.52-12.52,12.52,12.52,0,0,1,12.52,12.52"/><path class="cls-1" d="M112,226.33a29.51,29.51,0,1,1,29.51,29.51A29.55,29.55,0,0,1,112,226.33m-15.17,0a44.69,44.69,0,1,0,44.68-44.69,44.73,44.73,0,0,0-44.68,44.69"/><line class="cls-1" x1="103.73" y1="167.18" x2="118.91" y2="167.18"/></g><text class="cls-6" transform="translate(69.09 137.05)">En 2017, combien a dépensé la <tspan x="0" y="12">Bibliothèque de l&apos;Université de </tspan><tspan x="0" y="24">Genève en abonnements et achats </tspan><tspan x="0" y="36">de documents ?</tspan><tspan x="0" y="51">A) 1 millions</tspan><tspan x="0" y="66">B) 7 millions</tspan><tspan x="0" y="81">C) 20 millions</tspan><tspan class="cls-7" x="0" y="117">R</tspan><tspan x="5.69" y="117">éponse : B</tspan></text><text class="cls-8" transform="translate(99.86 117.22)">Choix multiple</text><line class="cls-9" x1="54" x2="54" y2="36"/><line class="cls-9" y1="54" x2="36" y2="54"/><line class="cls-9" y1="307.96" x2="36" y2="307.96"/><line class="cls-9" x1="54" y1="361.96" x2="54" y2="325.96"/><line class="cls-9" x1="236.83" x2="236.83" y2="36"/><line class="cls-9" x1="290.83" y1="54" x2="254.83" y2="54"/><line class="cls-9" x1="290.83" y1="307.96" x2="254.83" y2="307.96"/><line class="cls-9" x1="236.83" y1="361.96" x2="236.83" y2="325.96"/></svg>