<svg id="Calque_1" data-name="Calque 1" xmlns="http://www.w3.org/2000/svg" viewBox="0 0 290.83 361.96"><defs><style>.cls-1,.cls-9{fill:#f9b233;}.cls-2,.cls-3,.cls-4{fill:#fff;}.cls-3{font-size:19.62px;font-family:TwCenMT-CondensedExtraBold, Tw Cen MT Condensed Extra Bold;font-weight:800;}.cls-4{stroke:#fff;stroke-miterlimit:10;stroke-width:0.25px;}.cls-5{opacity:0.4;}.cls-6{font-size:10px;fill:#000100;font-family:SegoeUI, Segoe UI;}.cls-7{letter-spacing:-0.03em;}.cls-8{letter-spacing:-0.04em;}.cls-9{font-size:12px;font-family:SegoeUI-Bold, Segoe UI;font-weight:700;}.cls-10{letter-spacing:-0.04em;}.cls-11{letter-spacing:-0.03em;}.cls-12{fill:none;stroke:#000;stroke-width:0.3px;}</style></defs><title>Carte_jaune_7</title><path class="cls-1" d="M65.53,39.25H225.31a22.09,22.09,0,0,1,22.14,22.14V300.57a22.1,22.1,0,0,1-22.14,22.14H65.53a22.1,22.1,0,0,1-22.15-22.14V61.39A22.09,22.09,0,0,1,65.53,39.25Z"/><path class="cls-2" d="M77.65,95.37h136a17,17,0,0,1,17,17V279.58a17,17,0,0,1-17,17.05h-136a17,17,0,0,1-17-17.05V112.42A17,17,0,0,1,77.65,95.37Z"/><text class="cls-3" transform="translate(86.45 81.21)"><tspan xml:space="preserve">Escape the   ab</tspan></text><path class="cls-4" d="M176.72,63.59l-6.41,0a.79.79,0,0,0-.77.79.77.77,0,0,0,.7.77l.1,13.28a3.28,3.28,0,0,0,3.31,3.26,3.21,3.21,0,0,0,2.32-1,3.27,3.27,0,0,0,.95-2.33l-.1-13.28a.84.84,0,0,0,.46-.23.73.73,0,0,0,.22-.55.78.78,0,0,0-.78-.78Zm.26.78a.21.21,0,0,1-.07.18.25.25,0,0,1-.18.08h-.23l-3.93,0a.26.26,0,1,0,0,.52l3.72,0,.1,13.28a2.79,2.79,0,0,1-.8,2,2.77,2.77,0,0,1-4.74-1.92l-.1-13.29h.78a.26.26,0,0,0,.26-.26.27.27,0,0,0-.27-.26l-1,0h-.23a.29.29,0,0,1-.18-.07.27.27,0,0,1-.08-.19.25.25,0,0,1,.08-.18.23.23,0,0,1,.18-.08l6.4,0a.26.26,0,0,1,.26.26Z"/><path class="cls-4" d="M175.57,71.48a1.07,1.07,0,0,0-.65.22.5.5,0,0,1-.35.13.59.59,0,0,1-.35-.12,1,1,0,0,0-.64-.22,1,1,0,0,0-.65.23.5.5,0,0,1-.35.12.48.48,0,0,1-.35-.12,1,1,0,0,0-.64-.21.24.24,0,0,0-.26.26l0,2.83a.26.26,0,0,0,.52,0l0-2.51.09.06a1,1,0,0,0,.65.21,1,1,0,0,0,.64-.22.5.5,0,0,1,.35-.13.55.55,0,0,1,.35.12,1,1,0,0,0,.65.22,1,1,0,0,0,.64-.23l.09-.06.05,6.38a1.72,1.72,0,0,1-.5,1.23,1.73,1.73,0,0,1-3-1.2l0-2.84a.26.26,0,0,0-.27-.25.26.26,0,0,0-.25.26l0,2.83a2.25,2.25,0,0,0,2.27,2.23,2.19,2.19,0,0,0,1.58-.67,2.26,2.26,0,0,0,.65-1.59l0-6.69a.25.25,0,0,0-.25-.27Z"/><path class="cls-4" d="M174.28,67.24a.26.26,0,0,0,.26.26.26.26,0,0,1,.26.26.24.24,0,0,1-.07.18.27.27,0,0,1-.18.08.26.26,0,0,1-.27-.26.25.25,0,0,0-.26-.25.26.26,0,0,0-.26.26.79.79,0,0,0,.79.77.76.76,0,0,0,.55-.23.82.82,0,0,0,.22-.55.78.78,0,0,0-.78-.78.26.26,0,0,0-.26.26Z"/><path class="cls-4" d="M173.12,70.4a.76.76,0,0,0,.23-.55.81.81,0,0,0-.23-.55.74.74,0,0,0-.56-.22.26.26,0,1,0,0,.51.27.27,0,0,1,.26.26.27.27,0,0,1-.08.19.27.27,0,0,1-.36,0,.25.25,0,0,1-.08-.18.26.26,0,0,0-.52,0,.77.77,0,0,0,.78.77.75.75,0,0,0,.55-.23Z"/><g class="cls-5"><path class="cls-1" d="M118.9,165.65a22.72,22.72,0,0,1,45.44,0v37.44h15.18V165.65a37.9,37.9,0,0,0-75.79,0"/><path class="cls-1" d="M103.73,165.65"/><path class="cls-1" d="M154.2,224.94a12.52,12.52,0,1,1-12.52-12.52,12.51,12.51,0,0,1,12.52,12.52"/><path class="cls-1" d="M112,224.81a29.51,29.51,0,1,1,29.51,29.51A29.55,29.55,0,0,1,112,224.81m-15.18,0a44.69,44.69,0,1,0,44.69-44.69,44.74,44.74,0,0,0-44.69,44.69"/><line class="cls-1" x1="103.73" y1="165.65" x2="118.9" y2="165.65"/></g><text class="cls-6" transform="translate(69.97 136.05)">Il est possible d&apos;obtenir un <tspan x="0" y="12">subside du Fonds national suisse </tspan><tspan x="0" y="24">(FNS) pour la publication d&apos;un </tspan><tspan x="0" y="36">livre en accès libre, même si </tspan><tspan x="0" y="48">celui-ci n&apos;est pas lié à un projet </tspan><tspan x="0" y="60">financé par le FNS.</tspan><tspan class="cls-7" x="0" y="96">R</tspan><tspan x="5.69" y="96">éponse : </tspan><tspan class="cls-8" x="45.43" y="96">V</tspan><tspan x="51.27" y="96">rai</tspan></text><text class="cls-9" transform="translate(114.82 116.03)"><tspan class="cls-10">V</tspan><tspan x="7.58" y="0">rai/</tspan><tspan class="cls-11" x="27.54" y="0">F</tspan><tspan x="33.43" y="0">aux</tspan></text><line class="cls-12" x1="54" x2="54" y2="36"/><line class="cls-12" y1="54" x2="36" y2="54"/><line class="cls-12" y1="307.96" x2="36" y2="307.96"/><line class="cls-12" x1="54" y1="361.96" x2="54" y2="325.96"/><line class="cls-12" x1="236.83" x2="236.83" y2="36"/><line class="cls-12" x1="290.83" y1="54" x2="254.83" y2="54"/><line class="cls-12" x1="290.83" y1="307.96" x2="254.83" y2="307.96"/><line class="cls-12" x1="236.83" y1="361.96" x2="236.83" y2="325.96"/></svg>