<svg id="Calque_1" data-name="Calque 1" xmlns="http://www.w3.org/2000/svg" viewBox="0 0 290.83 361.96"><defs><style>.cls-1,.cls-8{fill:#f9b233;}.cls-2,.cls-4,.cls-5{fill:#fff;}.cls-3{opacity:0.4;}.cls-4{font-size:19.62px;font-family:TwCenMT-CondensedExtraBold, Tw Cen MT Condensed Extra Bold;font-weight:800;}.cls-5{stroke:#fff;stroke-miterlimit:10;stroke-width:0.25px;}.cls-6{font-size:10px;fill:#000100;font-family:SegoeUI, Segoe UI;}.cls-7{letter-spacing:-0.06em;}.cls-8{font-size:12px;font-family:SegoeUI-Bold, Segoe UI;font-weight:700;}.cls-9{fill:none;stroke:#000;stroke-width:0.3px;}</style></defs><title>Carte_jaune_11</title><path class="cls-1" d="M65.53,39.25H225.31a22.09,22.09,0,0,1,22.14,22.14V300.57a22.1,22.1,0,0,1-22.14,22.14H65.53a22.1,22.1,0,0,1-22.15-22.14V61.39A22.09,22.09,0,0,1,65.53,39.25Z"/><path class="cls-2" d="M77.17,94.37h136a17,17,0,0,1,17,17V278.58a17,17,0,0,1-17,17.05h-136a17,17,0,0,1-17-17.05V111.42A17,17,0,0,1,77.17,94.37Z"/><g class="cls-3"><path class="cls-1" d="M119.75,166a22.72,22.72,0,0,1,45.44,0v37.44h15.17V166a37.9,37.9,0,0,0-75.79,0"/><path class="cls-1" d="M104.57,166"/><path class="cls-1" d="M155.05,225.27a12.52,12.52,0,1,1-12.52-12.53,12.53,12.53,0,0,1,12.52,12.53"/><path class="cls-1" d="M112.87,225.13a29.51,29.51,0,1,1,29.51,29.51,29.55,29.55,0,0,1-29.51-29.51m-15.17,0a44.69,44.69,0,1,0,44.68-44.68A44.73,44.73,0,0,0,97.7,225.13"/><line class="cls-1" x1="104.57" y1="165.98" x2="119.75" y2="165.98"/></g><text class="cls-4" transform="translate(87.84 81.56)"><tspan xml:space="preserve">Escape the   ab</tspan></text><path class="cls-5" d="M178.11,63.94,171.7,64a.79.79,0,0,0-.77.79.76.76,0,0,0,.23.55.82.82,0,0,0,.47.22l.1,13.28A3.28,3.28,0,0,0,175,82.09a3.23,3.23,0,0,0,2.32-1,3.27,3.27,0,0,0,.95-2.33l-.1-13.28a.78.78,0,0,0,.46-.23.8.8,0,0,0,.22-.55.78.78,0,0,0-.78-.78Zm.26.78a.26.26,0,0,1-.07.19.26.26,0,0,1-.18.07h-.24L174,65a.27.27,0,0,0-.26.27.25.25,0,0,0,.26.25l3.73,0,.1,13.27a2.79,2.79,0,0,1-.8,2,2.76,2.76,0,0,1-4.74-1.92l-.1-13.28h.78a.26.26,0,0,0,.25-.27.25.25,0,0,0-.26-.25h-1.21a.24.24,0,0,1-.18-.07.27.27,0,0,1-.08-.19.24.24,0,0,1,.07-.18.27.27,0,0,1,.19-.08l6.4-.05a.26.26,0,0,1,.26.26Z"/><path class="cls-5" d="M177,71.83a1,1,0,0,0-.65.22.5.5,0,0,1-.35.13.53.53,0,0,1-.35-.12,1,1,0,0,0-.65-.22,1,1,0,0,0-.64.23.55.55,0,0,1-.35.13.52.52,0,0,1-.35-.13,1,1,0,0,0-.65-.21.29.29,0,0,0-.18.07.26.26,0,0,0-.07.19l0,2.83a.26.26,0,0,0,.52,0l0-2.51.09.06a1,1,0,0,0,.65.22,1.07,1.07,0,0,0,.64-.23.5.5,0,0,1,.35-.13.52.52,0,0,1,.35.13,1.05,1.05,0,0,0,.65.21,1,1,0,0,0,.64-.22.24.24,0,0,1,.09-.06l.05,6.37a1.72,1.72,0,0,1-.5,1.23,1.73,1.73,0,0,1-3-1.2l0-2.83a.26.26,0,1,0-.51,0l0,2.83a2.25,2.25,0,0,0,4.5,0l-.05-6.69a.26.26,0,0,0-.25-.27Z"/><path class="cls-5" d="M175.67,67.6a.26.26,0,0,0,.26.25.26.26,0,1,1,0,.52.26.26,0,0,1-.26-.25.26.26,0,0,0-.26-.26.26.26,0,0,0-.26.26.78.78,0,0,0,.79.77.76.76,0,0,0,.55-.23.8.8,0,0,0,.22-.55.78.78,0,0,0-.78-.78.27.27,0,0,0-.26.27Z"/><path class="cls-5" d="M174.51,70.75a.76.76,0,0,0,.23-.55.82.82,0,0,0-.24-.55.74.74,0,0,0-.55-.22.26.26,0,0,0,0,.52.26.26,0,0,1,.19.07.25.25,0,0,1,.08.18.27.27,0,0,1-.08.19.3.3,0,0,1-.18.08.27.27,0,0,1-.19-.08.29.29,0,0,1-.07-.18.26.26,0,1,0-.52,0A.77.77,0,0,0,174,71a.75.75,0,0,0,.55-.23Z"/><text class="cls-6" transform="translate(70.97 137.59)"><tspan class="cls-7">V</tspan><tspan x="5.58" y="0">ous venez d&apos;obtenir des fonds du </tspan><tspan x="0" y="12">FNS pour la publication de votre </tspan><tspan x="0" y="24">livre en Open Access </tspan><tspan x="0" y="48" xml:space="preserve">       </tspan><tspan class="cls-7" x="19.17" y="48">V</tspan><tspan x="24.75" y="48">ous pouvez prendre une </tspan><tspan x="0" y="60">carte à double à un autre joueur, </tspan><tspan x="0" y="72">si cela vous arrange !</tspan></text><text class="cls-8" transform="translate(122.14 117.16)">Chance</text><path class="cls-1" d="M78.39,186.22v-2H71.21a.53.53,0,0,1-.5-.59v-3.37c0-.63.42-.66.51-.66h7.32v-2.19c0-.47.27-.53.38-.53a.92.92,0,0,1,.56.32l5.14,4.25a.79.79,0,0,1,.26.52.6.6,0,0,1-.21.49c-.51.51-5.12,4-5.3,4.12a1,1,0,0,1-.55.29C78.66,186.87,78.39,186.78,78.39,186.22Zm.43.24v0Z"/><line class="cls-9" x1="54" x2="54" y2="36"/><line class="cls-9" y1="54" x2="36" y2="54"/><line class="cls-9" y1="307.96" x2="36" y2="307.96"/><line class="cls-9" x1="54" y1="361.96" x2="54" y2="325.96"/><line class="cls-9" x1="236.83" x2="236.83" y2="36"/><line class="cls-9" x1="290.83" y1="54" x2="254.83" y2="54"/><line class="cls-9" x1="290.83" y1="307.96" x2="254.83" y2="307.96"/><line class="cls-9" x1="236.83" y1="361.96" x2="236.83" y2="325.96"/></svg>