<svg id="Calque_1" data-name="Calque 1" xmlns="http://www.w3.org/2000/svg" viewBox="0 0 290.83 361.96"><defs><style>.cls-1,.cls-11{fill:#302d7e;}.cls-2,.cls-3,.cls-4{fill:#fff;}.cls-3{font-size:19.62px;font-family:TwCenMT-CondensedExtraBold, Tw Cen MT Condensed Extra Bold;font-weight:800;}.cls-4{stroke:#fff;stroke-miterlimit:10;stroke-width:0.25px;}.cls-5{opacity:0.2;}.cls-6{font-size:10px;fill:#000100;font-family:SegoeUI, Segoe UI;}.cls-7{letter-spacing:-0.03em;}.cls-8{letter-spacing:-0.03em;}.cls-9{letter-spacing:-0.02em;}.cls-10{letter-spacing:0.05em;}.cls-11{font-size:12px;font-family:SegoeUI-Bold, Segoe UI;font-weight:700;}.cls-12{letter-spacing:-0.04em;}.cls-13{letter-spacing:-0.03em;}.cls-14{fill:none;stroke:#000;stroke-width:0.3px;}</style></defs><title>Carte_bleue_25</title><path class="cls-1" d="M65.53,39.25H225.31a22.09,22.09,0,0,1,22.14,22.14V300.57a22.1,22.1,0,0,1-22.14,22.14H65.53a22.1,22.1,0,0,1-22.15-22.14V61.39A22.09,22.09,0,0,1,65.53,39.25Z"/><path class="cls-2" d="M77.65,95.37h136a17,17,0,0,1,17,17V279.58a17,17,0,0,1-17,17.05h-136a17,17,0,0,1-17-17.05V112.42A17,17,0,0,1,77.65,95.37Z"/><text class="cls-3" transform="translate(86.83 81.41)"><tspan xml:space="preserve">Escape the   ab</tspan></text><path class="cls-4" d="M177.1,63.79l-6.41.05a.74.74,0,0,0-.54.23.76.76,0,0,0-.23.55.79.79,0,0,0,.23.55.77.77,0,0,0,.47.22l.1,13.29A3.29,3.29,0,0,0,176.35,81a3.26,3.26,0,0,0,1-2.33l-.1-13.29a.78.78,0,0,0,.46-.23.7.7,0,0,0,.22-.55.77.77,0,0,0-.78-.77Zm.27.78a.27.27,0,0,1-.26.26h-.23l-3.93,0a.25.25,0,0,0-.25.26.26.26,0,0,0,.26.26l3.72,0,.1,13.28a2.71,2.71,0,0,1-.8,2,2.76,2.76,0,0,1-4.74-1.92l-.1-13.28h.78a.26.26,0,1,0,0-.52H170.7a.27.27,0,0,1-.26-.26.27.27,0,0,1,.08-.19.27.27,0,0,1,.18-.07l6.4,0a.27.27,0,0,1,.27.26Z"/><path class="cls-4" d="M176,71.67a1,1,0,0,0-.65.23A.55.55,0,0,1,175,72a.54.54,0,0,1-.35-.13,1,1,0,0,0-.64-.21,1.07,1.07,0,0,0-.65.22A.5.5,0,0,1,173,72a.59.59,0,0,1-.35-.12,1,1,0,0,0-.64-.22.27.27,0,0,0-.19.08.24.24,0,0,0-.07.18l0,2.84a.26.26,0,0,0,.26.25.25.25,0,0,0,.26-.26l0-2.5a.24.24,0,0,1,.09.06,1.05,1.05,0,0,0,.65.21,1,1,0,0,0,.64-.22.52.52,0,0,1,.35-.13.5.5,0,0,1,.35.12,1,1,0,0,0,1.29,0l.09-.06.05,6.38A1.74,1.74,0,0,1,174,80.38a1.73,1.73,0,0,1-1.74-1.72l0-2.83a.26.26,0,0,0-.26-.26.26.26,0,0,0-.26.26l0,2.84A2.25,2.25,0,0,0,174,80.9a2.19,2.19,0,0,0,1.58-.67,2.28,2.28,0,0,0,.65-1.6l0-6.68a.27.27,0,0,0-.25-.28Z"/><path class="cls-4" d="M174.66,67.44a.26.26,0,0,0,.26.26.25.25,0,0,1,.26.26.24.24,0,0,1-.07.18.25.25,0,0,1-.18.08.27.27,0,0,1-.27-.26.26.26,0,0,0-.26-.26.25.25,0,0,0-.25.26.77.77,0,0,0,1.33.54.74.74,0,0,0,.22-.55.77.77,0,0,0-.78-.77.26.26,0,0,0-.26.26Z"/><path class="cls-4" d="M173.5,70.6a.78.78,0,0,0-.56-1.33.26.26,0,0,0,0,.52.25.25,0,0,1,.18.08.23.23,0,0,1,.08.18.25.25,0,0,1-.08.18.23.23,0,0,1-.18.08.29.29,0,0,1-.18-.07.27.27,0,0,1-.08-.19.26.26,0,1,0-.52,0,.78.78,0,0,0,.78.77.75.75,0,0,0,.55-.23Z"/><g class="cls-5"><path class="cls-1" d="M119.5,165.77a22.72,22.72,0,0,1,45.44,0V203.2h15.18V165.77a37.9,37.9,0,1,0-75.79,0"/><path class="cls-1" d="M104.33,165.77"/><path class="cls-1" d="M154.8,225.05a12.52,12.52,0,1,1-12.52-12.52,12.51,12.51,0,0,1,12.52,12.52"/><path class="cls-1" d="M112.63,224.92a29.51,29.51,0,1,1,29.51,29.51,29.55,29.55,0,0,1-29.51-29.51m-15.18,0a44.69,44.69,0,1,0,44.69-44.69,44.73,44.73,0,0,0-44.69,44.69"/><line class="cls-1" x1="104.33" y1="165.77" x2="119.5" y2="165.77"/></g><text class="cls-6" transform="translate(69.99 136.02)">Le Directory of Open Access <tspan x="0" y="12">Journal (www.doaj.org) répertorie </tspan><tspan x="0" y="24">des revues en &quot;Gold Open Access&quot; </tspan><tspan x="0" y="36">ainsi que des articles rendus </tspan><tspan x="0" y="48">accessibles en &quot;Green Open </tspan><tspan x="0" y="60">Access&quot;.</tspan><tspan class="cls-7" x="0" y="96">R</tspan><tspan x="5.69" y="96">éponse : </tspan><tspan class="cls-8" x="45.43" y="96">F</tspan><tspan x="49.98" y="96">aux</tspan><tspan x="0" y="111">D</tspan><tspan class="cls-9" x="7.01" y="111">O</tspan><tspan class="cls-10" x="14.31" y="111">A</tspan><tspan x="21.22" y="111">J ne répertorie que les revues </tspan><tspan x="0" y="123">en Gold Open Access.</tspan></text><text class="cls-11" transform="translate(115.15 115.82)"><tspan class="cls-12">V</tspan><tspan x="7.58" y="0">rai/</tspan><tspan class="cls-13" x="27.54" y="0">F</tspan><tspan x="33.43" y="0">aux</tspan></text><line class="cls-14" x1="54" x2="54" y2="36"/><line class="cls-14" y1="54" x2="36" y2="54"/><line class="cls-14" y1="307.96" x2="36" y2="307.96"/><line class="cls-14" x1="54" y1="361.96" x2="54" y2="325.96"/><line class="cls-14" x1="236.83" x2="236.83" y2="36"/><line class="cls-14" x1="290.83" y1="54" x2="254.83" y2="54"/><line class="cls-14" x1="290.83" y1="307.96" x2="254.83" y2="307.96"/><line class="cls-14" x1="236.83" y1="361.96" x2="236.83" y2="325.96"/></svg>