<svg id="Calque_1" data-name="Calque 1" xmlns="http://www.w3.org/2000/svg" viewBox="0 0 290.83 361.96"><defs><style>.cls-1,.cls-7{fill:#e20717;}.cls-2,.cls-3,.cls-4{fill:#fff;}.cls-3{font-size:19.62px;font-family:TwCenMT-CondensedExtraBold, Tw Cen MT Condensed Extra Bold;font-weight:800;}.cls-4{stroke:#fff;stroke-miterlimit:10;stroke-width:0.25px;}.cls-5{opacity:0.2;}.cls-6{fill:#000100;}.cls-7{font-size:12px;font-family:SegoeUI-Bold, Segoe UI;font-weight:700;}.cls-8{letter-spacing:-0.04em;}.cls-9{letter-spacing:-0.03em;}.cls-10{fill:none;stroke:#000;stroke-width:0.3px;}</style></defs><title>Carte_rouge_40</title><path class="cls-1" d="M65.53,39.25H225.31a22.09,22.09,0,0,1,22.14,22.14V300.57a22.1,22.1,0,0,1-22.14,22.14H65.53a22.1,22.1,0,0,1-22.15-22.14V61.39A22.09,22.09,0,0,1,65.53,39.25Z"/><path class="cls-2" d="M76.65,95.37h136a17,17,0,0,1,17,17V279.58a17,17,0,0,1-17,17.05h-136a17,17,0,0,1-17-17.05V112.42A17,17,0,0,1,76.65,95.37Z"/><text class="cls-3" transform="translate(87.72 80.95)"><tspan xml:space="preserve">Escape the   ab</tspan></text><path class="cls-4" d="M178,63.33l-6.4.05a.76.76,0,0,0-.55.23.78.78,0,0,0,0,1.1.69.69,0,0,0,.46.22l.1,13.29a3.29,3.29,0,0,0,3.32,3.26,3.28,3.28,0,0,0,3.26-3.31l-.1-13.29a.72.72,0,0,0,.46-.22.78.78,0,0,0,.23-.55.8.8,0,0,0-.79-.78Zm.27.78a.25.25,0,0,1-.08.18.23.23,0,0,1-.18.08h-.23l-3.92,0a.26.26,0,0,0,0,.52l3.72,0,.1,13.28a2.74,2.74,0,0,1-.79,2,2.78,2.78,0,0,1-4.75-1.93L172,64.93h.78a.26.26,0,0,0,.26-.26.26.26,0,0,0-.26-.26l-1,0h-.22a.27.27,0,0,1-.19-.08.23.23,0,0,1-.08-.18.27.27,0,0,1,.26-.26l6.41,0a.26.26,0,0,1,.26.26Z"/><path class="cls-4" d="M176.83,71.21a1.07,1.07,0,0,0-.64.23.52.52,0,0,1-.35.13.5.5,0,0,1-.35-.13,1.08,1.08,0,0,0-.65-.21,1,1,0,0,0-.64.22.54.54,0,0,1-.35.13.5.5,0,0,1-.35-.12,1,1,0,0,0-.65-.21.23.23,0,0,0-.18.07.27.27,0,0,0-.08.19l0,2.83a.26.26,0,0,0,.26.26.26.26,0,0,0,.26-.26l0-2.51.09.06a1,1,0,0,0,.65.21,1.07,1.07,0,0,0,.65-.22.49.49,0,0,1,.34-.13.55.55,0,0,1,.35.12,1.05,1.05,0,0,0,1.3,0l.09-.06,0,6.38a1.73,1.73,0,0,1-3.46,0l0-2.84a.26.26,0,0,0-.52,0l0,2.83a2.26,2.26,0,0,0,3.86,1.56,2.2,2.2,0,0,0,.64-1.59l0-6.69a.25.25,0,0,0-.25-.27s0,0,0,0Z"/><path class="cls-4" d="M175.54,67a.26.26,0,0,0,.27.26.26.26,0,0,1,.26.26.27.27,0,0,1-.26.26.26.26,0,0,1-.26-.26.26.26,0,0,0-.52,0,.77.77,0,0,0,.78.77.75.75,0,0,0,.55-.23.78.78,0,0,0,.23-.55.8.8,0,0,0-.79-.78.26.26,0,0,0-.26.26Z"/><path class="cls-4" d="M174.39,70.14a.8.8,0,0,0,.22-.55.75.75,0,0,0-.23-.55.78.78,0,0,0-.55-.23.27.27,0,0,0-.26.27.26.26,0,0,0,.26.25.23.23,0,0,1,.18.08.25.25,0,0,1,.08.18.26.26,0,0,1-.07.19.32.32,0,0,1-.19.07.24.24,0,0,1-.18-.07.27.27,0,0,1-.08-.18.26.26,0,0,0-.26-.26.26.26,0,0,0-.26.26.78.78,0,0,0,.79.77.76.76,0,0,0,.55-.23Z"/><g class="cls-5"><path class="cls-1" d="M119.41,167.18a22.72,22.72,0,0,1,45.44,0v37.43H180V167.18a37.9,37.9,0,1,0-75.79,0"/><path class="cls-1" d="M104.23,167.18"/><path class="cls-1" d="M154.71,226.46a12.52,12.52,0,1,1-12.52-12.52,12.52,12.52,0,0,1,12.52,12.52"/><path class="cls-1" d="M112.53,226.33A29.51,29.51,0,1,1,142,255.84a29.55,29.55,0,0,1-29.51-29.51m-15.17,0A44.69,44.69,0,1,0,142,181.64a44.73,44.73,0,0,0-44.68,44.69"/><line class="cls-1" x1="104.23" y1="167.18" x2="119.41" y2="167.18"/></g><path class="cls-6" d="M74.13,137.57H70.5v-7h.82v6.26h2.81Z"/><path class="cls-6" d="M79.12,135.27H75.59a1.83,1.83,0,0,0,.45,1.29,1.54,1.54,0,0,0,1.18.45,2.45,2.45,0,0,0,1.55-.55v.75a2.89,2.89,0,0,1-1.74.48,2.14,2.14,0,0,1-1.67-.68,2.83,2.83,0,0,1-.6-1.92,2.73,2.73,0,0,1,.66-1.9,2.12,2.12,0,0,1,1.64-.74,1.86,1.86,0,0,1,1.52.64,2.63,2.63,0,0,1,.54,1.76Zm-.82-.68a1.68,1.68,0,0,0-.34-1.08,1.12,1.12,0,0,0-.91-.38,1.28,1.28,0,0,0-1,.4,1.78,1.78,0,0,0-.49,1.06Z"/><path class="cls-6" d="M80,137.39v-.86a2.35,2.35,0,0,0,1.44.48c.7,0,1-.23,1-.7a.62.62,0,0,0-.09-.34,1.12,1.12,0,0,0-.24-.25,3,3,0,0,0-.36-.19l-.45-.18a5.47,5.47,0,0,1-.58-.26,1.53,1.53,0,0,1-.42-.31,1.08,1.08,0,0,1-.26-.38,1.28,1.28,0,0,1-.08-.5,1.21,1.21,0,0,1,.16-.63,1.32,1.32,0,0,1,.43-.45,2.28,2.28,0,0,1,.61-.28,2.82,2.82,0,0,1,.71-.09,2.86,2.86,0,0,1,1.16.23v.81a2.27,2.27,0,0,0-1.27-.36,1.25,1.25,0,0,0-.4.05.89.89,0,0,0-.31.14.6.6,0,0,0-.27.51.67.67,0,0,0,.07.33.7.7,0,0,0,.2.23,2.17,2.17,0,0,0,.34.19l.44.18a5.68,5.68,0,0,1,.6.26,2.52,2.52,0,0,1,.45.3,1.18,1.18,0,0,1,.38.91,1.25,1.25,0,0,1-.16.65,1.45,1.45,0,0,1-.44.45,2,2,0,0,1-.63.27,3.08,3.08,0,0,1-.75.09A2.78,2.78,0,0,1,80,137.39Z"/><path class="cls-6" d="M90.72,137.34a2.61,2.61,0,0,1-1.37.35,2.26,2.26,0,0,1-1.72-.7,2.5,2.5,0,0,1-.66-1.8,2.78,2.78,0,0,1,.71-2,2.47,2.47,0,0,1,1.89-.75,2.54,2.54,0,0,1,1.16.25v.82a2,2,0,0,0-1.19-.39,1.61,1.61,0,0,0-1.26.55,2,2,0,0,0-.49,1.44,2,2,0,0,0,.46,1.38,1.59,1.59,0,0,0,1.24.51,2,2,0,0,0,1.23-.43Z"/><path class="cls-6" d="M96.08,137.57h-.8v-2.88c0-1-.39-1.56-1.16-1.56a1.28,1.28,0,0,0-1,.45,1.67,1.67,0,0,0-.4,1.16v2.83h-.8v-7.4h.8v3.23h0a1.83,1.83,0,0,1,1.64-1c1.13,0,1.69.68,1.69,2Z"/><path class="cls-6" d="M101.61,135.27H98.08a1.83,1.83,0,0,0,.45,1.29,1.54,1.54,0,0,0,1.18.45,2.45,2.45,0,0,0,1.55-.55v.75a2.89,2.89,0,0,1-1.74.48,2.14,2.14,0,0,1-1.67-.68,2.83,2.83,0,0,1-.6-1.92,2.73,2.73,0,0,1,.66-1.9,2.12,2.12,0,0,1,1.64-.74,1.86,1.86,0,0,1,1.52.64,2.63,2.63,0,0,1,.54,1.76Zm-.82-.68a1.68,1.68,0,0,0-.34-1.08,1.12,1.12,0,0,0-.91-.38,1.28,1.28,0,0,0-1,.4,1.78,1.78,0,0,0-.49,1.06Z"/><path class="cls-6" d="M105.43,133.38a1,1,0,0,0-.61-.16,1,1,0,0,0-.86.48,2.23,2.23,0,0,0-.34,1.32v2.55h-.8v-5h.8v1h0a1.71,1.71,0,0,1,.52-.82,1.2,1.2,0,0,1,.79-.3,1.22,1.22,0,0,1,.48.07Z"/><path class="cls-6" d="M109.7,137.34a2.6,2.6,0,0,1-1.36.35,2.28,2.28,0,0,1-1.73-.7,2.5,2.5,0,0,1-.66-1.8,2.78,2.78,0,0,1,.71-2,2.47,2.47,0,0,1,1.89-.75,2.51,2.51,0,0,1,1.16.25v.82a2,2,0,0,0-1.19-.39,1.57,1.57,0,0,0-1.25.55,2.05,2.05,0,0,0-.5,1.44,2,2,0,0,0,.47,1.38,1.57,1.57,0,0,0,1.23.51,2,2,0,0,0,1.23-.43Z"/><path class="cls-6" d="M115.07,137.57h-.8v-2.88q0-1.56-1.17-1.56a1.25,1.25,0,0,0-1,.45,1.67,1.67,0,0,0-.4,1.16v2.83h-.8v-7.4h.8v3.23h0a1.82,1.82,0,0,1,1.64-1c1.12,0,1.69.68,1.69,2Z"/><path class="cls-6" d="M120.59,135.27h-3.53a1.93,1.93,0,0,0,.45,1.29,1.56,1.56,0,0,0,1.18.45,2.46,2.46,0,0,0,1.56-.55v.75a2.9,2.9,0,0,1-1.75.48,2.12,2.12,0,0,1-1.66-.68,2.83,2.83,0,0,1-.61-1.92,2.69,2.69,0,0,1,.67-1.9,2.11,2.11,0,0,1,1.64-.74,1.87,1.87,0,0,1,1.52.64,2.68,2.68,0,0,1,.53,1.76Zm-.82-.68a1.62,1.62,0,0,0-.33-1.08,1.14,1.14,0,0,0-.92-.38,1.29,1.29,0,0,0-1,.4,1.84,1.84,0,0,0-.49,1.06Z"/><path class="cls-6" d="M125.85,137.57h-.8v-.79h0a1.67,1.67,0,0,1-1.55.91c-1.19,0-1.78-.71-1.78-2.13v-3h.79v2.86c0,1.06.41,1.58,1.21,1.58a1.23,1.23,0,0,0,1-.43,1.66,1.66,0,0,0,.38-1.13v-2.88h.8Z"/><path class="cls-6" d="M130.07,133.38a1,1,0,0,0-.6-.16,1,1,0,0,0-.86.48,2.22,2.22,0,0,0-.35,1.32v2.55h-.8v-5h.8v1h0a1.72,1.72,0,0,1,.53-.82,1.16,1.16,0,0,1,.78-.3,1.22,1.22,0,0,1,.48.07Z"/><path class="cls-6" d="M131.22,137.68a.57.57,0,0,1-.39-.16.58.58,0,0,1,0-.78.55.55,0,0,1,.78.78A.57.57,0,0,1,131.22,137.68Z"/><path class="cls-6" d="M137.13,135.27H133.6a1.83,1.83,0,0,0,.45,1.29,1.54,1.54,0,0,0,1.18.45,2.45,2.45,0,0,0,1.55-.55v.75a2.89,2.89,0,0,1-1.74.48,2.14,2.14,0,0,1-1.67-.68,2.83,2.83,0,0,1-.6-1.92,2.73,2.73,0,0,1,.66-1.9,2.12,2.12,0,0,1,1.64-.74,1.86,1.86,0,0,1,1.52.64,2.63,2.63,0,0,1,.54,1.76Zm-.82-.68a1.68,1.68,0,0,0-.34-1.08,1.12,1.12,0,0,0-.91-.38,1.31,1.31,0,0,0-1,.4,1.83,1.83,0,0,0-.48,1.06Z"/><path class="cls-6" d="M142.38,137.57h-.8v-.79h0a1.66,1.66,0,0,1-1.54.91c-1.19,0-1.79-.71-1.79-2.13v-3h.8v2.86c0,1.06.4,1.58,1.21,1.58a1.21,1.21,0,0,0,1-.43,1.66,1.66,0,0,0,.38-1.13v-2.88h.8Z"/><path class="cls-6" d="M143.69,137.39v-.86a2.4,2.4,0,0,0,1.44.48c.71,0,1.06-.23,1.06-.7a.62.62,0,0,0-.09-.34,1,1,0,0,0-.25-.25,2,2,0,0,0-.36-.19l-.44-.18a5.71,5.71,0,0,1-.59-.26,1.7,1.7,0,0,1-.42-.31,1.19,1.19,0,0,1-.25-.38,1.28,1.28,0,0,1-.09-.5,1.31,1.31,0,0,1,.16-.63,1.54,1.54,0,0,1,.43-.45,2.34,2.34,0,0,1,.62-.28,2.76,2.76,0,0,1,.71-.09,2.86,2.86,0,0,1,1.16.23v.81a2.27,2.27,0,0,0-1.27-.36,1.25,1.25,0,0,0-.4.05.81.81,0,0,0-.31.14.58.58,0,0,0-.28.51.81.81,0,0,0,.07.33.9.9,0,0,0,.21.23,1.69,1.69,0,0,0,.33.19l.45.18a4.72,4.72,0,0,1,.59.26,2,2,0,0,1,.45.3,1.11,1.11,0,0,1,.29.39,1.21,1.21,0,0,1,.1.52,1.36,1.36,0,0,1-.16.65,1.45,1.45,0,0,1-.44.45,2,2,0,0,1-.63.27,3.08,3.08,0,0,1-.75.09A2.85,2.85,0,0,1,143.69,137.39Z"/><path class="cls-6" d="M152.26,135.27h-3.53a1.83,1.83,0,0,0,.45,1.29,1.54,1.54,0,0,0,1.18.45,2.45,2.45,0,0,0,1.55-.55v.75a2.89,2.89,0,0,1-1.74.48,2.14,2.14,0,0,1-1.67-.68,2.83,2.83,0,0,1-.6-1.92,2.73,2.73,0,0,1,.66-1.9,2.12,2.12,0,0,1,1.64-.74,1.86,1.86,0,0,1,1.52.64,2.63,2.63,0,0,1,.54,1.76Zm-.82-.68a1.62,1.62,0,0,0-.34-1.08,1.12,1.12,0,0,0-.91-.38,1.28,1.28,0,0,0-1,.4,1.78,1.78,0,0,0-.49,1.06Z"/><path class="cls-6" d="M153.75,137.68a.57.57,0,0,1-.39-.16.58.58,0,0,1,0-.78.55.55,0,0,1,.78.78A.57.57,0,0,1,153.75,137.68Z"/><path class="cls-6" d="M155.33,137.39v-.86a2.4,2.4,0,0,0,1.45.48c.7,0,1.05-.23,1.05-.7a.62.62,0,0,0-.09-.34,1,1,0,0,0-.25-.25,2,2,0,0,0-.36-.19l-.44-.18c-.22-.09-.42-.17-.59-.26a1.9,1.9,0,0,1-.42-.31,1.19,1.19,0,0,1-.25-.38,1.28,1.28,0,0,1-.09-.5,1.21,1.21,0,0,1,.17-.63,1.32,1.32,0,0,1,.43-.45,2.14,2.14,0,0,1,.61-.28,2.76,2.76,0,0,1,.71-.09,2.86,2.86,0,0,1,1.16.23v.81a2.27,2.27,0,0,0-1.27-.36,1.25,1.25,0,0,0-.4.05.89.89,0,0,0-.31.14.58.58,0,0,0-.28.51.81.81,0,0,0,.07.33.9.9,0,0,0,.21.23,1.79,1.79,0,0,0,.34.19l.44.18a5.68,5.68,0,0,1,.6.26,2.12,2.12,0,0,1,.44.3,1.11,1.11,0,0,1,.29.39,1.21,1.21,0,0,1,.1.52,1.25,1.25,0,0,1-.16.65,1.45,1.45,0,0,1-.44.45,2,2,0,0,1-.63.27,3.08,3.08,0,0,1-.75.09A2.85,2.85,0,0,1,155.33,137.39Z"/><path class="cls-6" d="M166.89,137.57h-.8v-.85h0a1.87,1.87,0,0,1-1.72,1,1.9,1.9,0,0,1-1.51-.67,2.8,2.8,0,0,1-.56-1.83,3,3,0,0,1,.62-2,2.06,2.06,0,0,1,1.67-.75,1.62,1.62,0,0,1,1.5.81h0v-3.09h.8Zm-.8-2.26v-.74a1.45,1.45,0,0,0-.4-1,1.36,1.36,0,0,0-1-.42,1.39,1.39,0,0,0-1.15.53,2.38,2.38,0,0,0-.42,1.49,2.1,2.1,0,0,0,.4,1.36,1.3,1.3,0,0,0,1.08.5,1.38,1.38,0,0,0,1.09-.48A1.79,1.79,0,0,0,166.09,135.31Z"/><path class="cls-6" d="M172.53,135.27H169a1.83,1.83,0,0,0,.45,1.29,1.54,1.54,0,0,0,1.18.45,2.45,2.45,0,0,0,1.55-.55v.75a2.89,2.89,0,0,1-1.74.48,2.14,2.14,0,0,1-1.67-.68,2.83,2.83,0,0,1-.6-1.92,2.73,2.73,0,0,1,.66-1.9,2.12,2.12,0,0,1,1.64-.74,1.86,1.86,0,0,1,1.52.64,2.63,2.63,0,0,1,.54,1.76Zm-.82-.68a1.68,1.68,0,0,0-.34-1.08,1.12,1.12,0,0,0-.91-.38,1.31,1.31,0,0,0-1,.4,1.83,1.83,0,0,0-.48,1.06Z"/><path class="cls-6" d="M177.28,137.57h-.8v-7.4h.8Z"/><path class="cls-6" d="M179.59,130.57v2.18h-.71v-2.18Z"/><path class="cls-6" d="M186.43,134.74c0,2-.89,2.95-2.66,2.95s-2.55-.95-2.55-2.84v-4.28H182v4.23c0,1.43.6,2.15,1.82,2.15s1.75-.69,1.75-2.08v-4.3h.82Z"/><path class="cls-6" d="M192.22,137.57h-.8v-2.85c0-1.06-.39-1.59-1.16-1.59a1.29,1.29,0,0,0-1,.45,1.68,1.68,0,0,0-.39,1.14v2.85h-.8v-5h.8v.83h0a1.81,1.81,0,0,1,1.64-1,1.53,1.53,0,0,1,1.25.53,2.36,2.36,0,0,1,.44,1.53Z"/><path class="cls-6" d="M194.14,131.3a.5.5,0,0,1-.37-.15.48.48,0,0,1-.15-.37.51.51,0,0,1,.52-.52.51.51,0,0,1,.37.15.51.51,0,0,1,0,.74A.51.51,0,0,1,194.14,131.3Zm.39,6.27h-.8v-5h.8Z"/><path class="cls-6" d="M200.08,132.57l-2,5h-.79l-1.89-5h.88l1.27,3.63a3.34,3.34,0,0,1,.17.7h0a3.23,3.23,0,0,1,.16-.68l1.33-3.65Z"/><path class="cls-6" d="M205,135.27h-3.53a1.83,1.83,0,0,0,.45,1.29,1.54,1.54,0,0,0,1.18.45,2.45,2.45,0,0,0,1.55-.55v.75a2.89,2.89,0,0,1-1.74.48,2.14,2.14,0,0,1-1.67-.68,2.83,2.83,0,0,1-.6-1.92,2.73,2.73,0,0,1,.66-1.9,2.12,2.12,0,0,1,1.64-.74,1.86,1.86,0,0,1,1.52.64,2.63,2.63,0,0,1,.54,1.76Zm-.82-.68a1.62,1.62,0,0,0-.34-1.08,1.12,1.12,0,0,0-.91-.38,1.28,1.28,0,0,0-1,.4,1.78,1.78,0,0,0-.49,1.06Z"/><path class="cls-6" d="M208.78,133.38a1,1,0,0,0-.61-.16,1,1,0,0,0-.86.48A2.3,2.3,0,0,0,207,135v2.55h-.8v-5h.8v1h0a1.71,1.71,0,0,1,.52-.82,1.2,1.2,0,0,1,.79-.3,1.22,1.22,0,0,1,.48.07Z"/><path class="cls-6" d="M209.34,137.39v-.86a2.4,2.4,0,0,0,1.44.48c.71,0,1.06-.23,1.06-.7a.62.62,0,0,0-.09-.34,1,1,0,0,0-.25-.25,2,2,0,0,0-.36-.19l-.44-.18a5.71,5.71,0,0,1-.59-.26,1.53,1.53,0,0,1-.42-.31,1.19,1.19,0,0,1-.25-.38,1.28,1.28,0,0,1-.09-.5,1.31,1.31,0,0,1,.16-.63,1.54,1.54,0,0,1,.43-.45,2.34,2.34,0,0,1,.62-.28,2.76,2.76,0,0,1,.71-.09,2.86,2.86,0,0,1,1.16.23v.81a2.27,2.27,0,0,0-1.27-.36,1.32,1.32,0,0,0-.41.05,1,1,0,0,0-.31.14.83.83,0,0,0-.2.22.73.73,0,0,0-.07.29.81.81,0,0,0,.07.33.9.9,0,0,0,.21.23,1.69,1.69,0,0,0,.33.19l.45.18a4.72,4.72,0,0,1,.59.26,2,2,0,0,1,.45.3,1.11,1.11,0,0,1,.29.39,1.21,1.21,0,0,1,.1.52,1.36,1.36,0,0,1-.16.65,1.45,1.45,0,0,1-.44.45,2,2,0,0,1-.63.27,3.08,3.08,0,0,1-.75.09A2.85,2.85,0,0,1,209.34,137.39Z"/><path class="cls-6" d="M214.3,131.3a.51.51,0,0,1-.37-.15.48.48,0,0,1-.15-.37.5.5,0,0,1,.15-.37.51.51,0,0,1,.37-.15.5.5,0,0,1,.37.15.51.51,0,0,1,0,.74A.5.5,0,0,1,214.3,131.3Zm.39,6.27h-.8v-5h.8Z"/><path class="cls-6" d="M218.87,135.1H216.2v-.63h2.67Z"/><path class="cls-6" d="M72.71,149.52a1.61,1.61,0,0,1-.75.16c-.87,0-1.31-.49-1.31-1.47v-3h-.86v-.68h.86v-1.22l.8-.26v1.48h1.26v.68H71.45v2.82a1.21,1.21,0,0,0,.17.72.71.71,0,0,0,.57.21.83.83,0,0,0,.52-.16Z"/><path class="cls-6" d="M77.8,147.27H74.27a1.83,1.83,0,0,0,.45,1.29,1.56,1.56,0,0,0,1.18.45,2.45,2.45,0,0,0,1.55-.55v.75a2.89,2.89,0,0,1-1.74.48,2.1,2.1,0,0,1-1.66-.68,2.78,2.78,0,0,1-.61-1.92,2.73,2.73,0,0,1,.66-1.9,2.12,2.12,0,0,1,1.64-.74,1.86,1.86,0,0,1,1.52.64,2.63,2.63,0,0,1,.54,1.76Zm-.82-.68a1.68,1.68,0,0,0-.33-1.08,1.14,1.14,0,0,0-.92-.38,1.28,1.28,0,0,0-1,.4,1.78,1.78,0,0,0-.49,1.06ZM76.85,142l-1.28,1.6H75L76,142Z"/><path class="cls-6" d="M83.84,149.69a2.34,2.34,0,0,1-1.77-.7,2.61,2.61,0,0,1-.66-1.86,2.7,2.7,0,0,1,.69-2,2.49,2.49,0,0,1,1.86-.71,2.24,2.24,0,0,1,1.74.69,2.73,2.73,0,0,1,.63,1.91,2.7,2.7,0,0,1-.68,1.92A2.36,2.36,0,0,1,83.84,149.69Zm.06-4.56a1.51,1.51,0,0,0-1.22.52,2.15,2.15,0,0,0-.45,1.45,2,2,0,0,0,.45,1.4,1.56,1.56,0,0,0,1.22.51,1.44,1.44,0,0,0,1.19-.5,2.18,2.18,0,0,0,.42-1.43,2.22,2.22,0,0,0-.42-1.45A1.47,1.47,0,0,0,83.9,145.13Z"/><path class="cls-6" d="M91.76,149.57H91v-2.85c0-1.06-.39-1.59-1.16-1.59a1.29,1.29,0,0,0-1,.45,1.68,1.68,0,0,0-.39,1.14v2.85h-.8v-5h.8v.83h0a1.81,1.81,0,0,1,1.64-1,1.55,1.55,0,0,1,1.26.53,2.42,2.42,0,0,1,.43,1.53Z"/><path class="cls-6" d="M95.59,149.52a1.61,1.61,0,0,1-.75.16c-.87,0-1.31-.49-1.31-1.47v-3h-.86v-.68h.86v-1.22l.8-.26v1.48h1.26v.68H94.33v2.82a1.21,1.21,0,0,0,.17.72.68.68,0,0,0,.57.21.85.85,0,0,0,.52-.16Z"/><path class="cls-6" d="M100.2,149.57h-.8v-7.4h.8Z"/><path class="cls-6" d="M102.51,142.57v2.18h-.71v-2.18Z"/><path class="cls-6" d="M106.21,149.69a2.34,2.34,0,0,1-1.77-.7,2.61,2.61,0,0,1-.66-1.86,2.74,2.74,0,0,1,.68-2,2.49,2.49,0,0,1,1.87-.71,2.24,2.24,0,0,1,1.74.69,2.73,2.73,0,0,1,.63,1.91A2.7,2.7,0,0,1,108,149,2.36,2.36,0,0,1,106.21,149.69Zm.06-4.56a1.51,1.51,0,0,0-1.22.52,2.15,2.15,0,0,0-.45,1.45,2,2,0,0,0,.45,1.4,1.55,1.55,0,0,0,1.22.51,1.45,1.45,0,0,0,1.19-.5,2.18,2.18,0,0,0,.42-1.43,2.22,2.22,0,0,0-.42-1.45A1.48,1.48,0,0,0,106.27,145.13Z"/><path class="cls-6" d="M110.8,148.85h0v.72H110v-7.4h.8v3.28h0a1.88,1.88,0,0,1,1.73-1,1.84,1.84,0,0,1,1.5.67,2.74,2.74,0,0,1,.55,1.8,3.13,3.13,0,0,1-.61,2,2,2,0,0,1-1.67.76A1.65,1.65,0,0,1,110.8,148.85Zm0-2v.7a1.48,1.48,0,0,0,.4,1.05,1.33,1.33,0,0,0,1,.43,1.36,1.36,0,0,0,1.15-.55,2.62,2.62,0,0,0,.41-1.55,2,2,0,0,0-.39-1.31,1.26,1.26,0,0,0-1-.47,1.44,1.44,0,0,0-1.13.48A1.81,1.81,0,0,0,110.78,146.83Z"/><path class="cls-6" d="M116.66,149.57h-.8v-7.4h.8Z"/><path class="cls-6" d="M118.69,143.3a.51.51,0,0,1-.37-.15.48.48,0,0,1-.15-.37.5.5,0,0,1,.15-.37.51.51,0,0,1,.37-.15.5.5,0,0,1,.37.15.51.51,0,0,1,0,.74A.5.5,0,0,1,118.69,143.3Zm.39,6.27h-.8v-5h.8Z"/><path class="cls-6" d="M125,149.17c0,1.83-.88,2.75-2.64,2.75a3.45,3.45,0,0,1-1.62-.35v-.8a3.35,3.35,0,0,0,1.61.47c1.23,0,1.85-.66,1.85-2v-.55h0a2,2,0,0,1-3.22.29,2.65,2.65,0,0,1-.57-1.79,3.13,3.13,0,0,1,.61-2,2.06,2.06,0,0,1,1.68-.75,1.64,1.64,0,0,1,1.5.81h0v-.69h.8Zm-.8-1.86v-.74a1.45,1.45,0,0,0-.4-1,1.35,1.35,0,0,0-1-.42,1.39,1.39,0,0,0-1.16.54,2.4,2.4,0,0,0-.42,1.51,2,2,0,0,0,.4,1.33,1.29,1.29,0,0,0,1.07.5,1.41,1.41,0,0,0,1.1-.48A1.76,1.76,0,0,0,124.17,147.31Z"/><path class="cls-6" d="M130.17,149.57h-.8v-.78h0a1.68,1.68,0,0,1-1.54.9,1.66,1.66,0,0,1-1.17-.4,1.36,1.36,0,0,1-.42-1c0-.93.55-1.48,1.65-1.63l1.5-.21c0-.85-.35-1.27-1-1.27a2.43,2.43,0,0,0-1.63.61v-.82a3.1,3.1,0,0,1,1.7-.47c1.17,0,1.76.62,1.76,1.87Zm-.8-2.53-1.21.17a2,2,0,0,0-.84.27.79.79,0,0,0-.28.7.76.76,0,0,0,.26.6,1,1,0,0,0,.7.23,1.31,1.31,0,0,0,1-.41,1.51,1.51,0,0,0,.39-1.06Z"/><path class="cls-6" d="M134,149.52a1.61,1.61,0,0,1-.75.16c-.88,0-1.31-.49-1.31-1.47v-3h-.86v-.68h.86v-1.22l.8-.26v1.48H134v.68h-1.26v2.82a1.14,1.14,0,0,0,.17.72.68.68,0,0,0,.56.21.86.86,0,0,0,.53-.16Z"/><path class="cls-6" d="M135.48,143.3a.5.5,0,0,1-.37-.15.48.48,0,0,1-.15-.37.51.51,0,0,1,.52-.52.51.51,0,0,1,.37.15.53.53,0,0,1,0,.74A.51.51,0,0,1,135.48,143.3Zm.39,6.27h-.8v-5h.8Z"/><path class="cls-6" d="M139.58,149.69a2.34,2.34,0,0,1-1.77-.7,2.61,2.61,0,0,1-.66-1.86,2.74,2.74,0,0,1,.68-2,2.49,2.49,0,0,1,1.86-.71,2.25,2.25,0,0,1,1.75.69,2.73,2.73,0,0,1,.63,1.91,2.7,2.7,0,0,1-.68,1.92A2.36,2.36,0,0,1,139.58,149.69Zm.06-4.56a1.51,1.51,0,0,0-1.22.52,2.15,2.15,0,0,0-.45,1.45,2,2,0,0,0,.45,1.4,1.55,1.55,0,0,0,1.22.51,1.45,1.45,0,0,0,1.19-.5,2.18,2.18,0,0,0,.42-1.43,2.22,2.22,0,0,0-.42-1.45A1.48,1.48,0,0,0,139.64,145.13Z"/><path class="cls-6" d="M147.5,149.57h-.8v-2.85q0-1.59-1.17-1.59a1.25,1.25,0,0,0-1,.45,1.68,1.68,0,0,0-.39,1.14v2.85h-.8v-5h.8v.83h0a1.81,1.81,0,0,1,1.64-1,1.53,1.53,0,0,1,1.25.53,2.36,2.36,0,0,1,.44,1.53Z"/><path class="cls-6" d="M156,149.57h-.8v-.85h0a1.85,1.85,0,0,1-1.72,1A1.88,1.88,0,0,1,152,149a2.75,2.75,0,0,1-.57-1.83,3,3,0,0,1,.63-2,2.06,2.06,0,0,1,1.66-.75,1.6,1.6,0,0,1,1.5.81h0v-3.09h.8Zm-.8-2.26v-.74a1.41,1.41,0,0,0-.4-1,1.32,1.32,0,0,0-1-.42,1.41,1.41,0,0,0-1.16.53,2.38,2.38,0,0,0-.42,1.49,2.1,2.1,0,0,0,.41,1.36,1.3,1.3,0,0,0,1.08.5,1.36,1.36,0,0,0,1.08-.48A1.79,1.79,0,0,0,155.21,147.31Z"/><path class="cls-6" d="M161.65,147.27h-3.53a1.93,1.93,0,0,0,.45,1.29,1.56,1.56,0,0,0,1.18.45,2.48,2.48,0,0,0,1.56-.55v.75a2.9,2.9,0,0,1-1.75.48,2.12,2.12,0,0,1-1.66-.68,2.78,2.78,0,0,1-.61-1.92,2.73,2.73,0,0,1,.66-1.9,2.14,2.14,0,0,1,1.65-.74,1.87,1.87,0,0,1,1.52.64,2.68,2.68,0,0,1,.53,1.76Zm-.82-.68a1.62,1.62,0,0,0-.33-1.08,1.14,1.14,0,0,0-.92-.38,1.28,1.28,0,0,0-1,.4,1.84,1.84,0,0,0-.49,1.06Z"/><path class="cls-6" d="M169.87,149.57h-.8v-.85h0a2,2,0,0,1-3.22.3,2.75,2.75,0,0,1-.57-1.83,3,3,0,0,1,.63-2,2,2,0,0,1,1.66-.75,1.6,1.6,0,0,1,1.5.81h0v-3.09h.8Zm-.8-2.26v-.74a1.41,1.41,0,0,0-.4-1,1.36,1.36,0,0,0-1-.42,1.41,1.41,0,0,0-1.15.53,2.38,2.38,0,0,0-.42,1.49,2.16,2.16,0,0,0,.4,1.36,1.31,1.31,0,0,0,1.09.5,1.37,1.37,0,0,0,1.08-.48A1.79,1.79,0,0,0,169.07,147.31Z"/><path class="cls-6" d="M175.51,147.27H172a1.83,1.83,0,0,0,.45,1.29,1.56,1.56,0,0,0,1.18.45,2.45,2.45,0,0,0,1.55-.55v.75a2.89,2.89,0,0,1-1.74.48,2.1,2.1,0,0,1-1.66-.68,2.78,2.78,0,0,1-.61-1.92,2.73,2.73,0,0,1,.66-1.9,2.12,2.12,0,0,1,1.64-.74,1.86,1.86,0,0,1,1.52.64,2.63,2.63,0,0,1,.54,1.76Zm-.82-.68a1.62,1.62,0,0,0-.33-1.08,1.14,1.14,0,0,0-.92-.38,1.28,1.28,0,0,0-1,.4,1.78,1.78,0,0,0-.49,1.06Zm-.13-4.57-1.28,1.6h-.62l1.09-1.6Z"/><path class="cls-6" d="M177.54,148.85h0v3h-.8v-7.3h.8v.88h0a1.89,1.89,0,0,1,1.73-1,1.86,1.86,0,0,1,1.51.67,2.8,2.8,0,0,1,.54,1.8,3.07,3.07,0,0,1-.61,2,2,2,0,0,1-1.67.76A1.67,1.67,0,0,1,177.54,148.85Zm0-2v.7a1.53,1.53,0,0,0,.4,1.05,1.45,1.45,0,0,0,2.17-.12,2.62,2.62,0,0,0,.41-1.55,2,2,0,0,0-.39-1.31,1.24,1.24,0,0,0-1-.47,1.41,1.41,0,0,0-1.12.48A1.77,1.77,0,0,0,177.52,146.83Z"/><path class="cls-6" d="M184.69,149.69a2.34,2.34,0,0,1-1.77-.7,2.61,2.61,0,0,1-.66-1.86,2.7,2.7,0,0,1,.69-2,2.49,2.49,0,0,1,1.86-.71,2.24,2.24,0,0,1,1.74.69,2.73,2.73,0,0,1,.63,1.91,2.7,2.7,0,0,1-.68,1.92A2.36,2.36,0,0,1,184.69,149.69Zm.06-4.56a1.51,1.51,0,0,0-1.22.52,2.15,2.15,0,0,0-.45,1.45,2,2,0,0,0,.45,1.4,1.56,1.56,0,0,0,1.22.51,1.44,1.44,0,0,0,1.19-.5,2.18,2.18,0,0,0,.42-1.43,2.22,2.22,0,0,0-.42-1.45A1.47,1.47,0,0,0,184.75,145.13Z"/><path class="cls-6" d="M188.16,149.39v-.86a2.35,2.35,0,0,0,1.44.48c.7,0,1.05-.23,1.05-.7a.62.62,0,0,0-.09-.34,1.12,1.12,0,0,0-.24-.25,2.42,2.42,0,0,0-.36-.19l-.45-.18a5.47,5.47,0,0,1-.58-.26,1.53,1.53,0,0,1-.42-.31,1.08,1.08,0,0,1-.26-.38,1.28,1.28,0,0,1-.08-.5,1.21,1.21,0,0,1,.16-.63,1.42,1.42,0,0,1,.43-.45,2.28,2.28,0,0,1,.61-.28,2.82,2.82,0,0,1,.71-.09,2.86,2.86,0,0,1,1.16.23v.81a2.27,2.27,0,0,0-1.27-.36,1.25,1.25,0,0,0-.4.05.89.89,0,0,0-.31.14.69.69,0,0,0-.2.22.59.59,0,0,0-.07.29.67.67,0,0,0,.07.33.75.75,0,0,0,.21.23,1.69,1.69,0,0,0,.33.19l.44.18a5.68,5.68,0,0,1,.6.26,2.52,2.52,0,0,1,.45.3,1.08,1.08,0,0,1,.28.39,1.21,1.21,0,0,1,.1.52,1.25,1.25,0,0,1-.16.65,1.45,1.45,0,0,1-.44.45,2,2,0,0,1-.63.27,3,3,0,0,1-.75.09A2.78,2.78,0,0,1,188.16,149.39Z"/><path class="cls-6" d="M196.72,147.27h-3.53a1.83,1.83,0,0,0,.45,1.29,1.56,1.56,0,0,0,1.18.45,2.43,2.43,0,0,0,1.55-.55v.75a2.87,2.87,0,0,1-1.74.48A2.12,2.12,0,0,1,193,149a2.78,2.78,0,0,1-.61-1.92,2.73,2.73,0,0,1,.66-1.9,2.13,2.13,0,0,1,1.65-.74,1.84,1.84,0,0,1,1.51.64,2.63,2.63,0,0,1,.54,1.76Zm-.82-.68a1.62,1.62,0,0,0-.33-1.08,1.14,1.14,0,0,0-.92-.38,1.28,1.28,0,0,0-1,.4,1.84,1.84,0,0,0-.49,1.06Z"/><path class="cls-6" d="M200.54,145.38a1,1,0,0,0-.61-.16,1,1,0,0,0-.85.48,2.22,2.22,0,0,0-.35,1.32v2.55h-.8v-5h.8v1h0a1.72,1.72,0,0,1,.53-.82,1.16,1.16,0,0,1,.78-.3,1.22,1.22,0,0,1,.48.07Z"/><path class="cls-6" d="M72.71,161.52a1.61,1.61,0,0,1-.75.16c-.87,0-1.31-.49-1.31-1.47v-3h-.86v-.68h.86v-1.22l.8-.26v1.48h1.26v.68H71.45v2.82a1.21,1.21,0,0,0,.17.72.71.71,0,0,0,.57.21.83.83,0,0,0,.52-.16Z"/><path class="cls-6" d="M75.87,161.69a2.34,2.34,0,0,1-1.77-.7,2.61,2.61,0,0,1-.66-1.86,2.7,2.7,0,0,1,.69-2,2.49,2.49,0,0,1,1.86-.71,2.22,2.22,0,0,1,1.74.69,2.73,2.73,0,0,1,.63,1.91,2.69,2.69,0,0,1-.67,1.92A2.39,2.39,0,0,1,75.87,161.69Zm.06-4.56a1.52,1.52,0,0,0-1.22.52,2.15,2.15,0,0,0-.45,1.45,2,2,0,0,0,.45,1.4,1.56,1.56,0,0,0,1.22.51,1.43,1.43,0,0,0,1.19-.5,2.18,2.18,0,0,0,.42-1.43,2.22,2.22,0,0,0-.42-1.45A1.46,1.46,0,0,0,75.93,157.13Z"/><path class="cls-6" d="M83.68,161.57h-.8v-.79h0a1.65,1.65,0,0,1-1.54.91c-1.19,0-1.79-.71-1.79-2.13v-3h.8v2.86c0,1.06.4,1.58,1.21,1.58a1.21,1.21,0,0,0,1-.43,1.61,1.61,0,0,0,.38-1.13v-2.88h.8Z"/><path class="cls-6" d="M87.62,161.52a1.61,1.61,0,0,1-.75.16c-.87,0-1.31-.49-1.31-1.47v-3H84.7v-.68h.86v-1.22l.8-.26v1.48h1.26v.68H86.36v2.82a1.21,1.21,0,0,0,.17.72.68.68,0,0,0,.57.21.85.85,0,0,0,.52-.16Z"/><path class="cls-6" d="M92.71,159.27H89.18a1.83,1.83,0,0,0,.45,1.29,1.54,1.54,0,0,0,1.18.45,2.45,2.45,0,0,0,1.55-.55v.75a2.89,2.89,0,0,1-1.74.48A2.14,2.14,0,0,1,89,161a2.83,2.83,0,0,1-.6-1.92,2.73,2.73,0,0,1,.66-1.9,2.12,2.12,0,0,1,1.64-.74,1.86,1.86,0,0,1,1.52.64,2.63,2.63,0,0,1,.54,1.76Zm-.82-.68a1.68,1.68,0,0,0-.34-1.08,1.12,1.12,0,0,0-.91-.38,1.31,1.31,0,0,0-1,.4,1.83,1.83,0,0,0-.48,1.06Z"/><path class="cls-6" d="M93.62,161.39v-.86a2.35,2.35,0,0,0,1.44.48c.7,0,1-.23,1-.7A.62.62,0,0,0,96,160a1.12,1.12,0,0,0-.24-.25,2.55,2.55,0,0,0-.37-.19l-.44-.18c-.22-.09-.42-.17-.59-.26a1.9,1.9,0,0,1-.42-.31,1.19,1.19,0,0,1-.25-.38,1.28,1.28,0,0,1-.08-.5,1.21,1.21,0,0,1,.16-.63,1.32,1.32,0,0,1,.43-.45,2.28,2.28,0,0,1,.61-.28,2.82,2.82,0,0,1,.71-.09,2.86,2.86,0,0,1,1.16.23v.81a2.27,2.27,0,0,0-1.27-.36,1.25,1.25,0,0,0-.4.05.89.89,0,0,0-.31.14.6.6,0,0,0-.27.51.67.67,0,0,0,.07.33.7.7,0,0,0,.2.23,2.17,2.17,0,0,0,.34.19l.44.18a5.68,5.68,0,0,1,.6.26,2.52,2.52,0,0,1,.45.3,1.18,1.18,0,0,1,.38.91,1.25,1.25,0,0,1-.16.65,1.45,1.45,0,0,1-.44.45,2,2,0,0,1-.63.27,3.08,3.08,0,0,1-.75.09A2.78,2.78,0,0,1,93.62,161.39Z"/><path class="cls-6" d="M101.7,161.57h-.8v-7.4h.8Z"/><path class="cls-6" d="M107.34,159.27h-3.53a1.83,1.83,0,0,0,.45,1.29,1.56,1.56,0,0,0,1.18.45,2.45,2.45,0,0,0,1.55-.55v.75a2.89,2.89,0,0,1-1.74.48,2.1,2.1,0,0,1-1.66-.68,2.78,2.78,0,0,1-.61-1.92,2.73,2.73,0,0,1,.66-1.9,2.13,2.13,0,0,1,1.65-.74,1.84,1.84,0,0,1,1.51.64,2.63,2.63,0,0,1,.54,1.76Zm-.82-.68a1.62,1.62,0,0,0-.33-1.08,1.14,1.14,0,0,0-.92-.38,1.28,1.28,0,0,0-1,.4,1.84,1.84,0,0,0-.49,1.06Z"/><path class="cls-6" d="M112.6,161.57h-.81v-.79h0a1.67,1.67,0,0,1-1.55.91c-1.19,0-1.79-.71-1.79-2.13v-3h.8v2.86c0,1.06.4,1.58,1.21,1.58a1.24,1.24,0,0,0,1-.43,1.65,1.65,0,0,0,.37-1.13v-2.88h.81Z"/><path class="cls-6" d="M116.82,157.38a1,1,0,0,0-.61-.16,1,1,0,0,0-.85.48A2.22,2.22,0,0,0,115,159v2.55h-.8v-5h.8v1h0a1.79,1.79,0,0,1,.52-.82,1.2,1.2,0,0,1,.79-.3,1.22,1.22,0,0,1,.48.07Z"/><path class="cls-6" d="M117.38,161.39v-.86a2.4,2.4,0,0,0,1.44.48c.71,0,1.06-.23,1.06-.7a.62.62,0,0,0-.09-.34,1,1,0,0,0-.25-.25,2,2,0,0,0-.36-.19l-.44-.18c-.22-.09-.42-.17-.59-.26a1.9,1.9,0,0,1-.42-.31,1.19,1.19,0,0,1-.25-.38,1.28,1.28,0,0,1-.09-.5,1.21,1.21,0,0,1,.17-.63,1.39,1.39,0,0,1,.42-.45,2.34,2.34,0,0,1,.62-.28,2.76,2.76,0,0,1,.71-.09,2.86,2.86,0,0,1,1.16.23v.81a2.27,2.27,0,0,0-1.27-.36,1.25,1.25,0,0,0-.4.05.89.89,0,0,0-.31.14.58.58,0,0,0-.28.51.81.81,0,0,0,.07.33.9.9,0,0,0,.21.23,1.69,1.69,0,0,0,.33.19l.45.18a4.72,4.72,0,0,1,.59.26,2,2,0,0,1,.45.3,1.11,1.11,0,0,1,.29.39,1.21,1.21,0,0,1,.1.52,1.25,1.25,0,0,1-.16.65,1.45,1.45,0,0,1-.44.45,2,2,0,0,1-.63.27,3.08,3.08,0,0,1-.75.09A2.85,2.85,0,0,1,117.38,161.39Z"/><path class="cls-6" d="M125.49,160.85h0v3h-.8v-7.3h.8v.88h0a1.88,1.88,0,0,1,1.73-1,1.86,1.86,0,0,1,1.51.67,2.8,2.8,0,0,1,.54,1.8,3.07,3.07,0,0,1-.61,2,2,2,0,0,1-1.67.76A1.67,1.67,0,0,1,125.49,160.85Zm0-2v.7a1.53,1.53,0,0,0,.4,1.05,1.45,1.45,0,0,0,2.17-.12,2.62,2.62,0,0,0,.41-1.55,2,2,0,0,0-.39-1.31,1.24,1.24,0,0,0-1-.47,1.41,1.41,0,0,0-1.12.48A1.77,1.77,0,0,0,125.47,158.83Z"/><path class="cls-6" d="M134.59,161.57h-.8v-.79h0a1.66,1.66,0,0,1-1.54.91c-1.19,0-1.79-.71-1.79-2.13v-3h.8v2.86c0,1.06.4,1.58,1.21,1.58a1.21,1.21,0,0,0,1-.43,1.66,1.66,0,0,0,.38-1.13v-2.88h.8Z"/><path class="cls-6" d="M137,160.85h0v.72h-.8v-7.4h.8v3.28h0a1.88,1.88,0,0,1,1.73-1,1.84,1.84,0,0,1,1.5.67,2.74,2.74,0,0,1,.55,1.8,3.13,3.13,0,0,1-.61,2,2,2,0,0,1-1.67.76A1.65,1.65,0,0,1,137,160.85Zm0-2v.7a1.48,1.48,0,0,0,.4,1.05,1.44,1.44,0,0,0,2.16-.12,2.55,2.55,0,0,0,.42-1.55,2,2,0,0,0-.39-1.31,1.26,1.26,0,0,0-1-.47,1.44,1.44,0,0,0-1.13.48A1.81,1.81,0,0,0,137,158.83Z"/><path class="cls-6" d="M142.89,161.57h-.8v-7.4h.8Z"/><path class="cls-6" d="M144.92,155.3a.51.51,0,0,1-.37-.15.48.48,0,0,1-.15-.37.5.5,0,0,1,.15-.37.51.51,0,0,1,.37-.15.5.5,0,0,1,.37.15.51.51,0,0,1,0,.74A.5.5,0,0,1,144.92,155.3Zm.39,6.27h-.8v-5h.8Z"/><path class="cls-6" d="M150.34,161.34a2.63,2.63,0,0,1-1.37.35,2.3,2.3,0,0,1-1.73-.7,2.53,2.53,0,0,1-.65-1.8,2.74,2.74,0,0,1,.71-2,2.47,2.47,0,0,1,1.89-.75,2.54,2.54,0,0,1,1.16.25v.82a2,2,0,0,0-1.19-.39,1.61,1.61,0,0,0-1.26.55,2,2,0,0,0-.49,1.44,2,2,0,0,0,.46,1.38,1.59,1.59,0,0,0,1.24.51,2,2,0,0,0,1.23-.43Z"/><path class="cls-6" d="M155.13,161.57h-.8v-.78h0a1.68,1.68,0,0,1-1.54.9,1.66,1.66,0,0,1-1.17-.4,1.36,1.36,0,0,1-.42-1c0-.93.55-1.48,1.65-1.63l1.5-.21c0-.85-.35-1.27-1-1.27a2.43,2.43,0,0,0-1.63.61v-.82a3.1,3.1,0,0,1,1.7-.47c1.17,0,1.76.62,1.76,1.87Zm-.8-2.53-1.21.17a2,2,0,0,0-.84.27.79.79,0,0,0-.28.7.76.76,0,0,0,.26.6,1,1,0,0,0,.7.23,1.31,1.31,0,0,0,1-.41,1.51,1.51,0,0,0,.39-1.06Z"/><path class="cls-6" d="M159,161.52a1.61,1.61,0,0,1-.75.16c-.88,0-1.31-.49-1.31-1.47v-3H156v-.68h.86v-1.22l.8-.26v1.48H159v.68H157.7v2.82a1.14,1.14,0,0,0,.17.72.68.68,0,0,0,.56.21.86.86,0,0,0,.53-.16Z"/><path class="cls-6" d="M160.44,155.3a.5.5,0,0,1-.37-.15.48.48,0,0,1-.15-.37.51.51,0,0,1,.52-.52.51.51,0,0,1,.37.15.53.53,0,0,1,0,.74A.51.51,0,0,1,160.44,155.3Zm.39,6.27H160v-5h.8Z"/><path class="cls-6" d="M164.54,161.69a2.34,2.34,0,0,1-1.77-.7,2.61,2.61,0,0,1-.66-1.86,2.74,2.74,0,0,1,.68-2,2.49,2.49,0,0,1,1.86-.71,2.25,2.25,0,0,1,1.75.69,2.73,2.73,0,0,1,.63,1.91,2.7,2.7,0,0,1-.68,1.92A2.36,2.36,0,0,1,164.54,161.69Zm.06-4.56a1.51,1.51,0,0,0-1.22.52,2.15,2.15,0,0,0-.45,1.45,2,2,0,0,0,.45,1.4,1.55,1.55,0,0,0,1.22.51,1.45,1.45,0,0,0,1.19-.5,2.18,2.18,0,0,0,.42-1.43,2.22,2.22,0,0,0-.42-1.45A1.48,1.48,0,0,0,164.6,157.13Z"/><path class="cls-6" d="M172.46,161.57h-.8v-2.85q0-1.59-1.17-1.59a1.25,1.25,0,0,0-1,.45,1.68,1.68,0,0,0-.39,1.14v2.85h-.8v-5h.8v.83h0a1.81,1.81,0,0,1,1.64-1A1.53,1.53,0,0,1,172,157a2.36,2.36,0,0,1,.44,1.53Z"/><path class="cls-6" d="M173.66,161.39v-.86a2.4,2.4,0,0,0,1.44.48c.71,0,1.06-.23,1.06-.7a.62.62,0,0,0-.09-.34,1,1,0,0,0-.25-.25,2,2,0,0,0-.36-.19l-.44-.18a5.71,5.71,0,0,1-.59-.26,1.7,1.7,0,0,1-.42-.31,1.19,1.19,0,0,1-.25-.38,1.28,1.28,0,0,1-.09-.5,1.31,1.31,0,0,1,.16-.63,1.54,1.54,0,0,1,.43-.45,2.34,2.34,0,0,1,.62-.28,2.76,2.76,0,0,1,.71-.09,2.86,2.86,0,0,1,1.16.23v.81a2.27,2.27,0,0,0-1.27-.36,1.32,1.32,0,0,0-.41.05.83.83,0,0,0-.3.14.58.58,0,0,0-.28.51.81.81,0,0,0,.07.33.9.9,0,0,0,.21.23,1.69,1.69,0,0,0,.33.19l.45.18a4.72,4.72,0,0,1,.59.26,2,2,0,0,1,.45.3,1.11,1.11,0,0,1,.29.39,1.21,1.21,0,0,1,.1.52,1.36,1.36,0,0,1-.16.65,1.45,1.45,0,0,1-.44.45,2,2,0,0,1-.63.27,3.08,3.08,0,0,1-.75.09A2.85,2.85,0,0,1,173.66,161.39Z"/><path class="cls-6" d="M185.22,161.57h-.8v-.85h0a1.87,1.87,0,0,1-1.72,1,1.9,1.9,0,0,1-1.51-.67,2.74,2.74,0,0,1-.56-1.83,3,3,0,0,1,.62-2,2.06,2.06,0,0,1,1.67-.75,1.62,1.62,0,0,1,1.5.81h0v-3.09h.8Zm-.8-2.26v-.74a1.45,1.45,0,0,0-.4-1,1.36,1.36,0,0,0-1-.42,1.39,1.39,0,0,0-1.15.53,2.38,2.38,0,0,0-.42,1.49,2.1,2.1,0,0,0,.4,1.36,1.3,1.3,0,0,0,1.08.5,1.38,1.38,0,0,0,1.09-.48A1.79,1.79,0,0,0,184.42,159.31Z"/><path class="cls-6" d="M190.42,161.57h-.8v-.78h0a1.69,1.69,0,0,1-1.54.9,1.66,1.66,0,0,1-1.17-.4,1.36,1.36,0,0,1-.42-1c0-.93.55-1.48,1.65-1.63l1.5-.21c0-.85-.35-1.27-1-1.27a2.47,2.47,0,0,0-1.64.61v-.82a3.15,3.15,0,0,1,1.7-.47c1.18,0,1.77.62,1.77,1.87Zm-.8-2.53-1.21.17a2,2,0,0,0-.84.27.79.79,0,0,0-.28.7.73.73,0,0,0,.26.6,1,1,0,0,0,.69.23,1.32,1.32,0,0,0,1-.41,1.51,1.51,0,0,0,.39-1.06Z"/><path class="cls-6" d="M196.08,161.57h-.8v-2.85q0-1.59-1.17-1.59a1.25,1.25,0,0,0-1,.45,1.68,1.68,0,0,0-.39,1.14v2.85h-.8v-5h.8v.83h0a1.8,1.8,0,0,1,1.64-1,1.54,1.54,0,0,1,1.25.53,2.36,2.36,0,0,1,.44,1.53Z"/><path class="cls-6" d="M197.28,161.39v-.86a2.4,2.4,0,0,0,1.44.48c.71,0,1.06-.23,1.06-.7a.62.62,0,0,0-.09-.34,1,1,0,0,0-.25-.25,2,2,0,0,0-.36-.19l-.45-.18c-.22-.09-.41-.17-.58-.26a1.53,1.53,0,0,1-.42-.31,1,1,0,0,1-.25-.38,1.28,1.28,0,0,1-.09-.5,1.31,1.31,0,0,1,.16-.63,1.42,1.42,0,0,1,.43-.45,2.43,2.43,0,0,1,.61-.28,2.9,2.9,0,0,1,.72-.09,2.86,2.86,0,0,1,1.16.23v.81a2.27,2.27,0,0,0-1.27-.36,1.32,1.32,0,0,0-.41.05,1,1,0,0,0-.31.14.83.83,0,0,0-.2.22.73.73,0,0,0-.07.29.81.81,0,0,0,.07.33.9.9,0,0,0,.21.23,1.69,1.69,0,0,0,.33.19l.45.18a4.72,4.72,0,0,1,.59.26,2,2,0,0,1,.45.3,1.11,1.11,0,0,1,.29.39,1.38,1.38,0,0,1,.1.52,1.26,1.26,0,0,1-.17.65,1.42,1.42,0,0,1-.43.45,2.22,2.22,0,0,1-.63.27,3.08,3.08,0,0,1-.75.09A2.85,2.85,0,0,1,197.28,161.39Z"/><path class="cls-6" d="M71.19,173.57h-.8v-7.4h.8Z"/><path class="cls-6" d="M73.51,166.57v2.18H72.8v-2.18Z"/><path class="cls-6" d="M80.64,173.57h-.91l-.74-2H76l-.7,2h-.91l2.69-7H78Zm-1.92-2.7-1.1-3a3.27,3.27,0,0,1-.1-.47h0a2.63,2.63,0,0,1-.12.47l-1.08,3Z"/><path class="cls-6" d="M84.17,169.38a1,1,0,0,0-.6-.16,1,1,0,0,0-.86.48,2.23,2.23,0,0,0-.34,1.32v2.55h-.81v-5h.81v1h0a1.72,1.72,0,0,1,.53-.82,1.16,1.16,0,0,1,.78-.3,1.22,1.22,0,0,1,.48.07Z"/><path class="cls-6" d="M88.45,173.34a2.61,2.61,0,0,1-1.37.35,2.26,2.26,0,0,1-1.72-.7,2.5,2.5,0,0,1-.66-1.8,2.78,2.78,0,0,1,.71-2,2.47,2.47,0,0,1,1.89-.75,2.54,2.54,0,0,1,1.16.25v.82a2,2,0,0,0-1.19-.39,1.61,1.61,0,0,0-1.26.55,2,2,0,0,0-.49,1.44A2,2,0,0,0,86,172.5a1.59,1.59,0,0,0,1.24.51,2,2,0,0,0,1.23-.43Z"/><path class="cls-6" d="M93.81,173.57H93v-2.88c0-1-.39-1.56-1.16-1.56a1.28,1.28,0,0,0-1,.45,1.67,1.67,0,0,0-.4,1.16v2.83h-.8v-7.4h.8v3.23h0a1.82,1.82,0,0,1,1.64-1c1.13,0,1.69.68,1.69,2Z"/><path class="cls-6" d="M95.73,167.3a.51.51,0,0,1-.37-.15.48.48,0,0,1-.15-.37.5.5,0,0,1,.15-.37.51.51,0,0,1,.37-.15.5.5,0,0,1,.37.15.51.51,0,0,1,0,.74A.5.5,0,0,1,95.73,167.3Zm.39,6.27h-.8v-5h.8Z"/><path class="cls-6" d="M101.67,168.57l-2,5h-.79l-1.89-5h.88l1.27,3.63a3.34,3.34,0,0,1,.17.7h0a4,4,0,0,1,.16-.68l1.33-3.65Z"/><path class="cls-6" d="M106.55,171.27H103a1.83,1.83,0,0,0,.45,1.29,1.56,1.56,0,0,0,1.18.45,2.45,2.45,0,0,0,1.55-.55v.75a2.89,2.89,0,0,1-1.74.48,2.1,2.1,0,0,1-1.66-.68,2.78,2.78,0,0,1-.61-1.92,2.73,2.73,0,0,1,.66-1.9,2.12,2.12,0,0,1,1.64-.74,1.86,1.86,0,0,1,1.52.64,2.63,2.63,0,0,1,.54,1.76Zm-.82-.68a1.68,1.68,0,0,0-.33-1.08,1.14,1.14,0,0,0-.92-.38,1.28,1.28,0,0,0-1,.4,1.78,1.78,0,0,0-.49,1.06Z"/><path class="cls-6" d="M112.59,173.69a2.34,2.34,0,0,1-1.77-.7,2.61,2.61,0,0,1-.66-1.86,2.7,2.7,0,0,1,.69-2,2.49,2.49,0,0,1,1.86-.71,2.24,2.24,0,0,1,1.74.69,2.73,2.73,0,0,1,.63,1.91,2.65,2.65,0,0,1-.68,1.92A2.36,2.36,0,0,1,112.59,173.69Zm.06-4.56a1.51,1.51,0,0,0-1.22.52,2.15,2.15,0,0,0-.45,1.45,2,2,0,0,0,.45,1.4,1.56,1.56,0,0,0,1.22.51,1.44,1.44,0,0,0,1.19-.5,2.18,2.18,0,0,0,.42-1.43,2.22,2.22,0,0,0-.42-1.45A1.47,1.47,0,0,0,112.65,169.13Z"/><path class="cls-6" d="M120.4,173.57h-.8v-.79h0a1.66,1.66,0,0,1-1.54.91c-1.19,0-1.79-.71-1.79-2.13v-3h.8v2.86c0,1.06.4,1.58,1.21,1.58a1.21,1.21,0,0,0,1-.43,1.61,1.61,0,0,0,.38-1.13v-2.88h.8Z"/><path class="cls-6" d="M126,168.57l-2,5h-.79l-1.89-5h.87l1.27,3.63a2.89,2.89,0,0,1,.18.7h0a2.71,2.71,0,0,1,.16-.68l1.32-3.65Z"/><path class="cls-6" d="M130.83,171.27H127.3a1.83,1.83,0,0,0,.45,1.29,1.54,1.54,0,0,0,1.18.45,2.45,2.45,0,0,0,1.55-.55v.75a2.89,2.89,0,0,1-1.74.48,2.14,2.14,0,0,1-1.67-.68,2.83,2.83,0,0,1-.6-1.92,2.73,2.73,0,0,1,.66-1.9,2.12,2.12,0,0,1,1.64-.74,1.86,1.86,0,0,1,1.52.64,2.63,2.63,0,0,1,.54,1.76Zm-.82-.68a1.68,1.68,0,0,0-.34-1.08,1.12,1.12,0,0,0-.91-.38,1.31,1.31,0,0,0-1,.4,1.83,1.83,0,0,0-.48,1.06Z"/><path class="cls-6" d="M134.65,169.38a1,1,0,0,0-.61-.16,1,1,0,0,0-.86.48,2.23,2.23,0,0,0-.34,1.32v2.55H132v-5h.8v1h0a1.71,1.71,0,0,1,.52-.82,1.18,1.18,0,0,1,.79-.3,1.28,1.28,0,0,1,.48.07Z"/><path class="cls-6" d="M137.83,173.52a1.53,1.53,0,0,1-.74.16q-1.32,0-1.32-1.47v-3h-.86v-.68h.86v-1.22l.8-.26v1.48h1.26v.68h-1.26v2.82a1.21,1.21,0,0,0,.17.72.71.71,0,0,0,.57.21.83.83,0,0,0,.52-.16Z"/><path class="cls-6" d="M142.92,171.27h-3.53a1.83,1.83,0,0,0,.45,1.29A1.56,1.56,0,0,0,141,173a2.43,2.43,0,0,0,1.55-.55v.75a2.87,2.87,0,0,1-1.74.48,2.12,2.12,0,0,1-1.66-.68,2.78,2.78,0,0,1-.61-1.92,2.73,2.73,0,0,1,.66-1.9,2.13,2.13,0,0,1,1.65-.74,1.84,1.84,0,0,1,1.51.64,2.63,2.63,0,0,1,.54,1.76Zm-.82-.68a1.62,1.62,0,0,0-.33-1.08,1.14,1.14,0,0,0-.92-.38,1.28,1.28,0,0,0-1,.4,1.84,1.84,0,0,0-.49,1.06Z"/><path class="cls-6" d="M152.1,170.74c0,2-.89,2.95-2.66,2.95s-2.55-.95-2.55-2.84v-4.28h.82v4.23c0,1.43.61,2.15,1.82,2.15s1.75-.69,1.75-2.08v-4.3h.82Z"/><path class="cls-6" d="M159.49,173.57h-1L154.88,168a2.58,2.58,0,0,1-.22-.44h0a6.5,6.5,0,0,1,0,1v5.06h-.82v-7h1.06l3.51,5.49a4.12,4.12,0,0,1,.28.47h0a7.82,7.82,0,0,1-.05-1v-4.93h.82Z"/><path class="cls-6" d="M162.15,173.57h-.82v-7h.82Z"/><path class="cls-6" d="M169.23,173.09a4.7,4.7,0,0,1-2.35.6,3.2,3.2,0,0,1-2.42-1,3.53,3.53,0,0,1-.93-2.56,3.64,3.64,0,0,1,1-2.67,3.5,3.5,0,0,1,2.6-1,4.35,4.35,0,0,1,1.92.37v.91a3.64,3.64,0,0,0-2-.54,2.52,2.52,0,0,0-1.93.81,3.39,3.39,0,0,0,0,4.19A2.44,2.44,0,0,0,167,173a2.89,2.89,0,0,0,1.42-.33v-2h-1.53v-.74h2.36Z"/><path class="cls-6" d="M174.56,173.57h-3.71v-7h3.56v.74h-2.74v2.33h2.53v.74h-2.53v2.45h2.89Z"/><path class="cls-6" d="M176.08,173.68a.55.55,0,0,1-.38-.94.49.49,0,0,1,.38-.16.55.55,0,0,1,.39.94A.57.57,0,0,1,176.08,173.68Z"/><path class="cls-6" d="M75.52,209.57h-1l-1.17-2a4.26,4.26,0,0,0-.31-.47,1.81,1.81,0,0,0-.31-.31.86.86,0,0,0-.34-.18,1.37,1.37,0,0,0-.42-.06h-.67v3H70.5v-7h2.09a3.24,3.24,0,0,1,.85.11,1.86,1.86,0,0,1,.67.35,1.66,1.66,0,0,1,.45.59,1.86,1.86,0,0,1,.16.81,2,2,0,0,1-.11.67,1.74,1.74,0,0,1-.31.55,2.18,2.18,0,0,1-.49.41,2.6,2.6,0,0,1-.64.26v0a1.49,1.49,0,0,1,.3.18,1.34,1.34,0,0,1,.25.23c.08.09.15.2.23.31l.26.4Zm-4.2-6.26v2.54h1.11a1.7,1.7,0,0,0,.57-.09,1.28,1.28,0,0,0,.75-.69,1.48,1.48,0,0,0,.11-.57,1.12,1.12,0,0,0-.36-.88,1.6,1.6,0,0,0-1.06-.31Z"/><path class="cls-6" d="M80.1,207.27H76.57a1.83,1.83,0,0,0,.45,1.29,1.56,1.56,0,0,0,1.18.45,2.45,2.45,0,0,0,1.55-.55v.75a2.89,2.89,0,0,1-1.74.48,2.14,2.14,0,0,1-1.67-.68,2.83,2.83,0,0,1-.6-1.92,2.73,2.73,0,0,1,.66-1.9,2.12,2.12,0,0,1,1.64-.74,1.86,1.86,0,0,1,1.52.64,2.63,2.63,0,0,1,.54,1.76Zm-.82-.68a1.62,1.62,0,0,0-.34-1.08,1.1,1.1,0,0,0-.91-.38,1.28,1.28,0,0,0-1,.4,1.81,1.81,0,0,0-.49,1.06ZM79.15,202l-1.28,1.6h-.62l1.09-1.6Z"/><path class="cls-6" d="M82.13,208.85h0v3h-.8v-7.3h.8v.88h0a1.89,1.89,0,0,1,1.73-1,1.86,1.86,0,0,1,1.51.67,2.8,2.8,0,0,1,.54,1.8,3.07,3.07,0,0,1-.61,2,2,2,0,0,1-1.67.76A1.67,1.67,0,0,1,82.13,208.85Zm0-2v.7a1.53,1.53,0,0,0,.4,1.05,1.45,1.45,0,0,0,2.17-.12,2.62,2.62,0,0,0,.41-1.55,2,2,0,0,0-.39-1.31,1.24,1.24,0,0,0-1-.47,1.41,1.41,0,0,0-1.12.48A1.77,1.77,0,0,0,82.11,206.83Z"/><path class="cls-6" d="M89.28,209.69a2.34,2.34,0,0,1-1.77-.7,2.61,2.61,0,0,1-.66-1.86,2.7,2.7,0,0,1,.69-2,2.49,2.49,0,0,1,1.86-.71,2.24,2.24,0,0,1,1.74.69,2.73,2.73,0,0,1,.63,1.91,2.7,2.7,0,0,1-.68,1.92A2.36,2.36,0,0,1,89.28,209.69Zm.06-4.56a1.51,1.51,0,0,0-1.22.52,2.15,2.15,0,0,0-.45,1.45,2,2,0,0,0,.45,1.4,1.55,1.55,0,0,0,1.22.51,1.44,1.44,0,0,0,1.19-.5,2.18,2.18,0,0,0,.42-1.43,2.22,2.22,0,0,0-.42-1.45A1.47,1.47,0,0,0,89.34,205.13Z"/><path class="cls-6" d="M97.2,209.57h-.8v-2.85c0-1.06-.39-1.59-1.16-1.59a1.29,1.29,0,0,0-1,.45,1.68,1.68,0,0,0-.39,1.14v2.85h-.8v-5h.8v.83h0a1.81,1.81,0,0,1,1.64-1,1.51,1.51,0,0,1,1.25.53,2.36,2.36,0,0,1,.44,1.53Z"/><path class="cls-6" d="M98.41,209.39v-.86a2.35,2.35,0,0,0,1.44.48c.7,0,1.05-.23,1.05-.7a.62.62,0,0,0-.09-.34,1.12,1.12,0,0,0-.24-.25,2.55,2.55,0,0,0-.37-.19l-.44-.18c-.22-.09-.42-.17-.59-.26a1.9,1.9,0,0,1-.42-.31,1.19,1.19,0,0,1-.25-.38,1.28,1.28,0,0,1-.08-.5,1.15,1.15,0,0,1,.16-.62,1.26,1.26,0,0,1,.43-.46,2.28,2.28,0,0,1,.61-.28,2.82,2.82,0,0,1,.71-.09,2.86,2.86,0,0,1,1.16.23v.81a2.27,2.27,0,0,0-1.27-.36,1.25,1.25,0,0,0-.4.05.89.89,0,0,0-.31.14.6.6,0,0,0-.27.51.67.67,0,0,0,.07.33.7.7,0,0,0,.2.23,2.17,2.17,0,0,0,.34.19l.44.18a5.68,5.68,0,0,1,.6.26,2.52,2.52,0,0,1,.45.3,1.18,1.18,0,0,1,.38.91,1.25,1.25,0,0,1-.16.65,1.45,1.45,0,0,1-.44.45,2,2,0,0,1-.63.27,3.08,3.08,0,0,1-.75.09A2.78,2.78,0,0,1,98.41,209.39Z"/><path class="cls-6" d="M107,207.27h-3.53a1.83,1.83,0,0,0,.45,1.29,1.56,1.56,0,0,0,1.18.45,2.45,2.45,0,0,0,1.55-.55v.75a2.89,2.89,0,0,1-1.74.48,2.14,2.14,0,0,1-1.67-.68,2.83,2.83,0,0,1-.6-1.92,2.73,2.73,0,0,1,.66-1.9,2.12,2.12,0,0,1,1.64-.74,1.86,1.86,0,0,1,1.52.64,2.63,2.63,0,0,1,.54,1.76Zm-.82-.68a1.68,1.68,0,0,0-.33-1.08,1.14,1.14,0,0,0-.92-.38,1.28,1.28,0,0,0-1,.4,1.81,1.81,0,0,0-.49,1.06Z"/><path class="cls-6" d="M111.2,205.55a.54.54,0,0,1-.39-.17.56.56,0,0,1,0-.76.56.56,0,0,1,.78,0,.53.53,0,0,1,0,.76A.54.54,0,0,1,111.2,205.55Zm0,4.13a.57.57,0,0,1-.39-.16.58.58,0,0,1,0-.78.55.55,0,0,1,.78.78A.57.57,0,0,1,111.2,209.68Z"/><path class="cls-6" d="M121.14,202.57l-2.59,7h-.91l-2.54-7H116l1.94,5.55a3.17,3.17,0,0,1,.14.62h0a2.65,2.65,0,0,1,.16-.63l2-5.54Z"/><path class="cls-6" d="M124.27,205.38a1,1,0,0,0-.6-.16,1,1,0,0,0-.86.48,2.23,2.23,0,0,0-.34,1.32v2.55h-.8v-5h.8v1h0a1.71,1.71,0,0,1,.52-.82,1.31,1.31,0,0,1,1.26-.23Z"/><path class="cls-6" d="M128.72,209.57h-.8v-.78h0a1.82,1.82,0,0,1-2.71.5,1.36,1.36,0,0,1-.42-1c0-.93.55-1.48,1.65-1.63l1.5-.21c0-.85-.34-1.27-1-1.27a2.47,2.47,0,0,0-1.63.61v-.82a3.12,3.12,0,0,1,1.7-.47c1.17,0,1.76.62,1.76,1.87Zm-.8-2.53-1.2.17a1.88,1.88,0,0,0-.84.27.8.8,0,0,0-.29.7.76.76,0,0,0,.26.6,1,1,0,0,0,.7.23,1.3,1.3,0,0,0,1-.41,1.51,1.51,0,0,0,.39-1.06Z"/><path class="cls-6" d="M130.64,203.3a.49.49,0,0,1-.36-.15.46.46,0,0,1-.16-.37.47.47,0,0,1,.16-.37.49.49,0,0,1,.36-.15.5.5,0,0,1,.37.15.51.51,0,0,1,0,.74A.5.5,0,0,1,130.64,203.3Zm.39,6.27h-.8v-5h.8Z"/><path class="cls-6" d="M74.13,224.57H70.5v-7h.82v6.26h2.81Z"/><path class="cls-6" d="M78.68,224.57h-.8v-.78h0a1.68,1.68,0,0,1-1.54.9,1.66,1.66,0,0,1-1.17-.4,1.36,1.36,0,0,1-.42-1c0-.93.55-1.48,1.65-1.63l1.5-.21c0-.85-.35-1.27-1-1.27a2.45,2.45,0,0,0-1.63.61v-.82a3.12,3.12,0,0,1,1.7-.47c1.17,0,1.76.62,1.76,1.87Zm-.8-2.53-1.21.17a2,2,0,0,0-.84.27.79.79,0,0,0-.28.7.76.76,0,0,0,.26.6,1,1,0,0,0,.7.23,1.31,1.31,0,0,0,1-.41,1.51,1.51,0,0,0,.39-1.06Z"/><path class="cls-6" d="M87.19,224.57h-.8v-.85h0a1.85,1.85,0,0,1-1.71,1,1.9,1.9,0,0,1-1.51-.67,2.74,2.74,0,0,1-.56-1.83,3,3,0,0,1,.62-2,2.06,2.06,0,0,1,1.67-.75,1.59,1.59,0,0,1,1.49.81h0v-3.09h.8Zm-.8-2.26v-.74a1.41,1.41,0,0,0-.4-1,1.32,1.32,0,0,0-1-.42,1.39,1.39,0,0,0-1.15.53,2.38,2.38,0,0,0-.42,1.49,2.1,2.1,0,0,0,.4,1.36,1.3,1.3,0,0,0,1.08.5,1.38,1.38,0,0,0,1.09-.48A1.84,1.84,0,0,0,86.39,222.31Z"/><path class="cls-6" d="M89.23,218.3a.5.5,0,0,1-.37-.15.48.48,0,0,1-.15-.37.51.51,0,0,1,.52-.52.51.51,0,0,1,.37.15.53.53,0,0,1,0,.74A.51.51,0,0,1,89.23,218.3Zm.39,6.27h-.8v-5h.8Z"/><path class="cls-6" d="M93.84,220.38a1,1,0,0,0-.6-.16,1,1,0,0,0-.86.48A2.23,2.23,0,0,0,92,222v2.55h-.8v-5H92v1h0a1.71,1.71,0,0,1,.52-.82,1.31,1.31,0,0,1,1.26-.23Z"/><path class="cls-6" d="M98.73,222.27H95.2a1.88,1.88,0,0,0,.45,1.29,1.56,1.56,0,0,0,1.18.45,2.48,2.48,0,0,0,1.56-.55v.75a2.9,2.9,0,0,1-1.75.48A2.12,2.12,0,0,1,95,224a2.78,2.78,0,0,1-.61-1.92,2.73,2.73,0,0,1,.66-1.9,2.13,2.13,0,0,1,1.65-.74,1.87,1.87,0,0,1,1.52.64,2.68,2.68,0,0,1,.53,1.76Zm-.82-.68a1.62,1.62,0,0,0-.33-1.08,1.14,1.14,0,0,0-.92-.38,1.28,1.28,0,0,0-1,.4,1.87,1.87,0,0,0-.49,1.06Z"/><path class="cls-6" d="M103.35,224.34a2.61,2.61,0,0,1-1.37.35,2.24,2.24,0,0,1-1.72-.7,2.5,2.5,0,0,1-.66-1.8,2.78,2.78,0,0,1,.71-2,2.47,2.47,0,0,1,1.89-.75,2.51,2.51,0,0,1,1.16.25v.82a2,2,0,0,0-1.19-.39,1.61,1.61,0,0,0-1.26.55,2.09,2.09,0,0,0-.49,1.44,2,2,0,0,0,.46,1.38,1.59,1.59,0,0,0,1.24.51,2,2,0,0,0,1.23-.43Z"/><path class="cls-6" d="M106.88,224.52a1.61,1.61,0,0,1-.75.16c-.87,0-1.31-.49-1.31-1.47v-3H104v-.68h.86v-1.22l.8-.26v1.48h1.26v.68h-1.26v2.82a1.19,1.19,0,0,0,.17.72.71.71,0,0,0,.57.21.83.83,0,0,0,.52-.16Z"/><path class="cls-6" d="M108.36,218.3a.49.49,0,0,1-.36-.15.46.46,0,0,1-.16-.37.47.47,0,0,1,.16-.37.49.49,0,0,1,.36-.15.5.5,0,0,1,.37.15.51.51,0,0,1,0,.74A.5.5,0,0,1,108.36,218.3Zm.39,6.27H108v-5h.8Z"/><path class="cls-6" d="M114.3,219.57l-2,5h-.78l-1.9-5h.88l1.27,3.63a3.34,3.34,0,0,1,.17.7h0a4,4,0,0,1,.16-.68l1.33-3.65Z"/><path class="cls-6" d="M119.18,222.27h-3.53a1.88,1.88,0,0,0,.45,1.29,1.56,1.56,0,0,0,1.18.45,2.48,2.48,0,0,0,1.56-.55v.75a2.9,2.9,0,0,1-1.75.48,2.12,2.12,0,0,1-1.66-.68,2.78,2.78,0,0,1-.61-1.92,2.73,2.73,0,0,1,.66-1.9,2.13,2.13,0,0,1,1.65-.74,1.87,1.87,0,0,1,1.52.64,2.68,2.68,0,0,1,.53,1.76Zm-.82-.68a1.62,1.62,0,0,0-.33-1.08,1.14,1.14,0,0,0-.92-.38,1.28,1.28,0,0,0-1,.4,1.87,1.87,0,0,0-.49,1.06Z"/><path class="cls-6" d="M126.71,224.57h-.8v-.78h0a1.82,1.82,0,0,1-2.71.5,1.36,1.36,0,0,1-.42-1c0-.93.55-1.48,1.65-1.63l1.5-.21c0-.85-.34-1.27-1-1.27a2.45,2.45,0,0,0-1.63.61v-.82a3.12,3.12,0,0,1,1.7-.47c1.17,0,1.76.62,1.76,1.87Zm-.8-2.53-1.21.17a2,2,0,0,0-.84.27.82.82,0,0,0-.28.7.76.76,0,0,0,.26.6,1,1,0,0,0,.7.23,1.3,1.3,0,0,0,1-.41,1.51,1.51,0,0,0,.39-1.06Z"/><path class="cls-6" d="M129,223.85h0v3h-.8v-7.3h.8v.88h0a1.88,1.88,0,0,1,1.73-1,1.86,1.86,0,0,1,1.51.67,2.8,2.8,0,0,1,.54,1.8,3.07,3.07,0,0,1-.61,2,2,2,0,0,1-1.67.76A1.67,1.67,0,0,1,129,223.85Zm0-2v.7a1.53,1.53,0,0,0,.4,1.05,1.45,1.45,0,0,0,2.17-.12,2.62,2.62,0,0,0,.41-1.55,2,2,0,0,0-.39-1.31,1.24,1.24,0,0,0-1-.47,1.41,1.41,0,0,0-1.12.48A1.77,1.77,0,0,0,129,221.83Z"/><path class="cls-6" d="M134.92,223.85h0v3h-.8v-7.3h.8v.88h0a1.88,1.88,0,0,1,1.73-1,1.86,1.86,0,0,1,1.51.67,2.8,2.8,0,0,1,.54,1.8,3.07,3.07,0,0,1-.61,2,2,2,0,0,1-1.67.76A1.67,1.67,0,0,1,134.92,223.85Zm0-2v.7a1.48,1.48,0,0,0,.4,1.05,1.45,1.45,0,0,0,2.17-.12,2.62,2.62,0,0,0,.41-1.55,2,2,0,0,0-.39-1.31,1.24,1.24,0,0,0-1-.47,1.44,1.44,0,0,0-1.13.48A1.81,1.81,0,0,0,134.9,221.83Z"/><path class="cls-6" d="M142.59,220.38a1,1,0,0,0-.61-.16,1,1,0,0,0-.86.48,2.23,2.23,0,0,0-.34,1.32v2.55H140v-5h.8v1h0a1.71,1.71,0,0,1,.52-.82,1.2,1.2,0,0,1,.79-.3,1.22,1.22,0,0,1,.48.07Z"/><path class="cls-6" d="M145.54,224.69a2.33,2.33,0,0,1-1.76-.7,2.57,2.57,0,0,1-.67-1.86,2.7,2.7,0,0,1,.69-2,2.49,2.49,0,0,1,1.86-.71,2.25,2.25,0,0,1,1.75.69,2.73,2.73,0,0,1,.62,1.91,2.69,2.69,0,0,1-.67,1.92A2.38,2.38,0,0,1,145.54,224.69Zm.06-4.56a1.52,1.52,0,0,0-1.22.52,2.15,2.15,0,0,0-.45,1.45,2,2,0,0,0,.46,1.4,1.54,1.54,0,0,0,1.21.51,1.46,1.46,0,0,0,1.2-.5,2.18,2.18,0,0,0,.41-1.43,2.22,2.22,0,0,0-.41-1.45A1.49,1.49,0,0,0,145.6,220.13Z"/><path class="cls-6" d="M153.36,224.57h-.8v-.79h0a1.67,1.67,0,0,1-1.55.91c-1.19,0-1.78-.71-1.78-2.13v-3H150v2.86c0,1.06.41,1.58,1.21,1.58a1.23,1.23,0,0,0,1-.43,1.66,1.66,0,0,0,.38-1.13v-2.88h.8Z"/><path class="cls-6" d="M158.9,219.57l-2,5h-.78l-1.9-5h.88l1.27,3.63a4.26,4.26,0,0,1,.18.7h0a4,4,0,0,1,.16-.68l1.33-3.65Z"/><path class="cls-6" d="M163.78,222.27h-3.53a1.83,1.83,0,0,0,.45,1.29,1.56,1.56,0,0,0,1.18.45,2.48,2.48,0,0,0,1.56-.55v.75a2.92,2.92,0,0,1-1.75.48A2.12,2.12,0,0,1,160,224a2.78,2.78,0,0,1-.61-1.92,2.73,2.73,0,0,1,.66-1.9,2.13,2.13,0,0,1,1.65-.74,1.84,1.84,0,0,1,1.51.64,2.63,2.63,0,0,1,.54,1.76Zm-.82-.68a1.62,1.62,0,0,0-.33-1.08,1.14,1.14,0,0,0-.92-.38,1.28,1.28,0,0,0-1,.4,1.87,1.87,0,0,0-.49,1.06Zm-.13-4.57-1.27,1.6h-.62L162,217Z"/><path class="cls-6" d="M169,222.27h-3.53a1.83,1.83,0,0,0,.45,1.29,1.56,1.56,0,0,0,1.18.45,2.43,2.43,0,0,0,1.55-.55v.75a2.87,2.87,0,0,1-1.74.48,2.12,2.12,0,0,1-1.66-.68,2.78,2.78,0,0,1-.61-1.92,2.73,2.73,0,0,1,.66-1.9,2.13,2.13,0,0,1,1.65-.74,1.84,1.84,0,0,1,1.51.64,2.63,2.63,0,0,1,.54,1.76Zm-.82-.68a1.62,1.62,0,0,0-.33-1.08,1.14,1.14,0,0,0-.92-.38,1.28,1.28,0,0,0-1,.4,1.87,1.87,0,0,0-.49,1.06Z"/><path class="cls-6" d="M173.78,223.85h0v3H173v-7.3h.8v.88h0a1.89,1.89,0,0,1,1.73-1,1.86,1.86,0,0,1,1.51.67,2.8,2.8,0,0,1,.54,1.8,3.07,3.07,0,0,1-.61,2,2,2,0,0,1-1.67.76A1.67,1.67,0,0,1,173.78,223.85Zm0-2v.7a1.53,1.53,0,0,0,.4,1.05,1.45,1.45,0,0,0,2.17-.12,2.62,2.62,0,0,0,.41-1.55,2.06,2.06,0,0,0-.38-1.31,1.27,1.27,0,0,0-1.05-.47,1.41,1.41,0,0,0-1.12.48A1.77,1.77,0,0,0,173.76,221.83Z"/><path class="cls-6" d="M182.42,224.57h-.8v-.78h0a1.68,1.68,0,0,1-1.54.9,1.66,1.66,0,0,1-1.17-.4,1.36,1.36,0,0,1-.42-1c0-.93.55-1.48,1.65-1.63l1.5-.21c0-.85-.34-1.27-1-1.27a2.45,2.45,0,0,0-1.63.61v-.82a3.12,3.12,0,0,1,1.7-.47c1.17,0,1.76.62,1.76,1.87Zm-.8-2.53-1.21.17a2,2,0,0,0-.84.27.79.79,0,0,0-.28.7.76.76,0,0,0,.26.6,1,1,0,0,0,.7.23,1.31,1.31,0,0,0,1-.41,1.51,1.51,0,0,0,.39-1.06Z"/><path class="cls-6" d="M186.54,220.38a1,1,0,0,0-.61-.16,1,1,0,0,0-.86.48,2.23,2.23,0,0,0-.34,1.32v2.55h-.8v-5h.8v1h0a1.71,1.71,0,0,1,.52-.82,1.2,1.2,0,0,1,.79-.3,1.22,1.22,0,0,1,.48.07Z"/><path class="cls-6" d="M190.94,224.57h-.8v-7.4h.8Z"/><path class="cls-6" d="M196.58,222.27h-3.53a1.93,1.93,0,0,0,.45,1.29,1.57,1.57,0,0,0,1.19.45,2.45,2.45,0,0,0,1.55-.55v.75a2.9,2.9,0,0,1-1.75.48,2.12,2.12,0,0,1-1.66-.68,2.83,2.83,0,0,1-.61-1.92,2.69,2.69,0,0,1,.67-1.9,2.11,2.11,0,0,1,1.64-.74,1.87,1.87,0,0,1,1.52.64,2.62,2.62,0,0,1,.53,1.76Zm-.82-.68a1.62,1.62,0,0,0-.33-1.08,1.14,1.14,0,0,0-.92-.38,1.31,1.31,0,0,0-1,.4,1.94,1.94,0,0,0-.49,1.06Z"/><path class="cls-6" d="M75.52,236.57h-1l-1.17-2a4.26,4.26,0,0,0-.31-.47,1.81,1.81,0,0,0-.31-.31.86.86,0,0,0-.34-.18,1.37,1.37,0,0,0-.42-.06h-.67v3H70.5v-7h2.09a3.24,3.24,0,0,1,.85.11,1.86,1.86,0,0,1,.67.35,1.66,1.66,0,0,1,.45.59,1.86,1.86,0,0,1,.16.81,2,2,0,0,1-.11.67,1.74,1.74,0,0,1-.31.55,2.18,2.18,0,0,1-.49.41,2.6,2.6,0,0,1-.64.26v0a1.49,1.49,0,0,1,.3.18,1.34,1.34,0,0,1,.25.23c.08.09.15.2.23.31l.26.4Zm-4.2-6.26v2.54h1.11a1.7,1.7,0,0,0,.57-.09,1.28,1.28,0,0,0,.75-.69,1.48,1.48,0,0,0,.11-.57,1.12,1.12,0,0,0-.36-.88,1.6,1.6,0,0,0-1.06-.31Z"/><path class="cls-6" d="M80.1,234.27H76.57a1.83,1.83,0,0,0,.45,1.29,1.56,1.56,0,0,0,1.18.45,2.45,2.45,0,0,0,1.55-.55v.75a2.89,2.89,0,0,1-1.74.48,2.14,2.14,0,0,1-1.67-.68,2.83,2.83,0,0,1-.6-1.92,2.73,2.73,0,0,1,.66-1.9,2.12,2.12,0,0,1,1.64-.74,1.86,1.86,0,0,1,1.52.64,2.63,2.63,0,0,1,.54,1.76Zm-.82-.68a1.62,1.62,0,0,0-.34-1.08,1.1,1.1,0,0,0-.91-.38,1.28,1.28,0,0,0-1,.4,1.81,1.81,0,0,0-.49,1.06Z"/><path class="cls-6" d="M84.72,236.34a2.63,2.63,0,0,1-1.37.35,2.22,2.22,0,0,1-1.72-.7,2.5,2.5,0,0,1-.66-1.8,2.74,2.74,0,0,1,.71-2,2.47,2.47,0,0,1,1.89-.75,2.54,2.54,0,0,1,1.16.25v.82a2,2,0,0,0-1.19-.39,1.61,1.61,0,0,0-1.26.55,2,2,0,0,0-.49,1.44,2,2,0,0,0,.46,1.38,1.59,1.59,0,0,0,1.24.51,2,2,0,0,0,1.23-.43Z"/><path class="cls-6" d="M88.25,236.52a1.61,1.61,0,0,1-.75.16c-.87,0-1.31-.49-1.31-1.47v-3h-.86v-.68h.86v-1.22l.8-.26v1.48h1.26v.68H87v2.82a1.19,1.19,0,0,0,.17.72.68.68,0,0,0,.57.21.85.85,0,0,0,.52-.16Z"/><path class="cls-6" d="M91.41,236.69a2.34,2.34,0,0,1-1.77-.7,2.61,2.61,0,0,1-.66-1.86,2.7,2.7,0,0,1,.69-2,2.46,2.46,0,0,1,1.86-.71,2.24,2.24,0,0,1,1.74.69,2.73,2.73,0,0,1,.63,1.91,2.7,2.7,0,0,1-.68,1.92A2.36,2.36,0,0,1,91.41,236.69Zm.06-4.56a1.51,1.51,0,0,0-1.22.52,2.15,2.15,0,0,0-.45,1.45,2,2,0,0,0,.45,1.4,1.55,1.55,0,0,0,1.22.51,1.45,1.45,0,0,0,1.19-.5,2.18,2.18,0,0,0,.42-1.43,2.22,2.22,0,0,0-.42-1.45A1.48,1.48,0,0,0,91.47,232.13Z"/><path class="cls-6" d="M97.79,232.38a1,1,0,0,0-.61-.16,1,1,0,0,0-.86.48A2.23,2.23,0,0,0,96,234v2.55h-.8v-5H96v1h0a1.71,1.71,0,0,1,.52-.82,1.2,1.2,0,0,1,.79-.3,1.25,1.25,0,0,1,.48.07Z"/><path class="cls-6" d="M102.23,236.57h-.8v-.78h0a1.81,1.81,0,0,1-2.7.5,1.34,1.34,0,0,1-.43-1c0-.93.55-1.48,1.65-1.63l1.5-.21c0-.85-.34-1.27-1-1.27a2.47,2.47,0,0,0-1.63.61v-.82a3.12,3.12,0,0,1,1.7-.47c1.18,0,1.76.62,1.76,1.87Zm-.8-2.53-1.2.17a2,2,0,0,0-.84.27.8.8,0,0,0-.29.7.76.76,0,0,0,.26.6,1,1,0,0,0,.7.23,1.28,1.28,0,0,0,1-.41,1.51,1.51,0,0,0,.39-1.06Z"/><path class="cls-6" d="M106.06,236.52a1.61,1.61,0,0,1-.75.16c-.87,0-1.31-.49-1.31-1.47v-3h-.86v-.68H104v-1.22l.8-.26v1.48h1.26v.68H104.8v2.82a1.19,1.19,0,0,0,.17.72.71.71,0,0,0,.57.21.83.83,0,0,0,.52-.16Z"/><path class="cls-6" d="M113.89,234.27h-3.53a1.83,1.83,0,0,0,.45,1.29A1.54,1.54,0,0,0,112,236a2.45,2.45,0,0,0,1.55-.55v.75a2.89,2.89,0,0,1-1.74.48,2.14,2.14,0,0,1-1.67-.68,2.83,2.83,0,0,1-.6-1.92,2.73,2.73,0,0,1,.66-1.9,2.12,2.12,0,0,1,1.64-.74,1.86,1.86,0,0,1,1.52.64,2.63,2.63,0,0,1,.54,1.76Zm-.82-.68a1.62,1.62,0,0,0-.34-1.08,1.1,1.1,0,0,0-.91-.38,1.28,1.28,0,0,0-1,.4,1.81,1.81,0,0,0-.49,1.06Z"/><path class="cls-6" d="M119.25,236.57h-.8v-2.85c0-1.06-.39-1.59-1.16-1.59a1.29,1.29,0,0,0-1,.45,1.68,1.68,0,0,0-.39,1.14v2.85h-.8v-5h.8v.83h0a1.81,1.81,0,0,1,1.64-1,1.55,1.55,0,0,1,1.26.53,2.36,2.36,0,0,1,.43,1.53Z"/><path class="cls-6" d="M126.46,231.4a1.6,1.6,0,0,0-.1-.56,1.15,1.15,0,0,0-.28-.4,1.13,1.13,0,0,0-.4-.23,1.7,1.7,0,0,0-.51-.08,1.76,1.76,0,0,0-.46.06,2.39,2.39,0,0,0-.44.18,2.07,2.07,0,0,0-.41.27,3.92,3.92,0,0,0-.37.34v-.86a2.71,2.71,0,0,1,.76-.5,2.75,2.75,0,0,1,1-.17,2.26,2.26,0,0,1,.79.13,1.75,1.75,0,0,1,.64.36,1.71,1.71,0,0,1,.42.59,2,2,0,0,1,.15.8,3,3,0,0,1-.09.76,2.56,2.56,0,0,1-.29.63,2.86,2.86,0,0,1-.49.57,5.22,5.22,0,0,1-.69.56c-.32.23-.6.43-.81.6a4,4,0,0,0-.51.47,1.41,1.41,0,0,0-.26.43,1.54,1.54,0,0,0-.08.5h3.49v.72h-4.32v-.35a2.71,2.71,0,0,1,.1-.79,2,2,0,0,1,.32-.65,3.34,3.34,0,0,1,.59-.61c.24-.21.54-.44.89-.7a5.3,5.3,0,0,0,.64-.52,2.65,2.65,0,0,0,.41-.5,1.7,1.7,0,0,0,.22-.5A1.93,1.93,0,0,0,126.46,231.4Z"/><path class="cls-6" d="M133.06,233a6.74,6.74,0,0,1-.16,1.56,3.72,3.72,0,0,1-.46,1.14,2.09,2.09,0,0,1-.74.71,2,2,0,0,1-1,.24,1.92,1.92,0,0,1-.94-.23,2,2,0,0,1-.7-.68,3.65,3.65,0,0,1-.43-1.09,7.23,7.23,0,0,1-.14-1.48,7.84,7.84,0,0,1,.15-1.62,3.63,3.63,0,0,1,.45-1.18,2,2,0,0,1,.74-.72,2.13,2.13,0,0,1,1-.24C132.32,229.45,133.06,230.65,133.06,233Zm-.82.08c0-2-.48-3-1.42-3s-1.5,1-1.5,3,.49,2.84,1.47,2.84S132.24,235,132.24,233.12Z"/><path class="cls-6" d="M137,236.57h-.8v-6a1.83,1.83,0,0,1-.27.21l-.4.24-.47.22a3,3,0,0,1-.48.16v-.81a5.47,5.47,0,0,0,.56-.2,4.41,4.41,0,0,0,.58-.28c.19-.1.37-.21.54-.32a3.36,3.36,0,0,0,.44-.33h.3Z"/><path class="cls-6" d="M143.84,233a6.74,6.74,0,0,1-.16,1.56,3.72,3.72,0,0,1-.46,1.14,2,2,0,0,1-1.73.95,1.82,1.82,0,0,1-1.63-.91,3.19,3.19,0,0,1-.43-1.09,6.55,6.55,0,0,1-.15-1.48,7.84,7.84,0,0,1,.15-1.62,3.88,3.88,0,0,1,.45-1.18,2,2,0,0,1,.74-.72,2.13,2.13,0,0,1,1-.24C143.11,229.45,143.84,230.65,143.84,233Zm-.82.08c0-2-.47-3-1.42-3s-1.5,1-1.5,3,.49,2.84,1.47,2.84S143,235,143,233.12Z"/><path class="cls-6" d="M148.21,230.3a.51.51,0,0,1-.37-.15.48.48,0,0,1-.15-.37.5.5,0,0,1,.15-.37.51.51,0,0,1,.37-.15.5.5,0,0,1,.37.15.51.51,0,0,1,0,.74A.5.5,0,0,1,148.21,230.3Zm.39,6.27h-.8v-5h.8Z"/><path class="cls-6" d="M157.32,236.57h-.8V233.7a2.18,2.18,0,0,0-.26-1.2,1,1,0,0,0-.86-.37,1.06,1.06,0,0,0-.87.46,1.82,1.82,0,0,0-.36,1.13v2.85h-.8v-3q0-1.47-1.14-1.47a1,1,0,0,0-.87.44,1.87,1.87,0,0,0-.34,1.15v2.85h-.8v-5h.8v.79h0a1.69,1.69,0,0,1,1.55-.91,1.47,1.47,0,0,1,.9.29,1.43,1.43,0,0,1,.52.75,1.79,1.79,0,0,1,1.66-1q1.65,0,1.65,2Z"/><path class="cls-6" d="M159.65,235.85h0v3h-.81v-7.3h.81v.88h0a1.89,1.89,0,0,1,1.73-1,1.85,1.85,0,0,1,1.51.67,2.8,2.8,0,0,1,.54,1.8,3.07,3.07,0,0,1-.61,2,2,2,0,0,1-1.67.76A1.69,1.69,0,0,1,159.65,235.85Zm0-2v.7a1.48,1.48,0,0,0,.4,1.05,1.44,1.44,0,0,0,2.16-.12,2.55,2.55,0,0,0,.41-1.55,2.06,2.06,0,0,0-.38-1.31,1.27,1.27,0,0,0-1-.47,1.42,1.42,0,0,0-1.12.48A1.81,1.81,0,0,0,159.64,233.83Z"/><path class="cls-6" d="M166.8,236.69A2.34,2.34,0,0,1,165,236a2.61,2.61,0,0,1-.66-1.86,2.7,2.7,0,0,1,.69-2,2.49,2.49,0,0,1,1.86-.71,2.25,2.25,0,0,1,1.75.69,2.78,2.78,0,0,1,.62,1.91,2.69,2.69,0,0,1-.67,1.92A2.38,2.38,0,0,1,166.8,236.69Zm.06-4.56a1.52,1.52,0,0,0-1.22.52,2.15,2.15,0,0,0-.45,1.45,2,2,0,0,0,.46,1.4,1.53,1.53,0,0,0,1.21.51,1.46,1.46,0,0,0,1.2-.5,2.23,2.23,0,0,0,.41-1.43,2.28,2.28,0,0,0-.41-1.45A1.49,1.49,0,0,0,166.86,232.13Z"/><path class="cls-6" d="M170.27,236.39v-.86a2.4,2.4,0,0,0,1.44.48c.7,0,1.06-.23,1.06-.7a.62.62,0,0,0-.1-.34,1.12,1.12,0,0,0-.24-.25,2,2,0,0,0-.36-.19l-.45-.18c-.22-.09-.41-.17-.58-.26a1.53,1.53,0,0,1-.42-.31,1,1,0,0,1-.25-.38,1.28,1.28,0,0,1-.09-.5,1.15,1.15,0,0,1,.16-.62,1.35,1.35,0,0,1,.43-.46,2.28,2.28,0,0,1,.61-.28,2.82,2.82,0,0,1,.71-.09,2.91,2.91,0,0,1,1.17.23v.81a2.27,2.27,0,0,0-1.27-.36,1.32,1.32,0,0,0-.41.05,1,1,0,0,0-.31.14.69.69,0,0,0-.2.22.59.59,0,0,0-.07.29.67.67,0,0,0,.07.33.9.9,0,0,0,.21.23,1.69,1.69,0,0,0,.33.19l.44.18a4.9,4.9,0,0,1,.6.26,2,2,0,0,1,.45.3,1.08,1.08,0,0,1,.28.39,1.21,1.21,0,0,1,.11.52,1.26,1.26,0,0,1-.17.65,1.35,1.35,0,0,1-.44.45,2,2,0,0,1-.62.27,3.08,3.08,0,0,1-.75.09A2.82,2.82,0,0,1,170.27,236.39Z"/><path class="cls-6" d="M178.83,234.27H175.3a1.93,1.93,0,0,0,.45,1.29,1.57,1.57,0,0,0,1.19.45,2.45,2.45,0,0,0,1.55-.55v.75a2.9,2.9,0,0,1-1.75.48,2.12,2.12,0,0,1-1.66-.68,2.83,2.83,0,0,1-.61-1.92,2.69,2.69,0,0,1,.67-1.9,2.11,2.11,0,0,1,1.64-.74,1.87,1.87,0,0,1,1.52.64,2.62,2.62,0,0,1,.53,1.76Zm-.82-.68a1.62,1.62,0,0,0-.33-1.08,1.14,1.14,0,0,0-.92-.38,1.31,1.31,0,0,0-1,.4,1.94,1.94,0,0,0-.49,1.06Z"/><path class="cls-6" d="M183.59,236.57h-.81v-7.4h.81Z"/><path class="cls-6" d="M189.23,234.27h-3.54a1.93,1.93,0,0,0,.45,1.29,1.57,1.57,0,0,0,1.19.45,2.45,2.45,0,0,0,1.55-.55v.75a2.89,2.89,0,0,1-1.74.48,2.13,2.13,0,0,1-1.67-.68,2.83,2.83,0,0,1-.61-1.92,2.74,2.74,0,0,1,.67-1.9,2.12,2.12,0,0,1,1.64-.74,1.87,1.87,0,0,1,1.52.64,2.63,2.63,0,0,1,.54,1.76Zm-.83-.68a1.62,1.62,0,0,0-.33-1.08,1.12,1.12,0,0,0-.92-.38,1.31,1.31,0,0,0-1,.4,1.94,1.94,0,0,0-.49,1.06Z"/><path class="cls-6" d="M197.44,236.57h-.8v-.85h0a1.85,1.85,0,0,1-1.72,1,1.88,1.88,0,0,1-1.5-.67,2.75,2.75,0,0,1-.57-1.83,3,3,0,0,1,.63-2,2.06,2.06,0,0,1,1.66-.75,1.6,1.6,0,0,1,1.5.81h0v-3.09h.8Zm-.8-2.26v-.74a1.41,1.41,0,0,0-.4-1,1.32,1.32,0,0,0-1-.42,1.41,1.41,0,0,0-1.16.53,2.38,2.38,0,0,0-.42,1.49,2.1,2.1,0,0,0,.41,1.36,1.3,1.3,0,0,0,1.08.5,1.36,1.36,0,0,0,1.08-.48A1.79,1.79,0,0,0,196.64,234.31Z"/><path class="cls-6" d="M203.08,234.27h-3.53a1.93,1.93,0,0,0,.45,1.29,1.56,1.56,0,0,0,1.18.45,2.48,2.48,0,0,0,1.56-.55v.75a2.9,2.9,0,0,1-1.75.48,2.12,2.12,0,0,1-1.66-.68,2.78,2.78,0,0,1-.61-1.92,2.73,2.73,0,0,1,.66-1.9,2.13,2.13,0,0,1,1.65-.74,1.87,1.87,0,0,1,1.52.64,2.68,2.68,0,0,1,.53,1.76Zm-.82-.68a1.62,1.62,0,0,0-.33-1.08,1.14,1.14,0,0,0-.92-.38,1.28,1.28,0,0,0-1,.4,1.87,1.87,0,0,0-.49,1.06Zm-.12-4.57-1.28,1.6h-.62l1.08-1.6Z"/><path class="cls-6" d="M205.11,235.85h0v3h-.8v-7.3h.8v.88h0a1.89,1.89,0,0,1,1.73-1,1.85,1.85,0,0,1,1.51.67,2.8,2.8,0,0,1,.54,1.8,3.07,3.07,0,0,1-.61,2,2,2,0,0,1-1.67.76A1.69,1.69,0,0,1,205.11,235.85Zm0-2v.7a1.49,1.49,0,0,0,.41,1.05,1.44,1.44,0,0,0,2.16-.12,2.55,2.55,0,0,0,.41-1.55,2.06,2.06,0,0,0-.38-1.31,1.27,1.27,0,0,0-1.05-.47,1.42,1.42,0,0,0-1.12.48A1.82,1.82,0,0,0,205.09,233.83Z"/><path class="cls-6" d="M212.26,236.69a2.34,2.34,0,0,1-1.77-.7,2.61,2.61,0,0,1-.66-1.86,2.7,2.7,0,0,1,.69-2,2.49,2.49,0,0,1,1.86-.71,2.26,2.26,0,0,1,1.75.69,2.78,2.78,0,0,1,.62,1.91,2.69,2.69,0,0,1-.67,1.92A2.38,2.38,0,0,1,212.26,236.69Zm.06-4.56a1.52,1.52,0,0,0-1.22.52,2.15,2.15,0,0,0-.45,1.45,2,2,0,0,0,.46,1.4,1.53,1.53,0,0,0,1.21.51,1.43,1.43,0,0,0,1.19-.5,2.18,2.18,0,0,0,.42-1.43,2.22,2.22,0,0,0-.42-1.45A1.46,1.46,0,0,0,212.32,232.13Zm1.36-1.51h-.59l-.8-1.12-.81,1.12h-.55l1-1.62h.65Z"/><path class="cls-6" d="M218.35,236.52a1.61,1.61,0,0,1-.75.16c-.87,0-1.31-.49-1.31-1.47v-3h-.86v-.68h.86v-1.22l.8-.26v1.48h1.26v.68h-1.26v2.82a1.19,1.19,0,0,0,.17.72.71.71,0,0,0,.57.21.85.85,0,0,0,.52-.16Z"/><path class="cls-6" d="M74.66,248.57h-.8v-.85h0a1.85,1.85,0,0,1-1.72,1,1.9,1.9,0,0,1-1.51-.67,2.8,2.8,0,0,1-.56-1.83,3,3,0,0,1,.63-2,2,2,0,0,1,1.66-.75,1.6,1.6,0,0,1,1.5.81h0v-3.09h.8Zm-.8-2.26v-.74a1.41,1.41,0,0,0-.4-1,1.36,1.36,0,0,0-1-.42,1.41,1.41,0,0,0-1.15.53,2.38,2.38,0,0,0-.42,1.49,2.16,2.16,0,0,0,.4,1.36,1.31,1.31,0,0,0,1.09.5,1.37,1.37,0,0,0,1.08-.48A1.79,1.79,0,0,0,73.86,246.31Z"/><path class="cls-6" d="M77,241.57v2.18h-.7v-2.18Z"/><path class="cls-6" d="M82.62,248.57h-.8v-.79h0a1.65,1.65,0,0,1-1.54.91c-1.19,0-1.79-.71-1.79-2.13v-3h.8v2.86c0,1.06.4,1.58,1.21,1.58a1.21,1.21,0,0,0,1-.43,1.61,1.61,0,0,0,.38-1.13v-2.88h.8Z"/><path class="cls-6" d="M88.39,248.57h-.8v-2.85c0-1.06-.39-1.59-1.16-1.59a1.29,1.29,0,0,0-1,.45,1.68,1.68,0,0,0-.39,1.14v2.85h-.8v-5H85v.83h0a1.81,1.81,0,0,1,1.64-1A1.55,1.55,0,0,1,88,244a2.36,2.36,0,0,1,.43,1.53Z"/><path class="cls-6" d="M93.92,246.27H90.39a1.83,1.83,0,0,0,.45,1.29A1.54,1.54,0,0,0,92,248a2.45,2.45,0,0,0,1.55-.55v.75a2.89,2.89,0,0,1-1.74.48,2.14,2.14,0,0,1-1.67-.68,2.83,2.83,0,0,1-.6-1.92,2.73,2.73,0,0,1,.66-1.9,2.12,2.12,0,0,1,1.64-.74,1.86,1.86,0,0,1,1.52.64,2.63,2.63,0,0,1,.54,1.76Zm-.82-.68a1.68,1.68,0,0,0-.34-1.08,1.12,1.12,0,0,0-.91-.38,1.28,1.28,0,0,0-1,.4,1.81,1.81,0,0,0-.49,1.06Z"/><path class="cls-6" d="M101.28,248.34a2.63,2.63,0,0,1-1.37.35,2.26,2.26,0,0,1-1.73-.7,2.53,2.53,0,0,1-.65-1.8,2.78,2.78,0,0,1,.7-2,2.5,2.5,0,0,1,1.89-.75,2.58,2.58,0,0,1,1.17.25v.82a2,2,0,0,0-1.2-.39,1.57,1.57,0,0,0-1.25.55,2,2,0,0,0-.49,1.44,2,2,0,0,0,.46,1.38,1.59,1.59,0,0,0,1.24.51,2,2,0,0,0,1.23-.43Z"/><path class="cls-6" d="M104.58,248.69a2.34,2.34,0,0,1-1.77-.7,2.61,2.61,0,0,1-.66-1.86,2.74,2.74,0,0,1,.68-2,2.49,2.49,0,0,1,1.86-.71,2.25,2.25,0,0,1,1.75.69,2.73,2.73,0,0,1,.63,1.91,2.7,2.7,0,0,1-.68,1.92A2.36,2.36,0,0,1,104.58,248.69Zm.06-4.56a1.5,1.5,0,0,0-1.22.52,2.15,2.15,0,0,0-.45,1.45,2,2,0,0,0,.45,1.4,1.55,1.55,0,0,0,1.22.51,1.45,1.45,0,0,0,1.19-.5,2.18,2.18,0,0,0,.42-1.43,2.22,2.22,0,0,0-.42-1.45A1.48,1.48,0,0,0,104.64,244.13Z"/><path class="cls-6" d="M109.17,247.85h0v3h-.8v-7.3h.8v.88h0a1.88,1.88,0,0,1,1.73-1,1.84,1.84,0,0,1,1.5.67,2.74,2.74,0,0,1,.55,1.8,3.13,3.13,0,0,1-.61,2,2,2,0,0,1-1.67.76A1.67,1.67,0,0,1,109.17,247.85Zm0-2v.7a1.48,1.48,0,0,0,.4,1.05,1.44,1.44,0,0,0,2.16-.12,2.55,2.55,0,0,0,.42-1.55,2,2,0,0,0-.39-1.31,1.27,1.27,0,0,0-1-.47,1.44,1.44,0,0,0-1.12.48A1.81,1.81,0,0,0,109.15,245.83Z"/><path class="cls-6" d="M114.64,242.3a.5.5,0,0,1-.37-.15.48.48,0,0,1-.15-.37.51.51,0,0,1,.52-.52.51.51,0,0,1,.37.15.53.53,0,0,1,0,.74A.51.51,0,0,1,114.64,242.3Zm.39,6.27h-.8v-5h.8Z"/><path class="cls-6" d="M120.67,246.27h-3.53a1.83,1.83,0,0,0,.45,1.29,1.54,1.54,0,0,0,1.18.45,2.45,2.45,0,0,0,1.55-.55v.75a2.89,2.89,0,0,1-1.74.48,2.14,2.14,0,0,1-1.67-.68,2.83,2.83,0,0,1-.6-1.92,2.73,2.73,0,0,1,.66-1.9,2.12,2.12,0,0,1,1.64-.74,1.86,1.86,0,0,1,1.52.64,2.63,2.63,0,0,1,.54,1.76Zm-.82-.68a1.68,1.68,0,0,0-.34-1.08,1.12,1.12,0,0,0-.91-.38,1.31,1.31,0,0,0-1,.4,1.86,1.86,0,0,0-.48,1.06Z"/><path class="cls-6" d="M128.88,248.57h-.8v-.85h0a1.85,1.85,0,0,1-1.71,1,1.89,1.89,0,0,1-1.51-.67,2.74,2.74,0,0,1-.56-1.83,3,3,0,0,1,.62-2,2.06,2.06,0,0,1,1.67-.75,1.59,1.59,0,0,1,1.49.81h0v-3.09h.8Zm-.8-2.26v-.74a1.41,1.41,0,0,0-.4-1,1.32,1.32,0,0,0-1-.42,1.39,1.39,0,0,0-1.15.53,2.32,2.32,0,0,0-.42,1.49,2.1,2.1,0,0,0,.4,1.36,1.3,1.3,0,0,0,1.08.5,1.38,1.38,0,0,0,1.09-.48A1.84,1.84,0,0,0,128.08,246.31Z"/><path class="cls-6" d="M134.52,246.27H131a1.93,1.93,0,0,0,.45,1.29,1.56,1.56,0,0,0,1.18.45,2.46,2.46,0,0,0,1.56-.55v.75a2.9,2.9,0,0,1-1.75.48,2.12,2.12,0,0,1-1.66-.68,2.83,2.83,0,0,1-.61-1.92,2.69,2.69,0,0,1,.67-1.9,2.11,2.11,0,0,1,1.64-.74,1.87,1.87,0,0,1,1.52.64,2.62,2.62,0,0,1,.53,1.76Zm-.82-.68a1.62,1.62,0,0,0-.33-1.08,1.14,1.14,0,0,0-.92-.38,1.31,1.31,0,0,0-1,.4,1.94,1.94,0,0,0-.49,1.06Z"/><path class="cls-6" d="M141.88,248.34a2.6,2.6,0,0,1-1.36.35,2.25,2.25,0,0,1-1.73-.7,2.5,2.5,0,0,1-.66-1.8,2.78,2.78,0,0,1,.71-2,2.47,2.47,0,0,1,1.89-.75,2.51,2.51,0,0,1,1.16.25v.82a2,2,0,0,0-1.19-.39,1.61,1.61,0,0,0-1.26.55,2.09,2.09,0,0,0-.49,1.44,2,2,0,0,0,.46,1.38,1.59,1.59,0,0,0,1.24.51,2,2,0,0,0,1.23-.43Z"/><path class="cls-6" d="M147.24,248.57h-.8v-2.88c0-1-.38-1.56-1.16-1.56a1.28,1.28,0,0,0-1,.45,1.72,1.72,0,0,0-.4,1.16v2.83h-.8v-7.4h.8v3.23h0a1.83,1.83,0,0,1,1.64-1c1.13,0,1.69.68,1.69,2Z"/><path class="cls-6" d="M152.33,248.57h-.8v-.78h0a1.82,1.82,0,0,1-2.71.5,1.36,1.36,0,0,1-.42-1c0-.93.55-1.48,1.65-1.63l1.5-.21c0-.85-.34-1.27-1-1.27a2.47,2.47,0,0,0-1.63.61v-.82a3.12,3.12,0,0,1,1.7-.47c1.17,0,1.76.62,1.76,1.87Zm-.8-2.53-1.21.17a2,2,0,0,0-.84.27.82.82,0,0,0-.28.7.76.76,0,0,0,.26.6,1,1,0,0,0,.7.23,1.3,1.3,0,0,0,1-.41,1.51,1.51,0,0,0,.39-1.06Z"/><path class="cls-6" d="M158.11,250.87h-.8v-3.16h0a1.8,1.8,0,0,1-1.71,1,1.9,1.9,0,0,1-1.51-.67,2.75,2.75,0,0,1-.57-1.83,3,3,0,0,1,.62-2,2.08,2.08,0,0,1,1.68-.75,1.58,1.58,0,0,1,1.49.81h0v-.69h.8Zm-.8-4.55v-.73a1.45,1.45,0,0,0-.41-1,1.34,1.34,0,0,0-1-.42,1.36,1.36,0,0,0-1.14.53,2.4,2.4,0,0,0-.42,1.51,2.05,2.05,0,0,0,.4,1.35,1.29,1.29,0,0,0,1.05.49,1.41,1.41,0,0,0,1.12-.48A1.76,1.76,0,0,0,157.31,246.32Z"/><path class="cls-6" d="M163.77,248.57H163v-.79h0a1.65,1.65,0,0,1-1.54.91c-1.19,0-1.79-.71-1.79-2.13v-3h.8v2.86c0,1.06.4,1.58,1.21,1.58a1.21,1.21,0,0,0,1-.43,1.61,1.61,0,0,0,.38-1.13v-2.88h.8Z"/><path class="cls-6" d="M169.41,246.27h-3.53a1.83,1.83,0,0,0,.45,1.29,1.54,1.54,0,0,0,1.18.45,2.45,2.45,0,0,0,1.55-.55v.75a2.89,2.89,0,0,1-1.74.48,2.14,2.14,0,0,1-1.67-.68,2.83,2.83,0,0,1-.6-1.92,2.73,2.73,0,0,1,.66-1.9,2.12,2.12,0,0,1,1.64-.74,1.86,1.86,0,0,1,1.52.64,2.63,2.63,0,0,1,.54,1.76Zm-.82-.68a1.68,1.68,0,0,0-.34-1.08,1.12,1.12,0,0,0-.91-.38,1.31,1.31,0,0,0-1,.4,1.86,1.86,0,0,0-.48,1.06Z"/><path class="cls-6" d="M174.18,247.85h0v3h-.8v-7.3h.8v.88h0a1.88,1.88,0,0,1,1.73-1,1.84,1.84,0,0,1,1.5.67,2.74,2.74,0,0,1,.55,1.8,3.13,3.13,0,0,1-.61,2,2,2,0,0,1-1.67.76A1.67,1.67,0,0,1,174.18,247.85Zm0-2v.7a1.48,1.48,0,0,0,.4,1.05,1.44,1.44,0,0,0,2.16-.12,2.55,2.55,0,0,0,.42-1.55,2,2,0,0,0-.39-1.31,1.26,1.26,0,0,0-1-.47,1.44,1.44,0,0,0-1.13.48A1.81,1.81,0,0,0,174.16,245.83Z"/><path class="cls-6" d="M183.28,248.57h-.8v-.79h0a1.66,1.66,0,0,1-1.54.91c-1.2,0-1.79-.71-1.79-2.13v-3h.79v2.86c0,1.06.41,1.58,1.22,1.58a1.21,1.21,0,0,0,1-.43,1.66,1.66,0,0,0,.38-1.13v-2.88h.8Z"/><path class="cls-6" d="M185.72,247.85h0v.72h-.8v-7.4h.8v3.28h0a1.88,1.88,0,0,1,1.72-1,1.85,1.85,0,0,1,1.51.67,2.8,2.8,0,0,1,.54,1.8,3.07,3.07,0,0,1-.61,2,2,2,0,0,1-1.67.76A1.62,1.62,0,0,1,185.72,247.85Zm0-2v.7a1.48,1.48,0,0,0,.4,1.05,1.44,1.44,0,0,0,2.16-.12,2.55,2.55,0,0,0,.41-1.55,2,2,0,0,0-.38-1.31,1.27,1.27,0,0,0-1-.47,1.42,1.42,0,0,0-1.12.48A1.81,1.81,0,0,0,185.7,245.83Z"/><path class="cls-6" d="M191.57,248.57h-.8v-7.4h.8Z"/><path class="cls-6" d="M193.61,242.3a.5.5,0,0,1-.37-.15.48.48,0,0,1-.15-.37.51.51,0,0,1,.52-.52.51.51,0,0,1,.37.15.53.53,0,0,1,0,.74A.51.51,0,0,1,193.61,242.3Zm.39,6.27h-.8v-5h.8Z"/><path class="cls-6" d="M199,248.34a2.63,2.63,0,0,1-1.37.35,2.26,2.26,0,0,1-1.73-.7,2.49,2.49,0,0,1-.65-1.8,2.78,2.78,0,0,1,.7-2,2.5,2.5,0,0,1,1.89-.75,2.58,2.58,0,0,1,1.17.25v.82a2.07,2.07,0,0,0-1.2-.39,1.57,1.57,0,0,0-1.25.55,2,2,0,0,0-.49,1.44,2,2,0,0,0,.46,1.38,1.59,1.59,0,0,0,1.24.51,2,2,0,0,0,1.23-.43Z"/><path class="cls-6" d="M203.82,248.57H203v-.78h0a1.69,1.69,0,0,1-1.54.9,1.66,1.66,0,0,1-1.17-.4,1.36,1.36,0,0,1-.42-1c0-.93.55-1.48,1.65-1.63l1.5-.21c0-.85-.35-1.27-1-1.27a2.47,2.47,0,0,0-1.63.61v-.82a3.15,3.15,0,0,1,1.7-.47c1.18,0,1.77.62,1.77,1.87ZM203,246l-1.21.17a2,2,0,0,0-.84.27.79.79,0,0,0-.28.7.73.73,0,0,0,.26.6,1,1,0,0,0,.69.23,1.32,1.32,0,0,0,1-.41,1.51,1.51,0,0,0,.39-1.06Z"/><path class="cls-6" d="M207.64,248.52a1.53,1.53,0,0,1-.74.16q-1.32,0-1.32-1.47v-3h-.86v-.68h.86v-1.22l.8-.26v1.48h1.26v.68h-1.26v2.82a1.11,1.11,0,0,0,.18.72.68.68,0,0,0,.56.21.83.83,0,0,0,.52-.16Z"/><path class="cls-6" d="M209.12,242.3a.49.49,0,0,1-.36-.15.48.48,0,0,1-.15-.37.5.5,0,0,1,.15-.37.49.49,0,0,1,.36-.15.52.52,0,0,1,.38.15.53.53,0,0,1,0,.74A.52.52,0,0,1,209.12,242.3Zm.39,6.27h-.8v-5h.8Z"/><path class="cls-6" d="M213.23,248.69a2.34,2.34,0,0,1-1.77-.7,2.57,2.57,0,0,1-.67-1.86,2.7,2.7,0,0,1,.69-2,2.49,2.49,0,0,1,1.86-.71,2.25,2.25,0,0,1,1.75.69,2.73,2.73,0,0,1,.63,1.91A2.7,2.7,0,0,1,215,248,2.37,2.37,0,0,1,213.23,248.69Zm.05-4.56a1.52,1.52,0,0,0-1.22.52,2.15,2.15,0,0,0-.45,1.45,2.05,2.05,0,0,0,.46,1.4,1.54,1.54,0,0,0,1.21.51,1.46,1.46,0,0,0,1.2-.5,2.18,2.18,0,0,0,.42-1.43,2.22,2.22,0,0,0-.42-1.45A1.49,1.49,0,0,0,213.28,244.13Z"/><path class="cls-6" d="M221.15,248.57h-.81v-2.85c0-1.06-.38-1.59-1.16-1.59a1.25,1.25,0,0,0-1,.45,1.68,1.68,0,0,0-.39,1.14v2.85H217v-5h.81v.83h0a1.8,1.8,0,0,1,1.64-1,1.54,1.54,0,0,1,1.25.53,2.36,2.36,0,0,1,.44,1.53Z"/><path class="cls-6" d="M74,260.57h-.8v-.78h0a1.82,1.82,0,0,1-2.71.5,1.36,1.36,0,0,1-.42-1.05c0-.93.55-1.48,1.65-1.63l1.5-.21c0-.85-.34-1.27-1-1.27a2.45,2.45,0,0,0-1.63.61v-.82a3.12,3.12,0,0,1,1.7-.47c1.17,0,1.76.62,1.76,1.87Zm-.8-2.53-1.21.17a1.88,1.88,0,0,0-.83.27.8.8,0,0,0-.29.7.76.76,0,0,0,.26.6,1,1,0,0,0,.7.23,1.3,1.3,0,0,0,1-.41,1.51,1.51,0,0,0,.39-1.06Z"/><path class="cls-6" d="M79.41,255.57l-2,5h-.79l-1.89-5h.88l1.27,3.63a3.34,3.34,0,0,1,.17.7h0a3.23,3.23,0,0,1,.16-.68l1.33-3.65Z"/><path class="cls-6" d="M84.29,258.27H80.76a1.83,1.83,0,0,0,.45,1.29,1.54,1.54,0,0,0,1.18.45,2.45,2.45,0,0,0,1.55-.55v.75a2.89,2.89,0,0,1-1.74.48,2.14,2.14,0,0,1-1.67-.68,2.83,2.83,0,0,1-.6-1.92,2.73,2.73,0,0,1,.66-1.9,2.12,2.12,0,0,1,1.64-.74,1.86,1.86,0,0,1,1.52.64,2.63,2.63,0,0,1,.54,1.76Zm-.82-.68a1.62,1.62,0,0,0-.34-1.08,1.12,1.12,0,0,0-.91-.38,1.28,1.28,0,0,0-1,.4,1.81,1.81,0,0,0-.49,1.06Z"/><path class="cls-6" d="M88.91,260.34a2.63,2.63,0,0,1-1.37.35,2.22,2.22,0,0,1-1.72-.7,2.5,2.5,0,0,1-.66-1.8,2.74,2.74,0,0,1,.71-2,2.47,2.47,0,0,1,1.89-.75,2.54,2.54,0,0,1,1.16.25v.82a2,2,0,0,0-1.19-.39,1.61,1.61,0,0,0-1.26.55,2,2,0,0,0-.49,1.44,2,2,0,0,0,.46,1.38,1.59,1.59,0,0,0,1.24.51,2,2,0,0,0,1.23-.43Z"/><path class="cls-6" d="M96.9,260.57h-.8v-.79h0a1.66,1.66,0,0,1-1.54.91c-1.19,0-1.79-.71-1.79-2.13v-3h.8v2.86c0,1.06.4,1.58,1.21,1.58a1.21,1.21,0,0,0,1-.43,1.66,1.66,0,0,0,.38-1.13v-2.88h.8Z"/><path class="cls-6" d="M102.67,260.57h-.8v-2.85c0-1.06-.39-1.59-1.16-1.59a1.26,1.26,0,0,0-1,.45,1.68,1.68,0,0,0-.39,1.14v2.85h-.8v-5h.8v.83h0a1.81,1.81,0,0,1,1.64-.95,1.53,1.53,0,0,1,1.25.53,2.36,2.36,0,0,1,.44,1.53Z"/><path class="cls-6" d="M110.5,260.57h-.81v-.78h0a1.81,1.81,0,0,1-2.7.5,1.36,1.36,0,0,1-.42-1.05c0-.93.55-1.48,1.65-1.63l1.49-.21c0-.85-.34-1.27-1-1.27a2.47,2.47,0,0,0-1.63.61v-.82a3.15,3.15,0,0,1,1.7-.47c1.18,0,1.77.62,1.77,1.87Zm-.81-2.53-1.2.17a2,2,0,0,0-.84.27.79.79,0,0,0-.28.7.73.73,0,0,0,.26.6,1,1,0,0,0,.69.23,1.32,1.32,0,0,0,1-.41,1.5,1.5,0,0,0,.38-1.06Z"/><path class="cls-6" d="M115.41,260.34a2.61,2.61,0,0,1-1.37.35,2.24,2.24,0,0,1-1.72-.7,2.5,2.5,0,0,1-.66-1.8,2.78,2.78,0,0,1,.71-2,2.47,2.47,0,0,1,1.89-.75,2.51,2.51,0,0,1,1.16.25v.82a2,2,0,0,0-1.19-.39,1.61,1.61,0,0,0-1.26.55,2.09,2.09,0,0,0-.49,1.44,2,2,0,0,0,.46,1.38,1.59,1.59,0,0,0,1.24.51,2,2,0,0,0,1.23-.43Z"/><path class="cls-6" d="M120,260.34a2.61,2.61,0,0,1-1.37.35,2.24,2.24,0,0,1-1.72-.7,2.5,2.5,0,0,1-.66-1.8,2.78,2.78,0,0,1,.71-2,2.47,2.47,0,0,1,1.89-.75,2.51,2.51,0,0,1,1.16.25v.82a2,2,0,0,0-1.19-.39,1.61,1.61,0,0,0-1.26.55,2.09,2.09,0,0,0-.49,1.44,2,2,0,0,0,.46,1.38,1.59,1.59,0,0,0,1.24.51,2,2,0,0,0,1.23-.43Z"/><path class="cls-6" d="M125.26,258.27h-3.53a1.83,1.83,0,0,0,.45,1.29,1.56,1.56,0,0,0,1.18.45,2.45,2.45,0,0,0,1.55-.55v.75a2.89,2.89,0,0,1-1.74.48,2.1,2.1,0,0,1-1.66-.68,2.78,2.78,0,0,1-.61-1.92,2.73,2.73,0,0,1,.66-1.9,2.12,2.12,0,0,1,1.64-.74,1.86,1.86,0,0,1,1.52.64,2.63,2.63,0,0,1,.54,1.76Zm-.82-.68a1.62,1.62,0,0,0-.33-1.08,1.14,1.14,0,0,0-.92-.38,1.28,1.28,0,0,0-1,.4,1.81,1.81,0,0,0-.49,1.06Zm-.47-3h-.62l-1.28-1.6h.82Z"/><path class="cls-6" d="M126.17,260.39v-.86a2.38,2.38,0,0,0,1.44.48c.7,0,1-.23,1-.7a.62.62,0,0,0-.09-.34,1.12,1.12,0,0,0-.24-.25,2,2,0,0,0-.36-.19l-.45-.18c-.22-.09-.41-.17-.58-.26a1.53,1.53,0,0,1-.42-.31,1.08,1.08,0,0,1-.26-.38,1.5,1.5,0,0,1-.08-.5,1.15,1.15,0,0,1,.16-.62,1.35,1.35,0,0,1,.43-.46,2.28,2.28,0,0,1,.61-.28,3,3,0,0,1,1.87.14v.81a2.25,2.25,0,0,0-1.27-.36,1.29,1.29,0,0,0-.4.05,1,1,0,0,0-.31.14.69.69,0,0,0-.2.22.59.59,0,0,0-.07.29.67.67,0,0,0,.07.33.9.9,0,0,0,.21.23,1.69,1.69,0,0,0,.33.19l.44.18a4.9,4.9,0,0,1,.6.26,2.52,2.52,0,0,1,.45.3,1.08,1.08,0,0,1,.28.39,1.21,1.21,0,0,1,.1.52,1.25,1.25,0,0,1-.16.65,1.35,1.35,0,0,1-.44.45,2,2,0,0,1-.63.27,2.94,2.94,0,0,1-.74.09A2.82,2.82,0,0,1,126.17,260.39Z"/><path class="cls-6" d="M134.25,260.57h-.8v-7.4h.8Z"/><path class="cls-6" d="M139.89,258.27h-3.53a1.93,1.93,0,0,0,.45,1.29A1.56,1.56,0,0,0,138,260a2.46,2.46,0,0,0,1.56-.55v.75a2.9,2.9,0,0,1-1.75.48,2.12,2.12,0,0,1-1.66-.68,2.83,2.83,0,0,1-.61-1.92,2.69,2.69,0,0,1,.67-1.9,2.11,2.11,0,0,1,1.64-.74,1.87,1.87,0,0,1,1.52.64,2.62,2.62,0,0,1,.53,1.76Zm-.82-.68a1.62,1.62,0,0,0-.33-1.08,1.14,1.14,0,0,0-.92-.38,1.31,1.31,0,0,0-1,.4,1.94,1.94,0,0,0-.49,1.06Z"/><path class="cls-6" d="M144.66,259.85h0v3h-.81v-7.3h.81v.88h0a1.89,1.89,0,0,1,1.73-1,1.85,1.85,0,0,1,1.51.67,2.8,2.8,0,0,1,.54,1.8,3.07,3.07,0,0,1-.61,2,2,2,0,0,1-1.67.76A1.69,1.69,0,0,1,144.66,259.85Zm0-2v.7a1.48,1.48,0,0,0,.4,1.05,1.44,1.44,0,0,0,2.16-.12,2.55,2.55,0,0,0,.41-1.55,2.06,2.06,0,0,0-.38-1.31,1.27,1.27,0,0,0-1.05-.47,1.42,1.42,0,0,0-1.12.48A1.81,1.81,0,0,0,144.65,257.83Z"/><path class="cls-6" d="M150.52,260.57h-.8v-7.4h.8Z"/><path class="cls-6" d="M156.19,260.57h-.8v-.79h0a1.66,1.66,0,0,1-1.55.91c-1.19,0-1.78-.71-1.78-2.13v-3h.79v2.86c0,1.06.41,1.58,1.21,1.58a1.21,1.21,0,0,0,1-.43,1.66,1.66,0,0,0,.38-1.13v-2.88h.8Z"/><path class="cls-6" d="M157.5,260.39v-.86a2.4,2.4,0,0,0,1.44.48c.71,0,1.06-.23,1.06-.7a.62.62,0,0,0-.09-.34,1,1,0,0,0-.25-.25,2,2,0,0,0-.36-.19l-.45-.18c-.22-.09-.41-.17-.58-.26a1.53,1.53,0,0,1-.42-.31,1,1,0,0,1-.25-.38,1.28,1.28,0,0,1-.09-.5,1.24,1.24,0,0,1,.16-.62,1.35,1.35,0,0,1,.43-.46,2.43,2.43,0,0,1,.61-.28,3,3,0,0,1,1.88.14v.81a2.27,2.27,0,0,0-1.27-.36,1.32,1.32,0,0,0-.41.05,1,1,0,0,0-.31.14.83.83,0,0,0-.2.22.73.73,0,0,0-.07.29.81.81,0,0,0,.07.33.9.9,0,0,0,.21.23,1.69,1.69,0,0,0,.33.19l.45.18a4.72,4.72,0,0,1,.59.26,2,2,0,0,1,.45.3,1.11,1.11,0,0,1,.29.39,1.38,1.38,0,0,1,.1.52,1.26,1.26,0,0,1-.17.65,1.42,1.42,0,0,1-.43.45,2.22,2.22,0,0,1-.63.27,3.08,3.08,0,0,1-.75.09A2.82,2.82,0,0,1,157.5,260.39Z"/><path class="cls-6" d="M165.59,260.57h-.8v-7.4h.8Z"/><path class="cls-6" d="M170.79,260.57H170v-.78h0a1.68,1.68,0,0,1-1.54.9,1.66,1.66,0,0,1-1.17-.4,1.36,1.36,0,0,1-.42-1.05c0-.93.55-1.48,1.65-1.63l1.5-.21c0-.85-.35-1.27-1-1.27a2.43,2.43,0,0,0-1.63.61v-.82a3.1,3.1,0,0,1,1.7-.47c1.17,0,1.76.62,1.76,1.87ZM170,258l-1.21.17a2,2,0,0,0-.84.27.79.79,0,0,0-.28.7.73.73,0,0,0,.26.6,1,1,0,0,0,.69.23,1.32,1.32,0,0,0,1-.41,1.51,1.51,0,0,0,.39-1.06Z"/><path class="cls-6" d="M174.9,256.38a1,1,0,0,0-.6-.16,1,1,0,0,0-.86.48,2.23,2.23,0,0,0-.34,1.32v2.55h-.8v-5h.8v1h0a1.64,1.64,0,0,1,.52-.82,1.31,1.31,0,0,1,1.26-.23Z"/><path class="cls-6" d="M180,260.17c0,1.83-.88,2.75-2.64,2.75a3.48,3.48,0,0,1-1.62-.35v-.8a3.38,3.38,0,0,0,1.61.47c1.23,0,1.85-.66,1.85-2v-.55h0a1.87,1.87,0,0,1-1.72,1A1.89,1.89,0,0,1,176,260a2.65,2.65,0,0,1-.57-1.79,3.19,3.19,0,0,1,.61-2,2.06,2.06,0,0,1,1.68-.75,1.62,1.62,0,0,1,1.5.81h0v-.69h.8Zm-.8-1.86v-.74a1.41,1.41,0,0,0-.4-1,1.35,1.35,0,0,0-1-.42,1.39,1.39,0,0,0-1.16.54,2.4,2.4,0,0,0-.42,1.51,2.11,2.11,0,0,0,.4,1.33,1.29,1.29,0,0,0,1.07.5,1.4,1.4,0,0,0,1.1-.48A1.76,1.76,0,0,0,179.24,258.31Z"/><path class="cls-6" d="M185.68,258.27h-3.53a1.83,1.83,0,0,0,.45,1.29,1.56,1.56,0,0,0,1.18.45,2.45,2.45,0,0,0,1.55-.55v.75a2.89,2.89,0,0,1-1.74.48,2.1,2.1,0,0,1-1.66-.68,2.78,2.78,0,0,1-.61-1.92,2.73,2.73,0,0,1,.66-1.9,2.12,2.12,0,0,1,1.64-.74,1.86,1.86,0,0,1,1.52.64,2.63,2.63,0,0,1,.54,1.76Zm-.82-.68a1.62,1.62,0,0,0-.33-1.08,1.14,1.14,0,0,0-.92-.38,1.28,1.28,0,0,0-1,.4,1.81,1.81,0,0,0-.49,1.06Z"/><path class="cls-6" d="M194,260.57h-.8V257.7a2.18,2.18,0,0,0-.26-1.2,1,1,0,0,0-.86-.37,1.06,1.06,0,0,0-.87.46,1.82,1.82,0,0,0-.36,1.13v2.85H190v-3q0-1.47-1.14-1.47a1,1,0,0,0-.87.44,1.87,1.87,0,0,0-.34,1.15v2.85h-.8v-5h.8v.79h0a1.69,1.69,0,0,1,1.55-.91,1.47,1.47,0,0,1,.9.29,1.43,1.43,0,0,1,.52.75,1.79,1.79,0,0,1,1.66-1q1.65,0,1.65,2Z"/><path class="cls-6" d="M199.52,258.27H196a1.93,1.93,0,0,0,.45,1.29,1.56,1.56,0,0,0,1.18.45,2.48,2.48,0,0,0,1.56-.55v.75a2.9,2.9,0,0,1-1.75.48,2.12,2.12,0,0,1-1.66-.68,2.78,2.78,0,0,1-.61-1.92,2.73,2.73,0,0,1,.66-1.9,2.14,2.14,0,0,1,1.65-.74,1.87,1.87,0,0,1,1.52.64,2.68,2.68,0,0,1,.53,1.76Zm-.82-.68a1.62,1.62,0,0,0-.33-1.08,1.14,1.14,0,0,0-.92-.38,1.28,1.28,0,0,0-1,.4,1.87,1.87,0,0,0-.49,1.06Z"/><path class="cls-6" d="M204.88,260.57h-.8v-2.85c0-1.06-.38-1.59-1.16-1.59a1.25,1.25,0,0,0-1,.45,1.68,1.68,0,0,0-.4,1.14v2.85h-.8v-5h.8v.83h0a1.82,1.82,0,0,1,1.64-.95,1.55,1.55,0,0,1,1.26.53,2.36,2.36,0,0,1,.43,1.53Z"/><path class="cls-6" d="M208.71,260.52a1.56,1.56,0,0,1-.74.16q-1.32,0-1.32-1.47v-3h-.86v-.68h.86v-1.22l.8-.26v1.48h1.26v.68h-1.26v2.82a1.19,1.19,0,0,0,.17.72.71.71,0,0,0,.57.21.83.83,0,0,0,.52-.16Z"/><path class="cls-6" d="M72.48,272.69a2.34,2.34,0,0,1-1.77-.7,2.61,2.61,0,0,1-.66-1.86,2.7,2.7,0,0,1,.69-2,2.49,2.49,0,0,1,1.86-.71,2.25,2.25,0,0,1,1.75.69,2.78,2.78,0,0,1,.62,1.91A2.69,2.69,0,0,1,74.3,272,2.38,2.38,0,0,1,72.48,272.69Zm.06-4.56a1.52,1.52,0,0,0-1.22.52,2.15,2.15,0,0,0-.45,1.45,2,2,0,0,0,.46,1.4,1.53,1.53,0,0,0,1.21.51,1.43,1.43,0,0,0,1.19-.5,2.18,2.18,0,0,0,.42-1.43,2.22,2.22,0,0,0-.42-1.45A1.46,1.46,0,0,0,72.54,268.13Z"/><path class="cls-6" d="M80.3,272.57h-.81v-.79h0a1.65,1.65,0,0,1-1.54.91c-1.19,0-1.79-.71-1.79-2.13v-3h.8v2.86c0,1.06.4,1.58,1.21,1.58a1.24,1.24,0,0,0,1-.43,1.65,1.65,0,0,0,.37-1.13v-2.88h.81Z"/><path class="cls-6" d="M85.84,267.57l-2,5h-.79l-1.89-5h.88l1.27,3.63a3.34,3.34,0,0,1,.17.7h0a4,4,0,0,1,.16-.68L85,267.57Z"/><path class="cls-6" d="M90.72,270.27H87.19a1.83,1.83,0,0,0,.45,1.29,1.56,1.56,0,0,0,1.18.45,2.45,2.45,0,0,0,1.55-.55v.75a2.89,2.89,0,0,1-1.74.48A2.14,2.14,0,0,1,87,272a2.83,2.83,0,0,1-.6-1.92,2.73,2.73,0,0,1,.66-1.9,2.12,2.12,0,0,1,1.64-.74,1.86,1.86,0,0,1,1.52.64,2.63,2.63,0,0,1,.54,1.76Zm-.82-.68a1.68,1.68,0,0,0-.33-1.08,1.14,1.14,0,0,0-.92-.38,1.28,1.28,0,0,0-1,.4,1.81,1.81,0,0,0-.49,1.06Z"/><path class="cls-6" d="M94.54,268.38a1,1,0,0,0-.61-.16,1,1,0,0,0-.85.48,2.22,2.22,0,0,0-.35,1.32v2.55h-.8v-5h.8v1h0a1.71,1.71,0,0,1,.52-.82,1.2,1.2,0,0,1,.79-.3,1.22,1.22,0,0,1,.48.07Z"/><path class="cls-6" d="M97.73,272.52a1.61,1.61,0,0,1-.75.16c-.88,0-1.31-.49-1.31-1.47v-3h-.86v-.68h.86v-1.22l.8-.26v1.48h1.26v.68H96.47v2.82a1.12,1.12,0,0,0,.17.72.68.68,0,0,0,.56.21.86.86,0,0,0,.53-.16Z"/><path class="cls-6" d="M102.36,271.85h0v3h-.8v-7.3h.8v.88h0a1.88,1.88,0,0,1,1.72-1,1.85,1.85,0,0,1,1.51.67,2.8,2.8,0,0,1,.54,1.8,3.07,3.07,0,0,1-.61,2,2,2,0,0,1-1.67.76A1.67,1.67,0,0,1,102.36,271.85Zm0-2v.7a1.48,1.48,0,0,0,.4,1.05,1.44,1.44,0,0,0,2.16-.12,2.55,2.55,0,0,0,.41-1.55,2,2,0,0,0-.38-1.31,1.27,1.27,0,0,0-1.05-.47,1.42,1.42,0,0,0-1.12.48A1.81,1.81,0,0,0,102.34,269.83Z"/><path class="cls-6" d="M109.5,272.69a2.36,2.36,0,0,1-1.77-.7,2.61,2.61,0,0,1-.66-1.86,2.7,2.7,0,0,1,.69-2,2.49,2.49,0,0,1,1.86-.71,2.25,2.25,0,0,1,1.75.69,2.78,2.78,0,0,1,.62,1.91,2.69,2.69,0,0,1-.67,1.92A2.38,2.38,0,0,1,109.5,272.69Zm.06-4.56a1.52,1.52,0,0,0-1.22.52,2.15,2.15,0,0,0-.45,1.45,2,2,0,0,0,.46,1.4,1.53,1.53,0,0,0,1.21.51,1.46,1.46,0,0,0,1.2-.5,2.23,2.23,0,0,0,.41-1.43,2.28,2.28,0,0,0-.41-1.45A1.49,1.49,0,0,0,109.56,268.13Z"/><path class="cls-6" d="M113,272.39v-.86a2.4,2.4,0,0,0,1.44.48c.7,0,1.06-.23,1.06-.7a.55.55,0,0,0-.1-.34.94.94,0,0,0-.24-.25,2,2,0,0,0-.36-.19l-.45-.18c-.22-.09-.41-.17-.58-.26a1.53,1.53,0,0,1-.42-.31,1,1,0,0,1-.25-.38,1.28,1.28,0,0,1-.09-.5,1.15,1.15,0,0,1,.16-.62,1.35,1.35,0,0,1,.43-.46,2.28,2.28,0,0,1,.61-.28,2.82,2.82,0,0,1,.71-.09,2.91,2.91,0,0,1,1.17.23v.81a2.27,2.27,0,0,0-1.27-.36,1.32,1.32,0,0,0-.41.05,1,1,0,0,0-.31.14.69.69,0,0,0-.2.22.59.59,0,0,0-.07.29.67.67,0,0,0,.07.33.9.9,0,0,0,.21.23,1.69,1.69,0,0,0,.33.19l.45.18a4.72,4.72,0,0,1,.59.26,2,2,0,0,1,.45.3,1.24,1.24,0,0,1,.29.39,1.38,1.38,0,0,1,.1.52,1.26,1.26,0,0,1-.17.65,1.42,1.42,0,0,1-.43.45,2.22,2.22,0,0,1-.63.27,3.08,3.08,0,0,1-.75.09A2.82,2.82,0,0,1,113,272.39Z"/><path class="cls-6" d="M117.21,272.39v-.86a2.4,2.4,0,0,0,1.44.48c.71,0,1.06-.23,1.06-.7a.62.62,0,0,0-.09-.34,1,1,0,0,0-.25-.25,2,2,0,0,0-.36-.19l-.44-.18a5.71,5.71,0,0,1-.59-.26,1.7,1.7,0,0,1-.42-.31,1.19,1.19,0,0,1-.25-.38,1.28,1.28,0,0,1-.09-.5,1.24,1.24,0,0,1,.16-.62,1.46,1.46,0,0,1,.43-.46,2.34,2.34,0,0,1,.62-.28,2.76,2.76,0,0,1,.71-.09,2.86,2.86,0,0,1,1.16.23v.81a2.27,2.27,0,0,0-1.27-.36,1.32,1.32,0,0,0-.41.05.83.83,0,0,0-.3.14.58.58,0,0,0-.28.51.81.81,0,0,0,.07.33.9.9,0,0,0,.21.23,1.69,1.69,0,0,0,.33.19l.45.18a4.72,4.72,0,0,1,.59.26,2,2,0,0,1,.45.3,1.11,1.11,0,0,1,.29.39,1.21,1.21,0,0,1,.1.52,1.36,1.36,0,0,1-.16.65,1.45,1.45,0,0,1-.44.45,2,2,0,0,1-.63.27,3.08,3.08,0,0,1-.75.09A2.85,2.85,0,0,1,117.21,272.39Z"/><path class="cls-6" d="M122.17,266.3a.51.51,0,0,1-.37-.15.48.48,0,0,1-.15-.37.5.5,0,0,1,.15-.37.51.51,0,0,1,.37-.15.5.5,0,0,1,.37.15.51.51,0,0,1,0,.74A.5.5,0,0,1,122.17,266.3Zm.39,6.27h-.8v-5h.8Z"/><path class="cls-6" d="M125,271.85h0v.72h-.8v-7.4h.8v3.28h0a1.89,1.89,0,0,1,1.73-1,1.87,1.87,0,0,1,1.51.67,2.8,2.8,0,0,1,.54,1.8,3.07,3.07,0,0,1-.61,2,2,2,0,0,1-1.67.76A1.65,1.65,0,0,1,125,271.85Zm0-2v.7a1.53,1.53,0,0,0,.4,1.05,1.45,1.45,0,0,0,2.17-.12,2.62,2.62,0,0,0,.41-1.55,2,2,0,0,0-.39-1.31,1.24,1.24,0,0,0-1-.47,1.41,1.41,0,0,0-1.12.48A1.77,1.77,0,0,0,125,269.83Z"/><path class="cls-6" d="M130.86,272.57h-.8v-7.4h.8Z"/><path class="cls-6" d="M136.5,270.27H133a1.83,1.83,0,0,0,.45,1.29,1.56,1.56,0,0,0,1.18.45,2.45,2.45,0,0,0,1.55-.55v.75a2.89,2.89,0,0,1-1.74.48,2.1,2.1,0,0,1-1.66-.68,2.78,2.78,0,0,1-.61-1.92,2.73,2.73,0,0,1,.66-1.9,2.12,2.12,0,0,1,1.64-.74,1.85,1.85,0,0,1,1.52.64,2.63,2.63,0,0,1,.54,1.76Zm-.82-.68a1.62,1.62,0,0,0-.33-1.08,1.14,1.14,0,0,0-.92-.38,1.28,1.28,0,0,0-1,.4,1.81,1.81,0,0,0-.49,1.06Z"/><path class="cls-6" d="M138,272.68a.55.55,0,0,1-.38-.94.49.49,0,0,1,.38-.16.55.55,0,0,1,.39.94A.57.57,0,0,1,138,272.68Z"/><text class="cls-7" transform="translate(115.03 117.11)"><tspan class="cls-8">V</tspan><tspan x="7.58" y="0">rai/</tspan><tspan class="cls-9" x="27.54" y="0">F</tspan><tspan x="33.43" y="0">aux</tspan></text><line class="cls-10" x1="54" x2="54" y2="36"/><line class="cls-10" y1="54" x2="36" y2="54"/><line class="cls-10" y1="307.96" x2="36" y2="307.96"/><line class="cls-10" x1="54" y1="361.96" x2="54" y2="325.96"/><line class="cls-10" x1="236.83" x2="236.83" y2="36"/><line class="cls-10" x1="290.83" y1="54" x2="254.83" y2="54"/><line class="cls-10" x1="290.83" y1="307.96" x2="254.83" y2="307.96"/><line class="cls-10" x1="236.83" y1="361.96" x2="236.83" y2="325.96"/></svg>