<svg id="Calque_1" data-name="Calque 1" xmlns="http://www.w3.org/2000/svg" viewBox="0 0 290.83 361.96"><defs><style>.cls-1,.cls-8{fill:#009741;}.cls-2,.cls-4,.cls-5{fill:#fff;}.cls-3{opacity:0.2;}.cls-4{font-size:19.62px;font-family:TwCenMT-CondensedExtraBold, Tw Cen MT Condensed Extra Bold;font-weight:800;}.cls-5{stroke:#fff;stroke-miterlimit:10;stroke-width:0.25px;}.cls-6{font-size:10px;fill:#000100;font-family:SegoeUI, Segoe UI;}.cls-7{letter-spacing:-0.03em;}.cls-8{font-size:12px;font-family:SegoeUI-Bold, Segoe UI;font-weight:700;}.cls-9{fill:none;stroke:#000;stroke-width:0.3px;}</style></defs><title>Carte_verte_17</title><rect class="cls-1" x="43.38" y="39.25" width="204.07" height="283.46" rx="22.14"/><path class="cls-2" d="M77.75,95.37h136a17,17,0,0,1,17,17V279.58a17,17,0,0,1-17,17.05h-136a17,17,0,0,1-17-17.05V112.42A17,17,0,0,1,77.75,95.37Z"/><g class="cls-3"><path class="cls-1" d="M119.75,167.18a22.72,22.72,0,1,1,45.44,0v37.43h15.17V167.18a37.9,37.9,0,1,0-75.79,0"/><path class="cls-1" d="M104.57,167.18"/><path class="cls-1" d="M155.05,226.46a12.52,12.52,0,1,1-12.52-12.52,12.52,12.52,0,0,1,12.52,12.52"/><path class="cls-1" d="M112.87,226.33a29.51,29.51,0,1,1,29.51,29.51,29.55,29.55,0,0,1-29.51-29.51m-15.18,0a44.69,44.69,0,1,0,44.69-44.69,44.74,44.74,0,0,0-44.69,44.69"/><line class="cls-1" x1="104.57" y1="167.18" x2="119.75" y2="167.18"/></g><text class="cls-4" transform="translate(87.84 80.93)"><tspan xml:space="preserve">Escape the   ab</tspan></text><path class="cls-5" d="M178.11,63.31l-6.41,0a.76.76,0,0,0-.55.23.8.8,0,0,0-.22.55.75.75,0,0,0,.23.55.77.77,0,0,0,.47.22l.1,13.28a3.29,3.29,0,0,0,6.58,0l-.1-13.29a.78.78,0,0,0-.1-1.55Zm.26.78a.24.24,0,0,1-.07.18.27.27,0,0,1-.18.08h-.24l-3.92,0a.26.26,0,1,0,0,.52l3.73,0,.1,13.28a2.77,2.77,0,1,1-5.54,0l-.1-13.28h.78a.25.25,0,0,0,.25-.26.26.26,0,0,0-.26-.26h-1.21a.27.27,0,0,1-.26-.26.24.24,0,0,1,.26-.26l6.4-.05a.26.26,0,0,1,.26.26Z"/><path class="cls-5" d="M177,71.19a1,1,0,0,0-.65.23.55.55,0,0,1-.35.13.54.54,0,0,1-.35-.13,1,1,0,0,0-.65-.21,1,1,0,0,0-.64.22.5.5,0,0,1-.35.13.57.57,0,0,1-.35-.12,1,1,0,0,0-.65-.22.27.27,0,0,0-.18.08.24.24,0,0,0-.07.18l0,2.84a.26.26,0,0,0,.52,0l0-2.5.09,0a1,1,0,0,0,.65.22,1,1,0,0,0,.64-.22.5.5,0,0,1,.35-.13.47.47,0,0,1,.35.12,1,1,0,0,0,.65.21,1,1,0,0,0,.64-.22l.09-.06.05,6.38A1.74,1.74,0,0,1,175,79.9a1.72,1.72,0,0,1-1.74-1.72l0-2.83a.27.27,0,0,0-.27-.26.25.25,0,0,0-.25.26l0,2.84A2.24,2.24,0,0,0,175,80.42a2.2,2.2,0,0,0,1.59-.67,2.28,2.28,0,0,0,.65-1.6l-.05-6.68a.27.27,0,0,0-.25-.28Z"/><path class="cls-5" d="M175.67,67a.26.26,0,0,0,.26.26.26.26,0,0,1,.19.44.27.27,0,0,1-.19.08.26.26,0,0,1-.26-.26.26.26,0,1,0-.52,0,.8.8,0,0,0,.79.78.82.82,0,0,0,.55-.24.78.78,0,0,0-.56-1.32.26.26,0,0,0-.26.26Z"/><path class="cls-5" d="M174.51,70.12a.79.79,0,0,0,.23-.56.84.84,0,0,0-.24-.55.78.78,0,0,0-.55-.22.26.26,0,0,0-.26.26.26.26,0,0,0,.26.26.32.32,0,0,1,.19.07.27.27,0,0,1,.08.19.27.27,0,0,1-.26.26.27.27,0,0,1-.19-.08.27.27,0,0,1-.07-.18.26.26,0,1,0-.52,0,.77.77,0,0,0,.78.77.79.79,0,0,0,.55-.23Z"/><text class="cls-6" transform="translate(69.55 138.71)">Quel est le nom du système de <tspan x="0" y="12">relecture dans lequel l’auteur.e et </tspan><tspan x="0" y="24">les relecteur.trice.s ne connaissent </tspan><tspan x="0" y="36">pas leur identité respective ?</tspan><tspan x="0" y="51">A) Double blind peer review</tspan><tspan x="0" y="66">B) Anonymous peer review</tspan><tspan x="0" y="81">C) Secret peer review</tspan><tspan class="cls-7" x="0" y="117">R</tspan><tspan x="5.69" y="117">éponse : A</tspan></text><text class="cls-8" transform="translate(101.19 116.88)">Choix multiple</text><line class="cls-9" x1="54" x2="54" y2="36"/><line class="cls-9" y1="54" x2="36" y2="54"/><line class="cls-9" y1="307.96" x2="36" y2="307.96"/><line class="cls-9" x1="54" y1="361.96" x2="54" y2="325.96"/><line class="cls-9" x1="236.83" x2="236.83" y2="36"/><line class="cls-9" x1="290.83" y1="54" x2="254.83" y2="54"/><line class="cls-9" x1="290.83" y1="307.96" x2="254.83" y2="307.96"/><line class="cls-9" x1="236.83" y1="361.96" x2="236.83" y2="325.96"/></svg>