<svg id="Calque_1" data-name="Calque 1" xmlns="http://www.w3.org/2000/svg" viewBox="0 0 290.83 361.96"><defs><style>.cls-1,.cls-7{fill:#f9b233;}.cls-2,.cls-3,.cls-4{fill:#fff;}.cls-3{font-size:19.62px;font-family:TwCenMT-CondensedExtraBold, Tw Cen MT Condensed Extra Bold;font-weight:800;}.cls-4{stroke:#fff;stroke-miterlimit:10;stroke-width:0.25px;}.cls-5{opacity:0.4;}.cls-6{fill:#000100;}.cls-7{font-size:12px;font-family:SegoeUI-Bold, Segoe UI;font-weight:700;}.cls-8{letter-spacing:-0.04em;}.cls-9{letter-spacing:-0.03em;}.cls-10{fill:none;stroke:#000;stroke-width:0.3px;}</style></defs><title>Carte_jaune_1</title><path class="cls-1" d="M65.53,39.25H225.31a22.09,22.09,0,0,1,22.14,22.14V300.57a22.1,22.1,0,0,1-22.14,22.14H65.53a22.1,22.1,0,0,1-22.15-22.14V61.39A22.09,22.09,0,0,1,65.53,39.25Z"/><path class="cls-2" d="M77.65,96.07h136a17,17,0,0,1,17,17.05V280.28a17,17,0,0,1-17,17.05h-136a17,17,0,0,1-17-17.05V113.12A17,17,0,0,1,77.65,96.07Z"/><text class="cls-3" transform="translate(86.45 81.75)"><tspan xml:space="preserve">Escape the   ab</tspan></text><path class="cls-4" d="M176.72,64.13l-6.41.05a.74.74,0,0,0-.54.23.77.77,0,0,0,0,1.1.77.77,0,0,0,.47.22l.1,13.29a3.29,3.29,0,0,0,3.31,3.26A3.29,3.29,0,0,0,176.92,79l-.1-13.29a.83.83,0,0,0,.46-.22.74.74,0,0,0,.22-.56.77.77,0,0,0-.78-.77Zm.26.78a.24.24,0,0,1-.07.18.25.25,0,0,1-.18.08h-.23l-3.93,0a.26.26,0,1,0,0,.52l3.72,0L176.4,79a2.79,2.79,0,0,1-.8,2A2.77,2.77,0,0,1,170.86,79l-.1-13.28h.78a.26.26,0,1,0,0-.52h-1.21a.25.25,0,0,1-.18-.44.23.23,0,0,1,.18-.08l6.4,0a.25.25,0,0,1,.26.26Z"/><path class="cls-4" d="M175.57,72a1,1,0,0,0-.65.23.5.5,0,0,1-.35.13.54.54,0,0,1-.35-.13,1,1,0,0,0-.64-.21,1,1,0,0,0-.65.22.5.5,0,0,1-.35.13.53.53,0,0,1-.35-.12,1,1,0,0,0-.64-.22.27.27,0,0,0-.19.08.26.26,0,0,0-.07.19l0,2.83a.26.26,0,0,0,.26.26.27.27,0,0,0,.26-.27l0-2.5a.24.24,0,0,1,.09.06,1.05,1.05,0,0,0,.65.21,1,1,0,0,0,.64-.22.5.5,0,0,1,.35-.13.5.5,0,0,1,.35.12,1,1,0,0,0,.65.22,1,1,0,0,0,.64-.23l.09-.06.05,6.38a1.72,1.72,0,0,1-.5,1.23,1.69,1.69,0,0,1-1.22.51A1.73,1.73,0,0,1,171.9,79l0-2.83a.26.26,0,1,0-.52,0l0,2.83a2.25,2.25,0,0,0,2.27,2.23,2.19,2.19,0,0,0,1.58-.67,2.26,2.26,0,0,0,.65-1.6l0-6.68a.27.27,0,0,0-.25-.28Z"/><path class="cls-4" d="M174.28,67.78a.26.26,0,0,0,.26.26.26.26,0,0,1,.26.26.24.24,0,0,1-.07.18.26.26,0,0,1-.45-.18A.26.26,0,0,0,174,68a.27.27,0,0,0-.26.27.79.79,0,0,0,.79.77.81.81,0,0,0,.55-.23.82.82,0,0,0,.22-.56.77.77,0,0,0-.78-.77.26.26,0,0,0-.26.26Z"/><path class="cls-4" d="M173.12,70.94a.78.78,0,0,0,.23-.55.76.76,0,0,0-.24-.55.75.75,0,0,0-.55-.23.26.26,0,1,0,0,.52.26.26,0,0,1,0,.52.24.24,0,0,1-.18-.07.27.27,0,0,1-.08-.19.26.26,0,0,0-.26-.25.25.25,0,0,0-.26.26.77.77,0,0,0,.78.77.75.75,0,0,0,.55-.23Z"/><g class="cls-5"><path class="cls-1" d="M118.9,166a22.72,22.72,0,0,1,45.44,0v37.44h15.18V166a37.9,37.9,0,0,0-75.79,0"/><path class="cls-1" d="M103.73,166"/><path class="cls-1" d="M154.2,225.27a12.52,12.52,0,1,1-12.52-12.53,12.52,12.52,0,0,1,12.52,12.53"/><path class="cls-1" d="M112,225.13a29.51,29.51,0,1,1,29.51,29.51A29.55,29.55,0,0,1,112,225.13m-15.18,0a44.69,44.69,0,1,0,44.69-44.68,44.74,44.74,0,0,0-44.69,44.68"/><line class="cls-1" x1="103.73" y1="165.98" x2="118.9" y2="165.98"/></g><path class="cls-6" d="M72.37,133.42c0,2-.89,3-2.67,3s-2.54-1-2.54-2.84v-4.28H68v4.23c0,1.43.6,2.15,1.81,2.15s1.76-.69,1.76-2.08v-4.3h.82Z"/><path class="cls-6" d="M78.16,136.25h-.8V133.4q0-1.59-1.17-1.59a1.25,1.25,0,0,0-1,.45,1.68,1.68,0,0,0-.39,1.14v2.85H74v-5h.8v.83h0a1.8,1.8,0,0,1,1.64-1,1.54,1.54,0,0,1,1.25.53,2.39,2.39,0,0,1,.44,1.54Z"/><path class="cls-6" d="M82.51,136.25v-7h1.94c2.46,0,3.7,1.14,3.7,3.41a3.48,3.48,0,0,1-1,2.61,3.84,3.84,0,0,1-2.75,1Zm.82-6.26v5.52h1a3,3,0,0,0,2.14-.74,2.77,2.77,0,0,0,.77-2.09c0-1.79-1-2.69-2.86-2.69Z"/><path class="cls-6" d="M89.83,130a.53.53,0,0,1-.37-.14.51.51,0,0,1-.15-.37.52.52,0,0,1,.15-.38.5.5,0,0,1,.37-.15.51.51,0,0,1,.37.15.52.52,0,0,1,.15.38.49.49,0,0,1-.15.36A.51.51,0,0,1,89.83,130Zm.39,6.27h-.8v-5h.8Z"/><path class="cls-6" d="M96.11,135.85q0,2.76-2.64,2.76a3.46,3.46,0,0,1-1.62-.36v-.8a3.24,3.24,0,0,0,1.61.47c1.23,0,1.84-.65,1.84-2v-.55h0a1.89,1.89,0,0,1-1.72,1,1.84,1.84,0,0,1-1.5-.67,2.65,2.65,0,0,1-.57-1.79,3.08,3.08,0,0,1,.61-2,2.06,2.06,0,0,1,1.68-.76,1.63,1.63,0,0,1,1.5.82h0v-.7h.81ZM95.3,134v-.74a1.44,1.44,0,0,0-.4-1,1.33,1.33,0,0,0-1-.42,1.38,1.38,0,0,0-1.16.54,2.4,2.4,0,0,0-.42,1.51,2.08,2.08,0,0,0,.4,1.34,1.31,1.31,0,0,0,1.07.5,1.38,1.38,0,0,0,1.09-.48A1.8,1.8,0,0,0,95.3,134Z"/><path class="cls-6" d="M98.14,130a.53.53,0,0,1-.37-.14.51.51,0,0,1-.15-.37.52.52,0,0,1,.15-.38.5.5,0,0,1,.37-.15.51.51,0,0,1,.37.15.52.52,0,0,1,.15.38.49.49,0,0,1-.15.36A.51.51,0,0,1,98.14,130Zm.39,6.27h-.8v-5h.8Z"/><path class="cls-6" d="M102.47,136.2a1.49,1.49,0,0,1-.75.16c-.87,0-1.31-.49-1.31-1.47v-2.95h-.86v-.69h.86V130l.8-.26v1.48h1.26v.69h-1.26v2.81a1.19,1.19,0,0,0,.17.72.69.69,0,0,0,.57.22.85.85,0,0,0,.52-.17Z"/><path class="cls-6" d="M107.12,136.25h-.8v-.78h0a1.68,1.68,0,0,1-1.54.9,1.61,1.61,0,0,1-1.17-.4,1.36,1.36,0,0,1-.42-1.05c0-.93.55-1.47,1.65-1.63l1.5-.21c0-.85-.35-1.27-1-1.27a2.47,2.47,0,0,0-1.64.61v-.82a3.15,3.15,0,0,1,1.7-.47c1.18,0,1.77.63,1.77,1.87Zm-.8-2.53-1.21.17a2,2,0,0,0-.84.27.81.81,0,0,0-.28.71.73.73,0,0,0,.26.59,1,1,0,0,0,.69.24,1.29,1.29,0,0,0,1-.42,1.49,1.49,0,0,0,.39-1.06Z"/><path class="cls-6" d="M109.43,136.25h-.8v-7.4h.8Z"/><path class="cls-6" d="M116.72,136.37a3.09,3.09,0,0,1-2.39-1,3.65,3.65,0,0,1-.9-2.56,3.85,3.85,0,0,1,.92-2.69,3.2,3.2,0,0,1,2.48-1,3,3,0,0,1,2.34,1,3.65,3.65,0,0,1,.89,2.55,3.88,3.88,0,0,1-.91,2.71A3.12,3.12,0,0,1,116.72,136.37Zm0-6.49a2.26,2.26,0,0,0-1.79.79,3.52,3.52,0,0,0,0,4.17,2.17,2.17,0,0,0,1.75.79,2.3,2.3,0,0,0,1.81-.75,3.08,3.08,0,0,0,.67-2.1,3.23,3.23,0,0,0-.65-2.15A2.22,2.22,0,0,0,116.77,129.88Z"/><path class="cls-6" d="M122.15,135.53h0v.72h-.8v-7.4h.8v3.28h0a1.9,1.9,0,0,1,1.72-1,1.82,1.82,0,0,1,1.51.68,2.76,2.76,0,0,1,.54,1.8,3.06,3.06,0,0,1-.61,2,2,2,0,0,1-1.67.76A1.62,1.62,0,0,1,122.15,135.53Zm0-2v.7a1.47,1.47,0,0,0,.4,1,1.42,1.42,0,0,0,2.16-.12,2.53,2.53,0,0,0,.41-1.55,2,2,0,0,0-.38-1.31,1.3,1.3,0,0,0-1-.47,1.42,1.42,0,0,0-1.12.48A1.81,1.81,0,0,0,122.13,133.51Z"/><path class="cls-6" d="M128,136a3.16,3.16,0,0,1-.5,1.9,1.67,1.67,0,0,1-1.42.67,1.53,1.53,0,0,1-.66-.16v-.75a1.29,1.29,0,0,0,.68.22c.73,0,1.09-.58,1.09-1.75v-4.92H128Zm-.4-6.06a.52.52,0,0,1-.36-.14.51.51,0,0,1-.15-.37.52.52,0,0,1,.15-.38.49.49,0,0,1,.36-.15.51.51,0,0,1,.53.53.49.49,0,0,1-.15.36A.52.52,0,0,1,127.61,130Z"/><path class="cls-6" d="M133.64,134h-3.53a1.93,1.93,0,0,0,.45,1.29,1.57,1.57,0,0,0,1.19.46,2.46,2.46,0,0,0,1.55-.56v.75a2.9,2.9,0,0,1-1.75.48,2.12,2.12,0,0,1-1.66-.68,2.82,2.82,0,0,1-.61-1.92,2.74,2.74,0,0,1,.67-1.9,2.11,2.11,0,0,1,1.64-.74,1.9,1.9,0,0,1,1.52.64,2.62,2.62,0,0,1,.53,1.76Zm-.82-.68a1.62,1.62,0,0,0-.33-1.08,1.17,1.17,0,0,0-.92-.38,1.31,1.31,0,0,0-1,.4,1.94,1.94,0,0,0-.49,1.06Z"/><path class="cls-6" d="M138.26,136a2.6,2.6,0,0,1-1.36.35,2.25,2.25,0,0,1-1.73-.7,2.5,2.5,0,0,1-.66-1.8,2.8,2.8,0,0,1,.71-2,2.47,2.47,0,0,1,1.89-.75,2.64,2.64,0,0,1,1.16.25v.82a2,2,0,0,0-1.19-.39,1.61,1.61,0,0,0-1.26.55,2.11,2.11,0,0,0-.49,1.44,2,2,0,0,0,.47,1.39,1.57,1.57,0,0,0,1.23.51,2,2,0,0,0,1.23-.44Z"/><path class="cls-6" d="M141.79,136.2a1.43,1.43,0,0,1-.74.16q-1.32,0-1.32-1.47v-2.95h-.86v-.69h.86V130l.8-.26v1.48h1.26v.69h-1.26v2.81a1.11,1.11,0,0,0,.18.72.68.68,0,0,0,.56.22.83.83,0,0,0,.52-.17Z"/><path class="cls-6" d="M146.53,136.25h-.82v-7h.82Z"/><path class="cls-6" d="M152.53,136.25h-.8v-.85h0a2,2,0,0,1-3.22.3,2.75,2.75,0,0,1-.57-1.83,3,3,0,0,1,.63-2,2,2,0,0,1,1.66-.75,1.59,1.59,0,0,1,1.5.82h0v-3.1h.8Zm-.8-2.26v-.74a1.41,1.41,0,0,0-.4-1,1.36,1.36,0,0,0-1-.42,1.39,1.39,0,0,0-1.15.54,2.33,2.33,0,0,0-.42,1.48,2.19,2.19,0,0,0,.4,1.37,1.35,1.35,0,0,0,1.09.5,1.38,1.38,0,0,0,1.08-.49A1.79,1.79,0,0,0,151.73,134Z"/><path class="cls-6" d="M158.17,134h-3.53a1.83,1.83,0,0,0,.45,1.29,1.57,1.57,0,0,0,1.18.46,2.44,2.44,0,0,0,1.55-.56v.75a2.89,2.89,0,0,1-1.74.48,2.1,2.1,0,0,1-1.66-.68,2.77,2.77,0,0,1-.61-1.92,2.73,2.73,0,0,1,.66-1.9,2.12,2.12,0,0,1,1.64-.74,1.88,1.88,0,0,1,1.52.64,2.63,2.63,0,0,1,.54,1.76Zm-.82-.68a1.62,1.62,0,0,0-.33-1.08,1.17,1.17,0,0,0-.92-.38,1.28,1.28,0,0,0-1,.4,1.81,1.81,0,0,0-.49,1.06Z"/><path class="cls-6" d="M163.53,136.25h-.8V133.4c0-1.06-.39-1.59-1.16-1.59a1.25,1.25,0,0,0-1,.45,1.64,1.64,0,0,0-.4,1.14v2.85h-.8v-5h.8v.83h0a1.82,1.82,0,0,1,1.64-1,1.55,1.55,0,0,1,1.26.53,2.39,2.39,0,0,1,.43,1.54Z"/><path class="cls-6" d="M167.36,136.2a1.49,1.49,0,0,1-.75.16c-.87,0-1.31-.49-1.31-1.47v-2.95h-.86v-.69h.86V130l.8-.26v1.48h1.26v.69H166.1v2.81a1.19,1.19,0,0,0,.17.72.7.7,0,0,0,.57.22.85.85,0,0,0,.52-.17Z"/><path class="cls-6" d="M168.84,130a.55.55,0,0,1-.37-.14.51.51,0,0,1-.15-.37.52.52,0,0,1,.15-.38.51.51,0,0,1,.37-.15.5.5,0,0,1,.37.15.49.49,0,0,1,.16.38.46.46,0,0,1-.16.36A.5.5,0,0,1,168.84,130Zm.39,6.27h-.8v-5h.8Z"/><path class="cls-6" d="M173.32,129.55a1.12,1.12,0,0,0-.53-.13c-.56,0-.84.35-.84,1.06v.77h1.17v.69H172v4.31h-.8v-4.31h-.85v-.69h.85v-.81a1.69,1.69,0,0,1,.46-1.24,1.7,1.7,0,0,1,1.71-.37Z"/><path class="cls-6" d="M174.39,130a.52.52,0,0,1-.36-.89.49.49,0,0,1,.36-.15.54.54,0,0,1,.38.15.52.52,0,0,1,.15.38.49.49,0,0,1-.15.36A.54.54,0,0,1,174.39,130Zm.39,6.27H174v-5h.8Z"/><path class="cls-6" d="M180.42,134h-3.53a1.83,1.83,0,0,0,.45,1.29,1.57,1.57,0,0,0,1.18.46,2.49,2.49,0,0,0,1.56-.56v.75a2.92,2.92,0,0,1-1.75.48,2.12,2.12,0,0,1-1.66-.68,2.77,2.77,0,0,1-.61-1.92,2.73,2.73,0,0,1,.66-1.9,2.13,2.13,0,0,1,1.65-.74,1.87,1.87,0,0,1,1.51.64,2.63,2.63,0,0,1,.54,1.76Zm-.82-.68a1.62,1.62,0,0,0-.33-1.08,1.17,1.17,0,0,0-.92-.38,1.28,1.28,0,0,0-1,.4,1.87,1.87,0,0,0-.49,1.06Z"/><path class="cls-6" d="M184.24,132.06a1,1,0,0,0-.61-.16,1,1,0,0,0-.85.48,2.27,2.27,0,0,0-.35,1.32v2.55h-.8v-5h.8v1h0a1.77,1.77,0,0,1,.53-.82,1.16,1.16,0,0,1,.78-.3,1.43,1.43,0,0,1,.48.07Z"/><path class="cls-6" d="M190,137.84h-.71a6.23,6.23,0,0,1-1.52-4.26,6.48,6.48,0,0,1,1.52-4.33H190a6.6,6.6,0,0,0-1.53,4.32A6.42,6.42,0,0,0,190,137.84Z"/><path class="cls-6" d="M191,136.25v-7h1.94c2.46,0,3.7,1.14,3.7,3.41a3.44,3.44,0,0,1-1,2.61,3.82,3.82,0,0,1-2.75,1Zm.82-6.26v5.52h1.05a3,3,0,0,0,2.14-.74,2.77,2.77,0,0,0,.77-2.09c0-1.79-1-2.69-2.86-2.69Z"/><path class="cls-6" d="M200.81,136.37a3.09,3.09,0,0,1-2.39-1,3.69,3.69,0,0,1-.89-2.56,3.85,3.85,0,0,1,.91-2.69,3.2,3.2,0,0,1,2.49-1,3,3,0,0,1,2.33,1,3.65,3.65,0,0,1,.89,2.55,3.83,3.83,0,0,1-.91,2.71A3.12,3.12,0,0,1,200.81,136.37Zm.06-6.49a2.27,2.27,0,0,0-1.8.79,3.56,3.56,0,0,0,0,4.17,2.18,2.18,0,0,0,1.75.79,2.28,2.28,0,0,0,1.81-.75,3,3,0,0,0,.67-2.1,3.23,3.23,0,0,0-.65-2.15A2.21,2.21,0,0,0,200.87,129.88Z"/><path class="cls-6" d="M206.35,136.25h-.82v-7h.82Z"/><path class="cls-6" d="M208.1,137.84h-.72a6.43,6.43,0,0,0,1.53-4.27,6.55,6.55,0,0,0-1.54-4.32h.73a6.48,6.48,0,0,1,1.52,4.33A6.23,6.23,0,0,1,208.1,137.84Z"/><path class="cls-6" d="M68,147.53h0v3h-.8v-7.3h.8v.88h0a1.9,1.9,0,0,1,1.72-1,1.82,1.82,0,0,1,1.51.68,2.76,2.76,0,0,1,.55,1.8,3.12,3.12,0,0,1-.61,2,2,2,0,0,1-1.67.76A1.67,1.67,0,0,1,68,147.53Zm0-2v.7a1.47,1.47,0,0,0,.4,1,1.42,1.42,0,0,0,2.16-.12,2.53,2.53,0,0,0,.42-1.55,2,2,0,0,0-.39-1.31,1.3,1.3,0,0,0-1-.47,1.42,1.42,0,0,0-1.12.48A1.81,1.81,0,0,0,67.94,145.51Z"/><path class="cls-6" d="M77,146H73.5a1.93,1.93,0,0,0,.45,1.29,1.57,1.57,0,0,0,1.18.46,2.49,2.49,0,0,0,1.56-.56v.75a2.9,2.9,0,0,1-1.75.48,2.12,2.12,0,0,1-1.66-.68,2.77,2.77,0,0,1-.61-1.92,2.73,2.73,0,0,1,.66-1.9,2.14,2.14,0,0,1,1.65-.74,1.9,1.9,0,0,1,1.52.64,2.68,2.68,0,0,1,.53,1.76Zm-.82-.68a1.62,1.62,0,0,0-.33-1.08,1.17,1.17,0,0,0-.92-.38,1.29,1.29,0,0,0-1,.4,1.87,1.87,0,0,0-.49,1.06Z"/><path class="cls-6" d="M80.85,144.06a1.07,1.07,0,0,0-1.46.32,2.27,2.27,0,0,0-.34,1.32v2.55h-.81v-5h.81v1h0a1.77,1.77,0,0,1,.53-.82,1.16,1.16,0,0,1,.78-.3,1.43,1.43,0,0,1,.48.07Z"/><path class="cls-6" d="M88.82,148.25H88v-2.87a2.18,2.18,0,0,0-.26-1.2,1,1,0,0,0-.86-.37,1.08,1.08,0,0,0-.87.47,1.77,1.77,0,0,0-.36,1.12v2.85h-.8v-3q0-1.47-1.14-1.47a1.07,1.07,0,0,0-.87.44,1.89,1.89,0,0,0-.34,1.15v2.85h-.8v-5h.8V144h0a1.71,1.71,0,0,1,1.55-.91,1.47,1.47,0,0,1,.9.29,1.43,1.43,0,0,1,.52.75,1.78,1.78,0,0,1,1.66-1q1.65,0,1.65,2Z"/><path class="cls-6" d="M94.35,146H90.82a1.88,1.88,0,0,0,.45,1.29,1.57,1.57,0,0,0,1.18.46,2.49,2.49,0,0,0,1.56-.56v.75a2.9,2.9,0,0,1-1.75.48,2.12,2.12,0,0,1-1.66-.68,2.77,2.77,0,0,1-.61-1.92,2.73,2.73,0,0,1,.66-1.9,2.13,2.13,0,0,1,1.65-.74,1.9,1.9,0,0,1,1.52.64,2.68,2.68,0,0,1,.53,1.76Zm-.82-.68a1.62,1.62,0,0,0-.33-1.08,1.17,1.17,0,0,0-.92-.38,1.28,1.28,0,0,0-1,.4,1.87,1.87,0,0,0-.49,1.06Z"/><path class="cls-6" d="M97.88,148.2a1.48,1.48,0,0,1-.74.16q-1.32,0-1.32-1.47v-2.95H95v-.69h.86V142l.8-.26v1.48h1.26v.69H96.62v2.81a1.19,1.19,0,0,0,.17.72.72.72,0,0,0,.57.22.83.83,0,0,0,.52-.17Z"/><path class="cls-6" d="M106,148.25h-.8v-.85h0a1.85,1.85,0,0,1-1.72,1,1.87,1.87,0,0,1-1.51-.67,2.8,2.8,0,0,1-.56-1.83,3,3,0,0,1,.62-2,2.08,2.08,0,0,1,1.67-.75,1.59,1.59,0,0,1,1.5.82h0v-3.1h.8Zm-.8-2.26v-.74a1.41,1.41,0,0,0-.4-1,1.36,1.36,0,0,0-1-.42,1.37,1.37,0,0,0-1.15.54,2.33,2.33,0,0,0-.42,1.48,2.13,2.13,0,0,0,.4,1.37,1.33,1.33,0,0,0,1.08.5,1.38,1.38,0,0,0,1.09-.49A1.79,1.79,0,0,0,105.16,146Z"/><path class="cls-6" d="M108.27,141.25v2.18h-.7v-2.18Z"/><path class="cls-6" d="M110.29,142a.55.55,0,0,1-.37-.14.51.51,0,0,1-.15-.37.52.52,0,0,1,.15-.38.51.51,0,0,1,.37-.15.5.5,0,0,1,.37.15.49.49,0,0,1,.16.38.46.46,0,0,1-.16.36A.5.5,0,0,1,110.29,142Zm.39,6.27h-.8v-5h.8Z"/><path class="cls-6" d="M116.57,148.25h-.8v-.85h0a1.85,1.85,0,0,1-1.72,1,1.87,1.87,0,0,1-1.51-.67,2.8,2.8,0,0,1-.56-1.83,3,3,0,0,1,.63-2,2,2,0,0,1,1.66-.75,1.59,1.59,0,0,1,1.5.82h0v-3.1h.8Zm-.8-2.26v-.74a1.45,1.45,0,0,0-.4-1,1.36,1.36,0,0,0-1-.42,1.37,1.37,0,0,0-1.15.54,2.33,2.33,0,0,0-.42,1.48,2.19,2.19,0,0,0,.4,1.37,1.33,1.33,0,0,0,1.08.5,1.38,1.38,0,0,0,1.09-.49A1.79,1.79,0,0,0,115.77,146Z"/><path class="cls-6" d="M122.21,146h-3.53a1.83,1.83,0,0,0,.45,1.29,1.55,1.55,0,0,0,1.18.46,2.46,2.46,0,0,0,1.55-.56v.75a2.89,2.89,0,0,1-1.74.48,2.14,2.14,0,0,1-1.67-.68,2.81,2.81,0,0,1-.6-1.92,2.73,2.73,0,0,1,.66-1.9,2.12,2.12,0,0,1,1.64-.74,1.89,1.89,0,0,1,1.52.64,2.63,2.63,0,0,1,.54,1.76Zm-.82-.68a1.62,1.62,0,0,0-.34-1.08,1.13,1.13,0,0,0-.91-.38,1.28,1.28,0,0,0-1,.4,1.81,1.81,0,0,0-.49,1.06Z"/><path class="cls-6" d="M127.57,148.25h-.8V145.4c0-1.06-.39-1.59-1.16-1.59a1.29,1.29,0,0,0-1,.45,1.68,1.68,0,0,0-.39,1.14v2.85h-.8v-5h.8v.83h0a1.82,1.82,0,0,1,1.64-1,1.55,1.55,0,0,1,1.26.53,2.39,2.39,0,0,1,.43,1.54Z"/><path class="cls-6" d="M131.4,148.2a1.49,1.49,0,0,1-.75.16c-.87,0-1.31-.49-1.31-1.47v-2.95h-.86v-.69h.86V142l.8-.26v1.48h1.26v.69h-1.26v2.81a1.19,1.19,0,0,0,.17.72.69.69,0,0,0,.57.22.85.85,0,0,0,.52-.17Z"/><path class="cls-6" d="M132.88,142a.53.53,0,0,1-.37-.14.51.51,0,0,1-.15-.37.52.52,0,0,1,.15-.38.5.5,0,0,1,.37-.15.51.51,0,0,1,.37.15.53.53,0,0,1,.16.38.5.5,0,0,1-.16.36A.51.51,0,0,1,132.88,142Zm.39,6.27h-.8v-5h.8Z"/><path class="cls-6" d="M137.36,141.55a1.15,1.15,0,0,0-.53-.13c-.56,0-.84.35-.84,1.06v.77h1.17v.69H136v4.31h-.8v-4.31h-.85v-.69h.85v-.81a1.65,1.65,0,0,1,.46-1.24,1.51,1.51,0,0,1,1.13-.46,1.53,1.53,0,0,1,.58.09Z"/><path class="cls-6" d="M138.43,142a.55.55,0,0,1-.37-.14.51.51,0,0,1-.15-.37.52.52,0,0,1,.15-.38.51.51,0,0,1,.37-.15.5.5,0,0,1,.37.15.49.49,0,0,1,.16.38.46.46,0,0,1-.16.36A.5.5,0,0,1,138.43,142Zm.39,6.27H138v-5h.8Z"/><path class="cls-6" d="M144.46,146h-3.53a1.83,1.83,0,0,0,.45,1.29,1.57,1.57,0,0,0,1.18.46,2.46,2.46,0,0,0,1.55-.56v.75a2.89,2.89,0,0,1-1.74.48,2.1,2.1,0,0,1-1.66-.68,2.77,2.77,0,0,1-.61-1.92,2.73,2.73,0,0,1,.66-1.9,2.12,2.12,0,0,1,1.64-.74,1.89,1.89,0,0,1,1.52.64,2.63,2.63,0,0,1,.54,1.76Zm-.82-.68a1.57,1.57,0,0,0-.34-1.08,1.13,1.13,0,0,0-.91-.38,1.28,1.28,0,0,0-1,.4,1.81,1.81,0,0,0-.49,1.06Z"/><path class="cls-6" d="M148.28,144.06a1,1,0,0,0-.61-.16,1,1,0,0,0-.85.48,2.27,2.27,0,0,0-.35,1.32v2.55h-.8v-5h.8v1h0a1.84,1.84,0,0,1,.52-.82,1.2,1.2,0,0,1,.79-.3,1.43,1.43,0,0,1,.48.07Z"/><path class="cls-6" d="M156.15,148.25h-.8v-.85h0a2,2,0,0,1-3.22.3,2.75,2.75,0,0,1-.57-1.83,3,3,0,0,1,.63-2,2.06,2.06,0,0,1,1.67-.75,1.58,1.58,0,0,1,1.49.82h0v-3.1h.8Zm-.8-2.26v-.74a1.41,1.41,0,0,0-.4-1,1.32,1.32,0,0,0-1-.42,1.41,1.41,0,0,0-1.16.54,2.39,2.39,0,0,0-.42,1.48,2.13,2.13,0,0,0,.41,1.37,1.33,1.33,0,0,0,1.08.5,1.38,1.38,0,0,0,1.09-.49A1.84,1.84,0,0,0,155.35,146Z"/><path class="cls-6" d="M161.79,146h-3.53a1.93,1.93,0,0,0,.45,1.29,1.57,1.57,0,0,0,1.18.46,2.47,2.47,0,0,0,1.56-.56v.75a2.9,2.9,0,0,1-1.75.48,2.12,2.12,0,0,1-1.66-.68,2.82,2.82,0,0,1-.61-1.92,2.69,2.69,0,0,1,.67-1.9,2.11,2.11,0,0,1,1.64-.74,1.9,1.9,0,0,1,1.52.64,2.68,2.68,0,0,1,.53,1.76Zm-.82-.68a1.62,1.62,0,0,0-.33-1.08,1.17,1.17,0,0,0-.92-.38,1.31,1.31,0,0,0-1,.4,1.94,1.94,0,0,0-.49,1.06Z"/><path class="cls-6" d="M172.84,148.25H172v-2.87a2.19,2.19,0,0,0-.25-1.2,1,1,0,0,0-.86-.37,1.08,1.08,0,0,0-.88.47,1.77,1.77,0,0,0-.36,1.12v2.85h-.8v-3c0-1-.37-1.47-1.13-1.47a1,1,0,0,0-.87.44,1.83,1.83,0,0,0-.35,1.15v2.85h-.8v-5h.8V144h0a1.73,1.73,0,0,1,1.56-.91,1.44,1.44,0,0,1,.89.29,1.37,1.37,0,0,1,.52.75,1.79,1.79,0,0,1,1.66-1q1.65,0,1.65,2Z"/><path class="cls-6" d="M177.94,148.25h-.8v-.78h0a1.68,1.68,0,0,1-1.54.9,1.61,1.61,0,0,1-1.17-.4,1.36,1.36,0,0,1-.42-1.05c0-.93.55-1.47,1.65-1.63l1.5-.21c0-.85-.35-1.27-1-1.27a2.47,2.47,0,0,0-1.64.61v-.82a3.15,3.15,0,0,1,1.7-.47c1.18,0,1.77.63,1.77,1.87Zm-.8-2.53-1.21.17a2,2,0,0,0-.84.27.81.81,0,0,0-.28.71.73.73,0,0,0,.26.59,1,1,0,0,0,.69.24,1.29,1.29,0,0,0,1-.42,1.49,1.49,0,0,0,.39-1.06Z"/><path class="cls-6" d="M183.6,148.25h-.81V145.4c0-1.06-.38-1.59-1.16-1.59a1.25,1.25,0,0,0-1,.45,1.68,1.68,0,0,0-.39,1.14v2.85h-.81v-5h.81v.83h0a1.8,1.8,0,0,1,1.64-1,1.54,1.54,0,0,1,1.25.53,2.39,2.39,0,0,1,.44,1.54Z"/><path class="cls-6" d="M185.52,142a.53.53,0,0,1-.37-.14.51.51,0,0,1-.15-.37.52.52,0,0,1,.15-.38.5.5,0,0,1,.37-.15.51.51,0,0,1,.37.15.52.52,0,0,1,.15.38.49.49,0,0,1-.15.36A.51.51,0,0,1,185.52,142Zm.39,6.27h-.8v-5h.8Z"/><path class="cls-6" d="M191.54,146H188a1.87,1.87,0,0,0,.44,1.29,1.57,1.57,0,0,0,1.19.46,2.46,2.46,0,0,0,1.55-.56v.75a2.9,2.9,0,0,1-1.75.48,2.12,2.12,0,0,1-1.66-.68,2.81,2.81,0,0,1-.6-1.92,2.73,2.73,0,0,1,.66-1.9,2.12,2.12,0,0,1,1.64-.74,1.9,1.9,0,0,1,1.52.64,2.62,2.62,0,0,1,.53,1.76Zm-.82-.68a1.62,1.62,0,0,0-.33-1.08,1.17,1.17,0,0,0-.92-.38,1.31,1.31,0,0,0-1,.4,1.86,1.86,0,0,0-.48,1.06Zm-.46-3h-.62l-1.28-1.6h.82Z"/><path class="cls-6" d="M195.36,144.06a1,1,0,0,0-.6-.16,1,1,0,0,0-.86.48,2.27,2.27,0,0,0-.34,1.32v2.55h-.8v-5h.8v1h0a1.69,1.69,0,0,1,.52-.82,1.18,1.18,0,0,1,.78-.3,1.43,1.43,0,0,1,.48.07Z"/><path class="cls-6" d="M200.25,146h-3.53a1.83,1.83,0,0,0,.45,1.29,1.57,1.57,0,0,0,1.18.46,2.44,2.44,0,0,0,1.55-.56v.75a2.89,2.89,0,0,1-1.74.48,2.1,2.1,0,0,1-1.66-.68,2.77,2.77,0,0,1-.61-1.92,2.73,2.73,0,0,1,.66-1.9,2.12,2.12,0,0,1,1.64-.74,1.88,1.88,0,0,1,1.52.64,2.63,2.63,0,0,1,.54,1.76Zm-.82-.68a1.62,1.62,0,0,0-.33-1.08,1.17,1.17,0,0,0-.92-.38,1.28,1.28,0,0,0-1,.4,1.81,1.81,0,0,0-.49,1.06Z"/><path class="cls-6" d="M71.18,160.25h-.8v-.79h0a1.64,1.64,0,0,1-1.54.91c-1.2,0-1.79-.71-1.79-2.13v-3h.79v2.86c0,1.06.41,1.59,1.22,1.59a1.21,1.21,0,0,0,1-.44,1.64,1.64,0,0,0,.38-1.13v-2.88h.8Z"/><path class="cls-6" d="M77,160.25h-.81V157.4c0-1.06-.38-1.59-1.16-1.59a1.25,1.25,0,0,0-1,.45,1.68,1.68,0,0,0-.39,1.14v2.85h-.8v-5h.8v.83h0a1.8,1.8,0,0,1,1.64-1,1.54,1.54,0,0,1,1.25.53A2.39,2.39,0,0,1,77,157.2Z"/><path class="cls-6" d="M78.86,154a.52.52,0,0,1-.36-.14.51.51,0,0,1-.15-.37.52.52,0,0,1,.15-.38.49.49,0,0,1,.36-.15.51.51,0,0,1,.53.53.49.49,0,0,1-.15.36A.52.52,0,0,1,78.86,154Zm.4,6.27h-.81v-5h.81Z"/><path class="cls-6" d="M85.14,162.55h-.8v-3.16h0a1.78,1.78,0,0,1-1.71,1,1.88,1.88,0,0,1-1.51-.67,2.75,2.75,0,0,1-.57-1.83,3,3,0,0,1,.63-2,2.08,2.08,0,0,1,1.68-.75,1.56,1.56,0,0,1,1.48.82h0v-.7h.8Zm-.8-4.55v-.73a1.46,1.46,0,0,0-.4-1,1.36,1.36,0,0,0-1-.42,1.41,1.41,0,0,0-1.15.53,2.4,2.4,0,0,0-.42,1.51,2,2,0,0,0,.41,1.35,1.29,1.29,0,0,0,1,.5,1.41,1.41,0,0,0,1.13-.49A1.81,1.81,0,0,0,84.34,158Z"/><path class="cls-6" d="M90.81,160.25H90v-.79h0a1.64,1.64,0,0,1-1.55.91c-1.19,0-1.78-.71-1.78-2.13v-3h.79v2.86c0,1.06.41,1.59,1.21,1.59a1.24,1.24,0,0,0,1-.44,1.64,1.64,0,0,0,.38-1.13v-2.88h.8Z"/><path class="cls-6" d="M96.44,158H92.91a1.88,1.88,0,0,0,.45,1.29,1.57,1.57,0,0,0,1.18.46,2.49,2.49,0,0,0,1.56-.56v.75a2.9,2.9,0,0,1-1.75.48,2.12,2.12,0,0,1-1.66-.68,2.77,2.77,0,0,1-.61-1.92,2.73,2.73,0,0,1,.66-1.9,2.13,2.13,0,0,1,1.65-.74,1.9,1.9,0,0,1,1.52.64,2.68,2.68,0,0,1,.53,1.76Zm-.82-.68a1.62,1.62,0,0,0-.33-1.08,1.17,1.17,0,0,0-.92-.38,1.28,1.28,0,0,0-1,.4,1.87,1.87,0,0,0-.49,1.06Z"/><path class="cls-6" d="M104.44,160.25h-.81v-.79h0a1.65,1.65,0,0,1-1.55.91c-1.19,0-1.78-.71-1.78-2.13v-3h.79v2.86c0,1.06.4,1.59,1.21,1.59a1.25,1.25,0,0,0,1-.44,1.64,1.64,0,0,0,.37-1.13v-2.88h.81Z"/><path class="cls-6" d="M110.2,160.25h-.8V157.4c0-1.06-.39-1.59-1.16-1.59a1.25,1.25,0,0,0-1,.45,1.64,1.64,0,0,0-.4,1.14v2.85h-.8v-5h.8v.83h0a1.82,1.82,0,0,1,1.64-1,1.55,1.55,0,0,1,1.26.53,2.39,2.39,0,0,1,.43,1.54Z"/><path class="cls-6" d="M115.73,158H112.2a1.83,1.83,0,0,0,.45,1.29,1.55,1.55,0,0,0,1.18.46,2.46,2.46,0,0,0,1.55-.56v.75a2.89,2.89,0,0,1-1.74.48,2.14,2.14,0,0,1-1.67-.68,2.81,2.81,0,0,1-.6-1.92,2.73,2.73,0,0,1,.66-1.9,2.12,2.12,0,0,1,1.64-.74,1.89,1.89,0,0,1,1.52.64,2.63,2.63,0,0,1,.54,1.76Zm-.82-.68a1.57,1.57,0,0,0-.34-1.08,1.13,1.13,0,0,0-.91-.38,1.28,1.28,0,0,0-1,.4,1.81,1.81,0,0,0-.49,1.06Z"/><path class="cls-6" d="M120.5,159.53h0v3h-.8v-7.3h.8v.88h0a1.9,1.9,0,0,1,1.73-1,1.84,1.84,0,0,1,1.51.68,2.76,2.76,0,0,1,.54,1.8,3.06,3.06,0,0,1-.61,2,2,2,0,0,1-1.67.76A1.67,1.67,0,0,1,120.5,159.53Zm0-2v.7a1.51,1.51,0,0,0,.4,1,1.43,1.43,0,0,0,2.17-.12,2.6,2.6,0,0,0,.41-1.55,2,2,0,0,0-.39-1.31,1.27,1.27,0,0,0-1-.47,1.41,1.41,0,0,0-1.12.48A1.77,1.77,0,0,0,120.48,157.51Z"/><path class="cls-6" d="M129.6,160.25h-.8v-.79h0a1.64,1.64,0,0,1-1.54.91c-1.19,0-1.79-.71-1.79-2.13v-3h.8v2.86c0,1.06.4,1.59,1.21,1.59a1.21,1.21,0,0,0,1-.44,1.64,1.64,0,0,0,.38-1.13v-2.88h.8Z"/><path class="cls-6" d="M132,159.53h0v.72h-.8v-7.4h.8v3.28h0a1.9,1.9,0,0,1,1.73-1,1.82,1.82,0,0,1,1.5.68,2.71,2.71,0,0,1,.55,1.8,3.12,3.12,0,0,1-.61,2,2,2,0,0,1-1.67.76A1.65,1.65,0,0,1,132,159.53Zm0-2v.7a1.47,1.47,0,0,0,.4,1,1.34,1.34,0,0,0,1,.44,1.36,1.36,0,0,0,1.15-.56,2.6,2.6,0,0,0,.41-1.55,2,2,0,0,0-.39-1.31,1.28,1.28,0,0,0-1-.47,1.44,1.44,0,0,0-1.13.48A1.81,1.81,0,0,0,132,157.51Z"/><path class="cls-6" d="M137.9,160.25h-.8v-7.4h.8Z"/><path class="cls-6" d="M139.93,154a.55.55,0,0,1-.37-.14.51.51,0,0,1-.15-.37.52.52,0,0,1,.15-.38.51.51,0,0,1,.37-.15.5.5,0,0,1,.37.15.49.49,0,0,1,.16.38.46.46,0,0,1-.16.36A.5.5,0,0,1,139.93,154Zm.39,6.27h-.8v-5h.8Z"/><path class="cls-6" d="M145.35,160a2.63,2.63,0,0,1-1.37.35,2.22,2.22,0,0,1-1.72-.7,2.5,2.5,0,0,1-.66-1.8,2.8,2.8,0,0,1,.71-2,2.47,2.47,0,0,1,1.89-.75,2.67,2.67,0,0,1,1.16.25v.82a2,2,0,0,0-1.19-.39,1.61,1.61,0,0,0-1.26.55,2.06,2.06,0,0,0-.49,1.44,2,2,0,0,0,.46,1.39,1.59,1.59,0,0,0,1.24.51,2,2,0,0,0,1.23-.44Z"/><path class="cls-6" d="M150.14,160.25h-.8v-.78h0a1.68,1.68,0,0,1-1.54.9,1.61,1.61,0,0,1-1.17-.4,1.36,1.36,0,0,1-.42-1.05c0-.93.55-1.47,1.65-1.63l1.5-.21c0-.85-.35-1.27-1-1.27a2.43,2.43,0,0,0-1.63.61v-.82a3.1,3.1,0,0,1,1.7-.47c1.17,0,1.76.63,1.76,1.87Zm-.8-2.53-1.21.17a2,2,0,0,0-.84.27.81.81,0,0,0-.28.71.76.76,0,0,0,.26.59,1,1,0,0,0,.7.24,1.29,1.29,0,0,0,1-.42,1.49,1.49,0,0,0,.39-1.06Z"/><path class="cls-6" d="M154,160.2a1.49,1.49,0,0,1-.75.16c-.88,0-1.31-.49-1.31-1.47v-2.95h-.86v-.69h.86V154l.8-.26v1.48H154v.69h-1.26v2.81a1.12,1.12,0,0,0,.17.72.68.68,0,0,0,.56.22.86.86,0,0,0,.53-.17Z"/><path class="cls-6" d="M155.45,154a.53.53,0,0,1-.37-.14.51.51,0,0,1-.15-.37.52.52,0,0,1,.15-.38.5.5,0,0,1,.37-.15.51.51,0,0,1,.37.15.52.52,0,0,1,.15.38.49.49,0,0,1-.15.36A.51.51,0,0,1,155.45,154Zm.39,6.27H155v-5h.8Z"/><path class="cls-6" d="M159.55,160.37a2.31,2.31,0,0,1-1.77-.7,2.61,2.61,0,0,1-.66-1.86,2.76,2.76,0,0,1,.68-2,2.49,2.49,0,0,1,1.87-.71,2.24,2.24,0,0,1,1.74.69,2.73,2.73,0,0,1,.63,1.91,2.7,2.7,0,0,1-.68,1.92A2.36,2.36,0,0,1,159.55,160.37Zm.06-4.56a1.51,1.51,0,0,0-1.22.52,2.17,2.17,0,0,0-.45,1.45,2,2,0,0,0,.45,1.4,1.56,1.56,0,0,0,1.22.52,1.46,1.46,0,0,0,1.19-.51,2.16,2.16,0,0,0,.42-1.43,2.19,2.19,0,0,0-.42-1.44A1.46,1.46,0,0,0,159.61,155.81Z"/><path class="cls-6" d="M167.47,160.25h-.8V157.4c0-1.06-.39-1.59-1.16-1.59a1.27,1.27,0,0,0-1,.45,1.68,1.68,0,0,0-.39,1.14v2.85h-.8v-5h.8v.83h0a1.81,1.81,0,0,1,1.64-1,1.53,1.53,0,0,1,1.25.53,2.39,2.39,0,0,1,.44,1.54Z"/><path class="cls-6" d="M175.73,158H172.2a1.93,1.93,0,0,0,.45,1.29,1.57,1.57,0,0,0,1.19.46,2.46,2.46,0,0,0,1.55-.56v.75a2.9,2.9,0,0,1-1.75.48,2.12,2.12,0,0,1-1.66-.68,2.82,2.82,0,0,1-.61-1.92,2.74,2.74,0,0,1,.67-1.9,2.12,2.12,0,0,1,1.64-.74,1.9,1.9,0,0,1,1.52.64,2.62,2.62,0,0,1,.53,1.76Zm-.82-.68a1.62,1.62,0,0,0-.33-1.08,1.17,1.17,0,0,0-.92-.38,1.31,1.31,0,0,0-1,.4,1.94,1.94,0,0,0-.49,1.06Zm-.12-4.57-1.28,1.6h-.62l1.09-1.6Z"/><path class="cls-6" d="M177.75,160.25h-.81v-7.4h.81Z"/><path class="cls-6" d="M183.39,158h-3.53a1.87,1.87,0,0,0,.44,1.29,1.59,1.59,0,0,0,1.19.46,2.46,2.46,0,0,0,1.55-.56v.75a2.89,2.89,0,0,1-1.74.48,2.13,2.13,0,0,1-1.67-.68,2.81,2.81,0,0,1-.6-1.92,2.73,2.73,0,0,1,.66-1.9,2.12,2.12,0,0,1,1.64-.74,1.9,1.9,0,0,1,1.52.64,2.63,2.63,0,0,1,.54,1.76Zm-.82-.68a1.68,1.68,0,0,0-.34-1.08,1.15,1.15,0,0,0-.91-.38,1.31,1.31,0,0,0-1,.4,1.94,1.94,0,0,0-.49,1.06Z"/><path class="cls-6" d="M188,160a2.63,2.63,0,0,1-1.37.35,2.26,2.26,0,0,1-1.73-.7,2.49,2.49,0,0,1-.65-1.8,2.8,2.8,0,0,1,.7-2,2.49,2.49,0,0,1,1.89-.75,2.72,2.72,0,0,1,1.17.25v.82a2.07,2.07,0,0,0-1.2-.39,1.57,1.57,0,0,0-1.25.55,2.06,2.06,0,0,0-.49,1.44,2,2,0,0,0,.46,1.39,1.59,1.59,0,0,0,1.24.51,2,2,0,0,0,1.23-.44Z"/><path class="cls-6" d="M191.53,160.2a1.43,1.43,0,0,1-.74.16q-1.32,0-1.32-1.47v-2.95h-.86v-.69h.86V154l.81-.26v1.48h1.25v.69h-1.25v2.81a1.12,1.12,0,0,0,.17.72.68.68,0,0,0,.56.22.83.83,0,0,0,.52-.17Z"/><path class="cls-6" d="M195.21,156.06a1,1,0,0,0-.6-.16,1,1,0,0,0-.86.48,2.27,2.27,0,0,0-.34,1.32v2.55h-.8v-5h.8v1h0a1.69,1.69,0,0,1,.52-.82,1.16,1.16,0,0,1,.78-.3,1.43,1.43,0,0,1,.48.07Z"/><path class="cls-6" d="M198.17,160.37a2.31,2.31,0,0,1-1.77-.7,2.61,2.61,0,0,1-.66-1.86,2.72,2.72,0,0,1,.69-2,2.49,2.49,0,0,1,1.86-.71,2.24,2.24,0,0,1,1.74.69,2.73,2.73,0,0,1,.63,1.91,2.69,2.69,0,0,1-.67,1.92A2.39,2.39,0,0,1,198.17,160.37Zm.06-4.56a1.51,1.51,0,0,0-1.22.52,2.17,2.17,0,0,0-.45,1.45,2,2,0,0,0,.45,1.4,1.57,1.57,0,0,0,1.22.52,1.43,1.43,0,0,0,1.19-.51,2.16,2.16,0,0,0,.42-1.43,2.19,2.19,0,0,0-.42-1.44A1.43,1.43,0,0,0,198.23,155.81Z"/><path class="cls-6" d="M204.5,157.78h-2.67v-.63h2.67Z"/><path class="cls-6" d="M71.29,172.25h-.8V169.4q0-1.59-1.17-1.59a1.25,1.25,0,0,0-1,.45,1.68,1.68,0,0,0-.39,1.14v2.85h-.8v-5h.8v.83h0a1.8,1.8,0,0,1,1.64-1,1.54,1.54,0,0,1,1.25.53,2.39,2.39,0,0,1,.44,1.54Z"/><path class="cls-6" d="M73.21,166a.53.53,0,0,1-.37-.14.51.51,0,0,1-.15-.37.52.52,0,0,1,.15-.38.5.5,0,0,1,.37-.15.51.51,0,0,1,.37.15.52.52,0,0,1,.15.38.49.49,0,0,1-.15.36A.51.51,0,0,1,73.21,166Zm.39,6.27h-.8v-5h.8Z"/><path class="cls-6" d="M79.48,174.55h-.8v-3.16h0a1.78,1.78,0,0,1-1.7,1,1.89,1.89,0,0,1-1.52-.67,2.74,2.74,0,0,1-.56-1.83,3,3,0,0,1,.62-2,2.08,2.08,0,0,1,1.68-.75,1.56,1.56,0,0,1,1.48.82h0v-.7h.8Zm-.8-4.55v-.73a1.46,1.46,0,0,0-.4-1,1.36,1.36,0,0,0-1-.42,1.39,1.39,0,0,0-1.14.53,2.4,2.4,0,0,0-.42,1.51,2,2,0,0,0,.4,1.35,1.3,1.3,0,0,0,1.05.5,1.4,1.4,0,0,0,1.12-.49A1.81,1.81,0,0,0,78.68,170Z"/><path class="cls-6" d="M85.15,172.25h-.8v-.79h0a1.64,1.64,0,0,1-1.54.91c-1.2,0-1.79-.71-1.79-2.13v-3h.79v2.86c0,1.06.41,1.59,1.22,1.59a1.21,1.21,0,0,0,1-.44,1.64,1.64,0,0,0,.38-1.13v-2.88h.8Z"/><path class="cls-6" d="M90.78,170H87.25a1.93,1.93,0,0,0,.45,1.29,1.57,1.57,0,0,0,1.18.46,2.49,2.49,0,0,0,1.56-.56v.75a2.9,2.9,0,0,1-1.75.48,2.12,2.12,0,0,1-1.66-.68,2.77,2.77,0,0,1-.61-1.92,2.73,2.73,0,0,1,.66-1.9,2.14,2.14,0,0,1,1.65-.74,1.9,1.9,0,0,1,1.52.64,2.68,2.68,0,0,1,.53,1.76Zm-.82-.68a1.62,1.62,0,0,0-.33-1.08,1.17,1.17,0,0,0-.92-.38,1.29,1.29,0,0,0-1,.4,1.87,1.87,0,0,0-.49,1.06Z"/><path class="cls-6" d="M92.27,172.36a.51.51,0,0,1-.38-.16.56.56,0,0,1,0-.78.55.55,0,0,1,.38-.16.53.53,0,0,1,.39.16.56.56,0,0,1,0,.78A.5.5,0,0,1,92.27,172.36Z"/><path class="cls-6" d="M72.26,208.25h-1l-1.18-2a3.83,3.83,0,0,0-.31-.47,1.82,1.82,0,0,0-.31-.31,1.11,1.11,0,0,0-.34-.18,1.31,1.31,0,0,0-.41-.06h-.68v3h-.82v-7h2.09a3.24,3.24,0,0,1,.85.11,2,2,0,0,1,.67.35,1.75,1.75,0,0,1,.45.59,1.88,1.88,0,0,1,.16.82,1.85,1.85,0,0,1-.11.67,1.81,1.81,0,0,1-.31.54,1.94,1.94,0,0,1-.49.41,2.45,2.45,0,0,1-.64.26v0a1.09,1.09,0,0,1,.3.18,1.41,1.41,0,0,1,.25.24,2.37,2.37,0,0,1,.23.3c.08.12.17.25.26.41ZM68.06,202v2.54h1.12a1.79,1.79,0,0,0,.57-.09,1.29,1.29,0,0,0,.45-.27,1.33,1.33,0,0,0,.3-.42,1.48,1.48,0,0,0,.1-.57,1.1,1.1,0,0,0-.36-.87,1.55,1.55,0,0,0-1-.32Z"/><path class="cls-6" d="M76.84,206H73.31a1.93,1.93,0,0,0,.45,1.29,1.57,1.57,0,0,0,1.18.46,2.49,2.49,0,0,0,1.56-.56v.75a2.9,2.9,0,0,1-1.75.48,2.12,2.12,0,0,1-1.66-.68,2.77,2.77,0,0,1-.61-1.92,2.73,2.73,0,0,1,.66-1.9,2.14,2.14,0,0,1,1.65-.73,1.9,1.9,0,0,1,1.52.63,2.68,2.68,0,0,1,.53,1.76Zm-.82-.68a1.57,1.57,0,0,0-.33-1.07,1.14,1.14,0,0,0-.92-.39,1.29,1.29,0,0,0-1,.4,1.87,1.87,0,0,0-.49,1.06Zm-.12-4.57-1.28,1.61H74l1.09-1.61Z"/><path class="cls-6" d="M78.87,207.53h0v3h-.8v-7.3h.8v.88h0a1.9,1.9,0,0,1,1.73-1,1.82,1.82,0,0,1,1.51.67,2.76,2.76,0,0,1,.54,1.8,3.06,3.06,0,0,1-.61,2,2,2,0,0,1-1.67.76A1.69,1.69,0,0,1,78.87,207.53Zm0-2v.7a1.47,1.47,0,0,0,.41,1,1.42,1.42,0,0,0,2.16-.12,2.53,2.53,0,0,0,.41-1.55,2.06,2.06,0,0,0-.38-1.31,1.3,1.3,0,0,0-1-.47,1.42,1.42,0,0,0-1.12.48A1.83,1.83,0,0,0,78.85,205.51Z"/><path class="cls-6" d="M86,208.37a2.31,2.31,0,0,1-1.77-.7,2.61,2.61,0,0,1-.66-1.86,2.72,2.72,0,0,1,.69-2,2.48,2.48,0,0,1,1.86-.7,2.24,2.24,0,0,1,1.75.68,2.78,2.78,0,0,1,.62,1.91,2.69,2.69,0,0,1-.67,1.92A2.38,2.38,0,0,1,86,208.37Zm.06-4.56a1.52,1.52,0,0,0-1.22.52,2.17,2.17,0,0,0-.45,1.45,2,2,0,0,0,.46,1.4,1.5,1.5,0,0,0,1.21.52,1.47,1.47,0,0,0,1.2-.51,2.21,2.21,0,0,0,.41-1.43,2.25,2.25,0,0,0-.41-1.44A1.47,1.47,0,0,0,86.08,203.81Z"/><path class="cls-6" d="M93.94,208.25h-.8V205.4c0-1.06-.39-1.59-1.16-1.59a1.25,1.25,0,0,0-1,.45,1.64,1.64,0,0,0-.4,1.14v2.85h-.8v-5h.8v.83h0a1.81,1.81,0,0,1,1.64-.94,1.54,1.54,0,0,1,1.26.52,2.39,2.39,0,0,1,.43,1.54Z"/><path class="cls-6" d="M95.15,208.07v-.86a2.39,2.39,0,0,0,1.44.49c.7,0,1-.24,1-.71a.64.64,0,0,0-.09-.34.91.91,0,0,0-.24-.24,1.54,1.54,0,0,0-.36-.2L96.5,206c-.22-.09-.41-.18-.58-.27a1.74,1.74,0,0,1-.42-.3,1.27,1.27,0,0,1-.26-.39,1.5,1.5,0,0,1-.08-.5,1.17,1.17,0,0,1,.16-.62,1.57,1.57,0,0,1,.43-.46,2,2,0,0,1,.61-.27,3,3,0,0,1,1.87.13v.81a2.25,2.25,0,0,0-1.27-.36,1.68,1.68,0,0,0-.4.05,1,1,0,0,0-.31.14.72.72,0,0,0-.2.23.53.53,0,0,0-.07.28.67.67,0,0,0,.07.33.66.66,0,0,0,.21.23,1.69,1.69,0,0,0,.33.19l.44.18a5.68,5.68,0,0,1,.6.26,2.52,2.52,0,0,1,.45.3,1.28,1.28,0,0,1,.28.39,1.21,1.21,0,0,1,.1.52,1.23,1.23,0,0,1-.16.65,1.35,1.35,0,0,1-.44.45,2,2,0,0,1-.63.27,2.94,2.94,0,0,1-.74.09A2.82,2.82,0,0,1,95.15,208.07Z"/><path class="cls-6" d="M103.71,206h-3.53a1.93,1.93,0,0,0,.45,1.29,1.57,1.57,0,0,0,1.18.46,2.49,2.49,0,0,0,1.56-.56v.75a2.9,2.9,0,0,1-1.75.48,2.12,2.12,0,0,1-1.66-.68,2.77,2.77,0,0,1-.61-1.92,2.73,2.73,0,0,1,.66-1.9,2.14,2.14,0,0,1,1.65-.73,1.9,1.9,0,0,1,1.52.63,2.68,2.68,0,0,1,.53,1.76Zm-.82-.68a1.57,1.57,0,0,0-.33-1.07,1.14,1.14,0,0,0-.92-.39,1.29,1.29,0,0,0-1,.4,1.87,1.87,0,0,0-.49,1.06Z"/><path class="cls-6" d="M107.94,204.23a.49.49,0,0,1-.38-.16.53.53,0,0,1-.16-.39.49.49,0,0,1,.16-.38.52.52,0,0,1,.38-.15.56.56,0,0,1,.39.15.49.49,0,0,1,.16.38.55.55,0,0,1-.55.55Zm0,4.13a.49.49,0,0,1-.38-.16.55.55,0,0,1,.38-.94.57.57,0,0,1,.39.16.55.55,0,0,1-.39.94Z"/><path class="cls-6" d="M117.88,201.25l-2.59,7h-.9l-2.54-7h.91l1.94,5.55a3.34,3.34,0,0,1,.14.62h0a3.64,3.64,0,0,1,.16-.63l2-5.54Z"/><path class="cls-6" d="M121,204.06a1.08,1.08,0,0,0-1.47.33,2.29,2.29,0,0,0-.34,1.31v2.55h-.8v-5h.8v1h0a1.76,1.76,0,0,1,.52-.82,1.2,1.2,0,0,1,.79-.3,1.43,1.43,0,0,1,.48.07Z"/><path class="cls-6" d="M125.47,208.25h-.8v-.78h0a1.69,1.69,0,0,1-1.54.9,1.61,1.61,0,0,1-1.17-.4,1.36,1.36,0,0,1-.42-1.05c0-.93.55-1.47,1.65-1.63l1.5-.21c0-.85-.35-1.27-1-1.27a2.47,2.47,0,0,0-1.63.61v-.82a3.14,3.14,0,0,1,1.7-.46q1.77,0,1.77,1.86Zm-.8-2.53-1.21.17a2,2,0,0,0-.84.27.81.81,0,0,0-.28.71.73.73,0,0,0,.26.59,1,1,0,0,0,.69.24,1.29,1.29,0,0,0,1-.42,1.49,1.49,0,0,0,.39-1.06Z"/><path class="cls-6" d="M127.38,202a.52.52,0,0,1-.36-.14.51.51,0,0,1-.15-.37.52.52,0,0,1,.15-.38.49.49,0,0,1,.36-.15.51.51,0,0,1,.53.53.49.49,0,0,1-.15.36A.52.52,0,0,1,127.38,202Zm.4,6.27H127v-5h.81Z"/><text class="cls-7" transform="translate(114.82 115.82)"><tspan class="cls-8">V</tspan><tspan x="7.58" y="0">rai/</tspan><tspan class="cls-9" x="27.54" y="0">F</tspan><tspan x="33.43" y="0">aux</tspan></text><line class="cls-10" x1="54" x2="54" y2="36"/><line class="cls-10" y1="54" x2="36" y2="54"/><line class="cls-10" y1="307.96" x2="36" y2="307.96"/><line class="cls-10" x1="54" y1="361.96" x2="54" y2="325.96"/><line class="cls-10" x1="236.83" x2="236.83" y2="36"/><line class="cls-10" x1="290.83" y1="54" x2="254.83" y2="54"/><line class="cls-10" x1="290.83" y1="307.96" x2="254.83" y2="307.96"/><line class="cls-10" x1="236.83" y1="361.96" x2="236.83" y2="325.96"/></svg>