<svg id="Calque_1" data-name="Calque 1" xmlns="http://www.w3.org/2000/svg" viewBox="0 0 290.83 361.96"><defs><style>.cls-1,.cls-10{fill:#302d7e;}.cls-2,.cls-3,.cls-4{fill:#fff;}.cls-3{font-size:19.62px;font-family:TwCenMT-CondensedExtraBold, Tw Cen MT Condensed Extra Bold;font-weight:800;}.cls-4{stroke:#fff;stroke-miterlimit:10;stroke-width:0.25px;}.cls-5{opacity:0.2;}.cls-6{font-size:10px;fill:#000100;font-family:SegoeUI, Segoe UI;}.cls-7{letter-spacing:-0.04em;}.cls-8{letter-spacing:-0.03em;}.cls-9{letter-spacing:-0.03em;}.cls-10{font-size:12px;font-family:SegoeUI-Bold, Segoe UI;font-weight:700;}.cls-11{letter-spacing:-0.04em;}.cls-12{letter-spacing:-0.03em;}.cls-13{fill:none;stroke:#000;stroke-width:0.3px;}</style></defs><title>Carte_bleue_35</title><rect class="cls-1" x="43.38" y="39.25" width="204.07" height="283.46" rx="22.14"/><path class="cls-2" d="M77.05,95.37h136a17,17,0,0,1,17,17V279.58a17,17,0,0,1-17,17.05h-136a17,17,0,0,1-17-17.05V112.42A17,17,0,0,1,77.05,95.37Z"/><text class="cls-3" transform="translate(88.66 81.18)"><tspan xml:space="preserve">Escape the   ab</tspan></text><path class="cls-4" d="M178.93,63.57l-6.41,0a.82.82,0,0,0-.55.24.78.78,0,0,0-.22.55A.76.76,0,0,0,172,65a.82.82,0,0,0,.47.22l.1,13.28a3.28,3.28,0,0,0,5.63,2.28,3.27,3.27,0,0,0,.95-2.33L179,65.12a.78.78,0,0,0,.46-.23.8.8,0,0,0,.22-.55.77.77,0,0,0-.78-.77Zm.26.77a.26.26,0,0,1-.07.19.26.26,0,0,1-.18.07h-.24l-3.92,0a.26.26,0,0,0-.26.26.25.25,0,0,0,.26.25l3.73,0,.1,13.28a2.77,2.77,0,0,1-5.54,0L173,65.17h.78a.26.26,0,0,0,.25-.27.25.25,0,0,0-.26-.25h-1.21a.24.24,0,0,1-.18-.07.27.27,0,0,1-.08-.19.26.26,0,0,1,.07-.18.27.27,0,0,1,.19-.08l6.4,0a.26.26,0,0,1,.26.26Z"/><path class="cls-4" d="M177.78,71.45a1,1,0,0,0-.65.22.5.5,0,0,1-.35.13.53.53,0,0,1-.35-.12,1,1,0,0,0-.65-.22,1,1,0,0,0-.64.23.5.5,0,0,1-.35.13.52.52,0,0,1-.35-.13,1.05,1.05,0,0,0-.65-.21.25.25,0,0,0-.18.08.23.23,0,0,0-.07.18l0,2.83a.26.26,0,0,0,.26.26.26.26,0,0,0,.26-.26l0-2.51.09.06a1,1,0,0,0,.65.22,1,1,0,0,0,.64-.23.5.5,0,0,1,.35-.13.52.52,0,0,1,.35.13,1.05,1.05,0,0,0,.65.21,1,1,0,0,0,.64-.22.24.24,0,0,1,.09-.06l0,6.37a1.72,1.72,0,0,1-.5,1.23,1.73,1.73,0,0,1-3-1.2l0-2.83a.27.27,0,0,0-.27-.26.25.25,0,0,0-.25.26l0,2.83a2.25,2.25,0,0,0,4.5,0L178,71.72a.26.26,0,0,0-.25-.27Z"/><path class="cls-4" d="M176.49,67.22a.25.25,0,0,0,.26.25.26.26,0,1,1,0,.52.26.26,0,0,1-.26-.25.26.26,0,0,0-.26-.26.26.26,0,0,0-.26.26.78.78,0,0,0,.79.77.76.76,0,0,0,.55-.23.8.8,0,0,0,.22-.55.77.77,0,0,0-.78-.77.25.25,0,0,0-.26.26Z"/><path class="cls-4" d="M175.33,70.37a.76.76,0,0,0,.23-.55.82.82,0,0,0-.24-.55.78.78,0,0,0-.55-.22.26.26,0,1,0,0,.52.26.26,0,0,1,.19.07.25.25,0,0,1,.08.18A.27.27,0,0,1,175,70a.25.25,0,0,1-.18.08.27.27,0,0,1-.19-.08.29.29,0,0,1-.07-.18.26.26,0,1,0-.52,0,.78.78,0,0,0,.78.78.8.8,0,0,0,.55-.24Z"/><g class="cls-5"><path class="cls-1" d="M119.75,165.65a22.72,22.72,0,0,1,45.44,0v37.44h15.17V165.65a37.9,37.9,0,0,0-75.79,0"/><path class="cls-1" d="M104.57,165.65"/><path class="cls-1" d="M155.05,224.94a12.52,12.52,0,1,1-12.52-12.52,12.52,12.52,0,0,1,12.52,12.52"/><path class="cls-1" d="M112.87,224.81a29.51,29.51,0,1,1,29.51,29.51,29.55,29.55,0,0,1-29.51-29.51m-15.17,0a44.69,44.69,0,1,0,44.68-44.69A44.73,44.73,0,0,0,97.7,224.81"/><line class="cls-1" x1="104.57" y1="165.65" x2="119.75" y2="165.65"/></g><text class="cls-6" transform="translate(70.59 136.19)"><tspan class="cls-7">P</tspan><tspan x="5.23" y="0">our publier en accès libre, un.e </tspan><tspan x="0" y="12">auteur.e n&apos;a pas besoin d&apos;obtenir </tspan><tspan x="0" y="24">l&apos;accord de ses co-auteurs.</tspan><tspan class="cls-8" x="0" y="60">R</tspan><tspan x="5.69" y="60">éponse : </tspan><tspan class="cls-9" x="45.43" y="60">F</tspan><tspan x="49.98" y="60">aux</tspan><tspan x="0" y="75">Open Access ou pas, l&apos;accord des </tspan><tspan x="0" y="87">co-auteur.e.s est requis pour tous </tspan><tspan x="0" y="99">les choix qui sont faits par rapport </tspan><tspan x="0" y="111">à une publication commune.</tspan></text><text class="cls-10" transform="translate(115.5 115.79)"><tspan class="cls-11">V</tspan><tspan x="7.58" y="0">rai/</tspan><tspan class="cls-12" x="27.54" y="0">F</tspan><tspan x="33.43" y="0">aux</tspan></text><line class="cls-13" x1="54" x2="54" y2="36"/><line class="cls-13" y1="54" x2="36" y2="54"/><line class="cls-13" y1="307.96" x2="36" y2="307.96"/><line class="cls-13" x1="54" y1="361.96" x2="54" y2="325.96"/><line class="cls-13" x1="236.83" x2="236.83" y2="36"/><line class="cls-13" x1="290.83" y1="54" x2="254.83" y2="54"/><line class="cls-13" x1="290.83" y1="307.96" x2="254.83" y2="307.96"/><line class="cls-13" x1="236.83" y1="361.96" x2="236.83" y2="325.96"/></svg>