<svg id="Calque_1" data-name="Calque 1" xmlns="http://www.w3.org/2000/svg" viewBox="0 0 290.83 361.96"><defs><style>.cls-1,.cls-9{fill:#009741;}.cls-2,.cls-4,.cls-5{fill:#fff;}.cls-3{opacity:0.2;}.cls-4{font-size:19.62px;font-family:TwCenMT-CondensedExtraBold, Tw Cen MT Condensed Extra Bold;font-weight:800;}.cls-5{stroke:#fff;stroke-miterlimit:10;stroke-width:0.25px;}.cls-6{font-size:10px;fill:#000100;font-family:SegoeUI, Segoe UI;}.cls-7{letter-spacing:-0.06em;}.cls-8{letter-spacing:1.17em;}.cls-9{font-size:12px;font-family:SegoeUI-Bold, Segoe UI;font-weight:700;}.cls-10{fill:none;stroke:#000;stroke-width:0.3px;}</style></defs><title>Carte_verte_23</title><rect class="cls-1" x="43.38" y="39.25" width="204.07" height="283.46" rx="22.14"/><path class="cls-2" d="M77.05,95.37h136a17,17,0,0,1,17,17V279.58a17,17,0,0,1-17,17.05h-136a17,17,0,0,1-17-17.05V112.42A17,17,0,0,1,77.05,95.37Z"/><g class="cls-3"><path class="cls-1" d="M119.75,167.18a22.72,22.72,0,1,1,45.44,0v37.43h15.17V167.18a37.9,37.9,0,1,0-75.79,0"/><path class="cls-1" d="M104.57,167.18"/><path class="cls-1" d="M155.05,226.46a12.52,12.52,0,1,1-12.52-12.52,12.52,12.52,0,0,1,12.52,12.52"/><path class="cls-1" d="M112.87,226.33a29.51,29.51,0,1,1,29.51,29.51,29.55,29.55,0,0,1-29.51-29.51m-15.17,0a44.69,44.69,0,1,0,44.68-44.69A44.73,44.73,0,0,0,97.7,226.33"/><line class="cls-1" x1="104.57" y1="167.18" x2="119.75" y2="167.18"/></g><text class="cls-4" transform="translate(87.84 80.89)"><tspan xml:space="preserve">Escape the   ab</tspan></text><path class="cls-5" d="M178.11,63.27l-6.41,0a.82.82,0,0,0-.55.24.78.78,0,0,0-.22.55.76.76,0,0,0,.23.55.82.82,0,0,0,.47.22l.1,13.28A3.28,3.28,0,0,0,175,81.42a3.23,3.23,0,0,0,2.32-1,3.27,3.27,0,0,0,.95-2.33l-.1-13.28a.78.78,0,0,0,.46-.23.8.8,0,0,0,.22-.55.78.78,0,0,0-.78-.78Zm.26.78a.26.26,0,0,1-.07.19.26.26,0,0,1-.18.07h-.24l-3.92,0a.26.26,0,0,0-.26.26.25.25,0,0,0,.26.25l3.73,0,.1,13.28a2.77,2.77,0,1,1-5.54,0l-.1-13.28h.78a.26.26,0,0,0,.25-.27.25.25,0,0,0-.26-.25h-1.21a.24.24,0,0,1-.18-.07.27.27,0,0,1-.08-.19.26.26,0,0,1,.07-.18.27.27,0,0,1,.19-.08l6.4-.05a.26.26,0,0,1,.26.26Z"/><path class="cls-5" d="M177,71.16a1,1,0,0,0-.65.22.5.5,0,0,1-.35.13.53.53,0,0,1-.35-.12,1,1,0,0,0-.65-.22,1,1,0,0,0-.64.23.5.5,0,0,1-.35.13.52.52,0,0,1-.35-.13,1.05,1.05,0,0,0-.65-.21.27.27,0,0,0-.18.08.23.23,0,0,0-.07.18l0,2.83a.26.26,0,0,0,.26.26.26.26,0,0,0,.26-.26l0-2.51.09.06a1,1,0,0,0,.65.22,1.07,1.07,0,0,0,.64-.23.5.5,0,0,1,.35-.13.52.52,0,0,1,.35.13A1.05,1.05,0,0,0,176,72a1,1,0,0,0,.64-.22.24.24,0,0,1,.09-.06l.05,6.37a1.72,1.72,0,0,1-.5,1.23,1.73,1.73,0,0,1-3-1.2l0-2.83a.27.27,0,0,0-.27-.26.25.25,0,0,0-.25.26l0,2.83a2.25,2.25,0,0,0,4.5,0l-.05-6.69a.26.26,0,0,0-.25-.27Z"/><path class="cls-5" d="M175.67,66.93a.25.25,0,0,0,.26.25.26.26,0,1,1,0,.52.26.26,0,0,1-.26-.25.26.26,0,0,0-.26-.26.26.26,0,0,0-.26.26.78.78,0,0,0,.79.77.76.76,0,0,0,.55-.23.8.8,0,0,0,.22-.55.78.78,0,0,0-.78-.78.27.27,0,0,0-.26.27Z"/><path class="cls-5" d="M174.51,70.08a.76.76,0,0,0,.23-.55.82.82,0,0,0-.24-.55.78.78,0,0,0-.55-.22.26.26,0,0,0,0,.52.26.26,0,0,1,.19.07.25.25,0,0,1,.08.18.27.27,0,0,1-.08.19.25.25,0,0,1-.18.08.27.27,0,0,1-.19-.08.29.29,0,0,1-.07-.18.26.26,0,1,0-.52,0,.78.78,0,0,0,.78.78.8.8,0,0,0,.55-.24Z"/><text class="cls-6" transform="translate(70.59 137.05)"><tspan class="cls-7">V</tspan><tspan x="5.58" y="0">otre article a été accepté dans </tspan><tspan x="0" y="12">une revue prestigieuse en accès </tspan><tspan x="0" y="24">libre.</tspan><tspan class="cls-8" x="21.6" y="24">	</tspan><tspan x="0" y="48" xml:space="preserve">       </tspan><tspan class="cls-7" x="19.17" y="48">V</tspan><tspan x="24.75" y="48">ous pouvez prendre une </tspan><tspan x="0" y="60">carte à double à un autre joueur, </tspan><tspan x="0" y="72">si cela vous arrange !</tspan></text><text class="cls-9" transform="translate(123.11 116.21) rotate(0.53)">Chance</text><path class="cls-1" d="M77.89,186v-2H70.71a.52.52,0,0,1-.5-.59V180c0-.63.42-.67.51-.67H78v-2.19c0-.48.27-.53.38-.53a.92.92,0,0,1,.56.32l5.14,4.25a.79.79,0,0,1,.26.52.61.61,0,0,1-.21.49c-.51.51-5.12,4-5.3,4.11a.9.9,0,0,1-.55.29C78.16,186.59,77.89,186.51,77.89,186Zm.43.24v0Z"/><line class="cls-10" x1="54" x2="54" y2="36"/><line class="cls-10" y1="54" x2="36" y2="54"/><line class="cls-10" y1="307.96" x2="36" y2="307.96"/><line class="cls-10" x1="54" y1="361.96" x2="54" y2="325.96"/><line class="cls-10" x1="236.83" x2="236.83" y2="36"/><line class="cls-10" x1="290.83" y1="54" x2="254.83" y2="54"/><line class="cls-10" x1="290.83" y1="307.96" x2="254.83" y2="307.96"/><line class="cls-10" x1="236.83" y1="361.96" x2="236.83" y2="325.96"/></svg>