<svg id="Calque_1" data-name="Calque 1" xmlns="http://www.w3.org/2000/svg" viewBox="0 0 542.12 164.69"><defs><style>.cls-1{fill:#1e1e1c;}.cls-2{fill:#fff;}.cls-3{fill:#662681;}.cls-4{fill:none;stroke:#000;stroke-width:0.3px;}</style></defs><title>Jeu_OA_bacteries</title><path class="cls-1" d="M82.35,54A28.35,28.35,0,1,1,54,82.35,28.34,28.34,0,0,1,82.35,54Z"/><path class="cls-2" d="M81.63,71a.57.57,0,0,0-.36-.53.58.58,0,0,0-.74.32,5.05,5.05,0,0,1-.75,1.42.57.57,0,1,0,.63,1,5,5,0,0,0,1.18-2A.52.52,0,0,0,81.63,71Z"/><path class="cls-2" d="M86.68,74a2,2,0,1,0-2,2A2,2,0,0,0,86.68,74ZM83.9,74a.82.82,0,1,1,.82.82A.82.82,0,0,1,83.9,74Z"/><path class="cls-2" d="M73.49,76.26a.57.57,0,0,0-.36-.52.55.55,0,0,0-.74.3,2.77,2.77,0,0,1-1.28,1,.57.57,0,0,0,.1,1.13,3.56,3.56,0,0,0,2.23-1.74A.59.59,0,0,0,73.49,76.26Z"/><path class="cls-2" d="M94.37,80.61,95,79.2a5.77,5.77,0,0,0-5.8-8.07l-.88.08a2.38,2.38,0,0,1-1.77-.55l-3.27-2.72a3.56,3.56,0,0,0-5.79,2.2l0,.22a2.39,2.39,0,0,1-1.16,1.72.57.57,0,1,0,.58,1,3.5,3.5,0,0,0,1.71-2.52l0-.23a2.42,2.42,0,0,1,3.94-1.5l3.27,2.73a3.52,3.52,0,0,0,2.6.81l.88-.08A4.62,4.62,0,0,1,94,78.74l-.62,1.41a10.11,10.11,0,0,0-.82,4.73l.25,3.52a5.7,5.7,0,0,1-7.12,5.91l-3.23-.84a3.55,3.55,0,0,0-3.49,1l-.67.72A2.41,2.41,0,0,1,74.12,94l-1-4.59A3.56,3.56,0,0,0,71.31,87l-2-1.05A2.37,2.37,0,0,1,68,84.12,2.41,2.41,0,0,1,68.78,82a3.55,3.55,0,0,0,.77-4.32l-.4-.76a2.42,2.42,0,0,1,2.25-3.55l2.56.13a.58.58,0,0,0,.6-.54.58.58,0,0,0-.54-.6l-2.56-.13a3.56,3.56,0,0,0-3.32,5.22l.41.77A2.41,2.41,0,0,1,68,81.16,3.55,3.55,0,0,0,68.76,87l2,1a2.42,2.42,0,0,1,1.26,1.66l1,4.59A3.56,3.56,0,0,0,79.08,96l.67-.72a2.43,2.43,0,0,1,2.38-.69l3.22.84a6.83,6.83,0,0,0,8.54-7.09l-.24-3.52A9,9,0,0,1,94.37,80.61Z"/><path class="cls-2" d="M77.41,77.65a.56.56,0,0,0,.57.57h.81a.56.56,0,0,0,.57-.57.57.57,0,0,0-.57-.57H78A.57.57,0,0,0,77.41,77.65Z"/><path class="cls-2" d="M90.84,79.61a2,2,0,1,0-2-2A2,2,0,0,0,90.84,79.61Zm-.82-2a.82.82,0,1,1,.82.82A.82.82,0,0,1,90,77.65Z"/><path class="cls-2" d="M92.81,65.37a2.69,2.69,0,0,1-1.21,1.25,5.87,5.87,0,0,0-2,1.89c-.23,0-.45,0-.68,0l-.8.07-3.22-2.67a6.16,6.16,0,0,0-10,3.81v.06l-.73,0A7.14,7.14,0,0,0,70.27,65,1.7,1.7,0,0,0,69,65a1.71,1.71,0,0,0-.1,3.16,3.13,3.13,0,0,1,1.61,1.55A6.05,6.05,0,0,0,67,71.32,6.18,6.18,0,0,0,65.81,73a1.58,1.58,0,0,1-.16-.35,1.71,1.71,0,1,0-3.27,1,5.46,5.46,0,0,0,2.3,3l.54.33a6.59,6.59,0,0,0,.62,1.76l.34.64a6.16,6.16,0,0,0,1.38,10l.14.07c-.29.34-.6.74-.92,1.2A13.21,13.21,0,0,0,65,94a1.71,1.71,0,0,0,3.31.86,10.68,10.68,0,0,1,1.13-2.15c.17-.25.32-.47.46-.65l.56,2.71a6.17,6.17,0,0,0,10,3.46,7.71,7.71,0,0,0,2,2.53,1.7,1.7,0,0,0,2.81-1.3,1.74,1.74,0,0,0-.6-1.31,3.22,3.22,0,0,1-.38-.35l.37.1a9.38,9.38,0,0,0,8.15-1.66c.28-.22.54-.45.79-.69a4.55,4.55,0,0,0,2.61,2.31,1.7,1.7,0,0,0,2.15-1.1,1.6,1.6,0,0,0,.09-.53,1.7,1.7,0,0,0-1.18-1.62c-.48-.16-.75-.74-1.16-2-.06-.18-.13-.38-.21-.59a9.5,9.5,0,0,0,.53-2.24.57.57,0,0,0-1.13-.13,8.33,8.33,0,0,1-.52,2.12l0,.07a7.71,7.71,0,0,1-1.4,2.29l0,0a9.28,9.28,0,0,1-1.2,1.14A8.26,8.26,0,0,1,85,96.83L81.76,96a1,1,0,0,0-.94.27l-.67.72a5,5,0,0,1-8.58-2.41L70.62,90a.94.94,0,0,0-.5-.65l-2-1a5,5,0,0,1-1-8.21,1,1,0,0,0,.31-.71.88.88,0,0,0-.11-.45l-.4-.76a5,5,0,0,1-.54-1.67h0a3.78,3.78,0,0,1,0-.67,5,5,0,0,1,.26-1.59v0a5,5,0,0,1,1.31-2,5,5,0,0,1,3.7-1.37L75,71a1,1,0,0,0,1-.8l0-.23a5,5,0,0,1,8.17-3.11l3.28,2.73a1,1,0,0,0,.69.22l.88-.08a7.13,7.13,0,0,1,5.53,1.84A7.27,7.27,0,0,1,97,76.87a6.34,6.34,0,0,1,0,.76h0a7.5,7.5,0,0,1-.57,2.16l-.63,1.41a7.47,7.47,0,0,0-.62,3,4.52,4.52,0,0,0,0,.52l.17,2.44a.57.57,0,0,0,.61.53.56.56,0,0,0,.52-.61l-.17-2.44a6.24,6.24,0,0,1,.52-3L97,81a7.07,7.07,0,0,0,3.89-2.78,1.67,1.67,0,0,0,.25-.89,1.71,1.71,0,0,0-2.1-1.67,1.68,1.68,0,0,0-1,.69,8.45,8.45,0,0,0-2.74-5.68,8.78,8.78,0,0,0-1.79-1.26A5.8,5.8,0,0,0,96,66.64a1.77,1.77,0,0,0,.12-.64A1.69,1.69,0,0,0,95,64.42,1.71,1.71,0,0,0,92.81,65.37ZM71.7,69.65a4.4,4.4,0,0,0-2.37-2.55.57.57,0,0,1-.28-.76.55.55,0,0,1,.31-.29.56.56,0,0,1,.44,0,5.73,5.73,0,0,1,3.14,3.65Zm22.76,25a8.73,8.73,0,0,0,.78-1.13A3.05,3.05,0,0,0,97,95.72a.57.57,0,0,1-.36,1.08A3.56,3.56,0,0,1,94.46,94.68ZM81.58,97.12l1,.26A5.72,5.72,0,0,0,84,99.05a.57.57,0,0,1,.2.44.56.56,0,0,1-.13.37.57.57,0,0,1-.81.06,6.18,6.18,0,0,1-1.89-2.53ZM69.52,90.3l.08.37a9.49,9.49,0,0,0-1.12,1.45,11.34,11.34,0,0,0-1.29,2.48.56.56,0,0,1-.69.41.58.58,0,0,1-.41-.7,12.68,12.68,0,0,1,1.63-3.1,9.82,9.82,0,0,1,1-1.31ZM65.33,74.2a6.38,6.38,0,0,0-.2,1.31,4.17,4.17,0,0,1-1.66-2.24A.57.57,0,1,1,64.56,73,3.06,3.06,0,0,0,65.33,74.2Zm34.44,2.65a.58.58,0,0,1,.28.49.52.52,0,0,1-.09.29,5.55,5.55,0,0,1-2.32,1.93A7.58,7.58,0,0,0,98,78a3.85,3.85,0,0,0,1-1,.61.61,0,0,1,.35-.26A.58.58,0,0,1,99.77,76.85ZM94.61,65.47A.57.57,0,0,1,95,66a.54.54,0,0,1,0,.22,4.78,4.78,0,0,1-2.06,2.29,5,5,0,0,0-.56.4A9,9,0,0,0,91,68.59a6.2,6.2,0,0,1,1.26-1,3.69,3.69,0,0,0,1.64-1.77A.58.58,0,0,1,94.61,65.47Z"/><path class="cls-2" d="M90.37,90.29a2,2,0,0,0,.14-.72,2.3,2.3,0,0,0-.58-1.39,1.48,1.48,0,0,1-.41-.85h0a.57.57,0,0,0-.56-.57.58.58,0,0,0-.58.56v0A2.48,2.48,0,0,0,89,88.86c.33.43.45.63.3,1a.57.57,0,0,0,.32.74A.58.58,0,0,0,90.37,90.29Z"/><path class="cls-2" d="M78,86.75a.57.57,0,1,0,0,1.14h.81a.57.57,0,0,0,0-1.14Z"/><path class="cls-2" d="M76.46,90.54a.57.57,0,0,0-1.14,0A3,3,0,0,0,75.71,92,2.32,2.32,0,0,1,76,93.42a.58.58,0,0,0,.52.62.59.59,0,0,0,.62-.52c0-.12,0-.23,0-.33a3.6,3.6,0,0,0-.43-1.66A1.9,1.9,0,0,1,76.46,90.54Z"/><path class="cls-2" d="M72.05,81.54a1.76,1.76,0,1,0,1.76,1.76A1.76,1.76,0,0,0,72.05,81.54Zm0,2.37a.61.61,0,0,1-.61-.61.62.62,0,1,1,1.23,0A.61.61,0,0,1,72.05,83.91Z"/><path class="cls-2" d="M81.7,82.49a2.29,2.29,0,1,0-2.28,2.1A2.2,2.2,0,0,0,81.7,82.49Zm-3.43,0a1.16,1.16,0,0,1,2.29,0,1.16,1.16,0,0,1-2.29,0Z"/><path class="cls-2" d="M88.33,91.14a1.76,1.76,0,1,0-1.76,1.75A1.76,1.76,0,0,0,88.33,91.14Zm-2.37,0a.61.61,0,0,1,.61-.62.62.62,0,0,1,.62.62.61.61,0,0,1-.62.61A.61.61,0,0,1,86,91.14Z"/><path class="cls-2" d="M87.2,82.39a.57.57,0,0,0,.08-.28.55.55,0,0,0-.28-.49l-.34-.19c-.59-.32-.81-.44-.77-1.16a.58.58,0,0,0-.54-.6.57.57,0,0,0-.6.54,2.1,2.1,0,0,0,1.37,2.22l.3.17A.56.56,0,0,0,87.2,82.39Z"/><path class="cls-3" d="M208.16,54a28.35,28.35,0,1,1-28.35,28.35A28.34,28.34,0,0,1,208.16,54Z"/><path class="cls-2" d="M208,71a.57.57,0,0,0-.36-.53.58.58,0,0,0-.74.32,5.05,5.05,0,0,1-.75,1.42.57.57,0,0,0,.63,1,5,5,0,0,0,1.18-2A.52.52,0,0,0,208,71Z"/><path class="cls-2" d="M213.09,74a2,2,0,1,0-2,2A2,2,0,0,0,213.09,74Zm-2.78,0a.82.82,0,1,1,.82.82A.82.82,0,0,1,210.31,74Z"/><path class="cls-2" d="M199.9,76.26a.57.57,0,0,0-.36-.52.55.55,0,0,0-.74.3,2.77,2.77,0,0,1-1.28,1,.57.57,0,0,0,.1,1.13,3.56,3.56,0,0,0,2.23-1.74A.59.59,0,0,0,199.9,76.26Z"/><path class="cls-2" d="M220.78,80.61l.62-1.41a5.77,5.77,0,0,0-5.8-8.07l-.88.08a2.38,2.38,0,0,1-1.77-.55l-3.27-2.72a3.56,3.56,0,0,0-5.79,2.2l0,.22a2.39,2.39,0,0,1-1.16,1.72.57.57,0,1,0,.58,1A3.5,3.5,0,0,0,205,70.54l0-.23a2.42,2.42,0,0,1,3.94-1.5l3.27,2.73a3.52,3.52,0,0,0,2.6.81l.88-.08a4.62,4.62,0,0,1,4.66,6.47l-.62,1.41a10.11,10.11,0,0,0-.82,4.73l.25,3.52a5.7,5.7,0,0,1-7.12,5.91l-3.23-.84a3.55,3.55,0,0,0-3.49,1l-.67.72A2.41,2.41,0,0,1,200.53,94l-.95-4.59A3.57,3.57,0,0,0,197.73,87l-2-1.05a2.37,2.37,0,0,1-1.29-1.84,2.41,2.41,0,0,1,.79-2.11,3.55,3.55,0,0,0,.77-4.32l-.4-.76a2.42,2.42,0,0,1,2.25-3.55l2.56.13a.57.57,0,0,0,.06-1.14l-2.56-.13a3.56,3.56,0,0,0-3.32,5.22l.41.77a2.41,2.41,0,0,1-.53,2.93,3.55,3.55,0,0,0,.74,5.81l2,1a2.42,2.42,0,0,1,1.26,1.66l.95,4.59A3.56,3.56,0,0,0,205.49,96l.67-.72a2.43,2.43,0,0,1,2.38-.69l3.22.84a6.83,6.83,0,0,0,8.54-7.09l-.24-3.52A9,9,0,0,1,220.78,80.61Z"/><path class="cls-2" d="M203.82,77.65a.56.56,0,0,0,.57.57h.81a.56.56,0,0,0,.57-.57.57.57,0,0,0-.57-.57h-.81A.57.57,0,0,0,203.82,77.65Z"/><path class="cls-2" d="M217.25,79.61a2,2,0,1,0-2-2A2,2,0,0,0,217.25,79.61Zm-.82-2a.82.82,0,1,1,.82.82A.82.82,0,0,1,216.43,77.65Z"/><path class="cls-2" d="M219.22,65.37A2.69,2.69,0,0,1,218,66.62a5.87,5.87,0,0,0-2,1.89c-.23,0-.45,0-.68,0l-.8.07-3.22-2.67a6.16,6.16,0,0,0-10,3.81v.06l-.73,0A7.14,7.14,0,0,0,196.68,65a1.7,1.7,0,0,0-1.31,0,1.71,1.71,0,0,0-.1,3.16,3.13,3.13,0,0,1,1.61,1.55,6.05,6.05,0,0,0-3.43,1.63A6.18,6.18,0,0,0,192.22,73a1.58,1.58,0,0,1-.16-.35,1.71,1.71,0,1,0-3.27,1,5.46,5.46,0,0,0,2.3,3l.54.33a6.59,6.59,0,0,0,.62,1.76l.34.64a6.16,6.16,0,0,0,1.38,10l.15.07A14.84,14.84,0,0,0,191.4,94a1.71,1.71,0,0,0,3.31.86,10.68,10.68,0,0,1,1.13-2.15c.17-.25.32-.47.46-.65l.56,2.71a6.17,6.17,0,0,0,10,3.46,7.71,7.71,0,0,0,2,2.53,1.7,1.7,0,0,0,2.81-1.3,1.74,1.74,0,0,0-.6-1.31,3.22,3.22,0,0,1-.38-.35l.37.1a9.38,9.38,0,0,0,8.15-1.66c.28-.22.54-.45.79-.69a4.55,4.55,0,0,0,2.61,2.31,1.7,1.7,0,0,0,2.15-1.1,1.6,1.6,0,0,0,.09-.53,1.7,1.7,0,0,0-1.18-1.62c-.48-.16-.75-.74-1.16-2-.06-.18-.13-.38-.21-.59a9.5,9.5,0,0,0,.53-2.24.57.57,0,0,0-1.13-.13,8.33,8.33,0,0,1-.52,2.12l0,.07a7.71,7.71,0,0,1-1.4,2.29l0,0a9.28,9.28,0,0,1-1.2,1.14,8.26,8.26,0,0,1-7.17,1.46L208.17,96a1,1,0,0,0-.94.27l-.67.72A5,5,0,0,1,198,94.57L197,90a.94.94,0,0,0-.5-.65l-2-1a5,5,0,0,1-1-8.21,1,1,0,0,0,.32-.71.89.89,0,0,0-.12-.45l-.4-.76a5,5,0,0,1-.54-1.67h0a3.78,3.78,0,0,1-.05-.67,5,5,0,0,1,.26-1.59v0a5.15,5.15,0,0,1,1.31-2,5,5,0,0,1,3.7-1.37l3.48.17a1,1,0,0,0,1-.8l0-.23A4.94,4.94,0,0,1,205.62,66a5,5,0,0,1,5,.83l3.27,2.73a1,1,0,0,0,.69.22l.88-.08A7.13,7.13,0,0,1,221,71.52a7.27,7.27,0,0,1,2.37,5.35,6.34,6.34,0,0,1,0,.76h0a7.5,7.5,0,0,1-.57,2.16l-.63,1.41a7.47,7.47,0,0,0-.62,3,4.52,4.52,0,0,0,0,.52l.17,2.44a.57.57,0,0,0,.61.53.56.56,0,0,0,.52-.61l-.17-2.44a6.24,6.24,0,0,1,.52-3l.28-.65a7.07,7.07,0,0,0,3.89-2.78,1.67,1.67,0,0,0,.25-.89,1.71,1.71,0,0,0-2.1-1.67,1.68,1.68,0,0,0-1,.69,8.45,8.45,0,0,0-2.74-5.68A8.78,8.78,0,0,0,220,69.42a5.8,5.8,0,0,0,2.44-2.78,1.77,1.77,0,0,0,.12-.64,1.69,1.69,0,0,0-1.08-1.58A1.71,1.71,0,0,0,219.22,65.37Zm-21.11,4.28a4.37,4.37,0,0,0-2.37-2.55.57.57,0,0,1-.28-.76.55.55,0,0,1,.31-.29.56.56,0,0,1,.44,0,5.73,5.73,0,0,1,3.14,3.65Zm22.76,25a8.73,8.73,0,0,0,.78-1.13,3.05,3.05,0,0,0,1.71,2.17A.57.57,0,1,1,223,96.8,3.56,3.56,0,0,1,220.87,94.68ZM208,97.12l1,.26a5.72,5.72,0,0,0,1.39,1.67.57.57,0,0,1,.2.44.56.56,0,0,1-.13.37.57.57,0,0,1-.81.06,6.18,6.18,0,0,1-1.89-2.53ZM195.93,90.3l.08.37a9.49,9.49,0,0,0-1.12,1.45,11.34,11.34,0,0,0-1.29,2.48.56.56,0,0,1-.69.41.58.58,0,0,1-.41-.7,12.68,12.68,0,0,1,1.63-3.1,9.82,9.82,0,0,1,1-1.31Zm-4.19-16.1a6.38,6.38,0,0,0-.2,1.31,4.17,4.17,0,0,1-1.66-2.24A.57.57,0,1,1,191,73,3.06,3.06,0,0,0,191.74,74.2Zm34.45,2.65a.59.59,0,0,1,.27.49.52.52,0,0,1-.09.29,5.52,5.52,0,0,1-2.31,1.93,8.28,8.28,0,0,0,.36-1.53,3.69,3.69,0,0,0,1-1,.61.61,0,0,1,.35-.26A.61.61,0,0,1,226.19,76.85ZM221,65.47a.57.57,0,0,1,.36.53.54.54,0,0,1,0,.22,4.78,4.78,0,0,1-2.06,2.29,5,5,0,0,0-.56.4,9,9,0,0,0-1.34-.32,6.2,6.2,0,0,1,1.26-1,3.69,3.69,0,0,0,1.64-1.77A.58.58,0,0,1,221,65.47Z"/><path class="cls-2" d="M216.78,90.29a2,2,0,0,0,.15-.72,2.31,2.31,0,0,0-.59-1.39,1.48,1.48,0,0,1-.41-.85h0a.57.57,0,1,0-1.13,0v0a2.47,2.47,0,0,0,.62,1.53c.33.43.45.63.3,1a.57.57,0,0,0,1.06.42Z"/><path class="cls-2" d="M204.39,86.75a.57.57,0,1,0,0,1.14h.81a.57.57,0,0,0,0-1.14Z"/><path class="cls-2" d="M202.87,90.54a.57.57,0,0,0-1.14,0,3,3,0,0,0,.39,1.52,2.25,2.25,0,0,1,.31,1.39.57.57,0,0,0,1.14.1c0-.12,0-.23,0-.33a3.6,3.6,0,0,0-.43-1.66A1.9,1.9,0,0,1,202.87,90.54Z"/><path class="cls-2" d="M198.47,81.54a1.76,1.76,0,1,0,1.75,1.76A1.76,1.76,0,0,0,198.47,81.54Zm0,2.37a.61.61,0,0,1-.62-.61.62.62,0,1,1,1.23,0A.61.61,0,0,1,198.47,83.91Z"/><path class="cls-2" d="M208.11,82.49a2.29,2.29,0,1,0-2.28,2.1A2.2,2.2,0,0,0,208.11,82.49Zm-3.43,0a1.16,1.16,0,0,1,2.29,0,1.16,1.16,0,0,1-2.29,0Z"/><path class="cls-2" d="M214.74,91.14A1.76,1.76,0,1,0,213,92.89,1.76,1.76,0,0,0,214.74,91.14Zm-2.37,0a.61.61,0,0,1,.61-.62.62.62,0,0,1,.62.62.61.61,0,0,1-.62.61A.61.61,0,0,1,212.37,91.14Z"/><path class="cls-2" d="M213.61,82.39a.57.57,0,0,0,.08-.28.55.55,0,0,0-.28-.49l-.34-.19c-.59-.32-.81-.44-.77-1.16a.58.58,0,0,0-.54-.6.57.57,0,0,0-.6.54,2.1,2.1,0,0,0,1.37,2.22l.3.17A.56.56,0,0,0,213.61,82.39Z"/><path class="cls-3" d="M334,54a28.35,28.35,0,1,1-28.34,28.35A28.35,28.35,0,0,1,334,54Z"/><path class="cls-2" d="M339.44,70.09,338,66.83l-1.06.45,1.46,3.39a7.44,7.44,0,0,0-2,2.06l-2.63-1.58-.59,1,2.67,1.61a7.39,7.39,0,0,0-.66,3.05V77l-4.3-2.39-.56,1,4.79,2.66a5.72,5.72,0,0,1-1.5,3.06l-1.46-1.47-.81.81L332.79,82a5.71,5.71,0,0,1-3.3,1h-.09l-.49-3-1.13.19.48,2.89a7,7,0,0,0-2,.7l-2-3.94-1,.51,2,4.06a7.9,7.9,0,0,0-1.13,1.11l-2.32-1.86-.71.89,2.39,1.92a6.55,6.55,0,0,0-.64,1.57l-2.43-.49-.22,1.13,2.43.49q0,.33,0,.66a6.49,6.49,0,0,0,.23,1.72h-4.24v1.15h4.64a8.45,8.45,0,0,0,.49.89l-3.21,2.68.74.88,3.18-2.66a6.39,6.39,0,0,0,1,.91l-1.05,1.56,1,.64,1.07-1.61a6.75,6.75,0,0,0,1.89.61v4.12h1.14v-4h.57c.42,0,.83,0,1.25,0l.48,2.45,1.13-.22-.47-2.33a22,22,0,0,0,2.34-.42l1,3.59,1.11-.32-1-3.57c.49-.15,1-.32,1.44-.5l2,3.91,1-.51L338.39,95c.6-.28,1.19-.59,1.76-.92l2,3.05.95-.63-2-3c.61-.41,1.19-.85,1.76-1.31l1,1.53.95-.64-1.11-1.66c.43-.4.84-.82,1.24-1.26l3,2.53.73-.88-3-2.53a16.67,16.67,0,0,0,1.06-1.44L351,90.45l.61-1-4.18-2.61a21.38,21.38,0,0,0,1-2l3.23,1.08.36-1.09-3.16-1a19.57,19.57,0,0,0,.7-2.29l2.17.44.22-1.13-2.16-.43a16.48,16.48,0,0,0,.25-1.87h4.09V77.37h-4c0-.2,0-.39,0-.58a7.45,7.45,0,0,0-.3-2.07l2.85-1.42-.52-1-2.74,1.37a7.6,7.6,0,0,0-.79-1.31L350.45,71l-.68-.92-1.91,1.44a7.36,7.36,0,0,0-1.12-.9l2.13-3.2-.95-.63L345.73,70a7.75,7.75,0,0,0-1.92-.57v-4.1h-1.14v4A7.4,7.4,0,0,0,339.44,70.09Zm9.52,6.7a18.92,18.92,0,0,1-18.9,18.9h-.57a5.73,5.73,0,0,1,0-11.45,6.88,6.88,0,0,0,6.87-6.88v-.57a6.3,6.3,0,1,1,12.6,0Z"/><path class="cls-2" d="M332.36,89.39a3.44,3.44,0,1,0-3.44,3.44A3.44,3.44,0,0,0,332.36,89.39Zm-5.73,0a2.29,2.29,0,1,1,2.29,2.29A2.3,2.3,0,0,1,326.63,89.39Z"/><path class="cls-2" d="M335.22,90.54a1.72,1.72,0,1,0,1.72-1.72A1.73,1.73,0,0,0,335.22,90.54Zm2.29,0a.58.58,0,1,1-.57-.58A.58.58,0,0,1,337.51,90.54Z"/><path class="cls-2" d="M341,84.81a2.29,2.29,0,1,0,2.29-2.29A2.29,2.29,0,0,0,341,84.81Zm3.43,0a1.15,1.15,0,1,1-1.14-1.15A1.15,1.15,0,0,1,344.38,84.81Z"/><path class="cls-2" d="M336.36,81.37a1.72,1.72,0,1,0,1.72-1.71A1.73,1.73,0,0,0,336.36,81.37Zm2.3,0a.58.58,0,1,1-.58-.57A.58.58,0,0,1,338.66,81.37Z"/><path class="cls-2" d="M340.37,75.65a2.3,2.3,0,1,0,2.29-2.29A2.3,2.3,0,0,0,340.37,75.65Zm3.44,0a1.15,1.15,0,1,1-1.15-1.15A1.14,1.14,0,0,1,343.81,75.65Z"/><path class="cls-2" d="M325.48,66.48h-.13a5.67,5.67,0,0,0-1.17.13l-.48-1-1,.52.4.8a5.58,5.58,0,0,0-1.5,1l-1.37-1.82-.91.69,1.5,2a5.28,5.28,0,0,0-.56,1l-.8-.4-.51,1,.95.48a5.5,5.5,0,0,0-.12,1.16v.14h-1.15v1.15h1.2a3,3,0,0,0,.35.87l-.66.33.51,1,.95-.48a3,3,0,0,0,1,.44l-.42,1.68,1.11.27.48-1.9a2.6,2.6,0,0,0,.91-.32l.38,1.12,1.08-.36-.52-1.58a3.09,3.09,0,0,0,.38-.72l1,.66.64-1-1.4-.93a.58.58,0,0,1,.51-.31,2.91,2.91,0,0,0,1.07-.21l.74,1.1.95-.63-.73-1.11a3.11,3.11,0,0,0,.59-.87h2.53V69.35h-2.29a2.76,2.76,0,0,0-.28-1.21l1.26-1.25-.81-.81L328,67.22a2.83,2.83,0,0,0-1.32-.68v-1.2h-1.15Zm.58,1.15a1.72,1.72,0,0,1,0,3.43,1.73,1.73,0,0,0-1.72,1.72,1.72,1.72,0,1,1-3.44,0v-.71a4.45,4.45,0,0,1,4.45-4.44Z"/><path class="cls-1" d="M459.77,54a28.35,28.35,0,1,1-28.34,28.35A28.35,28.35,0,0,1,459.77,54Z"/><path class="cls-2" d="M464.84,70.09l-1.39-3.26-1.06.45,1.46,3.39a7.44,7.44,0,0,0-2,2.06l-2.63-1.58-.59,1,2.67,1.61a7.39,7.39,0,0,0-.66,3.05V77l-4.31-2.39-.55,1,4.78,2.66a5.7,5.7,0,0,1-1.49,3.06l-1.46-1.47-.81.81,1.4,1.41a5.66,5.66,0,0,1-3.29,1h-.09l-.49-3-1.13.19.48,2.89a7.12,7.12,0,0,0-2,.7l-2-3.94-1,.51,2,4.06a7,7,0,0,0-1.13,1.11l-2.32-1.86-.72.89,2.4,1.92a6.58,6.58,0,0,0-.65,1.57l-2.42-.49-.22,1.13,2.43.49q0,.33,0,.66a6.93,6.93,0,0,0,.22,1.72H444v1.15h4.64a7,7,0,0,0,.49.89l-3.21,2.68.74.88,3.18-2.66a6.77,6.77,0,0,0,1,.91l-1,1.56,1,.64,1.07-1.61a6.65,6.65,0,0,0,1.89.61v4.12h1.14v-4h.57c.42,0,.83,0,1.24,0l.49,2.45,1.13-.22-.47-2.33a22,22,0,0,0,2.34-.42l1,3.59,1.11-.32-1-3.57c.49-.15,1-.32,1.44-.5l2,3.91,1-.51L463.8,95c.6-.28,1.19-.59,1.76-.92l2,3.05.95-.63-2-3c.61-.41,1.19-.85,1.75-1.31l1,1.53.95-.64-1.11-1.66q.64-.6,1.23-1.26l3,2.53.74-.88-3-2.53a16.67,16.67,0,0,0,1.06-1.44l4.17,2.61.61-1-4.18-2.61a19.18,19.18,0,0,0,1-2l3.24,1.08.36-1.09-3.16-1a19.57,19.57,0,0,0,.7-2.29l2.17.44.22-1.13-2.16-.43c.11-.61.2-1.24.25-1.87h4.09V77.37h-4c0-.2,0-.39,0-.58a7.45,7.45,0,0,0-.3-2.07l2.85-1.42-.52-1-2.74,1.37a7.6,7.6,0,0,0-.79-1.31L475.86,71l-.68-.92-1.91,1.44a7.36,7.36,0,0,0-1.12-.9l2.13-3.2-1-.63L471.14,70a7.75,7.75,0,0,0-1.92-.57v-4.1h-1.15v4A7.47,7.47,0,0,0,464.84,70.09Zm9.53,6.7a18.92,18.92,0,0,1-18.9,18.9h-.57a5.73,5.73,0,1,1,0-11.45,6.88,6.88,0,0,0,6.87-6.88v-.57a6.3,6.3,0,0,1,12.6,0Z"/><path class="cls-2" d="M457.76,89.39a3.44,3.44,0,1,0-3.43,3.44A3.44,3.44,0,0,0,457.76,89.39Zm-5.72,0a2.29,2.29,0,1,1,2.29,2.29A2.29,2.29,0,0,1,452,89.39Z"/><path class="cls-2" d="M460.63,90.54a1.72,1.72,0,1,0,1.72-1.72A1.73,1.73,0,0,0,460.63,90.54Zm2.29,0a.58.58,0,1,1-.57-.58A.58.58,0,0,1,462.92,90.54Z"/><path class="cls-2" d="M466.36,84.81a2.29,2.29,0,1,0,2.29-2.29A2.29,2.29,0,0,0,466.36,84.81Zm3.43,0a1.15,1.15,0,1,1-1.14-1.15A1.15,1.15,0,0,1,469.79,84.81Z"/><path class="cls-2" d="M461.77,81.37a1.72,1.72,0,1,0,1.72-1.71A1.72,1.72,0,0,0,461.77,81.37Zm2.29,0a.57.57,0,0,1-.57.58.58.58,0,0,1,0-1.15A.57.57,0,0,1,464.06,81.37Z"/><path class="cls-2" d="M465.78,75.65a2.29,2.29,0,1,0,2.29-2.29A2.3,2.3,0,0,0,465.78,75.65Zm3.44,0a1.15,1.15,0,1,1-1.15-1.15A1.14,1.14,0,0,1,469.22,75.65Z"/><path class="cls-2" d="M450.89,66.48h-.13a5.67,5.67,0,0,0-1.17.13l-.48-1-1,.52.4.8a5.58,5.58,0,0,0-1.5,1l-1.37-1.82-.91.69,1.5,2a5.28,5.28,0,0,0-.56,1l-.8-.4-.51,1,1,.48a5.5,5.5,0,0,0-.13,1.16v.14H444v1.15h1.2a3,3,0,0,0,.35.87l-.66.33.51,1,.95-.48a3,3,0,0,0,.95.44l-.42,1.68,1.11.27.48-1.9a2.6,2.6,0,0,0,.91-.32l.38,1.12,1.08-.36-.52-1.58a3.09,3.09,0,0,0,.38-.72l1,.66.64-1-1.4-.93a.57.57,0,0,1,.5-.31,2.93,2.93,0,0,0,1.08-.21l.74,1.1,1-.63-.73-1.11a3.11,3.11,0,0,0,.59-.87h2.53V69.35h-2.29a2.9,2.9,0,0,0-.28-1.21l1.26-1.25-.81-.81-1.14,1.14a2.83,2.83,0,0,0-1.32-.68v-1.2h-1.15Zm.57,1.15a1.72,1.72,0,1,1,0,3.43,1.72,1.72,0,0,0-1.71,1.72,1.72,1.72,0,0,1-3.44,0v-.71a4.44,4.44,0,0,1,4.45-4.44Z"/><line class="cls-4" x1="54" x2="54" y2="36"/><line class="cls-4" y1="54" x2="36" y2="54"/><line class="cls-4" y1="110.69" x2="36" y2="110.69"/><line class="cls-4" x1="54" y1="164.69" x2="54" y2="128.69"/><line class="cls-4" x1="488.12" x2="488.12" y2="36"/><line class="cls-4" x1="542.12" y1="54" x2="506.12" y2="54"/><line class="cls-4" x1="542.12" y1="110.69" x2="506.12" y2="110.69"/><line class="cls-4" x1="488.12" y1="164.69" x2="488.12" y2="128.69"/></svg>